<svg width="24" height="24" viewBox="0 0 24 24" fill="none" xmlns="http://www.w3.org/2000/svg">
    <defs>
        <linearGradient id="paint0_linear_1815_11116" x1="4.0354" y1="17.5621" x2="16.3126"
            y2="25.9573" gradientUnits="userSpaceOnUse">
            <stop stop-color="#FF006E" />
            <stop offset="0.497159" stop-color="#FB5607" />
            <stop offset="1" stop-color="#FFBE0B" />
        </linearGradient>
    </defs>
    <g id="Food">
        <path id="Vector"
            d="M12 9.54537C12.4142 9.54537 12.75 9.21976 12.75 8.81809C12.75 8.41643 12.4142 8.09082 12 8.09082C11.5858 8.09082 11.25 8.41643 11.25 8.81809C11.25 9.21976 11.5858 9.54537 12 9.54537Z"
            stroke="#1F1F1F" />
        <path id="Vector_2"
            d="M11.9998 9.30322C7.58148 9.30322 3.99976 12.7764 3.99976 17.0608H19.9998C19.9998 12.7764 16.418 9.30322 11.9998 9.30322Z"
            fill="white" stroke="#1F1F1F" />
        <path id="Vector_3"
            d="M20.5152 17.0605H3.48485C3.21707 17.0605 3 17.2776 3 17.5454V18.5151C3 18.7829 3.21707 18.9999 3.48485 18.9999H20.5152C20.7829 18.9999 21 18.7829 21 18.5151V17.5454C21 17.2776 20.7829 17.0605 20.5152 17.0605Z"
            fill="url(#paint0_linear_1815_11116)" stroke="#1F1F1F" />
        <path id="Vector_4" d="M10.5 11.7273C9.5 11.9697 7.35 13.1091 6.75 15.7273" stroke="#1F1F1F"
            stroke-linecap="round" />
        <path id="Vector_5"
            d="M10.3155 3C9.86763 3.16623 9.64927 3.48426 9.79478 3.9974C9.89221 4.34097 10.3155 4.74546 10.4665 4.99481C10.6176 5.24416 10.4665 5.74286 9.79479 5.99221"
            stroke="#1F1F1F" stroke-linecap="round" />
        <path id="Vector_6"
            d="M12.2107 3C11.7629 3.16623 11.5445 3.48426 11.69 3.9974C11.7875 4.34097 12.2107 4.74546 12.3618 4.99481C12.5129 5.24416 12.3618 5.74286 11.6901 5.99221"
            stroke="#1F1F1F" stroke-linecap="round" />
        <path id="Vector_7"
            d="M14.1058 3C13.6579 3.16623 13.4395 3.48426 13.5851 3.9974C13.6825 4.34097 14.1058 4.74546 14.2568 4.99481C14.4079 5.24416 14.2568 5.74286 13.5851 5.99221"
            stroke="#1F1F1F" stroke-linecap="round" />
    </g>
</svg>
