<svg width="24" height="24" viewBox="0 0 24 24" fill="none" xmlns="http://www.w3.org/2000/svg">
    <defs>
        <linearGradient id="paint0_linear_1815_11175" x1="7.40265" y1="3.72422" x2="14.3679"
            y2="4.26302" gradientUnits="userSpaceOnUse">
            <stop stop-color="#FF006E" />
            <stop offset="0.497159" stop-color="#FB5607" />
            <stop offset="1" stop-color="#FFBE0B" />
        </linearGradient>
    </defs>
    <g id="Luxury stay">
        <path id="Vector"
            d="M4.94849 7.91916C4.94849 7.31417 5.43893 6.82373 6.04391 6.82373H13.9705C14.5755 6.82373 15.066 7.31417 15.066 7.91916V21.8904C15.066 21.9509 15.0169 22 14.9564 22H5.05803C4.99753 22 4.94849 21.9509 4.94849 21.8904V7.91916Z"
            fill="white" stroke="#1F1F1F" />
        <path id="Vector_2"
            d="M10.8718 17.574H9.14243C8.92152 17.574 8.74243 17.7531 8.74243 17.974V22.0004H11.2718V17.974C11.2718 17.7531 11.0927 17.574 10.8718 17.574Z"
            fill="#1F1F1F" />
        <path id="Vector_3"
            d="M12.849 14.4121H11.592C11.4152 14.4121 11.272 14.5554 11.272 14.7321V15.9892C11.272 16.1659 11.4152 16.3092 11.592 16.3092H12.849C13.0258 16.3092 13.169 16.1659 13.169 15.9892V14.7321C13.169 14.5554 13.0258 14.4121 12.849 14.4121Z"
            fill="#1F1F1F" />
        <path id="Vector_4"
            d="M8.42251 14.4121H7.16546C6.98873 14.4121 6.84546 14.5554 6.84546 14.7321V15.9892C6.84546 16.1659 6.98873 16.3092 7.16546 16.3092H8.42251C8.59924 16.3092 8.74251 16.1659 8.74251 15.9892V14.7321C8.74251 14.5554 8.59924 14.4121 8.42251 14.4121Z"
            fill="#1F1F1F" />
        <path id="Vector_5"
            d="M12.849 11.2502H11.592C11.4152 11.2502 11.272 11.3935 11.272 11.5702V12.8273C11.272 13.004 11.4152 13.1473 11.592 13.1473H12.849C13.0258 13.1473 13.169 13.004 13.169 12.8273V11.5702C13.169 11.3935 13.0258 11.2502 12.849 11.2502Z"
            fill="#1F1F1F" />
        <path id="Vector_6"
            d="M8.42251 11.2502H7.16546C6.98873 11.2502 6.84546 11.3935 6.84546 11.5702V12.8273C6.84546 13.004 6.98873 13.1473 7.16546 13.1473H8.42251C8.59924 13.1473 8.74251 13.004 8.74251 12.8273V11.5702C8.74251 11.3935 8.59924 11.2502 8.42251 11.2502Z"
            fill="#1F1F1F" />
        <path id="Vector_7"
            d="M15.0659 13.8555C15.0659 13.4642 15.3831 13.147 15.7744 13.147H19.4162C19.8074 13.147 20.1247 13.4642 20.1247 13.8555V21.9289C20.1247 21.9681 20.0929 21.9998 20.0538 21.9998H15.1368C15.0976 21.9998 15.0659 21.9681 15.0659 21.9289V13.8555Z"
            fill="white" stroke="#1F1F1F" />
        <path id="Vector_8"
            d="M16.647 15.3639C16.647 15.1872 16.7902 15.0439 16.967 15.0439H18.224C18.4007 15.0439 18.544 15.1872 18.544 15.3639V16.621C18.544 16.7977 18.4007 16.941 18.224 16.941H16.967C16.7902 16.941 16.647 16.7977 16.647 16.621V15.3639Z"
            fill="#1F1F1F" />
        <path id="Vector_9"
            d="M16.647 18.5258C16.647 18.3491 16.7902 18.2058 16.967 18.2058H18.224C18.4007 18.2058 18.544 18.3491 18.544 18.5258V19.7828C18.544 19.9596 18.4007 20.1028 18.224 20.1028H16.967C16.7902 20.1028 16.647 19.9596 16.647 19.7828V18.5258Z"
            fill="#1F1F1F" />
        <path id="Vector_10"
            d="M12.6276 8.64799C12.3786 8.82538 10.7806 7.70095 10.4746 7.69848C10.1686 7.69602 8.55265 8.79459 8.30652 8.61322C8.06038 8.43185 8.63903 6.56898 8.54681 6.278C8.4546 5.98701 6.90745 4.79401 7.00437 4.50454C7.1013 4.21507 9.05685 4.18818 9.30589 4.0108C9.55493 3.83343 10.2147 1.99755 10.5207 2C10.8268 2.00247 11.4567 3.84873 11.7028 4.0301C11.949 4.21145 13.9038 4.26982 13.9961 4.5608C14.0883 4.85178 12.5221 6.01974 12.4251 6.30921C12.3282 6.59868 12.8767 8.47061 12.6276 8.64799Z"
            fill="url(#paint0_linear_1815_11175)" stroke="#1F1F1F" />
    </g>
</svg>
