<svg width="24" height="24" viewBox="0 0 24 24" fill="none" xmlns="http://www.w3.org/2000/svg">
    <defs>
        <linearGradient id="paint0_linear_1815_11133" x1="7.88737" y1="15.1956" x2="15.9279"
            y2="15.788" gradientUnits="userSpaceOnUse">
            <stop stop-color="#FF006E" />
            <stop offset="0.497159" stop-color="#FB5607" />
            <stop offset="1" stop-color="#FFBE0B" />
        </linearGradient>
    </defs>
    <g id="Movies">
        <path id="Vector"
            d="M19.8384 8.14233H5.62441C5.53521 8.14233 5.46289 8.21465 5.46289 8.30386V18.8836C5.46289 18.9728 5.53521 19.0451 5.62441 19.0451H19.8384C19.9276 19.0451 19.9999 18.9728 19.9999 18.8836V8.30386C19.9999 8.21465 19.9276 8.14233 19.8384 8.14233Z"
            fill="white" stroke="#1F1F1F" />
        <path id="Vector_2"
            d="M19.8384 8.14233H5.62441C5.53521 8.14233 5.46289 8.21465 5.46289 8.30386V10.4037C5.46289 10.4929 5.53521 10.5652 5.62441 10.5652H19.8384C19.9276 10.5652 19.9999 10.4929 19.9999 10.4037V8.30386C19.9999 8.21465 19.9276 8.14233 19.8384 8.14233Z"
            fill="white" stroke="#1F1F1F" />
        <path id="Vector_3"
            d="M18.8516 2.24737L5.15564 6.04957C5.06968 6.07343 5.01934 6.16245 5.04321 6.24841L5.6049 8.27169C5.62876 8.35764 5.71778 8.40798 5.80374 8.38411L19.4997 4.58192C19.5857 4.55806 19.636 4.46903 19.6121 4.38308L19.0505 2.3598C19.0266 2.27384 18.9376 2.22351 18.8516 2.24737Z"
            fill="white" stroke="#1F1F1F" />
        <path id="Vector_4" d="M8.63427 8.26123L7.01904 10.2803" stroke="#1F1F1F"
            stroke-linecap="round" />
        <path id="Vector_5" d="M11.0567 8.26123L9.44141 10.2803" stroke="#1F1F1F"
            stroke-linecap="round" />
        <path id="Vector_6" d="M13.4795 8.26123L11.8643 10.2803" stroke="#1F1F1F"
            stroke-linecap="round" />
        <path id="Vector_7" d="M15.9023 8.26123L14.2871 10.2803" stroke="#1F1F1F"
            stroke-linecap="round" />
        <path id="Vector_8" d="M18.3261 8.26123L16.7109 10.2803" stroke="#1F1F1F"
            stroke-linecap="round" />
        <path id="Vector_9" d="M8.21987 7.68339L6.42773 6.09424" stroke="#1F1F1F"
            stroke-linecap="round" />
        <path id="Vector_10" d="M10.9127 6.94561L9.12061 5.35645" stroke="#1F1F1F"
            stroke-linecap="round" />
        <path id="Vector_11" d="M13.3972 6.2647L11.605 4.67554" stroke="#1F1F1F"
            stroke-linecap="round" />
        <path id="Vector_12" d="M15.8824 5.58403L14.0903 3.99487" stroke="#1F1F1F"
            stroke-linecap="round" />
        <path id="Vector_13" d="M18.3679 4.90336L16.5757 3.31421" stroke="#1F1F1F"
            stroke-linecap="round" />
        <path id="Vector_14"
            d="M11.4609 21.1831C13.6911 21.1831 15.499 19.3752 15.499 17.145C15.499 14.9148 13.6911 13.1069 11.4609 13.1069C9.23075 13.1069 7.42285 14.9148 7.42285 17.145C7.42285 19.3752 9.23075 21.1831 11.4609 21.1831Z"
            fill="url(#paint0_linear_1815_11133)" stroke="#1F1F1F" />
        <path id="Vector_15"
            d="M11.4604 18.3564C12.1295 18.3564 12.6719 17.8141 12.6719 17.145C12.6719 16.476 12.1295 15.9336 11.4604 15.9336C10.7914 15.9336 10.249 16.476 10.249 17.145C10.249 17.8141 10.7914 18.3564 11.4604 18.3564Z"
            fill="white" stroke="#1F1F1F" />
        <path id="Vector_16"
            d="M11.4609 15.126C11.684 15.126 11.8647 14.9452 11.8647 14.7222C11.8647 14.4992 11.684 14.3184 11.4609 14.3184C11.2379 14.3184 11.0571 14.4992 11.0571 14.7222C11.0571 14.9452 11.2379 15.126 11.4609 15.126Z"
            fill="#1F1F1F" />
        <path id="Vector_17"
            d="M9.23975 17.5488C9.23975 17.7718 9.05896 17.9526 8.83594 17.9526C8.61292 17.9526 8.43213 17.7718 8.43213 17.5488C8.43213 17.3258 8.61292 17.145 8.83594 17.145C9.05896 17.145 9.23975 17.3258 9.23975 17.5488Z"
            fill="#1F1F1F" />
        <path id="Vector_18"
            d="M9.44189 15.9336C9.66491 15.9336 9.8457 15.7528 9.8457 15.5298C9.8457 15.3068 9.66491 15.126 9.44189 15.126C9.21888 15.126 9.03809 15.3068 9.03809 15.5298C9.03809 15.7528 9.21888 15.9336 9.44189 15.9336Z"
            fill="#1F1F1F" />
        <path id="Vector_19"
            d="M10.249 19.1641C10.249 19.3871 10.0682 19.5679 9.84521 19.5679C9.6222 19.5679 9.44141 19.3871 9.44141 19.1641C9.44141 18.941 9.6222 18.7603 9.84521 18.7603C10.0682 18.7603 10.249 18.941 10.249 19.1641Z"
            fill="#1F1F1F" />
        <path id="Vector_20"
            d="M13.892 17.5441C13.9022 17.7669 14.091 17.9393 14.3138 17.9291C14.5366 17.919 14.709 17.7302 14.6988 17.5074C14.6887 17.2846 14.4999 17.1122 14.2771 17.1224C14.0543 17.1325 13.8819 17.3213 13.892 17.5441Z"
            fill="#1F1F1F" />
        <path id="Vector_21"
            d="M13.6172 15.9396C13.3944 15.9498 13.2056 15.7774 13.1955 15.5546C13.1853 15.3318 13.3577 15.143 13.5805 15.1329C13.8033 15.1227 13.9921 15.2951 14.0022 15.5179C14.0124 15.7407 13.84 15.9295 13.6172 15.9396Z"
            fill="#1F1F1F" />
        <path id="Vector_22"
            d="M12.957 19.2035C12.9671 19.4263 13.1559 19.5987 13.3787 19.5886C13.6015 19.5784 13.7739 19.3896 13.7638 19.1668C13.7536 18.944 13.5648 18.7716 13.342 18.7818C13.1192 18.7919 12.9468 18.9807 12.957 19.2035Z"
            fill="#1F1F1F" />
        <path id="Vector_23"
            d="M11.8647 19.7698C11.8647 19.9928 11.6839 20.1736 11.4609 20.1736C11.2379 20.1736 11.0571 19.9928 11.0571 19.7698C11.0571 19.5468 11.2379 19.366 11.4609 19.366C11.6839 19.366 11.8647 19.5468 11.8647 19.7698Z"
            fill="#1F1F1F" />
        <path id="Vector_24" d="M11.0571 21.1831H17.7199" stroke="#1F1F1F" stroke-linecap="round" />
    </g>
</svg>
