<svg width="24" height="24" viewBox="0 0 24 24" fill="none" xmlns="http://www.w3.org/2000/svg">
    <defs>
        <linearGradient id="paint0_linear_1815_11124" x1="12.9039" y1="6.01852" x2="18.1073"
            y2="4.7284" gradientUnits="userSpaceOnUse">
            <stop stop-color="#FF006E" />
            <stop offset="0.497159" stop-color="#FB5607" />
            <stop offset="1" stop-color="#FFBE0B" />
        </linearGradient>
    </defs>
    <g id="Music">
        <path id="Vector" d="M6.82666 10.6L16.0105 7.80005" stroke="black" />
        <path id="Vector_2"
            d="M4.9133 20.9999C5.96999 20.9999 6.8266 20.1045 6.8266 19C6.8266 17.8954 5.96999 17 4.9133 17C3.85661 17 3 17.8954 3 19C3 20.1045 3.85661 20.9999 4.9133 20.9999Z"
            stroke="black" />
        <path id="Vector_3"
            d="M14.0969 19.4001C15.1536 19.4001 16.0102 18.5047 16.0102 17.4001C16.0102 16.2956 15.1536 15.4001 14.0969 15.4001C13.0402 15.4001 12.1836 16.2956 12.1836 17.4001C12.1836 18.5047 13.0402 19.4001 14.0969 19.4001Z"
            stroke="black" />
        <path id="Vector_4"
            d="M6.82666 19.4002V8.97257C6.82666 8.51766 7.1337 8.12008 7.57383 8.00506L14.7577 6.12775C15.3914 5.96215 16.0105 6.44029 16.0105 7.09526V17.4002"
            stroke="black" />
        <path id="Vector_5"
            d="M17.9098 8.38632C17.7736 8.58524 16.3375 8.14967 16.1153 8.22732C15.8932 8.30498 14.9966 9.55604 14.7734 9.48276C14.5501 9.40949 14.5059 7.84966 14.3669 7.65346C14.2278 7.45726 12.8114 6.95661 12.8096 6.71241C12.8078 6.46821 14.2166 5.93975 14.3527 5.74083C14.4889 5.54193 14.5101 3.98145 14.7322 3.90378C14.9544 3.82614 15.8693 5.05937 16.0925 5.13264C16.3157 5.2059 17.7453 4.74212 17.8843 4.93832C18.0234 5.13452 17.1801 6.42516 17.1818 6.66937C17.1837 6.91357 18.0459 8.1874 17.9098 8.38632Z"
            fill="url(#paint0_linear_1815_11124)" stroke="#1F1F1F" />
        <path id="Vector_6" d="M19.9546 6.24951L20.9215 6.29355" stroke="black"
            stroke-linecap="round" />
        <path id="Vector_7" d="M19.6616 5.07493L20.3745 4.39197" stroke="black"
            stroke-linecap="round" />
        <path id="Vector_8" d="M20.2188 8.13839L19.5654 7.39319" stroke="black"
            stroke-linecap="round" />
    </g>
</svg>
