<svg width="24" height="24" viewBox="0 0 24 24" fill="none" xmlns="http://www.w3.org/2000/svg">
    <defs>
        <linearGradient id="paint0_linear_1815_11194" x1="10.5398" y1="15.2711" x2="2.5751"
            y2="15.8579" gradientUnits="userSpaceOnUse">
            <stop stop-color="#FF006E" />
            <stop offset="0.497159" stop-color="#FB5607" />
            <stop offset="1" stop-color="#FFBE0B" />
        </linearGradient>
        <linearGradient id="paint1_linear_1815_11194" x1="16.9933" y1="6.97209" x2="17.5443"
            y2="3.04541" gradientUnits="userSpaceOnUse">
            <stop stop-color="#FF006E" />
            <stop offset="0.497159" stop-color="#FB5607" />
            <stop offset="1" stop-color="#FFBE0B" />
        </linearGradient>
    </defs>
    <g id="Partial">
        <path id="Vector"
            d="M7 21.2021C4.79086 21.2021 3 19.4113 3 17.2021C3 14.993 4.79086 13.2021 7 13.2021C9.20914 13.2021 11 14.993 11 17.2021C11 19.4113 9.20914 21.2021 7 21.2021Z"
            fill="url(#paint0_linear_1815_11194)" stroke="#1F1F1F" />
        <path id="Vector_2"
            d="M8.63313 15.9844H7.5415C7.80483 16.0928 7.98198 16.2792 8.07295 16.5436H8.63313V17.0183H8.1304C8.11125 17.2914 8.01789 17.519 7.85032 17.7011C7.68753 17.8831 7.44575 18.0262 7.12496 18.1302L8.22287 19.6123H7.15279L6.24879 18.2668H5.35107V17.7271H6.22006C6.51691 17.7271 6.74194 17.6729 6.89515 17.5645C7.04836 17.4561 7.13693 17.2741 7.16087 17.0183H5.35107V16.5436H7.12496C7.07708 16.3659 6.97415 16.238 6.81615 16.16C6.65815 16.0776 6.4427 16.0365 6.16979 16.0365H5.35107V15.5098H8.63313V15.9844Z"
            fill="#1F1F1F" />
        <path id="Vector_3" d="M12.79 20.2102C15.2012 20.1992 19.579 18.1999 19.7084 12.8998"
            stroke="#1F1F1F" stroke-linecap="round" stroke-dasharray="1 2" />
        <path id="Vector_4" d="M11.8768 3.63574C9.46842 3.75303 5.18303 5.94347 5.28752 11.2441"
            stroke="#1F1F1F" stroke-linecap="round" stroke-dasharray="1 2" />
        <path id="Vector_5"
            d="M17.4692 14.2871L19.5917 12.7353C19.6785 12.6719 19.8008 12.6958 19.8574 12.7871L21.1395 14.8572"
            stroke="#1F1F1F" stroke-linecap="round" />
        <path id="Vector_6"
            d="M7.46332 9.75965L5.41131 11.4035C5.32746 11.4707 5.20417 11.4522 5.14363 11.3635L3.77148 9.35193"
            stroke="#1F1F1F" stroke-linecap="round" />
        <path id="Vector_7"
            d="M20.9452 3.5354H14.0548C14.0245 3.5354 14 3.55995 14 3.59023V10.1473C14 10.1776 14.0245 10.2021 14.0548 10.2021H20.9452C20.9755 10.2021 21 10.1776 21 10.1473V3.59023C21 3.55995 20.9755 3.5354 20.9452 3.5354Z"
            fill="white" stroke="#1F1F1F" />
        <path id="Vector_8"
            d="M16.5344 7.14871C16.4979 7.17188 16.4502 7.14566 16.4502 7.10242V3.25697C16.4502 3.22669 16.4747 3.20215 16.505 3.20215H18.4953C18.5256 3.20215 18.5502 3.22669 18.5502 3.25697V7.10242C18.5502 7.14566 18.5024 7.17188 18.4659 7.14871L17.5295 6.55417C17.5116 6.54278 17.4887 6.54278 17.4708 6.55417L16.5344 7.14871Z"
            fill="url(#paint1_linear_1815_11194)" stroke="#1F1F1F" />
    </g>
</svg>
