<?xml version="1.0" encoding="UTF-8"?>
<svg xmlns="http://www.w3.org/2000/svg" id="Layer_1" data-name="Layer 1" viewBox="0 0 24 24">
    <path
        d="M23.297,9.035c-.57-.658-1.396-1.035-2.267-1.035h-.089C20.441,3.507,16.624,0,12,0S3.559,3.507,3.059,8h-.059c-.871,0-1.697,.377-2.267,1.035C.164,9.692-.093,10.563,.031,11.424l1.061,7.424c.419,2.937,2.973,5.151,5.939,5.151h9.969c2.966,0,5.52-2.215,5.939-5.151l1.061-7.424c.124-.861-.133-1.732-.703-2.39Zm-8.297,7.965h-6c-.552,0-1-.448-1-1s.448-1,1-1h6c.552,0,1,.448,1,1s-.448,1-1,1ZM5.08,8c.488-3.387,3.401-6,6.92-6s6.432,2.613,6.92,6H5.08Z" />
</svg>
