<svg width="24" height="24" viewBox="0 0 24 24" fill="none" xmlns="http://www.w3.org/2000/svg">
    <defs>
        <linearGradient id="paint0_linear_1815_11235" x1="1.38053" y1="6.2069" x2="25.2747"
            y2="7.96732" gradientUnits="userSpaceOnUse">
            <stop stop-color="#FF006E" />
            <stop offset="0.497159" stop-color="#FB5607" />
            <stop offset="1" stop-color="#FFBE0B" />
        </linearGradient>
        <clipPath id="clip0_1815_11235">
            <rect width="24" height="24" fill="white" />
        </clipPath>
    </defs>
    <g clip-path="url(#clip0_1815_11235)">
        <path
            d="M12 24C18.6274 24 24 18.6274 24 12C24 5.37258 18.6274 0 12 0C5.37258 0 0 5.37258 0 12C0 18.6274 5.37258 24 12 24Z"
            fill="url(#paint0_linear_1815_11235)" />
        <path
            d="M9.01481 13.4182L6.57923 14.6811C6.54748 14.6976 6.52956 14.7323 6.53451 14.7677L6.977 17.9345C6.98282 17.9762 7.01847 18.0072 7.06056 18.0072H7.38504L13.4085 18.7503C13.8079 18.7995 14.2118 18.7045 14.5473 18.4822L20.4815 14.5502C20.7834 14.3502 20.9028 13.9652 20.7669 13.6294C20.6056 13.2307 20.1465 13.0445 19.753 13.2181L14.6493 15.4708C14.6283 15.4801 14.6097 15.454 14.6253 15.4372L15.6263 14.3594C16.0736 13.8778 15.5811 13.1179 14.9588 13.3296L13.5408 13.8118C13.1723 13.9371 12.7717 13.9311 12.4071 13.795L11.0658 13.294C10.3953 13.0436 9.65016 13.0887 9.01481 13.4182Z"
            fill="white" />
        <path fill-rule="evenodd" clip-rule="evenodd"
            d="M5.41941 12.9481C5.1864 12.9493 4.99863 13.1392 5.00001 13.3722L5.03075 18.5805C5.03213 18.8135 5.22213 19.0014 5.45513 19.0002L6.99864 18.992C7.23165 18.9908 7.41942 18.8009 7.41804 18.5679L7.3873 13.3596C7.38592 13.1266 7.19592 12.9387 6.96292 12.9399L5.41941 12.9481ZM6.19106 14.5535C6.41081 14.5535 6.58895 14.3841 6.58895 14.1752C6.58895 13.9663 6.41081 13.797 6.19106 13.797C5.97131 13.797 5.79317 13.9663 5.79317 14.1752C5.79317 14.3841 5.97131 14.5535 6.19106 14.5535Z"
            fill="white" />
        <path fill-rule="evenodd" clip-rule="evenodd"
            d="M15.9213 8.90032C15.9565 8.92192 15.9917 8.95433 16.0151 8.98675C16.0855 9.08399 16.0973 9.21364 16.0034 9.32168L15.5693 10.024L15.5341 10.0564C15.4402 10.1644 15.2759 10.2076 15.1351 10.1428L14.8887 10.0348C14.7597 9.98073 14.6306 9.95913 14.5015 9.95913H14.4898H14.4546C14.3255 9.96993 14.2082 10.0023 14.0909 10.0564C14.0322 10.0888 13.9853 10.1212 13.9383 10.1644L13.9266 10.1752C13.7741 10.3157 13.6802 10.4885 13.6685 10.683L13.645 10.9315C13.645 11.0179 13.5981 11.0828 13.5394 11.1368C13.469 11.1908 13.3986 11.2232 13.3047 11.2232H12.4248C12.2488 11.2232 12.0962 11.0936 12.0845 10.9315L12.061 10.683C12.0493 10.4345 11.9085 10.2292 11.709 10.0996C11.6973 10.0942 11.6856 10.0861 11.6738 10.078C11.6621 10.0699 11.6504 10.0618 11.6386 10.0564C11.5213 9.99154 11.3922 9.94832 11.2514 9.94832C11.1106 9.94832 10.9816 9.96993 10.8525 10.024L10.6061 10.132C10.4888 10.186 10.3714 10.1644 10.2776 10.1104C10.2306 10.0888 10.1837 10.0564 10.1602 10.0131L9.72606 9.31087C9.64393 9.17042 9.69086 8.98675 9.83166 8.90032L9.9842 8.80308L10.0546 8.75986C10.125 8.70584 10.1837 8.65182 10.2424 8.58699C10.3597 8.44654 10.4301 8.27367 10.4301 8.1008C10.4301 7.90633 10.348 7.71185 10.2072 7.5714C10.1602 7.51738 10.1133 7.47416 10.0546 7.44175L9.9842 7.39853L9.83166 7.30129C9.67913 7.21486 9.6322 7.03119 9.72606 6.89073L10.1602 6.18846C10.2072 6.11283 10.2776 6.06962 10.3597 6.04801C10.4301 6.0372 10.5122 6.0372 10.5944 6.06961L10.7469 6.13444L10.8408 6.17766C10.8541 6.18258 10.8669 6.18751 10.8793 6.19231C10.9214 6.20856 10.9597 6.22334 11.005 6.23168C11.0754 6.24248 11.1576 6.25329 11.2397 6.25329H11.2749C11.404 6.24248 11.5213 6.21007 11.6386 6.15605H11.6504C11.7325 6.11283 11.8029 6.04801 11.8616 5.98318C11.9789 5.86434 12.061 5.71308 12.0728 5.54021L12.0962 5.29171C12.1197 5.12965 12.2605 5 12.4365 5H13.3165C13.4338 5 13.5394 5.05402 13.5981 5.14045C13.6333 5.18367 13.6567 5.22689 13.6567 5.28091L13.7037 5.5186C13.7154 5.64825 13.7623 5.7671 13.8327 5.87514C13.8503 5.89135 13.8679 5.91025 13.8855 5.92916C13.9031 5.94807 13.9207 5.96698 13.9383 5.98318C13.9383 5.99399 13.9501 6.00479 13.9618 6.01559L13.9735 6.0264C14.0205 6.06962 14.0674 6.10203 14.1261 6.13444C14.3725 6.26409 14.6658 6.2749 14.9239 6.16685L15.0765 6.10203L15.1703 6.05881C15.2759 6.01559 15.3815 6.0264 15.4754 6.06961C15.4871 6.06961 15.5106 6.08042 15.5223 6.09122L15.5341 6.10203C15.5575 6.12364 15.581 6.14524 15.6045 6.17766L16.0386 6.87993C16.109 6.99878 16.0855 7.15004 15.9799 7.24727C15.9764 7.25054 15.9728 7.25481 15.9689 7.25946C15.96 7.27017 15.9494 7.28296 15.933 7.29049L15.7101 7.43094C15.6162 7.48497 15.5458 7.56059 15.4871 7.64703C15.3933 7.77668 15.3346 7.92794 15.3346 8.09C15.3346 8.32769 15.4402 8.53297 15.6162 8.68423C15.6397 8.71664 15.6631 8.73825 15.6983 8.75986L15.9213 8.90032ZM12.8782 9.35614C13.1592 9.35614 13.4194 9.27518 13.6276 9.1234C13.9398 8.89066 14.148 8.53648 14.1584 8.11148C14.1584 7.77754 14.0127 7.45373 13.7837 7.23111C13.5547 7.00849 13.2321 6.86682 12.8782 6.86682C12.1808 6.86682 11.5979 7.43349 11.5979 8.11148C11.5979 8.78946 12.1704 9.35614 12.8782 9.35614Z"
            fill="white" />
    </g>
</svg>
