<svg width="40" height="40" viewBox="0 0 40 40" fill="none" xmlns="http://www.w3.org/2000/svg">
    <path
        d="M26.7154 10.2328C26.5913 10.073 26.5086 10.0066 26.4026 10.0004C26.3682 9.99843 26.3317 10.0034 26.29 10.0128L26.2868 10.0136C26.1591 10.0499 22.5634 11.0638 19.8124 11.0638C17.07 11.0638 13.6036 10.0699 13.4544 10.0276H13.4513C13.2209 10.0283 13.0605 10.1163 12.8983 10.3118C12.7355 10.5081 12.6024 10.821 12.5526 11.1784L11.2942 20.2105C13.4845 19.9022 16.367 19.6436 19.8749 19.6436C23.3175 19.6436 26.1557 19.8927 28.3305 20.1934L27.076 11.1784C27.026 10.8194 26.881 10.4459 26.7154 10.2328Z"
        fill="white" />
    <path
        d="M17.5041 26.2527C17.5041 27.9828 16.0861 29.3954 14.3243 29.3954C12.5626 29.3954 11.1445 27.9828 11.1445 26.2527C11.1445 24.5225 12.5626 23.1099 14.3243 23.1099C16.0861 23.1099 17.5041 24.5225 17.5041 26.2527Z"
        stroke="white" stroke-width="1.20801" />
    <path
        d="M28.0987 26.2527C28.0987 27.9828 26.6807 29.3954 24.9189 29.3954C23.1572 29.3954 21.7391 27.9828 21.7391 26.2527C21.7391 24.5225 23.1572 23.1099 24.9189 23.1099C26.6807 23.1099 28.0987 24.5225 28.0987 26.2527Z"
        stroke="white" stroke-width="1.20801" />
    <path d="M6 20.2585C6 20.2585 14.5327 18.7598 20 18.7598C25.4673 18.7598 34 20.2585 34 20.2585"
        stroke="white" stroke-width="1.44962" stroke-linecap="round" />
    <path d="M18.1082 26.2539H21.1352" stroke="white" stroke-width="1.44962"
        stroke-linecap="round" />
</svg>
