<svg width="360" height="154" viewBox="0 0 360 154" fill="none" xmlns="http://www.w3.org/2000/svg">
    <g style="mix-blend-mode:luminosity" opacity="0.6">
        <path d="M87.4521 8.65265L89.5277 4.17857L91.7659 5.21757L89.6889 9.69043L87.4521 8.65265Z"
            fill="#881A8C" />
        <path d="M234.604 90.7413L239.035 89.4529L239.68 91.6689L235.249 92.9561L234.604 90.7413Z"
            fill="#E8038C" />
        <path d="M215.545 6.82198L218.324 6.15834L218.654 7.54798L215.876 8.21191L215.545 6.82198Z"
            fill="#881A8C" />
        <path d="M164.731 38.5262L169.306 37.3787L169.88 39.6663L165.306 40.8135L164.731 38.5262Z"
            fill="#F7F00C" />
        <path d="M99.9065 64.3703L103.259 66.2757L102.306 67.9512L98.9534 66.0449L99.9065 64.3703Z"
            fill="#4FAEE5" />
        <path d="M26.115 10.4305L24.5876 12.4189L23.5933 11.6553L25.1207 9.6668L26.115 10.4305Z"
            fill="#E8038C" />
        <path d="M342.531 43.672L345.329 42.705L345.814 44.1028L343.016 45.0713L342.531 43.672Z"
            fill="#E81C28" />
        <path d="M75.0259 54.0235L75.6058 50.1956L77.5217 50.4851L76.9403 54.3154L75.0259 54.0235Z"
            fill="#881A8C" />
        <path d="M262.891 86.4249L264.617 88.5502L263.556 89.415L261.828 87.2901L262.891 86.4249Z"
            fill="#E8038C" />
        <path d="M110.312 100.182L111.411 102.68L110.161 103.23L109.064 100.733L110.312 100.182Z"
            fill="#E8038C" />
        <path d="M131.335 57.4723L134.668 57.3463L134.733 59.0125L131.399 59.1396L131.335 57.4723Z"
            fill="#F7F00C" />
        <path d="M264.89 129.536L269.432 126.735L270.833 129.006L266.291 131.807L264.89 129.536Z"
            fill="#4FAEE5" />
        <path d="M7.23576 42.6797L3.88916 41.491L4.48339 39.8179L7.83002 41.0075L7.23576 42.6797Z"
            fill="#A074C0" />
        <path d="M71.1485 15.2434L69.401 19.4512L67.2959 18.5782L69.0443 14.3689L71.1485 15.2434Z"
            fill="#E81C28" />
        <path d="M347.95 99.9814L346.83 97.0904L348.273 96.5313L349.39 99.4202L347.95 99.9814Z"
            fill="#4FAEE5" />
        <path d="M37.6434 6.48145L37.4175 3.04637L39.1331 2.931L39.3614 6.36607L37.6434 6.48145Z"
            fill="#7CC729" />
        <path d="M38.578 43.4508L42.1799 47.2034L40.3029 49.0039L36.7021 45.2513L38.578 43.4508Z"
            fill="#E81C28" />
        <path d="M79.6634 15.4416L76.7886 18.3232L75.3472 16.8866L78.2219 14.0034L79.6634 15.4416Z"
            fill="#A074C0" />
        <path d="M85.3609 39.2721L83.8218 42.1846L82.365 41.4137L83.9052 38.5013L85.3609 39.2721Z"
            fill="#7CC729" />
        <path d="M133.973 15.2412L129.88 13.895L130.553 11.8486L134.646 13.1949L133.973 15.2412Z"
            fill="#E8038C" />
        <path d="M73.4383 5.3457L72.8276 1.86154L74.5703 1.55667L75.1797 5.03964L73.4383 5.3457Z"
            fill="#A074C0" />
        <path d="M354.424 32.7934L354.87 35.9329L353.297 36.1553L352.854 33.016L354.424 32.7934Z"
            fill="#E81C28" />
        <path d="M62.5374 109.457L66.5276 107.617L67.4467 109.612L63.4561 111.451L62.5374 109.457Z"
            fill="#F7F00C" />
        <path d="M239 3.74442L239.496 0.491L241.124 0.74043L240.626 3.99414L239 3.74442Z"
            fill="#E8038C" />
        <path d="M234.44 27.5293L229.68 25.8336L230.527 23.4529L235.289 25.1474L234.44 27.5293Z"
            fill="#F7F00C" />
        <path d="M255.073 101.725L255.786 98.8758L257.209 99.2324L256.497 102.08L255.073 101.725Z"
            fill="#E8038C" />
        <path d="M93.0867 46.458L95.9036 48.3348L94.9646 49.7422L92.1489 47.8655L93.0867 46.458Z"
            fill="#E81C28" />
        <path d="M315.787 149.342L312.97 144.716L315.283 143.305L318.103 147.932L315.787 149.342Z"
            fill="#A074C0" />
        <path d="M303.035 13.5892L305.478 16.5028L304.02 17.7256L301.577 14.8108L303.035 13.5892Z"
            fill="#E81C28" />
        <path d="M79.6184 66.6189L80.6538 64.4231L81.7518 64.941L80.7173 67.1367L79.6184 66.6189Z"
            fill="#E81C28" />
        <path d="M194.143 37.0689L195.187 33.5197L196.961 34.0411L195.916 37.5889L194.143 37.0689Z"
            fill="#E81C28" />
        <path d="M118.775 5.91351L114.554 9.69531L112.662 7.5845L116.886 3.80119L118.775 5.91351Z"
            fill="#7CC729" />
        <path d="M12.3379 129.528L15.1432 135.043L12.385 136.443L9.58081 130.932L12.3379 129.528Z"
            fill="#881A8C" />
        <path d="M291.632 35L289.705 31.0121L291.699 30.0485L293.627 34.0363L291.632 35Z"
            fill="#E81C28" />
        <path d="M298.06 7.41658L301.944 11.4587L299.924 13.4014L296.039 9.35928L298.06 7.41658Z"
            fill="#4FAEE5" />
        <path d="M238.009 41.7088L235.389 44.6553L233.916 43.3458L236.534 40.4002L238.009 41.7088Z"
            fill="#4FAEE5" />
        <path d="M23.0095 48.2799L25.0135 46.1239L26.0902 47.1277L24.0862 49.2812L23.0095 48.2799Z"
            fill="#A074C0" />
        <path d="M280.602 103.455L281.881 105.77L280.724 106.409L279.446 104.095L280.602 103.455Z"
            fill="#E8038C" />
        <path d="M23.7063 24.6977L24.1758 27.3372L22.8543 27.5713L22.386 24.9333L23.7063 24.6977Z"
            fill="#E81C28" />
        <path d="M104.697 36.3638L107.559 32.6477L109.418 34.0786L106.556 37.7959L104.697 36.3638Z"
            fill="#E8038C" />
        <path d="M143.812 39.929L142.032 42.3037L140.846 41.4138L142.624 39.0406L143.812 39.929Z"
            fill="#E8038C" />
        <path d="M314.958 12.4685L310.611 14.5898L309.554 12.4179L313.898 10.2962L314.958 12.4685Z"
            fill="#881A8C" />
        <path d="M266.193 99.0737L266.817 102.441L265.132 102.751L264.511 99.3819L266.193 99.0737Z"
            fill="#F7F00C" />
        <path d="M199.379 25.5217L204.062 27.9563L202.847 30.2979L198.161 27.8644L199.379 25.5217Z"
            fill="#A074C0" />
        <path d="M266.535 73.9326L269.039 75.8377L268.088 77.0908L265.582 75.1846L266.535 73.9326Z"
            fill="#E8038C" />
        <path d="M53.6188 0.651307L56.1335 4.97685L53.9694 6.23242L51.457 1.90688L53.6188 0.651307Z"
            fill="#E81C28" />
        <path d="M0 6.44336L1.27205 6.44215L1.27087 2.9637L0 2.96491V6.44336Z" fill="#4FAEE5" />
        <path d="M14.7608 109.35L12.7204 111.764L11.5154 110.742L13.5558 108.332L14.7608 109.35Z"
            fill="#4FAEE5" />
        <path d="M61.743 66.5127L66.7912 66.9456L66.5746 69.4697L61.5264 69.0381L61.743 66.5127Z"
            fill="#7CC729" />
        <path d="M208.572 13.975L211.382 13.7972L211.47 15.2034L208.661 15.3809L208.572 13.975Z"
            fill="#E81C28" />
        <path d="M76.7945 22.261L81.9485 23.9944L81.0812 26.5703L75.9285 24.8382L76.7945 22.261Z"
            fill="#4FAEE5" />
        <path d="M97.5671 39.2207L93.6133 38.351L94.0462 36.3731L98.0024 37.244L97.5671 39.2207Z"
            fill="#E81C28" />
        <path d="M334.873 8.80664L334.56 5.74361L336.087 5.58728L336.407 8.64911L334.873 8.80664Z"
            fill="#F7F00C" />
        <path d="M23.7642 37.0752L20.3152 39.2158L19.2444 37.4906L22.6945 35.3503L23.7642 37.0752Z"
            fill="#4FAEE5" />
        <path d="M0 31.1699L2.00868 30.4156L1.33676 28.6223L0 29.1236V31.1699Z" fill="#4FAEE5" />
        <path d="M240.359 111.979L241.615 109.352L242.927 109.981L241.671 112.607L240.359 111.979Z"
            fill="#E81C28" />
        <path d="M60.726 144.511L56.9863 142.607L57.9358 140.736L61.6779 142.64L60.726 144.511Z"
            fill="#A074C0" />
        <path d="M25.2734 84.6188L26.5149 81.3382L28.1541 81.9594L26.9126 85.2402L25.2734 84.6188Z"
            fill="#7CC729" />
        <path d="M118.76 134.885L114.047 133.46L114.759 131.107L119.472 132.53L118.76 134.885Z"
            fill="#F7F00C" />
        <path d="M286 62.8523L285.58 65.6484L284.18 65.4376L284.604 62.6417L286 62.8523Z"
            fill="#F7F00C" />
        <path d="M267.673 64.6591L268.286 61.7066L269.761 62.0124L269.151 64.9648L267.673 64.6591Z"
            fill="#F7F00C" />
        <path d="M319.582 16.497L320.194 19.3787L318.754 19.6836L318.142 16.8016L319.582 16.497Z"
            fill="#E8038C" />
        <path d="M279.961 24.1279L277.426 22.331L278.323 21.0625L280.859 22.8606L279.961 24.1279Z"
            fill="#F7F00C" />
        <path d="M297.845 81.7256L295.712 80.0335L296.559 78.9674L298.691 80.6583L297.845 81.7256Z"
            fill="#A074C0" />
        <path d="M294.145 47.2871L291.16 45.7077L291.952 44.2156L294.935 45.796L294.145 47.2871Z"
            fill="#4FAEE5" />
        <path d="M65.8969 82.3317L66.2722 85.802L64.5365 85.9902L64.1599 82.5199L65.8969 82.3317Z"
            fill="#881A8C" />
        <path d="M302.652 51.9828L306.577 55.0413L305.05 57.0039L301.123 53.9469L302.652 51.9828Z"
            fill="#E8038C" />
        <path d="M9.57163 97.4531L7.94775 95.0586L9.1445 94.2452L10.7684 96.641L9.57163 97.4531Z"
            fill="#E8038C" />
        <path d="M262.44 49.6855L260.69 51.5625L259.751 50.6883L261.501 48.8113L262.44 49.6855Z"
            fill="#7CC729" />
        <path d="M190.091 44.5636L194.784 42.0051L196.064 44.3527L191.369 46.9111L190.091 44.5636Z"
            fill="#7CC729" />
        <path d="M88.7911 25.8982L86.6553 28.7637L85.2231 27.6964L87.359 24.831L88.7911 25.8982Z"
            fill="#E8038C" />
        <path d="M186.474 23.5924L189.1 26.5696L187.612 27.8818L184.984 24.9047L186.474 23.5924Z"
            fill="#7CC729" />
        <path d="M307.264 37.2604L307.502 40.787L305.74 40.9072L305.502 37.3794L307.264 37.2604Z"
            fill="#E8038C" />
        <path d="M152.167 27.7754L150.562 25.3983L151.75 24.597L153.354 26.9717L152.167 27.7754Z"
            fill="#4FAEE5" />
        <path d="M221.013 14.8862L219.911 19.626L217.542 19.0753L218.642 14.3368L221.013 14.8862Z"
            fill="#4FAEE5" />
        <path d="M63.1609 25.4215L65.8404 22.9561L67.0734 24.2951L64.3942 26.7617L63.1609 25.4215Z"
            fill="#A074C0" />
        <path d="M337.145 55.4898L339.735 57.2231L338.868 58.5176L336.28 56.7854L337.145 55.4898Z"
            fill="#E81C28" />
        <path d="M106.235 5.96777L105.077 2.82732L106.648 2.24712L107.806 5.38908L106.235 5.96777Z"
            fill="#7CC729" />
        <path d="M175.603 60.0391L173.908 56.538L175.657 55.6897L177.353 59.1892L175.603 60.0391Z"
            fill="#7CC729" />
        <path d="M266.929 39.3304L268.2 41.8334L266.949 42.4688L265.678 39.966L266.929 39.3304Z"
            fill="#4FAEE5" />
        <path d="M129.061 84.5312L128.164 81.3658L129.747 80.9176L130.644 84.0854L129.061 84.5312Z"
            fill="#E8038C" />
        <path d="M112.477 87.6771L114.142 84.8951L115.531 85.7283L113.866 88.5088L112.477 87.6771Z"
            fill="#A074C0" />
        <path d="M133.499 74.4985L136.353 71.2517L137.976 72.6793L135.123 75.9258L133.499 74.4985Z"
            fill="#4FAEE5" />
        <path d="M43.4697 65.5567L46.1797 60.8818L48.5167 62.2362L45.808 66.9111L43.4697 65.5567Z"
            fill="#881A8C" />
        <path d="M99.5183 24.8629L103.106 26.7162L102.18 28.5098L98.5935 26.6562L99.5183 24.8629Z"
            fill="#881A8C" />
        <path d="M282.185 8.88758L278.079 10.2715L277.385 8.21791L281.491 6.834L282.185 8.88758Z"
            fill="#E81C28" />
        <path d="M13.184 77.7686L11.1707 74.6525L12.7275 73.6467L14.7409 76.7624L13.184 77.7686Z"
            fill="#E81C28" />
        <path d="M24.6923 70.0742L22.6777 68.1104L23.6603 67.1043L25.6725 69.0681L24.6923 70.0742Z"
            fill="#7CC729" />
        <path d="M95.3434 85.4922L93.103 81.936L94.8798 80.8169L97.1201 84.3707L95.3434 85.4922Z"
            fill="#A074C0" />
        <path d="M89.5534 16.1865L86.813 14.8568L87.4778 13.4859L90.2182 14.8156L89.5534 16.1865Z"
            fill="#A074C0" />
        <path d="M172.71 25.5566L169.55 27.9912L168.332 26.4109L171.493 23.9762L172.71 25.5566Z"
            fill="#A074C0" />
        <path d="M337.624 134.493L333.53 133.702L333.927 131.657L338.018 132.449L337.624 134.493Z"
            fill="#E8038C" />
        <path d="M54.9707 95.0511L57.5325 93.1108L58.5046 94.3898L55.9428 96.335L54.9707 95.0511Z"
            fill="#4FAEE5" />
        <path d="M125.208 13.4792L125.461 16.3856L124.006 16.5127L123.754 13.6063L125.208 13.4792Z"
            fill="#881A8C" />
        <path d="M291.37 152.608L292.866 148.755L294.794 149.502L293.296 153.355L291.37 152.608Z"
            fill="#7CC729" />
        <path d="M234.057 56.2596L237.005 54.8675L237.699 56.3394L234.754 57.7314L234.057 56.2596Z"
            fill="#E81C28" />
        <path d="M240.48 13.6768L240.171 10.9785L241.518 10.8243L241.827 13.5228L240.48 13.6768Z"
            fill="#E8038C" />
        <path d="M25.3829 122.578L24.0779 119.972L25.3817 119.322L26.6855 121.925L25.3829 122.578Z"
            fill="#E8038C" />
        <path d="M329.108 85.2399L332.554 87.5721L331.385 89.2949L327.939 86.9603L329.108 85.2399Z"
            fill="#A074C0" />
        <path d="M255.268 64.6182L253.073 61.362L254.7 60.2643L256.894 63.5201L255.268 64.6182Z"
            fill="#4FAEE5" />
        <path d="M167.568 68.3814L164.095 69.2852L163.642 67.5494L167.117 66.6444L167.568 68.3814Z"
            fill="#A074C0" />
        <path d="M120.441 30.9661L125.126 27.4536L126.882 29.7951L122.198 33.3076L120.441 30.9661Z"
            fill="#7CC729" />
        <path d="M10.8932 57.2015L12.8348 59.5467L11.6628 60.5176L9.72119 58.1733L10.8932 57.2015Z"
            fill="#7CC729" />
        <path d="M310.891 97.1688L312.404 92.9405L314.515 93.6972L313.003 97.9219L310.891 97.1688Z"
            fill="#881A8C" />
        <path d="M272.175 34.9765L276.708 37.3135L275.54 39.5801L271.003 37.243L272.175 34.9765Z"
            fill="#4FAEE5" />
        <path d="M177.085 16.4588L179.865 14.3206L180.935 15.7126L178.152 17.8496L177.085 16.4588Z"
            fill="#F7F00C" />
        <path d="M323.146 57.8967L324.803 60.4856L323.51 61.3164L321.854 58.7263L323.146 57.8967Z"
            fill="#881A8C" />
        <path d="M32.6469 22.1817L34.2354 24.3714L33.1412 25.167L31.5525 22.977L32.6469 22.1817Z"
            fill="#F7F00C" />
        <path d="M342.142 13.2892L343.715 15.3156L342.703 16.1016L341.13 14.0742L342.142 13.2892Z"
            fill="#881A8C" />
        <path d="M28.0459 1.99516L31.7549 1.27037L32.1185 3.12482L28.4083 3.84961L28.0459 1.99516Z"
            fill="#7CC729" />
        <path d="M322.39 35.0352L321.986 30.987L324.011 30.7858L324.411 34.8339L322.39 35.0352Z"
            fill="#A074C0" />
        <path d="M119.969 43.6327L123.494 42.6772L123.973 44.4397L120.445 45.3965L119.969 43.6327Z"
            fill="#F7F00C" />
        <path d="M55.3416 36.3091L52.1773 37.6084L51.5278 36.0269L54.6921 34.7264L55.3416 36.3091Z"
            fill="#7CC729" />
        <path d="M269.892 4.1467L267.272 5.01367L266.838 3.70417L269.459 2.83569L269.892 4.1467Z"
            fill="#F7F00C" />
        <path d="M196.208 57.9332L199.734 55.6082L200.897 57.3708L197.371 59.6973L196.208 57.9332Z"
            fill="#F7F00C" />
        <path d="M359.946 19.4742L358.94 23.9531L356.702 23.4494L357.708 18.9718L359.946 19.4742Z"
            fill="#7CC729" />
        <path d="M360 64.7745L357.707 66.1855L357.006 65.0393L359.295 63.6307L360 64.7745Z"
            fill="#A074C0" />
        <path d="M40.6748 82.1826L40.1724 78.0866L42.2211 77.8348L42.7236 81.932L40.6748 82.1826Z"
            fill="#881A8C" />
        <path d="M224.061 29.9421L221.269 30.6377L220.919 29.242L223.714 28.5468L224.061 29.9421Z"
            fill="#E81C28" />
        <path d="M48.4329 13.17L53.6389 12.1048L54.1706 14.7066L48.9649 15.7715L48.4329 13.17Z"
            fill="#7CC729" />
        <path d="M176.196 30.4388L179.011 30.4529L179.004 31.8604L176.188 31.8462L176.196 30.4388Z"
            fill="#7CC729" />
        <path d="M205.328 67.2588L203.082 66.3765L203.524 65.2549L205.769 66.1376L205.328 67.2588Z"
            fill="#881A8C" />
        <path d="M29.437 60.7073L33.6439 58.6718L34.6618 60.7733L30.455 62.8115L29.437 60.7073Z"
            fill="#E8038C" />
        <path d="M189.15 73.0826L193.075 73.1028L193.066 75.0645L189.141 75.0467L189.15 73.0826Z"
            fill="#4FAEE5" />
        <path d="M250.504 75.7084L254.262 78.6504L252.791 80.5283L249.033 77.5864L250.504 75.7084Z"
            fill="#881A8C" />
        <path d="M160.358 17.6777L162.539 14.5535L164.1 15.6434L161.921 18.7676L160.358 17.6777Z"
            fill="#E81C28" />
        <path d="M297.459 69.3193L301.131 69.1229L301.231 70.9586L297.559 71.1562L297.459 69.3193Z"
            fill="#F7F00C" />
        <path d="M182.945 8.51074L182.881 4.56055L184.856 4.52983L184.919 8.47761L182.945 8.51074Z"
            fill="#A074C0" />
        <path d="M83.4633 129.393L85.8226 133.468L83.7868 134.645L81.4275 130.572L83.4633 129.393Z"
            fill="#7CC729" />
        <path d="M251.034 38.3941L250.567 42.6055L248.461 42.3714L248.929 38.16L251.034 38.3941Z"
            fill="#E8038C" />
        <path d="M209.975 29.0138L209.019 34.0879L206.483 33.6089L207.44 28.536L209.975 29.0138Z"
            fill="#4FAEE5" />
        <path d="M229.633 14.0672L232.751 14.8863L232.339 16.4443L229.224 15.6252L229.633 14.0672Z"
            fill="#881A8C" />
        <path d="M84.2491 80.9217L82.3781 83.9248L80.8767 82.9903L82.7477 79.9861L84.2491 80.9217Z"
            fill="#F7F00C" />
        <path d="M138.103 10.2968L139.805 7.07828L141.414 7.92898L139.713 11.1475L138.103 10.2968Z"
            fill="#881A8C" />
        <path d="M147.579 67.2356L146.637 71.4189L144.547 70.9481L145.489 66.7651L147.579 67.2356Z"
            fill="#4FAEE5" />
        <path d="M218.109 70.9405L219.346 66.7102L221.46 67.3268L220.225 71.5596L218.109 70.9405Z"
            fill="#E81C28" />
        <path d="M328.216 45.5124L330.936 44.9298L331.228 46.2914L328.508 46.874L328.216 45.5124Z"
            fill="#A074C0" />
        <path d="M283.856 100.847L279.079 96.6163L280.726 95.0056L285.5 99.2359L283.856 100.847Z"
            fill="#E6098D" />
        <path d="M283.739 133.679L282.974 133.137L283.648 132.313L284.413 132.854L283.739 133.679Z"
            fill="#A933A0" />
        <path d="M94.796 128.729L94.011 127.139L95.0985 126.674L95.882 128.265L94.796 128.729Z"
            fill="#E50D73" />
        <path d="M246.17 125.402L246.048 122.422L247.972 122.355L248.092 125.334L246.17 125.402Z"
            fill="#57C03C" />
        <path d="M88.3334 108.149L88.2581 107.028L89.5679 106.948L89.6468 108.069L88.3334 108.149Z"
            fill="#B2DB18" />
        <path d="M313.452 121.729L312.928 121.119L313.383 120.777L313.91 121.386L313.452 121.729Z"
            fill="#4A7DC8" />
        <path d="M85.5541 146.646L84.1985 144.913L85.8023 143.824L87.1591 145.554L85.5541 146.646Z"
            fill="#E51351" />
        <path d="M319.573 121.529L315.823 116.907L317.214 115.927L320.965 120.549L319.573 121.529Z"
            fill="#55BF35" />
        <path d="M339.952 125.392L339.569 124.876L340.437 124.323L340.816 124.839L339.952 125.392Z"
            fill="#E50E6D" />
        <path d="M73.641 126.506L72.4878 122.067L73.8175 121.771L74.9706 126.209L73.641 126.506Z"
            fill="#58C142" />
        <path d="M259.051 133.269L254.601 130.43L255.733 128.891L260.183 131.727L259.051 133.269Z"
            fill="#54BF36" />
        <path d="M100.562 97.7852L99.7207 96.5238L100.975 95.8003L101.816 97.0616L100.562 97.7852Z"
            fill="#51BEE9" />
        <path d="M304.632 117.595L304.285 117.489L304.626 116.533L304.969 116.638L304.632 117.595Z"
            fill="#ED137B" />
        <path d="M20.6432 122.583L18.9688 122.303L19.0088 122.099L20.6821 122.379L20.6432 122.583Z"
            fill="#E30E91" />
        <path d="M245.662 147.213L243.365 142.374L245.354 141.553L247.654 146.393L245.662 147.213Z"
            fill="#6FC72D" />
        <path d="M310.391 141.326L309.747 138.386L310.003 138.335L310.645 141.279L310.391 141.326Z"
            fill="#F9A72C" />
        <path d="M248.682 139.831L246.984 136.216L248.084 135.769L249.778 139.384L248.682 139.831Z"
            fill="#E61934" />
        <path d="M212.784 142.17L211.431 140.758L212.058 140.24L213.412 141.652L212.784 142.17Z"
            fill="#65C430" />
        <path d="M71.5908 113.271L70.4084 107.375L72.4382 107.02L73.6209 112.917L71.5908 113.271Z"
            fill="#3972C1" />
        <path d="M45.4689 148.938L43.4153 147.096L44.6284 145.921L46.682 147.764L45.4689 148.938Z"
            fill="#5CC133" />
        <path d="M287.152 97.5264L283.003 95.1752L284.16 93.4114L288.305 95.7614L287.152 97.5264Z"
            fill="#4C46A4" />
        <path d="M235.684 114.721L235.646 113.273L236.664 113.25L236.705 114.698L235.684 114.721Z"
            fill="#E60A85" />
        <path d="M37.401 145.489L33.7205 142.942L34.9004 141.465L38.5801 144.01L37.401 145.489Z"
            fill="#ED137B" />
        <path d="M38.7915 130.981L38.4915 130.679L39.4575 129.858L39.7567 130.164L38.7915 130.981Z"
            fill="#3972C1" />
        <path d="M81.766 104.64L81.3401 103.993L82.2884 103.451L82.7132 104.096L81.766 104.64Z"
            fill="#F9A72C" />
        <path d="M302.52 133.622L300.186 130.416L301.135 129.818L303.463 133.026L302.52 133.622Z"
            fill="#4A80CA" />
        <path d="M244.601 112.715L243.822 110.464L244.742 110.19L245.519 112.438L244.601 112.715Z"
            fill="#E62324" />
        <path d="M41.5894 122.588L39.8853 120.317L41.4104 119.326L43.1143 121.597L41.5894 122.588Z"
            fill="#55BF35" />
        <path d="M65.492 103.292L64.8167 103.101L65.2592 101.741L65.9334 101.929L65.492 103.292Z"
            fill="#E51545" />
        <path d="M35.8454 146.684L34.0593 143.677L34.7995 143.295L36.5855 146.301L35.8454 146.684Z"
            fill="#863AA1" />
        <path d="M246.15 133.517L242.732 132.599L242.997 131.746L246.415 132.663L246.15 133.517Z"
            fill="#476FBF" />
        <path d="M76.7875 141.986L75.146 139.241L76.2157 138.686L77.8584 141.43L76.7875 141.986Z"
            fill="#56C8E5" />
        <path d="M63.1678 109.696L62.8997 109.565L63.2762 108.9L63.5443 109.031L63.1678 109.696Z"
            fill="#6540A3" />
        <path d="M332.382 132.275L329.59 130.067L331.168 128.343L333.958 130.551L332.382 132.275Z"
            fill="#435DB4" />
        <path d="M321.32 140.383L321.079 139.83L321.959 139.497L322.2 140.05L321.32 140.383Z"
            fill="#6BC62E" />
        <path d="M297.654 104.492L294.492 101.533L295.706 100.406L298.868 103.366L297.654 104.492Z"
            fill="#E5115B" />
        <path d="M71.1497 127.524L68.5029 125.119L70.0338 123.659L72.6806 126.065L71.1497 127.524Z"
            fill="#3972C1" />
        <path d="M281.612 121.637L279.446 119.322L280.881 118.156L283.048 120.468L281.612 121.637Z"
            fill="#56C035" />
        <path d="M103.286 129.604L102.356 125.108L103.757 124.858L104.686 129.353L103.286 129.604Z"
            fill="#62C896" />
        <path d="M263.972 151.059L260.716 147.855L261.64 147.038L264.899 150.244L263.972 151.059Z"
            fill="#5F42A3" />
        <path d="M262.481 107.04L261.055 107.011L261.081 105.804L262.508 105.834L262.481 107.04Z"
            fill="#60C683" />
        <path d="M36.5137 91.8701L36.4761 91.117L37.2093 91.0839L37.2491 91.837L36.5137 91.8701Z"
            fill="#5EC574" />
        <path d="M81.7051 116.954L78.7725 114.601L79.5692 113.742L82.5003 116.095L81.7051 116.954Z"
            fill="#ED137B" />
        <path d="M216.024 91.333L212.759 91.2779L212.768 90.8248L216.033 90.8799L216.024 91.333Z"
            fill="#62C891" />
        <path d="M41.2959 143.181L38.1904 139.629L39.1674 138.888L42.2726 142.439L41.2959 143.181Z"
            fill="#67C530" />
        <path d="M121.398 96.25L119.785 90.664L121.055 90.345L122.668 95.9322L121.398 96.25Z"
            fill="#E5651A" />
        <path d="M20.5527 98.6553L19.1794 95.4347L20.4562 94.9626L21.8294 98.1844L20.5527 98.6553Z"
            fill="#9ED51E" />
        <path d="M71.4699 93.1523L71.3533 92.151L71.9452 92.0935L72.0618 93.0924L71.4699 93.1523Z"
            fill="#50B9E8" />
        <path d="M78.7221 138.362L78.4185 134.861L79.8141 134.754L80.1166 138.259L78.7221 138.362Z"
            fill="#4978C5" />
        <path d="M258.824 137.515L258.292 135.812L259.077 135.6L259.61 137.303L258.824 137.515Z"
            fill="#6840A2" />
        <path d="M341.898 114.392L338.648 112.701L338.895 112.285L342.148 113.977L341.898 114.392Z"
            fill="#59C252" />
        <path d="M315.289 120.707L313.349 115.656L314.325 115.332L316.265 120.38L315.289 120.707Z"
            fill="#5DC233" />
        <path d="M24.6219 134.705L22.6238 134.199L23.0274 132.822L25.0243 133.331L24.6219 134.705Z"
            fill="#78CA2A" />
        <path d="M273.866 123.062L273.054 122.626L273.596 121.746L274.407 122.182L273.866 123.062Z"
            fill="#3F50AA" />
        <path d="M70.7987 64.7295L67.738 64.7048L67.7477 63.6776L70.8095 63.7022L70.7987 64.7295Z"
            fill="#9ED51E" />
        <path d="M300.619 72.501L298.526 71.1559L298.736 70.8722L300.831 72.216L300.619 72.501Z"
            fill="#C3E017" />
        <path d="M99.848 32.624L96.8567 32.2451L96.951 31.6013L99.9435 31.9815L99.848 32.624Z"
            fill="#5AC9E0" />
        <path d="M130.071 36.6484L129.775 36.2412L130.105 36.0318L130.403 36.4415L130.071 36.6484Z"
            fill="#E51D25" />
        <path d="M239.576 33.6973L238.358 33.5527L238.374 33.4527L239.588 33.596L239.576 33.6973Z"
            fill="#4C86CE" />
        <path d="M143.096 40.5527L142.698 39.8725L143.11 39.6644L143.508 40.3455L143.096 40.5527Z"
            fill="#E6098E" />
        <path d="M313.087 63.3281L312.268 62.8901L312.756 62.1006L313.575 62.5374L313.087 63.3281Z"
            fill="#5C43A3" />
        <path d="M329.3 30.7129L328.095 29.1739L328.619 28.8208L329.821 30.3598L329.3 30.7129Z"
            fill="#F9A72C" />
        <path d="M253.064 63.3496L252.652 62.5082L253.605 62.1058L254.015 62.9471L253.064 63.3496Z"
            fill="#4FA9E3" />
        <path d="M157.172 9.46484L156.859 6.83138L157.876 6.72654L158.189 9.36L157.172 9.46484Z"
            fill="#435EB4" />
        <path d="M282.827 4.87012L281.923 4.60169L282.168 3.89227L283.068 4.15948L282.827 4.87012Z"
            fill="#57C035" />
        <path d="M126.423 78.207L125.022 77.3563L125.145 77.1822L126.544 78.0341L126.423 78.207Z"
            fill="#F9A72C" />
        <path d="M341.53 20.4678L340.509 17.6695L341.395 17.3906L342.413 20.19L341.53 20.4678Z"
            fill="#8839A1" />
        <path d="M145.501 55.8945L145.073 55.6581L145.409 55.1309L145.838 55.3686L145.501 55.8945Z"
            fill="#54BF36" />
        <path d="M157.876 46.8486L157.833 44.9391L158.659 44.9237L158.705 46.8324L157.876 46.8486Z"
            fill="#5B43A4" />
        <path d="M116.658 57.4805L116.424 57.0569L116.775 56.8888L117.009 57.3124L116.658 57.4805Z"
            fill="#56C035" />
        <path d="M164.961 61.0078L164.345 59.6983L164.59 59.5983L165.206 60.9078L164.961 61.0078Z"
            fill="#55BF35" />
        <path d="M289.654 38.6152L286.99 38.3917L287.072 37.5386L289.738 37.7621L289.654 38.6152Z"
            fill="#81CD27" />
        <path d="M42.327 39.1514L41.4031 38.9558L41.5633 38.3004L42.4869 38.4959L42.327 39.1514Z"
            fill="#63CBD6" />
        <path d="M268.462 38.3633L266.455 37.8834L266.615 37.3056L268.621 37.7855L268.462 38.3633Z"
            fill="#3F4FAA" />
        <path d="M99.2795 46.2119L99.0054 44.5409L99.3925 44.487L99.6669 46.1568L99.2795 46.2119Z"
            fill="#58C148" />
        <path d="M182.858 60.3105L182.484 59.8599L183.451 59.1643L183.826 59.6129L182.858 60.3105Z"
            fill="#3972C1" />
        <path d="M52.7658 31.0459L51.6702 29.987L52.4188 29.3162L53.5144 30.3753L52.7658 31.0459Z"
            fill="#87CE26" />
        <path d="M312.744 7.61816L311.395 6.25895L311.925 5.80015L313.277 7.15937L312.744 7.61816Z"
            fill="#3972C1" />
        <path d="M103.91 17.0078L103.388 16.2134L103.798 15.9818L104.32 16.7746L103.91 17.0078Z"
            fill="#6341A3" />
        <path d="M151.843 63.5732L151.338 61.8893L151.743 61.7836L152.246 63.4684L151.843 63.5732Z"
            fill="#B2DB18" />
        <path d="M48.2414 61.8232L48.1426 61.4551L48.7803 61.3069L48.8791 61.6726L48.2414 61.8232Z"
            fill="#64C9A3" />
        <path d="M78.2842 50.8271L76.8711 49.4695L77.357 49.0318L78.7701 50.3882L78.2842 50.8271Z"
            fill="#4C46A4" />
        <path d="M239.035 47.8633L238.454 47.3985L239.229 46.564L239.808 47.03L239.035 47.8633Z"
            fill="#69CDC8" />
        <path d="M227.23 47.4082L225.773 46.4644L226.581 45.3805L228.038 46.3219L227.23 47.4082Z"
            fill="#8FD123" />
        <path d="M253.197 20.1377L249.002 19.6316L249.155 18.5441L253.35 19.0514L253.197 20.1377Z"
            fill="#63CBD6" />
        <path d="M122.604 32.1416L118.474 31.9946L118.504 31.2816L122.634 31.4286L122.604 32.1416Z"
            fill="#67CBB7" />
        <path d="M101.208 81.2383L100.069 81.2169L100.083 80.5897L101.221 80.6099L101.208 81.2383Z"
            fill="#833AA1" />
        <path d="M74.9305 21.6074L72.8206 19.4858L73.1197 19.2282L75.2293 21.3511L74.9305 21.6074Z"
            fill="#F9A72C" />
        <path d="M27.0118 7.74023L23.0874 6.22952L23.2227 5.92465L27.146 7.43539L27.0118 7.74023Z"
            fill="#E61C28" />
        <path d="M207.485 28.1377L207.024 27.9166L207.432 27.1963L207.887 27.4198L207.485 28.1377Z"
            fill="#4E9AD9" />
        <path d="M69.9685 64.1787L69.5989 64.0176L69.6438 63.9305L70.0119 64.0917L69.9685 64.1787Z"
            fill="#E6521D" />
        <path d="M18.138 61.4414L16.9106 58.7477L17.2919 58.5983L18.5181 61.292L18.138 61.4414Z"
            fill="#E51255" />
        <path d="M192.511 63.4414L190.175 61.4565L191.057 60.5585L193.392 62.5449L192.511 63.4414Z"
            fill="#E50D6F" />
        <path d="M160.666 77.4121L156.857 76.8226L156.903 76.559L160.713 77.1497L160.666 77.4121Z"
            fill="#67CCBF" />
        <path d="M59.9788 79.2979L59.5601 79.0261L60.5768 77.6645L60.9955 77.9377L59.9788 79.2979Z"
            fill="#743DA2" />
        <path d="M324.351 55.5L323.273 54.6586L323.951 53.9079L325.029 54.7493L324.351 55.5Z"
            fill="#4051AB" />
        <path d="M42.5103 30.4609L41.5842 29.6961L42.0819 29.1737L43.0091 29.9386L42.5103 30.4609Z"
            fill="#3972C1" />
        <path d="M63.9058 7.49023L60.1848 3.93888L61.6076 2.64687L65.3282 6.1982L63.9058 7.49023Z"
            fill="#60CAD9" />
        <path d="M149.514 29.9746L149.18 28.1894L149.691 28.106L150.025 29.8909L149.514 29.9746Z"
            fill="#56C035" />
        <path d="M292.814 21.9443L291.17 19.2988L291.291 19.2332L292.939 21.8784L292.814 21.9443Z"
            fill="#E5641A" />
        <path d="M187.243 63.0879L186.421 62.6077L186.982 61.7721L187.804 62.2522L187.243 63.0879Z"
            fill="#3972C1" />
        <path d="M39.1848 20.8047L37.1538 19.4952L37.8162 18.6068L39.846 19.9175L39.1848 20.8047Z"
            fill="#4E97D8" />
        <path d="M154.323 68.9346L154.088 68.8767L154.207 68.458L154.443 68.5155L154.323 68.9346Z"
            fill="#57C03C" />
        <path d="M73.463 61.6074L73.1055 61.5933L73.1573 60.5272L73.5161 60.5413L73.463 61.6074Z"
            fill="#55BF35" />
        <path d="M297.812 33.9971L296.159 32.1981L296.832 31.6636L298.483 33.4642L297.812 33.9971Z"
            fill="#54BF36" />
        <path d="M144.583 27.4336L142.58 25.9593L143.167 25.2662L145.172 26.7407L144.583 27.4336Z"
            fill="#54C7E7" />
        <path d="M143.503 30.3037L143.22 28.9068L143.908 28.7866L144.193 30.1811L143.503 30.3037Z"
            fill="#E5661A" />
        <path d="M284.933 68.0273L283.521 67.2694L283.939 66.5952L285.351 67.3544L284.933 68.0273Z"
            fill="#3F4DA9" />
        <path d="M143.875 75.0273L142.963 73.6591L143.844 73.1506L144.756 74.5204L143.875 75.0273Z"
            fill="#DCE60E" />
        <path d="M282.35 61.9609L281.666 61.9528L281.674 61.2844L282.359 61.2928L282.35 61.9609Z"
            fill="#F9A72C" />
        <path d="M342.419 7.26172L341.874 4.48938L342.886 4.31767L343.431 7.09001L342.419 7.26172Z"
            fill="#54BF36" />
        <path d="M188.582 23.4678L187.42 22.8511L187.985 21.9263L189.147 22.543L188.582 23.4678Z"
            fill="#56C035" />
        <path d="M237.964 23.915L235.214 22.5227L235.773 21.565L238.523 22.9559L237.964 23.915Z"
            fill="#62C890" />
        <path d="M316.473 24.3115L315.687 23.1689L315.865 23.0641L316.648 24.2067L316.473 24.3115Z"
            fill="#6740A2" />
        <path d="M317.979 62.1377L317.877 61.6141L318.326 61.5412L318.422 62.0648L317.979 62.1377Z"
            fill="#DDD90F" />
        <path d="M65.833 26.7324L65.5483 26.5146L66.1671 25.8109L66.4533 26.0287L65.833 26.7324Z"
            fill="#6ACDD0" />
        <path d="M200.98 77.7295L198.22 75.8196L199.191 74.6017L201.951 76.514L200.98 77.7295Z"
            fill="#A3D71D" />
        <path d="M115.801 4.93066L114.224 4.28933L114.367 3.98115L115.947 4.6237L115.801 4.93066Z"
            fill="#6840A2" />
        <path d="M246.405 15.7422L245.125 15.3656L245.336 14.7454L246.615 15.1219L246.405 15.7422Z"
            fill="#4876C4" />
        <path d="M151.899 71.5049L150.132 69.3856L150.79 68.9103L152.557 71.0295L151.899 71.5049Z"
            fill="#63CBD6" />
        <path d="M103.751 86.8232L103.003 84.9709L103.974 84.6308L104.723 86.4819L103.751 86.8232Z"
            fill="#A234A0" />
        <path d="M75.5342 48.6328L74.5681 47.6881L75.2293 47.1007L76.1957 48.0457L75.5342 48.6328Z"
            fill="#466BBD" />
        <path d="M269.265 12.4316L268.145 12.1081L268.3 11.6352L269.424 11.9587L269.265 12.4316Z"
            fill="#E63521" />
        <path d="M213.224 55.6309L212.292 54.9871L212.633 54.5587L213.565 55.2025L213.224 55.6309Z"
            fill="#DDDD0F" />
        <path d="M257.469 63.6523L257.237 62.5814L257.786 62.4778L258.019 63.5487L257.469 63.6523Z"
            fill="#57C035" />
        <path d="M133.585 39.4619L132.47 37.3767L133.296 36.9944L134.412 39.0784L133.585 39.4619Z"
            fill="#61C78E" />
        <path d="M100.975 57.3301L99.9363 55.5076L100.844 55.0602L101.881 56.8818L100.975 57.3301Z"
            fill="#F9A72C" />
        <path d="M12.8616 35.3047L11.4248 32.7688L11.5919 32.6866L13.0299 35.2224L12.8616 35.3047Z"
            fill="#F9A72C" />
        <path d="M223.402 44.9482L223.188 44.5033L223.684 44.2951L223.9 44.7389L223.402 44.9482Z"
            fill="#E62A23" />
        <path d="M121.475 27.0928L120.85 25.229L121.257 25.11L121.884 26.9729L121.475 27.0928Z"
            fill="#E52124" />
        <path d="M143.401 44.6973L143.221 42.9955L144.136 42.9109L144.315 44.6138L143.401 44.6973Z"
            fill="#DECE0E" />
        <path d="M264.413 29.7432L263.944 29.5516L264.164 29.0831L264.635 29.2759L264.413 29.7432Z"
            fill="#E51D25" />
        <path d="M56.2605 8.2373L54.8835 8.23006L54.8896 7.35827L56.265 7.3652L56.2605 8.2373Z"
            fill="#E51158" />
        <path d="M210.613 81.8877L209.746 81.0605L210.07 80.7649L210.938 81.5934L210.613 81.8877Z"
            fill="#E50E6E" />
        <path d="M123.217 35.1484L122.685 33.8928L122.986 33.7811L123.52 35.0364L123.217 35.1484Z"
            fill="#F9A72C" />
        <path d="M87.2286 3.21777L85.2317 2.72222L85.6082 1.4091L87.6052 1.90434L87.2286 3.21777Z"
            fill="#4E97D8" />
        <path d="M250.14 48.4893L246.554 44.9897L247.849 43.8423L251.432 47.3406L250.14 48.4893Z"
            fill="#5EC573" />
        <path d="M281.73 52.7354L278.632 51.2153L279.067 50.4456L282.168 51.9672L281.73 52.7354Z"
            fill="#E50C7A" />
        <path d="M320.634 30.2422L319.498 28.9101L319.956 28.5712L321.092 29.9033L320.634 30.2422Z"
            fill="#F9A72C" />
        <path d="M260.671 41.873L260.534 40.9892L261.181 40.9021L261.32 41.7872L260.671 41.873Z"
            fill="#54BF36" />
        <path d="M108.57 65.7061L108.459 64.9177L108.618 64.8975L108.729 65.6874L108.57 65.7061Z"
            fill="#E63122" />
        <path d="M247.369 17.8496L244.327 14.1841L245.642 13.2391L248.684 16.9046L247.369 17.8496Z"
            fill="#4E98D9" />
        <path d="M89.581 55.8379L88.842 54.4034L89.3514 54.1753L90.0916 55.6083L89.581 55.8379Z"
            fill="#F9A72C" />
        <path d="M237.635 30.1406L236.231 29.2348L237.105 28.0614L238.511 28.9676L237.635 30.1406Z"
            fill="#63CBD7" />
        <path d="M163.124 62.5127L162.691 60.798L163.9 60.5356L164.334 62.2479L163.124 62.5127Z"
            fill="#55BF35" />
    </g>
</svg>
