<svg width="56" height="56" viewBox="0 0 56 56" fill="none" xmlns="http://www.w3.org/2000/svg">
    <circle cx="28" cy="28" r="28" fill="#E9E9E9" />
    <mask id="mask0_9178_24894" style="mask-type:alpha" maskUnits="userSpaceOnUse" x="0" y="0"
        width="56" height="56">
        <circle cx="28" cy="28" r="28" fill="#E9E9E9" />
    </mask>
    <g mask="url(#mask0_9178_24894)">
        <path
            d="M27.6922 30.3483C32.8721 30.3483 37.0712 26.172 37.0712 21.0204C37.0712 15.8687 32.8721 11.6924 27.6922 11.6924C22.5124 11.6924 18.3132 15.8687 18.3132 21.0204C18.3132 26.172 22.5124 30.3483 27.6922 30.3483Z"
            fill="#AAAAAA" />
        <path
            d="M27.6922 35.0122C16.225 35.0122 6.78167 43.1766 5.55256 53.6724C5.40276 54.9518 6.4669 56.0001 7.76186 56.0001H47.6226C48.9177 56.0001 49.9818 54.9518 49.8321 53.6724C48.6029 43.1766 39.1594 35.0122 27.6922 35.0122Z"
            fill="#AAAAAA" />
    </g>
    <circle cx="44" cy="44" r="12" fill="#FE4545" />
    <path d="M43 36.9999H45V45.4H43V36.9999ZM43 48.2001H45V51.0001H43V48.2001Z" fill="white" />
</svg>
