<svg width="40" height="40" viewBox="0 0 40 40" fill="none" xmlns="http://www.w3.org/2000/svg">
    <path
        d="M27.4325 19.1963H24.9044V14.848C24.9044 12.1436 22.7043 9.94354 20 9.94354C17.2956 9.94354 15.0955 12.1436 15.0955 14.848V19.1963H12.5674V14.848C12.5674 10.7496 15.9017 7.41543 20 7.41543C24.0983 7.41543 27.4325 10.7496 27.4325 14.848V19.1963Z"
        fill="#F5F6FB" />
    <path
        d="M27.4325 14.848V19.1963H24.9044V18.0334C25.9157 17.6289 26.3201 16.8199 26.3201 15.7076V14.848C26.3201 10.9366 23.2834 7.72136 19.4437 7.43615C19.4847 7.43316 19.5256 7.4306 19.5671 7.42804C19.5752 7.42755 19.5833 7.42706 19.5913 7.42658C19.6202 7.42505 19.6495 7.42353 19.6783 7.4225C19.69 7.42201 19.7016 7.42152 19.7132 7.42098C19.7294 7.42049 19.7461 7.41946 19.7628 7.41946C19.7951 7.41793 19.8275 7.41744 19.8599 7.41695C19.9063 7.41592 19.9534 7.41543 19.9999 7.41543C24.0984 7.41543 27.4325 10.7495 27.4325 14.848Z"
        fill="#F5F6FB" />
    <path fill-rule="evenodd" clip-rule="evenodd"
        d="M12.0874 33H27.9126C28.5131 33 29 32.5132 29 31.9127V19.3739C29 18.7734 28.5131 18.2866 27.9126 18.2866H12.0874C11.4869 18.2866 11 18.7734 11 19.3739V31.9127C11 32.5132 11.4869 33 12.0874 33ZM20.992 28.9297C21.5062 28.9297 21.8986 28.4701 21.8177 27.9619L21.5356 26.1913C21.9603 25.7858 22.2247 25.2144 22.2247 24.5813C22.2247 23.3527 21.2287 22.3567 20 22.3567C18.7713 22.3567 17.7753 23.3527 17.7753 24.5813C17.7753 25.2144 18.0397 25.7858 18.4644 26.1913L18.1823 27.9619C18.1014 28.4701 18.4938 28.9297 19.008 28.9297H20.992Z"
        fill="#F5F6FB" />
    <path
        d="M11.8595 19.5295V26.2754C11.8595 26.2754 14.0848 20.7946 18.7003 19.1462H12.2427C12.0311 19.1462 11.8595 19.3178 11.8595 19.5295Z"
        fill="#F5F6FB" />
    <path
        d="M18.4832 7.97168C18.4832 7.97168 13.3764 8.9552 12.9719 14.4941H13.9326C13.9326 14.4941 14.1349 10.0941 18.4832 7.97168Z"
        fill="#F5F6FB" />
</svg>
