<svg width="40" height="40" viewBox="0 0 40 40" fill="none" xmlns="http://www.w3.org/2000/svg">
    <path
        d="M13.6758 11.0929C14.4764 11.665 16.4044 13.8246 17.0893 14.9091C17.5772 15.6804 17.7288 16.2151 16.7027 16.9111C16.6436 16.9517 16.5802 16.9922 16.5124 17.0335C16.1034 17.2852 15.7597 17.6019 15.5348 17.9828C15.0784 18.7492 15.0992 19.7749 16.0134 21.0544C17.3816 22.9694 19.1538 24.6017 20.7229 25.547C22.1941 26.433 23.134 25.7795 23.6667 24.9382C23.7018 24.8812 23.7357 24.825 23.7678 24.7673C24.2787 23.8488 24.9513 23.6968 26.0756 24.625C27.2 25.5533 28.5265 27.1683 29.144 28.044C29.6348 28.7409 29.6963 29.547 29.2946 30.2619C29.1909 30.4458 29.0569 30.6244 28.892 30.7921C28.8279 30.8578 28.7611 30.9217 28.693 30.9831C28.3273 31.318 27.9137 31.597 27.4667 31.8179C27.3272 31.8878 27.1851 31.9517 27.0393 32.0103C26.908 32.0624 26.7736 32.1104 26.6374 32.1537C24.3879 32.8722 21.5272 32.3531 19.1859 30.4567C15.9467 27.8326 11.3191 22.1829 10.1893 20.0201C9.05918 17.8582 8.59379 15.2559 11.3691 11.2387L11.3706 11.237C12.2115 10.0202 12.989 10.6027 13.6758 11.0929Z"
        fill="white" />
    <path
        d="M26.0757 24.6252C27.2001 25.5535 28.5266 27.1684 29.1441 28.0441C29.6349 28.741 29.6964 29.5471 29.2947 30.2621C29.191 30.446 29.057 30.6245 28.8921 30.7923C28.828 30.858 28.7612 30.9219 28.693 30.9832C28.6325 30.1287 27.6192 28.6103 26.403 27.2247C26.3156 27.1248 26.2273 27.0279 26.1407 26.9325L26.1398 26.9322C25.0469 25.7488 24.0302 25.0183 23.6668 24.9383C23.7019 24.8814 23.7357 24.8252 23.7679 24.7675C24.2788 23.849 24.9514 23.6969 26.0757 24.6252Z"
        fill="white" />
    <path
        d="M13.676 11.0932C14.4765 11.6652 16.4046 13.8248 17.0895 14.9093C17.5774 15.6806 17.729 16.2153 16.7029 16.9113C16.4379 15.9736 14.5046 13.6706 14.053 13.2487C13.6258 12.8495 12.2061 11.3547 11.3693 11.2389L11.3708 11.2372C12.2117 10.0204 12.9892 10.6029 13.676 11.0932Z"
        fill="white" />
    <path
        d="M30.3042 16.5607C29.7158 18.6351 27.8466 20.2018 25.6121 20.3181C24.0974 20.3961 22.7153 19.8214 21.7247 18.8485C21.0008 18.1397 20.0416 17.7279 19.0331 17.7279C18.9866 17.7279 18.9401 17.7292 18.8936 17.7306C19.7515 17.3653 20.2619 16.4895 20.1907 15.5604C20.1647 15.2238 20.1702 14.8776 20.214 14.5246C20.3495 13.4108 20.8448 12.4037 21.5796 11.6251C21.2745 12.5268 21.1664 13.512 21.3183 14.4247C21.4524 15.2252 21.7725 15.9969 22.2665 16.6428C23.3831 18.1001 25.3426 18.8609 27.1501 18.5379C28.4022 18.3135 29.542 17.576 30.3042 16.5607Z"
        fill="white" />
    <path fill-rule="evenodd" clip-rule="evenodd"
        d="M30.3042 16.5602C30.4191 16.1579 30.4862 15.7351 30.4971 15.3013C30.5778 12.2116 27.9424 9.7144 24.8075 10.0264C23.5446 10.1523 22.4088 10.7434 21.5796 11.6246C20.8448 12.4032 20.3495 13.4103 20.214 14.5241C20.1702 14.8772 20.1647 15.2233 20.1907 15.56C20.2619 16.4891 19.7515 17.3648 18.8936 17.7302C18.9401 17.7288 18.9866 17.7274 19.0331 17.7274C20.0416 17.7274 21.0008 18.1393 21.7247 18.8481C22.7153 19.821 24.0974 20.3957 25.6121 20.3177C27.8466 20.2014 29.7158 18.6346 30.3042 16.5602ZM23.2625 15.98C23.6717 15.98 24.0035 15.6483 24.0035 15.2391C24.0035 14.8298 23.6717 14.4981 23.2625 14.4981C22.8533 14.4981 22.5215 14.8298 22.5215 15.2391C22.5215 15.6483 22.8533 15.98 23.2625 15.98ZM26.0412 15.2391C26.0412 15.6483 25.7094 15.98 25.3002 15.98C24.8909 15.98 24.5592 15.6483 24.5592 15.2391C24.5592 14.8298 24.8909 14.4981 25.3002 14.4981C25.7094 14.4981 26.0412 14.8298 26.0412 15.2391ZM27.3379 15.98C27.7471 15.98 28.0789 15.6483 28.0789 15.2391C28.0789 14.8298 27.7471 14.4981 27.3379 14.4981C26.9287 14.4981 26.5969 14.8298 26.5969 15.2391C26.5969 15.6483 26.9287 15.98 27.3379 15.98Z"
        fill="white" />
</svg>
