<svg width="96" height="136" viewBox="0 0 96 136" fill="none" xmlns="http://www.w3.org/2000/svg">
    <rect x="0.5" y="0.5" width="95" height="95" rx="11.5" fill="#F5F6FB" />
    <rect x="0.5" y="0.5" width="95" height="95" rx="11.5" stroke="#E9E9E9" />
    <path
        d="M39.0904 51.8191L33.2019 54.9964C33.1409 55.0295 33.1065 55.0968 33.1157 55.1655L34.1419 62.8072C34.153 62.8899 34.2237 62.9518 34.3073 62.9518H35.0771L49.0988 64.7516C49.9147 64.8564 50.7405 64.6561 51.4177 64.1891L65.2365 54.6614C65.9275 54.1849 66.2007 53.2959 65.8965 52.5135C65.5186 51.5415 64.3998 51.0884 63.452 51.5238L51.7634 56.8924C51.7223 56.9112 51.6847 56.8604 51.7148 56.8266L54.7234 53.4558C55.5854 52.4899 54.5928 51.0111 53.3723 51.443L49.1016 52.9541C48.3485 53.2207 47.5246 53.2081 46.7798 52.9187L43.2803 51.5587C41.9131 51.0273 40.3814 51.1224 39.0904 51.8191Z"
        fill="white" stroke="#1F1F1F" stroke-width="1.73333" />
    <path
        d="M44.7715 56.2832C44.7715 56.2832 46.2385 56.7495 47.2032 56.9464C47.769 57.0619 48.0866 57.1401 48.6623 57.1869C49.2302 57.2332 49.5548 57.247 50.1214 57.1869C50.6029 57.1359 51.0523 57.0403 51.3372 56.9464C51.6222 56.8525 51.7818 56.7997 52.0668 56.7058"
        stroke="#1F1F1F" stroke-width="1.73333" stroke-linecap="round" />
    <path
        d="M34.2427 50.8149L30.4162 50.8354C29.9555 50.8378 29.5842 51.2133 29.5869 51.674L29.6616 64.5011C29.6643 64.9618 30.0399 65.3332 30.5007 65.3308L34.3271 65.3103C34.7878 65.3079 35.1591 64.9324 35.1564 64.4717L35.0817 51.6446C35.079 51.1839 34.7034 50.8125 34.2427 50.8149Z"
        fill="white" stroke="#1F1F1F" stroke-width="1.73333" />
    <path
        d="M32.3289 54.6811C32.8347 54.6811 33.2447 54.2755 33.2447 53.7751C33.2447 53.2748 32.8347 52.8691 32.3289 52.8691C31.8231 52.8691 31.4131 53.2748 31.4131 53.7751C31.4131 54.2755 31.8231 54.6811 32.3289 54.6811Z"
        fill="#1F1F1F" />
    <path
        d="M47.9973 46.4255C43.7593 46.4255 40.3237 42.8981 40.3237 38.5468C40.3237 34.1954 43.7593 30.668 47.9973 30.668C52.2353 30.668 55.6709 34.1954 55.6709 38.5468C55.6709 42.8981 52.2353 46.4255 47.9973 46.4255Z"
        fill="url(#paint0_linear_77_42438)" stroke="#1F1F1F" stroke-width="1.73333" />
    <path
        d="M51.1312 36.1479H49.0371C49.5423 36.3613 49.8821 36.7285 50.0566 37.2493H51.1312V38.1843H50.1668C50.1301 38.7222 49.951 39.1704 49.6295 39.5291C49.3173 39.8877 48.8534 40.1695 48.2379 40.3744L50.3441 43.2937H48.2913L46.5571 40.6433H44.835V39.5804H46.502C47.0715 39.5804 47.5032 39.4735 47.7971 39.2601C48.091 39.0467 48.2609 38.688 48.3068 38.1843H44.835V37.2493H48.2379C48.1462 36.8992 47.9487 36.6473 47.6456 36.4937C47.3424 36.3314 46.9292 36.2503 46.4056 36.2503H44.835V35.2129H51.1312V36.1479Z"
        fill="#1F1F1F" />
    <path
        d="M27.2179 116H25.5304L28.6028 107.273H30.5545L33.6312 116H31.9437L29.6127 109.062H29.5446L27.2179 116ZM27.2733 112.578H31.8755V113.848H27.2733V112.578ZM37.9458 109.455V110.648H34.0765V109.455H37.9458ZM35.0439 116V108.837C35.0439 108.396 35.1348 108.03 35.3166 107.737C35.5012 107.445 35.7484 107.226 36.0581 107.081C36.3677 106.936 36.7115 106.864 37.0893 106.864C37.3564 106.864 37.5936 106.885 37.801 106.928C38.0083 106.97 38.1618 107.009 38.2612 107.043L37.9544 108.236C37.889 108.216 37.8066 108.196 37.7072 108.176C37.6078 108.153 37.497 108.142 37.3748 108.142C37.0879 108.142 36.8848 108.212 36.7654 108.351C36.649 108.487 36.5907 108.683 36.5907 108.939V116H35.0439ZM42.4693 109.455V110.648H38.6V109.455H42.4693ZM39.5673 116V108.837C39.5673 108.396 39.6582 108.03 39.84 107.737C40.0247 107.445 40.2718 107.226 40.5815 107.081C40.8912 106.936 41.2349 106.864 41.6127 106.864C41.8798 106.864 42.117 106.885 42.3244 106.928C42.5318 106.97 42.6852 107.009 42.7846 107.043L42.4778 108.236C42.4125 108.216 42.3301 108.196 42.2306 108.176C42.1312 108.153 42.0204 108.142 41.8983 108.142C41.6113 108.142 41.4082 108.212 41.2889 108.351C41.1724 108.487 41.1142 108.683 41.1142 108.939V116H39.5673ZM43.6774 116V109.455H45.22V116H43.6774ZM44.4529 108.526C44.2086 108.526 43.9984 108.445 43.8223 108.283C43.6461 108.118 43.5581 107.92 43.5581 107.69C43.5581 107.457 43.6461 107.26 43.8223 107.098C43.9984 106.933 44.2086 106.851 44.4529 106.851C44.7001 106.851 44.9103 106.933 45.0836 107.098C45.2598 107.26 45.3478 107.457 45.3478 107.69C45.3478 107.92 45.2598 108.118 45.0836 108.283C44.9103 108.445 44.7001 108.526 44.4529 108.526ZM48.3489 107.273V116H46.8063V107.273H48.3489ZM49.9352 116V109.455H51.4778V116H49.9352ZM50.7108 108.526C50.4664 108.526 50.2562 108.445 50.0801 108.283C49.9039 108.118 49.8159 107.92 49.8159 107.69C49.8159 107.457 49.9039 107.26 50.0801 107.098C50.2562 106.933 50.4664 106.851 50.7108 106.851C50.9579 106.851 51.1681 106.933 51.3414 107.098C51.5176 107.26 51.6056 107.457 51.6056 107.69C51.6056 107.92 51.5176 108.118 51.3414 108.283C51.1681 108.445 50.9579 108.526 50.7108 108.526ZM54.9476 116.132C54.5328 116.132 54.1593 116.058 53.8269 115.911C53.4973 115.76 53.236 115.538 53.0428 115.246C52.8525 114.953 52.7573 114.592 52.7573 114.163C52.7573 113.794 52.8255 113.489 52.9618 113.247C53.0982 113.006 53.2843 112.812 53.5201 112.668C53.7559 112.523 54.0215 112.413 54.3169 112.339C54.6152 112.263 54.9235 112.207 55.2417 112.173C55.6252 112.134 55.9363 112.098 56.1749 112.067C56.4135 112.033 56.5868 111.982 56.6948 111.913C56.8056 111.842 56.861 111.733 56.861 111.585V111.56C56.861 111.239 56.7658 110.99 56.5755 110.814C56.3851 110.638 56.111 110.55 55.753 110.55C55.3752 110.55 55.0755 110.632 54.8539 110.797C54.6351 110.962 54.4874 111.156 54.4107 111.381L52.9703 111.176C53.084 110.778 53.2715 110.446 53.5328 110.179C53.7942 109.909 54.1138 109.707 54.4917 109.574C54.8695 109.438 55.2871 109.369 55.7445 109.369C56.0598 109.369 56.3738 109.406 56.6863 109.48C56.9988 109.554 57.2843 109.676 57.5428 109.847C57.8013 110.014 58.0087 110.243 58.165 110.533C58.324 110.822 58.4036 111.185 58.4036 111.619V116H56.9206V115.101H56.8695C56.7757 115.283 56.6436 115.453 56.4732 115.612C56.3056 115.768 56.0939 115.895 55.8382 115.991C55.5854 116.085 55.2885 116.132 54.9476 116.132ZM55.3482 114.999C55.6578 114.999 55.9263 114.937 56.1536 114.815C56.3809 114.69 56.5556 114.526 56.6777 114.321C56.8027 114.116 56.8652 113.893 56.8652 113.652V112.881C56.8169 112.92 56.7346 112.957 56.6181 112.991C56.5044 113.026 56.3766 113.055 56.2346 113.081C56.0925 113.107 55.9519 113.129 55.8127 113.149C55.6735 113.169 55.5527 113.186 55.4505 113.2C55.2203 113.232 55.0144 113.283 54.8326 113.354C54.6507 113.425 54.5073 113.524 54.4022 113.652C54.2971 113.777 54.2445 113.939 54.2445 114.138C54.2445 114.422 54.3482 114.636 54.5556 114.781C54.763 114.926 55.0272 114.999 55.3482 114.999ZM63.2232 109.455V110.648H59.4604V109.455H63.2232ZM60.3894 107.886H61.932V114.031C61.932 114.239 61.9632 114.398 62.0257 114.509C62.0911 114.616 62.1763 114.69 62.2814 114.73C62.3865 114.77 62.503 114.79 62.6309 114.79C62.7275 114.79 62.8155 114.783 62.8951 114.768C62.9775 114.754 63.04 114.741 63.0826 114.73L63.3425 115.936C63.2601 115.964 63.1422 115.996 62.9888 116.03C62.8382 116.064 62.6536 116.084 62.4348 116.089C62.0485 116.101 61.7005 116.043 61.3908 115.915C61.0811 115.784 60.8354 115.582 60.6536 115.31C60.4746 115.037 60.3865 114.696 60.3894 114.287V107.886ZM67.3407 116.128C66.6845 116.128 66.1177 115.991 65.6404 115.719C65.166 115.443 64.801 115.054 64.5453 114.551C64.2896 114.045 64.1618 113.45 64.1618 112.766C64.1618 112.092 64.2896 111.501 64.5453 110.993C64.8038 110.482 65.1646 110.084 65.6277 109.8C66.0907 109.513 66.6348 109.369 67.2598 109.369C67.6632 109.369 68.0439 109.435 68.4018 109.565C68.7626 109.693 69.0808 109.892 69.3564 110.162C69.6348 110.432 69.8535 110.776 70.0126 111.193C70.1717 111.608 70.2512 112.102 70.2512 112.676V113.149H64.8862V112.109H68.7725C68.7697 111.814 68.7058 111.551 68.5808 111.321C68.4558 111.088 68.2811 110.905 68.0566 110.771C67.835 110.638 67.5765 110.571 67.2811 110.571C66.9657 110.571 66.6887 110.648 66.4501 110.801C66.2115 110.952 66.0254 111.151 65.8919 111.398C65.7612 111.642 65.6944 111.911 65.6916 112.203V113.111C65.6916 113.491 65.7612 113.818 65.9004 114.091C66.0396 114.361 66.2342 114.568 66.4842 114.713C66.7342 114.855 67.0268 114.926 67.362 114.926C67.5865 114.926 67.7896 114.895 67.9714 114.832C68.1532 114.767 68.3109 114.672 68.4444 114.547C68.5779 114.422 68.6788 114.267 68.747 114.082L70.1873 114.244C70.0964 114.625 69.9231 114.957 69.6674 115.241C69.4146 115.523 69.0907 115.741 68.6958 115.898C68.301 116.051 67.8493 116.128 67.3407 116.128ZM19.5112 123.273H21.4458L24.0368 129.597H24.139L26.7299 123.273H28.6646V132H27.1476V126.004H27.0666L24.6547 131.974H23.5211L21.1092 125.991H21.0282V132H19.5112V123.273ZM32.2015 132.132C31.7868 132.132 31.4132 132.058 31.0808 131.911C30.7512 131.76 30.4899 131.538 30.2967 131.246C30.1064 130.953 30.0112 130.592 30.0112 130.163C30.0112 129.794 30.0794 129.489 30.2157 129.247C30.3521 129.006 30.5382 128.812 30.774 128.668C31.0098 128.523 31.2754 128.413 31.5708 128.339C31.8691 128.263 32.1774 128.207 32.4956 128.173C32.8791 128.134 33.1902 128.098 33.4288 128.067C33.6674 128.033 33.8407 127.982 33.9487 127.913C34.0595 127.842 34.1149 127.733 34.1149 127.585V127.56C34.1149 127.239 34.0197 126.99 33.8294 126.814C33.639 126.638 33.3649 126.55 33.0069 126.55C32.6291 126.55 32.3294 126.632 32.1078 126.797C31.889 126.962 31.7413 127.156 31.6646 127.381L30.2243 127.176C30.3379 126.778 30.5254 126.446 30.7868 126.179C31.0481 125.909 31.3677 125.707 31.7456 125.574C32.1234 125.438 32.541 125.369 32.9984 125.369C33.3137 125.369 33.6277 125.406 33.9402 125.48C34.2527 125.554 34.5382 125.676 34.7967 125.847C35.0552 126.014 35.2626 126.243 35.4189 126.533C35.5779 126.822 35.6575 127.185 35.6575 127.619V132H34.1745V131.101H34.1234C34.0297 131.283 33.8975 131.453 33.7271 131.612C33.5595 131.768 33.3478 131.895 33.0922 131.991C32.8393 132.085 32.5424 132.132 32.2015 132.132ZM32.6021 130.999C32.9118 130.999 33.1802 130.937 33.4075 130.815C33.6348 130.69 33.8095 130.526 33.9316 130.321C34.0566 130.116 34.1191 129.893 34.1191 129.652V128.881C34.0708 128.92 33.9885 128.957 33.872 128.991C33.7583 129.026 33.6305 129.055 33.4885 129.081C33.3464 129.107 33.2058 129.129 33.0666 129.149C32.9274 129.169 32.8066 129.186 32.7044 129.2C32.4743 129.232 32.2683 129.283 32.0865 129.354C31.9047 129.425 31.7612 129.524 31.6561 129.652C31.551 129.777 31.4984 129.939 31.4984 130.138C31.4984 130.422 31.6021 130.636 31.8095 130.781C32.0169 130.926 32.2811 130.999 32.6021 130.999ZM37.2086 132V125.455H38.7044V126.545H38.7725C38.8919 126.168 39.0964 125.876 39.3862 125.672C39.6788 125.464 40.0126 125.361 40.3876 125.361C40.4728 125.361 40.568 125.365 40.6731 125.374C40.7811 125.379 40.8706 125.389 40.9416 125.403V126.822C40.8762 126.8 40.7725 126.78 40.6305 126.763C40.4913 126.743 40.3564 126.733 40.2257 126.733C39.9444 126.733 39.6916 126.794 39.4672 126.916C39.2456 127.036 39.0708 127.202 38.943 127.415C38.8152 127.628 38.7512 127.874 38.7512 128.152V132H37.2086ZM43.3727 129.946L43.3684 128.084H43.6156L45.9679 125.455H47.7704L44.877 128.676H44.5574L43.3727 129.946ZM41.9664 132V123.273H43.5091V132H41.9664ZM46.0744 132L43.9437 129.021L44.9835 127.935L47.9196 132H46.0744ZM51.4267 132.128C50.7704 132.128 50.2037 131.991 49.7264 131.719C49.252 131.443 48.8869 131.054 48.6312 130.551C48.3755 130.045 48.2477 129.45 48.2477 128.766C48.2477 128.092 48.3755 127.501 48.6312 126.993C48.8897 126.482 49.2505 126.084 49.7136 125.8C50.1767 125.513 50.7207 125.369 51.3457 125.369C51.7491 125.369 52.1298 125.435 52.4877 125.565C52.8485 125.693 53.1667 125.892 53.4423 126.162C53.7207 126.432 53.9395 126.776 54.0985 127.193C54.2576 127.608 54.3372 128.102 54.3372 128.676V129.149H48.9721V128.109H52.8585C52.8556 127.814 52.7917 127.551 52.6667 127.321C52.5417 127.088 52.367 126.905 52.1426 126.771C51.921 126.638 51.6625 126.571 51.367 126.571C51.0517 126.571 50.7747 126.648 50.536 126.801C50.2974 126.952 50.1113 127.151 49.9778 127.398C49.8471 127.642 49.7804 127.911 49.7775 128.203V129.111C49.7775 129.491 49.8471 129.818 49.9863 130.091C50.1255 130.361 50.3201 130.568 50.5701 130.713C50.8201 130.855 51.1127 130.926 51.448 130.926C51.6724 130.926 51.8755 130.895 52.0574 130.832C52.2392 130.767 52.3968 130.672 52.5304 130.547C52.6639 130.422 52.7647 130.267 52.8329 130.082L54.2733 130.244C54.1824 130.625 54.0091 130.957 53.7534 131.241C53.5005 131.523 53.1767 131.741 52.7818 131.898C52.3869 132.051 51.9352 132.128 51.4267 132.128ZM58.9107 125.455V126.648H55.1479V125.455H58.9107ZM56.0769 123.886H57.6195V130.031C57.6195 130.239 57.6507 130.398 57.7132 130.509C57.7786 130.616 57.8638 130.69 57.9689 130.73C58.074 130.77 58.1905 130.79 58.3184 130.79C58.415 130.79 58.503 130.783 58.5826 130.768C58.665 130.754 58.7275 130.741 58.7701 130.73L59.03 131.936C58.9476 131.964 58.8297 131.996 58.6763 132.03C58.5257 132.064 58.3411 132.084 58.1223 132.089C57.736 132.101 57.388 132.043 57.0783 131.915C56.7686 131.784 56.5229 131.582 56.3411 131.31C56.1621 131.037 56.074 130.696 56.0769 130.287V123.886ZM60.2008 132V125.455H61.7434V132H60.2008ZM60.9764 124.526C60.7321 124.526 60.5218 124.445 60.3457 124.283C60.1696 124.118 60.0815 123.92 60.0815 123.69C60.0815 123.457 60.1696 123.26 60.3457 123.098C60.5218 122.933 60.7321 122.851 60.9764 122.851C61.2235 122.851 61.4338 122.933 61.6071 123.098C61.7832 123.26 61.8713 123.457 61.8713 123.69C61.8713 123.92 61.7832 124.118 61.6071 124.283C61.4338 124.445 61.2235 124.526 60.9764 124.526ZM64.8723 128.165V132H63.3297V125.455H64.8042V126.567H64.8809C65.0314 126.2 65.2715 125.909 65.601 125.693C65.9334 125.477 66.3439 125.369 66.8326 125.369C67.2843 125.369 67.6777 125.466 68.013 125.659C68.351 125.852 68.6124 126.132 68.7971 126.499C68.9846 126.865 69.0769 127.31 69.074 127.832V132H67.5314V128.071C67.5314 127.634 67.4178 127.291 67.1905 127.044C66.9661 126.797 66.655 126.673 66.2573 126.673C65.9874 126.673 65.7473 126.733 65.5371 126.852C65.3297 126.969 65.1664 127.138 65.0471 127.359C64.9306 127.581 64.8723 127.849 64.8723 128.165ZM73.4888 134.591C72.9348 134.591 72.459 134.516 72.0613 134.365C71.6635 134.217 71.3439 134.018 71.1025 133.768C70.861 133.518 70.6934 133.241 70.5996 132.938L71.9888 132.601C72.0513 132.729 72.1422 132.855 72.2615 132.98C72.3809 133.108 72.5414 133.213 72.7431 133.295C72.9476 133.381 73.2047 133.423 73.5144 133.423C73.9519 133.423 74.3141 133.317 74.601 133.104C74.888 132.893 75.0314 132.547 75.0314 132.064V130.824H74.9547C74.8752 130.983 74.7587 131.146 74.6053 131.314C74.4547 131.482 74.2544 131.622 74.0044 131.736C73.7573 131.849 73.4462 131.906 73.0712 131.906C72.5684 131.906 72.1124 131.788 71.7033 131.553C71.2971 131.314 70.9732 130.959 70.7317 130.487C70.4931 130.013 70.3738 129.419 70.3738 128.706C70.3738 127.987 70.4931 127.381 70.7317 126.886C70.9732 126.389 71.2985 126.013 71.7076 125.757C72.1167 125.499 72.5726 125.369 73.0755 125.369C73.459 125.369 73.7743 125.435 74.0215 125.565C74.2715 125.693 74.4703 125.848 74.6181 126.03C74.7658 126.209 74.878 126.378 74.9547 126.537H75.04V125.455H76.5613V132.107C76.5613 132.666 76.4277 133.129 76.1607 133.496C75.8936 133.862 75.5286 134.136 75.0655 134.318C74.6025 134.5 74.0769 134.591 73.4888 134.591ZM73.5016 130.696C73.8283 130.696 74.1067 130.616 74.3368 130.457C74.5669 130.298 74.7417 130.07 74.861 129.771C74.9803 129.473 75.04 129.115 75.04 128.697C75.04 128.286 74.9803 127.925 74.861 127.615C74.7445 127.305 74.5712 127.065 74.3411 126.895C74.1138 126.722 73.834 126.635 73.5016 126.635C73.1578 126.635 72.8709 126.724 72.6408 126.903C72.4107 127.082 72.2374 127.328 72.1209 127.641C72.0044 127.95 71.9462 128.303 71.9462 128.697C71.9462 129.098 72.0044 129.449 72.1209 129.75C72.2402 130.048 72.415 130.281 72.6451 130.449C72.878 130.614 73.1635 130.696 73.5016 130.696Z"
        fill="#1F1F1F" />
    <defs>
        <linearGradient id="paint0_linear_77_42438" x1="55.6557" y1="38.5506" x2="40.3159"
            y2="38.5506" gradientUnits="userSpaceOnUse">
            <stop stop-color="#FF7304" />
            <stop offset="1" stop-color="#FB2A77" />
        </linearGradient>
    </defs>
</svg>
