<svg width="200" height="200" viewBox="0 0 200 200" fill="none" xmlns="http://www.w3.org/2000/svg">
    <path
        d="M160.165 154.955C160.165 154.955 185.007 143.767 184.431 121.198C183.855 98.6284 157.644 82.9556 141.66 96.8885C125.676 110.821 115.332 99.1378 107.05 87.364C98.7676 75.5902 82.9591 65.9034 58.7198 72.7729C33.3281 79.967 25.5184 106.003 28.0301 123.375C29.8351 135.857 36.443 146.436 45.4455 154.563C45.7381 154.829 46.0397 155.09 46.3458 155.347C46.3458 155.347 155.631 157.79 160.16 154.955C164.689 152.121 160.165 154.955 160.165 154.955Z"
        fill="#FFF3F3" />
    <path
        d="M18.556 118.559C18.556 119.556 17.7593 120.367 16.778 120.367C15.7967 120.367 15 119.56 15 118.559C15 117.559 15.7967 116.752 16.778 116.752C17.7593 116.752 18.556 117.559 18.556 118.559Z"
        stroke="#EEEEFF" stroke-width="0.6" stroke-miterlimit="10" />
    <path d="M132.308 149.359L130.395 141.602L125.615 143.224L128.122 150.5L132.308 149.359Z"
        fill="#F1ABA3" />
    <path
        d="M128.123 150.499L126.336 153.109L122.464 155.588H127.952L134.888 152.149L132.264 149.115L128.123 150.499Z"
        fill="#1E0D1D" />
    <path d="M118.373 89.9531L136.544 145.266L120.236 150.616L103.613 101.407L118.373 89.9531Z"
        fill="#FF7723" />
    <path d="M118.395 92.1973L110.5 121.884L105.931 108.731L118.395 92.1973Z" fill="#EF671B" />
    <path d="M85.3635 149.832L76.2574 152.419L89.0276 155.845L89.5272 151.283L85.3635 149.832Z"
        fill="#1E0D1D" />
    <path d="M89.5266 151.283L91.3361 143.502L86.3442 142.781L85.3629 149.831L89.5266 151.283Z"
        fill="#F1ABA3" />
    <path
        d="M102.631 82.0506L102.158 83.9032C96.8286 93.5179 88.5193 109.367 86.5927 113.504C86.2056 114.334 85.9085 115.204 85.7015 116.096L78.693 146.45L96.5315 150.818L104.031 118.566C109.842 106.04 126.542 92.5397 113.587 81.0859L102.626 82.0506H102.631Z"
        fill="#FF964A" />
    <path
        d="M71.4682 71.5098L88.6361 77.6401C90.5086 78.163 91.5619 80.1463 90.9542 81.9944C90.3375 83.8651 87.8078 84.7981 85.9848 84.0634L70.1989 76.2968L71.4682 71.5143V71.5098Z"
        fill="#FFC3BD" />
    <rect x="41.1688" y="68.1836" width="26" height="20" rx="2"
        transform="rotate(-5.56 41.1688 68.1836)" fill="#628CA1" />
    <path
        d="M45.8937 73.2984L62.9083 71.5656M46.2241 77.4083L54.873 76.5M46.4725 82.0114L61.873 80.5"
        stroke="white" stroke-linecap="round" />
    <rect x="98.5434" y="89.7578" width="26" height="20" rx="2"
        transform="rotate(15.2777 98.5434 89.7578)" fill="url(#paint0_linear_1293_5822)" />
    <path
        d="M101.14 96.2201L117.658 100.653M99.9863 100.179L108.393 102.406M98.5811 104.569L113.512 108.635"
        stroke="white" stroke-linecap="round" />
    <path
        d="M67.957 75.3587C68.6907 75.6381 70.5858 76.445 70.5858 76.445L74.1238 72.4603L71.1484 71.1621L67.777 72.9201L67.957 75.3587Z"
        fill="#FFC3BD" />
    <path
        d="M71.7982 71.5412C71.7982 71.5412 68.7148 69.2514 66.5227 69.9816C64.9832 70.4955 64.137 71.1311 62.8046 72.1543C62.305 72.5374 62.2465 73.2767 62.6876 73.7319C63.0207 74.0745 63.5428 74.1556 63.9615 73.9258L65.5504 73.3127C65.5504 73.3127 70.7224 75.3096 71.8027 71.5412H71.7982Z"
        fill="#FFC3BD" />
    <path
        d="M97.6031 76.6845L92.1251 71.0996C89.3478 73.5562 86.6966 76.7161 84.9231 77.8655C82.92 79.1637 82.7535 80.818 84.2074 82.7157C85.5487 84.4646 88.0334 84.8342 89.8249 83.5541L97.6031 76.689V76.6845Z"
        fill="#FFC3BD" />
    <path
        d="M101.766 72.9796C103.378 71.8256 103.832 69.6214 102.811 67.9221C101.703 66.0875 99.3042 65.5285 97.5037 66.6915C96.2163 67.5209 94.2222 69.2473 92.1246 71.0999L97.6027 76.6848L101.766 72.9796Z"
        fill="#FFC3BD" />
    <path d="M97.8822 71.0996L97.6031 76.6845L99.4667 75.0077L97.8822 71.0996Z" fill="#FFC3BD" />
    <path
        d="M105.068 64.1528L112.45 63.7967C113.305 63.7561 114.021 64.4322 114.034 65.2887L113.593 81.0832L102.633 82.0479L97.0601 69.1021C96.5965 67.885 97.2582 66.5283 98.505 66.1496L105.068 64.1482V64.1528Z"
        fill="#FD4545" />
    <path d="M113.787 74.4976L111.064 71.3828L113.643 79.1584L113.787 74.4976Z" fill="#E02323" />
    <path
        d="M115.991 65.3257C114.816 63.7255 112.61 63.3018 110.927 64.3475C109.108 65.4789 108.582 67.8905 109.766 69.6755C110.612 70.9556 112.363 72.9254 114.24 75.0034L119.745 69.4411L115.991 65.3212V65.3257Z"
        fill="#FD4545" />
    <path
        d="M119.745 69.4459L114.24 75.0083C116.729 77.7579 119.921 80.3678 121.095 82.1303C122.419 84.1181 124.071 84.2623 125.948 82.7793C127.676 81.4135 128.014 78.9209 126.708 77.1404L119.749 69.4414L119.745 69.4459Z"
        fill="#FFC3BD" />
    <path
        d="M109.795 91.5048L121.43 77.4592C122.565 75.877 124.784 75.566 126.31 76.774C127.849 77.9956 127.863 80.6956 126.548 82.1606L113.85 94.3446L109.799 91.5093L109.795 91.5048Z"
        fill="#FFC3BD" />
    <path
        d="M111.135 90.256L105.752 89.945C105.437 89.8999 105.153 90.1343 105.135 90.4544L105.117 90.7834C105.108 90.9412 105.171 91.099 105.288 91.2071L106.103 91.9644L104.775 93.781C104.604 94.0154 104.536 94.3038 104.586 94.5923C104.68 95.1513 104.946 96.0888 105.675 96.7515C105.981 97.0309 106.404 97.1526 106.814 97.085L107.413 96.9813C107.413 96.9813 109.47 98.568 110.69 97.7116C111.914 96.8551 111.896 95.6246 112.774 95.0882C113.651 94.5473 114.232 93.9568 114.232 93.9568L111.122 90.2605L111.135 90.256Z"
        fill="#FFC3BD" />
    <path
        d="M115.211 48.1938C115.58 50.8533 113.725 53.3099 111.069 53.6796C108.414 54.0492 105.96 52.1921 105.591 49.5326C105.222 46.8731 107.077 44.4165 109.733 44.0469C112.388 43.6772 114.841 45.5344 115.211 48.1938Z"
        fill="#000201" />
    <path
        d="M110.263 50.2901C110.551 52.3861 109.093 54.3153 107.004 54.6083C104.911 54.8968 102.985 53.4364 102.692 51.3448C102.404 49.2488 103.863 47.3196 105.951 47.0266C108.044 46.7381 109.971 48.1985 110.263 50.2901Z"
        fill="#FFDA7B" />
    <path
        d="M105.637 59.5156L101.703 60.8409L102.355 65.5513C102.355 65.5513 102.157 66.4889 104.372 68.4947L107.041 64.0593L105.641 59.5156H105.637Z"
        fill="#FFC3BD" />
    <path
        d="M109.437 55.2723C110.738 51.6829 108.888 47.7162 105.304 46.4126C101.719 45.109 97.7581 46.9621 96.4563 50.5515C95.1546 54.141 97.005 58.1076 100.589 59.4112C104.174 60.7148 108.135 58.8618 109.437 55.2723Z"
        fill="#000201" />
    <path
        d="M100.469 56.0707C100.667 57.0714 100.041 58.045 99.0692 58.2388C98.1014 58.4326 97.1562 57.779 96.9581 56.7784C96.76 55.7777 97.3857 54.804 98.358 54.6102C99.3258 54.4164 100.271 55.07 100.469 56.0707Z"
        fill="#E69892" />
    <path
        d="M101.935 62.5209C101.935 62.5209 105.694 62.3947 106.284 58.2297C106.468 56.918 101.593 59.902 101.593 59.902L101.935 62.5209Z"
        fill="#000201" />
    <path
        d="M103.143 61.4641C100.645 61.7932 98.318 60.0172 97.9759 57.9167L97.1927 52.9538C96.7605 50.3214 98.4305 47.8242 100.96 47.3148C103.553 46.792 106.533 48.4507 107.059 51.1328L107.645 55.131C108.099 58.2232 106.105 60.8691 103.139 61.4641H103.143Z"
        fill="#FFC3BD" />
    <path d="M100.472 56.0723L100.463 57.3614L101.084 57.3073" stroke="#000201" stroke-width="0.342"
        stroke-linecap="round" stroke-linejoin="round" />
    <path
        d="M102.903 53.3636C102.903 53.3636 101.868 53.4086 101.913 53.8414C101.913 53.8414 101.949 54.1343 102.854 54.0758C103.754 54.0217 103.979 53.9225 104.024 53.6385C104.069 53.3545 103.385 53.305 102.903 53.3636Z"
        fill="#000201" />
    <path
        d="M98.6375 54.0359C98.6375 54.0359 99.4702 53.8376 99.5917 54.2342C99.5917 54.2342 99.6682 54.5047 98.9345 54.658C98.2008 54.8157 97.9488 54.7481 97.8497 54.5363C97.7372 54.2974 98.2368 54.0945 98.6375 54.0359Z"
        fill="#000201" />
    <path
        d="M99.4667 55.7345C99.5072 55.9779 99.3452 56.2078 99.1111 56.2484C98.8726 56.2889 98.652 56.1176 98.6115 55.8742C98.571 55.6308 98.733 55.4009 98.9671 55.3604C99.2012 55.3243 99.4262 55.4911 99.4667 55.7345Z"
        fill="#000201" />
    <path
        d="M103.215 55.1203C103.255 55.3637 103.093 55.5936 102.859 55.6342C102.62 55.6702 102.4 55.5035 102.359 55.2601C102.319 55.0166 102.481 54.7868 102.715 54.7462C102.949 54.7056 103.174 54.8769 103.215 55.1203Z"
        fill="#000201" />
    <path
        d="M100.588 58.1408L102.586 57.7441C102.586 57.7441 102.744 58.4699 101.618 58.6096C100.808 58.7133 100.592 58.1408 100.592 58.1408H100.588Z"
        fill="white" />
    <path
        d="M105.005 52.1988C105.06 52.3927 106.486 55.2505 106.486 55.2505L108.913 51.4551L105.005 52.1988Z"
        fill="#000201" />
    <path
        d="M106.321 53.614C106.321 53.614 101.905 54.6823 98.4482 50.9951C98.4482 50.9951 97.0393 52.0364 97.3814 54.1729C97.3814 54.1729 95.5178 49.2101 99.9021 47.2763C104.282 45.3426 108.288 47.8623 108.31 52.717L106.325 53.614H106.321Z"
        fill="#000201" />
    <path
        d="M109.936 54.7429C110.129 55.7346 109.513 56.6992 108.55 56.893C107.591 57.0868 106.654 56.4377 106.461 55.4461C106.267 54.4544 106.884 53.4898 107.847 53.2959C108.806 53.1021 109.742 53.7512 109.936 54.7429Z"
        fill="#F1ABA3" />
    <path d="M107.693 55.7515C107.693 55.7515 107.437 54.4488 108.684 54.4082" stroke="#000201"
        stroke-width="0.342" stroke-linecap="round" stroke-linejoin="round" />
    <defs>
        <linearGradient id="paint0_linear_1293_5822" x1="102.629" y1="91.9007" x2="114.199"
            y2="113.222" gradientUnits="userSpaceOnUse">
            <stop stop-color="#42A5F5" />
            <stop offset="0.953135" stop-color="#BBDEFB" />
        </linearGradient>
    </defs>
</svg>
