<svg width="200" height="200" viewBox="0 0 200 200" fill="none" xmlns="http://www.w3.org/2000/svg">
    <path
        d="M154.581 155.455C154.581 155.455 179.423 144.267 178.847 121.698C178.271 99.1284 152.06 83.4556 136.076 97.3885C120.092 111.321 109.748 99.6378 101.466 87.864C93.1836 76.0902 77.3751 66.4034 53.1358 73.2729C27.7441 80.467 19.9344 106.503 22.4461 123.875C24.2511 136.357 30.859 146.936 39.8615 155.063C40.1541 155.329 40.4557 155.59 40.7618 155.847C40.7618 155.847 150.047 158.29 154.576 155.455C159.105 152.621 154.581 155.455 154.581 155.455Z"
        fill="#FFF3F3" />
    <path
        d="M50.3096 155.745C48.9097 155.745 47.7754 154.61 47.7754 153.208V150.67H52.8438V153.208C52.8438 154.61 51.7095 155.745 50.3096 155.745Z"
        fill="#637582" />
    <path
        d="M74.5401 155.745C73.1402 155.745 72.0059 154.61 72.0059 153.208V150.67H77.0743V153.208C77.0743 154.61 75.94 155.745 74.5401 155.745Z"
        fill="#455760" />
    <path
        d="M89.4401 99.5455L86.3568 146.406C86.1362 149.746 83.3679 152.343 80.0235 152.343H70.0352L74.7345 99.9197L89.4401 99.541V99.5455Z"
        fill="#455760" />
    <path
        d="M91.245 95.7949H44.8909C44.0656 95.7949 43.3965 96.4649 43.3965 97.2914V100.068C43.3965 100.895 44.0656 101.565 44.8909 101.565H91.245C92.0703 101.565 92.7394 100.895 92.7394 100.068V97.2914C92.7394 96.4649 92.0703 95.7949 91.245 95.7949Z"
        fill="#455760" />
    <path
        d="M36.0215 99.5449L39.9826 146.753C40.2482 149.913 42.8859 152.342 46.0548 152.342H70.0331C73.2155 152.342 75.8622 149.89 76.1098 146.712L79.7513 99.5449H36.0215Z"
        fill="#637582" />
    <path
        d="M48.4264 121.61C47.7288 122.579 47.4182 123.431 47.2876 124.066C47.1616 124.679 47.2651 125.319 47.5757 125.865L50.3305 130.683C49.7903 128.375 53.0132 124.999 53.4634 124.54L54.7057 125.261L52.221 120.627L47.2246 120.911L48.4264 121.61Z"
        fill="#9FAEB9" />
    <path
        d="M51.653 127.804L56.0192 127.602L55.8256 132.817L52.5217 132.673C51.8915 132.646 51.3334 132.267 51.0813 131.69C50.7077 130.838 50.5771 129.463 51.653 127.804Z"
        fill="#9FAEB9" />
    <path
        d="M64.0326 116.859C63.5059 115.786 62.8983 115.11 62.4031 114.695C61.9215 114.294 61.3093 114.087 60.6836 114.109L55.1426 114.285C57.4292 114.893 58.8966 119.324 59.0857 119.937L57.8658 120.695L63.1188 120.672L65.2164 116.119L64.0326 116.854V116.859Z"
        fill="#9FAEB9" />
    <path
        d="M57.0586 116.81L55.1861 120.763L50.6758 118.144L52.3503 115.291C52.6698 114.75 53.2685 114.43 53.8942 114.48C54.8215 114.552 56.0953 115.079 57.0541 116.81H57.0586Z"
        fill="#9FAEB9" />
    <path
        d="M61.1568 132.656C62.3496 132.714 63.2319 132.511 63.8351 132.277C64.4202 132.051 64.8974 131.614 65.1854 131.055L67.7242 126.12C66.0812 127.823 61.5034 126.953 60.8732 126.823L60.8057 125.385L58.2715 129.992L61.2243 134.039L61.1568 132.646V132.656Z"
        fill="#9FAEB9" />
    <path
        d="M64.5901 126.576L62.0469 123.015L66.5256 120.342L68.2001 123.195C68.5197 123.741 68.5062 124.417 68.1596 124.944C67.6465 125.719 66.5662 126.576 64.5901 126.576Z"
        fill="#9FAEB9" />
    <path d="M36.0234 99.5449L36.37 103.692L80.4375 103.904L79.7533 99.5449H36.0234Z"
        fill="#455760" />
    <path
        d="M81.0497 95.7949H34.6956C33.8702 95.7949 33.2012 96.4649 33.2012 97.2914V100.068C33.2012 100.895 33.8702 101.565 34.6956 101.565H81.0497C81.875 101.565 82.5441 100.895 82.5441 100.068V97.2914C82.5441 96.4649 81.875 95.7949 81.0497 95.7949Z"
        fill="#637582" />
    <path d="M146.352 149.359L144.439 141.602L139.658 143.224L142.165 150.5L146.352 149.359Z"
        fill="#F1ABA3" />
    <path
        d="M142.166 150.499L140.379 153.109L136.508 155.588H141.995L148.931 152.149L146.307 149.115L142.166 150.499Z"
        fill="#1E0D1D" />
    <path d="M132.416 89.9531L150.588 145.266L134.279 150.616L117.656 101.407L132.416 89.9531Z"
        fill="#FF7723" />
    <path d="M132.439 92.1973L124.543 121.884L119.975 108.731L132.439 92.1973Z" fill="#EF671B" />
    <path d="M99.4069 149.832L90.3008 152.419L103.071 155.845L103.571 151.283L99.4069 149.832Z"
        fill="#1E0D1D" />
    <path d="M103.57 151.283L105.379 143.502L100.388 142.781L99.4062 149.831L103.57 151.283Z"
        fill="#F1ABA3" />
    <path
        d="M116.674 82.0506L116.201 83.9032C110.872 93.5179 102.563 109.367 100.636 113.504C100.249 114.334 99.9519 115.204 99.7448 116.096L92.7363 146.45L110.575 150.818L118.074 118.566C123.885 106.04 140.585 92.5397 127.63 81.0859L116.67 82.0506H116.674Z"
        fill="#FF964A" />
    <path
        d="M85.5115 71.5098L102.679 77.6401C104.552 78.163 105.605 80.1463 104.998 81.9944C104.381 83.8651 101.851 84.7981 100.028 84.0634L84.2422 76.2968L85.5115 71.5143V71.5098Z"
        fill="#FFC3BD" />
    <rect x="55.2119" y="68.1836" width="26" height="20" rx="2"
        transform="rotate(-5.56 55.2119 68.1836)" fill="#628CA1" />
    <path
        d="M59.9368 73.2984L76.9514 71.5656M60.2672 77.4083L68.9161 76.5M60.5156 82.0114L75.9161 80.5"
        stroke="white" stroke-linecap="round" />
    <path
        d="M82.0004 75.3587C82.7341 75.6381 84.6291 76.445 84.6291 76.445L88.1671 72.4603L85.1918 71.1621L81.8203 72.9201L82.0004 75.3587Z"
        fill="#FFC3BD" />
    <path
        d="M85.8415 71.5412C85.8415 71.5412 82.7581 69.2514 80.566 69.9816C79.0266 70.4955 78.1803 71.1311 76.848 72.1543C76.3483 72.5374 76.2898 73.2767 76.7309 73.7319C77.064 74.0745 77.5862 74.1556 78.0048 73.9258L79.5937 73.3127C79.5937 73.3127 84.7657 75.3096 85.846 71.5412H85.8415Z"
        fill="#FFC3BD" />
    <path
        d="M111.646 76.6845L106.168 71.0996C103.391 73.5562 100.74 76.7161 98.9664 77.8655C96.9633 79.1637 96.7968 80.818 98.2507 82.7157C99.5921 84.4646 102.077 84.8342 103.868 83.5541L111.646 76.689V76.6845Z"
        fill="#FFC3BD" />
    <path
        d="M115.81 72.9796C117.421 71.8256 117.876 69.6214 116.854 67.9221C115.747 66.0875 113.347 65.5285 111.547 66.6915C110.26 67.5209 108.266 69.2473 106.168 71.0999L111.646 76.6848L115.81 72.9796Z"
        fill="#FFC3BD" />
    <path d="M111.926 71.0996L111.646 76.6845L113.51 75.0077L111.926 71.0996Z" fill="#FFC3BD" />
    <path
        d="M119.111 64.1528L126.493 63.7967C127.349 63.7561 128.064 64.4322 128.078 65.2887L127.637 81.0832L116.676 82.0479L111.103 69.1021C110.64 67.885 111.302 66.5283 112.548 66.1496L119.111 64.1482V64.1528Z"
        fill="#FD4545" />
    <path d="M127.831 74.4976L125.107 71.3828L127.687 79.1584L127.831 74.4976Z" fill="#E02323" />
    <path
        d="M130.034 65.3257C128.859 63.7255 126.654 63.3018 124.97 64.3475C123.152 65.4789 122.625 67.8905 123.809 69.6755C124.655 70.9556 126.406 72.9254 128.283 75.0034L133.788 69.4411L130.034 65.3212V65.3257Z"
        fill="#FD4545" />
    <path
        d="M133.788 69.4459L128.283 75.0083C130.772 77.7579 133.964 80.3678 135.139 82.1303C136.462 84.1181 138.114 84.2623 139.991 82.7793C141.72 81.4135 142.057 78.9209 140.752 77.1404L133.793 69.4414L133.788 69.4459Z"
        fill="#FFC3BD" />
    <path
        d="M123.838 91.5048L135.474 77.4592C136.608 75.877 138.827 75.566 140.353 76.774C141.893 77.9956 141.906 80.6956 140.592 82.1606L127.894 94.3446L123.842 91.5093L123.838 91.5048Z"
        fill="#FFC3BD" />
    <path
        d="M125.179 90.256L119.795 89.945C119.48 89.8999 119.196 90.1343 119.178 90.4544L119.16 90.7834C119.151 90.9412 119.214 91.099 119.331 91.2071L120.146 91.9644L118.818 93.781C118.647 94.0154 118.58 94.3038 118.629 94.5923C118.724 95.1513 118.989 96.0888 119.718 96.7515C120.025 97.0309 120.448 97.1526 120.857 97.085L121.456 96.9813C121.456 96.9813 123.513 98.568 124.733 97.7116C125.957 96.8551 125.939 95.6246 126.817 95.0882C127.695 94.5473 128.275 93.9568 128.275 93.9568L125.165 90.2605L125.179 90.256Z"
        fill="#FFC3BD" />
    <path
        d="M129.254 48.1938C129.623 50.8533 127.768 53.3099 125.113 53.6796C122.457 54.0492 120.004 52.1921 119.635 49.5326C119.266 46.8731 121.12 44.4165 123.776 44.0469C126.432 43.6772 128.885 45.5344 129.254 48.1938Z"
        fill="#000201" />
    <path
        d="M124.307 50.2901C124.595 52.3861 123.136 54.3153 121.048 54.6083C118.955 54.8968 117.028 53.4364 116.736 51.3448C116.447 49.2488 117.906 47.3196 119.994 47.0266C122.088 46.7381 124.014 48.1985 124.307 50.2901Z"
        fill="#FFDA7B" />
    <path
        d="M119.68 59.5156L115.746 60.8409L116.399 65.5513C116.399 65.5513 116.201 66.4889 118.415 68.4947L121.085 64.0593L119.685 59.5156H119.68Z"
        fill="#FFC3BD" />
    <path
        d="M123.48 55.2723C124.782 51.6829 122.931 47.7162 119.347 46.4126C115.763 45.109 111.801 46.9621 110.5 50.5515C109.198 54.141 111.048 58.1076 114.633 59.4112C118.217 60.7148 122.178 58.8618 123.48 55.2723Z"
        fill="#000201" />
    <path
        d="M114.512 56.0707C114.71 57.0714 114.085 58.045 113.113 58.2388C112.145 58.4326 111.199 57.779 111.001 56.7784C110.803 55.7777 111.429 54.804 112.401 54.6102C113.369 54.4164 114.314 55.07 114.512 56.0707Z"
        fill="#E69892" />
    <path
        d="M115.979 62.5209C115.979 62.5209 119.737 62.3947 120.327 58.2297C120.512 56.918 115.637 59.902 115.637 59.902L115.979 62.5209Z"
        fill="#000201" />
    <path
        d="M117.187 61.4641C114.688 61.7932 112.361 60.0172 112.019 57.9167L111.236 52.9538C110.804 50.3214 112.474 47.8242 115.004 47.3148C117.596 46.792 120.576 48.4507 121.103 51.1328L121.688 55.131C122.143 58.2232 120.149 60.8691 117.182 61.4641H117.187Z"
        fill="#FFC3BD" />
    <path d="M114.515 56.0723L114.506 57.3614L115.127 57.3073" stroke="#000201" stroke-width="0.342"
        stroke-linecap="round" stroke-linejoin="round" />
    <path
        d="M116.947 53.3636C116.947 53.3636 115.911 53.4086 115.957 53.8414C115.957 53.8414 115.993 54.1343 116.897 54.0758C117.798 54.0217 118.023 53.9225 118.068 53.6385C118.113 53.3545 117.428 53.305 116.947 53.3636Z"
        fill="#000201" />
    <path
        d="M112.681 54.0359C112.681 54.0359 113.514 53.8376 113.635 54.2342C113.635 54.2342 113.712 54.5047 112.978 54.658C112.244 54.8157 111.992 54.7481 111.893 54.5363C111.781 54.2974 112.28 54.0945 112.681 54.0359Z"
        fill="#000201" />
    <path
        d="M113.51 55.7345C113.551 55.9779 113.389 56.2078 113.154 56.2484C112.916 56.2889 112.695 56.1176 112.655 55.8742C112.614 55.6308 112.776 55.4009 113.01 55.3604C113.244 55.3243 113.47 55.4911 113.51 55.7345Z"
        fill="#000201" />
    <path
        d="M117.258 55.1203C117.298 55.3637 117.136 55.5936 116.902 55.6342C116.664 55.6702 116.443 55.5035 116.403 55.2601C116.362 55.0166 116.524 54.7868 116.758 54.7462C116.992 54.7056 117.217 54.8769 117.258 55.1203Z"
        fill="#000201" />
    <path
        d="M114.631 58.1408L116.629 57.7441C116.629 57.7441 116.787 58.4699 115.662 58.6096C114.851 58.7133 114.635 58.1408 114.635 58.1408H114.631Z"
        fill="white" />
    <path
        d="M119.049 52.1988C119.103 52.3927 120.53 55.2505 120.53 55.2505L122.956 51.4551L119.049 52.1988Z"
        fill="#000201" />
    <path
        d="M120.364 53.614C120.364 53.614 115.948 54.6823 112.492 50.9951C112.492 50.9951 111.083 52.0364 111.425 54.1729C111.425 54.1729 109.561 49.2101 113.945 47.2763C118.325 45.3426 122.331 47.8623 122.354 52.717L120.369 53.614H120.364Z"
        fill="#000201" />
    <path
        d="M123.979 54.7429C124.173 55.7346 123.556 56.6992 122.593 56.893C121.634 57.0868 120.698 56.4377 120.504 55.4461C120.311 54.4544 120.927 53.4898 121.891 53.2959C122.849 53.1021 123.786 53.7512 123.979 54.7429Z"
        fill="#F1ABA3" />
    <path d="M121.737 55.7515C121.737 55.7515 121.48 54.4488 122.727 54.4082" stroke="#000201"
        stroke-width="0.342" stroke-linecap="round" stroke-linejoin="round" />
</svg>
