<svg width="120" height="120" viewBox="0 0 120 120" fill="none" xmlns="http://www.w3.org/2000/svg">
    <path d="M23.1328 97.3178V99.123H36.6451V97.3178H23.1328Z" fill="#E0E0E0" />
    <path
        d="M24.9736 97.3926C25.0204 97.3926 25.0586 97.7713 25.0586 98.2381C25.0586 98.7051 25.0204 99.0839 24.9736 99.0839C24.9266 99.0839 24.8887 98.7051 24.8887 98.2381C24.8887 97.7713 24.9268 97.3926 24.9736 97.3926Z"
        fill="#FAFAFA" />
    <path
        d="M24.6787 97.3574C24.7258 97.3574 24.7637 97.7361 24.7637 98.2032C24.7637 98.6702 24.7258 99.0489 24.6787 99.0489C24.6319 99.0489 24.5938 98.6702 24.5938 98.2032C24.5938 97.7361 24.6319 97.3574 24.6787 97.3574Z"
        fill="#FAFAFA" />
    <path
        d="M35.6006 97.3926C35.6476 97.3926 35.6855 97.7713 35.6855 98.2381C35.6855 98.7051 35.6476 99.0839 35.6006 99.0839C35.5538 99.0839 35.5156 98.7051 35.5156 98.2381C35.5159 97.7713 35.5538 97.3926 35.6006 97.3926Z"
        fill="#FAFAFA" />
    <path
        d="M35.3057 97.3574C35.3525 97.3574 35.3906 97.7361 35.3906 98.2032C35.3906 98.6702 35.3525 99.0489 35.3057 99.0489C35.2589 99.0489 35.2207 98.6702 35.2207 98.2032C35.2207 97.7361 35.2586 97.3574 35.3057 97.3574Z"
        fill="#FAFAFA" />
    <path
        d="M33.5416 98.2764C33.5416 98.3234 31.9939 98.3613 30.0854 98.3613C28.1762 98.3613 26.6289 98.3232 26.6289 98.2764C26.6289 98.2296 28.1762 98.1914 30.0854 98.1914C31.9939 98.1914 33.5416 98.2296 33.5416 98.2764Z"
        fill="#FAFAFA" />
    <path d="M23.0742 105.444V109.055H36.5865V105.444H23.0742Z" fill="#E0E0E0" />
    <path
        d="M36.7591 108.04C36.7603 108.043 36.7356 108.057 36.6857 108.082C36.6362 108.108 36.5609 108.142 36.4605 108.185C36.2597 108.267 35.9565 108.383 35.5445 108.447C35.1393 108.505 34.5957 108.521 34.0579 108.236C33.7939 108.095 33.5429 107.881 33.3518 107.596C33.1651 107.312 33.0451 106.942 33.1061 106.556C33.1385 106.364 33.2186 106.175 33.3545 106.019C33.4865 105.862 33.6984 105.746 33.9242 105.76C34.1505 105.77 34.355 105.9 34.4969 106.069C34.6399 106.238 34.7381 106.455 34.7582 106.685C34.8117 107.142 34.619 107.617 34.2924 107.964C33.971 108.324 33.4905 108.543 32.994 108.599C32.4941 108.658 31.9771 108.579 31.4865 108.412C30.9962 108.242 30.5117 107.967 30.1697 107.527C30.0019 107.307 29.8807 107.035 29.8627 106.747C29.8377 106.459 29.9294 106.15 30.1505 105.936C30.2604 105.829 30.414 105.757 30.5731 105.751C30.7325 105.743 30.8863 105.795 31.0149 105.875C31.2756 106.037 31.4421 106.314 31.5122 106.603C31.6392 107.194 31.4057 107.809 30.9794 108.194C30.552 108.583 29.9923 108.755 29.4581 108.813C28.9202 108.867 28.3793 108.827 27.881 108.658C27.3847 108.493 26.9383 108.166 26.6813 107.725C26.4199 107.294 26.3342 106.749 26.531 106.291C26.6234 106.064 26.8322 105.863 27.0823 105.824C27.3259 105.779 27.575 105.846 27.7629 105.989C28.1443 106.291 28.2079 106.81 28.0848 107.205C27.9597 107.611 27.6866 107.922 27.4037 108.164C26.826 108.652 26.1422 108.863 25.5506 108.884C24.9528 108.905 24.4502 108.74 24.0825 108.55C23.7122 108.358 23.4684 108.139 23.3169 107.983C23.2425 107.903 23.1881 107.84 23.1552 107.795C23.1213 107.751 23.1053 107.727 23.1077 107.725C23.1249 107.702 23.3781 108.12 24.1123 108.491C24.4766 108.668 24.9689 108.818 25.5465 108.789C26.1187 108.76 26.7765 108.547 27.3257 108.073C27.5957 107.838 27.8496 107.538 27.9593 107.167C28.0697 106.81 27.9979 106.346 27.6782 106.101C27.522 105.983 27.3072 105.928 27.1101 105.967C26.9097 106 26.7509 106.153 26.6683 106.35C26.4979 106.751 26.5725 107.248 26.8159 107.644C27.0547 108.049 27.4641 108.348 27.9341 108.504C28.4035 108.662 28.9257 108.7 29.4405 108.647C29.952 108.591 30.4766 108.424 30.8659 108.068C31.2501 107.724 31.4599 107.158 31.3469 106.641C31.2857 106.389 31.1407 106.152 30.9254 106.019C30.7145 105.879 30.4387 105.883 30.2666 106.059C30.0921 106.227 30.0077 106.489 30.0307 106.735C30.0461 106.986 30.1505 107.226 30.3029 107.426C30.6127 107.829 31.0725 108.096 31.5393 108.258C32.0114 108.421 32.5058 108.497 32.976 108.443C33.4452 108.391 33.8841 108.193 34.1839 107.862C34.4885 107.542 34.6644 107.108 34.619 106.699C34.5861 106.302 34.2833 105.915 33.9182 105.891C33.7382 105.879 33.5659 105.967 33.4493 106.102C33.3305 106.236 33.2553 106.406 33.2253 106.576C33.1665 106.925 33.2709 107.268 33.4433 107.537C33.6192 107.807 33.8553 108.015 34.1045 108.153C34.6087 108.431 35.1386 108.429 35.5363 108.381C35.9417 108.329 36.2457 108.224 36.449 108.153C36.6516 108.079 36.7562 108.033 36.7591 108.04Z"
        fill="#FAFAFA" />
    <path d="M24.2812 99.1757V105.439H36.5868V99.1757H24.2812Z" fill="#EBEBEB" />
    <path
        d="M26.3252 99.3906C26.3722 99.3906 26.4102 100.748 26.4102 102.422C26.4102 104.097 26.3722 105.454 26.3252 105.454C26.2782 105.454 26.2402 104.097 26.2402 102.422C26.2402 100.748 26.2782 99.3906 26.3252 99.3906Z"
        fill="#E0E0E0" />
    <path
        d="M27.2588 99.3125C27.3058 99.3125 27.3437 100.653 27.3437 102.305C27.3437 103.958 27.3056 105.298 27.2588 105.298C27.212 105.298 27.1738 103.958 27.1738 102.305C27.1738 100.653 27.212 99.3125 27.2588 99.3125Z"
        fill="#E0E0E0" />
    <path
        d="M35.1963 99.1113C35.2433 99.1113 35.2812 100.523 35.2812 102.263C35.2812 104.004 35.2433 105.415 35.1963 105.415C35.1495 105.415 35.1113 104.004 35.1113 102.263C35.1113 100.523 35.1495 99.1113 35.1963 99.1113Z"
        fill="#E0E0E0" />
    <path
        d="M34.0986 99.1953C34.1454 99.1953 34.1836 100.57 34.1836 102.266C34.1836 103.962 34.1454 105.336 34.0986 105.336C34.0518 105.336 34.0137 103.962 34.0137 102.266C34.0137 100.57 34.0516 99.1953 34.0986 99.1953Z"
        fill="#E0E0E0" />
    <path
        d="M100.336 85.501C101.612 84.8429 103.114 84.7572 104.53 84.9912C105.291 85.117 106.084 85.3447 106.602 85.9162C107.12 86.4876 107.218 87.4935 106.623 87.9845C106.269 88.2768 105.776 88.3212 105.317 88.3159C104.209 88.303 102.978 88.1079 102.093 88.7748C101.587 89.1555 101.251 89.7881 100.647 89.9753C100.056 90.1584 99.3887 89.8097 99.0752 89.2762C98.7618 88.7427 98.7515 88.0759 98.8974 87.4745C98.8974 87.4745 99.0515 86.1639 100.336 85.501Z"
        fill="#EBEBEB" />
    <path
        d="M97.4141 79.8594C98.1941 80.9735 99.7102 80.6046 100.413 79.9247C101.116 79.2445 101.413 78.2591 101.684 77.3193C102.302 75.1717 102.925 72.9191 102.465 70.7322C102.328 70.0785 102.083 69.4264 101.624 68.9413C101.165 68.4563 100.458 68.1678 99.8122 68.3385C99.0478 68.5405 98.5726 69.2891 98.2294 70.0014C97.2202 72.0949 96.6857 74.4157 96.6778 76.7397C96.674 77.8252 96.8019 78.9633 97.4141 79.8594Z"
        fill="#EBEBEB" />
    <path
        d="M95.2728 81.4589C96.1197 80.4538 96.2803 78.9876 95.9035 77.7286C95.5267 76.4693 94.6752 75.3982 93.6941 74.5236C92.5435 73.4983 91.1913 72.7003 89.7374 72.1891C89.1652 71.988 88.5619 71.8294 87.958 71.887C87.3542 71.9446 86.7463 72.2532 86.4648 72.7903C86.0484 73.5845 86.4475 74.5476 86.8795 75.3336C87.6403 76.7182 88.5101 78.0425 89.4782 79.2907C90.2573 80.2949 91.1493 81.2854 92.3364 81.7392C93.5234 82.193 94.7565 82.1398 95.3858 81.3163"
        fill="#EBEBEB" />
    <path
        d="M97.3619 96.6645C97.3766 96.6654 97.4003 96.485 97.4325 96.1583C97.4683 95.7899 97.5134 95.3272 97.5669 94.7769C97.6312 94.1956 97.7162 93.5037 97.8777 92.7503C98.0387 91.9989 98.2907 91.1846 98.6142 90.3585C98.9493 89.5374 99.358 88.7913 99.8356 88.1944C100.31 87.5949 100.861 87.161 101.38 86.9109C101.896 86.6555 102.36 86.5521 102.68 86.506C103.003 86.4729 103.184 86.4474 103.184 86.433C103.184 86.4186 103.003 86.4162 102.671 86.4251C102.342 86.447 101.86 86.5302 101.315 86.7779C100.769 87.0203 100.184 87.4607 99.6863 88.0727C99.185 88.6821 98.7614 89.4448 98.4203 90.2805C98.0911 91.121 97.8429 91.9437 97.6891 92.7114C97.5357 93.478 97.4656 94.1774 97.4198 94.7634C97.3759 95.35 97.3593 95.8252 97.3514 96.1535C97.3439 96.4818 97.3478 96.6638 97.3619 96.6645Z"
        fill="#E0E0E0" />
    <path
        d="M97.4571 95.6022C97.4643 95.6019 97.4688 95.5208 97.4707 95.3672C97.4703 95.1908 97.4698 94.9683 97.4691 94.6954C97.4674 94.1125 97.4679 93.2689 97.4991 92.2273C97.5507 90.1438 97.7299 87.9015 98.0765 84.7405C98.4046 81.7678 98.845 78.3085 99.3099 76.0594C99.4095 75.548 99.5098 75.0874 99.6043 74.6845C99.6943 74.2803 99.7714 73.9321 99.8455 73.6503C99.9094 73.3851 99.9612 73.1689 100.002 72.9975C100.036 72.8475 100.05 72.7676 100.044 72.7657C100.037 72.7635 100.009 72.8393 99.9619 72.986C99.9108 73.1549 99.8463 73.3681 99.7668 73.6297C99.6804 73.909 99.5916 74.2549 99.4906 74.6573C99.385 75.0586 99.2743 75.518 99.1651 76.0287C98.7053 78.0668 98.2183 80.9151 97.8687 84.0838C97.5214 87.2516 97.3651 90.1359 97.3512 92.2246C97.3387 93.2689 97.3611 94.1144 97.3877 94.6976C97.4043 94.9705 97.4179 95.1927 97.4287 95.3689C97.4403 95.5222 97.4499 95.6026 97.4571 95.6022Z"
        fill="#E0E0E0" />
    <path
        d="M97.4707 90.0392C97.4854 90.0387 97.4827 89.7894 97.4659 89.3375C97.44 88.8865 97.3781 88.2349 97.2511 87.4364C97.1165 86.6399 96.9283 85.6943 96.6329 84.6666C96.505 84.1969 96.2038 83.0711 95.4746 81.3891C94.5139 79.1101 93.2088 77.247 92.0731 76.0928C91.807 75.7866 91.5103 75.5655 91.273 75.3491C91.1501 75.2454 91.0416 75.1417 90.9312 75.0599C90.8201 74.9833 90.7166 74.912 90.6209 74.8458C90.2472 74.5902 90.0379 74.4555 90.0302 74.4675C89.9966 74.5131 90.8674 75.0255 91.9666 76.1951C93.0614 77.3622 94.3301 79.2126 95.2831 81.4724C95.8145 82.6981 96.185 83.7915 96.4481 84.7196C96.7519 85.7372 96.9535 86.6735 97.1059 87.4619C97.2509 88.2522 97.3346 88.8973 97.3853 89.3442C97.4263 89.7918 97.4563 90.0399 97.4707 90.0392Z"
        fill="#E0E0E0" />
    <path d="M91.7227 99.0078L92.2802 106.645H102.091L102.649 99.0078H91.7227Z" fill="#EBEBEB" />
    <path d="M103.818 95.9961H90.7734V99.0062H103.818V95.9961Z" fill="#EBEBEB" />
    <path d="M90.7734 106.352V107.186H91.3864H103.602V106.352H90.7734Z" fill="#E0E0E0" />
    <path d="M91.9874 108.562L91.3867 107.094H103.135L102.434 108.562H91.9874Z" fill="#E0E0E0" />
    <path
        d="M102.465 101.503C102.467 101.505 102.452 101.529 102.419 101.573C102.381 101.625 102.332 101.689 102.273 101.767C102.133 101.946 101.942 102.191 101.701 102.499L101.676 102.532L101.651 102.498C101.292 102.001 100.812 101.337 100.247 100.555H100.328C99.9102 101.147 99.4449 101.806 98.9454 102.513L98.902 102.574L98.8535 102.516C98.3433 101.91 97.7891 101.25 97.2141 100.566L97.3086 100.565C97.2801 100.6 97.2493 100.639 97.2184 100.678C96.7098 101.315 96.2178 101.932 95.7525 102.516L95.7035 102.577L95.6584 102.513C95.1606 101.809 94.6957 101.151 94.2753 100.556L94.3557 100.56C93.6741 101.337 93.0959 101.995 92.6521 102.501L92.6219 102.535L92.5989 102.496C92.3745 102.119 92.1952 101.818 92.0656 101.6C92.0099 101.503 91.9648 101.424 91.9288 101.362C91.8986 101.307 91.8844 101.278 91.887 101.276C91.8897 101.275 91.9091 101.301 91.9442 101.352C91.984 101.412 92.0339 101.488 92.0956 101.582C92.2319 101.796 92.4198 102.091 92.6555 102.462L92.6022 102.457C93.0388 101.946 93.6076 101.279 94.2784 100.493L94.3206 100.443L94.3588 100.497C94.7829 101.089 95.2521 101.744 95.7544 102.445L95.6605 102.442C96.1249 101.858 96.6157 101.24 97.1231 100.602C97.1541 100.563 97.1848 100.524 97.2133 100.488L97.2599 100.43L97.3079 100.487C97.8815 101.173 98.434 101.833 98.9428 102.442L98.8511 102.445C99.3556 101.742 99.8255 101.086 100.247 100.498L100.288 100.44L100.328 100.498C100.881 101.287 101.351 101.958 101.703 102.461L101.653 102.459C101.903 102.159 102.102 101.92 102.247 101.747C102.312 101.672 102.364 101.611 102.406 101.562C102.443 101.521 102.463 101.501 102.465 101.503Z"
        fill="#F5F5F5" />
    <path
        d="M102.783 98.9574C102.783 98.9913 100.325 99.0184 97.2935 99.0184C94.2606 99.0184 91.8027 98.991 91.8027 98.9574C91.8027 98.9238 94.2606 98.8965 97.2935 98.8965C100.325 98.8965 102.783 98.9238 102.783 98.9574Z"
        fill="#F5F5F5" />
    <path
        d="M112.994 108.965C112.994 108.999 89.813 109.027 61.2242 109.027C32.6255 109.027 9.44922 108.999 9.44922 108.965C9.44922 108.93 32.6253 108.902 61.2242 108.902C89.813 108.902 112.994 108.93 112.994 108.965Z"
        fill="#263238" />
    <path
        d="M37.4826 26.457C33.6311 32.5151 33.8833 40.9144 38.0912 46.7303C40.8964 50.6075 45.1045 53.2065 48.446 56.6322C51.7876 60.0582 54.3253 65.1069 52.5618 69.5558C50.7666 74.0848 45.5087 75.9273 41.571 78.796C37.282 81.9208 34.2695 86.7474 33.3467 91.9732C32.4239 97.1989 33.6008 102.765 36.56 107.17H77.4618C77.4618 107.17 84.6467 93.477 75.4091 83.0418C66.1715 72.6066 61.2104 72.4355 61.5524 65.5929C61.8947 58.7502 66.6846 56.5262 69.4216 53.9603C72.1585 51.3945 85.502 45.4069 77.6329 26.4573L37.4826 26.457Z"
        fill="#FAFAFA" />
    <path
        d="M37.4831 26.4565C37.4831 26.4565 37.7205 26.4527 38.1873 26.4507C38.6555 26.4495 39.3501 26.4476 40.2606 26.4452C42.0861 26.4426 44.7765 26.4387 48.2421 26.4337C55.1802 26.4287 65.2204 26.4212 77.6334 26.4121H77.6634L77.6742 26.4395C78.2332 27.8588 78.7979 29.3197 79.1982 30.8684C79.6101 32.4102 79.9478 34.0165 80.0673 35.6811C80.1926 37.3424 80.1388 39.0579 79.8078 40.7617C79.4663 42.4607 78.8577 44.1435 77.9591 45.7002C77.5122 46.4802 76.9866 47.2208 76.4186 47.9355C75.844 48.6459 75.2078 49.3139 74.5346 49.9513C73.8602 50.588 73.1418 51.1878 72.3959 51.7616C71.6517 52.3374 70.8748 52.8817 70.1161 53.4563C69.7362 53.7428 69.3892 54.0642 69.0273 54.3863C68.6634 54.7021 68.2888 55.0069 67.9108 55.3088C67.155 55.9134 66.3916 56.5177 65.6709 57.1794C64.2162 58.4809 62.9874 60.1059 62.3116 61.9974C61.9837 62.9413 61.7488 63.9303 61.672 64.9427C61.6516 65.1954 61.6178 65.4479 61.6084 65.7018C61.6033 65.9559 61.5889 66.2108 61.6009 66.4655C61.6043 66.9755 61.6617 67.4847 61.7543 67.9873C61.9466 68.9919 62.3685 69.9546 62.9819 70.7891C63.5865 71.6312 64.3319 72.3726 65.1033 73.0859C66.6563 74.5057 68.3032 75.861 69.8809 77.3243C71.4664 78.7794 73.0057 80.3156 74.4887 81.9301C75.2245 82.7401 75.9726 83.5551 76.6158 84.4592C77.2811 85.3463 77.8396 86.3154 78.3304 87.3183C79.2978 89.3334 79.8959 91.544 80.0918 93.8043C80.3025 96.0649 80.1414 98.3684 79.6934 100.623C79.4716 101.751 79.1773 102.868 78.8159 103.968C78.4542 105.067 78.0369 106.151 77.5173 107.198L77.5007 107.232H77.4621C77.1302 107.232 76.7697 107.232 76.409 107.232C62.4467 107.231 48.9748 107.23 36.5605 107.229H36.5286L36.5111 107.203C34.5623 104.277 33.4053 100.916 33.0861 97.5479C32.7469 94.1792 33.2654 90.801 34.5011 87.8027C35.7208 84.7935 37.6168 82.1543 39.9078 80.0799C41.05 79.0345 42.3234 78.1791 43.599 77.3876C44.8761 76.5949 46.1639 75.8617 47.3814 75.0594C48.5937 74.2554 49.762 73.3991 50.7105 72.3512C51.6623 71.3123 52.3898 70.0919 52.7706 68.78C53.1532 67.467 53.1568 66.0901 52.9331 64.7936C52.7063 63.4926 52.2484 62.2623 51.669 61.1291C51.088 59.9943 50.3834 58.9525 49.6103 58.0019C48.8392 57.0481 47.9819 56.2016 47.1191 55.4027C45.3875 53.8088 43.6158 52.4147 42.0208 50.9821C41.2221 50.2674 40.4651 49.5459 39.7684 48.8046C39.0767 48.0591 38.4443 47.2947 37.9012 46.503C36.8058 44.9233 36.0546 43.2589 35.561 41.6523C35.0666 40.0439 34.8208 38.4889 34.7644 37.0583C34.7308 36.7011 34.744 36.3507 34.7445 36.0087C34.749 35.6667 34.7387 35.3324 34.7742 35.0082C34.7992 34.6835 34.8237 34.3669 34.8474 34.0585C34.8844 33.7518 34.935 33.4547 34.9763 33.1652C35.3363 30.8483 36.0354 29.1553 36.5805 28.0717C36.711 27.7964 36.826 27.5543 36.9505 27.3582C37.0674 27.1592 37.1654 26.9922 37.2441 26.8575C37.402 26.5904 37.4831 26.4565 37.4831 26.4565C37.4663 26.486 37.3996 26.6039 37.2513 26.8659C37.174 27.0008 37.078 27.1681 36.9635 27.3675C36.8418 27.5627 36.7281 27.8053 36.5992 28.0811C36.0609 29.1663 35.3692 30.8588 35.0162 33.1717C34.9758 33.4607 34.9259 33.7571 34.8899 34.0633C34.8671 34.371 34.8433 34.6868 34.8193 35.0108C34.7848 35.3343 34.7958 35.6679 34.792 36.009C34.7922 36.35 34.7798 36.6997 34.8141 37.0556C34.8734 38.4824 35.1213 40.0326 35.6169 41.6351C36.1115 43.2356 36.8627 44.8928 37.9562 46.4646C38.4983 47.2525 39.1295 48.0135 39.8202 48.7559C40.5157 49.4943 41.2722 50.2134 42.0707 50.9259C43.6653 52.3547 45.4386 53.7467 47.175 55.3417C48.04 56.1409 48.9014 56.9898 49.677 57.9474C50.4544 58.9016 51.1633 59.9475 51.7487 61.088C52.3324 62.2273 52.7946 63.4652 53.0246 64.7775C53.2514 66.0851 53.2492 67.4771 52.863 68.8062C52.4788 70.1341 51.7432 71.3691 50.7834 72.4179C49.827 73.4759 48.6527 74.3372 47.4374 75.1446C46.2165 75.95 44.9284 76.6844 43.654 77.4764C42.3805 78.2677 41.1148 79.1192 39.9793 80.1596C37.7017 82.2243 35.8163 84.8511 34.6046 87.8449C33.3767 90.8279 32.8629 94.1864 33.2013 97.5368C33.5198 100.886 34.672 104.229 36.6098 107.136L36.5603 107.11C48.9746 107.109 62.4462 107.108 76.4087 107.107C76.7694 107.107 77.1297 107.107 77.4618 107.107L77.4066 107.14C77.9198 106.106 78.3376 105.022 78.6971 103.929C79.0571 102.835 79.3501 101.722 79.5709 100.599C80.0171 98.3545 80.1772 96.063 79.9679 93.8159C79.7735 91.569 79.1795 89.3732 78.219 87.3719C77.7316 86.3759 77.1772 85.4132 76.5162 84.5317C75.8778 83.6341 75.1341 82.8234 74.3982 82.0131C72.9179 80.4008 71.3814 78.8667 69.7986 77.4135C68.223 75.9515 66.5793 74.5981 65.0217 73.1735C64.2482 72.4578 63.4977 71.7116 62.8852 70.8582C62.2636 70.0127 61.833 69.0303 61.6386 68.0099C61.5446 67.4996 61.4867 66.9834 61.4836 66.4681C61.4716 66.2103 61.486 65.9538 61.4913 65.6972C61.5009 65.4409 61.535 65.1865 61.5556 64.9316C61.6334 63.9111 61.871 62.9123 62.2026 61.9585C62.8862 60.0469 64.1308 58.4041 65.5941 57.0966C66.3189 56.4315 67.0852 55.8258 67.8405 55.2222C68.2185 54.9207 68.5922 54.6169 68.9538 54.303C69.3095 53.9869 69.6661 53.6571 70.0485 53.3691C70.8109 52.7922 71.5862 52.2498 72.329 51.6757C73.073 51.1038 73.7889 50.5069 74.4606 49.8733C75.1312 49.239 75.7645 48.5751 76.3362 47.8691C76.9012 47.1587 77.4244 46.4231 77.8689 45.6481C78.7629 44.1018 79.3684 42.4307 79.7092 40.742C80.0392 39.0488 80.0942 37.3422 79.9708 35.6881C79.8532 34.0307 79.5179 32.4296 79.1085 30.8922C78.7108 29.348 78.1485 27.8898 77.5922 26.4728L77.633 26.5002C65.2274 26.4911 55.1932 26.4836 48.2593 26.4786C44.7911 26.4735 42.0985 26.4697 40.2717 26.4671C39.3587 26.4647 38.6622 26.4627 38.193 26.4615C37.7248 26.4603 37.4831 26.4565 37.4831 26.4565Z"
        fill="#263238" />
    <path
        d="M76.0015 37.5674C82.0258 38.5577 72.5273 49.2271 67.1511 53.4372C64.038 55.8751 60.6946 58.5187 59.2162 62.1859C57.5388 66.3466 58.782 71.023 57.9691 75.2083C57.8343 75.9031 56.8071 75.7939 56.8174 75.0862C56.8575 72.3391 56.7843 69.5933 56.329 66.8885C55.6834 63.0526 54.2086 59.2577 51.5201 56.4463C49.3255 54.1517 46.4479 52.6267 44.107 50.4814C40.6891 47.3494 37.1784 43.3097 36.8359 38.6866C36.8359 38.6866 43.398 33.4008 47.0405 34.068C51.2974 34.8478 55.488 41.4163 62.0842 40.6642C66.6898 40.1388 69.0139 36.419 76.0015 37.5674Z"
        fill="#E8505B" />
    <path
        d="M76.536 94.6745C76.3838 93.1681 75.982 91.4631 74.645 90.7525C73.835 90.3219 72.8488 90.3699 71.9618 90.6032C71.0748 90.8365 70.2412 91.2399 69.3619 91.501C67.6317 92.0149 65.7364 91.9549 64.0423 91.3325C62.4079 90.7321 61.0048 89.6468 59.4871 88.7936C57.9693 87.9404 56.1928 87.3044 54.5032 87.7249C51.5896 88.4499 50.0733 91.9575 47.1928 92.8045C45.9124 93.1808 44.5377 92.9696 43.2362 92.6746C41.9347 92.3797 40.6281 92.0012 39.2947 92.0511C38.2497 92.0902 37.1625 92.4514 36.43 93.1676L36.4377 93.1575C36.4303 93.1649 36.424 93.1729 36.4166 93.1805C36.2961 93.2998 36.1855 93.4287 36.0864 93.5677C35.1928 94.7588 35.05 96.3603 35.3248 97.8147C35.6325 99.4431 36.3933 100.948 37.2098 102.391C38.1715 104.089 39.2637 105.781 40.8537 106.913C42.8152 108.311 45.282 107.346 47.6827 107.536C53.2826 107.977 59.3073 108.279 64.908 107.845C67.8662 107.616 70.6392 107.936 72.9866 106.121C74.6383 104.845 75.7123 102.92 76.2302 100.897C76.7481 98.875 76.7457 96.7515 76.536 94.6745Z"
        fill="#E8505B" />
    <g opacity="0.24">
        <path
            d="M65.9668 91.7891C65.6505 92.2731 65.5159 92.9216 65.8207 93.4131C66.1255 93.9047 66.5376 94.3513 66.6698 94.9143C66.8774 95.7985 66.3451 96.6632 65.9481 97.4802C65.238 98.9415 64.9149 100.609 65.1544 102.216C65.394 103.823 66.2184 105.358 67.5045 106.351C68.0733 106.79 68.8123 107.13 69.4977 106.915C70.1431 106.713 70.5604 106.058 70.6886 105.394C70.8168 104.73 70.7109 104.046 70.6267 103.375C70.2355 100.26 70.3156 97.0868 70.8636 93.9961C70.9552 93.4794 71.0428 92.8895 70.7152 92.4793C70.5062 92.2175 70.1726 92.0943 69.8546 91.9883C68.6064 91.5728 67.2592 92.0346 65.9668 91.7891Z"
            fill="black" />
    </g>
    <path
        d="M33.5594 109.026C33.5594 109.026 33.4468 107.148 35.8951 106.104H78.9156C78.9156 106.104 81.1588 107.239 81.4351 108.987L33.5594 109.026Z"
        fill="#263238" />
    <path
        d="M78.0035 26.6853C77.9812 26.6959 77.9584 26.7064 77.9354 26.717L37.4831 26.4566C37.4831 26.4566 37.3396 26.3647 37.1243 26.1964C35.9718 25.295 36.6186 23.4434 38.0817 23.4551L77.3438 23.7722C78.9645 23.7854 79.469 25.9929 78.0035 26.6853Z"
        fill="#263238" />
    <g opacity="0.24">
        <path
            d="M71.529 42.1164C71.6103 42.2724 71.3069 42.6096 70.7269 43.1244C70.1451 43.6397 69.2957 44.3465 68.2162 45.2168C67.1307 46.0798 65.8158 47.1204 64.1406 48.0915C63.3015 48.5763 62.3674 49.0162 61.346 49.374C60.8324 49.5464 60.3001 49.7064 59.7402 49.818C59.1836 49.9373 58.6026 50.0165 58.0052 50.0439C56.8138 50.1123 55.6021 49.9378 54.5178 49.5672C53.4394 49.1931 52.5198 48.6658 51.7155 48.1368C50.9091 47.6021 50.2138 47.0744 49.5586 46.5692C48.9061 46.0628 48.3114 45.5746 47.7798 45.1155C45.6548 43.2744 44.5374 41.9206 44.7529 41.6592C44.9756 41.3876 46.4797 42.2487 48.824 43.6892C49.4098 44.0489 50.0509 44.4425 50.7387 44.8647C51.4258 45.2832 52.165 45.7452 52.9186 46.1724C53.6746 46.5996 54.4635 46.9882 55.2817 47.2402C56.0943 47.4831 56.9609 47.5985 57.8828 47.5469C59.7253 47.4528 61.5133 46.8036 63.0625 46.056C64.6196 45.294 66.0118 44.432 67.2265 43.752C68.4394 43.0644 69.477 42.5564 70.232 42.2864C70.9882 42.0154 71.4507 41.9664 71.529 42.1164Z"
            fill="black" />
    </g>
    <path
        d="M56.8471 80.2232C57.2911 80.0669 57.8218 80.5136 57.7435 80.9777C57.6653 81.4419 57.0173 81.6898 56.6491 81.3965C56.281 81.1033 56.3777 80.4164 56.8126 80.2364"
        fill="#E8505B" />
    <path
        d="M42.3789 48.8101C42.3758 48.8129 42.3266 48.7633 42.2361 48.6661C42.1389 48.5595 42.0083 48.4165 41.8442 48.2365C41.6786 48.0459 41.4607 47.8256 41.2379 47.5441C41.0119 47.2628 40.756 46.9443 40.474 46.5934C40.2131 46.2245 39.917 45.8271 39.6194 45.3867C39.4778 45.1613 39.3316 44.9285 39.1809 44.6888C39.1067 44.5681 39.0263 44.4488 38.9546 44.3218C38.885 44.1937 38.8147 44.0638 38.7434 43.9323C38.1527 42.8924 37.6269 41.6746 37.253 40.3443C36.8788 39.0133 36.7034 37.6973 36.6875 36.4995C36.6866 36.2002 36.7029 35.9084 36.7096 35.6249C36.7163 35.4833 36.7137 35.3432 36.7279 35.2064C36.7425 35.0696 36.7569 34.9349 36.7711 34.8027C36.8013 34.5382 36.8224 34.2819 36.8579 34.0376C36.9019 33.7949 36.9441 33.5617 36.9844 33.3387C37.0531 32.8911 37.1714 32.4982 37.2561 32.1495C37.3022 31.976 37.3382 31.8128 37.384 31.6659C37.4315 31.5207 37.4752 31.3875 37.5148 31.2663C37.5923 31.0354 37.6538 30.8516 37.6996 30.7148C37.7433 30.5893 37.768 30.524 37.7721 30.5254C37.7762 30.5269 37.7594 30.5948 37.7236 30.7227C37.6833 30.8609 37.6293 31.0467 37.5614 31.2802C37.5249 31.4021 37.4851 31.5361 37.4414 31.682C37.3991 31.8293 37.3665 31.993 37.3238 32.1665C37.2458 32.5157 37.1339 32.9081 37.0713 33.3545C37.0336 33.5765 36.9943 33.8091 36.9532 34.0508C36.9206 34.2939 36.9021 34.549 36.874 34.8121C36.8611 34.9436 36.8479 35.0775 36.8344 35.2133C36.8215 35.3494 36.8251 35.4884 36.8193 35.629C36.8145 35.9105 36.7999 36.2002 36.8025 36.4973C36.8248 37.6861 37.0022 38.9897 37.3732 40.3097C37.744 41.6293 38.2624 42.8393 38.8444 43.8764C38.9145 44.0074 38.9839 44.137 39.052 44.2647C39.1226 44.3912 39.202 44.5105 39.2747 44.6312C39.4228 44.8709 39.5666 45.1037 39.7058 45.3291C39.9983 45.77 40.2892 46.1686 40.5446 46.5397C40.8203 46.8939 41.0707 47.215 41.2919 47.4989C41.5089 47.7838 41.7213 48.0085 41.8809 48.2036C42.0376 48.3898 42.1619 48.5381 42.2548 48.6483C42.3393 48.752 42.382 48.8072 42.3789 48.8101Z"
        fill="#263238" />
    <path
        d="M40.0998 84.4665C40.0978 84.4655 40.1132 84.4387 40.1446 84.3875C40.1802 84.3314 40.2274 84.2567 40.2874 84.1619C40.3525 84.0611 40.4312 83.9395 40.5234 83.7969C40.5704 83.7247 40.621 83.6469 40.6748 83.5643C40.7338 83.4851 40.803 83.4052 40.8728 83.3183C41.0147 83.145 41.1721 82.9528 41.3437 82.743C41.5285 82.5441 41.7402 82.3379 41.9622 82.1111C42.4179 81.6705 42.969 81.2001 43.6098 80.7246C44.8837 79.7591 46.5272 78.7996 48.3087 77.68C49.1929 77.111 50.1234 76.5115 51.0032 75.7816C51.8842 75.0575 52.7336 74.2226 53.4212 73.2266C54.7772 71.2106 55.328 68.8749 55.376 66.7874C55.4307 64.6838 54.9834 62.8103 54.4561 61.3168C53.9226 59.818 53.3106 58.6771 52.8663 57.9076C52.6441 57.5219 52.4615 57.2282 52.3359 57.0304C52.2764 56.9351 52.2299 56.8602 52.1946 56.8041C52.1634 56.7527 52.1482 56.7259 52.1499 56.7247C52.1516 56.7235 52.1703 56.7479 52.2051 56.7971C52.2428 56.8519 52.293 56.9243 52.3568 57.0167C52.4895 57.2104 52.6789 57.5003 52.9081 57.8831C53.3662 58.6466 53.9924 59.7849 54.5394 61.2873C55.0799 62.7842 55.5399 64.6684 55.4912 66.7902C55.4823 67.3192 55.4396 67.8609 55.3587 68.4088C55.2829 68.9575 55.167 69.5128 55.0074 70.0665C54.6987 71.1765 54.2034 72.2786 53.5246 73.2969C52.8279 74.3066 51.9687 75.149 51.0805 75.8769C50.193 76.6106 49.2579 77.2101 48.3702 77.7777C46.5819 78.8942 44.9377 79.8434 43.6623 80.7962C43.0206 81.2654 42.4683 81.7286 42.0104 82.1623C41.7874 82.3855 41.5741 82.5883 41.3879 82.7839C41.2139 82.99 41.0547 83.1789 40.911 83.3493C40.8399 83.4347 40.7696 83.513 40.7094 83.591C40.6542 83.6721 40.6023 83.7482 40.5538 83.8192C40.4581 83.9589 40.3763 84.0779 40.3088 84.1766C40.2445 84.2685 40.1939 84.341 40.1557 84.3952C40.1204 84.443 40.1014 84.4677 40.0998 84.4665Z"
        fill="#263238" />
    <path
        d="M37.8686 88.7072C37.8722 88.7096 37.854 88.7477 37.816 88.8185C37.77 88.9008 37.7136 89.0016 37.6452 89.124C37.5679 89.2546 37.4762 89.4161 37.3836 89.611C37.289 89.8047 37.1695 90.019 37.0682 90.271C37.0142 90.3958 36.9578 90.5259 36.8992 90.6612C36.8414 90.7973 36.7941 90.944 36.7377 91.0928C36.6204 91.3892 36.5294 91.7172 36.4257 92.0597C36.2409 92.7511 36.0866 93.5244 36.0067 94.3469C35.9356 95.1706 35.9467 95.9595 36.0026 96.6728C36.0424 97.0284 36.072 97.3678 36.1334 97.6805C36.1617 97.8372 36.1814 97.9901 36.2136 98.1343C36.2464 98.2781 36.2784 98.4163 36.3086 98.5488C36.3621 98.815 36.4408 99.0475 36.4984 99.2551C36.5541 99.4635 36.6148 99.6389 36.6669 99.7815C36.712 99.9142 36.749 100.023 36.7795 100.113C36.804 100.189 36.8148 100.23 36.8109 100.232C36.8068 100.234 36.7881 100.196 36.7562 100.123C36.72 100.035 36.6753 99.9281 36.6216 99.7985C36.562 99.6579 36.4944 99.4841 36.432 99.2765C36.3674 99.0696 36.2824 98.8373 36.2229 98.5707C36.1898 98.4377 36.1552 98.299 36.1192 98.155C36.0842 98.01 36.0619 97.8564 36.0312 97.699C35.9649 97.3844 35.9308 97.0426 35.8876 96.6838C35.8248 95.9643 35.8101 95.1675 35.8819 94.3359C35.9625 93.5055 36.1219 92.7247 36.3146 92.0287C36.4224 91.6839 36.5179 91.3541 36.6403 91.0568C36.6991 90.9075 36.749 90.7604 36.8097 90.6243C36.8714 90.4892 36.9304 90.3591 36.9873 90.2343C37.0944 89.983 37.2204 89.7699 37.3214 89.5784C37.4205 89.3856 37.5187 89.227 37.6029 89.0995C37.6795 88.9817 37.7428 88.8848 37.7944 88.8056C37.8396 88.7386 37.8648 88.7048 37.8686 88.7072Z"
        fill="#263238" />
    <path
        d="M67.5419 94.4749C67.5431 94.4768 67.5266 94.4886 67.4932 94.5104C67.4531 94.5354 67.4042 94.5661 67.3434 94.604C67.2016 94.6892 67.0072 94.8061 66.7612 94.9539C66.6333 95.0298 66.4924 95.1133 66.3386 95.2042C66.1814 95.2909 66.0042 95.3732 65.8173 95.4678C65.4398 95.6499 65.0207 95.8818 64.5261 96.0687C64.2815 96.169 64.0257 96.2739 63.7593 96.3834C63.4917 96.4906 63.203 96.5734 62.9097 96.675C62.3255 96.8883 61.6787 97.0402 61.0029 97.2166C59.6399 97.52 58.115 97.7422 56.5022 97.7938C54.8884 97.8265 53.3534 97.6839 51.9762 97.4523C51.292 97.3117 50.6382 97.1936 50.0435 97.011C49.7452 96.925 49.4524 96.8571 49.1798 96.764C48.9078 96.6687 48.647 96.5773 48.3974 96.4899C47.8938 96.3291 47.463 96.1196 47.0766 95.9574C46.8849 95.8726 46.7039 95.7994 46.5424 95.7212C46.3842 95.6384 46.239 95.5621 46.1073 95.4932C45.8538 95.3583 45.6537 95.252 45.5075 95.1742C45.4451 95.1397 45.3945 95.1114 45.3532 95.0886C45.3189 95.0686 45.3016 95.0576 45.3028 95.0557C45.3038 95.0538 45.323 95.0612 45.3594 95.0775C45.4022 95.0974 45.4547 95.1219 45.5195 95.1522C45.6678 95.2246 45.8714 95.324 46.1289 95.4498C46.2616 95.5155 46.408 95.5882 46.5676 95.6672C46.7301 95.7421 46.912 95.8117 47.1045 95.893C47.4923 96.0486 47.9236 96.2518 48.4271 96.4064C48.6762 96.4911 48.9371 96.5794 49.2086 96.6716C49.481 96.7618 49.773 96.8269 50.0704 96.9104C50.6634 97.088 51.3148 97.2015 51.9959 97.3386C53.367 97.563 54.8937 97.701 56.4986 97.6686C58.1025 97.6172 59.6193 97.3995 60.9767 97.1038C61.6497 96.9315 62.2943 96.7842 62.877 96.5758C63.1696 96.477 63.4581 96.3968 63.7252 96.2924C63.9916 96.1861 64.2472 96.0841 64.4918 95.9866C64.9864 95.8059 65.4066 95.5806 65.7858 95.4049C65.9738 95.3134 66.1518 95.2345 66.3102 95.1512C66.4655 95.0638 66.6078 94.9837 66.737 94.911C66.9875 94.772 67.1858 94.6621 67.33 94.5819C67.3931 94.5483 67.4445 94.5212 67.486 94.4989C67.522 94.4814 67.5407 94.473 67.5419 94.4749Z"
        fill="#263238" />
    <path
        d="M70.0445 43.6818C70.0457 43.6835 70.0284 43.6995 69.9934 43.7293C69.9526 43.7629 69.9007 43.8056 69.8359 43.8589C69.6888 43.9763 69.4838 44.1399 69.2232 44.348C68.6892 44.7702 67.9174 45.3824 66.9418 46.1118C65.9642 46.8371 64.7801 47.6819 63.372 48.4717C62.6611 48.8514 61.9042 49.2395 61.0723 49.5299C60.2434 49.8222 59.3522 50.0463 58.4186 50.12C56.5435 50.247 54.7661 49.7718 53.3198 49.0595C52.5967 48.6971 51.9444 48.291 51.3506 47.8883C50.7646 47.4747 50.2296 47.0747 49.7563 46.6911C48.8062 45.9287 48.0617 45.2833 47.5445 44.841C47.2922 44.6231 47.094 44.4515 46.9514 44.3283C46.8888 44.2727 46.8389 44.228 46.7993 44.1927C46.7654 44.1615 46.7486 44.145 46.7501 44.1433C46.7515 44.1416 46.771 44.1551 46.8074 44.1829C46.8492 44.2158 46.9018 44.2573 46.9678 44.3091C47.1137 44.4279 47.3172 44.5933 47.5759 44.8038C48.1027 45.2348 48.8558 45.8699 49.8113 46.622C50.2872 47.0005 50.8236 47.3948 51.4094 47.8028C52.0027 48.1998 52.6529 48.5999 53.3707 48.956C54.8057 49.6556 56.5615 50.12 58.4098 49.9952C59.3294 49.9225 60.21 49.7024 61.0313 49.4144C61.8554 49.1286 62.6086 48.7455 63.3168 48.3707C64.7203 47.5907 65.9069 46.7557 66.8897 46.0405C67.8706 45.3215 68.6506 44.7198 69.1937 44.3094C69.4603 44.1092 69.6701 43.9518 69.8208 43.839C69.8885 43.7898 69.943 43.7502 69.9859 43.7192C70.0234 43.6928 70.0433 43.6801 70.0445 43.6818Z"
        fill="#263238" />
    <g opacity="0.24">
        <path
            d="M48.3984 96.4905C49.5356 95.6123 51.1335 95.8255 52.5396 96.1209C53.9456 96.4163 55.362 96.8973 56.785 96.6981C57.8573 96.5481 58.8411 96.0203 59.8995 95.7911C60.9576 95.5619 62.2416 95.7314 62.8284 96.6415C58.1724 98.1551 53.0218 98.1014 48.3984 96.4905Z"
            fill="black" />
    </g>
    <path
        d="M88.0871 89.9789L82.9182 84.1915L82.8659 91.2264L84.4215 95.7386L68.9605 98.4204L68.3048 86.2212L67.1917 76.8523C67.0554 75.7044 67.7101 74.6088 68.7858 74.1852L73.0407 72.5098L79.0335 73.6092L81.4443 74.5255C82.4564 74.9102 83.3586 75.5376 84.0714 76.3529L91.3283 84.6516"
        fill="#E8505B" />
    <path
        d="M82.5566 82.8079C82.5578 82.7832 82.8967 82.8333 83.4298 82.7464C83.9573 82.6641 84.6864 82.4061 85.2912 81.8496C85.8951 81.2916 86.2114 80.5857 86.3359 80.0664C86.4655 79.5422 86.4432 79.2005 86.4677 79.2012C86.4751 79.2009 86.4874 79.2852 86.4895 79.4388C86.4922 79.5924 86.4773 79.8158 86.4221 80.0863C86.3167 80.6232 86.0033 81.3617 85.3759 81.9415C84.7476 82.5199 83.9861 82.7726 83.4425 82.8341C83.1684 82.8672 82.9445 82.864 82.7916 82.8489C82.6385 82.8343 82.5557 82.8153 82.5566 82.8079Z"
        fill="white" />
    <path
        d="M83.0084 90.9277C83.0446 90.9274 83.0538 88.4903 83.0293 85.485C83.0046 82.4787 82.9554 80.0425 82.9194 80.043C82.8831 80.0432 82.874 82.4799 82.8985 85.4862C82.923 88.4915 82.9722 90.9279 83.0084 90.9277Z"
        fill="#263238" />
    <path
        d="M82.4419 92.7157L73.0997 88.9549C72.3463 88.6515 71.8301 87.9469 71.7684 87.1371L71.0846 78.1804C71.0846 78.1804 71.1655 74.3711 68.7862 74.1855L67.4326 74.7186C65.6832 75.6476 65.2498 78.1948 65.4878 80.1613C65.8262 82.9556 65.9671 86.9099 66.3458 89.3351C66.6557 91.3189 67.7918 93.0639 69.7334 93.5749L81.24 96.0659L82.4419 92.7157Z"
        fill="#E8505B" />
    <path
        d="M71.2192 79.5469C71.2235 79.5466 71.2336 79.6172 71.2488 79.7521C71.2636 79.898 71.2836 80.0948 71.3088 80.3422C71.3565 80.8671 71.4237 81.6063 71.5063 82.5145C71.5855 83.4356 71.6791 84.5266 71.7832 85.7372C71.8087 86.0406 71.8348 86.3514 71.8615 86.6689C71.8893 86.9864 71.9085 87.3116 71.9807 87.6272C72.0491 87.944 72.2013 88.2406 72.4451 88.4665C72.6875 88.6933 72.9907 88.8591 73.3072 89.0029C75.8834 90.1177 78.2575 91.0378 79.9809 91.6834C80.8365 91.9986 81.5325 92.2551 82.0269 92.4373C82.2602 92.5232 82.4457 92.5916 82.5832 92.6425C82.7099 92.6905 82.7759 92.7176 82.7745 92.7219C82.7731 92.726 82.7044 92.7068 82.5751 92.6665C82.4356 92.6211 82.2475 92.5602 82.0108 92.4834C81.522 92.3214 80.8171 92.0785 79.9504 91.7667C78.2169 91.1415 75.839 90.235 73.2554 89.1169C72.9343 88.9707 72.6187 88.7996 72.3597 88.5572C72.0986 88.3162 71.9311 87.986 71.8617 87.6553C71.7871 87.3238 71.7695 86.9962 71.7427 86.6797C71.7175 86.3622 71.6927 86.0511 71.6685 85.7475C71.5744 84.536 71.4897 83.444 71.4182 82.5219C71.3522 81.6123 71.2984 80.8722 71.2603 80.3463C71.2449 80.0982 71.2327 79.9009 71.2235 79.7545C71.2163 79.6184 71.2149 79.5471 71.2192 79.5469Z"
        fill="#263238" />
    <path
        d="M65.8657 84.416C65.87 84.4158 65.876 84.4573 65.8842 84.5363C65.8926 84.6296 65.9026 84.7439 65.9151 84.8821C65.943 85.2013 65.9804 85.6309 66.026 86.1531C66.0771 86.6891 66.1422 87.3272 66.2353 88.0323C66.3313 88.7363 66.4448 89.5129 66.6572 90.3013C66.7577 90.6995 66.8991 91.0671 67.1132 91.383C67.3273 91.7015 67.5651 91.9873 67.8111 92.2405C68.305 92.7457 68.8323 93.116 69.3061 93.362C70.262 93.8588 70.9568 93.866 70.947 93.8991C70.9467 93.9035 70.905 93.9023 70.8255 93.8963C70.7461 93.8907 70.6285 93.8816 70.4799 93.8516C70.1821 93.7991 69.7537 93.6822 69.2662 93.4405C68.7795 93.2005 68.2371 92.8311 67.7293 92.3211C67.4766 92.0655 67.2322 91.7756 67.0119 91.4514C66.7885 91.1262 66.6368 90.7328 66.537 90.3344C66.3214 89.534 66.2117 88.7547 66.1213 88.047C66.0341 87.3385 65.978 86.6984 65.9381 86.1603C65.8988 85.6223 65.8779 85.1862 65.8669 84.8847C65.864 84.7458 65.8614 84.6313 65.8594 84.5375C65.859 84.458 65.8614 84.416 65.8657 84.416Z"
        fill="#263238" />
    <path
        d="M69.8616 90.6822C69.8489 90.6786 69.8885 90.4789 70.0318 90.1845C70.1731 89.8907 70.435 89.5108 70.8161 89.1839C71.1986 88.8585 71.6148 88.6595 71.9273 88.5657C72.2405 88.4704 72.444 88.4625 72.4457 88.4757C72.4495 88.4965 72.2534 88.5354 71.9563 88.6492C71.6594 88.7617 71.2661 88.9655 70.8975 89.2789C70.5303 89.5941 70.2674 89.9507 70.1098 90.2262C69.9509 90.5015 69.8818 90.6892 69.8616 90.6822Z"
        fill="#263238" />
    <path
        d="M71.6992 83.8718C71.7004 83.8699 71.7203 83.879 71.7585 83.898C71.8027 83.921 71.8576 83.9498 71.9258 83.9856C72.0758 84.0561 72.2944 84.167 72.5923 84.2683C73.1795 84.4723 74.0999 84.6797 75.2107 84.492C76.3072 84.3127 77.5823 83.6664 78.4655 82.4697C78.9026 81.8789 79.241 81.1509 79.3178 80.3532C79.3564 79.9569 79.324 79.5441 79.1932 79.1556C79.0651 78.768 78.8303 78.4082 78.5195 78.1265C78.2104 77.844 77.8264 77.645 77.423 77.5937C77.0255 77.5308 76.5995 77.6359 76.3238 77.9023C76.1906 78.0362 76.1075 78.2153 76.1095 78.3996C76.109 78.5837 76.1798 78.7654 76.2899 78.913C76.5112 79.2151 76.8839 79.356 77.2403 79.4086C77.9683 79.5086 78.6835 79.3769 79.2823 79.1165C79.8839 78.8541 80.3755 78.4644 80.7295 78.0343C81.0842 77.6023 81.3028 77.1353 81.4334 76.7117C81.5647 76.2864 81.6047 75.9007 81.6112 75.5877C81.616 75.2738 81.5831 75.031 81.5587 74.867C81.5447 74.7914 81.5335 74.7305 81.5246 74.6815C81.5171 74.6395 81.5145 74.6177 81.5167 74.6172C81.5167 74.6172 81.6489 74.9501 81.6599 75.5877C81.6611 75.9045 81.6278 76.2969 81.5006 76.7316C81.3741 77.1645 81.1571 77.6441 80.7983 78.0902C80.44 78.5345 79.9396 78.9384 79.3243 79.2115C78.7108 79.4827 77.9788 79.6231 77.2235 79.5228C76.8525 79.4693 76.4455 79.3231 76.1944 78.9845C76.0713 78.8203 75.989 78.6158 75.9887 78.3996C75.9859 78.1826 76.0847 77.969 76.2374 77.8161C76.5503 77.513 77.0133 77.4053 77.44 77.4705C77.872 77.5255 78.2788 77.7372 78.604 78.0341C78.9309 78.3307 79.1767 78.7075 79.3115 79.1162C79.4483 79.5242 79.481 79.9541 79.4402 80.3647C79.3586 81.1905 79.0079 81.9355 78.5587 82.5381C77.6503 83.7581 76.3442 84.4075 75.2258 84.5791C74.0937 84.7584 73.1639 84.5338 72.5764 84.3139C71.9817 84.0874 71.6992 83.8718 71.6992 83.8718Z"
        fill="white" />
    <path
        d="M65.5786 81.4826C65.5728 81.4773 65.6251 81.4075 65.7319 81.2913C65.8397 81.1761 66.0065 81.018 66.2366 80.8524C66.69 80.5113 67.441 80.2012 68.3033 80.1199C68.7343 80.074 69.1526 80.0947 69.5213 80.171C69.8904 80.2475 70.2079 80.3719 70.4599 80.5007C70.7124 80.6289 70.9034 80.7554 71.0306 80.8483C71.1574 80.9419 71.2226 80.9997 71.2181 81.0062C71.2051 81.0259 70.9258 80.8147 70.4218 80.5807C69.9233 80.3421 69.1603 80.1431 68.3165 80.2444C67.4714 80.3248 66.743 80.6109 66.2868 80.9253C65.8246 81.233 65.5958 81.5001 65.5786 81.4826Z"
        fill="white" />
    <path
        d="M67.0726 75.0768C67.0918 75.0557 67.3126 75.3615 67.8289 75.6264C68.084 75.7589 68.4138 75.8698 68.7913 75.9087C69.1674 75.9485 69.5924 75.9056 69.9963 75.7424C70.3976 75.5724 70.7288 75.3024 70.9669 75.0082C71.2066 74.714 71.3614 74.4024 71.4486 74.1284C71.6264 73.5761 71.5666 73.2039 71.5952 73.2051C71.6017 73.2044 71.6204 73.2941 71.6264 73.4597C71.6331 73.6251 71.6134 73.8672 71.5333 74.1543C71.4541 74.4411 71.3022 74.7694 71.0569 75.0804C70.8135 75.3912 70.4684 75.6785 70.0443 75.8578C69.6178 76.0304 69.1705 76.0709 68.7788 76.0232C68.3857 75.9761 68.0461 75.8513 67.7874 75.7044C67.5279 75.558 67.3426 75.4004 67.2306 75.2789C67.1178 75.1577 67.0674 75.0809 67.0726 75.0768Z"
        fill="white" />
    <path
        d="M75.2142 89.806C75.2098 89.8056 75.2166 89.7448 75.2336 89.6292C75.26 89.5161 75.297 89.3448 75.3992 89.1458C75.5876 88.7433 76.057 88.2393 76.7977 87.9319C77.528 87.6038 78.5322 87.5404 79.5445 87.8335C80.0382 87.9806 80.605 88.1618 80.9758 88.6442C81.157 88.8813 81.2192 89.2346 81.081 89.5226C80.9487 89.8123 80.6886 90.0115 80.4152 90.1509C80.1366 90.287 79.8342 90.364 79.5308 90.37C79.2301 90.3758 78.9164 90.3012 78.6817 90.1068C78.4448 89.9152 78.32 89.6193 78.3015 89.3371C78.2797 89.0524 78.3375 88.7774 78.4287 88.5278C78.8269 87.5284 79.6321 86.8932 80.3542 86.5788C81.0884 86.2574 81.7532 86.2238 82.1919 86.2632C82.6345 86.3088 82.8634 86.4045 82.8634 86.4045C82.8596 86.4208 82.6256 86.3416 82.1883 86.3116C81.7546 86.2876 81.104 86.3349 80.3907 86.6594C80.0367 86.8212 79.6714 87.0532 79.3424 87.371C79.0148 87.6871 78.7203 88.0922 78.5372 88.5674C78.4513 88.806 78.3992 89.0668 78.4208 89.3277C78.4398 89.5869 78.5514 89.8447 78.7597 90.0127C78.9656 90.1828 79.2483 90.2522 79.5291 90.2464C79.8116 90.2409 80.0986 90.1677 80.36 90.04C80.6173 89.9097 80.8551 89.7223 80.9682 89.4724C81.086 89.2243 81.0366 88.9298 80.877 88.7164C80.7188 88.4985 80.4877 88.3413 80.252 88.2204C80.0146 88.1004 79.7602 88.019 79.5138 87.9453C78.5226 87.6528 77.5491 87.7053 76.8322 88.0147C76.1048 88.3051 75.6406 88.7834 75.4431 89.1693C75.2379 89.5557 75.2319 89.8111 75.2142 89.806Z"
        fill="white" />
    <path
        d="M68.9942 93.1784C68.9903 93.1549 69.3503 93.1244 69.8901 92.9322C70.4265 92.7443 71.1415 92.3591 71.7266 91.712C72.3117 91.0645 72.623 90.3143 72.7559 89.7618C72.893 89.2055 72.887 88.8445 72.911 88.8457C72.9184 88.8457 72.9271 88.9352 72.9242 89.0977C72.9218 89.2602 72.9009 89.4956 72.8421 89.7815C72.7288 90.3498 72.4223 91.1286 71.8192 91.7958C71.2161 92.4628 70.4723 92.8458 69.9182 93.0157C69.6398 93.1028 69.4074 93.1472 69.2462 93.1662C69.0849 93.1856 68.9949 93.1861 68.9942 93.1784Z"
        fill="white" />
    <path
        d="M65.9668 86.2162C65.9656 86.2121 66.0043 86.1965 66.0796 86.1711C66.155 86.1464 66.2668 86.1118 66.4132 86.0748C66.7048 86.0043 67.1397 85.9076 67.6857 85.9455C67.9574 85.9668 68.255 86.0288 68.5509 86.1593C68.8451 86.2896 69.1396 86.4946 69.358 86.7927C69.5721 87.0905 69.7036 87.4776 69.6717 87.8818C69.6568 88.0832 69.5951 88.2855 69.4864 88.4662C69.377 88.644 69.2128 88.8056 68.9968 88.8756C68.7839 88.9426 68.5339 88.9085 68.3656 88.7508C68.1995 88.59 68.158 88.3644 68.1479 88.1686C68.1328 87.7702 68.219 87.3884 68.368 87.0572C68.6651 86.3873 69.2181 85.9474 69.7305 85.7643C70.2467 85.5732 70.7047 85.5874 71.0011 85.6385C71.1508 85.6644 71.2639 85.6978 71.339 85.7242C71.4136 85.7523 71.4518 85.7688 71.4503 85.7729C71.4465 85.7852 71.29 85.7232 70.9941 85.6865C70.7013 85.651 70.2563 85.6517 69.7624 85.8466C69.2721 86.034 68.7523 86.4608 68.4731 87.104C68.3335 87.4212 68.2545 87.7865 68.2701 88.1624C68.2795 88.346 68.3224 88.5387 68.4511 88.6604C68.5775 88.7804 68.7835 88.812 68.9589 88.7564C69.1365 88.6992 69.2819 88.5605 69.3803 88.4009C69.478 88.2389 69.5351 88.056 69.5495 87.8715C69.5807 87.5014 69.4612 87.1383 69.2642 86.8596C69.0635 86.5805 68.7875 86.382 68.5079 86.2534C68.2267 86.1243 67.9406 86.0595 67.6778 86.0331C67.1483 85.9848 66.7161 86.066 66.4238 86.1216C66.1303 86.1824 65.9695 86.2258 65.9668 86.2162Z"
        fill="white" />
    <g opacity="0.3">
        <path
            d="M79.7576 91.6475C78.7587 91.0832 77.7812 90.6495 76.7367 90.1751C75.6922 89.7003 74.6691 89.091 73.9856 88.1696C72.6963 86.4318 72.8432 83.9238 71.5234 82.209C71.6096 83.3622 71.6958 84.5151 71.7819 85.6683C71.8609 86.7251 71.6989 87.7703 72.3798 88.4883C72.9531 89.0934 74.0713 89.5573 74.863 89.8184C76.4538 90.3433 78.1666 91.1228 79.7576 91.6475Z"
            fill="black" />
    </g>
    <path
        d="M95.9904 104.812C95.9904 104.812 103.807 106.976 104.121 107.086C104.592 107.252 104.513 108.977 103.78 108.95C103.433 108.938 97.7755 109.161 97.0608 109.116C96.3459 109.072 94.1895 108.222 94.1895 108.222L95.9904 104.812Z"
        fill="#E8505B" />
    <path
        d="M99.2461 107.794C99.2854 107.799 99.3382 107.386 99.5905 106.955C99.8367 106.52 100.168 106.266 100.143 106.235C100.13 106.205 99.7412 106.425 99.4772 106.889C99.2087 107.351 99.2132 107.797 99.2461 107.794Z"
        fill="#263238" />
    <path
        d="M98.4324 107.425C98.4708 107.432 98.5497 107.063 98.758 106.654C98.9623 106.244 99.2119 105.96 99.1838 105.933C99.1622 105.908 98.8569 106.163 98.6412 106.596C98.4223 107.026 98.3988 107.423 98.4324 107.425Z"
        fill="#263238" />
    <path
        d="M97.6669 107.219C97.7062 107.217 97.6762 106.827 97.8498 106.394C98.0158 105.958 98.3029 105.691 98.2755 105.663C98.2599 105.633 97.9093 105.875 97.7281 106.346C97.5416 106.815 97.6352 107.231 97.6669 107.219Z"
        fill="#263238" />
    <path
        d="M97.8058 106.211C97.8197 106.214 97.889 105.996 97.8895 105.629C97.889 105.447 97.8679 105.228 97.8103 104.992C97.7818 104.874 97.7431 104.752 97.6939 104.629C97.6687 104.567 97.6397 104.495 97.5686 104.437C97.4957 104.372 97.363 104.386 97.3003 104.451C97.2286 104.513 97.206 104.601 97.1962 104.672C97.1882 104.743 97.1844 104.81 97.1858 104.878C97.1878 105.013 97.205 105.142 97.2341 105.261C97.2919 105.499 97.385 105.7 97.4746 105.858C97.6567 106.175 97.8146 106.337 97.8257 106.329C97.8434 106.316 97.7126 106.134 97.5566 105.815C97.4798 105.656 97.3997 105.46 97.3517 105.234C97.3277 105.122 97.314 105.001 97.314 104.877C97.3176 104.757 97.3157 104.607 97.386 104.549C97.4232 104.518 97.4568 104.516 97.4894 104.541C97.524 104.567 97.5528 104.621 97.5751 104.677C97.6236 104.794 97.663 104.91 97.6934 105.022C97.7549 105.247 97.7846 105.456 97.7969 105.632C97.8202 105.986 97.7846 106.208 97.8058 106.211Z"
        fill="#263238" />
    <path
        d="M97.7966 106.132C97.8002 106.118 97.6116 106.053 97.2924 106.051C97.1335 106.051 96.9429 106.067 96.7377 106.119C96.6364 106.146 96.5277 106.172 96.4183 106.236C96.3112 106.291 96.1992 106.439 96.2416 106.593C96.2752 106.739 96.3996 106.841 96.5232 106.873C96.6477 106.907 96.7682 106.895 96.8738 106.872C97.0884 106.822 97.2552 106.717 97.3816 106.622C97.6322 106.425 97.7544 106.275 97.745 106.264C97.7313 106.248 97.5832 106.376 97.3286 106.546C97.2004 106.628 97.0401 106.717 96.8491 106.754C96.754 106.772 96.6516 106.778 96.5592 106.75C96.4672 106.724 96.3907 106.654 96.3688 106.564C96.3465 106.477 96.3993 106.397 96.485 106.346C96.5688 106.294 96.6724 106.264 96.7687 106.235C96.9621 106.18 97.1428 106.154 97.2955 106.143C97.6015 106.122 97.7932 106.153 97.7966 106.132Z"
        fill="#263238" />
    <path
        d="M100.447 107.879C100.486 107.875 100.448 107.541 100.601 107.174C100.748 106.805 101.009 106.592 100.984 106.562C100.971 106.53 100.644 106.715 100.481 107.125C100.312 107.532 100.416 107.893 100.447 107.879Z"
        fill="#263238" />
    <path
        d="M94.9942 108.238C94.9909 108.247 95.0981 108.297 95.2966 108.381C95.4975 108.457 95.7913 108.563 96.1664 108.65C96.914 108.839 97.9798 108.945 99.1508 108.933C100.322 108.92 101.378 108.867 102.143 108.836C102.506 108.817 102.809 108.801 103.049 108.788C103.263 108.774 103.381 108.762 103.381 108.752C103.381 108.743 103.262 108.738 103.048 108.737C102.808 108.739 102.504 108.741 102.141 108.744C101.349 108.759 100.305 108.78 99.1503 108.802C97.9846 108.814 96.9317 108.723 96.187 108.56C95.4397 108.406 95.0033 108.214 94.9942 108.238Z"
        fill="#263238" />
    <path
        d="M94.7619 108.417C94.7725 108.435 94.9864 108.31 95.3476 108.151C95.7044 107.998 96.2394 107.815 96.8267 107.905C97.4156 107.996 97.8332 108.391 98.1051 108.666C98.3792 108.95 98.5398 109.139 98.5556 109.126C98.5674 109.116 98.4339 108.909 98.1731 108.603C98.0411 108.452 97.8738 108.277 97.6547 108.118C97.4382 107.959 97.1593 107.824 96.8471 107.776C96.2171 107.68 95.6617 107.89 95.3084 108.067C94.9499 108.251 94.754 108.404 94.7619 108.417Z"
        fill="#263238" />
    <path
        d="M87.6931 102.654C87.6931 102.654 80.2963 107.497 80.0311 107.698C79.6327 107.999 80.0896 109.432 80.7796 109.184C81.106 109.066 87.3129 107.34 87.9803 107.08C88.6478 106.82 90.4444 105.356 90.4444 105.356L87.6931 102.654Z"
        fill="#E8505B" />
    <path
        d="M85.4965 106.485C85.5289 106.478 85.3976 106.051 85.0016 105.693C84.609 105.331 84.1722 105.239 84.1683 105.272C84.1546 105.309 84.5468 105.45 84.9135 105.79C85.2848 106.124 85.4607 106.502 85.4965 106.485Z"
        fill="#263238" />
    <path
        d="M86.16 105.885C86.1912 105.873 86.0482 105.501 85.7091 105.158C85.3724 104.811 85.0037 104.66 84.991 104.691C84.9723 104.726 85.2963 104.92 85.6155 105.249C85.938 105.575 86.1257 105.903 86.16 105.885Z"
        fill="#263238" />
    <path
        d="M86.8267 105.458C86.8603 105.459 86.8233 105.035 86.5034 104.644C86.1873 104.25 85.78 104.126 85.774 104.159C85.7568 104.195 86.111 104.362 86.4016 104.727C86.6985 105.086 86.7885 105.467 86.8267 105.458Z"
        fill="#263238" />
    <path
        d="M86.3888 104.539C86.4082 104.529 86.3069 104.329 86.2212 103.985C86.1792 103.813 86.144 103.605 86.1344 103.372C86.1293 103.255 86.1317 103.133 86.1425 103.007C86.1466 102.947 86.1579 102.887 86.1826 102.851C86.2064 102.818 86.2388 102.81 86.2839 102.828C86.3684 102.862 86.4123 103.005 86.4521 103.119C86.4898 103.237 86.5133 103.356 86.5246 103.47C86.5474 103.7 86.5306 103.911 86.5059 104.086C86.454 104.437 86.3847 104.651 86.4053 104.657C86.4185 104.662 86.5196 104.46 86.5971 104.102C86.6343 103.924 86.6624 103.705 86.6448 103.46C86.6362 103.337 86.6136 103.209 86.5745 103.08C86.5556 103.015 86.5316 102.953 86.502 102.887C86.4713 102.822 86.4231 102.745 86.3357 102.708C86.256 102.665 86.1255 102.692 86.076 102.776C86.0261 102.854 86.0201 102.93 86.0148 102.997C86.0055 103.129 86.0057 103.257 86.0141 103.378C86.0309 103.621 86.0772 103.835 86.1322 104.01C86.2443 104.359 86.3765 104.546 86.3888 104.539Z"
        fill="#263238" />
    <path
        d="M86.3733 104.46C86.3829 104.479 86.5562 104.391 86.854 104.318C87.0028 104.283 87.1828 104.252 87.384 104.246C87.4843 104.244 87.5923 104.241 87.6878 104.265C87.7847 104.288 87.8596 104.348 87.8647 104.438C87.8711 104.531 87.8195 104.621 87.7396 104.673C87.6599 104.727 87.5608 104.753 87.4646 104.765C87.2714 104.787 87.0916 104.752 86.9448 104.712C86.6505 104.628 86.4705 104.55 86.4624 104.57C86.4568 104.584 86.6188 104.69 86.9174 104.801C87.0667 104.853 87.2577 104.903 87.4771 104.885C87.5848 104.875 87.7034 104.85 87.8114 104.779C87.9194 104.711 88.0072 104.576 87.995 104.428C87.9887 104.268 87.8368 104.16 87.7183 104.141C87.5944 104.113 87.4831 104.121 87.3782 104.126C87.167 104.139 86.9803 104.181 86.8291 104.23C86.5255 104.328 86.3656 104.448 86.3733 104.46Z"
        fill="#263238" />
    <path
        d="M81.7228 108.913C81.7312 108.925 81.8471 108.838 81.9038 108.627C81.9657 108.42 81.9268 108.102 81.7653 107.824C81.688 107.684 81.5994 107.562 81.5174 107.455C81.4365 107.347 81.3527 107.25 81.2663 107.185C81.1809 107.118 81.0914 107.088 81.0299 107.086C80.968 107.084 80.9366 107.099 80.9375 107.106C80.9378 107.127 81.0698 107.117 81.2066 107.256C81.2759 107.322 81.345 107.415 81.4199 107.526C81.4958 107.636 81.5783 107.755 81.6506 107.887C81.8003 108.148 81.845 108.418 81.8133 108.608C81.7864 108.8 81.7055 108.901 81.7228 108.913Z"
        fill="#263238" />
    <path
        d="M84.3766 106.929C84.4109 106.933 84.4003 106.557 84.1162 106.22C83.8356 105.88 83.4679 105.803 83.4653 105.837C83.4511 105.874 83.7641 105.997 84.0159 106.304C84.2736 106.607 84.3384 106.937 84.3766 106.929Z"
        fill="#263238" />
    <path
        d="M89.6848 105.618C89.6783 105.61 89.565 105.693 89.3596 105.841C89.1515 105.985 88.846 106.186 88.4476 106.4C88.0497 106.613 87.5586 106.835 86.999 107.044C86.4388 107.253 85.8107 107.45 85.1464 107.643C83.8156 108.026 82.611 108.376 81.7418 108.638C81.3249 108.766 80.979 108.872 80.7138 108.953C80.4719 109.03 80.3394 109.077 80.3418 109.086C80.3442 109.095 80.4817 109.065 80.7277 109.002C80.9958 108.931 81.3455 108.838 81.767 108.727C82.643 108.488 83.8506 108.152 85.1829 107.768C85.8484 107.575 86.4794 107.374 87.0417 107.157C87.6035 106.94 88.096 106.707 88.4922 106.48C88.889 106.255 89.1899 106.039 89.3898 105.881C89.5876 105.72 89.6898 105.624 89.6848 105.618Z"
        fill="#263238" />
    <path
        d="M89.9579 105.716C89.9618 105.702 89.7285 105.615 89.331 105.549C88.9406 105.488 88.3475 105.456 87.7766 105.739C87.4936 105.88 87.269 106.093 87.111 106.311C86.9505 106.528 86.8442 106.746 86.7642 106.93C86.6082 107.3 86.5444 107.539 86.5586 107.544C86.5778 107.552 86.6733 107.324 86.848 106.969C87.0237 106.625 87.3014 106.121 87.8351 105.856C88.3672 105.591 88.9326 105.604 89.319 105.641C89.7114 105.682 89.9534 105.737 89.9579 105.716Z"
        fill="#263238" />
    <path
        d="M103.065 90.842C103.065 90.842 105.284 91.6343 105.293 94.1226C105.311 98.8885 95.663 104.142 95.663 104.142L82.8243 95.6353L82.0195 95.3096C82.0195 95.3096 99.3509 88.7994 103.065 90.842Z"
        fill="#263238" />
    <path
        d="M89.3283 99.9329C89.3338 99.9401 89.4526 99.859 89.6626 99.7061C89.8731 99.5537 90.1734 99.3271 90.5408 99.043C91.2759 98.4749 92.276 97.6694 93.3519 96.7462C94.4278 95.8219 95.3751 94.955 96.0478 94.3142C96.3843 93.9941 96.6534 93.7315 96.836 93.5465C97.0189 93.3619 97.117 93.2568 97.1108 93.2503C97.1046 93.2438 96.9946 93.3365 96.801 93.5095C96.5912 93.6989 96.3164 93.947 95.985 94.2463C95.2966 94.8691 94.341 95.7238 93.2667 96.6468C92.1922 97.5689 91.203 98.3844 90.4832 98.9705C90.1371 99.253 89.8503 99.487 89.6314 99.6658C89.431 99.8311 89.3228 99.9257 89.3283 99.9329Z"
        fill="#455A64" />
    <path
        d="M99.4414 92.6241C99.4462 92.5922 98.8735 92.536 98.2042 92.7364C97.5331 92.9318 97.0827 93.2896 97.1043 93.3139C97.1256 93.3479 97.5936 93.0496 98.2414 92.8619C98.8867 92.668 99.4419 92.6642 99.4414 92.6241Z"
        fill="#455A64" />
    <path
        d="M98.3347 91.8725C98.3232 91.8416 97.9116 92.0225 97.5736 92.4449C97.2316 92.8644 97.1414 93.3048 97.1743 93.3096C97.2117 93.3226 97.3521 92.9228 97.6756 92.5272C97.9936 92.1279 98.3551 91.9064 98.3347 91.8725Z"
        fill="#455A64" />
    <path
        d="M103.77 106.963C103.777 106.948 103.617 106.917 103.439 107.063C103.264 107.203 103.116 107.482 103.068 107.808C103.02 108.136 103.093 108.438 103.185 108.63C103.276 108.825 103.376 108.916 103.387 108.907C103.405 108.895 103.335 108.787 103.271 108.596C103.206 108.406 103.154 108.128 103.198 107.827C103.242 107.527 103.364 107.268 103.501 107.132C103.637 106.989 103.773 106.983 103.77 106.963Z"
        fill="#263238" />
    <path
        d="M100.112 83.0566L95.54 94.6479L75.8509 94.9688L75.4863 93.9037L82.3866 93.6534L85.7029 83.3708L100.112 83.0566Z"
        fill="#455A64" />
    <path
        d="M90.9175 88.0755C91.1702 87.9044 91.637 87.9731 91.8643 88.1766C92.0916 88.3803 92.1653 88.7329 92.0496 89.0154C91.9342 89.2979 91.643 89.4959 91.3382 89.5122C91.0145 89.5295 90.6768 89.3269 90.5863 89.0156C90.4961 88.7043 90.5966 88.2397 90.9175 88.0755Z"
        fill="#EBEBEB" />
    <path
        d="M96.8779 104.722C96.8779 104.722 78.7383 92.824 77.9955 92.5763C77.2527 92.3286 75.4577 91.1526 73.6627 91.6477C71.8678 92.1429 70.2583 93.7523 69.4536 96.1043C68.994 97.4481 68.7766 99.7408 68.6748 101.46C68.5531 103.516 69.1896 105.566 70.5343 107.126C71.1461 107.835 71.9009 108.453 72.7961 108.731C72.985 108.79 73.1811 108.841 73.3824 108.885C76.812 109.628 80.3367 108.088 82.2636 105.156L82.6867 104.512C82.6867 104.512 94.5531 108.871 94.7388 108.809L96.8779 104.722Z"
        fill="#263238" />
    <path
        d="M74.4355 101.446C74.4355 101.446 74.4684 101.463 74.5351 101.49C74.6069 101.519 74.7053 101.558 74.832 101.608C75.0996 101.711 75.4858 101.86 75.9821 102.051C76.9911 102.431 78.4464 102.979 80.2558 103.661C82.0714 104.338 84.2458 105.143 86.6856 106.031C89.1257 106.918 91.8298 107.892 94.7175 108.869L94.77 108.887L94.7957 108.838C95.2491 107.972 95.7274 107.059 96.2129 106.132C96.4604 105.659 96.7059 105.19 96.9353 104.751L96.9632 104.698L96.913 104.666C91.4659 101.208 86.593 98.1148 83.076 95.8824C81.32 94.7748 79.903 93.881 78.9197 93.2606C78.4328 92.9568 78.0536 92.7201 77.791 92.5562C77.665 92.4792 77.5671 92.4194 77.4963 92.376C77.4296 92.3359 77.3938 92.3184 77.3938 92.3184C77.3938 92.3184 77.425 92.3433 77.4895 92.387C77.5589 92.4328 77.6544 92.4962 77.7776 92.5778C78.0372 92.7463 78.4124 92.9899 78.8938 93.3024C79.8718 93.9307 81.2815 94.8362 83.0283 95.9582C86.5392 98.1993 91.4043 101.305 96.8422 104.776L96.8199 104.691C96.5904 105.129 96.3449 105.598 96.0972 106.071C95.6122 106.998 95.1341 107.912 94.681 108.778L94.759 108.746C91.8727 107.771 89.1675 106.802 86.7252 105.923C84.2868 105.035 82.1086 104.242 80.2863 103.579C78.4712 102.913 77.011 102.378 75.9989 102.006C75.4992 101.825 75.1104 101.683 74.8409 101.585C74.7125 101.54 74.6124 101.504 74.5397 101.479C74.4713 101.455 74.4355 101.446 74.4355 101.446Z"
        fill="#455A64" />
    <path
        d="M76.3197 59.1933C76.6288 58.3571 77.3125 57.994 78.1789 57.7843C79.0453 57.5745 80.0094 57.8229 80.6668 58.4251C81.1065 58.8278 81.4288 59.3843 81.9717 59.6306C82.8659 60.0359 84.0117 59.4436 84.8591 59.939C85.3607 60.2323 85.6072 60.8997 85.4161 61.4486C85.2251 61.9975 84.6179 62.368 84.0424 62.2864C84.6251 62.5617 84.7338 63.4387 84.3325 63.9429C83.9313 64.4471 83.1897 64.5837 82.5695 64.4083C81.9496 64.2328 81.4345 63.8001 80.9965 63.3275C80.5585 62.855 80.175 62.3306 79.701 61.8943C79.2268 61.4579 78.6352 61.1066 77.9913 61.0826C77.1196 61.0502 76.3153 61.636 75.8577 62.3786C75.4 63.1211 75.2293 64.0017 75.1019 64.8645C74.9745 65.7275 74.8782 66.6079 74.5453 67.4143C74.5062 67.5088 74.4503 67.6139 74.3502 67.6348C74.2055 67.6651 74.0994 67.5047 74.0413 67.3687C73.3857 65.8322 73.036 64.1659 73.0182 62.4955C73.0079 61.5254 73.1166 60.6172 73.719 59.8567C74.3214 59.0961 75.711 58.6228 76.3197 59.1933Z"
        fill="#263238" />
    <path
        d="M74.2731 63.0653L72.9397 72.7558C72.7129 74.4036 73.9114 75.906 75.5684 76.0512C77.1147 76.1866 78.4954 75.0828 78.7054 73.5446C78.805 72.815 78.8898 72.2069 78.9049 72.1325C78.9049 72.1325 81.4038 72.24 81.9178 69.8227C82.1662 68.6546 82.4821 66.2071 82.7422 63.9895C83.0216 61.608 81.422 59.412 79.0707 58.9421L78.837 58.8953C76.2862 58.5391 74.5587 60.5059 74.2731 63.0653Z"
        fill="#FFBE9D" />
    <path
        d="M78.9151 72.0994C78.9151 72.0994 77.359 71.9179 75.9355 70.5703C75.9355 70.5703 76.3337 72.4634 78.7954 72.7282L78.9151 72.0994Z"
        fill="#EB996E" />
    <path
        d="M81.7118 65.4713C81.6818 65.6554 81.501 65.7817 81.3083 65.7538C81.1158 65.726 80.9838 65.5546 81.0141 65.3705C81.0441 65.1865 81.2248 65.06 81.4173 65.0878C81.6098 65.1157 81.7418 65.2873 81.7118 65.4713Z"
        fill="#263238" />
    <path
        d="M81.9834 65.0745C81.9315 65.111 81.7081 64.8648 81.3354 64.7913C80.9643 64.7126 80.6528 64.8496 80.6216 64.7959C80.6058 64.7716 80.6658 64.6989 80.8021 64.6361C80.9365 64.5732 81.153 64.5292 81.3848 64.5765C81.6164 64.624 81.7945 64.7484 81.8893 64.8583C81.9863 64.9692 82.0086 65.0585 81.9834 65.0745Z"
        fill="#263238" />
    <path
        d="M78.0342 64.8678C78.0042 65.0519 77.8235 65.1781 77.6308 65.1503C77.4383 65.1225 77.3063 64.9511 77.3363 64.767C77.3663 64.583 77.547 64.4565 77.7395 64.4843C77.9322 64.5119 78.0642 64.6837 78.0342 64.8678Z"
        fill="#263238" />
    <path
        d="M78.3098 64.4122C78.2577 64.4487 78.034 64.2024 77.6618 64.129C77.2908 64.0503 76.9792 64.1873 76.9478 64.1335C76.932 64.1093 76.9915 64.0366 77.1283 63.9739C77.2627 63.9111 77.4792 63.8671 77.7108 63.9144C77.9424 63.9622 78.1204 64.0865 78.2152 64.1962C78.3122 64.3068 78.3348 64.3963 78.3098 64.4122Z"
        fill="#263238" />
    <path
        d="M79.1094 67.4432C79.1118 67.4216 79.3513 67.4279 79.736 67.455C79.833 67.4641 79.9268 67.4632 79.9559 67.4015C79.9919 67.3372 79.9727 67.2268 79.9487 67.107C79.9052 66.8591 79.8599 66.5992 79.8121 66.3268C79.6276 65.218 79.5143 64.3139 79.5589 64.3067C79.6036 64.2997 79.7896 65.1928 79.9741 66.3016C80.0173 66.5744 80.0588 66.8348 80.098 67.0837C80.1124 67.1989 80.1498 67.3338 80.0728 67.4668C80.0329 67.5328 79.9528 67.5704 79.8887 67.5745C79.8239 67.581 79.7704 67.5712 79.7226 67.5647C79.3412 67.5097 79.1068 67.4646 79.1094 67.4432Z"
        fill="#263238" />
    <path
        d="M77.9622 67.4829C78.0234 67.4915 77.9435 67.8957 78.2322 68.2518C78.52 68.6087 78.9599 68.6493 78.952 68.7064C78.9525 68.7328 78.8404 68.7657 78.6575 68.7342C78.478 68.7047 78.2289 68.5953 78.0522 68.3776C77.8763 68.1594 77.8326 67.9067 77.8518 67.738C77.8698 67.5661 77.9351 67.4752 77.9622 67.4829Z"
        fill="#263238" />
    <path
        d="M78.698 62.9725C78.6411 63.0663 78.2787 62.9442 77.8316 62.9096C77.385 62.8659 77.007 62.9235 76.9671 62.821C76.9499 62.7723 77.0305 62.6895 77.1925 62.6199C77.3533 62.5503 77.5971 62.5023 77.8652 62.5254C78.1333 62.5491 78.3651 62.6386 78.5111 62.7354C78.6587 62.8318 78.7235 62.9276 78.698 62.9725Z"
        fill="#263238" />
    <path
        d="M82.0623 63.9697C81.98 64.0412 81.741 63.9023 81.4333 63.8363C81.128 63.7597 80.8522 63.7794 80.8098 63.6788C80.792 63.6306 80.8501 63.554 80.9802 63.4969C81.1086 63.4395 81.3097 63.4119 81.5204 63.4607C81.7311 63.5096 81.8994 63.6231 81.9894 63.7311C82.081 63.8399 82.0995 63.9342 82.0623 63.9697Z"
        fill="#263238" />
    <path
        d="M74.1132 64.8996C74.0755 64.8735 72.5467 64.0745 72.2685 65.7418C71.9904 67.4088 73.7215 67.3442 73.7325 67.297C73.7436 67.2497 74.1132 64.8996 74.1132 64.8996Z"
        fill="#FFBE9D" />
    <path
        d="M73.3285 66.5804C73.322 66.5739 73.2961 66.596 73.2433 66.6101C73.1917 66.6241 73.1069 66.6255 73.0253 66.5785C72.86 66.4844 72.7585 66.1801 72.8005 65.8781C72.8216 65.7257 72.8775 65.5865 72.9512 65.4759C73.0225 65.3624 73.1156 65.2904 73.2068 65.2894C73.2985 65.2837 73.3525 65.3473 73.3649 65.3977C73.3796 65.4481 73.3633 65.4795 73.3717 65.4838C73.3757 65.4889 73.412 65.462 73.4101 65.3907C73.4086 65.3564 73.3957 65.3139 73.3618 65.2753C73.3273 65.2361 73.2711 65.2097 73.2082 65.2061C73.0781 65.1937 72.9428 65.2925 72.8617 65.414C72.7736 65.5349 72.7071 65.6907 72.6833 65.8618C72.638 66.1995 72.7575 66.5427 72.9869 66.6524C73.099 66.7025 73.2029 66.6836 73.2598 66.6526C73.3189 66.6202 73.3337 66.5845 73.3285 66.5804Z"
        fill="#EB996E" />
    <path
        d="M83.3561 63.5887C82.2319 63.6595 81.0869 63.15 80.387 62.2673C79.8974 61.6498 79.5862 60.8405 78.893 60.4653C78.4265 60.2129 77.8526 60.21 77.3467 60.3705C76.841 60.5311 76.3954 60.8417 75.9963 61.1913C76.2185 62.5164 75.6293 63.828 75.055 65.0426C74.9916 65.1768 74.9189 65.3205 74.7857 65.3863C74.5596 65.4979 74.2899 65.3215 74.1547 65.1086C73.9385 64.7678 73.913 64.3423 73.9212 63.9386C73.9394 63.0192 74.1007 62.0952 74.4742 61.2547C74.8474 60.4145 75.4406 59.6606 76.217 59.1677C77.1871 58.5518 78.4094 58.3761 79.5326 58.6185C80.6558 58.8609 81.6758 59.5046 82.4395 60.3633C82.7938 60.7617 83.1022 61.2192 83.2226 61.7385"
        fill="#263238" />
    <path
        d="M16.1902 102.684C16.1881 102.683 16.2022 102.648 16.2322 102.582C16.2658 102.511 16.3107 102.415 16.3683 102.293C16.4838 102.036 16.634 101.648 16.7679 101.132C17.0324 100.1 17.1246 98.5229 16.7338 96.6497C16.5524 95.7117 16.2598 94.7056 15.9025 93.6391C15.5506 92.5706 15.1419 91.4369 14.8081 90.2114C14.4781 88.9889 14.2174 87.6616 14.2676 86.2704C14.3182 84.8764 14.7308 83.4849 15.1849 82.0999C15.6378 80.7127 16.1062 79.3564 16.2466 77.9928C16.4053 76.6312 16.1139 75.2947 15.4938 74.1996C14.893 73.0927 14.1373 72.1461 13.5716 71.1657C12.997 70.1884 12.6378 69.1836 12.4162 68.249C11.9869 66.3645 12.1374 64.7769 12.343 63.7305C12.566 62.6786 12.8146 62.1348 12.8146 62.1348C12.817 62.1357 12.8074 62.1715 12.7868 62.2408C12.7633 62.3164 12.7316 62.4177 12.6913 62.5468C12.608 62.8156 12.5005 63.2172 12.3982 63.7413C12.2103 64.7856 12.0776 66.3624 12.5156 68.226C12.7414 69.1502 13.1024 70.1419 13.6748 71.1057C14.239 72.0746 14.9982 73.0173 15.6109 74.1369C16.2442 75.2443 16.5488 76.6243 16.3873 78.0072C16.2462 79.3941 15.7741 80.7592 15.3222 82.1448C14.8683 83.5286 14.4606 84.9055 14.409 86.2761C14.3576 87.6461 14.6115 88.9605 14.9365 90.1771C15.2648 91.3965 15.6687 92.5305 16.0162 93.6021C16.369 94.6721 16.658 95.686 16.8339 96.6307C17.2143 98.5178 17.1058 100.111 16.8224 101.146C16.6791 101.664 16.5193 102.052 16.3947 102.305C16.3318 102.425 16.2824 102.519 16.2454 102.59C16.2109 102.653 16.1924 102.685 16.1902 102.684Z"
        fill="#263238" />
    <path
        d="M14.3388 72.1333C14.3388 72.1333 13.1901 68.4604 15.2505 66.31C15.3228 66.2344 15.4502 66.2701 15.4689 66.3731C15.5788 66.9793 15.7164 68.8268 14.3388 72.1333Z"
        fill="#E8505B" />
    <path
        d="M15.0265 67.5332C15.0459 67.5371 15.013 67.7956 14.9492 68.2108C14.8738 68.6776 14.785 69.2255 14.6871 69.8308C14.5911 70.4363 14.504 70.984 14.4301 71.4508C14.3672 71.8655 14.3295 72.1228 14.3084 72.1211C14.2899 72.1196 14.2916 71.8583 14.329 71.4383C14.3669 71.0185 14.4411 70.4413 14.545 69.8075C14.6487 69.1739 14.7591 68.6032 14.8491 68.192C14.9386 67.7809 15.0068 67.5294 15.0265 67.5332Z"
        fill="#263238" />
    <path
        d="M15.6875 80.7962C15.6875 80.7962 16.39 77.0126 19.2167 76.0752C19.3161 76.0423 19.4118 76.1333 19.3801 76.2331C19.1939 76.8206 18.4513 78.5179 15.6875 80.7962Z"
        fill="#E8505B" />
    <path
        d="M18.4475 77.0533C18.4629 77.0658 18.3131 77.2789 18.0623 77.6161C17.7772 77.9934 17.4426 78.4362 17.0733 78.9256C16.7051 79.4159 16.372 79.8594 16.0883 80.2372C15.8387 80.5744 15.6851 80.7841 15.6674 80.7729C15.6515 80.763 15.7754 80.5329 16.0048 80.1791C16.2347 79.8261 16.57 79.3501 16.9583 78.8387C17.3462 78.327 17.711 77.8744 17.9826 77.553C18.2541 77.2314 18.4322 77.0406 18.4475 77.0533Z"
        fill="#263238" />
    <path
        d="M14.9253 90.2874C14.9253 90.2874 14.4985 86.4627 16.9314 84.7448C17.0169 84.6846 17.1349 84.7439 17.1337 84.8485C17.1258 85.4648 16.9084 87.3047 14.9253 90.2874Z"
        fill="#E8505B" />
    <path
        d="M16.4784 85.9045C16.4969 85.9119 16.4153 86.1593 16.2732 86.5549C16.11 86.9986 15.9185 87.5197 15.7068 88.0952C15.4971 88.6712 15.3072 89.1925 15.1455 89.6362C15.0046 90.0315 14.9184 90.2768 14.898 90.271C14.88 90.266 14.9319 90.0099 15.0485 89.6048C15.1659 89.2001 15.3485 88.6474 15.5717 88.0453C15.7944 87.4431 16.0116 86.9038 16.1784 86.5174C16.345 86.131 16.4599 85.897 16.4784 85.9045Z"
        fill="#263238" />
    <path
        d="M17.0552 99.8344C17.0552 99.8344 16.7658 95.9971 19.2584 94.3672C19.346 94.3101 19.4619 94.3735 19.4569 94.4779C19.4271 95.0937 19.1437 96.9244 17.0552 99.8344Z"
        fill="#E8505B" />
    <path
        d="M18.7639 95.51C18.7821 95.5181 18.6916 95.7625 18.5356 96.1527C18.3566 96.5905 18.1466 97.1041 17.9145 97.6717C17.6843 98.2397 17.4758 98.7538 17.2982 99.1916C17.1431 99.5816 17.0486 99.8235 17.0284 99.8173C17.0107 99.8117 17.0714 99.5576 17.2027 99.1568C17.3344 98.7565 17.537 98.2109 17.7815 97.6169C18.0256 97.0229 18.2623 96.4921 18.4425 96.1119C18.6223 95.7315 18.7456 95.5016 18.7639 95.51Z"
        fill="#263238" />
    <path
        d="M12.6891 68.9053C12.6891 68.9053 9.27793 67.124 9.21097 64.1463C9.20857 64.0417 9.32377 63.9769 9.40993 64.0364C9.91681 64.3868 11.3218 65.5947 12.6891 68.9053Z"
        fill="#E8505B" />
    <path
        d="M9.91938 65.1684C9.93594 65.1574 10.0955 65.363 10.3444 65.7019C10.6214 66.085 10.9468 66.535 11.3061 67.0318C11.6668 67.5274 11.9932 67.9759 12.2711 68.358C12.5203 68.6954 12.6758 68.904 12.6597 68.9177C12.6455 68.9299 12.4619 68.7439 12.191 68.4209C11.9207 68.0976 11.5643 67.6373 11.1892 67.116C10.8139 66.595 10.4879 66.1138 10.2604 65.7598C10.0329 65.4055 9.90282 65.1794 9.91938 65.1684Z"
        fill="#263238" />
    <path
        d="M16.3528 76.7945C16.3528 76.7945 12.8397 75.2234 12.5923 72.2556C12.5836 72.1514 12.6948 72.0797 12.784 72.1337C13.3113 72.4529 14.7868 73.573 16.3528 76.7945Z"
        fill="#E8505B" />
    <path
        d="M13.3606 73.2329C13.3764 73.2209 13.5482 73.4165 13.8173 73.7396C14.117 74.1051 14.4691 74.5345 14.8579 75.0085C15.2479 75.4813 15.601 75.9092 15.9017 76.2737C16.171 76.5956 16.3387 76.7941 16.3236 76.8087C16.3102 76.8217 16.1158 76.6472 15.8256 76.3412C15.5362 76.0349 15.1526 75.5972 14.7466 75.0994C14.3402 74.6021 13.9858 74.1416 13.7371 73.802C13.4882 73.4626 13.3447 73.2449 13.3606 73.2329Z"
        fill="#263238" />
    <path
        d="M14.3307 85.5921C14.3307 85.5921 11.9187 82.5935 13.05 79.8385C13.0896 79.7418 13.2214 79.7286 13.2763 79.8174C13.6006 80.3418 14.4039 82.011 14.3307 85.5921Z"
        fill="#E8505B" />
    <path
        d="M13.2892 81.0586C13.3089 81.055 13.3727 81.3075 13.4651 81.7177C13.5654 82.1797 13.6833 82.7221 13.8136 83.3214C13.9456 83.9199 14.0649 84.4616 14.1666 84.9231C14.2597 85.3323 14.3188 85.5855 14.2984 85.5915C14.2806 85.597 14.1868 85.353 14.068 84.9486C13.9499 84.5442 13.8076 83.9797 13.673 83.3518C13.5376 82.7242 13.432 82.1526 13.3653 81.7371C13.2983 81.3214 13.2698 81.0622 13.2892 81.0586Z"
        fill="#263238" />
    <path
        d="M16.7192 95.9465C16.7192 95.9465 13.2332 94.3167 13.0355 91.3453C13.0285 91.2409 13.1408 91.171 13.2294 91.2267C13.7514 91.5543 15.2079 92.6991 16.7192 95.9465Z"
        fill="#E8505B" />
    <path
        d="M13.7884 92.3364C13.8044 92.3247 13.9729 92.5232 14.2364 92.8505C14.53 93.2211 14.8748 93.6562 15.2555 94.1367C15.6376 94.616 15.9834 95.0496 16.2779 95.4192C16.5416 95.7454 16.706 95.9468 16.6907 95.9612C16.677 95.9739 16.4855 95.7963 16.2006 95.4855C15.9164 95.1744 15.5401 94.7302 15.1424 94.226C14.7445 93.722 14.398 93.2554 14.1551 92.912C13.9122 92.5683 13.7723 92.3482 13.7884 92.3364Z"
        fill="#263238" />
    <path
        d="M23.6651 80.8164C23.6685 80.8166 23.6699 80.8454 23.6694 80.9011C23.6678 80.9681 23.6658 81.049 23.6634 81.1471C23.6531 81.3782 23.6394 81.6905 23.6222 82.0802C23.5773 82.9006 23.5146 84.0444 23.4395 85.4126L23.4393 85.4158L23.4383 85.4206C23.1894 86.813 22.4802 88.3565 21.5277 89.855C20.8288 90.9588 20.0963 91.9625 19.4646 92.8958C18.8286 93.8266 18.292 94.6886 17.9178 95.4526C17.5413 96.2153 17.3224 96.8707 17.1942 97.3289C17.133 97.5588 17.087 97.7381 17.0603 97.8607C17.0318 97.9829 17.0142 98.0467 17.0092 98.046C17.0044 98.045 17.0121 97.9795 17.0318 97.8552C17.049 97.7304 17.0865 97.5485 17.1398 97.315C17.2518 96.8501 17.458 96.1834 17.8259 95.4084C18.1914 94.6322 18.723 93.7586 19.3542 92.8219C19.9816 91.8818 20.7102 90.8767 21.4053 89.7785C22.3528 88.2874 23.0584 86.7674 23.3164 85.3973L23.3154 85.4052C23.4114 84.0384 23.4918 82.8958 23.5494 82.0762C23.5809 81.6874 23.6061 81.3758 23.6248 81.1452C23.6346 81.0475 23.6428 80.9671 23.6495 80.9004C23.657 80.8447 23.662 80.8164 23.6651 80.8164Z"
        fill="#263238" />
    <path
        d="M21.5894 89.5697C21.5894 89.5697 23.0658 86.016 21.2087 83.6878C21.1434 83.6062 21.0134 83.6302 20.9855 83.7307C20.8211 84.3247 20.5168 86.1521 21.5894 89.5697Z"
        fill="#E8505B" />
    <path
        d="M21.3213 84.9258C21.3409 84.9236 21.3863 85.1807 21.4384 85.5983C21.4907 86.0159 21.549 86.5943 21.5949 87.2346C21.6412 87.8752 21.6625 88.4569 21.6623 88.8784C21.6613 89.3 21.6397 89.5604 21.621 89.5602C21.5999 89.56 21.5857 89.3003 21.5605 88.8815C21.5291 88.4101 21.4921 87.8567 21.4511 87.2449C21.4084 86.6332 21.3697 86.0795 21.3369 85.6079C21.3107 85.1881 21.3013 84.928 21.3213 84.9258Z"
        fill="#263238" />
    <g opacity="0.3">
        <path
            d="M21.5894 89.5697C21.5894 89.5697 23.0658 86.016 21.2087 83.6878C21.1434 83.6062 21.0134 83.6302 20.9855 83.7307C20.8211 84.3247 20.5168 86.1521 21.5894 89.5697Z"
            fill="black" />
    </g>
    <path
        d="M17.0158 98.1329C17.0158 98.1329 18.1992 94.4709 16.1592 92.3011C16.0875 92.2248 15.96 92.2593 15.9403 92.3621C15.8247 92.9673 15.6696 94.8137 17.0158 98.1329Z"
        fill="#E8505B" />
    <path
        d="M16.3711 93.5274C16.3905 93.5238 16.4565 93.776 16.5422 94.1881C16.6281 94.5999 16.7333 95.1716 16.8309 95.8062C16.9291 96.441 16.9975 97.0189 17.0316 97.4389C17.0649 97.8591 17.0642 98.1205 17.0457 98.1217C17.0246 98.1231 16.9896 97.8656 16.9305 97.4502C16.8609 96.9829 16.7791 96.4343 16.6889 95.8278C16.5967 95.2215 16.5132 94.6729 16.4421 94.2054C16.3819 93.7897 16.3517 93.531 16.3711 93.5274Z"
        fill="#263238" />
    <g opacity="0.3">
        <path
            d="M17.0158 98.1329C17.0158 98.1329 18.1992 94.4709 16.1592 92.3011C16.0875 92.2248 15.96 92.2593 15.9403 92.3621C15.8247 92.9673 15.6696 94.8137 17.0158 98.1329Z"
            fill="black" />
    </g>
    <path
        d="M23.4688 85.2256C23.4688 85.2256 26.6214 83.0186 26.3031 80.0575C26.2919 79.9535 26.1692 79.9041 26.0917 79.9739C25.6343 80.3872 24.3971 81.7663 23.4688 85.2256Z"
        fill="#E8505B" />
    <g opacity="0.3">
        <path
            d="M23.4688 85.2256C23.4688 85.2256 26.6214 83.0186 26.3031 80.0575C26.2919 79.9535 26.1692 79.9041 26.0917 79.9739C25.6343 80.3872 24.3971 81.7663 23.4688 85.2256Z"
            fill="black" />
    </g>
    <path
        d="M25.7329 81.1623C25.7507 81.1712 25.6511 81.4122 25.4711 81.7926C25.2911 82.173 25.0302 82.6923 24.7251 83.2575C24.4206 83.823 24.1266 84.3253 23.9003 84.6808C23.6735 85.036 23.5153 85.244 23.4997 85.2339C23.4819 85.2224 23.6091 84.9959 23.8127 84.6289C24.039 84.2142 24.3047 83.7272 24.5984 83.1891C24.8905 82.6501 25.155 82.1619 25.3803 81.7463C25.5834 81.3783 25.7151 81.1537 25.7329 81.1623Z"
        fill="#263238" />
    <path
        d="M18.2871 94.502C18.2871 94.502 22.0894 93.9092 23.108 91.1105C23.1437 91.0124 23.0554 90.914 22.9549 90.9425C22.3623 91.1117 20.6441 91.8048 18.2871 94.502Z"
        fill="#E8505B" />
    <g opacity="0.3">
        <path
            d="M18.2871 94.502C18.2871 94.502 22.0894 93.9092 23.108 91.1105C23.1437 91.0124 23.0554 90.914 22.9549 90.9425C22.3623 91.1117 20.6441 91.8048 18.2871 94.502Z"
            fill="black" />
    </g>
    <path
        d="M22.1092 91.8527C22.1212 91.8686 21.9256 92.0409 21.5965 92.3032C21.2675 92.5655 20.8045 92.9169 20.2818 93.2899C19.7593 93.6633 19.2741 93.9849 18.9143 94.2045C18.5541 94.4236 18.3205 94.5407 18.3109 94.5247C18.3001 94.5064 18.5142 94.3591 18.8586 94.1193C19.2445 93.8467 19.6974 93.5265 20.1981 93.1727C20.6977 92.8173 21.1501 92.4957 21.5353 92.2219C21.8797 91.9807 22.0969 91.8369 22.1092 91.8527Z"
        fill="#263238" />
    <path d="M14.6579 101.5L13.5488 108.965H20.4608L19.5647 101.5H14.6579Z" fill="#455A64" />
    <path
        d="M19.8421 103.812C19.8421 103.852 18.5941 103.884 17.0549 103.884C15.5153 103.884 14.2676 103.852 14.2676 103.812C14.2676 103.772 15.5153 103.74 17.0549 103.74C18.5941 103.74 19.8421 103.773 19.8421 103.812Z"
        fill="#263238" />
    <path
        d="M19.98 104.406C19.98 104.446 18.691 104.478 17.1015 104.478C15.5112 104.478 14.2227 104.446 14.2227 104.406C14.2227 104.366 15.5112 104.334 17.1015 104.334C18.691 104.334 19.98 104.366 19.98 104.406Z"
        fill="#263238" />
</svg>
