<svg width="150" height="150" viewBox="0 0 150 150" fill="none" xmlns="http://www.w3.org/2000/svg">
    <path
        d="M79.4728 63.311C78.3469 63.8493 78.186 62.9944 78.186 62.9944V57.5039H62.7971V72.8932H68.3718C68.3718 72.8932 69.2267 72.7326 68.6883 71.6064C68.15 70.4805 67.994 68.2284 70.4915 68.0875C72.9891 68.2284 72.8331 70.4802 72.2947 71.6064C71.7564 72.7323 72.6113 72.8932 72.6113 72.8932H78.186V67.2339C78.186 67.2339 78.3466 66.379 79.4728 66.9174C80.5987 67.4557 82.8508 67.6117 82.9917 65.1142C82.8511 62.6163 80.599 62.7726 79.4728 63.311Z"
        fill="url(#paint0_linear_1366_9913)" />
    <path
        d="M37.7426 77.4479C37.7426 77.4479 31.5213 78.8838 35.4262 84.685C36.696 86.5714 46.7671 96.3135 49.5205 97.4411C52.2737 98.5686 56.3965 90.7155 58.5178 84.7505C60.6395 78.7855 61.5521 75.7214 61.5521 75.7214L58.7397 74.1758C58.7397 74.1758 56.0885 79.3511 55.3803 80.4642C54.6722 81.5773 49.917 89.1787 49.917 89.1787C49.917 89.1787 45.9856 84.4995 43.2881 81.8676C40.591 79.2357 39.0228 77.5734 37.7426 77.4479Z"
        fill="url(#paint1_linear_1366_9913)" />
    <path
        d="M45.428 56.1649C45.428 56.1649 45.259 51.9422 41.1207 51.0978C36.9825 50.2533 35.1036 54.2225 33.425 54.8981C31.7463 55.5738 24.6521 56.0804 24.061 61.739C23.4699 67.3973 24.9054 66.6092 24.061 69.6212C23.2166 72.6336 24.6521 76.0116 28.4525 78.5452C32.2529 81.0787 43.0629 92.5644 43.0629 92.5644C43.0629 92.5644 46.9478 91.5509 45.8498 83.359C46.0451 80.3185 51.1702 79.1363 50.2413 73.9846C49.3123 68.8329 49.3968 68.2417 49.5656 64.5259C49.735 60.8097 49.0593 58.2761 45.428 56.1649Z"
        fill="#151A3C" />
    <path
        d="M43.8514 56.9805C43.8514 56.9805 45.9345 58.782 46.6101 63.8492C47.2858 68.9164 44.3298 74.2368 37.0951 74.2087C37.0951 74.2087 36.0534 75.926 37.7426 77.4461C39.4317 78.9662 39.4317 78.9662 39.4317 78.9662C39.4317 78.9662 39.3472 82.26 37.1515 82.26C34.9557 82.26 32.1688 79.9797 30.902 76.5171C30.902 76.5171 32.3379 75.8415 32.5067 74.2368C32.6757 72.6322 32.5067 70.7743 32.5067 70.7743C32.5067 70.7743 30.1015 69.3509 30.902 66.7206C31.4932 64.7782 33.6044 66.045 33.7735 67.4808C33.9422 68.9167 33.9422 68.9167 33.9422 68.9167L34.5333 69.0012C34.5333 69.0012 33.6889 65.0321 35.4623 63.8495C37.2357 62.6673 39.3472 63.3429 39.9383 60.6403C40.5295 57.9376 42.5283 57.1214 43.8514 56.9805Z"
        fill="#FADBDB" />
    <path
        d="M30.9018 76.5195C30.9018 76.5195 26.257 76.6041 25.4123 78.7153C24.5678 80.8265 20.6829 94.2546 21.0208 97.2106C21.3586 100.167 30.2261 99.9975 36.4759 98.9843C42.7253 97.9708 45.8504 97.2951 45.8504 97.2951V94.0859C45.8504 94.0859 40.0381 94.255 38.7215 94.1704C37.4049 94.0859 28.4528 93.5793 28.4528 93.5793C28.4528 93.5793 29.731 87.7519 30.7386 84.1206C31.7462 80.489 31.4087 77.7018 30.9018 76.5195Z"
        fill="url(#paint2_linear_1366_9913)" />
    <path
        d="M64.9563 86.7163C63.8304 87.2546 63.6699 86.3997 63.6699 86.3997V80.9092H58.0948C58.0948 80.9092 57.2399 80.7486 57.7783 79.6224C58.3166 78.4965 58.4726 76.2444 55.9751 76.1035C53.4775 76.2444 53.6335 78.4962 54.1719 79.6224C54.7103 80.7483 53.8553 80.9092 53.8553 80.9092H48.2806V96.2985H63.6699V90.6392C63.6699 90.6392 63.8304 89.7843 64.9563 90.3227C66.0822 90.861 68.3343 91.017 68.4752 88.5195C68.3343 86.0219 66.0826 86.1779 64.9563 86.7163Z"
        fill="url(#paint3_linear_1366_9913)" />
    <path
        d="M43.8143 91.3344C43.8245 91.2961 43.8677 91.2115 43.9513 91.0709C43.965 91.0477 43.9762 91.0218 43.9896 90.9979C44.0437 90.8907 44.0974 90.7803 44.1508 90.6663C44.8121 89.1108 44.625 86.6535 43.232 85.7249C41.7119 84.7114 39.7695 84.1203 40.2761 82.2624C40.7826 80.4045 39.4316 78.9686 39.4316 78.9686C39.4316 78.9686 39.3471 82.2624 37.1513 82.2624C34.9556 82.2624 32.1687 79.9821 30.9019 76.5195C31.4085 77.7018 31.7463 80.489 30.7387 84.1203C29.7311 87.7519 28.4529 93.579 28.4529 93.579C28.4529 93.579 37.405 94.0856 38.7216 94.1701C39.4307 94.2156 41.4426 94.1875 43.1491 94.1521L43.0633 92.5655C43.0633 92.5655 43.4158 92.0717 43.8143 91.3344Z"
        fill="url(#paint4_linear_1366_9913)" />
    <path
        d="M45.85 94.0838C45.85 94.0838 46.582 94.2807 47.6234 93.4645C48.665 92.6482 49.8755 91.1278 50.6075 91.4375C51.3395 91.7471 50.0727 93.1548 50.0164 93.7741C49.96 94.3934 54.0419 94.2247 55.5905 93.8023C57.1387 93.3799 56.7163 95.0973 55.0275 95.6039C55.0275 95.6039 54.8588 96.9834 53.7044 97.4336C52.5503 97.8842 50.5796 98.0247 49.2847 97.6869C47.9897 97.3491 45.8503 97.0676 45.8503 97.0676L45.85 94.0838Z"
        fill="#FADBDB" />
    <path
        d="M58.8458 74.2341C58.8458 74.2341 59.4471 72.1835 59.7849 70.5789C60.1227 68.9742 62.3185 66.6094 63.6698 66.0183C65.0212 65.4272 64.9648 66.9472 64.0922 67.6793C63.2196 68.4113 62.7972 69.0306 62.7972 69.0306V72.9437H64.0922C64.0922 72.9437 63.4604 74.5582 61.5524 75.7214L58.8458 74.2341Z"
        fill="#FADBDB" />
    <path d="M61.5521 73.6467C61.5521 73.6467 62.6845 72.7459 62.7969 70.2969Z" fill="#FADBDB" />
    <path d="M61.5521 73.6467C61.5521 73.6467 62.6845 72.7459 62.7969 70.2969" stroke="#151A3C"
        stroke-width="0.5155" stroke-miterlimit="10" stroke-linecap="round"
        stroke-linejoin="round" />
    <path
        d="M30.5752 84.7188L28.4529 93.5778C28.4529 93.5778 36.4052 93.9621 39.7904 94.1922C43.1757 94.4222 43.176 94.4222 43.176 94.4222"
        stroke="#151A3C" stroke-width="0.5155" stroke-miterlimit="10" stroke-linecap="round"
        stroke-linejoin="round" />
    <path d="M55.0276 95.6035C55.0276 95.6035 53.8735 96.0541 52.5222 96.1101" stroke="#151A3C"
        stroke-width="0.5155" stroke-miterlimit="10" stroke-linecap="round"
        stroke-linejoin="round" />
    <path
        d="M71.2249 75.8076L73.646 80.7355C73.646 80.7355 74.1671 81.4319 74.9404 80.4521C75.7137 79.4724 77.666 78.3393 78.8938 80.519C79.8686 82.8228 77.7787 83.6758 76.5306 83.6889C75.2825 83.7023 75.5154 84.5402 75.5154 84.5402L78.011 89.6195L83.0146 87.1613C83.0146 87.1613 83.7109 86.6403 82.7315 85.8669C81.7518 85.0936 80.6186 83.1413 82.7983 81.9135C85.1019 80.9387 85.9552 83.0286 85.9683 84.2767C85.9817 85.5249 86.8196 85.2919 86.8196 85.2919L91.8232 82.8336L85.0374 69.0215L71.2249 75.8076Z"
        fill="url(#paint5_linear_1366_9913)" />
    <path
        d="M114.708 80.4467C114.708 80.4467 121.267 77.8702 120.018 85.8631C119.667 88.11 116.58 96.3887 114.635 98.6405C112.691 100.892 105.46 95.756 100.868 91.3972C96.2759 87.0385 94.0752 84.7196 94.0752 84.7196L95.8833 82.0683C95.8833 82.0683 100.59 85.483 101.725 86.1548C102.86 86.8265 110.542 91.4523 110.542 91.4523C110.542 91.4523 110.876 89.0386 112.09 85.4709C113.304 81.9029 113.623 81.1377 114.708 80.4467Z"
        fill="#FADBDB" />
    <path
        d="M95.9878 82.144C95.9878 82.144 94.3504 80.6121 93.3228 79.3341C92.2952 78.0562 89.2668 76.9415 87.7943 77.026C86.3217 77.1105 87.0599 78.4406 88.1695 78.6981C89.279 78.9557 89.936 79.3168 89.936 79.3168L91.7074 82.8059L90.5526 83.3921C90.5526 83.3921 91.8466 84.5455 94.0748 84.7192L95.9878 82.144Z"
        fill="#FADBDB" />
    <path d="M93.1362 82.8708C93.1362 82.8708 91.7187 82.5801 90.5099 80.4473" stroke="#151A3C"
        stroke-width="0.5155" stroke-miterlimit="10" stroke-linecap="round"
        stroke-linejoin="round" />
    <path
        d="M96.9587 82.729C96.9587 82.729 96.1104 82.5367 96.6907 81.4314C97.2707 80.3262 97.5112 78.0816 95.0205 77.8477C92.5194 77.8948 92.5911 80.1512 93.0869 81.2964C93.5827 82.442 92.7225 82.5704 92.7225 82.5704L87.2877 82.367L87.0659 88.2936C87.0659 88.2936 87.1943 89.1538 88.3399 88.658C89.4854 88.1622 91.7415 88.0905 91.7887 90.5916C91.5544 93.0823 89.3098 92.8421 88.2049 92.2618C87.0996 91.6818 86.9073 92.5298 86.9073 92.5298L86.712 97.7451L102.09 98.3211L102.666 82.9427L96.9587 82.729Z"
        fill="url(#paint6_linear_1366_9913)" />
    <path
        d="M102.492 96.3127C102.492 96.3127 101.394 96.277 100.632 95.8497C99.4782 95.2019 98.3801 93.513 97.6481 93.8227C96.9161 94.1323 98.1829 95.54 98.2392 96.1594C98.2956 96.7787 94.2137 96.6099 92.6655 96.1875C91.1172 95.7652 91.5396 97.4825 93.2284 97.9891C93.2284 97.9891 93.3972 99.3686 94.5516 99.8188C95.706 100.269 97.6763 100.41 98.9713 100.072C100.266 99.7343 102.492 99.9555 102.492 99.9555V96.3127Z"
        fill="#FADBDB" />
    <path
        d="M111.414 55.8555C111.414 55.8555 107.023 58.7737 107.023 65.1968C107.023 71.6199 112.428 73.6469 116.256 73.6469C117.27 73.6469 117.326 74.5625 116.594 76.1035C115.862 77.6446 115.581 79.5025 116.594 80.3469C117.608 81.1913 120.929 75.3361 122.393 75.3361C122.393 75.3361 121.605 73.5909 122.393 71.3948C122.393 71.3948 121.267 71.3948 120.479 69.5369C120.479 69.5369 122.055 69.5369 122.168 66.7218C122.281 63.9068 119.972 63.6718 119.24 65.1968C118.846 65.8846 118.959 67.2432 118.959 67.2432H118.34C118.34 67.2432 116.425 64.7512 117.382 61.4296C117.382 61.4296 111.921 60.6975 111.414 55.8555Z"
        fill="#FADBDB" />
    <path
        d="M126.954 82.7679C126.391 78.4888 123.35 75.8429 122.393 75.3359C120.929 75.3359 117.607 81.1915 116.594 80.3467C115.676 79.582 115.822 77.9865 116.401 76.5474C116.401 76.5474 114.173 79.2182 113.385 80.43C112.597 81.6417 111.766 85.639 111.766 85.639L112.621 85.7894C112.621 85.7894 111.414 94.1969 110.795 97.5189H126.953C126.953 97.5189 127.517 87.0467 126.954 82.7679Z"
        fill="url(#paint7_linear_1366_9913)" />
    <path
        d="M128.08 58.3891C127.686 54.9548 124.082 54.2791 124.082 54.2791C124.082 54.2791 122.956 51.6892 119.297 51.8019C115.637 51.9146 114.229 53.4347 112.765 52.3085C111.302 51.1826 110.513 50.1691 108.486 50C108.486 50 105.558 50 104.826 52.6463C104.143 55.1157 105.669 56.9474 109.169 58.1876C110.283 56.6086 111.414 55.8556 111.414 55.8556C111.92 60.6976 117.382 61.4293 117.382 61.4293C116.425 64.7513 118.339 67.2429 118.339 67.2429H118.958C118.958 67.2429 118.845 65.8844 119.24 65.1966C119.972 63.6716 122.28 63.9065 122.167 66.7216C122.055 69.5367 120.478 69.5367 120.478 69.5367C121.266 71.3946 122.392 71.3946 122.392 71.3946C122.392 71.3946 123.856 68.6087 125.264 67.2426C126.672 65.8772 128.474 61.8235 128.08 58.3891Z"
        fill="#151A3C" />
    <path
        d="M118.396 88.0605L117.776 94.0849C117.776 94.0849 111.583 94.9856 107.923 95.8304C104.264 96.6748 102.406 96.2983 102.406 96.2983V99.9404C102.406 99.9404 106.685 100.729 111.921 100.616C117.157 100.503 121.267 100.503 121.943 99.3211C122.618 98.1389 124.138 92.6211 124.364 90.2563C124.364 90.2563 120.423 89.2992 118.396 88.0605Z"
        fill="#FADBDB" />
    <path d="M93.2285 97.9883C93.2285 97.9883 94.4672 98.276 95.7621 98.3196" stroke="#151A3C"
        stroke-width="0.5155" stroke-miterlimit="10" stroke-linecap="round"
        stroke-linejoin="round" />
    <path d="M118.396 88.0607L117.833 87.7793C117.833 87.7793 118.79 80.7142 120.817 79.3203"
        stroke="#151A3C" stroke-width="0.5155" stroke-miterlimit="10" stroke-linecap="round"
        stroke-linejoin="round" />
    <path d="M124.364 90.2575C124.364 90.2575 125.884 85.2466 125.49 82.0938" stroke="#151A3C"
        stroke-width="0.5155" stroke-miterlimit="10" stroke-linecap="round"
        stroke-linejoin="round" />
    <path d="M112.621 85.7909L113.344 82.0938" stroke="#151A3C" stroke-width="0.5155"
        stroke-miterlimit="10" stroke-linecap="round" stroke-linejoin="round" />
    <defs>
        <linearGradient id="paint0_linear_1366_9913" x1="65.9705" y1="59.1528" x2="74.8272"
            y2="75.6282" gradientUnits="userSpaceOnUse">
            <stop stop-color="#FFA726" />
            <stop offset="0.953135" stop-color="#FFE0B2" />
        </linearGradient>
        <linearGradient id="paint1_linear_1366_9913" x1="38.4463" y1="76.6802" x2="52.6932"
            y2="100.366" gradientUnits="userSpaceOnUse">
            <stop stop-color="#4CB050" />
            <stop offset="0.494792" stop-color="#66BB6A" />
            <stop offset="0.953135" stop-color="#80C783" />
        </linearGradient>
        <linearGradient id="paint2_linear_1366_9913" x1="24.9051" y1="78.9977" x2="39.5489"
            y2="101.301" gradientUnits="userSpaceOnUse">
            <stop stop-color="#4CB050" />
            <stop offset="0.494792" stop-color="#66BB6A" />
            <stop offset="0.953135" stop-color="#80C783" />
        </linearGradient>
        <linearGradient id="paint3_linear_1366_9913" x1="51.4541" y1="78.2673" x2="64.5808"
            y2="96.8753" gradientUnits="userSpaceOnUse">
            <stop stop-color="#FFA726" />
            <stop offset="0.953135" stop-color="#FFE0B2" />
        </linearGradient>
        <linearGradient id="paint4_linear_1366_9913" x1="30.9775" y1="78.4132" x2="42.7906"
            y2="93.6351" gradientUnits="userSpaceOnUse">
            <stop stop-color="#4CB050" />
            <stop offset="0.494792" stop-color="#66BB6A" />
            <stop offset="0.953135" stop-color="#80C783" />
        </linearGradient>
        <linearGradient id="paint5_linear_1366_9913" x1="71.2452" y1="79.3255" x2="91.8336"
            y2="79.3255" gradientUnits="userSpaceOnUse">
            <stop stop-color="#FF7304" />
            <stop offset="1" stop-color="#FB2A77" />
        </linearGradient>
        <linearGradient id="paint6_linear_1366_9913" x1="86.7277" y1="88.0894" x2="102.675"
            y2="88.0894" gradientUnits="userSpaceOnUse">
            <stop stop-color="#FF7304" />
            <stop offset="1" stop-color="#FB2A77" />
        </linearGradient>
        <linearGradient id="paint7_linear_1366_9913" x1="113.373" y1="77.7127" x2="128.662"
            y2="93.7446" gradientUnits="userSpaceOnUse">
            <stop stop-color="#3F51B5" />
            <stop offset="0.494792" stop-color="#5C6CC1" />
            <stop offset="0.953135" stop-color="#7887CC" />
        </linearGradient>
    </defs>
</svg>
