<svg width="120" height="120" viewBox="0 0 120 120" fill="none" xmlns="http://www.w3.org/2000/svg">
    <path d="M108.293 20.8926V36.6579H85.6497L84.834 21.003L108.293 20.8926Z" fill="#E0E0E0" />
    <path d="M84.834 21.0014V36.623H107.477V21.0014H84.834Z" fill="white" />
    <path
        d="M107.584 36.7312H84.7266V20.8945H107.584V36.7312ZM84.9414 36.5164H107.37V21.1093H84.9414V36.5164Z"
        fill="#E0E0E0" />
    <path d="M105.025 22.9434H87.2871V34.6832H105.025V22.9434Z" fill="white" />
    <path
        d="M105.025 22.9439C105.025 22.9439 104.994 22.9459 104.937 22.9471C104.877 22.9478 104.793 22.9487 104.685 22.9502C104.46 22.9516 104.134 22.9538 103.711 22.9564C102.859 22.9595 101.62 22.9643 100.055 22.9703C96.9269 22.9766 92.4992 22.9852 87.2861 22.9955L87.3375 22.9442C87.339 26.5312 87.3404 30.5054 87.3421 34.6826V34.684L87.2861 34.6281C93.9773 34.6324 100.147 34.6365 105.024 34.6394L104.98 34.684C104.99 31.1114 104.997 28.1822 105.003 26.1422C105.008 25.1227 105.012 24.3261 105.014 23.7801C105.017 23.5103 105.018 23.3032 105.02 23.1595C105.021 23.0186 105.025 22.9439 105.025 22.9439C105.025 22.9439 105.028 23.0123 105.029 23.1499C105.031 23.2917 105.032 23.4962 105.034 23.7623C105.037 24.3059 105.041 25.0991 105.046 26.1143C105.051 28.1608 105.059 31.0996 105.069 34.6838V34.7284H105.025C100.147 34.7315 93.9776 34.7354 87.2864 34.7397H87.2305V34.6838V34.6823C87.2321 30.5051 87.2336 26.5307 87.235 22.9439V22.8926H87.2864C92.5133 22.9029 96.9526 22.9115 100.089 22.9178C101.648 22.9238 102.884 22.9283 103.733 22.9315C104.151 22.9341 104.474 22.9363 104.696 22.9377C104.803 22.9391 104.884 22.9401 104.943 22.9408C104.998 22.942 105.025 22.9439 105.025 22.9439Z"
        fill="#E0E0E0" />
    <path
        d="M84.8345 20.96C84.8439 20.9478 84.9922 21.045 85.2238 21.2123C85.4554 21.3795 85.7707 21.6167 86.1113 21.8893C86.4519 22.1619 86.7516 22.4199 86.9626 22.6129C87.1735 22.8061 87.2969 22.9335 87.2868 22.9448C87.2657 22.9686 86.7214 22.5195 86.0415 21.9767C85.3611 21.4343 84.8146 20.9857 84.8345 20.96Z"
        fill="#E0E0E0" />
    <path
        d="M107.476 21.003C107.495 21.0272 106.962 21.4813 106.285 22.0172C105.608 22.5534 105.043 22.9681 105.024 22.9438C105.005 22.9196 105.538 22.4655 106.216 21.9296C106.892 21.3937 107.457 20.9787 107.476 21.003Z"
        fill="#E0E0E0" />
    <path d="M107.458 36.6263C106.617 35.9442 105.775 35.2622 104.934 34.5801L107.458 36.6263Z"
        fill="white" />
    <path
        d="M104.934 34.581C104.954 34.557 105.535 34.9957 106.232 35.5607C106.929 36.1259 107.478 36.6033 107.459 36.6273C107.439 36.6513 106.858 36.2128 106.161 35.6476C105.464 35.0826 104.915 34.605 104.934 34.581Z"
        fill="#E0E0E0" />
    <path
        d="M84.8345 36.6239C84.8153 36.5997 85.3433 36.1501 86.0134 35.6202C86.6837 35.0901 87.2426 34.6799 87.2618 34.7041C87.281 34.7284 86.7533 35.1777 86.0827 35.7078C85.4126 36.238 84.8537 36.6481 84.8345 36.6239Z"
        fill="#E0E0E0" />
    <path d="M90.8887 26.6022V30.5332H102.05V26.6022H90.8887Z" fill="#E0E0E0" />
    <path
        d="M45.6987 12.058C45.6977 12.0602 45.6788 12.0542 45.6428 12.0407C45.5996 12.0237 45.5475 12.0033 45.4839 11.9783C45.3349 11.9164 45.1328 11.8322 44.8781 11.7263C44.3432 11.4971 43.5881 11.1741 42.6601 10.7766C40.7825 9.95872 38.2073 8.83672 35.3624 7.59736C35.2757 7.55944 35.1893 7.52152 35.1094 7.48648L35.162 7.48672C32.365 8.68288 29.8453 9.76024 28.0114 10.5443C27.1054 10.925 26.3693 11.2343 25.8478 11.4534C25.5999 11.5547 25.4031 11.6349 25.2579 11.6942C25.1225 11.7479 25.0505 11.7741 25.0489 11.7698C25.0472 11.7657 25.1156 11.7314 25.2476 11.6699C25.3906 11.6051 25.5838 11.5173 25.8279 11.4066C26.3456 11.1784 27.0759 10.8561 27.9752 10.4594C29.8049 9.66592 32.3192 8.57536 35.1101 7.36504L35.1365 7.35352L35.1629 7.36504C35.2429 7.40008 35.3293 7.438 35.4159 7.47592C38.2549 8.72896 40.8248 9.86344 42.6982 10.6905C43.6193 11.104 44.3684 11.4402 44.8995 11.6788C45.1501 11.7945 45.3488 11.8859 45.4954 11.9536C45.5569 11.9834 45.6073 12.0078 45.649 12.0282C45.6824 12.046 45.6994 12.0561 45.6987 12.058Z"
        fill="#E0E0E0" />
    <path d="M57.0817 11.0098H10.2109V46.1042H57.0817V11.0098Z" fill="#E0E0E0" />
    <path d="M55.6194 12.6426H11.8496V44.6631H55.6194V12.6426Z" fill="#FAFAFA" />
    <path
        d="M21.5176 26.6309C21.5176 26.6309 21.5632 32.0061 21.8365 33.6461L28.5784 33.3271C28.5784 33.3271 27.9863 28.043 28.2141 26.6309H21.5176Z"
        fill="#E0E0E0" />
    <path
        d="M24.8378 27.392C24.8378 27.3913 24.8462 27.3903 24.8625 27.3894C24.8814 27.3886 24.9054 27.3877 24.9352 27.3865C24.9993 27.3819 25.0941 27.3865 25.2158 27.4004C25.3365 27.4196 25.4853 27.4522 25.6444 27.5278C25.8033 27.6032 25.9677 27.7261 26.111 27.897C26.249 28.0707 26.3754 28.2865 26.4342 28.5462C26.4897 28.8061 26.4616 29.0979 26.3634 29.3792C26.3157 29.5206 26.2506 29.6595 26.1741 29.7956C26.098 29.9312 26.0217 30.068 25.9583 30.2161C25.8311 30.5103 25.7301 30.8341 25.6857 31.1727L25.6828 31.195L25.661 31.1955C25.4481 31.1989 25.2232 31.2025 24.9952 31.2063C24.7562 31.2102 24.5202 31.2138 24.297 31.2171L24.2723 31.2176L24.2714 31.1924C24.2598 30.8533 24.1074 30.5444 23.9476 30.271C23.8667 30.1328 23.7782 30.0034 23.6951 29.8724C23.614 29.7438 23.5228 29.6206 23.4582 29.4862C23.3253 29.2179 23.3025 28.921 23.3526 28.6652C23.4009 28.4089 23.4858 28.1763 23.6128 27.9934C23.739 27.8103 23.8998 27.6829 24.0515 27.5984C24.2042 27.5134 24.3477 27.4674 24.4655 27.4383C24.5838 27.4098 24.6774 27.3985 24.7408 27.3934C24.7725 27.3918 24.7967 27.3903 24.813 27.3908C24.8296 27.3903 24.8378 27.391 24.8378 27.392C24.8378 27.393 24.8294 27.3934 24.8133 27.3951C24.7946 27.397 24.771 27.3994 24.7418 27.4026C24.6791 27.4105 24.5865 27.4246 24.4701 27.4558C24.3542 27.4873 24.2133 27.5355 24.0645 27.6212C23.9166 27.7066 23.7614 27.8329 23.6404 28.0124C23.5192 28.1907 23.4374 28.4204 23.392 28.6717C23.345 28.9225 23.369 29.2076 23.4986 29.4666C23.5617 29.5969 23.651 29.7164 23.7347 29.8477C23.817 29.9766 23.9068 30.1074 23.9891 30.2463C24.1511 30.5228 24.3088 30.8358 24.3218 31.1917L24.2961 31.167C24.5195 31.1634 24.7552 31.1595 24.9942 31.1557C25.2222 31.1521 25.4471 31.1487 25.66 31.1454L25.6353 31.1682C25.6814 30.8202 25.7838 30.4954 25.9137 30.1969C25.978 30.0476 26.0572 29.9072 26.133 29.7728C26.2089 29.6391 26.2734 29.5028 26.3207 29.3648C26.4182 29.0898 26.4467 28.8066 26.3949 28.5548C26.3404 28.3042 26.2175 28.0892 26.0846 27.9188C25.9463 27.7503 25.7872 27.6284 25.6324 27.5523C25.4774 27.4758 25.3317 27.441 25.2126 27.4191C25.0926 27.4026 24.9986 27.3951 24.9347 27.3966C24.905 27.3958 24.8812 27.3951 24.8622 27.3946C24.8462 27.3934 24.838 27.3927 24.8378 27.392Z"
        fill="white" />
    <path
        d="M25.1839 31.137C25.1839 31.137 25.1822 31.1298 25.1798 31.1159C25.1774 31.101 25.174 31.0802 25.1695 31.0535C25.1608 30.9976 25.1486 30.9167 25.1328 30.8128C25.1025 30.6035 25.0576 30.3006 25.0274 29.9236C25.0202 29.8293 25.0137 29.7304 25.0099 29.6272C25.0065 29.524 25.002 29.4165 25.008 29.3049C25.0142 29.1938 25.0324 29.0766 25.0838 28.9677C25.1354 28.8604 25.2213 28.7594 25.3408 28.7102C25.4594 28.659 25.6104 28.6857 25.7078 28.78C25.7558 28.8273 25.788 28.8947 25.7865 28.9646C25.7863 29.0342 25.7594 29.1021 25.7176 29.1578C25.6761 29.2144 25.6183 29.2578 25.5554 29.2888C25.4923 29.3205 25.4241 29.3402 25.355 29.3553C25.2168 29.3843 25.0742 29.4004 24.9295 29.4047C24.7848 29.4081 24.6417 29.4054 24.5013 29.3841C24.4315 29.3726 24.3626 29.3546 24.2985 29.3255C24.2342 29.2967 24.1759 29.2557 24.1286 29.2048C24.0816 29.1539 24.0456 29.092 24.0307 29.0246C24.0151 28.9571 24.0254 28.8856 24.0547 28.8249C24.0837 28.7644 24.1329 28.7123 24.1956 28.6876C24.2582 28.6622 24.3292 28.6694 24.3876 28.6965C24.4464 28.7236 24.4948 28.7673 24.5306 28.8182C24.5666 28.8698 24.588 28.9281 24.6021 28.9862C24.6297 29.1035 24.629 29.2194 24.6362 29.3301C24.6477 29.5521 24.6585 29.7587 24.6684 29.9476C24.6873 30.3244 24.7027 30.6297 24.7135 30.8416C24.7183 30.9465 24.7221 31.0283 24.7248 31.0847C24.7257 31.1118 24.7264 31.133 24.7272 31.1481C24.7276 31.1622 24.7272 31.1697 24.7272 31.1697C24.7272 31.1697 24.726 31.1625 24.725 31.1481C24.7238 31.133 24.7224 31.1121 24.7204 31.085C24.7168 31.0286 24.7118 30.947 24.7053 30.8421C24.6931 30.6302 24.6753 30.3251 24.6535 29.9483C24.6429 29.7597 24.6312 29.5528 24.6187 29.331C24.6112 29.2204 24.6112 29.1045 24.5841 28.9905C24.5702 28.9341 24.5491 28.8777 24.515 28.8292C24.4809 28.7807 24.4344 28.7392 24.3792 28.7142C24.3247 28.689 24.2594 28.6828 24.2025 28.7061C24.1454 28.7286 24.0996 28.7769 24.0724 28.8338C24.0451 28.8906 24.0355 28.9574 24.0501 29.0202C24.064 29.0836 24.0981 29.1424 24.1432 29.1909C24.234 29.2905 24.3676 29.3423 24.5044 29.3637C24.6422 29.3846 24.7852 29.3872 24.9285 29.3841C25.072 29.3798 25.2136 29.3639 25.3502 29.3351C25.4181 29.3202 25.4848 29.3008 25.5458 29.2706C25.6068 29.2406 25.6615 29.1993 25.7008 29.1458C25.7404 29.093 25.7656 29.0291 25.7659 28.9648C25.7673 28.9002 25.738 28.8388 25.6934 28.7946C25.6022 28.7063 25.4596 28.6802 25.3478 28.7284C25.234 28.7747 25.1503 28.8717 25.1001 28.9758C25.0497 29.0814 25.0315 29.1962 25.025 29.3061C25.0188 29.4165 25.0228 29.5238 25.0257 29.6267C25.0291 29.7297 25.0351 29.8286 25.0418 29.9226C25.0701 30.2992 25.1128 30.6023 25.1404 30.8118C25.1546 30.916 25.1656 30.9969 25.1733 31.053C25.1769 31.0799 25.1796 31.1008 25.1815 31.1159C25.1836 31.1296 25.1839 31.137 25.1839 31.137Z"
        fill="white" />
    <path
        d="M24.2958 31.173C24.2992 31.1761 24.3047 31.2567 24.3133 31.3971C24.3217 31.5599 24.3318 31.7543 24.3433 31.9813L24.3378 31.9671C24.4734 32.1234 24.6263 32.2998 24.7917 32.4901L24.7684 32.48C24.9335 32.4707 25.1099 32.4608 25.293 32.4505L25.2709 32.4615C25.3552 32.3586 25.4428 32.2518 25.5323 32.1426C25.5765 32.0888 25.6204 32.0355 25.6633 31.983L25.6564 32.0034C25.6494 31.6957 25.6427 31.4046 25.6365 31.1391L25.665 31.1663C25.2827 31.1706 24.9513 31.1742 24.6846 31.1771C24.5783 31.1771 24.4849 31.1768 24.4014 31.1768C24.3349 31.1761 24.298 31.1751 24.2958 31.173C24.2937 31.1708 24.3261 31.1679 24.3892 31.1641C24.4708 31.1598 24.562 31.155 24.6657 31.1497C24.9369 31.1391 25.2743 31.1257 25.6633 31.1106L25.6912 31.1094L25.6921 31.1377C25.7001 31.4031 25.7089 31.6943 25.7181 32.0017L25.7183 32.0132L25.7109 32.0223C25.6679 32.0749 25.6242 32.1282 25.5801 32.1819C25.4903 32.2909 25.4025 32.3977 25.318 32.5004L25.3093 32.511L25.2959 32.5117C25.1128 32.5206 24.9364 32.5292 24.771 32.5374L24.7566 32.5381L24.7475 32.5273C24.5853 32.3341 24.4353 32.1553 24.3023 31.9969L24.2968 31.9904V31.9825C24.2946 31.7499 24.2927 31.5503 24.291 31.3835C24.2915 31.2443 24.2925 31.1699 24.2958 31.173Z"
        fill="white" />
    <path
        d="M25.6513 31.9325C25.6505 31.9339 25.633 31.9258 25.6016 31.9114C25.5701 31.897 25.5238 31.8775 25.4655 31.8574C25.3491 31.8171 25.1801 31.7794 24.9917 31.7851C24.8033 31.7907 24.6368 31.8387 24.523 31.8862C24.4659 31.9097 24.421 31.932 24.3903 31.9483C24.3596 31.9644 24.3428 31.9738 24.3418 31.9723C24.3411 31.9711 24.3567 31.9596 24.3862 31.9411C24.4157 31.9227 24.4599 31.8982 24.517 31.8725C24.6305 31.8211 24.7993 31.77 24.991 31.7643C25.1825 31.7583 25.3541 31.7991 25.4705 31.8435C25.5289 31.8655 25.5747 31.8874 25.6054 31.9039C25.6357 31.9207 25.6517 31.9313 25.6513 31.9325Z"
        fill="white" />
    <path
        d="M25.651 31.7216C25.6503 31.723 25.6328 31.7148 25.6013 31.7004C25.5699 31.686 25.5236 31.6666 25.4653 31.6464C25.3489 31.6061 25.1799 31.5684 24.9915 31.5742C24.8031 31.58 24.6365 31.6277 24.5228 31.6752C24.4657 31.6988 24.4208 31.7211 24.3903 31.7374C24.3596 31.7535 24.3428 31.7628 24.3418 31.7614C24.3411 31.7602 24.3567 31.7487 24.3862 31.7302C24.4157 31.7117 24.4601 31.6872 24.517 31.6616C24.6305 31.6102 24.7993 31.5591 24.9908 31.5533C25.1825 31.5473 25.3539 31.5881 25.4703 31.6325C25.5289 31.6546 25.5745 31.6764 25.6052 31.693C25.6354 31.7098 25.6515 31.7204 25.651 31.7216Z"
        fill="white" />
    <path
        d="M25.6373 31.5223C25.6366 31.5238 25.6191 31.5156 25.5877 31.5012C25.556 31.4868 25.5099 31.4674 25.4516 31.4472C25.3352 31.4069 25.1662 31.3692 24.9778 31.375C24.7894 31.3807 24.6229 31.4285 24.5091 31.476C24.452 31.4995 24.4071 31.5219 24.3766 31.5382C24.3459 31.5543 24.3291 31.5636 24.3281 31.5622C24.3274 31.561 24.343 31.5495 24.3725 31.531C24.4021 31.5125 24.4465 31.488 24.5033 31.4623C24.6169 31.411 24.7856 31.3599 24.9771 31.3541C25.1689 31.3481 25.3402 31.3889 25.4566 31.4333C25.5152 31.4554 25.5608 31.4772 25.5915 31.4938C25.622 31.5106 25.6381 31.5214 25.6373 31.5223Z"
        fill="white" />
    <path
        d="M14.0078 17.8438C14.0078 17.8438 14.0534 23.219 14.3268 24.859L21.0686 24.54C21.0686 24.54 20.4763 19.2557 20.7041 17.8438H14.0078Z"
        fill="#EBEBEB" />
    <path
        d="M19.6881 20.1011C19.6902 20.1376 18.6791 20.2281 17.4301 20.3032C16.1807 20.3783 15.1662 20.4098 15.1641 20.3733C15.1619 20.3368 16.1728 20.2463 17.4222 20.1712C18.6712 20.0961 19.6859 20.0647 19.6881 20.1011Z"
        fill="white" />
    <path
        d="M19.69 21.2398C19.6922 21.2763 18.6811 21.3668 17.4321 21.4419C16.1824 21.517 15.1682 21.5485 15.166 21.512C15.1639 21.4755 16.1747 21.385 17.4242 21.3099C18.6734 21.2348 19.6879 21.2033 19.69 21.2398Z"
        fill="white" />
    <path
        d="M18.5444 22.3583C18.5466 22.3947 17.9713 22.4591 17.2597 22.5018C16.5478 22.5445 15.969 22.5498 15.9668 22.5133C15.9646 22.4768 16.5397 22.4127 17.2518 22.3698C17.9634 22.3271 18.542 22.3218 18.5444 22.3583Z"
        fill="white" />
    <path
        d="M13.6895 33.6584C13.6895 33.6584 13.7351 39.0337 14.0084 40.6736L20.7503 40.3547C20.7503 40.3547 20.1582 35.0704 20.3859 33.6582H13.6895V33.6584Z"
        fill="#EBEBEB" />
    <path
        d="M19.3697 35.9155C19.3719 35.952 18.3607 36.0424 17.1118 36.1176C15.8623 36.1927 14.8479 36.2241 14.8457 36.1876C14.8435 36.1512 15.8544 36.0607 17.1039 35.9856C18.3528 35.9104 19.3675 35.8792 19.3697 35.9155Z"
        fill="white" />
    <path
        d="M19.3717 37.0542C19.3738 37.0906 18.3627 37.1811 17.1137 37.2562C15.8643 37.3314 14.8498 37.3628 14.8477 37.3263C14.8455 37.2898 15.8564 37.1994 17.1058 37.1242C18.3548 37.0491 19.3695 37.0179 19.3717 37.0542Z"
        fill="white" />
    <path
        d="M18.226 38.1727C18.2282 38.2092 17.6529 38.2735 16.9413 38.3162C16.2295 38.359 15.6506 38.3642 15.6484 38.3278C15.6463 38.2913 16.2213 38.2272 16.9334 38.1842C17.645 38.1415 18.2239 38.1362 18.226 38.1727Z"
        fill="white" />
    <path d="M32.1152 19.2695L32.7829 34.7733L52.1375 35.0068L51.2687 19.4743L32.1152 19.2695Z"
        fill="#EBEBEB" />
    <path d="M51.1163 19.1582H31.8906V33.6756H51.1163V19.1582Z" fill="#F5F5F5" />
    <path
        d="M51.1157 33.6752C51.1157 33.6752 51.1118 33.5816 51.1097 33.4059C51.1082 33.2264 51.1063 32.9676 51.1034 32.6312C51.1001 31.9505 51.0955 30.9588 51.0895 29.6936C51.0828 27.1623 51.0729 23.54 51.0612 19.1578L51.1154 19.212C45.6804 19.2154 39.0461 19.2195 31.8914 19.2238H31.8897L31.9557 19.1578C31.9533 24.379 31.9512 29.3225 31.9493 33.6752L31.8897 33.6156C37.5782 33.6279 42.3768 33.6382 45.7577 33.6454C47.4485 33.6521 48.7838 33.6576 49.7018 33.6612C50.1571 33.6644 50.508 33.6668 50.7501 33.6684C50.8668 33.6699 50.9563 33.6711 51.0213 33.6718C51.083 33.6728 51.1157 33.6752 51.1157 33.6752C51.1157 33.6752 51.0873 33.6776 51.0285 33.6785C50.9652 33.6792 50.8776 33.6804 50.7638 33.6819C50.5243 33.6836 50.1775 33.686 49.7273 33.6891C48.8124 33.6929 47.4816 33.6982 45.7968 33.7049C42.4065 33.7121 37.5945 33.7224 31.8902 33.7347L31.8307 33.7349V33.6752C31.8288 29.3225 31.8266 24.379 31.8242 19.1578V19.0918H31.8905H31.8921C39.0468 19.0961 45.6811 19.1002 51.1161 19.1036H51.1706L51.1704 19.1578C51.1586 23.5541 51.149 27.1882 51.1421 29.7276C51.1361 30.9876 51.1313 31.9752 51.1281 32.653C51.1255 32.9849 51.1233 33.2403 51.1219 33.4174C51.1197 33.5895 51.1157 33.6752 51.1157 33.6752Z"
        fill="#E0E0E0" />
    <path d="M42.0025 22.2324H34.209V32.041H42.0025V22.2324Z" fill="#F5F5F5" />
    <path
        d="M42.0028 32.0417C42.0016 32.0405 42.0006 32.0239 41.9994 31.9922C41.9985 31.955 41.9975 31.9097 41.9961 31.8528C41.9944 31.7237 41.992 31.5449 41.9891 31.3164C41.9855 30.8424 41.98 30.1624 41.9733 29.304C41.9661 27.5774 41.9557 25.1344 41.9437 22.2333L42.0028 22.2926C39.6803 22.2945 37.0223 22.2969 34.21 22.2996C34.1944 22.3135 34.3343 22.1755 34.2753 22.2353V22.2379V22.2432V22.2537V22.2751V22.3176V22.4025V22.5722V22.9104C34.2753 23.1352 34.2753 23.3592 34.275 23.5819C34.2748 24.0273 34.2745 24.468 34.2745 24.9036C34.2738 25.7745 34.2731 26.6246 34.2724 27.4488C34.2695 29.0961 34.2666 30.6401 34.264 32.0417L34.209 31.9867C36.5473 31.9985 38.4875 32.0083 39.8517 32.015C40.5285 32.021 41.062 32.0258 41.4349 32.0292C41.613 32.0318 41.7522 32.034 41.8547 32.0354C41.9505 32.0376 42.0028 32.0417 42.0028 32.0417C42.0047 32.0436 41.9586 32.0457 41.8667 32.0476C41.7669 32.0491 41.631 32.0512 41.4575 32.0539C41.0874 32.0573 40.5582 32.0621 39.8867 32.0681C38.5139 32.075 36.562 32.0849 34.2095 32.0964L34.1548 32.0966L34.1545 32.0414C34.1521 30.6398 34.1493 29.0959 34.1464 27.4485C34.1457 26.6244 34.1449 25.7743 34.1442 24.9033C34.144 24.4677 34.1437 24.0271 34.1437 23.5817C34.1437 23.3589 34.1437 23.135 34.1435 22.9101V22.572V22.4023V22.3173V22.2749V22.2535V22.2429V22.2377V22.235C34.0847 22.2933 34.2234 22.1524 34.2105 22.1671C37.0228 22.1695 39.6808 22.1719 42.0033 22.1741H42.0628L42.0625 22.2333C42.0503 25.1503 42.0402 27.6065 42.033 29.3424C42.0263 30.1951 42.021 30.8705 42.0174 31.3413C42.0145 31.565 42.0121 31.7397 42.0105 31.866C42.009 31.9202 42.0081 31.9636 42.0071 31.9989C42.0049 32.0284 42.0037 32.0429 42.0028 32.0417Z"
        fill="#E0E0E0" />
    <path d="M49.444 19.9883H34.5078V21.4016H49.444V19.9883Z" fill="#F5F5F5" />
    <path
        d="M49.4436 21.4015C49.4419 21.3998 49.4402 21.3669 49.4383 21.3048C49.4366 21.2359 49.4347 21.1454 49.432 21.0307C49.4284 20.7852 49.4234 20.4362 49.4169 19.9884L49.4436 20.015C46.9248 20.038 41.1832 20.0544 34.5084 20.0544H34.5076C34.6396 19.9224 34.5441 20.0179 34.5736 19.9886V19.9891V19.9905V19.9934V19.9992V20.0104V20.033V20.0784V20.1691V20.3498C34.5736 20.4698 34.5736 20.5893 34.5736 20.7076C34.5736 20.9443 34.5736 21.1768 34.5734 21.4017L34.5076 21.336C38.6846 21.347 42.4068 21.3568 45.0948 21.364C46.4347 21.3722 47.5164 21.3789 48.2724 21.3837C48.6417 21.3876 48.9312 21.3907 49.1371 21.3928C49.2312 21.3948 49.3058 21.3962 49.3636 21.3974C49.4148 21.3986 49.4419 21.4 49.4436 21.4015C49.445 21.4029 49.421 21.4046 49.3725 21.406C49.3168 21.4072 49.2448 21.4087 49.1544 21.4106C48.952 21.4128 48.6676 21.4159 48.3048 21.4197C47.5526 21.4243 46.476 21.431 45.1425 21.4392C42.4425 21.4464 38.7036 21.4562 34.5076 21.4672L34.4419 21.4675V21.4015C34.4419 21.1764 34.4416 20.944 34.4416 20.7074C34.4416 20.5891 34.4416 20.4696 34.4416 20.3496V20.1688V20.0781V20.0328V20.0102V19.9989V19.9932V19.9903V19.9888V19.9884C34.4712 19.9588 34.3756 20.0541 34.5079 19.9219H34.5086C41.1835 19.9219 46.925 19.938 49.4438 19.9612L49.4709 19.9615L49.4704 19.9881C49.464 20.4427 49.4587 20.7967 49.4551 21.046C49.4524 21.1584 49.4503 21.2469 49.4488 21.3141C49.4469 21.3739 49.4452 21.4032 49.4436 21.4015Z"
        fill="#E0E0E0" />
    <path d="M49.4438 22.2324H42.957V28.1439H49.4438V22.2324Z" fill="#F5F5F5" />
    <path
        d="M49.4446 28.1447C49.4424 28.1426 49.4405 28.1037 49.4383 28.0305C49.4366 27.9487 49.4345 27.8426 49.4318 27.7096C49.4282 27.4207 49.4234 27.0155 49.4172 26.5046C49.4102 25.4644 49.4002 23.9961 49.3884 22.2333L49.4446 22.2895C47.5709 22.2923 45.3432 22.2957 42.9583 22.2993C42.9432 22.3135 43.0829 22.1745 43.0238 22.2343V22.2359V22.2391V22.2453V22.2578V22.283V22.3334V22.4339V22.6346C43.0238 22.768 43.0238 22.9012 43.0238 23.0335C43.0236 23.2984 43.0236 23.5607 43.0234 23.8207C43.0229 24.3403 43.0222 24.8495 43.0217 25.3456C43.0195 26.3373 43.0176 27.2767 43.0157 28.1443L42.9576 28.0862C44.8814 28.0982 46.4933 28.1083 47.6366 28.1155C48.1994 28.1219 48.6461 28.1272 48.9641 28.1308C49.1114 28.1337 49.2286 28.1359 49.3183 28.1375C49.3994 28.1402 49.4422 28.1423 49.4446 28.1447C49.4467 28.1469 49.4081 28.1491 49.3313 28.1515C49.2444 28.1531 49.1309 28.1553 48.9883 28.1582C48.6737 28.1618 48.2311 28.1671 47.6741 28.1733C46.5216 28.1805 44.8968 28.1906 42.9578 28.2026L42.9 28.2031L42.8998 28.1447C42.8978 27.2771 42.8959 26.3378 42.8938 25.3461C42.8933 24.85 42.8928 24.3407 42.8921 23.8211C42.8918 23.5612 42.8918 23.2987 42.8916 23.0339C42.8916 22.9015 42.8916 22.7685 42.8916 22.6351V22.4344V22.3334V22.283V22.2578V22.2453V22.2391V22.2359V22.2343C42.8326 22.2928 42.972 22.1527 42.9583 22.1671C45.3432 22.1707 47.5709 22.174 49.4446 22.1769H49.5012L49.5007 22.2331C49.4887 24.0105 49.4789 25.4913 49.4719 26.5401C49.4657 27.0455 49.4609 27.4466 49.4573 27.7324C49.4546 27.8608 49.4525 27.9633 49.4508 28.0425C49.4486 28.1121 49.4465 28.1467 49.4446 28.1447Z"
        fill="#E0E0E0" />
    <path d="M49.4438 29.0723H42.957V32.0425H49.4438V29.0723Z" fill="#F5F5F5" />
    <path
        d="M49.4446 32.0426C49.4413 32.0392 49.4379 31.9651 49.4343 31.8273C49.4314 31.678 49.4274 31.4796 49.4223 31.2309C49.4161 30.7068 49.4072 29.9731 49.3964 29.0724L49.4444 29.1204C47.7526 29.1252 45.4702 29.1314 42.9582 29.1384C42.8989 29.1974 43.0381 29.0577 43.0237 29.0726V29.0733V29.0748V29.0779V29.0839V29.0961V29.1206V29.1696V29.267V29.4614C43.0237 29.5905 43.0234 29.7192 43.0234 29.8468C43.0232 30.1022 43.023 30.3547 43.0227 30.6031C43.0218 31.0999 43.021 31.5813 43.0203 32.0421L42.9577 31.9795C44.8287 31.9915 46.4384 32.002 47.5964 32.0092C48.1635 32.0164 48.6193 32.0224 48.9481 32.0265C49.0978 32.0296 49.2186 32.0323 49.3131 32.0344C49.3971 32.0376 49.442 32.04 49.4446 32.0426C49.4473 32.0452 49.4074 32.0476 49.3282 32.0503C49.237 32.0524 49.1206 32.0548 48.9762 32.0582C48.6507 32.0625 48.1998 32.0683 47.6386 32.0755C46.4701 32.0829 44.8458 32.0932 42.9577 32.1055L42.895 32.106V32.0428C42.8943 31.582 42.8934 31.1006 42.8926 30.6038C42.8924 30.3552 42.8922 30.1029 42.8919 29.8476C42.8919 29.7199 42.8917 29.5912 42.8917 29.4621V29.2677V29.1703V29.1213V29.0968V29.0846V29.0786V29.0755V29.074V29.0733C42.8773 29.0872 43.017 28.9478 42.9582 29.0068C45.4702 29.0138 47.7529 29.0203 49.4444 29.0248L49.4929 29.0251L49.4924 29.0731C49.4816 29.9858 49.473 30.7296 49.4667 31.2607C49.4617 31.5048 49.4578 31.6996 49.4547 31.8463C49.4511 31.9783 49.448 32.046 49.4446 32.0426Z"
        fill="#E0E0E0" />
    <path d="M41.8098 22.25C39.3973 25.5826 36.6215 28.7089 34.209 32.0415L41.8098 22.25Z"
        fill="white" />
    <path
        d="M34.2094 32.0417C34.2058 32.0391 34.2278 32.0014 34.273 31.9323C34.3282 31.8514 34.3954 31.7527 34.4765 31.6335C34.6548 31.375 34.9214 31.0075 35.2567 30.5575C35.9263 29.6568 36.8846 28.4379 37.9579 27.1047C39.0314 25.7712 40.0003 24.5628 40.6882 23.6775C41.022 23.2464 41.2968 22.8917 41.5013 22.6277C41.5903 22.5144 41.6642 22.4208 41.7247 22.3438C41.777 22.2797 41.8063 22.2473 41.8099 22.2502C41.8135 22.2528 41.7917 22.2905 41.7463 22.3596C41.6911 22.4405 41.6239 22.5391 41.5428 22.6582C41.3645 22.9164 41.0978 23.2841 40.7626 23.7341C40.093 24.6348 39.1344 25.854 38.0609 27.1875C36.9878 28.5204 36.019 29.7288 35.3311 30.6142C34.9973 31.0452 34.7225 31.3999 34.518 31.6639C34.4287 31.7772 34.355 31.8708 34.2946 31.9479C34.2422 32.0119 34.2132 32.0443 34.2094 32.0417Z"
        fill="#E0E0E0" />
    <path
        d="M42.0031 32.0412C41.9745 32.064 40.2065 29.8864 38.0546 27.1783C35.9021 24.4692 34.1808 22.2554 34.2093 22.2326C34.2379 22.21 36.0055 24.3868 38.1581 27.096C40.3099 29.8041 42.0317 32.0184 42.0031 32.0412Z"
        fill="#E0E0E0" />
    <path
        d="M32.7822 22.2544C32.7822 22.9278 32.2362 23.4736 31.563 23.4736C30.8895 23.4736 30.3438 22.9276 30.3438 22.2544C30.3438 21.5809 30.8895 21.0352 31.563 21.0352C32.2364 21.0352 32.7822 21.5812 32.7822 22.2544Z"
        fill="#E0E0E0" />
    <path
        d="M52.7236 19.2954C52.7236 19.9688 52.1778 20.5146 51.5044 20.5146C50.8309 20.5146 50.2852 19.9688 50.2852 19.2954C50.2852 18.6219 50.8312 18.0762 51.5044 18.0762C52.1776 18.0762 52.7236 18.6219 52.7236 19.2954Z"
        fill="#E0E0E0" />
    <path
        d="M88.1019 103.838C88.1019 103.937 88.1019 109.303 88.1019 109.303H87.1895V109.896H88.1019V113.554H105.159V110.226H103.895V109.501H105.159V108.413H105.721V107.919H105.054V103.838H88.1019Z"
        fill="#F5F5F5" />
    <path
        d="M100.631 103.854V113.493H105.161V110.165H103.897V109.501L105.161 109.523V108.436L105.733 108.437L105.722 107.875L105.055 107.858V103.838L100.631 103.854Z"
        fill="#E0E0E0" />
    <path
        d="M100.953 109.818C100.953 109.852 97.8662 109.879 94.0598 109.879C90.2519 109.879 87.166 109.852 87.166 109.818C87.166 109.785 90.2519 109.758 94.0598 109.758C97.8664 109.758 100.953 109.785 100.953 109.818Z"
        fill="#E0E0E0" />
    <path
        d="M100.953 109.264C100.953 109.297 97.8662 109.324 94.0598 109.324C90.2519 109.324 87.166 109.297 87.166 109.264C87.166 109.23 90.2519 109.203 94.0598 109.203C97.8664 109.203 100.953 109.23 100.953 109.264Z"
        fill="#E0E0E0" />
    <path
        d="M101.838 107.769C101.838 107.803 98.7509 107.83 94.9445 107.83C91.1367 107.83 88.0508 107.803 88.0508 107.769C88.0508 107.736 91.1367 107.709 94.9445 107.709C98.7512 107.709 101.838 107.736 101.838 107.769Z"
        fill="#E0E0E0" />
    <path
        d="M101.924 111.84C101.924 111.873 98.8369 111.9 95.0305 111.9C91.2226 111.9 88.1367 111.873 88.1367 111.84C88.1367 111.806 91.2226 111.779 95.0305 111.779C98.8369 111.779 101.924 111.806 101.924 111.84Z"
        fill="#E0E0E0" />
    <path
        d="M36.6043 86.4976H49.6163C50.5319 86.4976 51.2743 85.7553 51.2743 84.8397V80.8307C51.2743 79.2878 50.0234 78.0371 48.4807 78.0371H36.5059L36.6043 86.4976Z"
        fill="#EBEBEB" />
    <path
        d="M49.3981 89.0195H23.8115C23.1153 89.0195 22.5508 88.455 22.5508 87.7588C22.5508 87.0625 23.1153 86.498 23.8115 86.498H49.3981C50.0944 86.498 50.6589 87.0625 50.6589 87.7588C50.6589 88.455 50.0944 89.0195 49.3981 89.0195Z"
        fill="#EBEBEB" />
    <path
        d="M18.5984 52.9054L32.6744 52.6562L41.6098 86.4247L22.5519 86.616L15.3687 57.0125C14.8611 54.9204 16.4458 52.9054 18.5984 52.9054Z"
        fill="#E0E0E0" />
    <path d="M25.61 89.0195L21.3984 113.495H22.5521L28.0894 89.0195H25.61Z" fill="#EBEBEB" />
    <path d="M35.538 89.0195L31.0625 113.495H32.2162L38.0177 89.0195H35.538Z" fill="#E0E0E0" />
    <path d="M46.5205 89.0195L51.5137 113.495H50.3597L44.041 89.0195H46.5205Z" fill="#EBEBEB" />
    <path
        d="M31.0625 52.6562L38.0285 86.4607H43.3707L37.7847 56.5911C37.3625 54.3108 35.3734 52.6562 33.0545 52.6562H31.0625Z"
        fill="#EBEBEB" />
    <path
        d="M109.589 113.629C109.589 113.663 87.3859 113.691 60.0031 113.691C32.6107 113.691 10.4121 113.663 10.4121 113.629C10.4121 113.594 32.6107 113.566 60.0031 113.566C87.3859 113.566 109.589 113.594 109.589 113.629Z"
        fill="#263238" />
    <path d="M46.6861 113.7H28.3359L29.7246 100.342L46.6861 100.232V113.7Z" fill="#E8505B" />
    <g opacity="0.4">
        <path d="M46.6861 113.7H28.3359L29.7246 100.342L46.6861 100.232V113.7Z" fill="black" />
    </g>
    <path d="M49.3616 100.232H31.0117V113.7H49.3616V100.232Z" fill="#E8505B" />
    <g opacity="0.2">
        <path d="M49.3616 100.232H31.0117V113.7H49.3616V100.232Z" fill="black" />
    </g>
    <path
        d="M49.5185 106.752C49.5185 106.786 45.3898 106.814 40.2977 106.814C35.2039 106.814 31.0762 106.786 31.0762 106.752C31.0762 106.717 35.2042 106.689 40.2977 106.689C45.3898 106.689 49.5185 106.718 49.5185 106.752Z"
        fill="#263238" />
    <path
        d="M34.2811 108.048C34.2466 108.048 34.2188 107.597 34.2188 107.04C34.2188 106.483 34.2468 106.031 34.2811 106.031C34.3157 106.031 34.3436 106.483 34.3436 107.04C34.3436 107.597 34.3155 108.048 34.2811 108.048Z"
        fill="#263238" />
    <path
        d="M47.0331 107.977C46.9985 107.977 46.9707 107.574 46.9707 107.076C46.9707 106.579 46.9988 106.176 47.0331 106.176C47.0677 106.176 47.0955 106.579 47.0955 107.076C47.0957 107.574 47.0677 107.977 47.0331 107.977Z"
        fill="#263238" />
    <path
        d="M42.9996 100.301C42.9871 100.301 42.9965 100.156 42.9552 99.9023C42.9137 99.6505 42.8059 99.2859 42.5489 98.9063C42.2947 98.5275 41.8874 98.1414 41.3361 97.8896C40.7885 97.6345 40.1179 97.5083 39.4185 97.5267C38.7185 97.5438 38.0544 97.6926 37.5096 97.9563C36.9629 98.2174 36.5477 98.5926 36.2851 98.9667C36.0189 99.3399 35.8903 99.6963 35.8353 99.9464C35.7787 100.197 35.7761 100.342 35.7641 100.341C35.7597 100.341 35.7578 100.305 35.7578 100.237C35.7583 100.168 35.7638 100.066 35.7876 99.9368C35.8289 99.6791 35.9476 99.3073 36.2126 98.9163C36.473 98.5249 36.898 98.1279 37.4592 97.8531C38.0181 97.5755 38.6997 97.4197 39.4157 97.4022C40.1313 97.3832 40.8213 97.5159 41.3853 97.7857C41.9527 98.0518 42.371 98.4613 42.6228 98.858C42.8786 99.2564 42.976 99.6363 43.0034 99.8958C43.0183 100.026 43.019 100.128 43.0132 100.197C43.0084 100.266 43.0039 100.301 42.9996 100.301Z"
        fill="#263238" />
    <path
        d="M36.1158 48.2884C36.9714 47.847 37.9789 47.7894 38.9286 47.9466C39.4388 48.0308 39.9709 48.1837 40.3182 48.567C40.6654 48.9503 40.7312 49.6249 40.3326 49.9542C40.0952 50.1503 39.7642 50.18 39.4566 50.1764C38.713 50.1678 37.8879 50.0368 37.2939 50.4844C36.955 50.7395 36.7294 51.164 36.3241 51.2896C35.9276 51.4124 35.4802 51.1784 35.27 50.8206C35.0598 50.4628 35.0528 50.0156 35.1507 49.6122C35.1507 49.6122 35.2539 48.7331 36.1158 48.2884Z"
        fill="#E8505B" />
    <path
        d="M34.1561 44.5046C34.6793 45.2517 35.6962 45.0045 36.1675 44.5482C36.6389 44.0922 36.8383 43.431 37.0195 42.8008C37.434 41.3606 37.8518 39.8495 37.5437 38.3829C37.4515 37.9444 37.2876 37.5071 36.9794 37.1817C36.6713 36.8565 36.1975 36.6628 35.7643 36.7773C35.2517 36.9126 34.933 37.415 34.7028 37.8926C34.0258 39.2966 33.6674 40.8532 33.6622 42.412C33.6595 43.1402 33.7452 43.9036 34.1561 44.5046Z"
        fill="#E8505B" />
    <path
        d="M32.7183 45.5767C33.2864 44.9025 33.3942 43.9193 33.1415 43.0747C32.8887 42.2301 32.3175 41.5116 31.6597 40.925C30.8881 40.2374 29.9811 39.7022 29.006 39.3592C28.6223 39.2244 28.2176 39.1178 27.8127 39.1564C27.4079 39.1951 27.0001 39.4022 26.8112 39.7624C26.5319 40.295 26.7997 40.9411 27.0894 41.4681C27.5996 42.3967 28.1831 43.2849 28.8323 44.1223C29.3547 44.7957 29.9531 45.4603 30.7494 45.7646C31.5455 46.0689 32.3725 46.0332 32.7947 45.4809"
        fill="#E8505B" />
    <path
        d="M34.119 55.7756C34.1288 55.7761 34.1447 55.6552 34.1663 55.436C34.1903 55.1888 34.2205 54.8785 34.2565 54.5094C34.2997 54.1196 34.3566 53.6555 34.4648 53.1503C34.5728 52.6463 34.7418 52.1 34.9587 51.5461C35.1836 50.9956 35.4577 50.4949 35.7779 50.0946C36.0959 49.6926 36.4657 49.4015 36.8135 49.2337C37.16 49.0626 37.4708 48.993 37.6856 48.962C37.9023 48.9397 38.0235 48.9227 38.0238 48.9131C38.0238 48.9035 37.9023 48.9018 37.6799 48.9078C37.4593 48.9224 37.1358 48.9784 36.7705 49.1444C36.404 49.3069 36.0116 49.6024 35.678 50.0128C35.3418 50.4215 35.0576 50.9329 34.8289 51.4933C34.6081 52.0571 34.4415 52.6088 34.3383 53.1236C34.2356 53.6377 34.1886 54.1069 34.1576 54.5C34.1281 54.8934 34.1171 55.2121 34.1118 55.4324C34.107 55.653 34.1094 55.7752 34.119 55.7756Z"
        fill="#263238" />
    <path
        d="M34.1828 55.0629C34.1876 55.0627 34.1907 55.0084 34.1919 54.9052C34.1917 54.7869 34.1912 54.6379 34.1907 54.4548C34.1895 54.0638 34.1898 53.4981 34.2107 52.7992C34.2452 51.402 34.3657 49.8979 34.598 47.7777C34.8181 45.784 35.1135 43.4637 35.4251 41.9553C35.492 41.6121 35.5592 41.3035 35.6226 41.0332C35.6831 40.7623 35.7347 40.5285 35.7843 40.3396C35.8271 40.1618 35.8619 40.0168 35.8897 39.9016C35.9123 39.8011 35.9219 39.7476 35.9173 39.7461C35.9127 39.7447 35.894 39.7956 35.8626 39.8937C35.8283 40.007 35.7848 40.15 35.7318 40.3255C35.6737 40.5127 35.6142 40.7448 35.5465 41.0148C35.4757 41.284 35.4015 41.592 35.3283 41.9347C35.0199 43.3015 34.6933 45.2119 34.4588 47.3373C34.226 49.462 34.1211 51.3964 34.1118 52.7973C34.1034 53.4976 34.1183 54.0648 34.1363 54.456C34.1475 54.6388 34.1564 54.7879 34.1639 54.9062C34.1715 55.0094 34.178 55.0632 34.1828 55.0629Z"
        fill="#263238" />
    <path
        d="M34.1928 51.3313C34.2024 51.3311 34.201 51.1638 34.1895 50.8607C34.1722 50.5583 34.1307 50.121 34.0452 49.5855C33.955 49.0513 33.8288 48.417 33.6305 47.7279C33.5446 47.4128 33.3428 46.6578 32.8536 45.5298C32.2092 44.0012 31.334 42.7515 30.5722 41.9775C30.3936 41.7721 30.1947 41.624 30.0356 41.4786C29.9532 41.409 29.8805 41.3396 29.8064 41.2844C29.7317 41.2331 29.6624 41.1853 29.598 41.1409C29.3475 40.9695 29.2071 40.8791 29.2018 40.8872C29.1792 40.9177 29.7632 41.2614 30.5004 42.0457C31.2348 42.8283 32.0856 44.0694 32.7248 45.5852C33.0812 46.4072 33.3298 47.1407 33.506 47.7632C33.7097 48.4458 33.8451 49.0736 33.9473 49.6023C34.0445 50.1325 34.1007 50.5652 34.1348 50.8647C34.1631 51.1652 34.1832 51.3315 34.1928 51.3313Z"
        fill="#263238" />
    <path d="M30.5859 57.9141L30.9599 63.0361H37.5402L37.9141 57.9141H30.5859Z" fill="#263238" />
    <path d="M38.6999 55.8945H29.9512V57.9134H38.6999V55.8945Z" fill="#263238" />
    <path d="M29.9512 62.8398V63.3995H30.3623H38.5554V62.8398H29.9512Z" fill="#455A64" />
    <path d="M30.7643 64.3851L30.3613 63.4004H38.241L37.7708 64.3851H30.7643Z" fill="#455A64" />
    <path
        d="M37.7923 59.5872C37.7938 59.5884 37.7835 59.6045 37.7616 59.6342C37.7355 59.6688 37.7031 59.7117 37.6632 59.7645C37.5699 59.8841 37.4415 60.0485 37.2799 60.2551L37.2629 60.2769L37.2463 60.2541C37.0054 59.9208 36.6835 59.4758 36.3046 58.9517H36.3588C36.0787 59.3484 35.7667 59.7902 35.4317 60.2645L35.4027 60.3055L35.37 60.2669C35.0278 59.8598 34.6563 59.4177 34.2703 58.9586L34.3337 58.9579C34.3145 58.9819 34.2939 59.0078 34.2732 59.034C33.9322 59.4614 33.6022 59.8754 33.2899 60.2666L33.2571 60.3077L33.2268 60.2649C32.893 59.7926 32.5812 59.3513 32.2992 58.9524L32.3532 58.955C31.896 59.4758 31.5084 59.9177 31.2108 60.2568L31.1904 60.2798L31.1751 60.2539C31.0243 60.0009 30.9043 59.7991 30.8172 59.6529C30.7798 59.5877 30.7495 59.5349 30.7255 59.4929C30.7054 59.4564 30.6958 59.4369 30.6975 59.4357C30.6991 59.4348 30.7123 59.4521 30.7359 59.4864C30.7625 59.5269 30.7961 59.5776 30.8374 59.6405C30.9288 59.784 31.0548 59.982 31.213 60.2304L31.1772 60.2275C31.47 59.8843 31.8516 59.4372 32.3014 58.9099L32.3297 58.8765L32.3554 58.9123C32.6398 59.3095 32.9547 59.7487 33.2914 60.2189L33.2285 60.2172C33.54 59.8253 33.8691 59.4108 34.2094 58.9826C34.23 58.9565 34.2509 58.9305 34.2699 58.9065L34.3011 58.8672L34.3332 58.9056C34.7179 59.3654 35.0885 59.8085 35.4298 60.2165L35.3681 60.2189C35.7065 59.7468 36.0216 59.3073 36.3046 58.9125L36.3319 58.8744L36.3588 58.9125C36.7299 59.4425 37.0447 59.8925 37.2807 60.2292L37.2473 60.2282C37.4153 60.0269 37.5487 59.8668 37.6459 59.7501C37.6891 59.7 37.7244 59.6594 37.7527 59.6265C37.7775 59.5997 37.7907 59.586 37.7923 59.5872Z"
        fill="#E0E0E0" />
    <path
        d="M38.0055 57.8809C38.0055 57.9034 36.3567 57.9219 34.3232 57.9219C32.2889 57.9219 30.6406 57.9037 30.6406 57.8809C30.6406 57.8583 32.2892 57.8398 34.3232 57.8398C36.3567 57.8401 38.0055 57.8583 38.0055 57.8809Z"
        fill="#455A64" />
    <path
        d="M38.338 63.4551C38.338 63.4777 36.5461 63.4961 34.3362 63.4961C32.1256 63.4961 30.334 63.4779 30.334 63.4551C30.334 63.4325 32.1256 63.4141 34.3362 63.4141C36.5461 63.4143 38.338 63.4325 38.338 63.4551Z"
        fill="#263238" />
    <path d="M72.3841 64.5H91.6504V63.5628H72.3841V64.5Z" fill="#263238" />
    <path d="M94.6375 64.4995L98.2511 50.957H83.2079L79.9355 64.4995H94.6375Z" fill="#263238" />
    <path d="M80.8359 63.4733H94.275L97.4031 51.582H83.895L80.8359 63.4733Z" fill="#455A64" />
    <path
        d="M94.3679 63.5942H80.6816L83.8021 51.4629H97.5589L94.3679 63.5942ZM80.991 63.3542H94.1828L97.2479 51.7029H83.9884L80.991 63.3542Z"
        fill="#263238" />
    <path d="M33.6509 67.1289H32.6777V113.583H33.6509V67.1289Z" fill="#455A64" />
    <path d="M34.6234 67.2617H33.6504V113.582H34.6234V67.2617Z" fill="#263238" />
    <path d="M93.5941 67.1289H92.6211V113.583H93.5941V67.1289Z" fill="#455A64" />
    <path d="M94.5669 67.2617H93.5938V113.582H94.5669V67.2617Z" fill="#263238" />
    <path d="M108.142 64.4297H21.3984V68.2397H108.142V64.4297Z" fill="#455A64" />
    <path d="M93.1079 68.2402H60.5723V74.5467H93.1079V68.2402Z" fill="#455A64" />
    <path
        d="M78.2899 70.9575C78.2899 71.3578 77.9652 71.6825 77.5649 71.6825C77.1646 71.6825 76.8398 71.3578 76.8398 70.9575C76.8398 70.5569 77.1646 70.2324 77.5649 70.2324C77.9652 70.2324 78.2899 70.5571 78.2899 70.9575Z"
        fill="#263238" />
    <path
        d="M100.196 68.2401C100.196 68.2747 88.9227 68.3025 75.02 68.3025C61.1124 68.3025 49.8418 68.2747 49.8418 68.2401C49.8418 68.2056 61.1124 68.1777 75.02 68.1777C88.9227 68.1777 100.196 68.2056 100.196 68.2401Z"
        fill="#263238" />
    <path
        d="M70.1709 23.4043C70.301 23.4043 72.0559 23.6969 72.0559 23.6969L74.4283 26.6865L74.7859 27.2532L71.5852 29.2992L70.1711 27.2066L68.9688 26.4266C68.9688 26.4266 69.4888 25.9716 70.2362 26.2965C70.9835 26.6215 71.7311 26.5891 71.7311 26.5891L71.3088 25.3867L70.0084 25.1265L70.1709 23.4043Z"
        fill="#EB996E" />
    <path
        d="M70.3244 21.3104C70.5358 21.2567 70.7475 21.3952 70.7818 21.6107C70.9767 22.8376 71.5635 26.5276 71.7488 27.6169C71.779 27.7952 71.6693 27.9659 71.4948 28.0141L68.6571 28.7989C68.4497 28.8563 68.2397 28.7161 68.2131 28.5025L67.4501 22.3751C67.4271 22.1896 67.5456 22.016 67.7268 21.97L70.3244 21.3104Z"
        fill="#263238" />
    <path
        d="M68.4243 28.042L71.3026 27.2402L70.5392 22.1418C70.4955 21.8505 70.2082 21.6618 69.9236 21.7374L67.6172 22.3506L68.4243 28.042Z"
        fill="#EBEBEB" />
    <path
        d="M71.2465 24.3125L69.9512 25.2852C69.9512 25.2852 70.0589 25.6255 70.256 25.651C70.453 25.6764 71.4958 25.3867 71.4958 25.3867L71.2465 24.3125Z"
        fill="#EB996E" />
    <path
        d="M71.0891 23.5391L69.7343 24.1321C69.7343 24.1321 69.6459 24.5737 70.154 24.5127L69.6992 24.8379C69.6992 24.8379 69.812 25.035 70.3794 25.0585C70.9467 25.082 71.4956 24.2963 71.4956 24.2963L71.0891 23.5391Z"
        fill="#EB996E" />
    <path
        d="M72.4333 25.0473C72.4314 25.0658 72.2684 25.0327 72.0877 24.8661C71.996 24.7876 71.9 24.6844 71.7764 24.605C71.6528 24.5224 71.5028 24.4843 71.3473 24.55C70.7183 24.8692 70.185 25.1431 70.1701 25.1068C70.1593 25.079 70.6429 24.7665 71.3036 24.4329C71.3936 24.3976 71.4987 24.3818 71.5947 24.4005C71.6907 24.418 71.7721 24.462 71.8403 24.5092C71.9771 24.606 72.0675 24.719 72.1484 24.802C72.3049 24.9763 72.4379 25.031 72.4333 25.0473Z"
        fill="#D1734A" />
    <path
        d="M72.1693 28.4269C72.1494 28.4516 71.8158 28.0532 71.7544 27.4407C71.6857 26.8287 71.9281 26.3694 71.9529 26.3893C71.9898 26.4008 71.8129 26.8532 71.8787 27.4275C71.9349 28.0026 72.2029 28.4077 72.1693 28.4269Z"
        fill="#D1734A" />
    <path
        d="M71.989 24.1357C71.9731 24.1487 71.9004 24.0477 71.7269 23.9915C71.5548 23.9298 71.2961 23.9442 71.0398 24.0705C70.7832 24.1924 70.561 24.3481 70.3781 24.4242C70.1969 24.5049 70.0716 24.5157 70.0685 24.5001C70.0639 24.4821 70.1753 24.4422 70.338 24.3455C70.5031 24.2536 70.7119 24.0887 70.9875 23.9569C71.1257 23.8933 71.2697 23.8509 71.4067 23.8446C71.5433 23.8384 71.6659 23.8662 71.7595 23.9092C71.9508 23.9987 72.0024 24.1319 71.989 24.1357Z"
        fill="#D1734A" />
    <path
        d="M71.8867 32.6309L78.9413 37.1597L77.0714 42.5066C77.0714 42.5066 72.2443 41.0169 72.3348 40.8607C72.4253 40.7045 71.8867 32.6309 71.8867 32.6309Z"
        fill="#E8505B" />
    <path
        d="M70.0617 105.018L68.9524 110.127C68.9524 110.127 73.7738 112.971 73.6605 113.935L63.6758 112.14L65.0776 104.107L70.0617 105.018Z"
        fill="#263238" />
    <path
        d="M63.6758 112.14L63.8488 111.336L73.3574 113.358C73.3574 113.358 73.7671 113.631 73.6605 113.935L63.6758 112.14Z"
        fill="#455A64" />
    <path
        d="M58.7053 105.58L58.5404 110.806C58.5404 110.806 63.7972 112.729 63.8608 113.698L53.716 113.742L53.6387 105.588L58.7053 105.58Z"
        fill="#263238" />
    <g opacity="0.6">
        <path
            d="M53.7168 113.742L53.741 112.92L63.4586 113.185C63.4586 113.185 63.911 113.38 63.8614 113.698L53.7168 113.742Z"
            fill="#455A64" />
    </g>
    <path
        d="M60.1756 19.8856L61.2095 31.8748L67.2143 31.3953C67.2518 30.6943 67.2016 27.9818 67.2016 27.9818C67.2016 27.9818 69.7 27.5932 69.7307 25.0953C69.7456 23.8824 69.5723 21.3751 69.3897 19.1167C69.1874 16.6111 67.0214 14.7266 64.5119 14.8732C61.913 15.0252 59.9519 17.292 60.1756 19.8856Z"
        fill="#EB996E" />
    <path
        d="M67.2058 27.945C67.2058 27.945 65.6271 28.0734 63.9492 27.0195C63.9492 27.0195 64.7189 28.8174 67.2115 28.5923L67.2058 27.945Z"
        fill="#D1734A" />
    <path
        d="M68.4208 20.8693C68.4275 21.0577 68.2734 21.2187 68.0769 21.2293C67.8806 21.2398 67.7159 21.0961 67.7092 20.9077C67.7025 20.7193 67.8566 20.558 68.0529 20.5474C68.2492 20.5369 68.4141 20.6811 68.4208 20.8693Z"
        fill="#263238" />
    <path
        d="M68.8552 20.3771C68.8111 20.4236 68.5408 20.2235 68.1568 20.2247C67.7733 20.2201 67.4918 20.4176 67.45 20.3706C67.4296 20.3497 67.4745 20.2657 67.5972 20.1764C67.7179 20.0874 67.9238 20.001 68.1631 20.002C68.4021 20.0034 68.6035 20.0912 68.7189 20.1815C68.837 20.2722 68.8771 20.3562 68.8552 20.3771Z"
        fill="#263238" />
    <path
        d="M64.7352 20.8693C64.742 21.0577 64.5879 21.2185 64.3913 21.2293C64.195 21.2398 64.0304 21.0961 64.0236 20.9077C64.0169 20.7193 64.171 20.5582 64.3673 20.5474C64.5637 20.5366 64.7285 20.6809 64.7352 20.8693Z"
        fill="#263238" />
    <path
        d="M65.0818 20.4493C65.0374 20.4959 64.7669 20.296 64.3834 20.2969C63.9999 20.2924 63.7181 20.4899 63.6766 20.4429C63.6562 20.422 63.7009 20.3382 63.824 20.2487C63.9447 20.1597 64.1506 20.0733 64.3897 20.0742C64.6287 20.0757 64.8298 20.1635 64.9455 20.2537C65.0633 20.3442 65.1034 20.4285 65.0818 20.4493Z"
        fill="#263238" />
    <path
        d="M66.4748 23.2964C66.4728 23.2745 66.7116 23.2332 67.0983 23.1838C67.1962 23.1737 67.2891 23.1543 67.3056 23.0873C67.3287 23.0165 67.2876 22.9109 67.2401 22.7967C67.148 22.5596 67.0515 22.3109 66.9502 22.0503C66.5477 20.9876 66.2564 20.1137 66.2991 20.0979C66.342 20.082 66.7032 20.9304 67.1057 21.9934C67.2027 22.2555 67.2953 22.5053 67.3834 22.7444C67.4204 22.8557 67.4842 22.9822 67.4343 23.1291C67.4079 23.2023 67.3359 23.2556 67.273 23.2724C67.2101 23.2916 67.1549 23.2925 67.1067 23.2954C66.7174 23.3165 66.4762 23.3182 66.4748 23.2964Z"
        fill="#263238" />
    <path
        d="M65.3454 23.5606C65.4078 23.557 65.4085 23.9736 65.7651 24.2693C66.1213 24.5659 66.5653 24.5191 66.5687 24.5775C66.5744 24.6036 66.4698 24.6583 66.2823 24.6634C66.0985 24.6696 65.8299 24.6106 65.6118 24.4296C65.3943 24.2482 65.3007 24.0063 65.2866 23.8354C65.2703 23.6614 65.3168 23.5582 65.3454 23.5606Z"
        fill="#263238" />
    <path
        d="M65.1814 18.9439C65.1435 19.0483 64.7602 18.9988 64.3099 19.0531C63.8585 19.0982 63.4951 19.2302 63.4356 19.1366C63.409 19.0917 63.4723 18.9936 63.6192 18.8925C63.7647 18.7917 63.997 18.6957 64.2672 18.6657C64.5375 18.6362 64.7851 18.6792 64.9491 18.7459C65.1144 18.8121 65.1977 18.8942 65.1814 18.9439Z"
        fill="#263238" />
    <path
        d="M68.7152 19.2649C68.6478 19.352 68.3833 19.2615 68.0653 19.2572C67.7476 19.2418 67.478 19.3157 67.4161 19.2245C67.389 19.1804 67.4312 19.093 67.5491 19.0105C67.665 18.9281 67.8589 18.8609 68.0773 18.8677C68.2957 18.8746 68.4851 18.9536 68.5957 19.0429C68.708 19.1326 68.745 19.2224 68.7152 19.2649Z"
        fill="#263238" />
    <path
        d="M62.888 17.1475C62.8835 17.1511 62.8789 17.1547 62.8744 17.1583C62.4767 17.4724 62.2136 17.927 62.144 18.4288C62.1416 18.4466 62.1392 18.4634 62.1371 18.4792C62.0394 19.1918 62.0572 19.9166 61.9525 20.628C61.8479 21.3396 61.6014 22.0634 61.0753 22.5535C60.8588 22.7551 60.4763 22.894 60.2982 22.6576C60.2293 22.5662 60.218 22.4452 60.2092 22.3312C60.076 20.6109 59.606 19.0845 59.6094 17.2857C59.6104 16.7961 59.8408 16.3365 60.2387 16.0514C60.6152 15.7814 61.0753 15.5016 61.4936 15.6996C61.9134 15.8983 62.4546 16.6814 62.7791 17.0136"
        fill="#263238" />
    <path
        d="M61.0185 21.0162C60.976 20.9977 59.3023 20.5086 59.3568 22.2164C59.4113 23.9243 61.1145 23.5172 61.116 23.468C61.1174 23.4188 61.0185 21.0162 61.0185 21.0162Z"
        fill="#EB996E" />
    <path
        d="M60.5743 22.8373C60.5666 22.832 60.5453 22.8592 60.4956 22.8836C60.4474 22.9076 60.3636 22.9259 60.2734 22.8954C60.091 22.8349 59.9297 22.5534 59.9117 22.2457C59.9023 22.0904 59.9302 21.9414 59.9813 21.8171C60.0295 21.6904 60.1075 21.6006 60.1978 21.5816C60.2875 21.5579 60.3535 21.6102 60.3761 21.6575C60.4006 21.7045 60.3907 21.7388 60.3998 21.7415C60.4049 21.7456 60.4356 21.7117 60.4195 21.6416C60.4114 21.608 60.39 21.5684 60.349 21.5368C60.307 21.5048 60.246 21.4897 60.1831 21.4986C60.0516 21.512 59.9371 21.6368 59.8807 21.7734C59.8174 21.9107 59.7823 22.0782 59.7929 22.2527C59.8147 22.5964 60.0012 22.9129 60.2503 22.9763C60.3715 23.0039 60.4704 22.9643 60.521 22.9225C60.5726 22.8788 60.5803 22.8404 60.5743 22.8373Z"
        fill="#D1734A" />
    <path
        d="M61.4371 15.9632C61.0166 15.2799 62.1686 14.299 63.0115 14.0331C63.8544 13.7674 64.9646 14.1783 65.8034 14.4564C66.3326 14.6319 66.8602 14.8769 67.4172 14.8539C67.7909 14.8385 68.1473 14.7027 68.4998 14.5779C68.8524 14.4533 69.2194 14.3367 69.5923 14.3621C69.9653 14.3876 70.3495 14.586 70.4911 14.9321C70.6327 15.2782 70.4299 15.7524 70.0596 15.8038C70.5322 15.5441 71.2159 15.8854 71.2927 16.4192C71.3695 16.9529 70.8101 17.473 70.2833 17.358C70.5262 17.174 70.8984 17.478 70.8684 17.7812C70.8384 18.0843 70.5634 18.3051 70.2845 18.4275C69.5724 18.7402 68.742 18.6404 68.0047 18.3924C67.2674 18.1443 66.5839 17.7579 65.8531 17.4915C65.1223 17.2251 63.8983 16.747 63.1649 17.0057C62.6249 17.1963 62.249 17.8467 61.944 17.7032C61.6493 17.5644 61.4623 17.2556 61.4035 16.9352C61.3447 16.615 61.3908 16.2855 61.4371 15.9632Z"
        fill="#263238" />
    <path
        d="M70.2643 15.7568C70.2501 15.7484 70.1762 15.883 69.9929 16.0825C69.8093 16.2783 69.4994 16.5358 69.0439 16.6933C68.5965 16.8495 67.9884 16.8999 67.4153 16.6275C66.8342 16.3676 66.3374 15.8468 65.7653 15.356C65.1945 14.8611 64.5206 14.4949 63.8457 14.4339C63.1747 14.3701 62.5548 14.6161 62.2125 14.9993C61.8681 15.3865 61.7995 15.8278 61.8252 16.1033C61.8377 16.2442 61.8732 16.3486 61.8986 16.4173C61.9293 16.4845 61.9488 16.5173 61.9538 16.5152C61.9697 16.5099 61.8984 16.3693 61.8905 16.1C61.8852 15.8374 61.9709 15.4275 62.2994 15.0809C62.6244 14.7387 63.2033 14.521 63.8301 14.5887C64.4599 14.654 65.0985 15.0015 65.6558 15.4849C66.2172 15.9644 66.7296 16.4991 67.3512 16.7693C67.9701 17.0533 68.6217 16.9844 69.0842 16.8053C69.5575 16.6251 69.8678 16.3409 70.0418 16.1257C70.128 16.016 70.188 15.9257 70.2199 15.8595C70.2542 15.7947 70.2693 15.7594 70.2643 15.7568Z"
        fill="#455A64" />
    <path
        d="M60.5844 20.9407C60.5906 20.9465 60.6581 20.8937 60.7226 20.7583C60.7877 20.6249 60.8388 20.405 60.8078 20.1393C60.7699 19.5893 60.2834 18.9986 60.2215 18.2386C60.1838 17.8632 60.2496 17.4969 60.4106 17.2193C60.5702 16.9421 60.8203 16.7618 61.0454 16.6711C61.2729 16.5766 61.4791 16.5758 61.6157 16.5936C61.7529 16.6154 61.8266 16.6474 61.8329 16.6339C61.8369 16.627 61.7724 16.5737 61.6291 16.5295C61.4875 16.4897 61.2595 16.4705 61.0039 16.5595C60.7512 16.6447 60.4665 16.8305 60.2767 17.1406C60.0883 17.4478 60.0129 17.8519 60.0537 18.2549C60.0885 18.66 60.2361 19.0265 60.383 19.3313C60.5292 19.6375 60.6513 19.9116 60.6897 20.1564C60.7795 20.6561 60.5592 20.9326 60.5844 20.9407Z"
        fill="#455A64" />
    <path
        d="M70.6082 109.399C70.6082 109.399 75.8085 83.8889 75.8126 83.3782L66.5231 78.4668L62.9258 108.405L70.6082 109.399Z"
        fill="#263238" />
    <path
        d="M58.9102 110.256L66.0937 66.0405V56.5039L55.6902 57.2469C55.5663 57.6185 52.9434 110.314 52.9434 110.314L53.9562 110.255H58.9102"
        fill="#263238" />
    <path d="M71.741 55.8281L75.8133 83.3782L66.7092 81.1702L62.998 56.7236L71.741 55.8281Z"
        fill="#263238" />
    <path
        d="M73.3106 67.6946C73.3106 67.6946 74.8925 66.3355 75.0504 65.3092C75.2083 64.283 73.1508 47.7847 73.1508 47.7847L72.1025 34.1471C72.1025 34.3879 72.1303 32.4287 71.8137 32.3109C70.8444 31.9495 68.8807 31.2916 68.8807 31.2916L67.7539 30.2793C67.7539 30.2793 69.7785 38.9378 70.1731 41.3056L73.3106 67.6946Z"
        fill="#E8505B" />
    <path
        d="M60.3056 29.3438L58.6021 30.4775L52.2109 32.992L55.0484 43.6979L54.669 49.9065L54.3047 53.854C54.3047 53.854 52.4029 63.6285 50.7227 69.5685C50.7227 69.5685 52.5963 73.1209 54.1376 73.6163L54.7784 73.9969L57.0627 57.2665L59.0245 54.6196C59.2127 54.3657 59.3888 54.1048 59.5542 53.8355C60.0356 53.0507 61.1339 51.267 62.0094 49.8913C63.1652 48.0748 64.6515 43.9463 64.2111 42.1849C63.7705 40.4233 60.3056 29.3438 60.3056 29.3438Z"
        fill="#E8505B" />
    <path d="M55.9629 66.2528C57.4557 65.047 58.7066 63.5429 59.62 61.8555L55.9629 66.2528Z"
        fill="#263238" />
    <path
        d="M60.3054 29.3446L61.8438 39.2146C61.8248 40.2163 61.6328 41.6052 61.221 42.936L58.4754 51.8088C58.4754 51.8088 56.318 56.6496 57.0625 57.2676C57.807 57.8856 63.6152 57.2676 63.6152 57.2676L71.4726 56.1274C71.8369 56.0746 72.0956 55.7448 72.0601 55.3783L70.893 43.3251C70.5006 42.4925 70.3386 40.7899 70.1744 40.1837L67.7552 30.2801L67.2606 30.2158L66.1849 30.9543L65.6195 30.9994L60.8634 28.6992L60.3054 29.3446Z"
        fill="#EBEBEB" />
    <path
        d="M58.8725 50.5256C60.1421 46.5687 61.7858 40.1348 61.7858 40.1348C62.2973 43.5 61.7374 46.9397 60.4865 50.1056C59.4655 52.6901 58.2293 54.6437 57.3782 57.289L57.3528 57.3987C57.3528 57.3987 56.873 57.4234 56.9059 56.7159C56.939 56.0086 57.6192 53.9021 58.0848 52.734C58.5504 51.566 58.8725 50.5256 58.8725 50.5256Z"
        fill="#E0E0E0" />
    <path
        d="M66.4577 31.7969H65.391L65.0703 33.2578L66.0046 34.3891L66.9454 34.2953L67.2519 33.2467L66.9999 32.6611L66.4577 31.7969Z"
        fill="#E8505B" />
    <path
        d="M72.6864 40.3315C73.0239 40.399 76.7343 42.8952 78.0836 42.6252C79.4328 42.3554 80.5236 41.0849 80.6672 40.9142C81.4323 40.0061 80.9528 38.1238 80.7327 37.4131C80.6787 37.2386 80.6045 37.0733 80.5128 36.9154L74.7848 27.0703L71.4082 29.1223L74.9127 35.5181L72.6864 40.3315Z"
        fill="#E8505B" />
    <path
        d="M45.0544 52.2272C44.5876 51.0603 44.6954 49.7415 45.2625 48.62C46.0403 47.0816 47.272 44.5962 47.5312 43.7814C47.9166 42.5703 51.5054 33.2696 52.2102 32.9922L55.3386 43.5236L51.7149 51.1575L55.9629 59.1603L52.4142 62.9751C52.4142 62.9751 45.7149 53.6346 45.1643 52.4787C45.125 52.3959 45.0882 52.3119 45.0544 52.2272Z"
        fill="#E8505B" />
    <path
        d="M56.1206 65.4051C56.8956 64.6758 57.473 63.95 57.894 63.3114C57.8842 63.2857 57.8825 63.2638 57.8916 63.2473C57.9048 63.2235 57.9317 63.211 57.9641 63.2033C58.1974 62.84 58.3812 62.5095 58.5211 62.2268C57.9276 61.8409 57.1526 61.2572 57.9958 61.1372C59.0333 60.9896 59.7751 60.4851 59.881 60.2091C59.9866 59.9331 59.641 59.6852 59.3676 59.8616C59.1466 60.0041 58.7047 60.1273 58.369 60.2062C58.092 60.2713 57.8059 60.2912 57.523 60.2597C57.1934 60.2233 55.8425 59.6372 55.6068 59.5938L53.0801 62.2539C53.0801 62.2539 55.019 64.3102 56.1206 65.4051Z"
        fill="#EB996E" />
    <path
        d="M72.6611 40.6244C72.6527 40.6263 72.6218 40.5207 72.5731 40.328C72.5236 40.1355 72.461 39.855 72.3914 39.5065C72.2517 38.81 72.0971 37.839 72.0002 36.7583C71.9042 35.6773 71.8845 34.694 71.8986 33.9839C71.9054 33.6287 71.9174 33.3414 71.932 33.1431C71.9459 32.9449 71.9574 32.8357 71.9661 32.8359C71.9747 32.8364 71.9795 32.9463 71.9805 33.1446C71.9822 33.368 71.9843 33.6491 71.987 33.9839C71.9956 34.6923 72.0292 35.6706 72.1247 36.747C72.2215 37.8229 72.3616 38.7918 72.4785 39.4904C72.5351 39.8204 72.5829 40.0976 72.6208 40.3177C72.6546 40.5133 72.6695 40.6225 72.6611 40.6244Z"
        fill="#263238" />
    <path
        d="M75.6088 41.1939C75.6074 41.198 75.5798 41.191 75.5284 41.174C75.4773 41.1564 75.4039 41.1243 75.3141 41.0727C75.137 40.9683 74.9006 40.7698 74.7045 40.454C74.4991 40.141 74.3796 39.71 74.2687 39.2441C74.1583 38.7747 74.051 38.2563 73.9816 37.7016C73.8808 36.5919 73.7966 35.5959 73.7419 34.8701C73.7186 34.5269 73.6989 34.2392 73.6836 34.0116C73.6725 33.8086 73.6706 33.696 73.6792 33.6953C73.6879 33.6946 73.7061 33.8057 73.732 34.0073C73.758 34.2341 73.7908 34.5207 73.83 34.8627C73.907 35.5844 74.0061 36.5878 74.1057 37.6872C74.1741 38.233 74.2773 38.7512 74.381 39.2182C74.4861 39.686 74.5927 40.1028 74.7804 40.4084C74.9596 40.718 75.1771 40.9181 75.3408 41.0316C75.5064 41.1442 75.6132 41.1831 75.6088 41.1939Z"
        fill="#263238" />
    <g opacity="0.3">
        <path
            d="M73.6656 33.7148C73.3732 34.82 73.1704 35.949 73.0598 37.0871C72.9936 37.7684 72.9624 38.4704 73.1673 39.1235C73.372 39.7765 73.8559 40.3789 74.5178 40.5536C74.2164 38.3274 73.9497 36.0966 73.7181 33.862"
            fill="black" />
    </g>
    <g opacity="0.3">
        <path
            d="M54.0137 55.2917C54.0137 55.2917 55.1378 57.5938 55.7592 58.7988C57.0552 53.4444 55.411 47.8092 55.9471 42.3262L55.0102 44.2147L54.7452 48.5854L54.5438 51.1488C54.5438 51.1493 54.353 53.9067 54.0137 55.2917Z"
            fill="black" />
    </g>
    <path
        d="M54.9206 33.09C54.9281 33.0857 54.9955 33.1922 55.1112 33.389C55.1702 33.4869 55.2393 33.6084 55.3106 33.754C55.3831 33.8992 55.4714 34.062 55.5504 34.2506C55.7217 34.6219 55.8948 35.0779 56.056 35.5944C56.2104 36.1128 56.3486 36.6926 56.442 37.3104C56.5303 37.9291 56.5646 38.5243 56.566 39.0653C56.5603 39.6062 56.5255 40.0929 56.4684 40.4978C56.447 40.7011 56.4091 40.8825 56.3815 41.0424C56.3551 41.2024 56.3239 41.3388 56.2956 41.4494C56.2413 41.6712 56.2075 41.7926 56.1991 41.7907C56.1907 41.7888 56.2085 41.6635 56.2478 41.4398C56.2687 41.3282 56.2929 41.1914 56.3126 41.0311C56.3335 40.871 56.3652 40.6903 56.3805 40.4877C56.4261 40.0845 56.4513 39.6016 56.4508 39.066C56.4432 38.5303 56.4055 37.9416 56.3181 37.3291C56.2257 36.7176 56.0923 36.1432 55.9454 35.628C55.7916 35.1148 55.6286 34.6596 55.469 34.2866C55.396 34.0973 55.3135 33.9329 55.2475 33.7857C55.1827 33.6379 55.1201 33.5138 55.068 33.4128C54.9662 33.209 54.9132 33.0943 54.9206 33.09Z"
        fill="#263238" />
    <path
        d="M51.6708 51.2208C51.653 51.2316 51.4944 50.9669 51.1816 50.5841C50.8692 50.2061 50.3925 49.6995 49.7625 49.2989C49.4469 49.1043 49.097 49.0097 48.784 49.0635C48.4711 49.1115 48.2109 49.2576 48.0081 49.3928C47.6037 49.6724 47.3808 49.8905 47.3656 49.8725C47.3601 49.8665 47.41 49.8072 47.5087 49.7086C47.6083 49.6109 47.754 49.4696 47.9575 49.3203C48.1591 49.1727 48.426 49.009 48.766 48.9495C49.1068 48.8835 49.4983 48.9872 49.8266 49.1914C50.4809 49.6078 50.9498 50.1305 51.251 50.5294C51.401 50.73 51.5085 50.9021 51.5774 51.0238C51.6468 51.1457 51.6777 51.217 51.6708 51.2208Z"
        fill="#263238" />
    <path
        d="M50.8876 48.6977C50.9147 48.6811 51.2263 49.1779 51.4468 49.8624C51.6705 50.5459 51.7103 51.131 51.6787 51.1334C51.6417 51.1387 51.5476 50.5711 51.328 49.9008C51.112 49.2297 50.8547 48.7149 50.8876 48.6977Z"
        fill="#263238" />
    <path
        d="M53.9404 55.1446C53.9478 55.1408 54.0117 55.25 54.1211 55.4516C54.2385 55.6736 54.3916 55.9633 54.5769 56.3132C54.9582 57.0452 55.4802 58.0654 56.0582 59.21L56.0781 59.2494L56.0476 59.2813C55.9718 59.3605 55.8904 59.4452 55.8086 59.5306C54.8658 60.5127 54.0074 61.3971 53.3814 62.0329C53.0783 62.3369 52.8273 62.589 52.6358 62.7812C52.4577 62.9559 52.3562 63.0498 52.3499 63.0438C52.3437 63.0378 52.4332 62.9326 52.6005 62.7476C52.7848 62.5484 53.0262 62.287 53.3176 61.9717C53.9272 61.3203 54.7754 60.4263 55.7183 59.4442C55.8002 59.359 55.8815 59.2743 55.9576 59.1951L55.9468 59.2664C55.371 58.1209 54.862 57.0942 54.5008 56.3521C54.3297 55.9947 54.1881 55.6993 54.0796 55.473C53.9829 55.2646 53.9332 55.1485 53.9404 55.1446Z"
        fill="#263238" />
    <path
        d="M58.6134 50.3149C58.6091 50.3147 58.6072 50.2434 58.6074 50.1078C58.6091 49.9612 58.6115 49.7634 58.6146 49.5145C58.6266 48.9875 58.6434 48.2454 58.6641 47.3336C58.6907 46.4128 58.7111 45.3172 58.7615 44.0989C58.8198 42.8838 58.9185 41.5336 59.2991 40.1692C59.4875 39.4943 59.7395 38.8523 60.0568 38.271L60.1019 38.361C59.7954 38.3154 59.5274 38.1431 59.3354 37.9259C59.1407 37.7089 59.009 37.4466 58.9348 37.1804C58.7862 36.6433 58.8148 36.1136 58.8095 35.6262C58.8102 34.6475 58.8107 33.7758 58.8112 33.0443C58.8155 32.3257 58.8191 31.7464 58.8215 31.3338C58.8251 31.142 58.8278 30.9894 58.8299 30.8742C58.833 30.7696 58.8364 30.7148 58.8402 30.7148C58.8441 30.7148 58.8479 30.7696 58.852 30.8742C58.8551 30.9894 58.8594 31.142 58.8645 31.3338C58.8707 31.7464 58.8796 32.3257 58.8906 33.044C58.8978 33.7756 58.9065 34.6472 58.9163 35.6257C58.9247 36.1151 58.9019 36.638 59.0466 37.1483C59.1186 37.4017 59.2425 37.6441 59.4244 37.8457C59.6034 38.0468 59.8475 38.2 60.1192 38.2398L60.2063 38.2525L60.1643 38.3298C59.8533 38.9029 59.6056 39.5358 59.4194 40.203C59.043 41.5513 58.9408 42.8927 58.8765 44.1047C58.8198 45.3196 58.7903 46.4166 58.7524 47.3365C58.7152 48.2478 58.6847 48.9894 58.6631 49.5162C58.6504 49.7646 58.6401 49.9621 58.6326 50.1088C58.6242 50.2441 58.6178 50.3152 58.6134 50.3149Z"
        fill="#263238" />
    <path
        d="M68.8992 31.4453C68.903 31.4441 68.9219 31.4893 68.9548 31.5771C68.9906 31.6765 69.0367 31.8046 69.0938 31.9635C69.2147 32.3151 69.3823 32.8023 69.5889 33.4035C69.7965 34.0205 70.043 34.7523 70.3185 35.5707C70.4503 35.9852 70.6137 36.4069 70.7368 36.8761C70.7915 37.111 70.8227 37.3678 70.7673 37.6229C70.7143 37.8733 70.5789 38.1293 70.3396 38.2762L70.3588 38.1889C70.5619 38.4893 70.775 38.8071 70.9747 39.1421C71.2694 39.6399 71.5168 40.159 71.6467 40.6961C71.7779 41.2345 71.7777 41.7706 71.7554 42.2693C71.6968 43.2677 71.6306 44.1622 71.5792 44.9158C71.5243 45.6577 71.4796 46.2632 71.4472 46.6983C71.4297 46.8985 71.4158 47.0593 71.405 47.1826C71.3939 47.2933 71.386 47.3511 71.3817 47.3509C71.3774 47.3506 71.3769 47.2921 71.3798 47.1809C71.3846 47.0573 71.3908 46.8961 71.3985 46.6952C71.4211 46.2593 71.4523 45.6531 71.4907 44.9101C71.5334 44.1526 71.584 43.2569 71.6399 42.2643C71.6591 41.7689 71.656 41.2448 71.5274 40.7249C71.3999 40.2046 71.158 39.6973 70.8667 39.2057C70.6696 38.8748 70.4579 38.5585 70.2556 38.258L70.2194 38.204L70.2748 38.1704C70.4762 38.0482 70.5991 37.825 70.648 37.5973C70.6991 37.3676 70.6725 37.129 70.6209 36.9027C70.505 36.4508 70.3415 36.0173 70.2139 35.6048C69.9482 34.783 69.7103 34.0484 69.5102 33.4289C69.3184 32.8229 69.1629 32.3317 69.0508 31.9772C69.0021 31.8154 68.963 31.6851 68.9325 31.5838C68.9071 31.4943 68.8953 31.4465 68.8992 31.4453Z"
        fill="#263238" />
    <path
        d="M59.5577 61.262C59.5647 61.2671 59.5253 61.3367 59.4483 61.4583C59.3712 61.58 59.2553 61.7531 59.1084 61.9645C58.8149 62.3874 58.3949 62.9617 57.9092 63.5792C57.4232 64.1967 56.964 64.7406 56.6223 65.1255C56.4514 65.318 56.3105 65.4716 56.2104 65.5751C56.1104 65.6787 56.052 65.7335 56.0456 65.7277C56.0321 65.7159 56.2308 65.4673 56.5548 65.0684C56.8788 64.6693 57.3262 64.1183 57.811 63.5022C58.2953 62.8861 58.7256 62.3216 59.0369 61.9127C59.3482 61.5035 59.5431 61.2517 59.5577 61.262Z"
        fill="#455A64" />
    <path
        d="M63.3194 58.1641C63.3194 58.1641 63.3182 58.2101 63.3093 58.2992C63.2995 58.393 63.2855 58.5241 63.2675 58.6945C63.2275 59.0465 63.1691 59.5573 63.0945 60.2127C62.939 61.5308 62.7047 63.4366 62.3985 65.7898C61.7911 70.4967 60.8687 76.9873 59.8783 84.1592C59.3846 87.7467 58.9312 91.166 58.5443 94.2795C58.4445 95.0581 58.3651 95.8181 58.2549 96.5549C58.1423 97.2893 58.0329 98.0026 57.9271 98.6921C57.718 100.071 57.5234 101.356 57.3455 102.529C56.9932 104.875 56.7146 106.775 56.5322 108.089C56.441 108.746 56.3738 109.257 56.3335 109.604C56.3133 109.777 56.3001 109.91 56.2943 109.999C56.2917 110.043 56.2905 110.077 56.2931 110.099C56.296 110.127 56.3092 110.097 56.3085 110.102C56.3085 110.102 56.3078 110.105 56.3049 110.111C56.3018 110.121 56.2857 110.113 56.2867 110.1C56.2816 110.077 56.2809 110.043 56.2814 109.998C56.2831 109.908 56.2922 109.775 56.3083 109.601C56.3404 109.253 56.3999 108.741 56.4837 108.083C56.6515 106.766 56.9167 104.864 57.2579 102.516C57.4312 101.342 57.6208 100.056 57.8243 98.6763C57.9283 97.9863 58.0355 97.273 58.1459 96.5381C58.2537 95.8047 58.3315 95.0425 58.4299 94.2649C58.8105 91.1504 59.2605 87.7297 59.7542 84.1419C60.7447 76.9695 61.6807 70.4813 62.3107 65.7781C62.6207 63.4294 62.8718 61.5272 63.046 60.2067C63.1307 59.5525 63.1967 59.0427 63.2423 58.6913C63.2656 58.5217 63.2836 58.3911 63.2966 58.2975C63.3095 58.2089 63.3194 58.1641 63.3194 58.1641Z"
        fill="#455A64" />
    <path
        d="M68.7949 109.163C68.7949 109.163 68.7985 109.118 68.812 109.032C68.8266 108.941 68.8475 108.814 68.8741 108.65C68.9322 108.309 69.0167 107.815 69.1249 107.182C69.3491 105.904 69.6719 104.063 70.0703 101.789C70.8812 97.2334 72.0001 90.9473 73.2359 84.0043C73.3261 83.5766 73.3576 83.1435 73.3124 82.7158C73.258 82.2898 73.1867 81.8585 73.124 81.4351C72.9928 80.5865 72.8634 79.7501 72.7362 78.9283C72.4775 77.2855 72.2224 75.7018 71.9706 74.1946C71.4695 71.1797 70.9856 68.4703 70.5532 66.1999C70.12 63.9298 69.7403 62.0983 69.4511 60.8388C69.3145 60.2071 69.1907 59.7209 69.1141 59.3895C69.0767 59.2275 69.0476 59.1019 69.0268 59.0124C69.0078 58.9272 69.0011 58.8828 69.0011 58.8828C69.0011 58.8828 69.016 58.9251 69.039 59.0093C69.0625 59.0983 69.0956 59.2227 69.1384 59.3835C69.2228 59.713 69.3544 60.1978 69.4981 60.828C69.802 62.0849 70.1951 63.9144 70.6396 66.1834C71.0831 68.4523 71.5763 71.1612 72.0836 74.1756C72.3385 75.6828 72.5963 77.2666 72.8567 78.9094C72.9846 79.7311 73.1144 80.5678 73.2464 81.4167C73.3098 81.8429 73.3801 82.2655 73.436 82.7033C73.4828 83.143 73.4497 83.5944 73.3578 84.0293C72.1081 90.9687 70.9768 97.2514 70.1567 101.805C69.7417 104.075 69.4057 105.914 69.1722 107.191C69.0541 107.822 68.962 108.314 68.8984 108.654C68.8664 108.817 68.8417 108.944 68.824 109.034C68.8072 109.12 68.7949 109.163 68.7949 109.163Z"
        fill="#455A64" />
    <path
        d="M66.0933 65.7285C66.1274 65.7338 65.7031 68.5903 65.1455 72.1077C64.588 75.6264 64.1083 78.4735 64.0742 78.4682C64.0401 78.4627 64.4644 75.6069 65.0219 72.0883C65.5797 68.5708 66.0592 65.723 66.0933 65.7285Z"
        fill="#455A64" />
    <path
        d="M58.9978 110.175C58.9986 110.184 58.9148 110.198 58.7626 110.216C58.6105 110.234 58.3899 110.255 58.117 110.276C57.5713 110.319 56.8155 110.359 55.9801 110.373C55.1444 110.387 54.3877 110.372 53.8407 110.347C53.5674 110.335 53.3461 110.322 53.1934 110.308C53.0408 110.295 52.9566 110.284 52.957 110.275C52.9578 110.257 53.2962 110.257 53.8429 110.259C54.3894 110.261 55.1442 110.262 55.9779 110.249C56.8112 110.235 57.5655 110.208 58.1118 110.188C58.6582 110.168 58.9964 110.157 58.9978 110.175Z"
        fill="#455A64" />
    <path
        d="M70.6082 109.399C70.607 109.408 70.4985 109.402 70.3032 109.384C70.0828 109.361 69.8064 109.331 69.4776 109.296C68.7811 109.217 67.8201 109.099 66.7595 108.961C65.6987 108.823 64.7395 108.692 64.0456 108.591C63.7187 108.541 63.4437 108.499 63.2248 108.466C63.0314 108.434 62.9248 108.413 62.9258 108.405C62.9265 108.396 63.0355 108.401 63.2308 108.418C63.4262 108.435 63.7084 108.464 64.0567 108.503C64.7534 108.582 65.7146 108.699 66.7754 108.837C67.8359 108.975 68.795 109.107 69.4886 109.209C69.8155 109.26 70.0903 109.302 70.3091 109.336C70.5028 109.369 70.6091 109.391 70.6082 109.399Z"
        fill="#455A64" />
    <path
        d="M60.4768 30.94C60.4821 30.933 60.5764 30.9945 60.7425 31.1111C60.9297 31.2409 61.1661 31.4049 61.4483 31.6005C62.0464 32.0099 62.8845 32.5588 63.8442 33.1072C64.2042 33.3136 64.5551 33.5056 64.8808 33.6777L64.7954 33.7163C64.9965 32.9209 65.1743 32.2372 65.3049 31.7531C65.3675 31.5289 65.4201 31.341 65.4628 31.1877C65.5019 31.0564 65.5262 30.9863 65.5329 30.988C65.5396 30.9897 65.5283 31.0631 65.5017 31.1975C65.4678 31.3533 65.4266 31.5438 65.3774 31.7713C65.2667 32.2605 65.1045 32.9481 64.911 33.7453L64.8933 33.8188L64.8256 33.784C64.497 33.6143 64.1435 33.4233 63.7821 33.2161C62.8182 32.6653 61.984 32.1023 61.3974 31.6732C61.1034 31.4593 60.8718 31.2779 60.7134 31.1505C60.556 31.0213 60.4715 30.9469 60.4768 30.94Z"
        fill="#263238" />
    <path
        d="M68.4084 32.7063C68.4223 32.7291 67.9822 33.0248 67.3481 33.4227L67.2948 33.4561L67.2655 33.3992C67.1635 33.201 67.0546 32.9893 66.941 32.7685C66.6926 32.2786 66.474 31.8322 66.3214 31.5063C66.1687 31.1804 66.0821 30.975 66.0975 30.967C66.1128 30.9591 66.2275 31.1506 66.4003 31.4665C66.5731 31.7821 66.8042 32.2222 67.0524 32.7118C67.1635 32.9341 67.2699 33.1467 67.3697 33.3464L67.2874 33.3231C67.9306 32.9403 68.3945 32.6835 68.4084 32.7063Z"
        fill="#263238" />
    <path
        d="M66.8359 32.4731C66.84 32.4786 66.7594 32.5415 66.6255 32.6387C66.4915 32.7359 66.3046 32.8672 66.0963 33.01C65.8879 33.1525 65.6976 33.2795 65.5587 33.369C65.4197 33.4588 65.3319 33.5111 65.3283 33.5053C65.3244 33.4996 65.4055 33.4364 65.5394 33.3395C65.6734 33.2423 65.8601 33.1112 66.0682 32.9687C66.276 32.8264 66.4661 32.6996 66.6051 32.6101C66.7438 32.5201 66.8319 32.4673 66.8359 32.4731Z"
        fill="#263238" />
    <path
        d="M66.1148 32.9693C66.1054 32.9794 65.8964 32.7819 65.6482 32.5277C65.3998 32.2736 65.2069 32.0602 65.2172 32.0511C65.2275 32.042 65.4366 32.2397 65.684 32.4927C65.9312 32.7456 66.1241 32.9592 66.1148 32.9693Z"
        fill="#263238" />
    <path
        d="M61.5939 54.2598C61.6354 54.2528 61.6225 55.0974 62.09 55.9895C62.5438 56.8888 63.2384 57.3695 63.2086 57.3993C63.2012 57.4105 63.019 57.3093 62.7697 57.0849C62.5205 56.8619 62.215 56.5036 61.9791 56.0466C61.7449 55.5892 61.6311 55.1322 61.5946 54.7998C61.5569 54.4664 61.5805 54.2593 61.5939 54.2598Z"
        fill="#263238" />
    <path
        d="M62.9887 57.4198C62.9863 57.451 62.4449 57.3968 61.8458 57.1131C61.2446 56.8333 60.8575 56.4512 60.8798 56.4296C60.9038 56.4001 61.3159 56.7291 61.8989 57.0001C62.4797 57.2756 62.9961 57.3826 62.9887 57.4198Z"
        fill="#263238" />
    <path
        d="M67.68 49.7383C67.6884 49.7362 67.7194 49.8278 67.7686 49.9958C67.8183 50.1636 67.8826 50.4082 67.9562 50.712C68.1036 51.3194 68.2786 52.1664 68.419 53.1103C68.5587 54.0547 68.6369 54.9161 68.6722 55.5403C68.6899 55.8523 68.6993 56.1053 68.7005 56.28C68.7022 56.455 68.6991 56.5517 68.6904 56.5519C68.6818 56.5524 68.6686 56.4564 68.6518 56.2826C68.6333 56.0822 68.6105 55.8365 68.5839 55.547C68.526 54.9262 68.4341 54.0698 68.2951 53.1288C68.1552 52.1882 67.9947 51.3422 67.8699 50.7312C67.8113 50.4463 67.7618 50.2046 67.7213 50.0074C67.6867 49.8362 67.6716 49.7405 67.68 49.7383Z"
        fill="#263238" />
    <path
        d="M66.0812 34.6348C65.7694 37.1279 65.538 42.5605 65.4521 45.0716C65.3801 47.1748 65.3878 49.2796 65.3952 51.3839C65.3976 52.0619 65.4048 52.7632 65.684 53.3809C66.1856 54.4914 67.4127 55.0489 68.5392 55.5126L66.0812 34.6348Z"
        fill="#E0E0E0" />
    <path
        d="M68.8846 55.1519L70.1734 51.9923L66.9447 34.2949L66.0039 34.389C66.0039 34.389 66.1352 52.7824 66.0937 52.9487L68.8846 55.1519Z"
        fill="#E8505B" />
    <path
        d="M66.9095 34.2958C66.9117 34.309 66.7123 34.3507 66.4627 34.3687C66.2128 34.3872 66.0095 34.375 66.0098 34.3615C66.0098 34.3474 66.2114 34.3373 66.459 34.3188C66.7065 34.3011 66.9074 34.2819 66.9095 34.2958Z"
        fill="#263238" />
</svg>
