<svg width="15" height="14" viewBox="0 0 15 14" fill="none" xmlns="http://www.w3.org/2000/svg">
    <path
        d="M10.6143 3.18435C10.4759 3.18435 10.3406 3.2254 10.2254 3.30232C10.1103 3.37924 10.0206 3.48856 9.96763 3.61647C9.91465 3.74438 9.90079 3.88513 9.9278 4.02091C9.95481 4.1567 10.0215 4.28143 10.1194 4.37932C10.2173 4.47722 10.342 4.54389 10.4778 4.5709C10.6136 4.59791 10.7543 4.58405 10.8822 4.53106C11.0101 4.47808 11.1195 4.38836 11.1964 4.27325C11.2733 4.15813 11.3144 4.0228 11.3144 3.88435C11.3144 3.6987 11.2406 3.52065 11.1093 3.38937C10.978 3.2581 10.8 3.18435 10.6143 3.18435ZM13.2977 4.59602C13.2863 4.11202 13.1957 3.63317 13.0293 3.17852C12.881 2.78951 12.6502 2.43726 12.3527 2.14602C12.0638 1.84701 11.7108 1.61762 11.3202 1.47518C10.8667 1.30378 10.3873 1.21105 9.90268 1.20102C9.28435 1.16602 9.08602 1.16602 7.49935 1.16602C5.91268 1.16602 5.71435 1.16602 5.09602 1.20102C4.61135 1.21105 4.13197 1.30378 3.67852 1.47518C3.28866 1.61906 2.93589 1.84826 2.64602 2.14602C2.34701 2.43487 2.11762 2.78794 1.97518 3.17852C1.80378 3.63197 1.71105 4.11135 1.70102 4.59602C1.66602 5.21435 1.66602 5.41268 1.66602 6.99935C1.66602 8.58602 1.66602 8.78435 1.70102 9.40268C1.71105 9.88734 1.80378 10.3667 1.97518 10.8202C2.11762 11.2108 2.34701 11.5638 2.64602 11.8527C2.93589 12.1504 3.28866 12.3796 3.67852 12.5235C4.13197 12.6949 4.61135 12.7876 5.09602 12.7977C5.71435 12.8327 5.91268 12.8327 7.49935 12.8327C9.08602 12.8327 9.28435 12.8327 9.90268 12.7977C10.3873 12.7876 10.8667 12.6949 11.3202 12.5235C11.7108 12.3811 12.0638 12.1517 12.3527 11.8527C12.6515 11.5625 12.8825 11.21 13.0293 10.8202C13.1957 10.3655 13.2863 9.88668 13.2977 9.40268C13.2977 8.78435 13.3327 8.58602 13.3327 6.99935C13.3327 5.41268 13.3327 5.21435 13.2977 4.59602ZM12.2477 9.33268C12.2434 9.70297 12.1764 10.0698 12.0493 10.4177C11.9562 10.6715 11.8066 10.9009 11.6118 11.0885C11.4226 11.2813 11.1937 11.4306 10.941 11.526C10.5932 11.653 10.2263 11.7201 9.85602 11.7243C9.27268 11.7535 9.05685 11.7593 7.52268 11.7593C5.98852 11.7593 5.77268 11.7593 5.18935 11.7243C4.80487 11.7315 4.42203 11.6723 4.05768 11.5493C3.81606 11.4491 3.59764 11.3001 3.41602 11.1118C3.2224 10.9245 3.07467 10.6949 2.98435 10.441C2.84193 10.0882 2.76294 9.71298 2.75102 9.33268C2.75102 8.74935 2.71602 8.53352 2.71602 6.99935C2.71602 5.46518 2.71602 5.24935 2.75102 4.66602C2.75363 4.28746 2.82274 3.91232 2.95518 3.55768C3.05788 3.31146 3.2155 3.09198 3.41602 2.91602C3.59324 2.71545 3.81227 2.55615 4.05768 2.44935C4.41325 2.32104 4.78801 2.25398 5.16602 2.25102C5.74935 2.25102 5.96518 2.21602 7.49935 2.21602C9.03352 2.21602 9.24935 2.21602 9.83268 2.25102C10.203 2.25526 10.5698 2.32233 10.9177 2.44935C11.1828 2.54773 11.4207 2.70768 11.6118 2.91602C11.803 3.0952 11.9524 3.31428 12.0493 3.55768C12.179 3.91289 12.2461 4.28789 12.2477 4.66602C12.2768 5.24935 12.2827 5.46518 12.2827 6.99935C12.2827 8.53352 12.2768 8.74935 12.2477 9.33268ZM7.49935 4.00685C6.90774 4.008 6.32974 4.18449 5.8384 4.51401C5.34705 4.84353 4.9644 5.3113 4.7388 5.85821C4.5132 6.40511 4.45477 7.00662 4.5709 7.58672C4.68702 8.16683 4.97249 8.69949 5.39123 9.11742C5.80997 9.53535 6.34319 9.81978 6.92352 9.93477C7.50385 10.0498 8.10524 9.99016 8.65171 9.7635C9.19817 9.53683 9.66519 9.15327 9.99376 8.66129C10.3223 8.1693 10.4977 7.59096 10.4977 6.99935C10.4985 6.60566 10.4214 6.2157 10.2709 5.85191C10.1204 5.48811 9.89951 5.15765 9.62086 4.87955C9.34221 4.60144 9.01132 4.38116 8.64723 4.23139C8.28314 4.08162 7.89304 4.00531 7.49935 4.00685ZM7.49935 8.94185C7.11516 8.94185 6.7396 8.82792 6.42015 8.61448C6.10071 8.40103 5.85174 8.09766 5.70471 7.74271C5.55769 7.38777 5.51922 6.99719 5.59417 6.62039C5.66913 6.24358 5.85413 5.89746 6.12579 5.62579C6.39746 5.35413 6.74358 5.16913 7.12039 5.09417C7.49719 5.01922 7.88777 5.05769 8.24271 5.20471C8.59766 5.35174 8.90103 5.60071 9.11448 5.92015C9.32792 6.2396 9.44185 6.61516 9.44185 6.99935C9.44185 7.25444 9.39161 7.50704 9.29399 7.74271C9.19637 7.97839 9.05328 8.19253 8.8729 8.3729C8.69253 8.55328 8.47839 8.69637 8.24271 8.79399C8.00704 8.89161 7.75444 8.94185 7.49935 8.94185Z"
        fill="#AAAAAA" />
</svg>
