<svg width="120" height="120" viewBox="0 0 120 120" fill="none" xmlns="http://www.w3.org/2000/svg">
    <path d="M84.1016 64.0293L75.4141 115.016H76.8733L85.6976 64.0293H84.1016Z" fill="#EBEBEB" />
    <path d="M94.5433 64.0293L105.316 115.016H103.857L92.9473 64.0293H94.5433Z" fill="#EBEBEB" />
    <path d="M90.2128 115.015H88.5144L88.2988 41.2441H89.9975L90.2128 115.015Z" fill="#EBEBEB" />
    <path d="M101.997 27.6094H78.0273V42.9663H101.997V27.6094Z" fill="#E0E0E0" />
    <path d="M95.1289 63.793H83.0977V65.2759H95.1289V63.793Z" fill="#EBEBEB" />
    <path
        d="M79.6198 40.9625C79.6256 40.9625 79.6311 41.0508 79.6361 41.2433H79.6033C79.5785 40.4923 79.5605 38.004 79.5605 35.0554C79.5673 33.2758 79.5733 31.6656 79.5778 30.4805C79.5855 29.9074 79.592 29.4377 79.5965 29.0943C79.6011 28.9411 79.6047 28.8166 79.6076 28.7172C79.6114 28.6311 79.6155 28.5859 79.6196 28.5859C79.6237 28.5859 79.6277 28.6311 79.6313 28.7172C79.6342 28.8163 79.6378 28.9411 79.6424 29.0943C79.6469 29.4377 79.6534 29.9074 79.6611 30.4805C79.6657 31.6656 79.6717 33.2758 79.6784 35.0554C79.6784 38.004 79.6604 40.4923 79.6357 41.2433H79.6028C79.6085 41.0508 79.6141 40.9625 79.6198 40.9625Z"
        fill="#F5F5F5" />
    <path
        d="M81.403 40.9625C81.4088 40.9625 81.4143 41.0508 81.4194 41.2433H81.3865C81.3618 40.4923 81.3438 38.004 81.3438 35.0554C81.3505 33.2758 81.3565 31.6656 81.361 30.4805C81.3687 29.9074 81.3752 29.4377 81.3798 29.0943C81.3843 28.9411 81.3879 28.8166 81.3908 28.7172C81.3946 28.6311 81.3987 28.5859 81.4028 28.5859C81.4069 28.5859 81.411 28.6311 81.4146 28.7172C81.4174 28.8163 81.421 28.9411 81.4256 29.0943C81.4302 29.4377 81.4366 29.9074 81.4443 30.4805C81.4489 31.6656 81.4549 33.2758 81.4616 35.0554C81.4616 38.004 81.4436 40.4923 81.4189 41.2433H81.386C81.3918 41.0508 81.3973 40.9625 81.403 40.9625Z"
        fill="#F5F5F5" />
    <path
        d="M83.1882 40.9625C83.1939 40.9625 83.1995 41.0508 83.2045 41.2433H83.1716C83.1469 40.4923 83.1289 38.004 83.1289 35.0554C83.1356 33.2758 83.1416 31.6656 83.1462 30.4805C83.1539 29.9074 83.1603 29.4377 83.1649 29.0943C83.1695 28.9411 83.1731 28.8166 83.1759 28.7172C83.1798 28.6311 83.1839 28.5859 83.1879 28.5859C83.192 28.5859 83.1961 28.6311 83.1999 28.7172C83.2028 28.8163 83.2064 28.9411 83.211 29.0943C83.2155 29.4377 83.222 29.9074 83.2297 30.4805C83.2343 31.6656 83.2403 33.2758 83.247 35.0554C83.247 38.004 83.229 40.4923 83.2043 41.2433H83.1716C83.1771 41.0508 83.1824 40.9625 83.1882 40.9625Z"
        fill="#F5F5F5" />
    <path
        d="M84.9714 40.9625C84.9772 40.9625 84.9827 41.0508 84.9877 41.2433H84.9548C84.9301 40.4923 84.9121 38.004 84.9121 35.0554C84.9188 33.2758 84.9248 31.6656 84.9294 30.4805C84.9371 29.9074 84.9436 29.4377 84.9481 29.0943C84.9527 28.9411 84.9563 28.8166 84.9592 28.7172C84.963 28.6311 84.9671 28.5859 84.9711 28.5859C84.9752 28.5859 84.9791 28.6311 84.9832 28.7172C84.986 28.8163 84.9896 28.9411 84.9942 29.0943C84.9988 29.4377 85.0052 29.9074 85.0129 30.4805C85.0175 31.6656 85.0235 33.2758 85.0302 35.0554C85.0302 38.004 85.0122 40.4923 84.9875 41.2433H84.9546C84.9601 41.0508 84.9656 40.9625 84.9714 40.9625Z"
        fill="#F5F5F5" />
    <path
        d="M86.7565 40.9625C86.7623 40.9625 86.7678 41.0508 86.7729 41.2433H86.74C86.7153 40.4923 86.6973 38.004 86.6973 35.0554C86.704 33.2758 86.71 31.6656 86.7145 30.4805C86.7222 29.9074 86.7287 29.4377 86.7333 29.0943C86.7378 28.9411 86.7414 28.8166 86.7443 28.7172C86.7481 28.6311 86.7522 28.5859 86.7563 28.5859C86.7604 28.5859 86.7645 28.6311 86.7683 28.7172C86.7712 28.8163 86.7748 28.9411 86.7793 29.0943C86.7839 29.4377 86.7904 29.9074 86.7981 30.4805C86.8026 31.6656 86.8086 33.2758 86.8153 35.0554C86.8153 38.004 86.7973 40.4923 86.7726 41.2433H86.7397C86.7455 41.0508 86.751 40.9625 86.7565 40.9625Z"
        fill="#F5F5F5" />
    <path
        d="M88.5398 40.9625C88.5455 40.9625 88.551 41.0508 88.5561 41.2433H88.5232C88.4985 40.4923 88.4805 38.004 88.4805 35.0554C88.4872 33.2758 88.4932 31.6656 88.4977 30.4805C88.5054 29.9074 88.5119 29.4377 88.5165 29.0943C88.521 28.9411 88.5246 28.8166 88.5275 28.7172C88.5314 28.6311 88.5354 28.5859 88.5395 28.5859C88.5436 28.5859 88.5477 28.6311 88.5513 28.7172C88.5542 28.8163 88.5577 28.9411 88.5623 29.0943C88.5669 29.4377 88.5734 29.9074 88.581 30.4805C88.5856 31.6656 88.5916 33.2758 88.5983 35.0554C88.5983 38.004 88.5803 40.4923 88.5556 41.2433H88.5227C88.5285 41.0508 88.534 40.9625 88.5398 40.9625Z"
        fill="#F5F5F5" />
    <path
        d="M90.3249 40.9625C90.3307 40.9625 90.3362 41.0508 90.3412 41.2433H90.3083C90.2836 40.4923 90.2656 38.004 90.2656 35.0554C90.2723 33.2758 90.2783 31.6656 90.2829 30.4805C90.2906 29.9074 90.2971 29.4377 90.3016 29.0943C90.3062 28.9411 90.3098 28.8166 90.3127 28.7172C90.3165 28.6311 90.3206 28.5859 90.3247 28.5859C90.3287 28.5859 90.3326 28.6311 90.3364 28.7172C90.3393 28.8163 90.3429 28.9411 90.3475 29.0943C90.352 29.4377 90.3585 29.9074 90.3662 30.4805C90.3707 31.6656 90.3767 33.2758 90.3835 35.0554C90.3835 38.004 90.3655 40.4923 90.3407 41.2433H90.3079C90.3136 41.0508 90.3191 40.9625 90.3249 40.9625Z"
        fill="#F5F5F5" />
    <path
        d="M92.1081 40.9625C92.1139 40.9625 92.1194 41.0508 92.1244 41.2433H92.0916C92.0668 40.4923 92.0488 38.004 92.0488 35.0554C92.0555 33.2758 92.0616 31.6656 92.0661 30.4805C92.0738 29.9074 92.0803 29.4377 92.0848 29.0943C92.0894 28.9411 92.093 28.8166 92.0959 28.7172C92.0997 28.6311 92.1038 28.5859 92.1079 28.5859C92.1119 28.5859 92.116 28.6311 92.1196 28.7172C92.1225 28.8163 92.1261 28.9411 92.1307 29.0943C92.1352 29.4377 92.1417 29.9074 92.1494 30.4805C92.1539 31.6656 92.1599 33.2758 92.1667 35.0554C92.1667 38.004 92.1487 40.4923 92.124 41.2433H92.0911C92.0971 41.0508 92.1026 40.9625 92.1081 40.9625Z"
        fill="#F5F5F5" />
    <path
        d="M93.8913 40.9625C93.8971 40.9625 93.9026 41.0508 93.9076 41.2433H93.8747C93.85 40.4923 93.832 38.004 93.832 35.0554C93.8388 33.2758 93.8447 31.6656 93.8493 30.4805C93.857 29.9074 93.8635 29.4377 93.868 29.0943C93.8726 28.9411 93.8762 28.8166 93.8791 28.7172C93.8829 28.6311 93.887 28.5859 93.8911 28.5859C93.8952 28.5859 93.899 28.6311 93.9031 28.7172C93.9059 28.8163 93.9095 28.9411 93.9141 29.0943C93.9187 29.4377 93.9251 29.9074 93.9328 30.4805C93.9374 31.6656 93.9434 33.2758 93.9501 35.0554C93.9501 38.004 93.9321 40.4923 93.9074 41.2433H93.8747C93.8803 41.0508 93.8855 40.9625 93.8913 40.9625Z"
        fill="#F5F5F5" />
    <path
        d="M95.6765 40.9625C95.6822 40.9625 95.6877 41.0508 95.6928 41.2433H95.6599C95.6352 40.4923 95.6172 38.004 95.6172 35.0554C95.6239 33.2758 95.6299 31.6656 95.6345 30.4805C95.6421 29.9074 95.6486 29.4377 95.6532 29.0943C95.6577 28.9411 95.6614 28.8166 95.6642 28.7172C95.6681 28.6311 95.6721 28.5859 95.6762 28.5859C95.6803 28.5859 95.6844 28.6311 95.6882 28.7172C95.6911 28.8163 95.6947 28.9411 95.6993 29.0943C95.7038 29.4377 95.7103 29.9074 95.718 30.4805C95.7226 31.6656 95.7285 33.2758 95.7353 35.0554C95.7353 38.004 95.7173 40.4923 95.6925 41.2433H95.6597C95.6654 41.0508 95.6707 40.9625 95.6765 40.9625Z"
        fill="#F5F5F5" />
    <path
        d="M97.4597 40.9625C97.4654 40.9625 97.471 41.0508 97.476 41.2433H97.4431C97.4184 40.4923 97.4004 38.004 97.4004 35.0554C97.4071 33.2758 97.4131 31.6656 97.4177 30.4805C97.4254 29.9074 97.4318 29.4377 97.4364 29.0943C97.441 28.9411 97.4446 28.8166 97.4474 28.7172C97.4513 28.6311 97.4554 28.5859 97.4594 28.5859C97.4635 28.5859 97.4676 28.6311 97.4714 28.7172C97.4743 28.8163 97.4779 28.9411 97.4825 29.0943C97.487 29.4377 97.4935 29.9074 97.5012 30.4805C97.5058 31.6656 97.5118 33.2758 97.5185 35.0554C97.5185 38.004 97.5007 40.4923 97.476 41.2433H97.4429C97.4484 41.0508 97.4539 40.9625 97.4597 40.9625Z"
        fill="#F5F5F5" />
    <path
        d="M99.2448 40.9625C99.2506 40.9625 99.2561 41.0508 99.2611 41.2433H99.2283C99.2035 40.4923 99.1855 38.004 99.1855 35.0554C99.1923 33.2758 99.1983 31.6656 99.2028 30.4805C99.2105 29.9074 99.217 29.4377 99.2215 29.0943C99.2261 28.9411 99.2297 28.8166 99.2326 28.7172C99.2364 28.6311 99.2405 28.5859 99.2446 28.5859C99.2487 28.5859 99.2525 28.6311 99.2564 28.7172C99.2592 28.8163 99.2628 28.9411 99.2674 29.0943C99.2719 29.4377 99.2784 29.9074 99.2861 30.4805C99.2907 31.6656 99.2967 33.2758 99.3034 35.0554C99.3034 38.004 99.2854 40.4923 99.2607 41.2433H99.2278C99.2335 41.0508 99.2391 40.9625 99.2448 40.9625Z"
        fill="#F5F5F5" />
    <path
        d="M101.028 40.9625C101.034 40.9625 101.039 41.0508 101.044 41.2433H101.011C100.987 40.4923 100.969 38.004 100.969 35.0554C100.975 33.2758 100.982 31.6656 100.986 30.4805C100.994 29.9074 101 29.4377 101.005 29.0943C101.009 28.9411 101.013 28.8166 101.016 28.7172C101.02 28.6311 101.024 28.5859 101.028 28.5859C101.032 28.5859 101.036 28.6311 101.04 28.7172C101.043 28.8163 101.046 28.9411 101.051 29.0943C101.055 29.4377 101.062 29.9074 101.07 30.4805C101.074 31.6656 101.08 33.2758 101.087 35.0554C101.087 38.004 101.069 40.4923 101.044 41.2433H101.011C101.017 41.0508 101.023 40.9625 101.028 40.9625Z"
        fill="#F5F5F5" />
    <path d="M79.7197 7.04102H68.043V10.1301H79.7197V7.04102Z" fill="#F5F5F5" />
    <path
        d="M74.7826 13.3846C74.7814 13.3834 74.7802 13.3645 74.779 13.3285C74.7781 13.2872 74.7769 13.2351 74.7752 13.1701C74.773 13.0246 74.7702 12.8221 74.7666 12.5621C74.7618 12.0289 74.755 11.2623 74.7466 10.2956L74.7829 10.3318C72.1167 10.3371 67.8766 10.3455 63.1069 10.3551C63.1333 10.3287 63.0469 10.4144 63.1657 10.2956V10.2963V10.298V10.3011V10.3073V10.3198V10.3448V10.3945V10.4938V10.6918C63.1657 10.8236 63.1657 10.9551 63.1657 11.0859C63.1657 11.3477 63.1654 11.6077 63.1654 11.8654C63.1652 12.3809 63.1647 12.8881 63.1645 13.3849L63.1064 13.3268C66.4314 13.3373 69.3409 13.3467 71.4274 13.3532C72.4669 13.3601 73.3009 13.3659 73.8836 13.3697C74.167 13.3731 74.3888 13.3755 74.5477 13.3774C74.6192 13.3791 74.6763 13.3803 74.7214 13.3813C74.7606 13.3822 74.7812 13.3834 74.7826 13.3846C74.7838 13.3858 74.7656 13.387 74.7286 13.3885C74.6854 13.3894 74.6307 13.3906 74.5621 13.3921C74.4063 13.394 74.1884 13.3964 73.9105 13.3997C73.3311 13.4036 72.5014 13.4093 71.4678 13.4163C69.3709 13.423 66.4472 13.4321 63.1062 13.4427L63.0481 13.4429V13.3846C63.0478 12.8878 63.0474 12.3807 63.0471 11.8652C63.0471 11.6074 63.0469 11.3475 63.0469 11.0857C63.0469 10.9549 63.0469 10.8233 63.0469 10.6916V10.4936V10.3942V10.3445V10.3196V10.3073V10.3011V10.298V10.2963V10.2956C63.1659 10.1765 63.0802 10.2625 63.1071 10.2361C67.8769 10.2457 72.117 10.2541 74.7831 10.2593H74.8196L74.8194 10.2956C74.8107 11.2714 74.804 12.0452 74.7994 12.5837C74.7956 12.8401 74.7927 13.0402 74.7906 13.1835C74.7891 13.2459 74.7877 13.2958 74.7867 13.3357C74.785 13.3693 74.7838 13.3858 74.7826 13.3846Z"
        fill="#E0E0E0" />
    <path
        d="M115.083 57.7928C115.082 57.7916 115.081 57.7726 115.08 57.7366C115.079 57.6953 115.078 57.6432 115.076 57.5782C115.074 57.4328 115.071 57.2302 115.067 56.9703C115.063 56.437 115.056 55.6704 115.047 54.7037L115.084 54.74C112.418 54.7452 108.177 54.7536 103.408 54.7632C103.434 54.7368 103.348 54.8225 103.466 54.704V54.7047V54.7064V54.7095V54.7157V54.7282V54.7532V54.8028V54.9022V55.1002C103.466 55.232 103.466 55.3632 103.466 55.4943C103.466 55.7561 103.466 56.016 103.466 56.2738C103.466 56.7893 103.466 57.2964 103.465 57.7932L103.407 57.7352C106.732 57.7457 109.642 57.7548 111.728 57.7616C112.768 57.7685 113.602 57.7743 114.184 57.7781C114.468 57.7815 114.69 57.7839 114.848 57.7858C114.92 57.7875 114.977 57.7887 115.022 57.7896C115.061 57.7901 115.082 57.7913 115.083 57.7928C115.085 57.794 115.066 57.7952 115.029 57.7966C114.986 57.7976 114.931 57.7988 114.863 57.8004C114.707 57.8024 114.489 57.8048 114.211 57.8081C113.632 57.812 112.802 57.8177 111.769 57.8247C109.672 57.8314 106.748 57.8405 103.407 57.8511L103.349 57.8513V57.793C103.349 57.2962 103.348 56.7891 103.348 56.2736C103.348 56.0158 103.348 55.7559 103.348 55.494C103.348 55.3632 103.348 55.2317 103.348 55.1V54.902V54.8026V54.7529V54.728V54.7155V54.7092V54.7061V54.7044V54.7037C103.467 54.5847 103.381 54.6708 103.408 54.6442C108.178 54.6538 112.418 54.6622 115.084 54.6675H115.12L115.12 54.7037C115.111 55.6796 115.105 56.4533 115.1 56.9916C115.096 57.248 115.093 57.4481 115.091 57.5914C115.09 57.6538 115.088 57.7037 115.087 57.7436C115.086 57.7774 115.085 57.794 115.083 57.7928Z"
        fill="#E0E0E0" />
    <path
        d="M21.6244 23.1931C21.6232 23.1919 21.622 23.173 21.6208 23.137C21.6199 23.0957 21.6187 23.0436 21.617 22.9786C21.6148 22.8331 21.612 22.6306 21.6081 22.3707C21.6033 21.8374 21.5966 21.0708 21.5882 20.1041L21.6244 20.1403C18.9583 20.1456 14.7182 20.1543 9.94843 20.1636C9.97483 20.1372 9.88843 20.2229 10.0072 20.1043V20.1051V20.1067V20.1099V20.1161V20.1286V20.1535V20.2032V20.3026V20.5006C10.0072 20.6323 10.0072 20.7636 10.0072 20.8947C10.0072 21.1565 10.007 21.4164 10.007 21.6742C10.0068 22.1897 10.0063 22.6968 10.006 23.1936L9.94795 23.1355C13.2729 23.1461 16.1822 23.1555 18.269 23.1619C19.3084 23.1689 20.1424 23.1747 20.7252 23.1785C21.0086 23.1819 21.2304 23.1843 21.3892 23.1862C21.4608 23.1879 21.5179 23.1891 21.563 23.19C21.6024 23.1907 21.6232 23.1919 21.6244 23.1931C21.6256 23.1943 21.6074 23.1955 21.5704 23.197C21.5272 23.1979 21.4725 23.1991 21.4039 23.2008C21.2481 23.2027 21.0304 23.2051 20.7523 23.2085C20.1729 23.2123 19.3432 23.2181 18.3096 23.2251C16.2127 23.2318 13.289 23.2409 9.94795 23.2515L9.88987 23.2517V23.1934C9.88963 22.6966 9.88915 22.1895 9.88891 21.6739C9.88891 21.4162 9.88867 21.1563 9.88867 20.8944C9.88867 20.7636 9.88867 20.6321 9.88867 20.5003V20.3023V20.203V20.1533V20.1283V20.1159V20.1096V20.1065V20.1048V20.1041C10.0077 19.9851 9.92203 20.0712 9.94891 20.0446C14.7187 20.0542 18.9588 20.0626 21.6249 20.0679H21.6614L21.6612 20.1041C21.6525 21.0799 21.6458 21.8537 21.6412 22.3923C21.6374 22.6486 21.6345 22.8487 21.6324 22.992C21.6309 23.0544 21.6295 23.1043 21.6285 23.1442C21.6268 23.178 21.6256 23.1946 21.6244 23.1931Z"
        fill="#E0E0E0" />
    <path d="M56.6288 108.74H55.0508V114.224H56.6288V108.74Z" fill="#263238" />
    <path d="M14.5233 108.74H12.9453V114.224H14.5233V108.74Z" fill="#263238" />
    <path d="M102.496 114.236H100.918V109.491L102.496 108.746V114.236Z" fill="#263238" />
    <path
        d="M64.7197 69.3808C59.0041 68.7177 53.2864 69.3993 47.5432 69.7523C39.9628 70.2184 32.3834 68.9416 24.7888 68.9085C23.6829 68.9037 22.4771 68.961 21.6386 69.6825C21.0506 70.1884 20.7426 70.9465 20.5538 71.6989C19.0859 77.547 22.3427 82.9381 21.7576 88.9053C21.7432 89.0519 21.7641 88.9053 21.7432 89.0519L21.761 93.6762L91.4668 92.5425C91.4668 92.5425 94.6161 71.7993 92.6111 69.7943C90.6062 67.7898 69.6117 69.9484 64.7197 69.3808Z"
        fill="#455A64" />
    <path
        d="M93.1873 71.7771C93.1873 71.7771 93.1254 71.7767 93.0049 71.7697C92.8806 71.7618 92.7025 71.7502 92.4702 71.7351C91.9965 71.7039 91.3048 71.6581 90.4149 71.5993C88.6297 71.4872 86.0449 71.3458 82.8484 71.2424C79.6521 71.1382 75.8438 71.0763 71.6154 71.1037C67.3869 71.1279 62.7397 71.2597 57.8649 71.4875C52.9883 71.7063 48.339 71.9034 44.1069 71.8866C39.8754 71.883 36.0642 71.6562 32.8876 71.2604C29.709 70.8683 27.1766 70.304 25.437 69.8888C24.5714 69.663 23.9058 69.4623 23.4522 69.3363C23.2286 69.2718 23.0572 69.2221 22.9377 69.1875C22.822 69.1532 22.7637 69.1328 22.7637 69.1328C22.7637 69.1328 22.8244 69.1453 22.9415 69.1753C23.062 69.207 23.2343 69.2526 23.4594 69.3121C23.9152 69.4299 24.5824 69.6231 25.449 69.8415C27.191 70.2419 29.7225 70.7922 32.8986 71.1726C36.0729 71.5568 39.8795 71.774 44.1076 71.7714C48.3361 71.7819 52.983 71.5815 57.8598 71.3626C62.735 71.1346 67.3854 71.0065 71.6152 70.9885C75.8452 70.9676 79.6547 71.0387 82.852 71.1541C86.0493 71.2688 88.6341 71.4236 90.4187 71.5506C91.3113 71.6118 92.0034 71.6696 92.4729 71.7099C92.7047 71.7303 92.8826 71.7459 93.0066 71.7567C93.1262 71.768 93.1873 71.7771 93.1873 71.7771Z"
        fill="#263238" />
    <path
        d="M22.7529 93.414C21.9266 93.4078 21.2164 94.0359 20.91 94.7571C20.6035 95.478 20.6155 96.2787 20.6318 97.0548C20.6829 99.4726 20.7338 101.89 20.7849 104.308C20.8084 105.416 20.8392 106.558 21.3093 107.575C21.7797 108.592 22.8038 109.465 23.9839 109.455L88.8451 109.131C88.8451 109.131 92.7751 109.479 92.465 105.398C92.1547 101.317 92.2932 93.3399 91.4659 92.5435C90.6386 91.7475 22.7529 93.414 22.7529 93.414Z"
        fill="#455A64" />
    <path
        d="M96.4202 96.1484C96.4202 96.1484 96.3638 96.1844 96.2507 96.2495C96.1341 96.3157 95.9661 96.411 95.7467 96.5356C95.2946 96.7696 94.6288 97.1216 93.7305 97.4845C91.9454 98.2254 89.2322 99.0397 85.7843 99.4016C84.0628 99.5876 82.1656 99.668 80.1309 99.6553C78.0957 99.6445 75.9239 99.5382 73.6411 99.4163C71.3582 99.2905 68.9611 99.1868 66.4749 99.1079C63.9885 99.0397 61.4133 98.9975 58.7755 98.9968C48.2181 98.9939 38.6762 99.6992 31.8016 100.435C30.9427 100.516 30.1247 100.647 29.3399 100.638C28.5583 100.634 27.8246 100.569 27.1413 100.493C25.774 100.34 24.61 100.111 23.6668 99.8953C22.7239 99.6767 22.0051 99.4516 21.5275 99.2737C21.2875 99.1878 21.1094 99.1098 20.9911 99.0541C20.872 99.0004 20.8125 98.9699 20.8125 98.9699C20.8125 98.9699 20.8756 98.9927 20.9961 99.0424C21.1159 99.0942 21.2949 99.1681 21.5359 99.25C22.0149 99.4196 22.7344 99.6368 23.6774 99.8478C24.6203 100.056 25.7841 100.277 27.1485 100.423C27.8303 100.497 28.5626 100.558 29.3395 100.558C30.1156 100.564 30.9304 100.431 31.7915 100.347C38.6661 99.5884 48.2121 98.8686 58.7747 98.8715C61.4138 98.8722 63.9902 98.9152 66.4778 98.9852C68.9649 99.0659 71.3637 99.1722 73.6463 99.3011C75.929 99.4261 78.0988 99.536 80.1309 99.5514C82.1625 99.5687 84.0563 99.4933 85.7743 99.3133C89.2154 98.9634 91.9243 98.1644 93.7115 97.4389C94.6106 97.0837 95.2787 96.7393 95.7343 96.5128C95.956 96.393 96.1259 96.3013 96.2438 96.2377C96.3595 96.177 96.4202 96.1484 96.4202 96.1484Z"
        fill="#263238" />
    <path
        d="M45.2594 101.701C45.2248 101.699 45.2183 101.18 45.2447 100.54C45.2711 99.9005 45.3203 99.3833 45.3549 99.3848C45.3895 99.3862 45.3959 99.9058 45.3695 100.545C45.3431 101.185 45.2937 101.702 45.2594 101.701Z"
        fill="#263238" />
    <path
        d="M46.6897 101.894C46.6529 101.889 46.7295 101.266 46.7278 100.495C46.7295 99.7241 46.6532 99.101 46.6897 99.0957C46.7211 99.0895 46.8543 99.7125 46.8526 100.495C46.8543 101.277 46.7209 101.9 46.6897 101.894Z"
        fill="#263238" />
    <path
        d="M44.0062 74.3343C43.9734 74.3446 43.7718 73.8005 43.5562 73.1187C43.3405 72.4368 43.1924 71.8757 43.2253 71.8654C43.2582 71.8551 43.4598 72.3991 43.6753 73.081C43.891 73.7626 44.0391 74.3239 44.0062 74.3343Z"
        fill="#263238" />
    <path
        d="M45.4212 76.3457C45.4022 76.3392 45.4776 76.0934 45.5714 75.6912C45.6631 75.2894 45.7663 74.7261 45.7586 74.0993C45.7497 73.4721 45.6213 72.9144 45.4944 72.5232C45.3667 72.1315 45.2582 71.898 45.2777 71.8889C45.2853 71.885 45.3194 71.9397 45.3749 72.0427C45.432 72.1447 45.5018 72.299 45.5779 72.4939C45.7284 72.8834 45.8748 73.4541 45.8837 74.0973C45.8916 74.7401 45.7718 75.3127 45.6571 75.713C45.54 76.1143 45.4349 76.3505 45.4212 76.3457Z"
        fill="#263238" />
    <path
        d="M21.5803 100.976C21.5087 102.56 22.0617 105.475 21.5865 106.987C21.1113 108.5 21.0931 108.578 19.6934 109.322C18.4586 109.978 17.0032 110.036 15.605 110.05C14.0286 110.066 12.4519 110.043 10.8767 109.983C10.2595 109.96 9.57209 109.899 9.16097 109.438C8.81801 109.054 8.76785 108.498 8.73425 107.984C8.26001 100.722 7.78529 93.4446 8.05889 86.1724C8.09873 85.1133 8.15561 84.0462 8.41649 83.019C9.03521 80.5813 12.471 77.9965 14.795 77.0358C17.1191 76.0751 19.696 76.3751 21.8553 77.6641L22.6259 87.8202L21.7883 92.542L21.5803 100.976Z"
        fill="#455A64" />
    <path
        d="M20.4897 79.9865C20.4906 79.9884 20.4681 80.0042 20.4227 80.033C20.3714 80.065 20.3046 80.1065 20.2202 80.1588C20.043 80.2706 19.7877 80.4446 19.4704 80.6844C18.8397 81.1687 17.9711 81.9295 16.9912 82.9618C16.745 83.2183 16.4934 83.4936 16.2362 83.784C16.108 83.9297 15.9779 84.0792 15.8507 84.2347C15.723 84.3715 15.7062 84.5846 15.6765 84.7874C15.5898 85.6135 15.6177 86.5126 15.6441 87.4517C15.731 89.3342 15.8262 91.4026 15.9263 93.5738C16.121 97.9159 16.2969 101.846 16.4248 104.7C16.4824 106.118 16.529 107.268 16.5616 108.072C16.5748 108.464 16.5851 108.772 16.5926 108.99C16.5945 109.089 16.5962 109.168 16.5974 109.228C16.5978 109.282 16.5969 109.309 16.5947 109.31C16.5926 109.31 16.5892 109.282 16.5846 109.229C16.5803 109.169 16.5746 109.09 16.5674 108.991C16.5544 108.773 16.5364 108.466 16.5131 108.075C16.4711 107.271 16.4109 106.121 16.3367 104.704C16.1994 101.851 16.0106 97.921 15.8018 93.5796C15.7041 91.4074 15.5997 89.3395 15.5291 87.4553C15.5061 86.5128 15.4814 85.6157 15.5738 84.7742C15.5858 84.6691 15.6054 84.565 15.6287 84.4615C15.646 84.4097 15.6582 84.3586 15.6818 84.3074C15.7094 84.2539 15.7398 84.2062 15.7734 84.1711C15.903 84.0144 16.0343 83.8654 16.1639 83.7199C16.4243 83.43 16.6785 83.1559 16.9276 82.9003C17.9183 81.8729 18.7994 81.1195 19.4414 80.6453C19.7644 80.4106 20.0253 80.2423 20.2072 80.137C20.2946 80.0887 20.3637 80.0508 20.4167 80.0215C20.4638 79.9968 20.4885 79.9848 20.4897 79.9865Z"
        fill="#263238" />
    <path
        d="M19.076 87.2843C19.0801 87.3004 18.8924 87.3637 18.583 87.4434C18.2737 87.5228 17.8414 87.6157 17.3585 87.6858C16.8754 87.7554 16.4345 87.7883 16.1153 87.7998C15.7961 87.8111 15.5984 87.8032 15.5977 87.7866C15.5957 87.7485 16.3822 87.7 17.3408 87.562C18.2989 87.4233 19.0671 87.2473 19.076 87.2843Z"
        fill="#263238" />
    <path
        d="M17.4772 89.5655C17.4678 89.5989 17.0603 89.5125 16.5673 89.3728C16.0741 89.2331 15.6822 89.0929 15.6916 89.0598C15.7009 89.0267 16.1082 89.1129 16.6014 89.2525C17.0944 89.3922 17.4865 89.5324 17.4772 89.5655Z"
        fill="#263238" />
    <path
        d="M11.7773 84.4259C11.7747 84.3863 12.6531 84.3259 13.7345 84.3374C14.2755 84.3407 14.7649 84.3551 15.1189 84.3722C15.4731 84.3895 15.6915 84.4091 15.6913 84.4262C15.691 84.4439 15.4714 84.4552 15.1174 84.4607C14.7632 84.4663 14.2741 84.466 13.7338 84.4627C13.2185 84.4581 12.752 84.454 12.3512 84.4504C11.9974 84.4456 11.7785 84.4437 11.7773 84.4259Z"
        fill="#263238" />
    <path
        d="M21.0031 70.4903C21.0047 70.4915 20.9973 70.5097 20.981 70.5443C20.9608 70.5849 20.9363 70.6343 20.9063 70.6948C20.8471 70.8294 20.7705 71.0341 20.7014 71.3061C20.5569 71.8487 20.4405 72.6573 20.3611 73.6597C20.3215 74.1613 20.2924 74.7119 20.2756 75.3033C20.2612 75.5994 20.2744 75.9016 20.2891 76.2174C20.3027 76.5328 20.3167 76.8573 20.3311 77.1897C20.3932 78.519 20.4943 79.9813 20.788 81.4878C20.926 82.2438 21.1185 82.965 21.2853 83.6742C21.4473 84.3832 21.5687 85.0765 21.6299 85.7428C21.7617 87.0753 21.7101 88.2808 21.6911 89.2866C21.6671 90.2937 21.6844 91.108 21.7247 91.6696C21.7384 91.9509 21.7643 92.1681 21.7751 92.3159C21.7802 92.3836 21.784 92.439 21.7874 92.4844C21.7895 92.5223 21.7895 92.542 21.7874 92.5422C21.7852 92.5425 21.7809 92.5235 21.7747 92.4858C21.7679 92.4407 21.76 92.386 21.7499 92.3188C21.731 92.1717 21.6971 91.9547 21.676 91.6732C21.6206 91.1116 21.5899 90.2937 21.6026 89.2852C21.6105 88.2774 21.6525 87.0762 21.5152 85.7543C21.4514 85.0931 21.3283 84.4057 21.1658 83.7018C20.999 82.9998 20.8031 82.269 20.6649 81.5111C20.3695 79.9965 20.2715 78.5257 20.2156 77.1947C20.2031 76.8618 20.1909 76.5371 20.1789 76.2213C20.1736 76.0631 20.1683 75.9073 20.1631 75.754C20.1592 75.5977 20.1681 75.4487 20.1715 75.2999C20.1928 74.7069 20.2269 74.1549 20.2723 73.6521C20.3635 72.6469 20.4938 71.8365 20.6539 71.2929C20.7309 71.0205 20.8156 70.816 20.8831 70.6833C20.9179 70.6245 20.9462 70.5765 20.9695 70.5371C20.9901 70.5049 21.0011 70.4891 21.0031 70.4903Z"
        fill="#263238" />
    <path
        d="M21.789 92.5416C21.8018 92.5574 21.5459 92.6112 21.3095 92.9609C21.1929 93.1322 21.0878 93.3667 21.0014 93.6501C20.9154 93.9343 20.847 94.2665 20.7729 94.6356C20.6855 95.0018 20.6382 95.4057 20.6493 95.8461C20.657 96.2853 20.7117 96.7536 20.7707 97.2475C20.8862 98.2375 21.0129 99.323 21.1458 100.463C21.2754 101.604 21.3988 102.69 21.5114 103.68C21.6189 104.668 21.7439 105.563 21.6993 106.322C21.6666 107.08 21.472 107.686 21.238 108.041C21.0095 108.401 20.8134 108.54 20.8134 108.54C20.8005 108.529 20.985 108.377 21.196 108.017C21.4127 107.66 21.5896 107.066 21.611 106.319C21.6441 105.57 21.5111 104.682 21.3971 103.694C21.2817 102.704 21.155 101.618 21.0218 100.477C20.8922 99.3369 20.7688 98.2509 20.6562 97.2607C20.6003 96.7668 20.5487 96.2937 20.5456 95.8473C20.5382 95.4021 20.5931 94.9817 20.6862 94.6171C20.7659 94.2499 20.8408 93.9153 20.9346 93.629C21.0287 93.3429 21.143 93.1051 21.2697 92.9328C21.3959 92.7595 21.5318 92.6565 21.6302 92.6035C21.6789 92.5759 21.7211 92.5646 21.7473 92.5533C21.7744 92.5435 21.7883 92.5394 21.789 92.5416Z"
        fill="#263238" />
    <path
        d="M90.3652 100.365C90.4368 101.949 90.5121 103.553 90.9871 105.066C91.4623 106.578 92.3918 108.013 93.7915 108.757C95.0263 109.413 96.4816 109.471 97.8799 109.485C99.4562 109.501 101.033 109.479 102.608 109.419C103.225 109.395 103.913 109.334 104.324 108.873C104.667 108.489 104.717 107.933 104.751 107.419C105.225 100.157 105.7 92.8802 105.426 85.6079C105.386 84.5488 105.329 83.482 105.068 82.4546C104.45 80.0169 101.014 77.4321 98.6899 76.4714C96.366 75.5107 93.7888 75.8106 91.6296 77.0997L90.8589 87.2558L90.3652 100.365Z"
        fill="#455A64" />
    <path
        d="M92.9961 79.4221C92.9971 79.4202 93.0221 79.4322 93.0693 79.4576C93.1224 79.4866 93.1915 79.5248 93.2786 79.573C93.4605 79.6782 93.7214 79.8466 94.0445 80.0814C94.6865 80.5558 95.5675 81.309 96.5582 82.3364C96.8073 82.592 97.0615 82.8661 97.3219 83.156C97.4515 83.3014 97.583 83.4505 97.7124 83.6072C97.746 83.6422 97.7765 83.69 97.8041 83.7435C97.8276 83.7946 97.8396 83.846 97.8571 83.8976C97.8801 84.0008 97.8998 84.1052 97.9121 84.2103C98.0045 85.0515 97.9797 85.9489 97.9567 86.8914C97.8861 88.7758 97.782 90.8434 97.6841 93.0157C97.4753 97.3573 97.2864 101.287 97.1491 104.14C97.0749 105.557 97.0147 106.707 96.9727 107.511C96.9494 107.902 96.9314 108.209 96.9185 108.427C96.9113 108.526 96.9055 108.605 96.9012 108.665C96.8966 108.718 96.8933 108.746 96.8911 108.746C96.8889 108.746 96.888 108.718 96.8885 108.664C96.8897 108.604 96.8913 108.525 96.8933 108.426C96.9005 108.208 96.911 107.9 96.9242 107.508C96.9569 106.704 97.0034 105.554 97.061 104.136C97.1889 101.282 97.3649 97.352 97.5595 93.0099C97.6596 90.8386 97.7551 88.7703 97.842 86.8878C97.8684 85.9486 97.8962 85.0498 97.8096 84.2235C97.7801 84.0209 97.7633 83.8076 97.6353 83.671C97.5081 83.5153 97.3781 83.3658 97.2499 83.2203C96.9926 82.9297 96.7411 82.6546 96.4949 82.3981C95.5149 81.3656 94.6461 80.605 94.0157 80.1207C93.6984 79.881 93.443 79.7067 93.2659 79.5951C93.1814 79.5426 93.1145 79.501 93.0633 79.4694C93.0177 79.4396 92.9949 79.424 92.9961 79.4221Z"
        fill="#263238" />
    <path
        d="M94.4083 86.7198C94.4174 86.6829 95.1854 86.8588 96.1435 86.9975C97.102 87.1355 97.8883 87.184 97.8866 87.2222C97.8859 87.2387 97.6881 87.2466 97.3689 87.2353C97.0497 87.2238 96.6088 87.191 96.1257 87.1214C95.6428 87.0513 95.2106 86.9584 94.9012 86.879C94.5916 86.7993 94.4042 86.7359 94.4083 86.7198Z"
        fill="#263238" />
    <path
        d="M96.008 89.001C95.9986 88.9679 96.3908 88.8278 96.8837 88.6881C97.3769 88.5484 97.7842 88.4622 97.7936 88.4954C97.8029 88.5285 97.411 88.6686 96.9178 88.8083C96.4246 88.9478 96.0173 89.0342 96.008 89.001Z"
        fill="#263238" />
    <path
        d="M101.707 83.8595C101.706 83.8773 101.487 83.8792 101.133 83.8838C100.732 83.8874 100.266 83.8914 99.7504 83.896C99.2102 83.8994 98.7211 83.8996 98.3668 83.8941C98.0126 83.8888 97.793 83.8773 97.793 83.8595C97.7927 83.8427 98.0114 83.823 98.3654 83.8058C98.7194 83.7887 99.2087 83.7743 99.7497 83.771C100.831 83.7594 101.71 83.8199 101.707 83.8595Z"
        fill="#263238" />
    <path
        d="M92.7693 70.0137C92.7712 70.0125 92.7818 70.0293 92.8005 70.0634C92.8223 70.1045 92.8492 70.1546 92.8821 70.2163C92.9459 70.3538 93.0237 70.5662 93.0897 70.8473C93.2279 71.4086 93.3162 72.2424 93.3424 73.2715C93.3722 74.3023 93.3129 75.5263 93.2442 76.8842C93.1701 78.2424 93.0129 79.7354 92.7165 81.2786C92.5725 82.0512 92.3954 82.7983 92.2547 83.5214C92.1162 84.2462 92.0193 84.9518 91.9468 85.6262C91.805 86.9755 91.7814 88.1997 91.7409 89.2272C91.7046 90.2549 91.6492 91.0865 91.5861 91.6584C91.559 91.9447 91.5258 92.166 91.5052 92.316C91.4949 92.3846 91.4862 92.4405 91.4793 92.4864C91.4728 92.5245 91.4685 92.5442 91.4663 92.5437C91.4642 92.5433 91.4644 92.5233 91.4668 92.4847C91.4704 92.4386 91.475 92.3822 91.4802 92.3131C91.4927 92.1624 91.5182 91.9406 91.5378 91.6541C91.5861 91.0817 91.6278 90.2517 91.6528 89.2243C91.6821 88.1976 91.6965 86.9707 91.8326 85.6147C91.9024 84.9372 91.9972 84.2277 92.1347 83.4991C92.2749 82.77 92.4503 82.0257 92.5941 81.2558C92.8895 79.7177 93.0494 78.2328 93.1298 76.8777C93.2044 75.522 93.2728 74.2989 93.2543 73.2737C93.2394 72.2481 93.1648 71.4177 93.0424 70.8585C92.9843 70.5782 92.915 70.3663 92.8593 70.2271C92.8312 70.164 92.8084 70.1124 92.7897 70.0704C92.7743 70.0339 92.7676 70.0149 92.7693 70.0137Z"
        fill="#263238" />
    <path
        d="M91.6957 92.5434C91.6969 92.5401 91.7516 92.5552 91.8524 92.5953C91.9511 92.6385 92.0967 92.7138 92.247 92.8593C92.3975 93.0037 92.535 93.2265 92.6339 93.5027C92.7306 93.7811 92.8143 94.0993 92.8796 94.4641C93.0059 95.1976 92.9 96.0781 92.7899 97.0336C92.6807 97.995 92.5609 99.0491 92.4351 100.156C92.306 101.263 92.1829 102.317 92.0706 103.278C91.9559 104.238 91.8375 105.1 91.8771 105.826C91.9064 106.551 92.0862 107.125 92.2983 107.47C92.5052 107.818 92.6838 107.966 92.6711 107.977C92.6711 107.977 92.481 107.843 92.2566 107.495C92.0269 107.151 91.8294 106.567 91.7888 105.831C91.7372 105.094 91.8481 104.223 91.9561 103.265C92.0653 102.304 92.1851 101.249 92.3108 100.142C92.4399 99.0352 92.5631 97.9816 92.6751 97.0204C92.792 96.0625 92.9046 95.1959 92.792 94.4776C92.7344 94.1226 92.6555 93.7974 92.5679 93.526C92.4771 93.2541 92.3516 93.0376 92.2122 92.8933C91.9261 92.607 91.6844 92.5612 91.6957 92.5434Z"
        fill="#263238" />
    <path
        d="M91.4656 92.5429C91.4656 92.5774 75.8323 92.6053 56.5519 92.6053C37.2648 92.6053 21.6348 92.5772 21.6348 92.5429C21.6348 92.5085 37.2648 92.4805 56.5519 92.4805C75.8323 92.4802 91.4656 92.5083 91.4656 92.5429Z"
        fill="#263238" />
    <g opacity="0.3">
        <path
            d="M21.5337 85.0427L20.6253 81.2891C19.9874 81.7093 19.6442 82.6916 19.6723 83.4551C19.7003 84.2185 19.9478 84.9551 20.0771 85.7082C20.4299 87.7633 19.8964 89.8508 19.6072 91.9158C19.318 93.9807 19.565 96.4554 20.8132 98.1258C20.8216 97.4082 20.5939 96.5281 20.5963 95.6703C20.5999 94.3513 20.9284 93.0848 21.7886 92.5436C21.7886 92.5436 21.6938 87.1748 21.5337 85.0427Z"
            fill="black" />
    </g>
    <g opacity="0.3">
        <path
            d="M91.5182 92.5518C91.5184 92.5494 91.5184 92.5468 91.5186 92.5444C91.4829 92.541 91.4466 92.5398 91.4102 92.5425L91.5182 92.5518Z"
            fill="black" />
    </g>
    <g opacity="0.3">
        <path
            d="M93.4693 94.6506C93.3512 93.5404 93.0142 92.4606 92.9218 91.3479C92.8628 90.6361 92.9048 89.9204 92.9021 89.2062C92.8959 87.4196 92.6089 85.6343 92.0545 83.9355C91.8754 86.8052 91.6966 89.6747 91.5176 92.5444C91.7533 92.5672 92.0276 92.6404 92.1754 92.8295C92.3458 93.0474 92.5551 93.3476 92.6319 93.6133C93.0207 94.9607 92.8553 96.4343 92.641 97.82C93.3682 96.9728 93.5873 95.7608 93.4693 94.6506Z"
            fill="black" />
    </g>
    <path
        d="M86.1992 55.5991L87.6296 53.0784C86.997 52.0514 86.6312 50.8423 86.6312 49.5472C86.6312 45.8234 89.6499 42.8047 93.3738 42.8047C97.0976 42.8047 100.116 45.8234 100.116 49.5472C100.116 53.2711 97.0976 56.2898 93.3738 56.2898C91.8188 56.2898 90.3879 55.762 89.2475 54.8779L89.2499 54.881L86.1992 55.5991Z"
        fill="#FAFAFA" />
    <path
        d="M86.1992 55.5991C86.4119 55.5468 87.3349 55.3197 89.2424 54.8505L89.2249 54.8997C89.2249 54.8997 89.2235 54.8978 89.2225 54.8969L89.0747 54.7058L89.2662 54.8534C90.0277 55.4395 91.118 56.0078 92.4805 56.1861C92.8194 56.2279 93.1734 56.2543 93.5367 56.2349C93.7184 56.2238 93.9032 56.2188 94.0895 56.2025C94.2745 56.1739 94.4622 56.1449 94.6523 56.1153C95.4061 55.9637 96.1758 55.6752 96.8934 55.2271C97.6105 54.7809 98.2736 54.1761 98.805 53.4343C99.3354 52.6939 99.7369 51.8169 99.9243 50.8649C100.11 49.914 100.093 48.8947 99.8432 47.9093C99.5912 46.9272 99.1218 45.9677 98.4188 45.1783C97.7075 44.3719 96.8291 43.7256 95.8602 43.3505C94.8956 42.9669 93.8667 42.8201 92.8825 42.8901C91.898 42.9597 90.9558 43.2405 90.1463 43.6939C89.3343 44.1439 88.6487 44.7453 88.1185 45.4178C87.5867 46.0905 87.2106 46.8333 86.9763 47.574C86.7438 48.318 86.6785 49.0567 86.6775 49.7417C86.7097 51.1212 87.1647 52.2583 87.6548 53.063L87.6642 53.0784L87.6553 53.0935C86.7404 54.6679 86.3043 55.4181 86.1992 55.5991C86.3005 55.416 86.721 54.6571 87.6035 53.0635L87.6039 53.094C87.1014 52.2873 86.6319 51.1409 86.5911 49.7438C86.5878 49.0502 86.6504 48.3007 86.883 47.5449C87.1172 46.7925 87.4962 46.0368 88.0343 45.3513C88.5707 44.6664 89.2659 44.0529 90.0908 43.5933C90.9131 43.1301 91.8716 42.8421 92.8736 42.7699C93.8751 42.6969 94.9235 42.8453 95.9063 43.2353C96.8934 43.6171 97.7888 44.2747 98.5131 45.0962C99.2291 45.9005 99.7071 46.878 99.9632 47.8788C100.217 48.8829 100.233 49.9205 100.042 50.8884C99.8502 51.8575 99.4395 52.7493 98.8983 53.5013C98.3562 54.2546 97.6801 54.8673 96.95 55.3185C96.2197 55.7712 95.4366 56.0616 94.671 56.2121C94.478 56.2411 94.2875 56.2697 94.0998 56.298C93.9107 56.3136 93.7232 56.3179 93.5391 56.3282C93.1707 56.346 92.8122 56.3172 92.469 56.2733C91.0895 56.0849 89.9907 55.5014 89.228 54.9026L89.2717 54.8592C89.2724 54.8601 89.2739 54.8621 89.2739 54.8621L89.3031 54.9007L89.2563 54.9113C87.3402 55.3423 86.4128 55.5509 86.1992 55.5991Z"
        fill="#263238" />
    <path d="M95.1902 52.7453L96.3574 51.5781L91.1271 46.3478L89.9599 47.5151L95.1902 52.7453Z"
        fill="#FF725E" />
    <path d="M89.9597 51.5789L91.127 52.7461L96.3572 47.5158L95.19 46.3486L89.9597 51.5789Z"
        fill="#FF725E" />
    <g opacity="0.3">
        <path
            d="M46.8487 93.189C44.843 93.3087 42.7759 93.4724 40.9883 94.3897C39.106 95.3557 37.7287 97.0556 36.1168 98.4263C34.505 99.7969 33.281 101.057 31.2559 100.445L29.4727 100.668C31.0557 101.717 32.2917 102.352 34.0243 103.13C34.8964 103.522 35.9565 103.866 36.7615 103.35C37.7555 102.714 37.6696 101.273 38.0018 100.141C38.5003 98.4407 40.1147 97.2771 41.7976 96.7239C43.4805 96.1707 45.2776 96.1011 47.026 95.8167C49.4239 95.4267 51.7564 94.6266 54.1799 94.4607C58.8791 94.1389 63.4053 96.2132 68.0956 96.6474C72.2431 97.0311 76.5031 96.087 80.0997 93.9865C69.0748 92.6831 57.9302 92.5268 46.8487 93.189Z"
            fill="black" />
    </g>
    <path
        d="M79.2033 59.3505C79.8086 58.3444 80.9464 57.6804 82.1203 57.6484L82.0051 57.9667C82.9519 57.4903 84.2395 57.8781 84.7658 58.798C85.2921 59.718 84.9729 61.0248 84.0823 61.5991C84.6875 62.1727 84.6412 63.2308 84.1034 63.868C83.5658 64.5052 82.6639 64.7491 81.8349 64.6586C80.6675 64.5312 79.5875 63.7771 79.066 62.7249C78.5443 61.673 78.598 60.3566 79.2033 59.3505Z"
        fill="#263238" />
    <path
        d="M81.0253 56.8545C80.851 56.3805 80.9276 55.8549 80.8628 55.354C80.7197 54.2512 79.8598 53.3188 78.8237 52.9149C77.7877 52.511 76.6097 52.5842 75.5537 52.9327C74.7673 53.1921 74.0151 53.6121 73.4816 54.2455C72.7736 55.0862 72.5125 56.2831 72.8062 57.3422L78.4489 56.5939C78.9706 57.0369 79.5049 57.4874 80.1411 57.7389C80.3278 57.8126 80.5292 57.869 80.7279 57.8402C80.9266 57.8114 81.121 57.6789 81.1705 57.4843C81.2247 57.2716 81.1009 57.0602 81.0253 56.8545Z"
        fill="#263238" />
    <path
        d="M80.3163 55.5906L75.4126 54.4862C73.848 54.3616 72.8607 56.3099 72.8028 57.8783C72.7385 59.6207 72.7287 61.7507 72.9687 63.0431C73.4511 65.6423 75.4601 65.9224 75.4601 65.9224C75.4604 65.9135 75.5201 69.0621 75.5559 70.0101C77.3297 70.8529 79.1048 69.3686 80.9669 68.5362L81.162 56.5007C81.1589 56.0236 80.7915 55.6283 80.3163 55.5906Z"
        fill="#FFBE9D" />
    <path
        d="M73.4883 59.8366C73.4866 60.0134 73.6352 60.1608 73.8197 60.1658C74.0041 60.1709 74.1553 60.0322 74.1569 59.855C74.1586 59.6782 74.0101 59.5306 73.8257 59.5255C73.6412 59.5205 73.49 59.6597 73.4883 59.8366Z"
        fill="#263238" />
    <path
        d="M73.2948 58.9726C73.3375 59.015 73.5861 58.8209 73.9464 58.8125C74.3061 58.7988 74.5752 58.9774 74.6131 58.9322C74.6318 58.9123 74.5874 58.8346 74.4703 58.7537C74.3548 58.6733 74.1595 58.5972 73.9351 58.6039C73.7107 58.6111 73.5242 58.6985 73.4179 58.7858C73.3094 58.8737 73.2739 58.9536 73.2948 58.9726Z"
        fill="#263238" />
    <path
        d="M76.8633 59.819C76.8616 59.9959 77.0102 60.1432 77.1947 60.1483C77.3791 60.1533 77.5303 60.0144 77.5319 59.8375C77.5336 59.6606 77.3851 59.513 77.2007 59.508C77.0159 59.5027 76.8647 59.6419 76.8633 59.819Z"
        fill="#263238" />
    <path
        d="M76.8377 58.9474C76.8804 58.9899 77.1295 58.7957 77.4895 58.7873C77.8491 58.7737 78.1183 58.9522 78.1563 58.9071C78.1747 58.8869 78.1311 58.8094 78.0132 58.7285C77.8978 58.6479 77.7024 58.5718 77.478 58.5785C77.2536 58.5857 77.0671 58.6731 76.9608 58.7605C76.8526 58.8485 76.8168 58.9285 76.8377 58.9474Z"
        fill="#263238" />
    <path
        d="M75.6002 61.6519C75.6014 61.6315 75.3765 61.5987 75.0124 61.5617C74.9202 61.5545 74.8326 61.5387 74.8156 61.4763C74.7923 61.4103 74.8281 61.3102 74.8698 61.2019C74.9505 60.9771 75.035 60.7414 75.1238 60.4944C75.4756 59.4874 75.7276 58.6603 75.687 58.6467C75.6465 58.6327 75.3282 59.4379 74.9764 60.4447C74.8919 60.6929 74.811 60.9295 74.7342 61.1561C74.7021 61.2615 74.6454 61.3817 74.6958 61.5183C74.7225 61.5864 74.7911 61.6344 74.8506 61.6488C74.9099 61.6654 74.9618 61.6649 75.0074 61.6663C75.3726 61.6767 75.5992 61.6723 75.6002 61.6519Z"
        fill="#263238" />
    <path
        d="M75.4609 65.9218C75.4609 65.9218 77.2197 65.9892 78.9321 64.8984C78.9321 64.8984 78.1002 66.728 75.4816 66.5518L75.4609 65.9218Z"
        fill="#EB996E" />
    <path
        d="M75.7743 62.5163C75.8993 62.3415 76.1239 62.2417 76.3498 62.2599C76.5065 62.2727 76.6666 62.3439 76.7647 62.4687C76.8631 62.5935 76.8876 62.7738 76.8043 62.8974C76.7107 63.0366 76.5084 63.0735 76.3354 63.0291C76.1621 62.9847 76.0114 62.8753 75.8679 62.7663C75.8283 62.7361 75.7877 62.7047 75.7623 62.6624C75.7368 62.6204 75.7303 62.5645 75.7594 62.5283"
        fill="#EB996E" />
    <path
        d="M76.6658 61.8751C76.6073 61.8731 76.6166 62.2641 76.2893 62.5504C75.9626 62.8375 75.5446 62.8046 75.5431 62.8591C75.5383 62.8838 75.6379 62.9327 75.8139 62.9327C75.9867 62.9342 76.2372 62.8723 76.4374 62.6971C76.6371 62.5216 76.7191 62.2922 76.7283 62.1316C76.7388 61.9679 76.6927 61.8722 76.6658 61.8751Z"
        fill="#263238" />
    <path
        d="M76.7483 57.8609C76.7862 57.9578 77.1447 57.9021 77.5686 57.942C77.9934 57.9734 78.3373 58.0881 78.3911 57.9989C78.4151 57.9561 78.3531 57.8657 78.213 57.7745C78.074 57.6833 77.8537 57.599 77.5993 57.5774C77.3449 57.5563 77.1135 57.6026 76.9614 57.6693C76.808 57.7358 76.7319 57.8148 76.7483 57.8609Z"
        fill="#263238" />
    <path
        d="M73.3578 57.3939C73.4234 57.4741 73.6691 57.3826 73.9674 57.3709C74.2653 57.3488 74.5199 57.4114 74.5758 57.3243C74.6003 57.2821 74.5583 57.2012 74.446 57.1266C74.3351 57.0522 74.1515 56.9938 73.9465 57.0054C73.7416 57.0171 73.5659 57.0958 73.4644 57.1825C73.3612 57.2694 73.3288 57.3546 73.3578 57.3939Z"
        fill="#263238" />
    <path
        d="M77.6691 52.6549L75.1602 54.1842C75.3188 55.0417 75.9872 55.7845 76.8231 56.0327C77.2695 56.1652 77.8064 56.1985 78.074 56.5799C78.3474 56.9692 78.1933 57.5399 78.4479 57.9416C78.801 58.4984 79.7545 58.4651 80.0206 59.0682C80.137 59.3317 80.0794 59.6478 80.2004 59.9092C80.3614 60.2574 81.2492 60.694 81.614 60.5754C81.979 60.4568 82.4173 60.7583 82.5344 60.4312C82.5344 60.4312 83.4553 59.5566 83.186 57.7816C82.9167 56.0063 82.6861 55.2642 81.4762 54.069C80.2666 52.8738 78.9949 52.1262 77.6691 52.6549Z"
        fill="#263238" />
    <path
        d="M80.5372 60.8908C80.5326 60.6964 80.7453 60.2325 80.9365 60.1974C81.447 60.1041 82.372 60.1213 82.4145 61.4229C82.4725 63.202 80.6742 62.8933 80.6694 62.8425C80.6656 62.8026 80.553 61.5621 80.5372 60.8908Z"
        fill="#FFBE9D" />
    <path
        d="M81.1909 62.1514C81.1986 62.1454 81.2226 62.172 81.2757 62.1943C81.3275 62.2159 81.4161 62.2294 81.5075 62.1914C81.6933 62.1163 81.8418 61.8127 81.8399 61.4918C81.8392 61.3296 81.8003 61.1767 81.7386 61.0507C81.6801 60.9223 81.5929 60.8342 81.4977 60.8206C81.4029 60.8018 81.3376 60.8606 81.3174 60.9113C81.2951 60.9619 81.3078 60.997 81.2982 61.0003C81.2934 61.0051 81.2591 60.9718 81.2711 60.8978C81.2773 60.8623 81.2968 60.8196 81.3376 60.7841C81.3791 60.7481 81.4413 60.7282 81.5075 60.7332C81.645 60.7382 81.7727 60.8604 81.8404 60.9986C81.9155 61.1371 81.9633 61.309 81.964 61.4911C81.9642 61.8502 81.7917 62.1914 81.537 62.2742C81.4129 62.311 81.3073 62.2766 81.2519 62.2363C81.1955 62.1943 81.1849 62.1547 81.1909 62.1514Z"
        fill="#EB996E" />
    <path
        d="M71.8464 62.9903C71.8478 62.992 71.8687 62.9756 71.9078 62.9425C71.9421 62.9056 71.9959 62.8496 72.0367 62.7601C72.0777 62.6723 72.1135 62.554 72.1094 62.4143C72.1072 62.2758 72.0688 62.1131 71.9604 61.9708C71.8519 61.8229 71.6618 61.7526 71.5243 61.6172C71.4554 61.5515 71.4163 61.4531 71.4484 61.3604C71.4792 61.2685 71.5703 61.2011 71.669 61.1584C71.7683 61.114 71.8835 61.1015 72.0011 61.0712C72.1161 61.0424 72.2469 60.9942 72.3264 60.8812C72.408 60.7703 72.4147 60.6229 72.3861 60.4952C72.3587 60.3654 72.2976 60.2428 72.226 60.1324C72.156 60.0208 72.083 59.9147 72.0336 59.8014C71.9832 59.6888 71.963 59.5679 71.986 59.4522C72.0326 59.218 72.1936 59.0298 72.3019 58.8294C72.5289 58.431 72.6528 58.0319 72.7135 57.6925C72.7747 57.3522 72.778 57.0709 72.7675 56.8789C72.7608 56.7827 72.7545 56.7083 72.7464 56.6581C72.7394 56.608 72.7348 56.5818 72.7327 56.582C72.7267 56.5828 72.7389 56.6884 72.743 56.8796C72.7461 57.0707 72.7358 57.3488 72.6698 57.6841C72.604 58.0182 72.4775 58.4104 72.2515 58.8004C72.1454 58.996 71.9791 59.1832 71.9253 59.4407C71.8989 59.5686 71.9222 59.7068 71.9762 59.8264C72.0287 59.9476 72.1036 60.0558 72.1727 60.166C72.2433 60.2749 72.299 60.388 72.3249 60.5084C72.3513 60.6268 72.3436 60.7535 72.2762 60.8454C72.2111 60.9395 72.0979 60.9844 71.9865 61.0129C71.8747 61.0427 71.7551 61.0559 71.6462 61.1051C71.5406 61.1524 71.4352 61.2265 71.3961 61.3432C71.3769 61.4003 71.3796 61.4617 71.3973 61.5164C71.4158 61.5714 71.4501 61.617 71.4873 61.6542C71.6407 61.7994 71.8255 61.864 71.9255 61.9986C72.029 62.1294 72.0693 62.2832 72.0746 62.4157C72.0818 62.5494 72.0511 62.6639 72.0146 62.7505C71.9371 62.9248 71.8389 62.984 71.8464 62.9903Z"
        fill="#263238" />
    <path
        d="M82.5843 61.678C82.5843 61.678 82.6993 61.5547 82.8291 61.2823C82.9551 61.0132 83.0917 60.5781 83.0295 60.0374C82.9719 59.5036 82.67 58.8731 82.0849 58.4491C81.7938 58.2343 81.4321 58.1174 81.0901 57.9508C80.9197 57.8661 80.7526 57.7653 80.617 57.6261C80.4826 57.4864 80.3838 57.3122 80.3122 57.124C80.169 56.747 80.1147 56.3435 79.9386 55.9907C79.8519 55.8153 79.7281 55.6579 79.5738 55.5458C79.4187 55.4342 79.243 55.3665 79.07 55.3221C78.723 55.2333 78.3846 55.2155 78.0829 55.1363C77.7802 55.061 77.5146 54.9347 77.2921 54.7905C76.843 54.5023 76.5738 54.1497 76.4192 53.8982C76.3419 53.771 76.2908 53.6666 76.2586 53.5951C76.2438 53.5622 76.2315 53.5353 76.2217 53.5135C76.213 53.4952 76.208 53.4861 76.207 53.4863C76.207 53.4863 76.25 53.6483 76.3981 53.9107C76.5476 54.1684 76.8145 54.5301 77.2676 54.8279C77.492 54.977 77.7615 55.1078 78.0699 55.187C78.3773 55.2695 78.7165 55.2895 79.0551 55.378C79.2238 55.4222 79.3921 55.4879 79.5382 55.594C79.6837 55.7006 79.8001 55.8487 79.8833 56.0179C80.053 56.3579 80.1073 56.7595 80.2534 57.1461C80.3266 57.3391 80.4301 57.5224 80.5721 57.6695C80.7152 57.8159 80.8889 57.9199 81.0627 58.0058C81.4119 58.1745 81.7678 58.2885 82.051 58.4959C82.623 58.9065 82.9232 59.5204 82.9851 60.0424C83.0518 60.5716 82.9246 61.0024 82.8066 61.2717C82.748 61.4087 82.6863 61.5074 82.6472 61.5753C82.6275 61.6058 82.6117 61.6305 82.5989 61.6507C82.5884 61.6682 82.5833 61.6773 82.5843 61.678Z"
        fill="#FAFAFA" />
    <path
        d="M82.9165 60.8735C82.9165 60.8735 83.0053 60.7509 83.1001 60.4965C83.1928 60.2443 83.2897 59.8519 83.2437 59.3654C83.1983 58.8851 82.9893 58.3048 82.5225 57.8512C82.4068 57.7389 82.2738 57.6376 82.131 57.5488C81.9887 57.4595 81.8397 57.377 81.6954 57.2836C81.5519 57.19 81.4132 57.0827 81.3042 56.9462C81.195 56.8099 81.1261 56.6443 81.0784 56.4686C81.0292 56.2931 80.9939 56.1134 80.9315 55.9418C80.8681 55.7704 80.7748 55.6118 80.656 55.4805C80.4201 55.2141 80.1114 55.0471 79.8102 54.9388C79.5059 54.8311 79.2049 54.7802 78.9275 54.725C78.6496 54.6715 78.3923 54.6151 78.1669 54.5342C77.7138 54.3746 77.4105 54.1079 77.2564 53.8917C77.1009 53.6728 77.0689 53.5216 77.0608 53.5255C77.0598 53.5257 77.0617 53.5348 77.067 53.5523C77.0723 53.5699 77.0797 53.596 77.0915 53.6296C77.1179 53.6956 77.1594 53.7935 77.2365 53.9059C77.3869 54.1305 77.6925 54.4084 78.1518 54.5762C78.3798 54.6609 78.6395 54.7204 78.9174 54.7763C79.1946 54.8337 79.4937 54.8867 79.7905 54.9935C80.085 55.1011 80.3843 55.2652 80.6097 55.5215C80.7237 55.6478 80.812 55.799 80.8725 55.9634C80.9327 56.1287 80.9677 56.3071 81.0177 56.4859C81.0659 56.6642 81.1389 56.8413 81.2553 56.9853C81.3707 57.1295 81.5154 57.2404 81.6618 57.3355C81.9573 57.5222 82.2582 57.6693 82.4821 57.893C82.9391 58.3324 83.1491 58.8988 83.1993 59.3697C83.2504 59.8471 83.1618 60.2356 83.0771 60.4881C83.0353 60.6158 82.9905 60.7101 82.9619 60.7749C82.9305 60.8385 82.9146 60.8726 82.9165 60.8735Z"
        fill="#455A64" />
    <path
        d="M73.5766 54.3164C73.5852 54.3241 73.6682 54.2278 73.8288 54.1052C73.9884 53.9823 74.2339 53.8424 74.5313 53.7627C74.8291 53.6845 75.1118 53.6845 75.3113 53.7121C75.5114 53.7389 75.6312 53.7817 75.635 53.7706C75.6365 53.7665 75.6077 53.7531 75.5539 53.7322C75.5006 53.7101 75.4198 53.6873 75.3182 53.6679C75.2167 53.6475 75.0931 53.6372 74.9561 53.6388C74.819 53.6434 74.6686 53.6619 74.515 53.7015C74.3621 53.743 74.2222 53.8016 74.101 53.8654C73.981 53.9319 73.8787 54.002 73.8007 54.0701C73.7222 54.1373 73.6632 54.1971 73.6279 54.2427C73.5917 54.2878 73.5732 54.3135 73.5766 54.3164Z"
        fill="#455A64" />
    <path
        d="M82.3964 63.5521C82.3964 63.5521 82.4154 63.5703 82.4627 63.5785C82.5088 63.5864 82.5863 63.5756 82.6557 63.5142C82.6893 63.4837 82.7221 63.441 82.7351 63.3848C82.7488 63.3296 82.7423 63.2655 82.7169 63.2051C82.6677 63.0836 82.5311 62.9787 82.3653 62.9713C82.2018 62.961 82.0235 63.0183 81.8728 63.1352C81.7984 63.1945 81.7302 63.2703 81.6868 63.3647C81.6431 63.458 81.6263 63.5699 81.6484 63.6774C81.6901 63.8929 81.8603 64.0844 82.0835 64.1624C82.3074 64.2399 82.5616 64.2119 82.7872 64.1202C83.2465 63.9335 83.547 63.5154 83.6476 63.1088C83.6999 62.9036 83.7011 62.6979 83.6644 62.5139C83.6296 62.3291 83.5561 62.1673 83.4733 62.0322C83.3044 61.7612 83.092 61.6009 82.9374 61.5181C82.899 61.496 82.8635 61.4795 82.832 61.4665C82.8011 61.4523 82.7745 61.442 82.7521 61.4353C82.708 61.4209 82.6847 61.4144 82.684 61.4163C82.6816 61.4228 82.7756 61.4504 82.9252 61.5392C83.0732 61.6271 83.276 61.7891 83.4352 62.0552C83.5936 62.3163 83.6985 62.6979 83.5912 63.0947C83.4918 63.4844 83.2007 63.8845 82.7636 64.0619C82.5486 64.1495 82.3096 64.1747 82.1039 64.1041C81.9008 64.0347 81.7439 63.8586 81.7055 63.6663C81.6628 63.4712 81.7667 63.284 81.9054 63.1763C82.0439 63.0654 82.2126 63.0087 82.3624 63.0159C82.514 63.0203 82.6362 63.1112 82.6844 63.2195C82.7087 63.273 82.7161 63.3296 82.7056 63.3783C82.6962 63.4273 82.6684 63.4669 82.6388 63.4959C82.5779 63.555 82.5073 63.5691 82.4639 63.5658C82.4195 63.5624 82.3979 63.549 82.3964 63.5521Z"
        fill="#455A64" />
    <path
        d="M82.4933 66.6888C82.4895 66.6835 82.4317 66.7368 82.3045 66.7877C82.1799 66.8357 81.9716 66.8789 81.7433 66.7927C81.5209 66.7114 81.2938 66.4692 81.2696 66.15C81.2576 65.9935 81.3029 65.8243 81.3992 65.6825C81.494 65.5414 81.6445 65.4226 81.8206 65.389C81.9075 65.3729 81.9989 65.3827 82.0695 65.4257C82.1389 65.4691 82.1878 65.5462 82.1962 65.6244C82.2063 65.7027 82.1648 65.778 82.0971 65.8123C82.0299 65.8479 81.9464 65.8503 81.8727 65.8325C81.7239 65.7943 81.6104 65.6767 81.5451 65.5546C81.4779 65.4305 81.4498 65.2973 81.4455 65.1768C81.4402 64.9327 81.505 64.7388 81.5432 64.6071C81.5845 64.4751 81.6085 64.4019 81.6041 64.4004C81.602 64.3997 81.5936 64.417 81.5789 64.4506C81.5645 64.4842 81.5441 64.5341 81.5199 64.5994C81.4748 64.7295 81.4016 64.9234 81.4009 65.178C81.4025 65.3045 81.429 65.4451 81.4988 65.5795C81.5677 65.7118 81.6862 65.8423 81.8588 65.8894C81.943 65.91 82.039 65.91 82.1252 65.8658C82.2125 65.8238 82.2711 65.7187 82.2577 65.6184C82.2469 65.5188 82.1893 65.4276 82.1026 65.3727C82.0143 65.3189 81.9077 65.3093 81.8093 65.3273C81.6111 65.3655 81.4498 65.4955 81.3478 65.6484C81.2446 65.802 81.1971 65.9847 81.2115 66.1548C81.2417 66.5004 81.4885 66.7531 81.7277 66.835C81.9725 66.9207 82.1883 66.8669 82.3138 66.8107C82.3781 66.7817 82.423 66.75 82.4526 66.7279C82.4811 66.7042 82.4948 66.6905 82.4933 66.6888Z"
        fill="#263238" />
    <path
        d="M76.4707 61.7316C76.47 61.7503 76.6697 61.7429 76.8624 61.8744C77.0582 62.0013 77.1283 62.1885 77.1454 62.1806C77.1526 62.1785 77.1463 62.1278 77.1096 62.0551C77.0733 61.9826 77.0016 61.8914 76.8974 61.8218C76.793 61.7527 76.6812 61.7215 76.6003 61.7162C76.5189 61.7105 76.47 61.7241 76.4707 61.7316Z"
        fill="#EB996E" />
    <path
        d="M76.6817 61.5026C76.6767 61.5213 76.8992 61.564 77.0974 61.7442C77.299 61.9206 77.3672 62.1369 77.3849 62.1297C77.3921 62.1278 77.3861 62.0706 77.3501 61.9859C77.3148 61.9014 77.2448 61.7915 77.1392 61.6972C77.0336 61.6034 76.9164 61.5462 76.8284 61.5208C76.7403 61.4946 76.6829 61.4949 76.6817 61.5026Z"
        fill="#EB996E" />
    <path
        d="M75.0391 56.5424C75.0353 56.5583 75.3684 56.6473 75.7913 56.6802C76.2141 56.7145 76.5571 56.6795 76.5559 56.6631C76.5549 56.6447 76.2141 56.6514 75.7963 56.6173C75.3785 56.5849 75.0429 56.5242 75.0391 56.5424Z"
        fill="#EB996E" />
    <path
        d="M75.2285 56.8323C75.228 56.8499 75.4932 56.8693 75.8203 56.8758C76.1477 56.8823 76.4132 56.8734 76.4136 56.8561C76.4141 56.8388 76.1489 56.8191 75.8216 56.8127C75.4944 56.8062 75.2288 56.8151 75.2285 56.8323Z"
        fill="#EB996E" />
    <path
        d="M83.3352 59.6553C83.3429 59.6565 83.3703 59.5499 83.3914 59.3733C83.4125 59.1969 83.4231 58.9499 83.3993 58.6787C83.3748 58.4078 83.3211 58.1666 83.269 57.9964C83.2172 57.8262 83.1711 57.7262 83.1639 57.7286C83.1444 57.7346 83.2911 58.1493 83.3364 58.684C83.3859 59.2187 83.3151 59.6529 83.3352 59.6553Z"
        fill="#455A64" />
    <path
        d="M84.3067 61.2827C84.3127 61.2846 84.3487 61.1824 84.3381 61.0105C84.329 60.8413 84.2584 60.5999 84.0775 60.4043C83.8958 60.2092 83.6604 60.1208 83.4924 60.099C83.322 60.0755 83.2173 60.104 83.2188 60.11C83.2195 60.1211 83.3239 60.1093 83.4847 60.1429C83.6438 60.1748 83.8617 60.2648 84.0314 60.4472C84.2004 60.6299 84.2738 60.854 84.294 61.0151C84.3153 61.178 84.2956 61.2812 84.3067 61.2827Z"
        fill="#455A64" />
    <path
        d="M64.4811 71.3105C64.4811 71.3105 64.058 72.8156 63.9905 73.867C63.9572 74.3857 63.7695 76.0949 63.8432 77.7248C63.938 79.8207 64.6349 81.8449 65.8525 83.5537C66.5456 84.4577 67.9109 84.4486 68.5918 83.5354L70.76 80.6276L69.1313 78.7383C69.1313 78.7383 67.3834 75.4779 67.1297 72.9977L64.4811 71.3105Z"
        fill="#FF725E" />
    <path
        d="M75.4962 67.5875C75.4962 67.5875 67.4679 73.7687 67.9472 76.8205C68.2599 78.8133 68.9353 82.3924 68.9353 82.3924L66.5859 83.8977L81.872 85.3561C81.872 85.3561 83.1848 81.9925 84.4772 79.0924C85.1399 77.6056 86.9334 72.9028 86.3139 69.6983C85.9859 68.0008 84.4419 66.9685 82.6616 66.8788C81.9047 66.8406 81.1362 66.7444 81.0313 66.8087C79.4943 67.7517 77.9595 68.2559 76.8829 68.3363C75.8147 68.416 75.4962 67.5875 75.4962 67.5875Z"
        fill="#FF725E" />
    <path
        d="M80.7729 68.544C80.7729 68.544 82.4553 66.5924 83.8199 67.0337C84.9719 67.4062 86.1321 68.0487 86.3575 69.7968C86.5831 71.545 85.0999 76.1967 83.6474 78.3269C82.6499 79.79 77.1707 84.8928 77.1707 84.8928L67.3828 84.5952L74.9097 79.3272L78.9136 72.955L80.7729 68.544Z"
        fill="#FF725E" />
    <path
        d="M79.7389 70.9964C79.7389 70.9964 79.725 71.041 79.6916 71.1262C79.6554 71.216 79.605 71.3415 79.5395 71.5042C79.4005 71.8412 79.1984 72.3313 78.9373 72.9649L78.9366 72.9668L78.9354 72.9687C78.0601 74.3718 76.6765 76.5898 74.9524 79.3542L74.9471 79.3628L74.9387 79.3688C72.7705 80.8902 70.203 82.6916 67.418 84.6457L67.3847 84.5343C68.8756 84.5792 70.4207 84.6258 72.0025 84.6735C73.7848 84.7282 75.5204 84.7815 77.1724 84.8322L77.1289 84.8485C79.0379 83.0569 80.8107 81.3606 82.3326 79.7672C83.9682 78.2504 84.6858 76.3626 85.2678 74.8568C85.8299 73.3278 86.1371 72.056 86.2741 71.173C86.3125 70.9527 86.3252 70.7547 86.3478 70.5848C86.3559 70.4151 86.3627 70.2711 86.3682 70.1526C86.3634 70.04 86.3595 69.9522 86.3569 69.8876C86.355 69.8278 86.355 69.7971 86.3567 69.7969C86.3586 69.7966 86.3622 69.8269 86.3677 69.8864C86.373 69.951 86.3804 70.039 86.3898 70.1521C86.3869 70.2711 86.3835 70.4163 86.3797 70.587C86.3605 70.7578 86.3509 70.9573 86.3156 71.1788C86.1908 72.0675 85.8947 73.3458 85.341 74.8832C85.0631 75.651 84.7244 76.4859 84.2775 77.3497C84.0455 77.7764 83.8064 78.223 83.4776 78.6342C83.1488 79.0398 82.7891 79.4389 82.4091 79.8394C80.8892 81.4414 79.12 83.1418 77.2115 84.9373L77.1932 84.9543L77.168 84.9536C75.5159 84.9039 73.7802 84.8516 71.998 84.7978C70.4161 84.7494 68.871 84.7018 67.3801 84.6562L67.1953 84.6505L67.3468 84.5446C70.1363 82.5973 72.7079 80.8018 74.8799 79.2855L74.8662 79.2999C76.6084 76.5471 78.0064 74.3382 78.8908 72.9406L78.8888 72.9442C79.16 72.3147 79.3698 71.828 79.5138 71.4932C79.5846 71.3326 79.6391 71.209 79.678 71.1205C79.7166 71.0377 79.7389 70.9964 79.7389 70.9964Z"
        fill="#263238" />
    <path
        d="M84.8959 67.6031C84.8877 67.6245 84.6113 67.5021 84.1382 67.4219C83.6693 67.3398 82.9913 67.3247 82.2962 67.547C81.6012 67.7694 81.0576 68.1755 80.7235 68.5146C80.3851 68.8545 80.2308 69.1146 80.2118 69.1019C80.2051 69.0978 80.2368 69.0292 80.3081 68.9128C80.3791 68.7964 80.495 68.6349 80.6597 68.4534C80.9846 68.0908 81.5381 67.6581 82.2581 67.4277C82.9778 67.1975 83.6796 67.2282 84.1548 67.335C84.3943 67.3871 84.5822 67.4514 84.7077 67.505C84.8335 67.5582 84.899 67.5959 84.8959 67.6031Z"
        fill="#263238" />
    <path
        d="M66.152 83.8593C66.1486 83.8596 66.1438 83.8243 66.1484 83.7566C66.1563 83.6894 66.18 83.591 66.234 83.4744C66.343 83.2414 66.5676 82.9445 66.8799 82.6166C67.1909 82.2869 67.5886 81.9237 68.0273 81.5215C68.2457 81.3194 68.4759 81.1082 68.6976 80.8757C68.8068 80.759 68.917 80.6371 69.0039 80.5032C69.0896 80.3712 69.146 80.2133 69.1877 80.0525C69.2652 79.7313 69.288 79.379 69.0483 79.1681C68.9393 79.0593 68.8155 78.9494 68.7084 78.8292C68.6592 78.7663 68.6108 78.7039 68.5625 78.6422C68.5203 78.5769 68.4783 78.5121 68.437 78.4483C68.13 77.9215 68.0016 77.382 67.9438 76.9327C67.8845 76.4805 67.9157 76.1093 67.9546 75.8592C67.9757 75.7339 67.9976 75.6379 68.0189 75.5743C68.0379 75.5102 68.0499 75.4773 68.054 75.4785C68.0669 75.4819 68.0278 75.6163 68.0028 75.8657C67.9791 76.1141 67.962 76.4789 68.0314 76.9209C68.0986 77.3597 68.2344 77.8855 68.5356 78.3893C68.576 78.4502 68.6168 78.5117 68.658 78.5741C68.7044 78.6324 68.7512 78.6914 68.7984 78.7509C68.9002 78.8633 69.0156 78.9643 69.1371 79.0838C69.2573 79.199 69.3548 79.3781 69.3615 79.5576C69.3752 79.7352 69.3519 79.9111 69.3092 80.0829C69.2645 80.2541 69.2055 80.4209 69.1085 80.5706C69.0125 80.7175 68.899 80.8409 68.7864 80.9604C68.5592 81.1963 68.3264 81.4065 68.1051 81.6069C67.6611 82.0053 67.2596 82.3598 66.9435 82.6785C66.6262 82.9953 66.3963 83.2781 66.2777 83.4967C66.157 83.7158 66.1637 83.8603 66.152 83.8593Z"
        fill="#263238" />
    <path
        d="M74.9095 79.3518C74.9095 79.3595 74.845 79.3691 74.7269 79.3686C74.6091 79.3688 74.4379 79.353 74.2313 79.3071C73.8235 79.2159 73.2521 78.9855 72.8105 78.494C72.3775 78.0032 72.175 77.4289 72.1054 77.0151C72.0701 76.8066 72.0615 76.6355 72.0653 76.5179C72.0687 76.4003 72.0792 76.3357 72.0869 76.3359C72.109 76.3357 72.1011 76.5959 72.1918 76.9976C72.2815 77.3958 72.4899 77.942 72.9041 78.4112C73.3198 78.8747 73.8622 79.1115 74.2529 79.2212C74.6496 79.3333 74.9103 79.3297 74.9095 79.3518Z"
        fill="#263238" />
    <g opacity="0.3">
        <path
            d="M72.0981 76.6543C71.9121 77.3246 72.0153 78.1253 72.4502 78.6681C72.8853 79.2108 73.7752 79.3615 74.4698 79.326C73.031 79.1311 72.2959 77.8747 72.0981 76.6543Z"
            fill="black" />
    </g>
    <path
        d="M77.3691 83.5478C77.3691 83.5615 77.2177 83.5775 76.9786 83.5274C76.7408 83.4784 76.4204 83.3457 76.1326 83.1055C75.8458 82.864 75.6593 82.5717 75.5696 82.3459C75.4784 82.1193 75.468 81.9674 75.4812 81.965C75.5014 81.9599 75.5424 82.102 75.6497 82.3087C75.7558 82.5153 75.9423 82.7815 76.213 83.0097C76.4849 83.2363 76.7794 83.3735 77.0014 83.4419C77.2237 83.5115 77.3705 83.5271 77.3691 83.5478Z"
        fill="#263238" />
    <g opacity="0.3">
        <path
            d="M68.4316 83.861C71.1878 84.198 74.489 84.5688 77.261 84.7308C74.6505 83.4748 71.2156 83.0611 68.4316 83.861Z"
            fill="black" />
    </g>
    <g opacity="0.3">
        <path
            d="M69.1913 79.4815C69.0982 79.1366 68.8539 78.8575 68.6542 78.5613C68.2445 77.9534 68.0079 77.2305 67.9786 76.498C67.7012 76.8796 67.6501 77.3839 67.7007 77.8531C67.7516 78.322 67.8934 78.7766 67.9654 79.2429C68.0177 79.5811 68.0297 79.9411 67.8853 80.2514C67.6863 80.6786 67.2397 80.9212 66.8871 81.2337C66.1606 81.8774 65.9189 82.8991 66.1011 83.8524C66.3761 83.1945 66.8989 82.571 67.4293 82.0946C67.8442 81.7219 68.324 81.4204 68.6986 81.0072C69.0733 80.5941 69.3368 80.0198 69.1913 79.4815Z"
            fill="black" />
    </g>
    <g opacity="0.3">
        <path
            d="M77.7324 84.4269C80.3784 83.3248 82.3507 81.1888 83.5299 78.5762C81.6043 80.5094 79.6798 82.5162 77.7324 84.4269Z"
            fill="black" />
    </g>
    <path
        d="M42.1533 94.8045L38.2833 99.3544L37.595 101.367C37.3339 102.131 36.7639 101.775 35.9997 101.514L26.6784 98.3268C26.6784 98.3268 26.5586 97.2405 27.3465 97.1832C28.1345 97.1258 34.3298 96.0326 34.3298 96.0326L37.6238 91.6113L42.1533 94.8045Z"
        fill="#E0E0E0" />
    <path
        d="M42.8132 94.6877L41.7836 95.7629C41.6259 95.9276 41.3696 95.946 41.1899 95.8061L37.1127 92.6316C36.933 92.4917 36.8883 92.2385 37.0091 92.0456L37.7773 90.818C37.9163 90.596 38.2163 90.5417 38.4241 90.7011L42.7628 94.0277C42.9728 94.189 42.9963 94.4967 42.8132 94.6877Z"
        fill="#E0E0E0" />
    <path
        d="M36.9496 92.5182C36.9388 92.5302 37.1541 92.7479 37.5182 93.0824C37.8825 93.4167 38.3978 93.8665 38.9925 94.3324C39.5877 94.798 40.1507 95.1879 40.5683 95.4534C40.7771 95.5861 40.9485 95.69 41.0694 95.7572C41.1902 95.8251 41.2588 95.8592 41.2634 95.852C41.273 95.8367 41.0202 95.6648 40.6161 95.3819C40.2119 95.0989 39.6599 94.7 39.0674 94.2366C38.4753 93.7727 37.953 93.3349 37.5748 93.0176C37.1968 92.7004 36.9611 92.5052 36.9496 92.5182Z"
        fill="#263238" />
    <path
        d="M40.7136 95.3125C40.7211 95.3417 41.2318 95.1085 41.61 94.5553C41.9945 94.0059 42.0322 93.4457 42.0024 93.4493C41.9655 93.4402 41.8764 93.9649 41.5102 94.4861C41.1516 95.0127 40.692 95.281 40.7136 95.3125Z"
        fill="#263238" />
    <path
        d="M39.0696 94.3348C39.0936 94.3569 39.4918 93.9624 39.9236 93.4238C40.3563 92.8857 40.6553 92.4117 40.6284 92.3932C40.6004 92.3733 40.2586 92.8132 39.8288 93.3477C39.3999 93.8829 39.0442 94.3118 39.0696 94.3348Z"
        fill="#263238" />
    <path
        d="M37.5678 92.8981C37.6026 92.9147 37.7826 92.3898 38.2778 91.9554C38.7657 91.5126 39.3076 91.3936 39.2951 91.3571C39.2925 91.3432 39.154 91.3521 38.9428 91.4233C38.7321 91.4934 38.4527 91.6372 38.1969 91.8647C37.942 92.0929 37.7675 92.3541 37.6737 92.5554C37.5791 92.7575 37.5544 92.8938 37.5678 92.8981Z"
        fill="#263238" />
    <path
        d="M35.3435 101.229C35.3615 101.237 35.4419 101.065 35.6243 100.825C35.8043 100.585 36.1019 100.284 36.5054 100.07C36.9091 99.855 37.3255 99.7775 37.6245 99.7622C37.9255 99.7454 38.1131 99.7756 38.1163 99.7557C38.1194 99.7427 37.9346 99.6815 37.6223 99.6762C37.313 99.6695 36.8726 99.7365 36.448 99.9623C36.0237 100.188 35.7215 100.515 35.5538 100.775C35.3839 101.037 35.3311 101.224 35.3435 101.229Z"
        fill="#263238" />
    <path
        d="M29.4314 99.2686C29.4422 99.2758 29.538 99.1685 29.6352 98.9576C29.7314 98.7488 29.8082 98.42 29.7499 98.0652C29.6933 97.7108 29.5382 97.4232 29.4151 97.232C29.2884 97.0409 29.1898 96.9389 29.1778 96.9478C29.1626 96.9586 29.2361 97.0784 29.341 97.2756C29.4425 97.4734 29.5771 97.7537 29.6297 98.0842C29.6837 98.4149 29.6266 98.7183 29.5548 98.9266C29.4828 99.1352 29.4139 99.258 29.4314 99.2686Z"
        fill="#263238" />
    <path
        d="M38.047 95.3147L32.2001 96.5371L30.4224 97.7054C29.7478 98.1489 29.516 97.5179 29.0724 96.8431L23.6621 88.6108C23.6621 88.6108 24.2336 87.6794 24.8909 88.1169C25.5485 88.5547 31.1131 91.4889 31.1131 91.4889L36.426 90.0153L38.047 95.3147Z"
        fill="#FAFAFA" />
    <path
        d="M38.6397 95.6267L37.1671 95.8451C36.9417 95.8784 36.7277 95.7361 36.6715 95.5153L35.3966 90.5079C35.3405 90.2871 35.4602 90.0599 35.6741 89.9814L37.0334 89.4824C37.2794 89.3922 37.5497 89.5333 37.6161 89.7868L39.0045 95.0749C39.0715 95.3303 38.9016 95.5878 38.6397 95.6267Z"
        fill="#E0E0E0" />
    <path
        d="M35.3376 90.3164C35.3218 90.3193 35.3582 90.6231 35.441 91.1108C35.5241 91.5983 35.6554 92.2695 35.8394 93.0023C36.0242 93.735 36.2299 94.3883 36.3972 94.8541C36.4807 95.0871 36.5525 95.2741 36.6067 95.4013C36.6605 95.529 36.6938 95.5981 36.7018 95.5952C36.7186 95.589 36.6245 95.2981 36.4788 94.827C36.3331 94.3556 36.1414 93.7021 35.9573 92.9725C35.7739 92.2431 35.6297 91.5769 35.5253 91.0945C35.4214 90.6121 35.3549 90.3135 35.3376 90.3164Z"
        fill="#263238" />
    <path
        d="M36.5979 94.8323C36.5859 94.8599 37.1323 94.9888 37.7703 94.7836C38.4108 94.5853 38.784 94.1658 38.7583 94.1502C38.7346 94.1202 38.3427 94.4802 37.7338 94.6676C37.1278 94.864 36.6 94.7944 36.5979 94.8323Z"
        fill="#263238" />
    <path
        d="M35.8985 93.0538C35.9038 93.0859 36.4603 93.0185 37.1316 92.8577C37.8034 92.6978 38.3302 92.5068 38.3203 92.4756C38.3102 92.4427 37.7707 92.5807 37.1033 92.7396C36.4363 92.8992 35.8925 93.0197 35.8985 93.0538Z"
        fill="#263238" />
    <path
        d="M35.5942 90.9966C35.6115 91.0309 36.0756 90.7266 36.733 90.687C37.3899 90.6364 37.8912 90.8745 37.9035 90.838C37.9099 90.8253 37.795 90.7477 37.5845 90.6743C37.375 90.6006 37.0661 90.5428 36.7246 90.5656C36.3833 90.5896 36.0852 90.6889 35.8879 90.7907C35.6892 90.8922 35.5863 90.9851 35.5942 90.9966Z"
        fill="#263238" />
    <path
        d="M28.7288 96.216C28.7379 96.2338 28.9071 96.1467 29.1982 96.0689C29.4872 95.9902 29.9069 95.9345 30.3572 96.0125C30.8076 96.0905 31.184 96.2844 31.4297 96.4558C31.6776 96.6272 31.8077 96.7659 31.8224 96.7522C31.8329 96.7438 31.7242 96.5823 31.4808 96.3867C31.2406 96.1916 30.8516 95.9748 30.3778 95.8928C29.9043 95.8107 29.4651 95.8839 29.173 95.9868C28.8783 96.0891 28.7216 96.2048 28.7288 96.216Z"
        fill="#263238" />
    <path
        d="M25.2601 91.0401C25.2641 91.0526 25.4057 91.0265 25.6117 90.9192C25.8157 90.8131 26.078 90.6007 26.2493 90.2844C26.4219 89.9695 26.4757 89.6474 26.4956 89.4209C26.5126 89.1921 26.497 89.051 26.4824 89.0508C26.4637 89.0501 26.4485 89.1897 26.4104 89.4098C26.3696 89.6282 26.3038 89.9323 26.1428 90.2258C25.9827 90.5201 25.7516 90.7248 25.5673 90.8455C25.3825 90.9662 25.2529 91.0212 25.2601 91.0401Z"
        fill="#263238" />
    <path
        d="M54.3816 85.1741C54.5803 84.6631 53.1874 83.8412 52.6222 83.3604C51.462 82.3733 48.5655 82.0198 47.0794 82.434C45.0084 83.0112 41.5786 87.1716 40.5591 88.1796C39.5395 89.1876 36.4258 94.2672 36.4258 94.2672L40.0704 97.2111L51.2743 89.7466L54.3816 85.1741Z"
        fill="#263238" />
    <path
        d="M33.7969 90.5601C33.7969 90.5601 34.9362 92.3928 34.5066 96.3038C34.5066 96.3038 35.7524 97.031 36.4671 95.9335C36.429 95.8543 47.643 95.9335 52.7859 92.1228C53.7058 91.4412 54.4006 91.6097 55.598 90.9986C55.598 90.9986 60.8583 92.6513 64.4324 93.3626C66.5343 93.7809 71.8052 94.5391 76.2027 94.7909C78.1642 94.9032 80.4937 94.2701 81.4057 92.3789C82.0434 91.0567 82.1929 88.7604 81.9694 86.9563L81.3786 85.1753C81.3786 85.1753 55.5841 82.2626 52.5061 83.148C49.976 83.8757 35.6643 89.4763 35.6643 89.4763C35.6643 89.4763 33.7969 88.6147 33.7969 90.5601Z"
        fill="#263238" />
    <path
        d="M36.4664 95.9335C36.4434 95.9251 36.59 95.569 36.7079 94.9651C36.8298 94.3635 36.8891 93.5074 36.7638 92.5771C36.645 91.6455 36.3733 90.8323 36.146 90.2609C35.9142 89.6899 35.7318 89.3525 35.7515 89.3419C35.7591 89.3379 35.8105 89.4187 35.8971 89.5692C35.9864 89.7183 36.099 89.9434 36.2274 90.2266C36.4775 90.7942 36.7667 91.6145 36.8876 92.5608C37.0151 93.5055 36.9404 94.3779 36.7943 94.9834C36.7631 95.1363 36.7227 95.2714 36.6846 95.389C36.6498 95.5078 36.615 95.6083 36.5799 95.688C36.5144 95.8498 36.4746 95.9369 36.4664 95.9335Z"
        fill="#455A64" />
    <path
        d="M51.8303 83.2975C51.8318 83.3016 51.7763 83.3253 51.6695 83.3664C51.5507 83.4105 51.3947 83.4686 51.2003 83.5411C50.7789 83.6949 50.1914 83.9093 49.4714 84.1721C48.0117 84.7051 45.9988 85.4518 43.7807 86.2901C41.5703 87.1339 39.5701 87.8973 38.1069 88.4561C37.3909 88.7301 36.807 88.9536 36.388 89.1139C36.1936 89.1861 36.0376 89.2442 35.9188 89.2884C35.811 89.327 35.7537 89.3453 35.752 89.3414C35.7503 89.3374 35.8045 89.3112 35.9094 89.2651C36.0261 89.2154 36.179 89.1502 36.37 89.0688C36.7854 88.8994 37.3645 88.6632 38.0747 88.3738C39.5173 87.7946 41.5175 87.0122 43.7368 86.1732C45.9553 85.3346 47.9738 84.6007 49.4418 84.0888C50.1755 83.8318 50.7714 83.6304 51.1845 83.495C51.3822 83.4319 51.5406 83.381 51.6614 83.3424C51.7708 83.309 51.8289 83.2934 51.8303 83.2975Z"
        fill="#455A64" />
    <path
        d="M57.1908 90.4362C57.192 90.4402 57.1238 90.4645 56.9926 90.5072C56.8514 90.5528 56.6602 90.6145 56.4187 90.6925C55.9212 90.8562 55.1998 91.0938 54.3322 91.4521C53.4614 91.8075 52.464 92.3094 51.4214 93.0037C51.1502 93.1638 50.8594 93.3075 50.5507 93.4266C50.2394 93.5427 49.9236 93.6418 49.6008 93.7534C48.9552 93.9714 48.2861 94.1972 47.5997 94.4288L47.597 94.4298L47.5949 94.4302C47.4701 94.4602 47.3354 94.4924 47.2003 94.5248C44.2805 95.2093 41.575 95.4709 39.6274 95.6679C38.6599 95.7548 37.8732 95.8256 37.3159 95.8755C37.0512 95.8964 36.8414 95.913 36.6869 95.9252C36.6211 95.929 36.5674 95.9324 36.523 95.935C36.486 95.9365 36.4668 95.9362 36.4668 95.9341C36.4666 95.9319 36.4853 95.9278 36.5218 95.9223C36.5659 95.9163 36.6192 95.9091 36.6845 95.9002C36.8383 95.8822 37.0474 95.858 37.3111 95.827C37.8672 95.7675 38.6525 95.6833 39.6182 95.5798C41.5627 95.3605 44.2627 95.085 47.1713 94.4029C47.3059 94.3707 47.4401 94.3386 47.5644 94.3088L47.5596 94.3102C48.2465 94.0796 48.9158 93.855 49.5619 93.638C49.883 93.5281 50.2058 93.4275 50.5082 93.3159C50.8109 93.2007 51.0965 93.0608 51.3638 92.9053C51.63 92.7507 51.8808 92.5724 52.1386 92.4255C52.393 92.2726 52.6466 92.1368 52.8936 92.0089C53.3882 91.755 53.862 91.5466 54.2993 91.3712C55.175 91.0218 55.902 90.7964 56.4046 90.6464C56.6563 90.5725 56.8522 90.5178 56.9856 90.483C57.119 90.4484 57.1896 90.4321 57.1908 90.4362Z"
        fill="#455A64" />
    <path
        d="M82.8236 82.9805L77.3691 84.743C78.2598 86.0702 79.9729 86.7362 81.4671 86.1684C81.8847 86.0097 82.3146 85.709 82.3616 85.2648C82.3854 85.0399 82.274 84.8222 82.2656 84.5964C82.2577 84.3792 82.6417 83.4266 82.8236 82.9805Z"
        fill="#FF725E" />
    <path
        d="M69.7924 63.2755L66.2841 63.2071C66.0263 63.2021 65.8211 63.4217 65.8435 63.6787L66.5851 72.1358L70.4853 72.2868C70.7464 72.2969 70.9571 72.0756 70.9341 71.8154L70.216 63.6715C70.1966 63.4505 70.0139 63.2798 69.7924 63.2755Z"
        fill="#263238" />
    <path
        d="M64.4941 72.159V69.4189C64.4941 69.4189 64.6677 68.3409 65.0843 68.4105L65.9867 66.5015L67.3297 65.3145H68.7289C68.7289 65.3145 68.8677 66.0851 68.2777 66.2238L67.33 66.5363L67.1325 67.0223L66.9937 68.5149L68.5905 67.9943L70.5637 68.133C70.5637 68.133 70.9509 68.7232 70.3259 69.0008L69.1458 69.1398L67.3302 69.938L69.0071 69.5214L70.9509 69.5908C70.9509 69.5908 71.0896 70.1999 70.3955 70.2851C69.7014 70.3703 69.1113 70.5976 69.1113 70.5976L67.5493 71.2223L69.0071 71.0687L70.5637 71.2223C70.5637 71.2223 70.4301 71.6387 69.8747 71.7083C69.3193 71.7777 68.5557 71.8473 68.5557 71.8473L67.7281 72.1597C67.7281 72.1597 67.6185 72.6805 67.0631 73.2705C67.0631 73.2705 66.6465 73.791 66.1259 73.7565C65.6053 73.7217 64.4944 73.1317 64.4944 72.6457C64.4944 72.1597 64.4941 72.159 64.4941 72.159Z"
        fill="#FFBE9D" />
    <path
        d="M66.1226 69.2169C66.114 69.2346 66.0297 69.1989 65.8922 69.196C65.7576 69.1912 65.561 69.2306 65.4115 69.3666C65.2629 69.5044 65.2072 69.6966 65.2008 69.8313C65.1921 69.9686 65.2207 70.0555 65.2022 70.0624C65.1897 70.0694 65.1278 69.9897 65.1124 69.8327C65.0959 69.6806 65.1436 69.4449 65.327 69.2745C65.5125 69.1062 65.7513 69.0784 65.9013 69.1079C66.0564 69.1365 66.1308 69.2051 66.1226 69.2169Z"
        fill="#EB996E" />
    <path
        d="M66.4043 70.2678C66.4132 70.3031 66.1967 70.3778 65.9865 70.552C65.7733 70.7229 65.6567 70.9202 65.6238 70.9041C65.5926 70.8942 65.6689 70.6478 65.9075 70.455C66.1441 70.2604 66.4009 70.2352 66.4043 70.2678Z"
        fill="#EB996E" />
    <path
        d="M66.4926 71.5118C66.4888 71.5469 66.3921 71.5642 66.2819 71.5934C66.1713 71.621 66.0784 71.653 66.058 71.6242C66.0373 71.5975 66.1151 71.5073 66.2505 71.4725C66.3861 71.4372 66.4977 71.4785 66.4926 71.5118Z"
        fill="#EB996E" />
    <path
        d="M68.0565 64.5622C68.2106 64.5622 68.3356 64.4372 68.3356 64.283C68.3356 64.1289 68.2106 64.0039 68.0565 64.0039C67.9023 64.0039 67.7773 64.1289 67.7773 64.283C67.7773 64.4372 67.9023 64.5622 68.0565 64.5622Z"
        fill="white" />
    <path
        d="M114.647 114.223C114.647 114.257 90.1789 114.285 60.003 114.285C29.8165 114.285 5.35352 114.257 5.35352 114.223C5.35352 114.188 29.8165 114.16 60.003 114.16C90.1789 114.16 114.647 114.188 114.647 114.223Z"
        fill="#263238" />
</svg>
