<svg width="14" height="14" viewBox="0 0 14 14" fill="none" xmlns="http://www.w3.org/2000/svg">
    <g id="y">
        <path id="Vector"
            d="M1.73582 4.48281C1.77189 3.63423 2.31699 3.05823 2.91085 3.00491C3.86801 2.91898 5.25546 2.83398 6.99935 2.83398C8.73873 2.83398 10.1235 2.91854 11.0804 3.00424C11.6765 3.05764 12.2236 3.63751 12.2593 4.49111C12.2969 5.39 12.3327 6.39844 12.3327 6.97111C12.3327 7.55007 12.2961 8.57423 12.2581 9.48017C12.2227 10.3228 11.6875 10.9003 11.0998 10.9621C10.1292 11.0643 8.72324 11.1673 6.99935 11.1673C5.27096 11.1673 3.86213 11.0638 2.89128 10.9613C2.30591 10.8996 1.77284 10.3262 1.73706 9.48853C1.70038 8.6298 1.66602 7.644 1.66602 6.97111C1.66602 6.30589 1.6996 5.33475 1.73582 4.48281Z"
            stroke="#AAAAAA" />
        <path id="Vector_2"
            d="M8.57242 6.82668L6.13378 5.42261C6.00044 5.34584 5.83398 5.44208 5.83398 5.59593V8.40407C5.83398 8.55792 6.00044 8.65416 6.13378 8.57739L8.57242 7.17332C8.70602 7.0964 8.70602 6.9036 8.57242 6.82668Z"
            fill="#AAAAAA" />
    </g>
</svg>
