<svg width="24" height="24" viewBox="0 0 24 24" fill="none" xmlns="http://www.w3.org/2000/svg">
    <path fill-rule="evenodd" clip-rule="evenodd"
        d="M18.2811 19.6649C18.5898 20.109 18.48 20.7193 18.0359 21.028C17.7196 21.2478 17.3928 21.4502 17.0572 21.6346C16.5832 21.8951 15.9878 21.7221 15.7273 21.2481C15.4667 20.7741 15.6398 20.1787 16.1138 19.9182C16.3897 19.7665 16.6582 19.6002 16.918 19.4197C17.3621 19.111 17.9724 19.2208 18.2811 19.6649ZM1.75011 10.8189C2.29089 10.8293 2.72081 11.2762 2.71036 11.8169C2.70426 12.1332 2.71484 12.4489 2.74173 12.7626C2.78793 13.3014 2.38852 13.7757 1.84962 13.8219C1.31073 13.8681 0.836407 13.4687 0.790203 12.9299C0.757493 12.5483 0.744607 12.1642 0.752044 11.7791C0.762487 11.2383 1.20934 10.8084 1.75011 10.8189ZM13.5732 21.9004C13.6194 22.4393 13.22 22.9136 12.6811 22.9598C12.2995 22.9925 11.9154 23.0054 11.5303 22.998C10.9895 22.9875 10.5596 22.5407 10.57 21.9999C10.5804 21.4592 11.0273 21.0293 11.5681 21.0397C11.8844 21.0458 12.2001 21.0352 12.5137 21.0083C13.0526 20.9621 13.527 21.3615 13.5732 21.9004ZM2.50192 15.976C2.97592 15.7155 3.57137 15.8885 3.83189 16.3625C3.98353 16.6384 4.14984 16.9069 4.33042 17.1667C4.63911 17.6108 4.52931 18.2211 4.08518 18.5298C3.64104 18.8385 3.03075 18.7287 2.72206 18.2845C2.50221 17.9682 2.29983 17.6415 2.11538 17.3059C1.85486 16.8319 2.02792 16.2365 2.50192 15.976ZM5.72871 20.0681C6.00813 19.605 6.61007 19.4561 7.07318 19.7355C7.20771 19.8167 7.34513 19.8949 7.48541 19.9699C7.62568 20.045 7.76697 20.116 7.90914 20.1829C8.39854 20.4132 8.60859 20.9966 8.37829 21.4859C8.148 21.9753 7.56457 22.1854 7.07517 21.9551C6.90258 21.8739 6.73122 21.7878 6.56126 21.6968C6.39131 21.6059 6.22464 21.5111 6.06131 21.4125C5.5982 21.1331 5.44929 20.5312 5.72871 20.0681Z"
        fill="#AAAAAA" />
    <path fill-rule="evenodd" clip-rule="evenodd"
        d="M16.6736 4.41833C12.4864 1.69917 6.8876 2.88916 4.16836 7.07627C3.87378 7.52987 3.26724 7.65879 2.81363 7.36421C2.36001 7.06963 2.23109 6.46311 2.52567 6.00951C5.83407 0.915215 12.6459 -0.532622 17.7404 2.7757C22.8348 6.08402 24.2827 12.8957 20.9743 17.99C20.1071 19.3253 18.9973 20.4118 17.7398 21.2272C17.2859 21.5214 16.6795 21.3921 16.3852 20.9382C16.091 20.4844 16.2203 19.878 16.6742 19.5838C17.7055 18.9151 18.617 18.0235 19.3316 16.9232C22.0508 12.7361 20.8608 7.13749 16.6736 4.41833Z"
        fill="#AAAAAA" />
    <path fill-rule="evenodd" clip-rule="evenodd"
        d="M1.85972 3.67092C2.39963 3.6386 2.86544 4.04996 2.90013 4.5897L3.03675 6.71531L5.20102 6.58578C5.74093 6.55347 6.20674 6.96482 6.24143 7.50456C6.27612 8.0443 5.86656 8.50805 5.32665 8.54036L2.38031 8.71669C1.73241 8.75547 1.17344 8.26184 1.13181 7.61415L0.944932 4.70671C0.91024 4.16697 1.3198 3.70323 1.85972 3.67092Z"
        fill="#AAAAAA" />
    <path fill-rule="evenodd" clip-rule="evenodd"
        d="M11.8644 5.83914C12.4053 5.83914 12.8437 6.27759 12.8437 6.81845V11.1513L16.0831 9.55133C16.568 9.31181 17.1553 9.51075 17.3949 9.99568C17.6344 10.4806 17.4355 11.0679 16.9505 11.3074L12.5807 13.4657C11.7997 13.8515 10.8851 13.2831 10.8851 12.412V6.81845C10.8851 6.27759 11.3235 5.83914 11.8644 5.83914Z"
        fill="#AAAAAA" />
</svg>
