<svg width="24" height="24" viewBox="0 0 24 24" fill="none" xmlns="http://www.w3.org/2000/svg">
    <g clip-path="url(#clip0_10544_51461)">
        <path
            d="M23.1411 8.54445L21.9858 3.68889C21.7437 2.68889 20.8854 2 19.8841 2H4.60018C3.60986 2 2.74058 2.7 2.5095 3.68889L1.35413 8.54445C1.09005 9.67778 1.33213 10.8333 2.03635 11.7444C2.12438 11.8667 2.24542 11.9556 2.34445 12.0667V19.7778C2.34445 21 3.33477 22 4.54516 22H19.9501C21.1605 22 22.1508 21 22.1508 19.7778V12.0667C22.2499 11.9667 22.3709 11.8667 22.4589 11.7556C23.1632 10.8444 23.4162 9.67778 23.1411 8.54445ZM19.8511 4.21111L21.0065 9.06667C21.1165 9.53333 21.0175 10 20.7314 10.3667C20.5773 10.5667 20.2472 10.8889 19.697 10.8889C19.0258 10.8889 18.4426 10.3444 18.3656 9.62222L17.7274 4.22222L19.8511 4.21111ZM13.348 4.22222H15.5047L16.0989 9.24445C16.1539 9.67778 16.0219 10.1111 15.7358 10.4333C15.4937 10.7222 15.1416 10.8889 14.6904 10.8889C13.9532 10.8889 13.348 10.2333 13.348 9.43333V4.22222ZM8.38539 9.24445L8.99059 4.22222H11.1473V9.43333C11.1473 10.2333 10.5421 10.8889 9.72783 10.8889C9.35371 10.8889 9.0126 10.7222 8.74851 10.4333C8.47342 10.1111 8.34138 9.67778 8.38539 9.24445ZM3.48882 9.06667L4.60018 4.22222H6.76787L6.12967 9.62222C6.04164 10.3444 5.46946 10.8889 4.79824 10.8889C4.25907 10.8889 3.91796 10.5667 3.77491 10.3667C3.47782 10.0111 3.37878 9.53333 3.48882 9.06667ZM4.54516 19.7778V13.0778C4.63319 13.0889 4.71021 13.1111 4.79824 13.1111C5.75555 13.1111 6.62483 12.7111 7.26303 12.0556C7.92325 12.7222 8.80353 13.1111 9.80485 13.1111C10.7622 13.1111 11.6204 12.7111 12.2586 12.0778C12.9079 12.7111 13.7881 13.1111 14.7785 13.1111C15.7027 13.1111 16.583 12.7222 17.2432 12.0556C17.8815 12.7111 18.7507 13.1111 19.708 13.1111C19.7961 13.1111 19.8731 13.0889 19.9611 13.0778V19.7778H4.54516Z"
            fill="#AAAAAA" />
    </g>
    <defs>
        <clipPath id="clip0_10544_51461">
            <rect width="24" height="24" fill="white" />
        </clipPath>
    </defs>
</svg>
