<svg width="48" height="48" viewBox="0 0 48 48" fill="none" xmlns="http://www.w3.org/2000/svg">
    <g clip-path="url(#clip0_4947_36567)">
        <path
            d="M20.355 32.0542L16.2458 27.5441L19.8413 24.5373L38.8465 8L40.9011 10.0045L35.7646 15.5169L20.355 32.0542Z"
            fill="white" stroke="#1F1F1F" stroke-width="0.1" />
        <path
            d="M16.0197 28.0878C16.1122 27.5666 16.4101 27.2159 16.7902 26.8852C23.8889 20.7513 30.9773 14.6174 38.0658 8.48361C38.826 7.83215 39.8224 7.84218 40.5005 8.49365C41.1682 9.14512 41.1682 10.1273 40.4902 10.869C35.3023 16.5819 30.1144 22.2848 24.9265 27.9976C23.8479 29.1803 22.7692 30.363 21.7008 31.5557C21.3309 31.9666 20.9303 32.3074 20.3241 32.3775C20.3755 32.588 20.4269 32.7884 20.468 32.9889C20.7659 34.5724 20.1392 35.8654 19.0606 36.9679C17.8381 38.2207 16.2663 38.8922 14.5815 39.3432C12.2701 39.9546 9.9278 40.1049 7.54444 39.9345C7.28762 39.9145 7.09248 39.8042 7.02057 39.5537C6.94866 39.3031 7.07188 39.1127 7.28762 38.9724C8.03755 38.4913 8.69505 37.92 9.23953 37.2184C9.95864 36.2964 10.1949 35.2941 10.0614 34.1315C9.8559 32.3875 10.2669 30.7639 11.3866 29.3607C12.5475 27.9074 14.1089 27.4664 15.8965 28.0377C15.917 28.0678 15.9478 28.0678 16.0197 28.0878ZM9.05462 38.9222C9.06489 38.9523 9.07513 38.9824 9.0854 39.0024C9.94834 38.9423 10.8113 38.9122 11.6742 38.822C13.3179 38.6517 14.9205 38.3309 16.4101 37.6093C17.684 36.9979 18.7216 36.1561 19.2763 34.8431C19.7078 33.8208 19.5332 32.8686 18.8962 31.9165C18.547 32.7483 18.0333 33.4098 17.4683 34.0412C17.1806 34.362 16.893 34.4321 16.6464 34.2317C16.3896 34.0212 16.4101 33.7506 16.6772 33.4098C17.0779 32.8886 17.4785 32.3675 17.8278 31.8163C18.1874 31.2349 18.1463 31.1147 17.6635 30.6436C17.2217 30.2127 17.1087 30.1625 16.5745 30.4933C15.9992 30.8441 15.4548 31.265 14.9103 31.6759C14.5713 31.9265 14.3041 31.9666 14.0884 31.7461C13.8624 31.5055 13.9035 31.2249 14.2219 30.9343C14.8589 30.3429 15.5575 29.8318 16.4204 29.481C15.691 28.9297 14.9205 28.6691 14.037 28.8495C13.0097 29.06 12.3112 29.7015 11.7872 30.5534C11.0989 31.6859 10.8832 32.9288 11.0681 34.2117C11.2838 35.7451 10.7497 37.018 9.76346 38.1606C9.54773 38.4312 9.30117 38.6717 9.05462 38.9222ZM25.6559 25.6824C25.7381 25.5922 25.8305 25.502 25.9127 25.4018C29.7651 21.1622 33.6175 16.9226 37.4699 12.6831C38.2301 11.8512 38.9903 11.0093 39.7403 10.1774C40.0279 9.85671 40.0279 9.48592 39.7608 9.21531C39.4937 8.9447 39.1033 8.9447 38.7746 9.21531C38.6821 9.29549 38.5897 9.37565 38.4972 9.44581C34.3263 13.0539 30.1555 16.6621 25.9846 20.2702C24.9368 21.1722 23.8889 22.0843 22.8719 22.9663C23.8068 23.8683 24.721 24.7704 25.6559 25.6824ZM24.906 26.5143C23.9403 25.5722 22.9952 24.6501 22.0295 23.7079C22.0192 23.718 21.9781 23.7381 21.9473 23.7581C20.3961 25.0911 18.8551 26.4341 17.3141 27.7671C16.9238 28.1079 16.9238 28.4988 17.2936 28.8696C18.0436 29.6113 18.8037 30.3429 19.5537 31.0746C19.9954 31.5056 20.3755 31.4855 20.7967 31.0245C21.4748 30.2828 22.1528 29.5311 22.8308 28.7894C23.5293 28.0277 24.2279 27.266 24.906 26.5143Z"
            fill="#1F1F1F" stroke="#1F1F1F" stroke-miterlimit="10" />
        <path
            d="M9.05463 38.9224C9.29091 38.6718 9.54775 38.4312 9.77375 38.1707C10.76 37.0281 11.2941 35.7552 11.0784 34.2218C10.8935 32.9288 11.1092 31.6961 11.7975 30.5635C12.3214 29.7116 13.02 29.0702 14.0473 28.8597C14.9308 28.6793 15.7013 28.9399 16.4307 29.4911C15.5677 29.8419 14.8692 30.3531 14.2322 30.9444C13.9138 31.2451 13.8624 31.5257 14.0987 31.7562C14.3247 31.9868 14.5918 31.9467 14.9205 31.6861C15.465 31.2751 16.0095 30.8642 16.5848 30.5034C17.1087 30.1827 17.232 30.2227 17.6737 30.6537C18.1566 31.1248 18.1976 31.2451 17.8381 31.8264C17.4888 32.3776 17.0882 32.8988 16.6875 33.42C16.4204 33.7707 16.3998 34.0313 16.6567 34.2418C16.9032 34.4423 17.2012 34.3721 17.4786 34.0514C18.0436 33.42 18.5572 32.7585 18.9065 31.9266C19.5434 32.8687 19.718 33.8309 19.2866 34.8532C18.7318 36.1661 17.684 37.0081 16.4204 37.6194C14.9308 38.3411 13.3179 38.6618 11.6845 38.8322C10.8216 38.9224 9.95863 38.9524 9.0957 39.0126C9.07515 38.9825 9.0649 38.9524 9.05463 38.9224Z"
            fill="url(#paint0_linear_4947_36567)" />
    </g>
    <defs>
        <linearGradient id="paint0_linear_4947_36567" x1="9.05781" y1="33.9036" x2="19.5193"
            y2="33.9036" gradientUnits="userSpaceOnUse">
            <stop stop-color="#FF7304" />
            <stop offset="1" stop-color="#FB2A77" />
        </linearGradient>
        <clipPath id="clip0_4947_36567">
            <rect width="48" height="48" fill="white" />
        </clipPath>
    </defs>
</svg>
