<svg width="48" height="48" viewBox="0 0 48 48" fill="none" xmlns="http://www.w3.org/2000/svg">
    <g clip-path="url(#clip0_4968_39977)">
        <mask id="mask0_4968_39977" style="mask-type:luminance" maskUnits="userSpaceOnUse" x="0"
            y="0" width="48" height="48">
            <path d="M48 0H0V48H48V0Z" fill="white" />
        </mask>
        <g mask="url(#mask0_4968_39977)">
            <mask id="mask1_4968_39977" style="mask-type:luminance" maskUnits="userSpaceOnUse" x="8"
                y="6" width="32" height="35">
                <path d="M40 6H8V41H40V6Z" fill="white" />
            </mask>
            <g mask="url(#mask1_4968_39977)">
                <path
                    d="M13.6932 11.8283V9.4948C13.5262 9.4948 13.3662 9.49839 13.2063 9.4948C12.7089 9.47865 12.4663 9.14658 12.614 8.66733C12.7809 8.12345 12.9637 7.58496 13.1378 7.04288C13.2344 6.74313 13.4313 6.59594 13.7441 6.5744C16.4949 6.38772 19.2491 6.19387 22.0016 6.0054C22.6397 5.96232 22.8383 6.15976 22.84 6.81492C22.84 7.47188 22.8436 8.12704 22.84 8.784C22.8365 9.283 22.6326 9.4912 22.1423 9.49301C20.8697 9.4966 19.5972 9.49301 18.2982 9.49301V11.8283C18.467 11.8283 18.641 11.8247 18.815 11.8283C19.1472 11.8372 19.3564 12.0149 19.4091 12.3452C19.6024 13.5783 19.7817 14.8133 19.9803 16.0464C19.9944 16.138 20.0981 16.2403 20.186 16.2923C22.1967 17.5039 23.4236 19.272 23.8718 21.618C24.044 22.5227 23.9316 23.4058 23.8103 24.2961C23.7171 24.9674 23.6345 25.6387 23.5484 26.2921C24.2128 26.1485 24.8543 25.9977 25.4994 25.8756C25.7419 25.829 25.9968 25.8308 26.2464 25.8362C26.6717 25.8451 26.9161 26.1413 26.8159 26.5595C26.7368 26.888 26.8616 27.107 27.1217 27.2093C27.5348 27.3708 27.9689 27.4732 28.4716 27.6239C28.3609 26.7534 28.2677 26.0013 28.1693 25.2474C27.9214 23.3573 27.6402 21.4726 27.4363 19.5789C27.3467 18.7496 27.4065 17.9042 27.417 17.066C27.4223 16.7231 27.6508 16.5149 27.9953 16.5005C28.28 16.488 28.5665 16.497 28.8513 16.497C32.2892 16.497 35.729 16.497 39.167 16.497C39.8032 16.497 39.9491 16.6729 39.9825 17.3101C40.0915 19.4138 39.7048 21.4726 39.4412 23.5404C39.0826 26.3693 38.7047 29.1981 38.3356 32.0252C38.1352 33.5653 37.9067 35.1036 37.7468 36.649C37.6642 37.4424 37.6993 38.2501 37.6941 39.0507C37.6853 40.291 37.0015 41 35.794 41C27.8705 41 19.9452 41 12.0216 41C10.9055 41 10.2692 40.4095 10.1198 39.2625C9.56091 34.9779 8.9967 30.6933 8.43425 26.4105C8.28836 25.3031 8.08799 24.1991 8.01416 23.0881C7.91222 21.5659 8.34812 20.1587 9.13731 18.8717C9.79995 17.7911 10.6805 16.9349 11.7738 16.3139C11.939 16.2205 11.9742 16.1182 12.0005 15.9262C12.1271 14.9641 12.2923 14.0073 12.4435 13.0488C12.4734 12.8568 12.5103 12.6665 12.5437 12.4744C12.6333 11.9719 12.7897 11.8318 13.2784 11.8283C13.4067 11.8283 13.535 11.8283 13.6914 11.8283H13.6932ZM15.9852 39.8189V38.7545C15.9852 37.0529 15.9852 35.3531 15.9852 33.6514C15.9852 32.4003 16.472 31.817 17.6989 31.6357C17.6989 31.1223 17.6971 30.6018 17.6989 30.0812C17.7006 29.5338 17.8817 29.3489 18.4283 29.3292C19.0822 29.304 19.7114 29.1568 20.2475 28.7691C20.8486 28.3347 21.4076 27.8429 22.0016 27.3978C22.2143 27.238 22.3057 27.0531 22.3356 26.7983C22.4164 26.1 22.5219 25.4036 22.6028 24.7035C22.6871 23.9694 22.8471 23.2281 22.8119 22.4975C22.6924 19.9253 20.9804 17.6942 18.5953 16.8434C17.546 16.47 16.4685 16.4736 15.3876 16.4988C13.1887 16.549 11.4451 17.4985 10.2007 19.3474C9.44666 20.4674 9.02658 21.7257 9.16719 23.0917C9.34472 24.8166 9.61012 26.5344 9.8351 28.254C10.3132 31.9121 10.7895 35.5702 11.2676 39.2284C11.3238 39.661 11.5189 39.8315 11.9654 39.8315C13.2379 39.8351 14.5105 39.8315 15.7848 39.8315C15.8674 39.8315 15.9483 39.8207 15.9852 39.8171V39.8189ZM28.6368 20.0133C28.7792 21.1172 28.9163 22.1762 29.0551 23.2353C29.2362 24.6192 29.4172 26.0031 29.6088 27.3834C29.6229 27.4875 29.7072 27.6311 29.7969 27.6706C30.8726 28.1463 31.4086 28.963 31.4086 30.1674C31.4086 30.6628 31.4086 31.1582 31.4086 31.6465C32.5705 31.7757 33.1206 32.4021 33.1224 33.5545C33.1224 33.9925 33.1224 34.4286 33.1224 34.8666V36.3116H36.6236C37.3337 30.871 38.0403 25.4502 38.7504 20.0133H28.6368ZM24.5784 32.8329C22.3303 32.8329 20.0823 32.8329 17.8342 32.8329C17.2841 32.8329 17.1276 32.9873 17.1276 33.5383C17.1276 35.3979 17.1276 37.2557 17.1276 39.1153C17.1276 39.6753 17.2806 39.8351 17.8202 39.8351C22.304 39.8351 26.7878 39.8351 31.2716 39.8351C31.8322 39.8351 31.9781 39.6807 31.9781 39.0938C31.9781 37.2593 31.9781 35.4249 31.9781 33.5904C31.9781 32.9801 31.8375 32.8347 31.2505 32.8347C29.027 32.8347 26.8018 32.8347 24.5784 32.8347V32.8329ZM30.2486 30.5246H18.8695V31.6482H30.2486V30.5246ZM38.8172 17.6906H28.5683V18.8125H38.8172V17.6906ZM13.6123 13.004C13.4875 13.774 13.3662 14.5333 13.2397 15.3105H18.7341C18.6058 14.5261 18.481 13.7668 18.3562 13.004H13.6123ZM25.6576 27.0585C24.3956 27.0621 22.4358 28.1588 21.6079 29.304H30.0535C29.8303 28.9073 29.5192 28.7673 29.1237 28.744C28.6034 28.7135 28.0779 28.6919 27.5664 28.5932C26.6911 28.4245 25.9318 28.0601 25.6558 27.0603L25.6576 27.0585ZM33.1066 39.8315C34.061 39.8315 35.0206 39.8369 35.9803 39.8279C36.2774 39.8261 36.5111 39.6502 36.5287 39.3576C36.5639 38.7473 36.5393 38.1335 36.5393 37.525H33.1083V39.8315H33.1066ZM13.9639 8.30115H21.673V7.2152C21.3988 7.22956 21.1509 7.23674 20.9031 7.25469C18.8027 7.39649 16.7005 7.54009 14.6001 7.6801C14.0763 7.7142 14.0763 7.70882 13.9639 8.30295V8.30115ZM17.1048 11.8211V9.51993H14.8708V11.8211H17.1048Z"
                    fill="#1F1F1F" />
                <path
                    d="M15.985 39.8188C15.9481 39.8206 15.8673 39.8332 15.7846 39.8332C14.5121 39.8332 13.2396 39.835 11.9652 39.8332C11.5188 39.8332 11.3237 39.6626 11.2675 39.2301C10.7894 35.5719 10.313 31.9138 9.83496 28.2557C9.60998 26.5343 9.34282 24.8183 9.16705 23.0933C9.02644 21.7256 9.44652 20.4673 10.2006 19.349C11.445 17.5002 13.1886 16.5507 15.3874 16.5004C16.4684 16.4753 17.5476 16.4717 18.5951 16.8451C20.9803 17.6941 22.6905 19.9252 22.8118 22.4992C22.8452 23.2298 22.687 23.9711 22.6026 24.7052C22.5218 25.4053 22.4163 26.0999 22.3355 26.7999C22.3056 27.0566 22.2124 27.2415 22.0015 27.3995C21.4074 27.8446 20.8485 28.3382 20.2474 28.7708C19.7113 29.1585 19.082 29.3075 18.4282 29.3308C17.8833 29.3506 17.7023 29.5355 17.6987 30.0829C17.697 30.6035 17.6987 31.1222 17.6987 31.6374C16.4719 31.8187 15.985 32.4038 15.985 33.6531C15.985 35.3547 15.985 37.0546 15.985 38.7562V39.8206V39.8188ZM15.9868 25.2473C17.0818 25.2473 18.1768 25.2491 19.2718 25.2473C19.7816 25.2473 19.9819 25.0409 19.9837 24.5167C19.9872 23.4469 19.9872 22.3771 19.9837 21.3073C19.9837 20.785 19.7816 20.5822 19.2683 20.5822C17.0783 20.5804 14.89 20.5804 12.7 20.5822C12.1885 20.5822 11.9899 20.7868 11.9899 21.3127C11.9863 22.3825 11.9863 23.4523 11.9899 24.5221C11.9899 25.0445 12.192 25.2473 12.7052 25.2491C13.8002 25.2527 14.8953 25.2491 15.9903 25.2491L15.9868 25.2473Z"
                    fill="white" />
                <path
                    d="M28.6367 20.0132H38.7503C38.0402 25.4519 37.3336 30.8709 36.6235 36.3115H33.1223V34.8665C33.1223 34.4286 33.1223 33.9924 33.1223 33.5544C33.1223 32.402 32.5704 31.7774 31.4086 31.6464C31.4086 31.1563 31.4086 30.6609 31.4086 30.1673C31.4086 28.9647 30.8725 28.148 29.7968 27.6705C29.7089 27.631 29.6245 27.4892 29.6087 27.3833C29.4171 26.0012 29.2361 24.6173 29.055 23.2352C28.9162 22.1761 28.7808 21.1189 28.6367 20.0132ZM33.523 25.8307C34.5003 25.8307 35.2737 25.6332 35.7957 25.2868C36.7958 24.6245 36.8239 23.4847 35.7886 22.8851C34.4071 22.0864 32.9588 22.0846 31.5826 22.8977C30.5614 23.5008 30.586 24.6101 31.5773 25.2707C32.2171 25.6979 32.9395 25.8127 33.523 25.8289V25.8307Z"
                    fill="white" />
                <path
                    d="M24.5783 32.8331C26.8017 32.8331 29.0269 32.8331 31.2504 32.8331C31.8374 32.8331 31.9781 32.9803 31.9781 33.5888C31.9781 35.4232 31.9781 37.2577 31.9781 39.0921C31.9781 39.6791 31.8304 39.8334 31.2715 39.8334C26.7877 39.8334 22.3039 39.8334 17.8201 39.8334C17.2805 39.8334 17.1276 39.6737 17.1276 39.1136C17.1276 37.2541 17.1276 35.3963 17.1276 33.5367C17.1276 32.9874 17.284 32.8331 17.8341 32.8313C20.0822 32.8313 22.3302 32.8313 24.5783 32.8313V32.8331ZM24.5361 38.6667C25.7841 38.6757 26.8211 37.6436 26.8369 36.3781C26.8545 35.084 25.8438 34.0177 24.5871 33.9998C23.3233 33.9836 22.281 35.0211 22.2687 36.3063C22.2582 37.5987 23.2759 38.6577 24.5361 38.6649V38.6667Z"
                    fill="url(#paint0_linear_4968_39977)" />
                <path d="M30.2502 30.5244V31.6481H18.8694V30.5244H30.2485H30.2502Z" fill="white" />
                <path d="M38.8189 17.6887V18.8106H28.5699V17.6887H38.8189Z" fill="white" />
                <path
                    d="M13.6122 13.0039H18.3562C18.481 13.765 18.6058 14.526 18.7341 15.3104H13.2396C13.3644 14.5332 13.4875 13.7739 13.6122 13.0039Z"
                    fill="white" />
                <path
                    d="M25.6557 27.0587C25.9316 28.0585 26.6909 28.4228 27.5663 28.5916C28.076 28.6903 28.6033 28.7118 29.1236 28.7423C29.519 28.7657 29.8301 28.9057 30.0534 29.3024H21.6078C22.4339 28.1572 24.3954 27.0605 25.6574 27.0569L25.6557 27.0587Z"
                    fill="white" />
                <path
                    d="M33.1065 39.8314V37.5249H36.5375C36.5375 38.1334 36.5621 38.7473 36.5269 39.3576C36.5093 39.6519 36.2756 39.826 35.9785 39.8278C35.0188 39.835 34.0591 39.8314 33.1047 39.8314H33.1065Z"
                    fill="white" />
                <path
                    d="M13.9637 8.30113C14.0762 7.70699 14.0762 7.71238 14.6 7.67827C16.7004 7.53827 18.8026 7.39467 20.903 7.25287C21.1508 7.23671 21.4004 7.22774 21.6729 7.21338V8.29933H13.9637V8.30113Z"
                    fill="white" />
                <path d="M17.1047 11.8209H14.8707V9.51978H17.1047V11.8209Z" fill="white" />
                <path
                    d="M15.9868 25.2474C14.8918 25.2474 13.7968 25.2491 12.7018 25.2474C12.1885 25.2474 11.9882 25.0427 11.9864 24.5204C11.9829 23.4506 11.9829 22.3808 11.9864 21.311C11.9864 20.7851 12.185 20.5804 12.6965 20.5804C14.8865 20.5787 17.0748 20.5787 19.2649 20.5804C19.7781 20.5804 19.9803 20.7851 19.9803 21.3056C19.9838 22.3754 19.9838 23.4452 19.9803 24.515C19.9803 25.0391 19.7799 25.2456 19.2684 25.2456C18.1734 25.2491 17.0783 25.2456 15.9833 25.2456L15.9868 25.2474ZM13.1289 24.0555H18.8132V21.7651H13.1429C13.1377 21.8405 13.1306 21.898 13.1306 21.9554C13.1306 22.6465 13.1306 23.3375 13.1306 24.0537L13.1289 24.0555Z"
                    fill="#1F1F1F" />
                <path
                    d="M33.523 25.8307C32.9377 25.8145 32.2153 25.6997 31.5772 25.2725C30.5877 24.6119 30.5613 23.5026 31.5825 22.8995C32.9605 22.0846 34.4071 22.0882 35.7886 22.887C36.8239 23.4847 36.7957 24.6263 35.7956 25.2886C35.2736 25.6333 34.5002 25.8325 33.523 25.8325V25.8307ZM31.9832 24.077C32.5105 24.8668 34.9818 24.8309 35.3878 24.0806C35.0152 23.3501 32.5545 23.2747 31.9832 24.077Z"
                    fill="#1F1F1F" />
                <path
                    d="M24.5361 38.6666C23.2759 38.6576 22.2582 37.5986 22.2688 36.308C22.2793 35.021 23.3216 33.9835 24.5871 34.0015C25.8438 34.0176 26.8545 35.0856 26.8369 36.3798C26.8211 37.6452 25.7841 38.6773 24.5361 38.6684V38.6666ZM24.5502 35.1682C23.9297 35.1682 23.4165 35.6923 23.413 36.3277C23.4095 36.9775 23.9368 37.5088 24.5748 37.4998C25.1918 37.4909 25.7032 36.9524 25.6944 36.3223C25.6857 35.6851 25.1742 35.1682 24.5502 35.17V35.1682Z"
                    fill="#1F1F1F" />
                <path
                    d="M13.1289 24.0556C13.1289 23.3377 13.1289 22.6466 13.1289 21.9573C13.1289 21.8999 13.1359 21.8407 13.1412 21.7671H18.8114V24.0574H13.1289V24.0556Z"
                    fill="white" />
                <path
                    d="M31.9851 24.0771C32.5546 23.2747 35.0171 23.3501 35.3897 24.0807C34.9837 24.831 32.5124 24.8669 31.9851 24.0771Z"
                    fill="white" />
                <path
                    d="M24.5502 35.1683C25.1742 35.1683 25.6856 35.6834 25.6944 36.3206C25.7015 36.9507 25.1917 37.4892 24.5748 37.4981C23.9368 37.5071 23.4095 36.9758 23.413 36.326C23.4165 35.6906 23.9297 35.1683 24.5502 35.1665V35.1683Z"
                    fill="white" />
            </g>
        </g>
    </g>
    <defs>
        <linearGradient id="paint0_linear_4968_39977" x1="17.1422" y1="36.3341" x2="31.9856"
            y2="36.3341" gradientUnits="userSpaceOnUse">
            <stop stop-color="#FF7304" />
            <stop offset="1" stop-color="#FB2A77" />
        </linearGradient>
        <clipPath id="clip0_4968_39977">
            <rect width="48" height="48" fill="white" />
        </clipPath>
    </defs>
</svg>
