<svg width="48" height="48" viewBox="0 0 48 48" fill="none" xmlns="http://www.w3.org/2000/svg">
    <g clip-path="url(#clip0_5322_3786)">
        <path
            d="M28.959 21.3052C27.1223 21.761 23.9081 24.4955 22.5305 24.4955C22.5305 23.7359 22.4387 22.0345 22.0713 21.3052C21.6121 20.3937 20.2346 19.0265 17.9387 18.115C15.6428 17.2035 13.8061 18.5707 13.3469 19.0265C12.8877 19.4822 12.8877 23.584 12.4285 24.4955C11.9694 25.407 12.4285 28.1416 12.8877 28.5973C13.3469 29.0531 16.5612 30.4203 17.0203 30.8761C17.4795 31.3318 21.153 32.2433 23.4489 32.6991C25.7448 33.1549 28.959 31.3318 29.8774 31.3318C30.6121 31.3318 31.7141 30.4203 32.1733 29.9646C32.9386 29.5088 34.4692 28.5062 34.4692 28.1416C34.4692 27.6858 34.9284 26.3185 34.9284 24.4955C34.9284 22.6725 34.4692 21.761 34.4692 20.3937C34.4692 19.2999 33.857 19.938 33.5508 20.3937C32.6325 20.5456 30.4284 20.9406 28.959 21.3052Z"
            fill="white" stroke="#1F1F1F" stroke-width="0.1" />
        <path
            d="M6 17.4975C6.17449 17.3608 6.33976 17.1785 6.5418 17.0782C12.2265 14.4166 17.9111 11.7641 23.5866 9.10254C23.8805 8.96582 24.1284 8.96582 24.4223 9.10254C30.107 11.7641 35.7916 14.4166 41.4763 17.0691C41.7518 17.1967 42.0089 17.3334 41.9998 17.6889C41.9906 18.0171 41.7426 18.1538 41.4763 18.2723C39.6947 19.1018 37.9222 19.9404 36.1406 20.7607C35.8927 20.8792 35.81 21.0068 35.81 21.2803C35.8283 23.003 35.8008 24.7258 35.8192 26.4485C35.8283 27.1868 35.6079 27.8431 35.1947 28.4447C34.6712 29.2013 33.9916 29.8029 33.2294 30.3224C33.0549 30.4409 32.9815 30.5685 32.9906 30.7782C33.009 31.0061 32.9998 31.2431 32.9906 31.4801C32.9723 31.9814 32.9631 32.4007 33.5233 32.7562C34.2763 33.2302 34.3039 34.2966 33.7528 35.0258C33.6518 35.1534 33.5967 35.354 33.6059 35.518C33.661 36.4387 33.7529 37.3502 33.8263 38.2617C33.8631 38.7721 33.6518 38.9909 33.1376 39C32.6692 39 32.2009 39 31.7325 39C31.1998 39 30.9886 38.7721 31.0345 38.2434C31.108 37.3319 31.1998 36.4113 31.2549 35.4998C31.2641 35.3448 31.209 35.1626 31.1172 35.035C30.4651 34.1873 30.6855 33.0296 31.6314 32.5192C31.8151 32.4189 31.8886 32.3278 31.8794 32.1181C31.861 31.8173 31.8794 31.5165 31.8794 31.1701C31.5029 31.3433 31.1631 31.5165 30.8049 31.6532C25.5519 33.7041 20.4182 33.4945 15.4499 30.7691C14.5775 30.286 13.7969 29.6661 13.1448 28.9005C12.5112 28.153 12.153 27.3327 12.1806 26.3209C12.2173 24.6438 12.1806 22.9757 12.1989 21.2985C12.1989 21.0251 12.1255 20.8975 11.8683 20.779C10.0867 19.9586 8.3051 19.1292 6.53267 18.2906C6.33063 18.1994 6.17449 18.008 6 17.8712C6 17.7254 6 17.616 6 17.4975ZM40.0987 17.6798C39.9977 17.6251 39.9426 17.5887 39.8783 17.5613C34.6621 15.1185 29.4457 12.6848 24.2203 10.2511C24.1009 10.1964 23.8988 10.2054 23.7703 10.2601C19.1417 12.4113 14.5132 14.5716 9.89384 16.7319C9.24181 17.0327 8.59894 17.3426 7.92854 17.6525C7.99282 17.6981 8.02038 17.7254 8.04793 17.7436C13.301 20.1956 18.5448 22.6567 23.7978 25.0995C23.9172 25.1542 24.1193 25.1451 24.2478 25.0813C25.0193 24.744 25.7723 24.3794 26.5345 24.0239C28.1233 23.2856 29.7029 22.5381 31.3375 21.7725C31.2182 21.6996 31.1264 21.6449 31.0437 21.6084C28.6835 20.4326 26.3141 19.2567 23.9448 18.0809C23.8713 18.0444 23.7978 18.008 23.7244 17.9715C23.4397 17.7983 23.3478 17.4975 23.4856 17.2241C23.6233 16.9597 23.908 16.8595 24.2019 16.978C24.3029 17.0144 24.3948 17.0691 24.4866 17.1147C27.058 18.3908 29.6386 19.6669 32.2008 20.9522C32.5131 21.1071 32.7518 21.1344 33.0825 20.9795C34.8182 20.15 36.5722 19.3388 38.3171 18.5184C38.9049 18.245 39.4834 17.9715 40.0987 17.6798ZM13.3101 21.4535C13.3101 21.6267 13.3101 21.7542 13.3101 21.8819C13.3101 23.3585 13.3377 24.8352 13.301 26.3118C13.2826 27.0137 13.5214 27.5788 13.9622 28.0893C14.5499 28.782 15.2663 29.3198 16.0469 29.7847C18.104 31.0061 20.3448 31.6441 22.7325 31.8264C25.8641 32.0543 28.8397 31.4892 31.6131 29.9943C31.8151 29.8849 31.8886 29.7664 31.8886 29.5385C31.8794 27.3965 31.8794 25.2545 31.8794 23.1215C31.8794 23.0213 31.8702 22.921 31.861 22.7843C31.6865 22.8572 31.5488 22.921 31.4202 22.9757C29.1243 24.0513 26.8192 25.1178 24.5325 26.2024C24.156 26.3847 23.8437 26.3756 23.4764 26.1933C20.2438 24.6711 17.002 23.158 13.7602 21.6449C13.6224 21.5902 13.4846 21.5355 13.3101 21.4535ZM32.9998 28.9825C33.0457 29.0099 33.0916 29.0463 33.1376 29.0737C33.4498 28.7273 33.7712 28.39 34.0651 28.0345C34.4876 27.5423 34.708 26.9863 34.6896 26.3118C34.662 24.8261 34.6804 23.3403 34.6804 21.8545C34.6804 21.736 34.6804 21.6084 34.6804 21.4443C34.1753 21.6813 33.7253 21.9001 33.2661 22.0915C33.0457 22.1827 32.9815 22.3103 32.9906 22.5382C32.9998 24.5982 32.9998 26.6491 32.9998 28.7091C32.9998 28.8094 32.9998 28.9005 32.9998 28.9825ZM32.4488 34.5245C32.7518 34.5154 32.9998 34.2601 32.9906 33.9593C32.9906 33.6494 32.7151 33.3942 32.3937 33.4125C32.0906 33.4307 31.8518 33.695 31.8702 33.9867C31.8886 34.2875 32.1549 34.5336 32.4488 34.5245ZM32.6692 37.8697C32.6049 37.1223 32.5406 36.4113 32.4855 35.7003C32.4579 35.7003 32.4212 35.7003 32.3937 35.7003C32.3294 36.4204 32.2743 37.1405 32.21 37.8697C32.3845 37.8697 32.4947 37.8697 32.6692 37.8697Z"
            fill="#1F1F1F" stroke="#1F1F1F" stroke-width="0.25" stroke-miterlimit="10" />
        <path
            d="M40.0988 17.6798C39.4927 17.9715 38.9141 18.245 38.3356 18.5184C36.5907 19.3388 34.8366 20.1409 33.1009 20.9795C32.7795 21.1344 32.5315 21.1071 32.2193 20.9521C29.6479 19.6669 27.0765 18.3908 24.505 17.1147C24.4132 17.0691 24.3214 17.0144 24.2204 16.978C23.9173 16.8595 23.6418 16.9597 23.5041 17.2241C23.3571 17.4975 23.449 17.7983 23.7428 17.9715C23.8163 18.0171 23.8898 18.0444 23.9632 18.0809C26.3326 19.2567 28.6928 20.4326 31.0622 21.6084C31.154 21.654 31.2366 21.7087 31.356 21.7725C29.7305 22.5381 28.1418 23.2765 26.553 24.0239C25.7908 24.3794 25.0286 24.744 24.2663 25.0813C24.1377 25.1359 23.9357 25.1542 23.8163 25.0995C18.5632 22.6567 13.3103 20.2047 8.06641 17.7436C8.03886 17.7254 8.01131 17.7072 7.94702 17.6525C8.61742 17.3426 9.26029 17.0327 9.91233 16.7319C14.5409 14.5716 19.1602 12.4113 23.7887 10.2601C23.9173 10.2054 24.1193 10.1872 24.2387 10.2511C29.4642 12.6848 34.6805 15.1185 39.8968 17.5613C39.9335 17.5978 39.9978 17.6342 40.0988 17.6798Z"
            fill="url(#paint0_linear_5322_3786)" stroke="#1F1F1F" stroke-width="0.25"
            stroke-miterlimit="10" />
    </g>
    <defs>
        <linearGradient id="paint0_linear_5322_3786" x1="7.92379" y1="17.6803" x2="40.0948"
            y2="17.6803" gradientUnits="userSpaceOnUse">
            <stop stop-color="#FF7304" />
            <stop offset="1" stop-color="#FB2A77" />
        </linearGradient>
        <clipPath id="clip0_5322_3786">
            <rect width="48" height="48" fill="white" />
        </clipPath>
    </defs>
</svg>
