<svg width="48" height="48" viewBox="0 0 48 48" fill="none" xmlns="http://www.w3.org/2000/svg">
    <g clip-path="url(#clip0_4968_40041)">
        <mask id="mask0_4968_40041" style="mask-type:luminance" maskUnits="userSpaceOnUse" x="0"
            y="0" width="48" height="48">
            <path d="M48 0H0V48H48V0Z" fill="white" />
        </mask>
        <g mask="url(#mask0_4968_40041)">
            <mask id="mask1_4968_40041" style="mask-type:luminance" maskUnits="userSpaceOnUse" x="8"
                y="8" width="33" height="32">
                <path d="M41 8H8V40H41V8Z" fill="white" />
            </mask>
            <g mask="url(#mask1_4968_40041)">
                <path
                    d="M34.8986 30.6599C35.5668 30.6599 36.2113 30.6543 36.8559 30.6621C37.4285 30.6688 37.7142 30.993 37.6231 31.547C37.415 32.8028 37.199 34.0574 36.9774 35.3109C36.8908 35.8017 36.6782 35.9738 36.1798 35.9793C35.7614 35.9849 35.3418 35.9793 34.8997 35.9793C34.7276 36.8865 34.3834 37.6903 33.7737 38.3698C32.8591 39.3869 31.7095 39.9298 30.3371 39.962C29.1177 39.9909 27.8961 39.9842 26.6756 39.9642C25.5901 39.9464 24.7014 39.5001 24.0197 38.6607C23.2964 37.7714 22.3335 37.7669 21.618 38.6563C21.0106 39.4113 20.2209 39.8965 19.2569 39.9376C17.8294 39.9986 16.3895 40.0375 14.9676 39.932C12.7943 39.771 11.2229 38.2543 10.7324 35.9782C10.3184 35.9782 9.88873 35.9827 9.45902 35.9771C8.95957 35.9705 8.74471 35.7939 8.66034 35.3087C8.44211 34.0541 8.22613 32.7994 8.01578 31.5448C7.92354 30.993 8.20476 30.6665 8.77846 30.6599C9.42302 30.6521 10.0676 30.6577 10.7403 30.6577C10.783 30.5211 10.8213 30.3923 10.8651 30.2646C11.3174 28.9389 12.5637 28.0052 13.9789 28.0029C19.8711 27.9918 25.7633 27.9907 31.6544 28.0029C33.1921 28.0063 34.3125 28.9445 34.8963 30.6566L34.8986 30.6599ZM22.8059 29.3297C19.9149 29.3297 17.024 29.3264 14.133 29.3309C12.9023 29.3331 12.0452 30.1836 12.0384 31.3993C12.0317 32.674 12.0317 33.9486 12.0384 35.2232C12.0474 37.1962 13.4963 38.6285 15.493 38.6396C16.5875 38.6463 17.682 38.6341 18.7766 38.643C19.5302 38.6496 20.1287 38.3687 20.6034 37.788C21.8588 36.2536 23.7756 36.2469 25.0175 37.7736C25.4899 38.3543 26.0816 38.6474 26.8376 38.643C27.9321 38.6352 29.0266 38.6452 30.1211 38.6407C32.1426 38.6319 33.587 37.2018 33.596 35.2021C33.6016 33.9697 33.5993 32.7361 33.596 31.5037C33.5937 30.1491 32.7658 29.332 31.3934 29.332C28.5305 29.3309 25.6677 29.332 22.8048 29.332L22.8059 29.3297ZM10.6717 32.0167H9.46915C9.62213 32.9127 9.77062 33.7765 9.91461 34.6214H10.6705V32.0167H10.6717ZM34.9661 32.0078V34.6325H35.722C35.8682 33.7632 36.0134 32.8983 36.163 32.0078H34.9661Z"
                    fill="#1F1F1F" />
                <path
                    d="M35.5927 18.7132C35.2316 18.6688 34.8615 18.6576 34.5128 18.5677C34.2484 18.5 34.1033 18.581 33.9301 18.7531C31.5903 21.0859 29.2471 23.4142 26.8995 25.7403C25.8927 26.7384 24.5169 26.9183 23.4123 26.211C21.96 25.2817 21.7497 23.3287 22.9904 22.0729C24.2155 20.8338 25.4686 19.6225 26.7082 18.3978C27.859 17.262 29.0075 16.1228 30.165 14.9937C30.3416 14.8216 30.3911 14.675 30.345 14.4174C29.9536 12.2257 30.633 10.3937 32.4486 9.08239C34.2642 7.77001 36.2665 7.64788 38.2306 8.73042C40.1935 9.81186 41.1238 11.5551 40.9854 13.7723C40.8133 16.5425 38.4128 18.6943 35.5915 18.7132H35.5927ZM31.5768 13.3782C31.5813 15.5732 33.4092 17.3675 35.6309 17.3564C37.8605 17.3453 39.6592 15.5577 39.6603 13.3526C39.6603 11.162 37.8312 9.36663 35.6062 9.37551C33.3766 9.38439 31.5734 11.1764 31.5779 13.3782H31.5768ZM30.9097 16.1528C30.9097 16.1528 30.8636 16.1872 30.8242 16.225C28.5441 18.4744 26.265 20.725 23.986 22.9756C23.9264 23.0345 23.8656 23.0933 23.8161 23.1599C23.4809 23.6174 23.4359 24.1126 23.7003 24.6055C23.968 25.1052 24.4303 25.3728 24.9883 25.2628C25.3336 25.1951 25.7048 25.003 25.9568 24.7588C28.1841 22.5948 30.3866 20.4053 32.5959 18.2235C32.6814 18.1391 32.7591 18.0481 32.7928 18.0103C32.1595 17.3864 31.5509 16.7868 30.9075 16.1539L30.9097 16.1528Z"
                    fill="#1F1F1F" />
                <path
                    d="M14.0587 19.5405C14.0587 19.3972 14.0587 19.2485 14.0587 19.0986C14.0587 17.2421 14.0643 15.3857 14.0542 13.5293C14.052 13.1152 14.2151 12.8609 14.6009 12.6943C16.5121 11.8661 18.4177 11.0233 20.3266 10.1895C21.0533 9.87196 21.4684 10.1407 21.4695 10.9256C21.4718 13.4605 21.4628 15.9964 21.474 18.5312C21.4774 19.3062 21.1287 19.8724 20.474 20.2355C19.3637 20.8506 18.2118 20.8651 17.1016 20.2488C15.7326 19.4894 15.7393 17.8917 17.1016 17.1178C18.0487 16.5804 19.0499 16.576 20.0949 16.9357V14.4875C19.9791 14.533 19.8654 14.5685 19.7597 14.6207C18.4177 15.2814 17.0813 15.952 15.7337 16.6004C15.4828 16.7214 15.394 16.8569 15.3973 17.1344C15.4142 18.4502 15.3816 19.767 15.412 21.0827C15.4345 22.0609 14.9586 22.6926 14.0992 23.059C13.1217 23.4754 12.1261 23.4576 11.1689 22.9835C10.5052 22.6549 10.035 22.1475 10.0226 21.3702C10.0102 20.5908 10.4658 20.0767 11.1227 19.7292C11.9259 19.3051 12.7797 19.254 13.6571 19.465C13.7651 19.4905 13.8731 19.5216 13.9811 19.5494C13.9935 19.5527 14.0081 19.546 14.0576 19.5371L14.0587 19.5405ZM20.1219 11.8183C20.0645 11.7994 20.0477 11.7883 20.0387 11.7917C18.5516 12.4356 17.0633 13.0774 15.5807 13.7314C15.502 13.7658 15.4187 13.8879 15.4153 13.9723C15.3985 14.3953 15.4075 14.8206 15.4075 15.308C16.9745 14.5263 18.4841 13.7747 19.9892 13.013C20.0555 12.9797 20.1129 12.862 20.1163 12.7821C20.1309 12.4556 20.1219 12.1281 20.1219 11.8172V11.8183ZM18.7765 17.9328C18.3862 18.076 18.0026 18.1692 17.6719 18.3524C17.3445 18.5345 17.3625 18.7832 17.646 19.0186C18.1747 19.4583 19.3682 19.4594 19.9026 19.0208C20.1883 18.7855 20.2074 18.5356 19.8823 18.3547C19.5516 18.1704 19.168 18.0771 18.7777 17.9328H18.7765ZM12.7043 22.1019C13.0868 21.9609 13.4839 21.8643 13.8259 21.6734C14.1476 21.4946 14.1206 21.2415 13.8281 21.0072C13.2949 20.5808 12.1486 20.5764 11.6053 20.9983C11.2937 21.2403 11.2735 21.4968 11.6166 21.69C11.9349 21.8688 12.3073 21.9565 12.7043 22.1019Z"
                    fill="#1F1F1F" />
                <path
                    d="M22.8059 29.3289C25.6688 29.3289 28.5316 29.3289 31.3945 29.3289C32.7669 29.3289 33.5948 30.1461 33.597 31.5007C33.5993 32.7331 33.6015 33.9667 33.597 35.1991C33.588 37.1987 32.1425 38.6288 30.1222 38.6377C29.0277 38.6421 27.9332 38.6332 26.8387 38.6399C26.0838 38.6444 25.4921 38.3512 25.0186 37.7705C23.7756 36.2439 21.8599 36.2517 20.6045 37.785C20.1298 38.3657 19.5313 38.6466 18.7776 38.6399C17.6831 38.631 16.5886 38.6421 15.4941 38.6366C13.4974 38.6255 12.0496 37.1932 12.0395 35.2202C12.0339 33.9456 12.0339 32.6709 12.0395 31.3963C12.0451 30.1794 12.9023 29.33 14.1341 29.3278C17.025 29.3223 19.916 29.3267 22.807 29.3256L22.8059 29.3289ZM14.7291 30.6468C14.7224 30.286 14.4119 29.9907 14.0474 29.9973C13.6807 30.004 13.3826 30.3093 13.3894 30.6702C13.3961 31.031 13.7066 31.3275 14.0711 31.3208C14.4355 31.3141 14.737 31.0066 14.7303 30.6468H14.7291ZM16.7506 30.6602C16.7517 30.2993 16.448 29.9973 16.0824 29.9962C15.7157 29.9951 15.4119 30.2938 15.4097 30.6557C15.4086 31.0166 15.7123 31.3186 16.0768 31.3197C16.4412 31.3208 16.7483 31.0199 16.7494 30.6602H16.7506ZM18.772 30.6646C18.7765 30.3038 18.475 29.9995 18.1083 29.9962C17.7427 29.9918 17.4356 30.2882 17.4311 30.6502C17.4266 31.011 17.7281 31.3153 18.0937 31.3197C18.4582 31.3241 18.7675 31.0244 18.7709 30.6646H18.772Z"
                    fill="white" />
                <path
                    d="M10.6716 32.0159V34.6206H9.91568C9.7717 33.7768 9.6232 32.9119 9.47021 32.0159H10.6727H10.6716Z"
                    fill="url(#paint0_linear_4968_40041)" />
                <path
                    d="M34.9661 32.0068H36.163C36.0133 32.8972 35.8682 33.761 35.722 34.6315H34.9661V32.0068Z"
                    fill="url(#paint1_linear_4968_40041)" />
                <path
                    d="M31.5767 13.3782C31.5722 11.1765 33.3765 9.38441 35.6049 9.37552C37.83 9.36664 39.6602 11.162 39.6591 13.3526C39.6591 15.5577 37.8604 17.3453 35.6297 17.3564C33.408 17.3675 31.5801 15.5732 31.5756 13.3782H31.5767Z"
                    fill="url(#paint2_linear_4968_40041)" />
                <path
                    d="M30.9097 16.153C31.5531 16.7858 32.1617 17.3865 32.795 18.0094C32.7601 18.0471 32.6836 18.1382 32.5981 18.2226C30.3888 20.4043 28.1863 22.5938 25.959 24.7578C25.707 25.0021 25.3369 25.1942 24.9904 25.2619C24.4325 25.3718 23.9702 25.1042 23.7024 24.6046C23.4381 24.1116 23.4831 23.6175 23.8183 23.159C23.8667 23.0924 23.9285 23.0335 23.9882 22.9747C26.2672 20.7241 28.5463 18.4746 30.8264 16.224C30.8658 16.1852 30.9097 16.153 30.9119 16.1519L30.9097 16.153ZM30.6532 17.6186C30.4383 17.7018 30.2797 17.7196 30.1886 17.8062C29.6835 18.2847 29.1762 18.7633 28.7071 19.2751C28.4585 19.546 28.5091 19.878 28.7746 20.1334C29.0412 20.3888 29.3764 20.421 29.6487 20.1767C30.156 19.7215 30.6521 19.2485 31.0975 18.7344C31.2258 18.5867 31.2449 18.2448 31.165 18.0505C31.0874 17.8617 30.8208 17.7496 30.6543 17.6163L30.6532 17.6186Z"
                    fill="white" />
                <path
                    d="M20.1219 11.8182C20.1219 12.1291 20.1297 12.4566 20.1162 12.7831C20.1129 12.8641 20.0555 12.9807 19.9891 13.014C18.484 13.7746 16.9733 14.5262 15.4074 15.309C15.4074 14.8205 15.3984 14.3963 15.4153 13.9733C15.4187 13.8889 15.5019 13.7668 15.5807 13.7324C17.0633 13.0795 18.5515 12.4367 20.0386 11.7927C20.0488 11.7882 20.0645 11.8005 20.1219 11.8193V11.8182Z"
                    fill="white" />
                <path
                    d="M18.7765 17.9314C19.1668 18.0758 19.5504 18.169 19.8811 18.3534C20.2062 18.5343 20.1882 18.7853 19.9014 19.0195C19.3682 19.4581 18.1735 19.457 17.6448 19.0173C17.3614 18.7808 17.3434 18.5321 17.6707 18.3511C18.0014 18.1668 18.385 18.0747 18.7754 17.9314H18.7765Z"
                    fill="url(#paint3_linear_4968_40041)" />
                <path
                    d="M12.7043 22.1007C12.3072 21.9552 11.9348 21.8686 11.6165 21.6888C11.2734 21.4956 11.2937 21.2391 11.6053 20.9971C12.1486 20.5751 13.2937 20.5796 13.8281 21.0059C14.1205 21.2391 14.1464 21.4934 13.8258 21.6721C13.4827 21.8631 13.0867 21.9586 12.7043 22.1007Z"
                    fill="url(#paint4_linear_4968_40041)" />
                <path
                    d="M14.7292 30.6477C14.7359 31.0075 14.4345 31.315 14.07 31.3217C13.7055 31.3283 13.395 31.0319 13.3883 30.671C13.3815 30.3091 13.6796 30.0049 14.0464 29.9982C14.412 29.9915 14.7213 30.2869 14.728 30.6477H14.7292Z"
                    fill="white" />
                <path
                    d="M16.7505 30.6611C16.7494 31.0208 16.4423 31.3228 16.0778 31.3206C15.7123 31.3195 15.4085 31.0175 15.4108 30.6566C15.4119 30.2947 15.7168 29.996 16.0835 29.9971C16.4491 29.9982 16.7528 30.3002 16.7517 30.6611H16.7505Z"
                    fill="white" />
                <path
                    d="M18.771 30.6655C18.7665 31.0253 18.4571 31.3251 18.0938 31.3206C17.7282 31.3162 17.4267 31.012 17.4312 30.6511C17.4357 30.2892 17.7428 29.9927 18.1084 29.9971C18.474 30.0016 18.7755 30.3058 18.7721 30.6655H18.771Z"
                    fill="white" />
                <path
                    d="M30.6532 17.6184C30.8197 17.7506 31.0874 17.8638 31.1639 18.0526C31.2437 18.2458 31.2246 18.5877 31.0964 18.7365C30.6509 19.2495 30.1548 19.7225 29.6475 20.1788C29.3753 20.4231 29.0412 20.392 28.7735 20.1355C28.5069 19.8801 28.4562 19.5481 28.706 19.2772C29.1751 18.7654 29.6824 18.2857 30.1875 17.8083C30.2786 17.7217 30.4372 17.7039 30.652 17.6207L30.6532 17.6184Z"
                    fill="white" />
            </g>
        </g>
    </g>
    <defs>
        <linearGradient id="paint0_linear_4968_40041" x1="9.4714" y1="33.3189" x2="10.6733"
            y2="33.3189" gradientUnits="userSpaceOnUse">
            <stop stop-color="#FF7304" />
            <stop offset="1" stop-color="#FB2A77" />
        </linearGradient>
        <linearGradient id="paint1_linear_4968_40041" x1="34.9672" y1="33.3198" x2="36.1636"
            y2="33.3198" gradientUnits="userSpaceOnUse">
            <stop stop-color="#FF7304" />
            <stop offset="1" stop-color="#FB2A77" />
        </linearGradient>
        <linearGradient id="paint2_linear_4968_40041" x1="31.5835" y1="13.3679" x2="39.6632"
            y2="13.3679" gradientUnits="userSpaceOnUse">
            <stop stop-color="#FF7304" />
            <stop offset="1" stop-color="#FB2A77" />
        </linearGradient>
        <linearGradient id="paint3_linear_4968_40041" x1="18.7747" y1="17.9314" x2="18.7747"
            y2="19.3478" gradientUnits="userSpaceOnUse">
            <stop stop-color="#FE6022" />
            <stop offset="1" stop-color="#FC3F56" />
        </linearGradient>
        <linearGradient id="paint4_linear_4968_40041" x1="12.7111" y1="20.6834" x2="12.7111"
            y2="22.1007" gradientUnits="userSpaceOnUse">
            <stop stop-color="#FE6022" />
            <stop offset="1" stop-color="#FC3F56" />
        </linearGradient>
        <clipPath id="clip0_4968_40041">
            <rect width="48" height="48" fill="white" />
        </clipPath>
    </defs>
</svg>
