<svg width="48" height="48" viewBox="0 0 48 48" fill="none" xmlns="http://www.w3.org/2000/svg">
    <path
        d="M37.4909 31.2301L34.6795 21.715C34.1773 20.015 32.6161 18.8484 30.8435 18.8484H13.2849C11.388 18.8484 9.75198 20.1807 9.36779 22.0383L7.39986 31.5534C6.88646 34.0357 8.78208 36.3635 11.317 36.3635H33.6548C36.3273 36.3635 38.2481 33.793 37.4909 31.2301Z"
        fill="white" />
    <path
        d="M13.3818 17.6004C13.3818 16.6151 13.3138 15.6412 13.3931 14.6786C13.7328 10.7829 17.005 7.47614 20.8886 7.05713C25.5648 6.54752 29.573 9.4919 30.4674 14.101C30.5693 14.6446 30.5807 15.1995 30.6033 15.7544C30.626 16.366 30.6033 16.9661 30.6033 17.6116C30.8864 17.6569 31.1581 17.6909 31.4299 17.7589C33.5811 18.2911 34.9398 19.6275 35.4946 21.7565C36.208 24.4857 36.8647 27.2263 37.5553 29.9669C37.6459 30.3406 37.6686 30.6917 37.2609 30.9068C36.8307 31.1333 36.4118 30.8954 36.2759 30.3632C36.0155 29.344 35.7664 28.3248 35.5173 27.3056C35.0757 25.539 34.6454 23.761 34.1812 21.9943C33.7623 20.3749 32.4262 19.1971 30.8637 19.0272C30.7958 19.0159 30.7279 19.0272 30.6146 19.0272C30.6146 19.4236 30.6146 19.8086 30.6146 20.1937C30.6033 20.658 30.3655 20.9524 29.9806 20.9638C29.5843 20.9751 29.3012 20.6693 29.2899 20.1937C29.2786 20.0012 29.2899 19.8086 29.2899 19.6161C29.2899 19.4236 29.2899 19.2311 29.2899 19.0046C24.4212 19.0046 19.5639 19.0046 14.6612 19.0046C14.6612 19.401 14.6612 19.7973 14.6612 20.1937C14.6499 20.658 14.4121 20.9524 14.0271 20.9638C13.6309 20.9751 13.3478 20.6693 13.3365 20.1937C13.3252 19.8086 13.3365 19.4236 13.3365 19.0386C11.808 19.0272 10.2568 20.2277 9.83784 21.8358C9.14717 24.4518 8.5131 27.0904 7.84507 29.7177C7.7092 30.2386 7.57332 30.7596 7.44877 31.2918C6.82604 33.8172 8.73954 36.252 11.3437 36.252C12.6571 36.252 16.3407 36.252 17.6654 36.252C18.1636 36.252 18.458 36.5125 18.4353 36.9315C18.4127 37.2939 18.2202 37.5657 17.8466 37.5657C16.2048 37.5657 12.1703 37.679 10.5398 37.4864C7.46011 37.124 5.42205 34.0777 6.14669 31.0767C6.89398 27.9511 7.67523 24.8368 8.47913 21.7338C9.09054 19.4123 10.6304 18.0647 13.0081 17.6796C13.0761 17.657 13.178 17.6343 13.3818 17.6004ZM29.2786 17.6004C29.2786 16.9549 29.2899 16.332 29.2786 15.7204C29.2333 11.5643 26.3687 8.57459 22.2133 8.35942C19.2695 8.2122 16.5181 9.87693 15.3406 12.5382C14.6159 14.1576 14.5933 15.8564 14.6725 17.6004C19.5299 17.6004 24.3646 17.6004 29.2786 17.6004Z"
        fill="#1F1F1F" stroke="#1F1F1F" stroke-width="0.6" stroke-miterlimit="10" />
    <path
        d="M29.4278 36.2239C28.9887 36.2239 28.6006 36.2239 28.1921 36.2239C28.1002 36.5917 28.0287 36.9594 27.9164 37.3169C27.2014 39.4927 25.312 40.8921 22.9529 40.9942C20.7571 41.0862 18.7656 39.84 17.8771 37.7664C17.7647 37.511 17.6524 37.419 17.3664 37.4088C16.3553 37.3782 15.6302 36.6121 15.6302 35.6212C15.6302 34.6304 16.3553 33.8541 17.3664 33.8336C17.683 33.8234 17.7852 33.7008 17.8975 33.4455C18.8473 31.2186 21.0328 30.0133 23.5554 30.2994C25.8533 30.5649 27.7325 32.3525 28.1308 34.6713C28.1512 34.7836 28.1717 34.8858 28.2023 35.0288C28.5291 35.0288 28.8355 35.0288 29.1521 35.0288C29.2542 35.0288 29.3461 35.0186 29.4585 35.0084C29.5912 34.1503 29.8364 33.3331 30.3266 32.6283C31.5011 30.9429 33.1555 30.1563 35.1777 30.2789C37.3224 30.4015 38.8543 31.5149 39.7429 33.4659C39.8654 33.7213 39.9777 33.8337 40.2739 33.8439C41.3054 33.8847 42.0101 34.6508 41.9999 35.6417C41.9897 36.653 41.2441 37.4088 40.2126 37.4293C39.9777 37.4293 39.8654 37.5007 39.7735 37.7153C38.7828 40.0442 36.6177 41.2598 34.0645 40.9534C31.7155 40.6674 29.8977 38.8798 29.4789 36.4589C29.4585 36.3771 29.4483 36.3159 29.4278 36.2239ZM26.9972 35.6621C27.0074 33.2719 25.1997 31.4536 22.8099 31.4434C20.4507 31.4332 18.6226 33.2412 18.6022 35.611C18.5817 37.8889 20.4916 39.8195 22.7895 39.8195C25.0874 39.8195 26.9767 37.9503 26.9972 35.6621ZM38.9871 35.6825C39.0075 33.2923 37.2203 31.4741 34.8202 31.4434C32.4611 31.4128 30.6023 33.2514 30.5921 35.6315C30.5819 37.9094 32.4815 39.8093 34.7692 39.8195C37.0671 39.8297 38.9667 37.9604 38.9871 35.6825ZM40.2126 35.0186C40.2126 35.4272 40.2126 35.8051 40.2126 36.2035C40.5905 36.1626 40.7744 35.9583 40.7744 35.6212C40.7846 35.2841 40.6007 35.0697 40.2126 35.0186ZM17.3869 35.0288C16.9681 35.1208 16.7741 35.3353 16.8149 35.6621C16.8558 35.9788 17.0294 36.1728 17.3869 36.183C17.3869 35.8051 17.3869 35.4272 17.3869 35.0288Z"
        fill="#1F1F1F" stroke="#1F1F1F" stroke-width="0.6" stroke-miterlimit="10" />
    <path
        d="M26.9972 35.6619C26.987 37.95 25.0976 39.8193 22.7997 39.8193C20.5018 39.8193 18.5818 37.8887 18.6124 35.6108C18.6328 33.2409 20.461 31.4329 22.8201 31.4432C25.1997 31.4432 27.0074 33.2716 26.9972 35.6619Z"
        fill="url(#paint0_linear_4968_40065)" stroke="#1F1F1F" stroke-width="0.6"
        stroke-miterlimit="10" />
    <path
        d="M38.9873 35.6824C38.9669 37.9705 37.0673 39.8296 34.7694 39.8194C32.4817 39.8092 30.5923 37.899 30.5923 35.6313C30.6025 33.2615 32.4612 31.4229 34.8204 31.4433C37.2204 31.4637 39.0077 33.2921 38.9873 35.6824Z"
        fill="url(#paint1_linear_4968_40065)" stroke="#1F1F1F" stroke-width="0.6"
        stroke-miterlimit="10" />
    <defs>
        <linearGradient id="paint0_linear_4968_40065" x1="19.0944" y1="33.6094" x2="27.4425"
            y2="34.2251" gradientUnits="userSpaceOnUse">
            <stop stop-color="#FF006E" />
            <stop offset="0.497159" stop-color="#FB5607" />
            <stop offset="1" stop-color="#FFBE0B" />
        </linearGradient>
        <linearGradient id="paint1_linear_4968_40065" x1="31.0752" y1="33.6094" x2="39.4331"
            y2="34.2266" gradientUnits="userSpaceOnUse">
            <stop stop-color="#FF006E" />
            <stop offset="0.497159" stop-color="#FB5607" />
            <stop offset="1" stop-color="#FFBE0B" />
        </linearGradient>
    </defs>
</svg>
