<svg width="48" height="48" viewBox="0 0 48 48" fill="none" xmlns="http://www.w3.org/2000/svg">
    <path
        d="M31.7484 7H10.4824C9.66367 7 9 7.66367 9 8.48235V35.5699C9 36.3885 9.66367 37.0522 10.4824 37.0522H31.7484C32.5671 37.0522 33.2308 36.3885 33.2308 35.5699V8.48235C33.2308 7.66367 32.5671 7 31.7484 7Z"
        fill="white" stroke="#1F1F1F" stroke-width="1.6" />
    <path
        d="M28.391 11.5078H13.8397C13.6759 11.5078 13.5432 11.6405 13.5432 11.8043V17.2218C13.5432 17.3855 13.6759 17.5182 13.8397 17.5182H28.391C28.5548 17.5182 28.6875 17.3855 28.6875 17.2218V11.8043C28.6875 11.6405 28.5548 11.5078 28.391 11.5078Z"
        fill="url(#paint0_linear_4968_39130)" stroke="#1F1F1F" stroke-width="1.6" />
    <path
        d="M15.9249 22.0259H14.38C13.9179 22.0259 13.5432 22.4005 13.5432 22.8627V24.4407C13.5432 24.9028 13.9179 25.2775 14.38 25.2775H15.9249C16.3871 25.2775 16.7617 24.9028 16.7617 24.4407V22.8627C16.7617 22.4005 16.3871 22.0259 15.9249 22.0259Z"
        stroke="#1F1F1F" stroke-width="1.6" />
    <path
        d="M21.9941 22.0259H20.4492C19.987 22.0259 19.6124 22.4005 19.6124 22.8627V24.4407C19.6124 24.9028 19.987 25.2775 20.4492 25.2775H21.9941C22.4563 25.2775 22.8309 24.9028 22.8309 24.4407V22.8627C22.8309 22.4005 22.4563 22.0259 21.9941 22.0259Z"
        stroke="#1F1F1F" stroke-width="1.6" />
    <path
        d="M28.0633 22.0259H26.5184C26.0563 22.0259 25.6816 22.4005 25.6816 22.8627V24.4407C25.6816 24.9028 26.0563 25.2775 26.5184 25.2775H28.0633C28.5255 25.2775 28.9001 24.9028 28.9001 24.4407V22.8627C28.9001 22.4005 28.5255 22.0259 28.0633 22.0259Z"
        stroke="#1F1F1F" stroke-width="1.6" />
    <path
        d="M15.9249 28.1577H14.38C13.9179 28.1577 13.5432 28.5324 13.5432 28.9945V30.5725C13.5432 31.0347 13.9179 31.4093 14.38 31.4093H15.9249C16.3871 31.4093 16.7617 31.0347 16.7617 30.5725V28.9945C16.7617 28.5324 16.3871 28.1577 15.9249 28.1577Z"
        stroke="#1F1F1F" stroke-width="1.6" />
    <path
        d="M21.9941 28.1577H20.4492C19.987 28.1577 19.6124 28.5324 19.6124 28.9945V30.5725C19.6124 31.0347 19.987 31.4093 20.4492 31.4093H21.9941C22.4563 31.4093 22.8309 31.0347 22.8309 30.5725V28.9945C22.8309 28.5324 22.4563 28.1577 21.9941 28.1577Z"
        stroke="#1F1F1F" stroke-width="1.6" />
    <path
        d="M28.0633 28.1577H26.5184C26.0563 28.1577 25.6816 28.5324 25.6816 28.9945V30.5725C25.6816 31.0347 26.0563 31.4093 26.5184 31.4093H28.0633C28.5255 31.4093 28.9001 31.0347 28.9001 30.5725V28.9945C28.9001 28.5324 28.5255 28.1577 28.0633 28.1577Z"
        stroke="#1F1F1F" stroke-width="1.6" />
    <path
        d="M31.5 41C35.6421 41 39 37.6076 39 33.4228C39 29.2381 35.6421 25.8457 31.5 25.8457C27.3579 25.8457 24 29.2381 24 33.4228C24 37.6076 27.3579 41 31.5 41Z"
        fill="white" stroke="#1F1F1F" stroke-width="1.98095" />
    <path
        d="M30.293 31.2395C30.152 31.497 29.9337 31.6673 29.6401 31.7524C29.3464 31.8376 29.0741 31.8059 28.8229 31.6613C28.5718 31.5168 28.4076 31.3009 28.3284 31.0118C28.2492 30.7227 28.2801 30.4494 28.4211 30.1919C28.5621 29.9365 28.7804 29.7642 29.0741 29.681C29.3677 29.5959 29.6401 29.6275 29.8912 29.7721C30.1424 29.9167 30.3066 30.1325 30.3858 30.4217C30.465 30.7108 30.4341 30.9841 30.293 31.2415V31.2395Z"
        fill="#1F1F1F" />
    <path d="M29.5713 36.9022L33.4284 29.9436" stroke="#1F1F1F" stroke-width="1.98095"
        stroke-linecap="round" stroke-linejoin="round" />
    <path
        d="M34.2427 37.2788C34.5364 37.1938 34.7547 37.0236 34.8957 36.7664C35.0367 36.5092 35.0676 36.2362 34.9884 35.9473C34.9092 35.6584 34.745 35.4428 34.4939 35.2984C34.2427 35.1539 33.9704 35.1223 33.6767 35.2073C33.3831 35.2924 33.1648 35.4626 33.0238 35.7198C32.8827 35.977 32.8518 36.25 32.931 36.5389C33.0102 36.8277 33.1744 37.0434 33.4256 37.1878C33.6767 37.3323 33.9491 37.3639 34.2427 37.2788Z"
        fill="#1F1F1F" />
    <defs>
        <linearGradient id="paint0_linear_4968_39130" x1="13.5582" y1="14.5145" x2="28.6951"
            y2="14.5145" gradientUnits="userSpaceOnUse">
            <stop stop-color="#FF7304" />
            <stop offset="1" stop-color="#FB2A77" />
        </linearGradient>
    </defs>
</svg>
