<svg width="48" height="48" viewBox="0 0 48 48" fill="none" xmlns="http://www.w3.org/2000/svg">
    <g clip-path="url(#clip0_4947_36705)">
        <path
            d="M3.99987 23.6451C4.225 22.9529 4.59922 22.3561 5.36065 22.0508C5.67684 21.9246 6.02604 21.8664 6.40726 21.7647C6.40726 21.3895 6.40626 20.9907 6.40726 20.5928C6.41226 19.0749 7.38382 18.1901 9.04777 18.1855C9.48803 18.1846 9.92928 18.1855 10.3865 18.1855C10.4746 17.3034 10.8808 16.6258 11.7583 16.2415C11.9875 16.1416 12.2486 16.0635 12.4998 16.0489C13.1351 16.0126 13.7765 15.9808 14.4099 16.0153C15.9047 16.0962 16.8002 16.9873 16.8082 18.3581C16.8142 19.3628 16.8092 20.3675 16.8092 21.3732C16.8092 21.5022 16.8092 21.6302 16.8092 21.7865H31.2035C31.2035 21.6693 31.2035 21.5449 31.2035 21.4195C31.2035 20.403 31.1995 19.3865 31.2045 18.369C31.2115 16.9301 32.2001 16.0226 33.785 16.0053C34.3183 15.9999 34.8546 15.9871 35.3839 16.0335C36.6366 16.1434 37.4411 16.8801 37.5982 18.0147C37.6042 18.0602 37.6142 18.1047 37.6292 18.1846C38.0985 18.1846 38.5647 18.1828 39.03 18.1846C40.6009 18.1937 41.5895 19.0858 41.6045 20.5084C41.6095 20.9317 41.6045 21.3559 41.6045 21.8056C42.418 21.8673 43.1314 22.1163 43.5446 22.7458C43.7878 23.1164 43.9428 23.5706 43.9899 24.0003C44.0529 24.5853 43.7677 25.1059 43.3095 25.531C42.8512 25.9571 42.2679 26.1351 41.6055 26.1914C41.6055 26.6411 41.6095 27.0644 41.6055 27.4877C41.5905 28.9103 40.6019 29.8024 39.031 29.8115C38.5647 29.8142 38.0995 29.8115 37.6292 29.8115C37.5051 30.868 36.9798 31.6865 35.8392 31.8709C34.9116 32.0208 33.9111 32.0126 32.9795 31.8727C31.8609 31.7055 31.2175 30.8017 31.2055 29.6979C31.1945 28.6696 31.2035 27.6413 31.2035 26.612C31.2035 26.4839 31.2035 26.3568 31.2035 26.206H16.8092C16.8092 26.3368 16.8092 26.463 16.8092 26.5884C16.8092 27.6049 16.8142 28.6214 16.8082 29.6389C16.8002 31.0578 15.8157 31.9635 14.2538 31.9926C13.8505 31.9999 13.4463 31.9953 13.0431 31.9935C11.5082 31.9853 10.5907 31.2468 10.3865 29.8115C9.89426 29.8115 9.39197 29.8178 8.89068 29.8106C7.66298 29.7915 6.72344 29.1501 6.4763 28.1082C6.38424 27.7221 6.42226 27.3097 6.40826 26.9091C6.40025 26.6856 6.40726 26.4612 6.40726 26.2259C6.33521 26.2014 6.27818 26.1705 6.21815 26.1633C5.06949 26.0334 4.35007 25.4601 4.0559 24.4445C4.0469 24.4118 4.01888 24.3837 3.99887 24.3528C3.99887 24.1166 3.99887 23.8795 3.99887 23.6433L3.99987 23.6451ZM15.1993 23.9958C15.1993 22.1762 15.1993 20.3566 15.1993 18.538C15.1993 17.6568 14.9852 17.4661 13.9996 17.4661C13.7265 17.4661 13.4533 17.4661 13.1802 17.4661C12.2346 17.4661 11.9995 17.6768 11.9995 18.5289C11.9995 22.1798 11.9995 25.8299 11.9995 29.4808C11.9995 29.5753 11.9955 29.6707 12.0045 29.7642C12.0545 30.2775 12.3437 30.5237 12.917 30.5337C13.3202 30.54 13.7235 30.5355 14.1267 30.5355C14.9442 30.5337 15.1993 30.3047 15.1993 29.5617C15.2013 27.7067 15.1993 25.8517 15.1993 23.9976V23.9958ZM32.8154 24.003C32.8154 25.858 32.8144 27.713 32.8154 29.5671C32.8154 30.3038 33.0756 30.5328 33.8961 30.5337C34.2082 30.5337 34.5204 30.5337 34.8326 30.5337C35.7791 30.5337 36.0143 30.3229 36.0153 29.4726C36.0153 25.8217 36.0153 22.1717 36.0153 18.5207C36.0153 18.4263 36.0193 18.3309 36.0103 18.2373C35.9603 17.7231 35.6721 17.476 35.0998 17.467C34.6965 17.4606 34.2933 17.4651 33.8901 17.4651C33.0716 17.467 32.8164 17.695 32.8154 18.4381C32.8134 20.2931 32.8154 22.148 32.8154 24.0021V24.003ZM10.3885 19.6444C9.91027 19.6444 9.46902 19.6417 9.02776 19.6444C8.28133 19.6508 7.99717 19.9106 7.99617 20.5947C7.99317 21.6702 7.99617 22.7458 7.99617 23.8204C7.99617 25.0377 7.99317 26.255 7.99817 27.4723C8.00017 27.941 8.21029 28.2817 8.59952 28.3108C9.18785 28.3544 9.7822 28.3226 10.3895 28.3226V19.6444H10.3885ZM37.6292 28.3553C38.0915 28.3553 38.5067 28.3562 38.923 28.3553C39.7504 28.3526 40.0186 28.1091 40.0196 27.3569C40.0206 25.9035 40.0196 24.45 40.0196 22.9965C40.0196 22.1689 40.0236 21.3423 40.0176 20.5147C40.0146 20.0832 39.8265 19.7344 39.4783 19.7053C38.8679 19.6544 38.2486 19.6908 37.6292 19.6908V28.3553ZM16.8252 24.6989H31.1825V23.3072H16.8252V24.6989ZM6.39625 23.3108C5.86394 23.349 5.58078 23.6388 5.6228 24.0694C5.66083 24.4582 5.963 24.6953 6.39625 24.6653V23.3108ZM41.6225 23.319V24.6798C42.0928 24.6753 42.3869 24.42 42.398 24.0194C42.409 23.6052 42.1088 23.329 41.6225 23.3199V23.319Z"
            fill="#1F1F1F" />
        <path
            d="M15.1994 23.9959C15.1994 25.8509 15.2004 27.7059 15.1994 29.56C15.1994 30.3031 14.9443 30.532 14.1268 30.5338C13.7236 30.5338 13.3204 30.5392 12.9171 30.532C12.3448 30.5229 12.0556 30.2758 12.0046 29.7625C11.9956 29.669 11.9996 29.5736 11.9996 29.4791C11.9996 25.8282 11.9996 22.1781 11.9996 18.5272C11.9996 17.6751 12.2347 17.4653 13.1803 17.4644C13.4534 17.4644 13.7266 17.4644 13.9998 17.4644C14.9853 17.4644 15.1994 17.6551 15.1994 18.5363C15.1994 20.3559 15.1994 22.1754 15.1994 23.9941V23.9959Z"
            fill="url(#paint0_linear_4947_36705)" />
        <path
            d="M32.8156 24.0031C32.8156 22.1481 32.8146 20.2931 32.8156 18.439C32.8156 17.6968 33.0717 17.4679 33.8902 17.4661C34.2934 17.4661 34.6967 17.4606 35.0999 17.4679C35.6722 17.4779 35.9604 17.725 36.0104 18.2382C36.0194 18.3318 36.0154 18.4272 36.0154 18.5217C36.0154 22.1726 36.0154 25.8226 36.0154 29.4736C36.0154 30.3239 35.7803 30.5346 34.8327 30.5346C34.5206 30.5346 34.2084 30.5346 33.8962 30.5346C33.0757 30.5328 32.8166 30.3039 32.8156 29.568C32.8136 27.7131 32.8156 25.8581 32.8156 24.004V24.0031Z"
            fill="url(#paint1_linear_4947_36705)" />
        <path
            d="M10.3887 19.6447V28.3228C9.78133 28.3228 9.18599 28.3546 8.59866 28.311C8.20943 28.2819 7.99931 27.9422 7.99731 27.4725C7.99231 26.2553 7.99531 25.038 7.99531 23.8207C7.99531 22.7451 7.99331 21.6695 7.99531 20.5949C7.99731 19.9108 8.28047 19.651 9.0269 19.6447C9.46816 19.641 9.90941 19.6447 10.3877 19.6447H10.3887Z"
            fill="white" />
        <path
            d="M37.6293 28.3562V19.6908C38.2487 19.6908 38.868 19.6545 39.4784 19.7053C39.8266 19.7344 40.0147 20.0832 40.0177 20.5147C40.0237 21.3423 40.0197 22.169 40.0197 22.9965C40.0197 24.45 40.0197 25.9035 40.0197 27.357C40.0197 28.1091 39.7516 28.3526 38.9231 28.3553C38.5078 28.3571 38.0916 28.3553 37.6293 28.3553V28.3562Z"
            fill="white" />
        <path d="M16.8254 24.6991V23.3074H31.1826V24.6991H16.8254Z" fill="white" />
        <path
            d="M6.39637 23.311V24.6655C5.96313 24.6955 5.66095 24.4584 5.62293 24.0696C5.58091 23.639 5.86407 23.3492 6.39637 23.311Z"
            fill="url(#paint2_linear_4947_36705)" />
        <path
            d="M41.6226 23.32C42.1079 23.3291 42.4091 23.6052 42.3981 24.0195C42.3871 24.421 42.0939 24.6754 41.6226 24.6799V23.3191V23.32Z"
            fill="url(#paint3_linear_4947_36705)" />
    </g>
    <defs>
        <linearGradient id="paint0_linear_4947_36705" x1="12.0019" y1="24.0033" x2="15.2015"
            y2="24.0033" gradientUnits="userSpaceOnUse">
            <stop stop-color="#FF7304" />
            <stop offset="1" stop-color="#FB2A77" />
        </linearGradient>
        <linearGradient id="paint1_linear_4947_36705" x1="32.8179" y1="24.0026" x2="36.0179"
            y2="24.0026" gradientUnits="userSpaceOnUse">
            <stop stop-color="#FF7304" />
            <stop offset="1" stop-color="#FB2A77" />
        </linearGradient>
        <linearGradient id="paint2_linear_4947_36705" x1="5.6196" y1="23.9899" x2="6.39677"
            y2="23.9899" gradientUnits="userSpaceOnUse">
            <stop stop-color="#FF7304" />
            <stop offset="1" stop-color="#FB2A77" />
        </linearGradient>
        <linearGradient id="paint3_linear_4947_36705" x1="41.6234" y1="23.9998" x2="42.3987"
            y2="23.9998" gradientUnits="userSpaceOnUse">
            <stop stop-color="#FF7304" />
            <stop offset="1" stop-color="#FB2A77" />
        </linearGradient>
        <clipPath id="clip0_4947_36705">
            <rect width="40" height="16" fill="white" transform="translate(4 16)" />
        </clipPath>
    </defs>
</svg>
