<svg width="48" height="48" viewBox="0 0 48 48" fill="none" xmlns="http://www.w3.org/2000/svg">
    <path
        d="M24 20.861C24.8284 20.861 25.5 20.1715 25.5 19.3209C25.5 18.4703 24.8284 17.7808 24 17.7808C23.1716 17.7808 22.5 18.4703 22.5 19.3209C22.5 20.1715 23.1716 20.861 24 20.861Z"
        stroke="#1F1F1F" stroke-width="1.6" />
    <path
        d="M24 20.3477C15.1634 20.3477 8 27.7027 8 36.7755H40C40 27.7027 32.8366 20.3477 24 20.3477Z"
        fill="white" stroke="#1F1F1F" stroke-width="1.6" />
    <path
        d="M41.1111 36.7754H6.88889C6.39797 36.7754 6 37.1734 6 37.6643V39.9935C6 40.4844 6.39797 40.8824 6.88889 40.8824H41.1111C41.602 40.8824 42 40.4844 42 39.9935V37.6643C42 37.1734 41.602 36.7754 41.1111 36.7754Z"
        fill="url(#paint0_linear_5322_2896)" stroke="#1F1F1F" stroke-width="1.6" />
    <path d="M21 25.4812C19 25.9946 14.7 28.4074 13.5 33.9518" stroke="#1F1F1F" stroke-width="1.6"
        stroke-linecap="round" />
    <path
        d="M20.6309 7C19.7353 7.35202 19.2985 8.02549 19.5896 9.11215C19.7844 9.83971 20.6309 10.6963 20.9331 11.2243C21.2352 11.7523 20.9331 12.8084 19.5896 13.3364"
        stroke="#1F1F1F" stroke-width="1.6" stroke-linecap="round" />
    <path
        d="M24.4213 7C23.5257 7.35202 23.0889 8.02549 23.38 9.11215C23.5748 9.83971 24.4213 10.6963 24.7235 11.2243C25.0256 11.7523 24.7235 12.8084 23.38 13.3364"
        stroke="#1F1F1F" stroke-width="1.6" stroke-linecap="round" />
    <path
        d="M28.2117 7C27.3161 7.35202 26.8793 8.02549 27.1704 9.11215C27.3652 9.83971 28.2117 10.6963 28.5139 11.2243C28.8161 11.7523 28.5139 12.8084 27.1704 13.3364"
        stroke="#1F1F1F" stroke-width="1.6" stroke-linecap="round" />
    <defs>
        <linearGradient id="paint0_linear_5322_2896" x1="6.03557" y1="38.8299" x2="42.0182"
            y2="38.8299" gradientUnits="userSpaceOnUse">
            <stop stop-color="#FF7304" />
            <stop offset="1" stop-color="#FB2A77" />
        </linearGradient>
    </defs>
</svg>
