<svg width="48" height="48" viewBox="0 0 48 48" fill="none" xmlns="http://www.w3.org/2000/svg">
    <path
        d="M40.2854 34.8466C41.5381 34.3966 42.5061 32.8776 42.8477 30.6835C43.2463 28.2081 42.8477 25.2826 41.8228 22.3572L40.9687 19.8256L40.9603 19.7999C39.9958 16.8287 39.1415 14.1973 37.3813 13.3558C36.2994 12.7932 34.762 12.9057 32.6552 13.6371C31.1747 14.1434 29.6942 14.4247 28.3276 14.4247H19.6155C18.2489 14.4247 16.8253 14.1434 15.3448 13.6371C13.238 12.9057 11.7006 12.7932 10.6187 13.3558C8.85348 14.1997 7.99935 16.7876 7.03134 19.8256L6.17721 22.3572C5.15226 25.2826 4.75366 28.2644 5.15225 30.6835C5.49391 32.8776 6.40498 34.3966 7.71464 34.8466C8.51182 35.1279 9.42289 35.0154 10.4478 34.5653C13.0102 33.3839 15.5157 30.1209 16.9392 26.1265C17.11 25.6765 17.5086 25.3952 17.9642 25.3952H30.0358C30.4914 25.3952 30.89 25.6765 31.0608 26.1265C32.5413 30.1209 34.9898 33.3839 37.5522 34.5653C38.5771 35.0154 39.4882 35.1279 40.2854 34.8466Z"
        fill="white" stroke="#1F1F1F" stroke-width="1.6" />
    <path
        d="M33.1532 18.4374C33.5502 18.4374 33.8719 18.1156 33.8719 17.7187C33.8719 17.3218 33.5502 17 33.1532 17C32.7563 17 32.4345 17.3218 32.4345 17.7187C32.4345 18.1156 32.7563 18.4374 33.1532 18.4374Z"
        fill="#1F1F1F" stroke="#1F1F1F" stroke-width="0.862453" />
    <path
        d="M35.2813 20.5805C35.6782 20.5805 36 20.2587 36 19.8618C36 19.4648 35.6782 19.1431 35.2813 19.1431C34.8844 19.1431 34.5626 19.4648 34.5626 19.8618C34.5626 20.2587 34.8844 20.5805 35.2813 20.5805Z"
        fill="#1F1F1F" stroke="#1F1F1F" stroke-width="0.862453" />
    <path
        d="M30.9842 20.5805C31.3811 20.5805 31.7029 20.2587 31.7029 19.8618C31.7029 19.4648 31.3811 19.1431 30.9842 19.1431C30.5872 19.1431 30.2655 19.4648 30.2655 19.8618C30.2655 20.2587 30.5872 20.5805 30.9842 20.5805Z"
        fill="#1F1F1F" stroke="#1F1F1F" stroke-width="0.862453" />
    <path
        d="M33.1532 22.683C33.5502 22.683 33.8719 22.3612 33.8719 21.9643C33.8719 21.5674 33.5502 21.2456 33.1532 21.2456C32.7563 21.2456 32.4345 21.5674 32.4345 21.9643C32.4345 22.3612 32.7563 22.683 33.1532 22.683Z"
        fill="#1F1F1F" stroke="#1F1F1F" stroke-width="0.862453" />
    <path
        d="M16.893 18.6509H15.4237V17.1977C15.4237 17.0988 15.357 17 15.2236 17H13.0189C12.9188 17 12.8188 17.0659 12.8188 17.1977V18.6509H11.3495C11.2495 18.6509 11.1495 18.7168 11.1495 18.8486V21.041C11.1495 21.1398 11.2162 21.2386 11.3495 21.2386H12.8188V22.6919C12.8188 22.7907 12.8855 22.8895 13.0189 22.8895H15.2236C15.3237 22.8895 15.4237 22.8237 15.4237 22.6919V21.2386H16.893C16.993 21.2386 17.093 21.1727 17.093 21.041V18.8486C17.093 18.7168 16.993 18.6509 16.893 18.6509Z"
        fill="url(#paint0_linear_4947_36638)" stroke="#1F1F1F" stroke-width="1.6" />
    <defs>
        <linearGradient id="paint0_linear_4947_36638" x1="11.1553" y1="19.9462" x2="17.096"
            y2="19.9462" gradientUnits="userSpaceOnUse">
            <stop stop-color="#FF7304" />
            <stop offset="1" stop-color="#FB2A77" />
        </linearGradient>
    </defs>
</svg>
