<svg width="48" height="48" viewBox="0 0 48 48" fill="none" xmlns="http://www.w3.org/2000/svg">
    <path
        d="M16.616 28.2034L11.1282 31.1304C11.0851 31.1534 11.0609 31.2008 11.0675 31.2492L11.9644 37.8522C11.9723 37.9101 12.0218 37.9533 12.0802 37.9533H12.7738L25.178 39.5272C25.744 39.599 26.3166 39.4613 26.7881 39.14L38.9716 30.8366C39.5731 30.4267 39.8109 29.655 39.5444 28.9776C39.2177 28.147 38.2617 27.7597 37.449 28.1287L27.2406 32.7633C27.2117 32.7764 27.1856 32.7406 27.2068 32.7171L30.3647 29.2197C30.9729 28.5461 30.2817 27.5057 29.425 27.8054L24.7529 29.4396C24.2305 29.6223 23.6602 29.6136 23.1435 29.4152L19.5224 28.0241C18.5735 27.6596 17.513 27.725 16.616 28.2034Z"
        fill="white" stroke="#1F1F1F" stroke-width="1.6" />
    <path
        d="M21.1974 32.2273C21.1974 32.2273 22.4719 32.6277 23.31 32.7969C23.8015 32.896 24.0775 32.9632 24.5776 33.0034C25.071 33.0431 25.353 33.055 25.8452 33.0034C26.2635 32.9596 26.6541 32.8775 26.9016 32.7969C27.1491 32.7162 27.2879 32.6709 27.5354 32.5903"
        stroke="#1F1F1F" stroke-width="1.6" stroke-linecap="round" />
    <path
        d="M12.1896 27.5293L8.58415 27.5488C8.26153 27.5506 8.0015 27.8135 8.00335 28.1362L8.06809 39.4159C8.06994 39.7385 8.33298 39.9986 8.65559 39.9968L12.2611 39.9773C12.5837 39.9755 12.8437 39.7126 12.8419 39.3899L12.7771 28.1102C12.7753 27.7876 12.5123 27.5275 12.1896 27.5293Z"
        fill="url(#paint0_linear_4968_39650)" stroke="#1F1F1F" stroke-width="1.6" />
    <path
        d="M10.387 30.8497C10.8264 30.8497 11.1827 30.5014 11.1827 30.0717C11.1827 29.642 10.8264 29.2937 10.387 29.2937C9.94759 29.2937 9.59137 29.642 9.59137 30.0717C9.59137 30.5014 9.94759 30.8497 10.387 30.8497Z"
        fill="#1F1F1F" />
    <path
        d="M25.6 25.6C30.4602 25.6 34.4 21.6601 34.4 16.8C34.4 11.9399 30.4602 8 25.6 8C20.7399 8 16.8 11.9399 16.8 16.8C16.8 21.6601 20.7399 25.6 25.6 25.6Z"
        fill="white" stroke="#1F1F1F" stroke-width="1.6" stroke-miterlimit="10"
        stroke-linecap="round" stroke-linejoin="round" />
    <path
        d="M30.9081 14.5874C30.6189 13.6917 29.8234 13.0082 28.8593 12.8432C27.5336 12.6311 26.3525 13.3853 25.9186 14.4931C25.4847 13.3617 24.3036 12.6075 22.9538 12.8432C22.0137 13.0082 21.2183 13.6917 20.9291 14.5874C20.905 14.6581 20.8808 14.7288 20.8567 14.8231C20.688 15.5537 20.905 16.308 21.387 16.8972C21.604 17.345 25.6534 21.8469 26.0873 22.1062L30.426 16.8972C30.9563 16.2608 31.1733 15.3887 30.9081 14.6109V14.5874Z"
        fill="url(#paint1_linear_4968_39650)" />
    <path
        d="M21.387 16.8972C20.905 16.308 20.688 15.5537 20.8567 14.8231C20.8808 14.7288 20.905 14.6581 20.9291 14.5874C21.2183 13.6917 22.0137 13.0082 22.9538 12.8432C24.3036 12.6075 25.4847 13.3617 25.9186 14.4931C26.3525 13.3853 27.5336 12.6311 28.8593 12.8432C29.8234 13.0082 30.6189 13.6917 30.9081 14.5874V14.6109C31.1733 15.3887 30.9563 16.2608 30.426 16.8972L26.0873 22.1062C25.6534 21.8469 21.604 17.345 21.387 16.8972ZM21.387 16.8972L22.2789 18.005"
        stroke="#1F1F1F" stroke-width="1.6" stroke-miterlimit="10" stroke-linecap="round"
        stroke-linejoin="round" />
    <defs>
        <linearGradient id="paint0_linear_4968_39650" x1="8.04045" y1="33.779" x2="12.8119"
            y2="33.7517" gradientUnits="userSpaceOnUse">
            <stop stop-color="#FF7304" />
            <stop offset="1" stop-color="#FB2A77" />
        </linearGradient>
        <linearGradient id="paint1_linear_4968_39650" x1="20.8101" y1="17.4554" x2="31.0265"
            y2="17.4554" gradientUnits="userSpaceOnUse">
            <stop stop-color="#FF7304" />
            <stop offset="1" stop-color="#FB2A77" />
        </linearGradient>
    </defs>
</svg>
