<svg width="48" height="48" viewBox="0 0 48 48" fill="none" xmlns="http://www.w3.org/2000/svg">
    <g clip-path="url(#clip0_5322_2969)">
        <path
            d="M40 20.147C39.9438 20.2826 39.8947 20.4215 39.8314 20.5531C39.4855 21.2715 38.9219 21.6856 38.1351 21.6872C33.7751 21.6977 29.4159 21.6977 25.0559 21.6888C24.0141 21.6864 23.1964 20.8412 23.1925 19.7765C23.183 17.4889 23.183 15.2004 23.1925 12.9128C23.1972 11.8481 24.0141 11.0005 25.0543 10.9981C29.4143 10.9892 33.7735 10.9908 38.1335 10.9973C38.9504 10.9981 39.6272 11.5228 39.8979 12.313C39.9248 12.3913 39.9652 12.464 40 12.5391V20.1462V20.147ZM38.7375 16.2409C38.7375 16.0851 38.7375 15.9931 38.7375 15.9011C38.7375 14.9881 38.7382 14.0744 38.7375 13.1614C38.7367 12.5221 38.5055 12.2824 37.8833 12.2824C33.6912 12.2816 29.4982 12.2816 25.306 12.2824C24.6838 12.2824 24.4519 12.5221 24.4519 13.1614C24.4511 15.2779 24.4519 17.3944 24.4519 19.5118C24.4519 20.1769 24.6751 20.4061 25.3218 20.4061C27.4812 20.4061 29.6407 20.4061 31.8001 20.4061C31.8887 20.4061 31.9782 20.3981 32.0605 20.394C30.6737 18.9814 29.2987 17.5801 27.9095 16.1651C27.8501 16.2224 27.7662 16.3007 27.6855 16.383C27.3198 16.7543 26.9651 17.1377 26.5876 17.4962C26.1744 17.8876 25.5625 17.7117 25.5086 17.1692C25.4881 16.9626 25.6179 16.6889 25.7643 16.5251C26.2543 15.9786 26.7831 15.4676 27.2968 14.9437C27.8082 14.4223 28.0836 14.4215 28.5934 14.9405C30.3222 16.7027 32.0486 18.4664 33.783 20.2229C33.8756 20.3165 34.0292 20.3973 34.155 20.3981C35.4295 20.411 36.7039 20.4094 37.9791 20.4037C38.4707 20.4013 38.7256 20.1478 38.7359 19.6554C38.7454 19.1832 38.7414 18.7102 38.7343 18.2372C38.7335 18.1605 38.7042 18.0652 38.6543 18.012C37.6997 17.011 36.7403 16.0157 35.7651 15.0019C35.1643 15.6178 34.6086 16.1893 34.0505 16.7584C33.9619 16.8488 33.8685 16.9376 33.7671 17.0126C33.5376 17.1813 33.293 17.1781 33.0611 17.0272C32.8085 16.8633 32.7239 16.6074 32.8101 16.3273C32.8576 16.1731 32.97 16.027 33.0848 15.9084C33.764 15.2037 34.4519 14.5062 35.1382 13.8088C35.5719 13.3673 35.8957 13.3648 36.3247 13.8007C37.0411 14.5288 37.7551 15.2594 38.4707 15.9883C38.5411 16.0601 38.6171 16.1271 38.739 16.2417L38.7375 16.2409Z"
            fill="#1F1F1F" />
        <path
            d="M9.97869 40C9.54965 39.7764 9.49107 39.3954 9.54965 38.962C9.77208 37.3322 11.1027 36.1464 12.7247 36.1319C12.8917 36.1303 13.0587 36.1319 13.2685 36.1319V35.7057C13.2685 29.9704 13.2685 24.2352 13.2708 18.4992C13.2708 18.3297 13.278 18.1521 13.3255 17.9922C13.4133 17.7 13.7023 17.5337 13.9936 17.5741C14.273 17.6137 14.4922 17.8364 14.5247 18.1287C14.5397 18.2667 14.5374 18.4071 14.5374 18.5468C14.5374 24.261 14.5374 29.9745 14.5374 35.6887V36.0487C15.0717 36.148 15.5751 36.1965 16.0517 36.3393C17.1424 36.6671 18.0575 37.9247 18.1319 39.0903C18.158 39.4963 18.048 39.8039 17.6894 40H9.97869ZM16.7229 38.7004C16.4728 37.9546 15.8332 37.4581 15.0369 37.4299C14.2382 37.4024 13.4379 37.4024 12.6392 37.4299C11.8238 37.4573 11.1257 38.007 10.9634 38.7004H16.7229Z"
            fill="#1F1F1F" />
        <path
            d="M11.1138 18.214C11.1138 19.2029 11.1194 20.1473 11.1106 21.0909C11.1075 21.4606 10.8391 21.7359 10.5043 21.7496C10.1885 21.7625 9.89558 21.501 9.85917 21.1652C9.84729 21.0586 9.85283 20.9505 9.85283 20.8431C9.85283 19.9842 9.85283 19.1254 9.85283 18.214C9.39451 18.214 8.94648 18.214 8.49845 18.214C7.72904 18.2132 7.48286 17.8556 7.75674 17.1299C8.70267 14.6211 9.65019 12.1123 10.5969 9.60432C10.7893 9.09416 10.9318 8.99487 11.4645 8.99487C13.107 8.99487 14.7495 8.99487 16.392 8.99487C16.8678 8.99487 17.0285 9.10385 17.1987 9.55346C18.162 12.1018 19.1246 14.6502 20.084 17.1994C20.3167 17.8177 20.0467 18.2124 19.3961 18.2124C16.7744 18.214 14.1527 18.2124 11.531 18.2124C11.4059 18.2124 11.2816 18.2124 11.1138 18.2124V18.214ZM18.5807 16.9112C18.5697 16.8442 18.5697 16.8006 18.5554 16.7627C17.7638 14.6655 16.9691 12.5692 16.1846 10.4688C16.1118 10.2743 15.9899 10.2832 15.8403 10.2832C14.5564 10.2848 13.2732 10.2913 11.9893 10.2775C11.7574 10.2751 11.6687 10.3599 11.5911 10.5697C11.0165 12.1212 10.4283 13.6686 9.84492 15.2169C9.63515 15.7738 9.42538 16.33 9.20612 16.9104H18.5807V16.9112Z"
            fill="#1F1F1F" />
        <path
            d="M38.7374 16.2417C38.6155 16.1271 38.5403 16.0601 38.4691 15.9882C37.7535 15.2593 37.0395 14.5288 36.3231 13.8007C35.8941 13.3648 35.5703 13.3672 35.1366 13.8088C34.4503 14.5062 33.7624 15.2036 33.0832 15.9083C32.9684 16.027 32.856 16.1731 32.8085 16.3273C32.7223 16.6074 32.807 16.8633 33.0595 17.0271C33.2914 17.1781 33.5368 17.1813 33.7656 17.0126C33.8669 16.9375 33.9603 16.8495 34.0489 16.7583C34.607 16.1892 35.1627 15.6185 35.7635 15.0018C36.7387 16.0157 37.6989 17.0118 38.6527 18.0119C38.7034 18.0644 38.7319 18.1605 38.7327 18.2371C38.7398 18.7102 38.7438 19.1824 38.7343 19.6554C38.724 20.1478 38.4691 20.4013 37.9775 20.4037C36.7031 20.4093 35.4286 20.4102 34.1534 20.398C34.0276 20.3964 33.874 20.3165 33.7814 20.2229C32.047 18.4664 30.3206 16.7026 28.5918 14.9405C28.0828 14.4215 27.8074 14.4223 27.2952 14.9437C26.7807 15.4676 26.2527 15.9786 25.7627 16.525C25.6163 16.6889 25.4865 16.9626 25.507 17.1692C25.5609 17.7125 26.1735 17.8884 26.586 17.4961C26.9635 17.1377 27.3182 16.7543 27.6839 16.383C27.7646 16.3006 27.8493 16.2223 27.9079 16.165C29.2971 17.5809 30.6721 18.9814 32.0589 20.394C31.9766 20.398 31.8871 20.4061 31.7985 20.4061C29.6391 20.4061 27.4796 20.4069 25.3202 20.4061C24.6727 20.4061 24.4503 20.1769 24.4503 19.5117C24.4503 17.3952 24.4503 15.2787 24.4503 13.1614C24.4503 12.5221 24.6822 12.2823 25.3044 12.2823C29.4966 12.2815 33.6896 12.2815 37.8817 12.2823C38.5039 12.2823 38.7351 12.5221 38.7359 13.1614C38.7374 14.0744 38.7359 14.9881 38.7359 15.9011C38.7359 15.9931 38.7359 16.0851 38.7359 16.2409L38.7374 16.2417Z"
            fill="white" />
        <path
            d="M16.7221 38.7005H10.9626C11.1249 38.0071 11.8239 37.4566 12.6384 37.43C13.4371 37.4033 14.2374 37.4025 15.0361 37.43C15.8332 37.4574 16.472 37.9538 16.7221 38.7005Z"
            fill="white" />
        <path
            d="M18.5807 16.911H9.20612C9.42459 16.3306 9.63436 15.7736 9.84492 15.2175C10.4283 13.6692 11.0164 12.1226 11.5911 10.5703C11.6687 10.3605 11.7574 10.2757 11.9893 10.2781C13.2732 10.291 14.5564 10.2854 15.8403 10.2838C15.9899 10.2838 16.1118 10.2749 16.1846 10.4694C16.9691 12.5698 17.7646 14.6653 18.5554 16.7633C18.5697 16.8012 18.5697 16.8448 18.5807 16.9118V16.911Z"
            fill="url(#paint0_linear_5322_2969)" />
    </g>
    <path
        d="M22.1746 26.6599L33.8132 26.7681L36.5306 27.0869L37.1426 29.3032L35.8815 30.9809L34.5834 32.9965L22.367 33.3646L18.5674 30.7654L19.3606 27.5527L22.1746 26.6599Z"
        fill="white" />
    <path
        d="M40.1426 39.7263C39.9566 40.0783 39.6661 40.1824 39.2798 40.1824C31.8121 40.1743 24.3436 40.1768 16.8758 40.176C16.1887 40.176 16.0004 39.9814 16.0004 39.2735C16.0004 37.1247 15.9996 34.9759 16.0004 32.8271C16.0011 31.3604 16.7326 30.2989 18.0822 29.8283C18.2658 29.7646 18.2967 29.6701 18.2943 29.503C18.2864 28.8992 18.3236 28.2995 18.5975 27.7473C19.1706 26.589 20.1229 26.0336 21.3712 26.0118C22.6662 25.9892 23.962 26.0054 25.2578 26.0086C25.3718 26.0086 25.489 26.028 25.599 26.0595C25.8776 26.1394 26.0549 26.3969 26.0454 26.6867C26.0359 26.9773 25.8444 27.221 25.5594 27.28C25.4161 27.309 25.2673 27.3187 25.1209 27.3195C23.8781 27.3227 22.6353 27.3155 21.3918 27.3235C20.468 27.33 19.8324 27.7925 19.64 28.6337C19.5672 28.9517 19.5933 29.294 19.5925 29.6257C19.5925 29.6846 19.6717 29.7775 19.7318 29.7968C20.9675 30.2029 21.6617 31.073 21.8691 32.367C21.8723 32.3864 21.8865 32.4041 21.8905 32.4122H34.2185C34.3491 32.0401 34.4504 31.6332 34.6309 31.2668C34.976 30.5653 35.5364 30.0882 36.275 29.8582C36.4974 29.7888 36.5607 29.6863 36.5655 29.4546C36.5789 28.8346 36.5125 28.2526 36.0407 27.7974C35.6663 27.4358 35.2135 27.3163 34.7092 27.3195C33.4451 27.326 32.181 27.3227 30.9176 27.3203C30.7814 27.3203 25.6437 27.3131 25.5099 27.2896C25.183 27.2323 24.9756 26.991 24.9709 26.6778C24.9661 26.367 25.164 26.1192 25.4894 26.0441C25.5907 26.0207 30.6967 26.0094 30.8012 26.0094C32.1073 26.007 33.4134 25.9965 34.7195 26.011C35.9924 26.0256 36.9668 26.572 37.5502 27.7578C37.817 28.3003 37.8565 28.8887 37.8494 29.482C37.847 29.6572 37.87 29.7678 38.0711 29.834C39.1136 30.1746 39.7674 30.9035 40.0603 31.9755C40.0856 32.0675 40.1165 32.1579 40.1442 32.2492V39.7272L40.1426 39.7263ZM34.2573 36.2763H21.896V38.8642H34.2573V36.2763ZM20.5757 38.8812C20.5939 38.8336 20.6081 38.8142 20.6081 38.7948C20.6097 36.7542 20.6271 34.7144 20.6042 32.6737C20.5939 31.7882 19.9574 31.0981 19.1738 31.0141C18.079 30.8971 17.2692 31.6454 17.2645 32.8037C17.2566 34.7475 17.2621 36.6912 17.2637 38.635C17.2637 38.7157 17.2795 38.7972 17.2882 38.8812H20.5757ZM35.5277 38.8642H38.8737C38.8737 36.7695 38.8848 34.6974 38.8666 32.6261C38.8611 32.0336 38.5737 31.5549 38.0711 31.2409C36.9383 30.5322 35.557 31.3523 35.5309 32.7553C35.5135 33.6892 35.5277 34.624 35.5277 35.5579C35.5277 36.6525 35.5277 37.7463 35.5277 38.8642ZM34.2137 34.9444C34.4615 34.1001 34.1694 33.6723 33.3398 33.6723C29.8996 33.6723 26.4586 33.6723 23.0185 33.6723C21.9633 33.6723 21.8358 33.8063 21.8841 34.8766C21.8849 34.8952 21.9015 34.9129 21.9174 34.9444H34.2137Z"
        fill="#1F1F1F" />
    <path d="M34.2572 36.2754V38.8633H21.896V36.2754H34.2572Z" fill="white" />
    <path
        d="M20.5757 38.8813H17.2875C17.2787 38.7973 17.2629 38.7158 17.2629 38.6351C17.2613 36.6913 17.2558 34.7476 17.2637 32.8038C17.2685 31.6455 18.0782 30.8972 19.173 31.0142C19.9566 31.0982 20.5931 31.7891 20.6034 32.6738C20.6263 34.7137 20.6097 36.7543 20.6073 38.7949C20.6073 38.8143 20.5939 38.8329 20.5749 38.8813H20.5757Z"
        fill="url(#paint1_linear_5322_2969)" />
    <path
        d="M35.5277 38.8642C35.5277 37.747 35.5277 36.6524 35.5277 35.5578C35.5277 34.6239 35.5135 33.6891 35.5309 32.7552C35.557 31.3523 36.9391 30.5321 38.071 31.2409C38.5737 31.5549 38.861 32.0344 38.8666 32.6261C38.8848 34.6974 38.8737 36.7687 38.8737 38.8642H35.5277Z"
        fill="url(#paint2_linear_5322_2969)" />
    <path
        d="M34.2137 34.9445H21.9166C21.9007 34.913 21.8841 34.8953 21.8833 34.8767C21.8358 33.8072 21.9625 33.6724 23.0176 33.6724C26.4578 33.6724 29.8988 33.6724 33.339 33.6724C34.1686 33.6724 34.4607 34.1002 34.2129 34.9445H34.2137Z"
        fill="white" />
    <path d="M8 39.5H41.5" stroke="#1F1F1F" stroke-width="1.6" stroke-linecap="round" />
    <defs>
        <linearGradient id="paint0_linear_5322_2969" x1="9.21538" y1="13.5966" x2="18.5855"
            y2="13.5966" gradientUnits="userSpaceOnUse">
            <stop stop-color="#FF7304" />
            <stop offset="1" stop-color="#FB2A77" />
        </linearGradient>
        <linearGradient id="paint1_linear_5322_2969" x1="17.2629" y1="34.9437" x2="20.6171"
            y2="34.9437" gradientUnits="userSpaceOnUse">
            <stop stop-color="#FF7304" />
            <stop offset="1" stop-color="#FB2A77" />
        </linearGradient>
        <linearGradient id="paint2_linear_5322_2969" x1="35.5255" y1="34.9246" x2="38.8787"
            y2="34.9246" gradientUnits="userSpaceOnUse">
            <stop stop-color="#FF7304" />
            <stop offset="1" stop-color="#FB2A77" />
        </linearGradient>
        <clipPath id="clip0_5322_2969">
            <rect width="33" height="36" fill="white" transform="translate(7 6)" />
        </clipPath>
    </defs>
</svg>
