<svg width="48" height="48" viewBox="0 0 48 48" fill="none" xmlns="http://www.w3.org/2000/svg">
    <g clip-path="url(#clip0_4968_40113)">
        <mask id="mask0_4968_40113" style="mask-type:luminance" maskUnits="userSpaceOnUse" x="0"
            y="0" width="48" height="48">
            <path d="M48 0H0V48H48V0Z" fill="white" />
        </mask>
        <g mask="url(#mask0_4968_40113)">
            <path
                d="M42.4263 27.0007H4.57375C4.25688 27.0007 4 27.2576 4 27.5745V29.427C4 29.7439 4.25688 30.0007 4.57375 30.0007H42.4263C42.7431 30.0007 43 29.7439 43 29.427V27.5745C43 27.2576 42.7431 27.0007 42.4263 27.0007Z"
                fill="white" stroke="#1F1F1F" stroke-width="1.6" />
            <path
                d="M33.8893 21.0005H31.1105C30.6352 21.0005 30.2499 21.3858 30.2499 21.8611V35.1399C30.2499 35.6152 30.6352 36.0005 31.1105 36.0005H33.8893C34.3646 36.0005 34.7499 35.6152 34.7499 35.1399V21.8611C34.7499 21.3858 34.3646 21.0005 33.8893 21.0005Z"
                fill="white" stroke="#1F1F1F" stroke-width="1.6" />
            <path
                d="M38.3893 23.5005H35.6105C35.1352 23.5005 34.7499 23.8858 34.7499 24.3611V32.6399C34.7499 33.1152 35.1352 33.5005 35.6105 33.5005H38.3893C38.8646 33.5005 39.2499 33.1152 39.2499 32.6399V24.3611C39.2499 23.8858 38.8646 23.5005 38.3893 23.5005Z"
                fill="white" stroke="#1F1F1F" stroke-width="1.6" />
            <path
                d="M13.1107 21.0005H15.8895C16.3648 21.0005 16.7501 21.3858 16.7501 21.8611V35.1399C16.7501 35.6152 16.3648 36.0005 15.8895 36.0005H13.1107C12.6354 36.0005 12.2501 35.6152 12.2501 35.1399V21.8611C12.2501 21.3858 12.6354 21.0005 13.1107 21.0005Z"
                fill="white" stroke="#1F1F1F" stroke-width="1.6" />
            <path
                d="M8.61072 23.5005H11.3895C11.8648 23.5005 12.2501 23.8858 12.2501 24.3611V32.6399C12.2501 33.1152 11.8648 33.5005 11.3895 33.5005H8.61072C8.13541 33.5005 7.75009 33.1152 7.75009 32.6399V24.3611C7.75009 23.8858 8.13541 23.5005 8.61072 23.5005Z"
                fill="white" stroke="#1F1F1F" stroke-width="1.6" />
            <path
                d="M29.3673 14.1808C29.0277 13.0881 28.0938 12.2542 26.9619 12.0529C25.4054 11.7941 24.0188 12.7143 23.5094 14.0658C23 12.6855 21.6134 11.7654 20.0287 12.0529C18.925 12.2542 17.9912 13.0881 17.6516 14.1808C17.6233 14.2671 17.595 14.3533 17.5667 14.4684C17.3686 15.3598 17.6233 16.2799 18.1893 16.9988C18.4439 17.5452 23.1981 21.9696 23.7075 22.2859L28.8013 16.9988C29.4239 16.2224 29.6786 15.1585 29.3673 14.2096V14.1808Z"
                fill="url(#paint0_linear_4968_40113)" stroke="#1F1F1F" stroke-width="1.6"
                stroke-miterlimit="10" stroke-linecap="round" stroke-linejoin="round" />
        </g>
    </g>
    <defs>
        <linearGradient id="paint0_linear_4968_40113" x1="17.512" y1="17.1456" x2="29.5062"
            y2="17.1456" gradientUnits="userSpaceOnUse">
            <stop stop-color="#FF7304" />
            <stop offset="1" stop-color="#FB2A77" />
        </linearGradient>
        <clipPath id="clip0_4968_40113">
            <rect width="48" height="48" fill="white" />
        </clipPath>
    </defs>
</svg>
