<svg width="48" height="48" viewBox="0 0 48 48" fill="none" xmlns="http://www.w3.org/2000/svg">
    <path
        d="M20.9775 22.8132H9.27631L6.93607 23.282L6.46802 25.1571V36.4075L8.80826 37.3451H21.4456L23.7858 39.6889L26.1261 40.6264V38.7514L27.0622 37.3451H29.8705L32.2107 36.4075V31.7198V26.0946H33.1468H35.9551L37.3593 22.8132L39.6995 22.3444L40.1676 20.4694L40.6356 16.7192L41.1037 14.3754L39.6995 12.9691L38.7634 8.75013L34.551 7.34383L32.2107 5.46875L29.8705 6.40629H27.9983H26.1261L23.7858 9.2189L20.9775 11.094V14.8441L20.0414 18.5943L21.9136 20.4694V22.8132H20.9775Z"
        fill="white" stroke="#1F1F1F" stroke-width="0.1" />
    <path
        d="M41.9719 15.1802C41.5413 16.0333 41.1107 16.8865 40.6895 17.749C40.6146 17.9084 40.5678 18.1147 40.5958 18.2834C40.6988 19.0616 40.8299 19.8304 40.9609 20.6085C41.092 21.4148 40.8112 22.0055 40.0904 22.3898C39.3977 22.7555 38.6862 23.093 38.0029 23.468C37.8344 23.5618 37.6659 23.7211 37.5723 23.8993C37.2072 24.5743 36.8702 25.2775 36.5145 25.9619C36.1307 26.7025 35.6252 26.9838 34.8014 26.8713C34.0338 26.7681 33.2755 26.6369 32.4611 26.5056C32.4611 26.665 32.4611 26.7963 32.4611 26.9369C32.4611 28.5589 32.4611 32.984 32.4611 34.606C32.4611 34.7466 32.4986 34.9247 32.4237 35.0185C32.302 35.1779 32.1148 35.3841 31.9557 35.3935C31.7872 35.4029 31.5812 35.2154 31.4595 35.056C31.3846 34.9529 31.4127 34.7654 31.4127 34.6154C31.4127 33.1153 31.4127 28.8026 31.4127 27.3025C31.4127 27.1713 31.4127 27.0494 31.4127 26.8713C31.291 26.9182 31.2161 26.9463 31.1319 26.9838C30.6826 27.2088 30.2332 27.4432 29.7839 27.6682C29.0444 28.0338 28.4172 27.9401 27.8275 27.3588C27.322 26.8525 26.8071 26.365 26.3203 25.84C26.077 25.5775 25.7961 25.4462 25.4404 25.3993C24.7009 25.2962 23.9614 25.1837 23.2219 25.0525C22.5572 24.9306 22.1173 24.5274 21.9862 23.8711C21.93 23.5899 21.8177 23.543 21.565 23.543C18.8409 23.5524 13.2992 23.543 10.5752 23.543C10.4254 23.543 10.2663 23.543 10.1258 23.5055C9.86374 23.4399 9.73268 23.2617 9.74205 22.9899C9.75141 22.718 9.89183 22.5492 10.1633 22.5023C10.285 22.4836 10.416 22.4836 10.5471 22.4836C13.1962 22.4836 18.6443 22.4836 21.2935 22.4836C21.4339 22.4836 21.5743 22.4836 21.7522 22.4836C21.6305 21.7429 21.6773 21.0023 20.9846 20.4773C20.5165 20.121 20.1327 19.6429 19.7115 19.221C19.0656 18.5741 18.972 17.974 19.3932 17.149C19.6928 16.549 19.983 15.949 20.3106 15.3677C20.5165 15.0021 20.554 14.6551 20.4791 14.2614C20.348 13.5582 20.2451 12.8551 20.1515 12.1426C20.0485 11.3644 20.3387 10.8394 21.0408 10.4831C21.7054 10.1362 22.3794 9.81744 23.0347 9.4518C23.25 9.32992 23.4653 9.12367 23.5869 8.90804C23.952 8.25176 24.2703 7.57673 24.6167 6.91108C25.0098 6.15167 25.5902 5.87043 26.442 6.02043C27.2003 6.15169 27.9679 6.27354 28.7261 6.37667C28.8946 6.39542 29.1006 6.34856 29.2597 6.27356C29.9524 5.93604 30.6358 5.57976 31.3285 5.23288C32.1054 4.83911 32.7045 4.94224 33.3317 5.56102C33.8747 6.09542 34.3989 6.64857 34.9512 7.17359C35.1009 7.31422 35.3256 7.41736 35.5222 7.45487C36.2898 7.5955 37.0667 7.69862 37.8437 7.82987C38.6019 7.96113 39.0607 8.43928 39.1823 9.20806C39.304 9.98621 39.4164 10.7644 39.5568 11.5331C39.5942 11.7113 39.6878 11.9082 39.8189 12.0488C40.2682 12.5269 40.7643 12.9676 41.195 13.4551C41.5039 13.7926 41.7379 14.1958 42 14.5708C41.9719 14.7583 41.9719 14.9739 41.9719 15.1802ZM35.0073 25.84C35.3069 25.8681 35.4567 25.7087 35.569 25.4837C35.9154 24.7899 36.2711 24.1149 36.6174 23.4211C36.814 23.018 37.1136 22.718 37.5161 22.5211C38.2088 22.1742 38.8828 21.8179 39.5849 21.471C39.8844 21.321 39.978 21.1054 39.9312 20.7867C39.8189 20.1398 39.744 19.4835 39.6129 18.846C39.4725 18.1803 39.5381 17.5803 39.8844 16.9896C40.2121 16.4271 40.4742 15.8177 40.7924 15.2458C40.989 14.8989 40.9235 14.6458 40.6427 14.3739C40.1091 13.8676 39.6036 13.3239 39.07 12.8176C38.7236 12.4894 38.5364 12.0957 38.4709 11.6269C38.3586 10.8769 38.2275 10.1268 38.1246 9.36742C38.0777 9.05804 37.9186 8.89867 37.6097 8.85179C36.8608 8.73928 36.1119 8.60803 35.3537 8.5049C34.8856 8.43928 34.4925 8.25175 34.1555 7.90487C33.65 7.37047 33.1164 6.85484 32.5922 6.33919C32.2459 5.9923 32.1429 5.98291 31.7029 6.20792C31.0476 6.54544 30.3924 6.87358 29.7371 7.2111C29.3252 7.42673 28.9133 7.50173 28.4546 7.40797C27.7245 7.26734 26.9756 7.17358 26.2361 7.0517C25.8897 6.99545 25.6557 7.08922 25.4966 7.41736C25.1596 8.11113 24.7945 8.79553 24.4575 9.48931C24.2703 9.8737 23.9895 10.155 23.6057 10.3425C22.9317 10.68 22.2764 11.0175 21.6024 11.3644C21.1437 11.5988 21.1063 11.6644 21.1812 12.1894C21.2561 12.7238 21.3216 13.2582 21.4433 13.7832C21.6305 14.6083 21.565 15.3677 21.0969 16.1083C20.788 16.5958 20.5633 17.149 20.2919 17.6646C20.1234 17.9834 20.1608 18.2272 20.4229 18.4803C20.9846 19.0147 21.5182 19.5772 22.0611 20.121C22.3513 20.4116 22.5292 20.7492 22.5947 21.1617C22.707 21.9492 22.8474 22.7367 22.9691 23.5243C23.0159 23.8336 23.1751 24.0024 23.484 24.0493C24.0175 24.1243 24.5418 24.2462 25.0753 24.293C25.9927 24.3587 26.7603 24.6868 27.3501 25.4181C27.687 25.8306 28.1176 26.1775 28.4827 26.5713C28.7448 26.8525 29.007 26.9088 29.3533 26.7213C30.0179 26.3556 30.6919 25.9994 31.3846 25.6994C31.7216 25.5587 32.1335 25.465 32.4892 25.5025C33.3504 25.54 34.1836 25.7087 35.0073 25.84Z"
        fill="#1F1F1F" stroke="#1F1F1F" stroke-width="0.6" stroke-miterlimit="10" />
    <path
        d="M25.3187 40.9999C24.8226 40.6062 24.3265 40.2312 23.8397 39.828C23.2967 39.378 22.7725 38.9186 22.2577 38.4405C21.8551 38.0654 21.3965 37.9154 20.8535 37.9154C16.8189 37.9248 12.775 37.9248 8.74041 37.9154C7.46732 37.9154 6.45634 37.1935 6.11935 36.0404C6.04446 35.7779 6.00702 35.4872 6.00702 35.2059C5.99766 31.8683 5.99766 28.5213 6.00702 25.1837C6.00702 23.6086 7.13034 22.4835 8.70299 22.4648C9.30209 22.4554 9.90117 22.4554 10.4909 22.4648C10.8747 22.4648 11.1087 22.6711 11.1181 22.9805C11.1181 23.2898 10.8841 23.5055 10.5097 23.5148C9.91055 23.5242 9.31144 23.5148 8.7217 23.5242C7.72944 23.5336 7.06482 24.1899 7.06482 25.1743C7.06482 28.5119 7.06482 31.8589 7.06482 35.1966C7.06482 36.2091 7.72943 36.856 8.74978 36.856C12.7563 36.856 16.7534 36.8654 20.7599 36.8466C21.6492 36.8466 22.3981 37.0998 23.0534 37.7092C23.849 38.4498 24.6822 39.1436 25.5528 39.903C25.5715 39.7624 25.5902 39.678 25.5902 39.5936C25.5902 39.2374 25.5902 38.8905 25.5902 38.5342C25.5995 37.4935 26.2455 36.856 27.2939 36.8466C28.0896 36.8373 28.8852 36.8466 29.6809 36.8466C30.7668 36.8466 31.394 36.2185 31.4034 35.1216C31.4034 34.8872 31.394 34.6528 31.4315 34.4184C31.4689 34.1559 31.6467 34.0059 31.9182 34.0059C32.1803 33.9965 32.405 34.1278 32.4237 34.3903C32.5173 35.3184 32.4892 36.2279 31.8246 36.9779C31.3097 37.5592 30.6732 37.8873 29.8869 37.8967C29.0444 37.9061 28.2019 37.8967 27.3594 37.9061C26.8165 37.9061 26.648 38.0748 26.6386 38.6186C26.6386 38.9561 26.6199 39.303 26.6386 39.6405C26.676 40.2874 26.4327 40.7468 25.8149 40.9906C25.6464 40.9999 25.4872 40.9999 25.3187 40.9999Z"
        fill="#1F1F1F" stroke="#1F1F1F" stroke-width="0.6" stroke-miterlimit="10" />
    <path
        d="M15.5364 30.1432C15.5271 28.1088 17.1559 26.4493 19.1872 26.4306C21.2372 26.4118 22.9129 28.0525 22.9316 30.0964C22.9503 32.1308 21.2934 33.8184 19.2527 33.8277C17.2027 33.8371 15.5458 32.1964 15.5364 30.1432ZM16.5848 30.1151C16.5755 31.5777 17.7456 32.759 19.1966 32.7683C20.6662 32.7777 21.8644 31.5964 21.8738 30.1339C21.8832 28.6807 20.7037 27.49 19.2527 27.4806C17.7737 27.4712 16.5942 28.6432 16.5848 30.1151Z"
        fill="#1F1F1F" />
    <path
        d="M12.3444 32.7685C12.8592 32.7685 13.3085 32.7685 13.7672 32.7685C14.2165 32.7685 14.4506 32.956 14.4599 33.2935C14.4693 33.631 14.2259 33.8279 13.786 33.8279C13.1681 33.8279 12.5503 33.8279 11.9231 33.8279C11.4925 33.8279 11.2866 33.6404 11.2866 33.2091C11.2772 31.1465 11.2772 29.0839 11.2866 27.0307C11.2866 26.6463 11.4925 26.4213 11.8201 26.4307C12.1478 26.4307 12.335 26.6463 12.335 27.0495C12.335 28.8027 12.335 30.5652 12.335 32.3184C12.3443 32.4497 12.3444 32.5903 12.3444 32.7685Z"
        fill="#1F1F1F" />
    <path
        d="M25.0472 32.7685C25.5714 32.7685 26.0488 32.7685 26.5262 32.7685C26.9287 32.7779 27.1628 32.9841 27.1534 33.3123C27.144 33.631 26.9194 33.8186 26.5262 33.8186C25.8803 33.8186 25.2437 33.8279 24.5978 33.8186C24.186 33.8186 23.9894 33.6217 23.9894 33.2185C23.9894 31.1559 23.9894 29.0933 23.9894 27.0308C23.9894 26.6464 24.1953 26.4214 24.5136 26.4214C24.8319 26.4214 25.0378 26.6464 25.0378 27.0308C25.0378 28.8027 25.0378 30.5653 25.0378 32.3372C25.0472 32.4685 25.0472 32.5998 25.0472 32.7685Z"
        fill="#1F1F1F" />
    <path
        d="M16.585 30.115C16.5943 28.6431 17.7738 27.4712 19.2528 27.4805C20.7038 27.4899 21.8833 28.6806 21.8739 30.1338C21.8645 31.5964 20.6664 32.7777 19.1967 32.7683C17.7457 32.7589 16.585 31.5776 16.585 30.115Z"
        fill="url(#paint0_linear_778_96574)" />
    <path
        d="M30.589 18.9772C28.8197 18.9866 27.6402 17.4209 28.0989 15.7428C28.2674 15.124 28.5951 14.6083 29.0818 14.1958C29.7184 13.6427 30.4392 13.5677 31.1506 14.0177C31.8714 14.4771 32.4705 15.0677 32.9292 15.7896C33.4253 16.5678 33.3411 17.2991 32.7233 17.9741C32.1335 18.6022 31.394 18.9397 30.589 18.9772ZM30.589 17.9178C31.1319 17.8803 31.6374 17.6272 32.0305 17.1491C32.2271 16.9147 32.2646 16.624 32.068 16.4084C31.5906 15.8834 31.0851 15.3865 30.5609 14.9083C30.3268 14.6927 30.0367 14.7583 29.7933 14.9646C29.3627 15.3302 29.1006 15.7896 29.0538 16.3521C28.9789 17.2147 29.6435 17.9272 30.589 17.9178Z"
        fill="#1F1F1F" stroke="#1F1F1F" stroke-width="0.6" />
    <path
        d="M30.589 17.9178C29.6436 17.9272 28.979 17.2147 29.0538 16.3427C29.1006 15.7802 29.3628 15.3208 29.7934 14.9552C30.0368 14.749 30.3269 14.6833 30.5609 14.899C31.0852 15.3771 31.5907 15.8834 32.0681 16.399C32.274 16.6146 32.2272 16.9053 32.0306 17.1397C31.6375 17.6272 31.1413 17.8897 30.589 17.9178Z"
        fill="url(#paint1_linear_778_96574)" stroke="url(#paint2_linear_778_96574)"
        stroke-width="0.25" stroke-miterlimit="10" />
    <defs>
        <linearGradient id="paint0_linear_778_96574" x1="16.5881" y1="30.1277" x2="21.8765"
            y2="30.1277" gradientUnits="userSpaceOnUse">
            <stop stop-color="#FF7304" />
            <stop offset="1" stop-color="#FB2A77" />
        </linearGradient>
        <linearGradient id="paint1_linear_778_96574" x1="29.0519" y1="16.3445" x2="32.2016"
            y2="16.3445" gradientUnits="userSpaceOnUse">
            <stop stop-color="#FF7304" />
            <stop offset="1" stop-color="#FB2A77" />
        </linearGradient>
        <linearGradient id="paint2_linear_778_96574" x1="28.9349" y1="16.3445" x2="32.3186"
            y2="16.3445" gradientUnits="userSpaceOnUse">
            <stop stop-color="#FF7304" />
            <stop offset="1" stop-color="#FB2A77" />
        </linearGradient>
    </defs>
</svg>
