<svg width="48" height="48" viewBox="0 0 48 48" fill="none" xmlns="http://www.w3.org/2000/svg">
    <path
        d="M24 29.5248L28.3301 27.0048L34.1228 37.118C34.2062 37.2637 34.0846 37.4423 33.9192 37.4169L31.1651 36.9941L30.1513 39.6097C30.0904 39.7668 29.8761 39.7837 29.7927 39.638L24 29.5248Z"
        fill="url(#paint0_linear_5798_583)" stroke="#1F1F1F" stroke-width="1.6" />
    <path
        d="M25.3301 29.5248L21 27.0048L15.2073 37.118C15.1238 37.2637 15.2455 37.4423 15.4109 37.4169L18.165 36.9941L19.1788 39.6097C19.2397 39.7668 19.454 39.7837 19.5374 39.638L25.3301 29.5248Z"
        fill="url(#paint1_linear_5798_583)" stroke="#1F1F1F" stroke-width="1.6" />
    <path
        d="M17.6075 9.6727C17.8799 9.76084 18.0749 9.80846 18.2578 9.88647C18.7874 10.1134 19.3051 10.3687 19.8397 10.5825C20.9805 11.0374 21.6167 10.8662 22.3785 9.89761C22.7594 9.41333 23.0931 8.89056 23.476 8.40729C23.9102 7.8602 24.1062 7.86628 24.5535 8.41337C24.7836 8.69604 24.9877 8.99998 25.2017 9.29581C25.3123 9.44879 25.4158 9.60786 25.5294 9.7578C26.3746 10.8814 27.044 11.0668 28.3315 10.5237C28.8511 10.3049 29.3556 10.0506 29.8783 9.83986C30.4893 9.59367 30.6622 9.69093 30.7617 10.3495C30.8421 10.8854 30.8833 11.4285 30.9326 11.9685C31.0602 13.3838 31.6612 13.9917 33.0673 14.1234C33.604 14.174 34.1417 14.2146 34.6734 14.2956C35.3307 14.3949 35.4192 14.5601 35.185 15.1841C35.0694 15.4901 34.9277 15.7859 34.795 16.0858C34.7237 16.2469 34.6483 16.407 34.5769 16.5681C33.9266 18.0422 34.1146 18.7402 35.4121 19.6794C35.7378 19.9155 36.0704 20.1414 36.389 20.3856C37.2072 21.0127 37.2051 21.1951 36.374 21.8293C36.0745 22.0583 35.7639 22.271 35.4573 22.4909C34.1045 23.4564 33.9186 24.1534 34.601 25.6873C34.8061 26.1473 35.0242 26.6032 35.2021 27.0743C35.4151 27.6366 35.3237 27.7966 34.7277 27.8969C34.2342 27.98 33.7327 28.0124 33.2352 28.0712C32.999 28.0996 32.7628 28.131 32.5286 28.1715C31.6502 28.3214 31.1597 28.8706 31.019 29.7317C30.9175 30.3538 30.8662 30.984 30.7929 31.6101C30.7868 31.6607 30.7838 31.7104 30.7768 31.761C30.6682 32.5199 30.4763 32.6354 29.7838 32.3375C29.2772 32.1197 28.7858 31.8674 28.2752 31.6597C27.0229 31.1501 26.3867 31.3284 25.5646 32.4074C25.2058 32.8775 24.8811 33.376 24.5103 33.8359C24.1092 34.3334 23.9173 34.3283 23.5092 33.838C23.26 33.5391 23.0419 33.2129 22.8107 32.8988C22.6841 32.7265 22.5645 32.5482 22.4328 32.379C21.6207 31.3355 21.0036 31.1592 19.7804 31.6476C19.2458 31.8613 18.7302 32.1227 18.1965 32.3395C17.506 32.6202 17.3392 32.5148 17.2457 31.761C17.1854 31.2727 17.1392 30.7823 17.0909 30.292C16.9412 28.7703 16.3974 28.2262 14.8959 28.0753C14.323 28.0175 13.7481 27.9618 13.1832 27.8605C12.7008 27.7733 12.6285 27.6366 12.7943 27.1766C12.9601 26.7156 13.1641 26.2668 13.3662 25.82C14.135 24.119 13.9632 23.4827 12.4425 22.3966C12.0345 22.1049 11.6264 21.809 11.2495 21.4787C10.9188 21.19 10.9158 21.0168 11.2465 20.7331C11.6837 20.3572 12.1551 20.0208 12.6204 19.6784C13.9179 18.724 14.0978 18.0493 13.4466 16.564C13.2194 16.0453 12.9822 15.5286 12.7873 14.9977C12.6345 14.5813 12.7149 14.4294 13.142 14.3544C13.733 14.251 14.332 14.1872 14.93 14.1305C16.3773 13.9937 16.9663 13.3929 17.0979 11.9249C17.1532 11.3099 17.2306 10.696 17.3311 10.0871C17.3562 9.93814 17.512 9.81048 17.6075 9.6727Z"
        fill="white" stroke="#1F1F1F" stroke-width="1.6" />
    <path
        d="M23.9728 28.0128C20.096 27.9923 16.9826 24.8291 17.0001 20.9287C17.0176 17.0214 20.1524 13.8866 24.0272 13.9013C27.9001 13.915 31.0193 17.0831 30.9999 20.9835C30.9815 24.8907 27.8398 28.0324 23.9728 28.0128Z"
        fill="white" stroke="#1F1F1F" stroke-width="1.6" />
    <path
        d="M23.7145 16.8029C23.8038 16.5256 24.1962 16.5256 24.2855 16.8029L25.0555 19.1916C25.0955 19.3156 25.2108 19.3996 25.3411 19.3996H27.8379C28.1279 19.3996 28.2491 19.7703 28.0151 19.9416L25.9911 21.4239C25.8868 21.5003 25.8431 21.6349 25.8828 21.758L26.655 24.1534C26.7442 24.4302 26.4268 24.6593 26.1922 24.4875L24.1773 23.0119C24.0717 22.9346 23.9283 22.9346 23.8227 23.0119L21.8078 24.4875C21.5732 24.6593 21.2558 24.4302 21.345 24.1534L22.1172 21.758C22.1569 21.6349 22.1132 21.5003 22.0089 21.4239L19.9849 19.9416C19.7509 19.7703 19.8721 19.3996 20.1621 19.3996H22.6589C22.7892 19.3996 22.9045 19.3156 22.9445 19.1916L23.7145 16.8029Z"
        fill="url(#paint2_linear_5798_583)" stroke="#1F1F1F" stroke-width="1.4" />
    <defs>
        <linearGradient id="paint0_linear_5798_583" x1="27.0058" y1="34.7625" x2="31.3509"
            y2="32.2736" gradientUnits="userSpaceOnUse">
            <stop stop-color="#FF7304" />
            <stop offset="1" stop-color="#FB2A77" />
        </linearGradient>
        <linearGradient id="paint1_linear_5798_583" x1="22.3243" y1="34.7625" x2="17.9792"
            y2="32.2736" gradientUnits="userSpaceOnUse">
            <stop stop-color="#FF7304" />
            <stop offset="1" stop-color="#FB2A77" />
        </linearGradient>
        <linearGradient id="paint2_linear_5798_583" x1="19.0099" y1="20.9595" x2="29.0051"
            y2="20.9595" gradientUnits="userSpaceOnUse">
            <stop stop-color="#FF7304" />
            <stop offset="1" stop-color="#FB2A77" />
        </linearGradient>
    </defs>
</svg>
