<svg width="48" height="48" viewBox="0 0 48 48" fill="none" xmlns="http://www.w3.org/2000/svg">
    <g clip-path="url(#clip0_5322_3510)">
        <path
            d="M14.5146 11.9792C14.6818 11.9963 16.9004 11.9443 17.2981 12.3793C17.6957 12.8143 20.9631 13.274 21.8759 13.2881C22.7887 13.3023 23.8053 12.8569 24.1396 13.2881C24.4739 13.7194 26.0644 15.7016 26.148 15.9173C26.2315 16.1329 26.0222 17.6877 25.855 17.9232C25.6879 18.1587 24.8091 18.1587 24.0974 18.0291C23.3857 17.8995 22.6032 17.9184 22.4233 18.1161C22.2433 18.3138 21.3855 18.9011 21.5444 19.1933C21.7033 19.4855 21.0898 21.1595 21.5086 21.7628C21.8034 22.1875 22.4012 23.0557 21.1266 24.1461C21.0081 24.2473 20.5324 26.2428 20.6206 26.5539C20.7087 26.8651 20.6665 27.5545 20.5407 28.0283C20.4149 28.5021 16.816 27.7266 16.816 27.7266L15.7277 23.8482L15.2254 21.4347L16.062 17.9241L15.6855 15.2884L14.0536 14.5034L13.8865 13.117L14.5146 11.9802V11.9792Z"
            fill="white" />
        <path
            d="M12.0857 36.0803C12.1417 36.7594 12.4163 37.3363 12.925 37.7874C12.9654 37.8233 12.9976 37.8819 13.0123 37.9358C13.1454 38.4333 13.2905 38.9289 13.3906 39.4339C13.4136 39.5502 13.3025 39.7299 13.2014 39.8197C13.1601 39.8557 12.9186 39.7611 12.8773 39.6713C12.3878 38.6243 11.8882 37.5774 11.7138 36.4113C11.6678 36.104 11.6954 36.086 12.0857 36.0803Z"
            fill="white" />
        <path
            d="M16.7434 25.5222C16.8472 26.1766 16.94 26.7885 17.0502 27.3985C17.0603 27.4562 17.1741 27.5233 17.2476 27.5356C18.1044 27.6746 18.963 27.8042 19.8602 27.9423C19.8887 27.7787 19.9135 27.633 19.9401 27.4883C20.0099 27.1081 20.2524 26.9076 20.5839 26.954C20.9099 26.9994 21.0926 27.2623 21.0366 27.6548C20.8006 29.2975 20.5692 30.9402 20.3001 32.5773C20.2643 32.7977 20.0558 33.0265 19.8703 33.176C18.052 34.6485 16.2255 36.1096 14.3916 37.5613C14.1859 37.724 14.1262 37.8611 14.2098 38.1165C14.3301 38.4834 14.4182 38.8626 14.5 39.2419C14.6515 39.9483 14.286 40.6416 13.6423 40.8997C13.0003 41.157 12.2381 40.9083 11.9231 40.2689C11.3538 39.1142 10.8331 37.9349 10.6155 36.6421C10.4401 35.598 10.9883 34.9066 12.0205 34.9142C12.2583 34.9161 12.3933 34.8414 12.5201 34.6447C12.8249 34.1737 13.1693 33.7302 13.4659 33.2544C14.1372 32.1782 15.0859 31.4377 16.1649 30.8561C16.4046 30.7275 16.4505 30.5856 16.4073 30.3293C16.107 28.5551 15.8214 26.7781 15.5248 25.0029C15.5028 24.8686 15.4679 24.7069 15.3806 24.6199C14.6212 23.8605 14.5909 22.9375 14.7975 21.9605C14.848 21.7203 14.904 21.4716 15.0096 21.2541C15.2484 20.7623 15.2925 20.2535 15.2594 19.7144C15.1749 18.362 15.1152 17.0077 15.0436 15.6005C14.5743 15.6837 14.1189 15.7215 13.6882 15.8483C12.5219 16.1906 11.3823 15.993 10.2353 15.7546C9.61907 15.627 8.9992 15.522 8.37933 15.4142C7.61712 15.2818 7.07715 14.7446 7.01011 14.0429C6.94215 13.3269 7.32877 12.6337 7.98721 12.4398C8.31321 12.3434 8.68697 12.3547 9.0295 12.3973C10.0286 12.5202 11.0214 12.6895 12.0187 12.8257C12.1784 12.8475 12.3621 12.8342 12.51 12.7737C13.3915 12.4124 14.2612 12.0228 15.1446 11.6672C15.3696 11.5764 15.6295 11.5338 15.8719 11.5386C16.3284 11.548 16.7866 11.5934 17.2402 11.6502C17.5966 11.6946 17.8087 11.9566 17.7821 12.2583C17.7527 12.5921 17.4643 12.8134 17.0896 12.786C16.8729 12.7699 16.6488 12.7765 16.4413 12.7207C15.7333 12.5306 15.152 12.8938 14.5496 13.1567C14.4752 13.1889 14.3916 13.3024 14.3879 13.3827C14.3705 13.7459 14.3806 14.11 14.3806 14.5337C14.6947 14.4807 14.9711 14.4391 15.2456 14.3871C15.8692 14.2689 16.1144 14.4826 16.1447 15.1352C16.2227 16.8318 16.3228 18.5275 16.388 20.2242C16.4 20.5391 16.3045 20.8635 16.2301 21.1756C16.0979 21.7326 15.9151 22.2773 15.8077 22.8391C15.7287 23.2514 15.9032 23.6383 16.242 23.852C16.7434 24.1688 17.266 24.4809 17.8188 24.6757C18.4625 24.9027 19.1485 25.0058 19.8189 25.1495C19.8988 25.1666 20.0338 25.1353 20.0788 25.0748C20.6325 24.3277 21.1734 23.5711 21.741 22.7852C21.4315 22.6377 21.1551 22.5024 20.8768 22.3729C20.4238 22.1617 20.1911 21.813 20.1789 21.3269C19.3294 21.1756 18.4754 21.0195 17.6204 20.8729C17.3514 20.8266 17.1319 20.7216 17.0529 20.437C16.939 20.0256 17.2549 19.669 17.7012 19.7362C18.4818 19.8525 19.2569 20.001 20.0347 20.1353C20.1679 20.158 20.3029 20.1769 20.4608 20.2015C20.5187 19.9329 20.5701 19.6813 20.627 19.4316C20.7179 19.0354 20.9824 18.832 21.3112 18.9001C21.6197 18.9644 21.7887 19.2529 21.7171 19.6388C21.6133 20.193 21.4912 20.7434 21.3709 21.3231C21.4416 21.3628 21.515 21.4111 21.5931 21.4479C22.1542 21.7118 22.7061 22.004 23.281 22.2291C24.7117 22.7899 25.9469 23.6543 27.0985 24.6814C28.0416 25.5231 29.038 26.3005 30.0031 27.1157C30.1647 27.2519 30.2722 27.2661 30.4421 27.1289C30.9187 26.7431 31.4082 26.3724 31.8985 26.0045C32.5028 25.5505 33.2219 25.5893 33.7132 26.0924C34.1934 26.5852 34.2623 27.3276 33.827 27.93C33.1989 28.8001 32.5423 29.6484 31.8829 30.4939C31.6983 30.7312 31.4642 30.9289 31.2465 31.1379C30.4384 31.9106 29.6229 31.5815 29.2106 30.823C28.9755 30.3908 28.6569 30.1647 28.2179 29.9936C26.7366 29.4157 25.3013 28.7414 24.1286 27.598C24.0707 27.5413 23.9945 27.4949 23.956 27.4269C23.4849 26.5946 22.7116 26.5577 21.8943 26.5246C20.4406 26.465 19.0025 26.256 17.6039 25.821C17.3321 25.7368 17.0667 25.6328 16.7444 25.5193L16.7434 25.5222ZM13.5633 36.782C14.9288 35.6888 16.2797 34.6078 17.6691 33.4956C17.2265 33.0502 16.8233 32.6322 16.4027 32.235C16.343 32.1792 16.1686 32.182 16.0896 32.2302C15.4743 32.6085 14.9362 33.0757 14.5294 33.6961C14.1574 34.2626 13.7635 34.813 13.3787 35.371C13.0766 35.8079 13.139 36.3602 13.5633 36.783V36.782ZM26.0846 25.3283C25.6668 25.8021 25.2682 26.2541 24.8504 26.728C25.0175 26.8783 25.1654 27.024 25.3252 27.1535C26.4244 28.0501 27.7119 28.5684 28.9976 29.0942C29.2363 29.1916 29.4108 29.1821 29.5522 28.9476C29.6936 28.713 29.6817 28.3187 29.5054 28.1711C28.3777 27.2292 27.2463 26.292 26.0856 25.3273L26.0846 25.3283ZM17.2623 28.7036C17.3771 29.4119 17.4707 30.0503 17.5883 30.6849C17.6517 31.0273 17.6388 31.3289 17.3927 31.5058C17.794 31.9323 18.1815 32.3428 18.6131 32.8005C18.8198 32.5679 19.1669 32.356 19.2275 32.078C19.4387 31.1067 19.5517 30.1118 19.7078 29.0819C18.896 28.9561 18.1108 28.835 17.2614 28.7036H17.2623ZM22.7842 23.26C22.2828 23.9551 21.8006 24.6237 21.2689 25.3604C21.9274 25.3954 22.516 25.4408 23.1056 25.4541C23.4876 25.4626 23.8669 25.438 24.0845 25.8881C24.4831 25.4351 24.8431 25.0266 25.2076 24.6133C24.5097 23.9154 23.5905 23.7139 22.7833 23.26H22.7842ZM13.2795 13.7998C12.824 13.8726 12.4218 14.0098 12.0306 13.9833C11.3253 13.935 10.6265 13.7875 9.92487 13.6844C9.46112 13.6163 8.99644 13.5482 8.53085 13.4915C8.30127 13.4631 8.11761 13.5946 8.12587 13.8159C8.13138 13.9596 8.29117 14.1081 8.40413 14.233C8.44912 14.2831 8.55381 14.2783 8.63279 14.2925C9.36377 14.4287 10.0948 14.564 10.8257 14.6992C11.2197 14.772 11.6128 14.8978 12.0067 14.9025C12.4089 14.9073 12.813 14.7928 13.2161 14.7295C13.2382 14.4051 13.2593 14.0816 13.2786 13.7998H13.2795ZM30.3098 30.4475C30.443 30.3397 30.5495 30.2811 30.6193 30.1922C31.3925 29.219 32.1639 28.244 32.9225 27.2585C32.9767 27.1885 32.9243 27.0306 32.9216 26.9143C32.7994 26.919 32.6442 26.8755 32.5607 26.937C32.0014 27.3446 31.4541 27.7711 30.9113 28.2014C30.8425 28.2563 30.7782 28.3716 30.7782 28.4586C30.7773 29.1084 30.5504 29.6465 30.0408 30.0664C30.1317 30.195 30.2097 30.3057 30.3098 30.4475ZM12.0857 36.0803C11.6954 36.086 11.6679 36.1039 11.7138 36.4113C11.8873 37.5774 12.3878 38.6243 12.8773 39.6712C12.9186 39.7601 13.161 39.8557 13.2015 39.8197C13.3025 39.7299 13.4136 39.5502 13.3906 39.4339C13.2905 38.9288 13.1454 38.4333 13.0123 37.9358C12.9976 37.8819 12.9654 37.8233 12.925 37.7873C12.4154 37.3362 12.1417 36.7593 12.0857 36.0803Z"
            fill="#1F1F1F" />
        <path
            d="M21.9724 15.3422C22.1882 15.2013 22.3902 15.0207 22.6244 14.9271C23.0487 14.7578 23.4931 14.6396 23.9532 14.493C23.821 14.1951 23.6713 13.9605 23.3407 13.8934C23.1405 13.8527 22.9412 13.7856 22.753 13.7042C22.4747 13.5851 22.3489 13.2777 22.4444 13.0053C22.5445 12.7197 22.8136 12.5533 23.0973 12.6308C23.4619 12.7301 23.8265 12.8361 24.1773 12.9751C24.315 13.0299 24.4418 13.1633 24.5299 13.2928C25.148 14.2008 25.7614 15.1115 26.3611 16.0307C26.9038 16.862 26.8661 17.8692 26.2885 18.6362C25.7293 19.3786 24.788 19.6605 23.8797 19.3285C22.3939 18.7857 20.9117 18.2334 19.4323 17.6716C18.6526 17.3756 18.2807 16.5878 18.5323 15.8236C18.7904 15.0368 19.5471 14.6594 20.3607 14.9186C20.8842 15.085 21.4049 15.2619 21.9274 15.433C21.9485 15.4397 21.9724 15.4406 21.9953 15.4444C21.988 15.4103 21.9807 15.3763 21.9733 15.3422H21.9724ZM23.3646 15.8785C23.4031 15.94 23.4178 15.9721 23.4399 15.9957C23.6447 16.218 23.7034 16.4648 23.5335 16.7325C23.3627 17.0011 23.1093 17.0351 22.8356 16.9453C21.9118 16.6398 20.9907 16.3268 20.0687 16.0175C19.8657 15.9494 19.6692 15.9371 19.5903 16.1925C19.5186 16.4232 19.6619 16.5405 19.8529 16.6114C21.3231 17.1599 22.7915 17.7132 24.2645 18.2542C24.7099 18.4178 25.1415 18.2806 25.4078 17.9345C25.6953 17.5609 25.7173 17.1127 25.4492 16.6861C25.226 16.3305 24.9946 15.9787 24.7448 15.6411C24.6915 15.5702 24.5354 15.5248 24.4454 15.5475C24.0919 15.6364 23.7457 15.7574 23.3646 15.8766V15.8785Z"
            fill="#1F1F1F" />
        <path
            d="M40 19.3797C40.0037 21.239 38.5325 22.7654 36.7335 22.7701C34.9355 22.7749 33.4588 21.2626 33.4432 19.3995C33.4276 17.545 34.9033 15.9996 36.6959 15.9959C38.5252 15.9921 39.9973 17.4996 40.0009 19.3787L40 19.3797ZM36.7308 21.6069C37.9393 21.5984 38.9146 20.5855 38.9008 19.3532C38.887 18.1427 37.8915 17.1336 36.7152 17.1383C35.5131 17.143 34.5525 18.1531 34.5599 19.4052C34.5672 20.6394 35.5287 21.6154 36.7299 21.6069H36.7308Z"
            fill="#1F1F1F" />
        <path
            d="M17.8463 10.0784C17.8408 9.46552 17.9611 8.88295 18.2605 8.3505C18.7665 7.45206 19.5085 6.94514 20.5389 7.00473C21.5206 7.06147 22.1992 7.60905 22.618 8.5056C23.2626 9.88732 22.9201 11.793 21.8475 12.8531C20.9503 13.7402 19.7574 13.7393 18.8785 12.8361C18.1402 12.0776 17.8546 11.131 17.8463 10.0784ZM21.8401 10.0074C21.8245 9.86935 21.8126 9.6802 21.7804 9.49578C21.6455 8.72217 21.1073 8.17081 20.4553 8.13204C19.8391 8.09515 19.2587 8.56518 19.0613 9.31799C18.8143 10.259 18.9594 11.1451 19.5627 11.9102C20.054 12.5335 20.6463 12.5325 21.1642 11.9367C21.628 11.4043 21.8052 10.7564 21.8401 10.0084V10.0074Z"
            fill="#1F1F1F" />
        <path
            d="M13.5633 36.782C13.139 36.3593 13.0766 35.807 13.3787 35.3701C13.7635 34.813 14.1574 34.2617 14.5293 33.6952C14.9371 33.0757 15.4752 32.6085 16.0896 32.2293C16.1686 32.181 16.343 32.1782 16.4027 32.234C16.8242 32.6312 17.2274 33.0492 17.6691 33.4947C16.2797 34.6068 14.9288 35.6878 13.5633 36.7811V36.782Z"
            fill="url(#paint0_linear_5322_3510)" />
        <path
            d="M26.0846 25.3282C27.2454 26.2929 28.3768 27.2301 29.5045 28.1721C29.6808 28.3196 29.6927 28.714 29.5513 28.9485C29.4099 29.183 29.2354 29.1925 28.9966 29.0951C27.7119 28.5693 26.4244 28.0501 25.3243 27.1545C25.1645 27.0239 25.0166 26.8792 24.8495 26.7289C25.2673 26.256 25.6659 25.803 26.0837 25.3292L26.0846 25.3282Z"
            fill="url(#paint1_linear_5322_3510)" />
        <path
            d="M17.2623 28.7036C18.1117 28.8351 18.8969 28.9561 19.7087 29.0819C19.5517 30.1118 19.4396 31.1067 19.2284 32.078C19.1678 32.356 18.8207 32.5679 18.6141 32.8005C18.1825 32.3428 17.7949 31.9314 17.3936 31.5058C17.6397 31.328 17.6526 31.0263 17.5892 30.6849C17.4708 30.0513 17.378 29.412 17.2632 28.7036H17.2623Z"
            fill="white" />
        <path
            d="M22.7842 23.26C23.5914 23.713 24.5106 23.9154 25.2086 24.6134C24.844 25.0276 24.4849 25.4352 24.0855 25.8882C23.8678 25.438 23.4885 25.4626 23.1065 25.4541C22.517 25.4409 21.9283 25.3955 21.2699 25.3605C21.8007 24.6238 22.2837 23.9551 22.7851 23.26H22.7842Z"
            fill="white" />
        <path
            d="M13.2804 13.7998C13.2611 14.0816 13.24 14.4051 13.218 14.7295C12.8148 14.7919 12.4108 14.9063 12.0086 14.9025C11.6146 14.8978 11.2206 14.772 10.8276 14.6992C10.0966 14.564 9.36561 14.4287 8.63463 14.2925C8.55565 14.2783 8.45096 14.2831 8.40596 14.233C8.29301 14.1081 8.13322 13.9596 8.12771 13.8159C8.11944 13.5946 8.30311 13.4631 8.53269 13.4915C8.99828 13.5482 9.46204 13.6163 9.92671 13.6844C10.6283 13.7875 11.3272 13.935 12.0324 13.9833C12.4236 14.0098 12.8259 13.8726 13.2813 13.7998H13.2804Z"
            fill="url(#paint2_linear_5322_3510)" />
        <path
            d="M30.3108 30.4475C30.2107 30.3047 30.1326 30.195 30.0417 30.0663C30.5514 29.6464 30.7782 29.1083 30.7791 28.4586C30.7791 28.3716 30.8425 28.2562 30.9123 28.2014C31.455 27.771 32.0023 27.3445 32.5616 26.9369C32.6451 26.8764 32.8003 26.9189 32.9225 26.9142C32.9252 27.0315 32.9776 27.1885 32.9234 27.2585C32.1649 28.2439 31.3935 29.219 30.6202 30.1921C30.5495 30.281 30.4439 30.3387 30.3108 30.4475Z"
            fill="white" />
        <path
            d="M23.3646 15.8785C23.7448 15.7594 24.091 15.6383 24.4454 15.5494C24.5354 15.5267 24.6925 15.5712 24.7448 15.643C24.9946 15.9797 25.226 16.3315 25.4492 16.6881C25.7173 17.1146 25.6953 17.5629 25.4078 17.9364C25.1415 18.2826 24.7099 18.4197 24.2645 18.2561C22.7915 17.7161 21.3231 17.1619 19.8529 16.6134C19.661 16.5415 19.5186 16.4252 19.5903 16.1944C19.6692 15.9391 19.8667 15.9514 20.0687 16.0194C20.9907 16.3287 21.9127 16.6417 22.8356 16.9472C23.1084 17.0371 23.3627 17.004 23.5335 16.7344C23.7034 16.4668 23.6447 16.2199 23.4399 15.9977C23.4178 15.9741 23.4041 15.9419 23.3646 15.8804V15.8785Z"
            fill="url(#paint3_linear_5322_3510)" />
        <path
            d="M36.7308 21.6068C35.5296 21.6153 34.5681 20.6393 34.5608 19.4051C34.5534 18.153 35.514 17.1439 36.7161 17.1382C37.8925 17.1335 38.8879 18.1426 38.9017 19.3531C38.9155 20.5854 37.9402 21.5983 36.7317 21.6068H36.7308Z"
            fill="url(#paint4_linear_5322_3510)" />
        <path
            d="M21.8401 10.0074C21.8052 10.7564 21.628 11.4033 21.1642 11.9357C20.6463 12.5306 20.054 12.5315 19.5627 11.9093C18.9593 11.1442 18.8133 10.258 19.0613 9.317C19.2587 8.5642 19.8391 8.09417 20.4553 8.13105C21.1064 8.17077 21.6454 8.72119 21.7804 9.4948C21.8126 9.67921 21.8245 9.86836 21.8401 10.0064V10.0074Z"
            fill="white" />
    </g>
    <defs>
        <linearGradient id="paint0_linear_5322_3510" x1="13.1951" y1="34.4885" x2="17.6714"
            y2="34.4885" gradientUnits="userSpaceOnUse">
            <stop stop-color="#FF7304" />
            <stop offset="1" stop-color="#FB2A77" />
        </linearGradient>
        <linearGradient id="paint1_linear_5322_3510" x1="24.8542" y1="27.2417" x2="29.6505"
            y2="27.2417" gradientUnits="userSpaceOnUse">
            <stop stop-color="#FF7304" />
            <stop offset="1" stop-color="#FB2A77" />
        </linearGradient>
        <linearGradient id="paint2_linear_5322_3510" x1="8.13253" y1="14.1955" x2="13.284"
            y2="14.1955" gradientUnits="userSpaceOnUse">
            <stop stop-color="#FF7304" />
            <stop offset="1" stop-color="#FB2A77" />
        </linearGradient>
        <linearGradient id="paint3_linear_5322_3510" x1="19.5774" y1="16.9348" x2="25.6406"
            y2="16.9348" gradientUnits="userSpaceOnUse">
            <stop stop-color="#FF7304" />
            <stop offset="1" stop-color="#FB2A77" />
        </linearGradient>
        <linearGradient id="paint4_linear_5322_3510" x1="34.565" y1="19.3736" x2="38.904"
            y2="19.3736" gradientUnits="userSpaceOnUse">
            <stop stop-color="#FF7304" />
            <stop offset="1" stop-color="#FB2A77" />
        </linearGradient>
        <clipPath id="clip0_5322_3510">
            <rect width="33" height="34" fill="white" transform="translate(7 7)" />
        </clipPath>
    </defs>
</svg>
