<svg width="48" height="48" viewBox="0 0 48 48" fill="none" xmlns="http://www.w3.org/2000/svg">
    <g clip-path="url(#clip0_5322_3673)">
        <g clip-path="url(#clip1_5322_3673)">
            <path
                d="M19.5 12L17.5 14L17 16L16.5 18.5H29H32C31.6667 17.3333 31 14.8 31 14C31 13 28.5 11.5 27.5 11C26.7 10.6 24.5 10.5 23.5 10.5C22.5 10.6667 20.3 11.2 19.5 12Z"
                fill="white" stroke="#1F1F1F" stroke-width="0.1" />
            <path
                d="M24.67 4C24.95 4.12 25.25 4.2 25.49 4.35C26.25 4.84 26.62 5.56 26.55 6.46C26.48 7.36 26 8 25.19 8.36C24.94 8.47 24.85 8.59 24.87 8.85C24.89 9.16 24.87 9.47 24.87 9.82C27.32 10.04 29.39 10.98 30.92 12.93C32.43 14.86 32.81 17.11 32.7 19.45C33.22 19.52 33.7 19.59 34.18 19.63C34.27 19.64 34.38 19.55 34.46 19.48C35.27 18.67 36.09 17.87 36.89 17.05C36.98 16.96 37.05 16.79 37.05 16.66C37.07 16.03 37.27 15.47 37.66 14.99C37.79 14.83 37.77 14.72 37.66 14.57C37.31 14.08 36.97 13.58 36.63 13.08C36.53 12.93 36.39 12.78 36.38 12.62C36.35 11.68 36.33 10.74 36.35 9.81C36.35 9.67 36.56 9.42 36.69 9.4C37.15 9.33 37.63 9.3 38.1 9.34C38.23 9.35 38.43 9.69 38.41 9.86C38.39 10.05 38.18 10.25 38 10.36C37.86 10.45 37.64 10.41 37.41 10.44C37.41 11 37.4 11.55 37.42 12.1C37.42 12.19 37.48 12.29 37.53 12.37C37.88 12.89 38.23 13.42 38.6 13.92C38.66 14 38.84 14.07 38.92 14.04C39.66 13.79 40.38 13.82 41.14 14.12C41.56 13.51 42 12.9 42.39 12.26C42.49 12.1 42.44 11.84 42.45 11.63C42.46 11.24 42.45 10.85 42.45 10.43C42.27 10.42 42.11 10.42 41.95 10.39C41.64 10.34 41.45 10.17 41.44 9.84C41.43 9.52 41.62 9.29 41.97 9.27C42.29 9.25 42.63 9.26 42.95 9.3C43.31 9.35 43.55 9.61 43.56 9.97C43.59 10.77 43.59 11.58 43.55 12.38C43.54 12.6 43.39 12.83 43.26 13.02C42.88 13.61 42.47 14.19 42.06 14.78C42.53 15.35 42.81 15.99 42.81 16.75C42.8 18.28 41.61 19.54 40.08 19.64C39.89 19.65 39.67 19.75 39.53 19.88C38.55 20.84 37.58 21.81 36.61 22.79C36.51 22.89 36.39 23.02 36.37 23.15C36.16 24.65 34.74 26.03 32.87 25.84C32.83 25.84 32.8 25.84 32.71 25.85C32.7 25.98 32.69 26.11 32.69 26.24C32.69 27.61 32.68 28.99 32.69 30.36C32.7 31.09 32.49 31.69 31.86 32.11C31.79 32.16 31.74 32.29 31.75 32.38C31.85 33.28 31.66 34.1 31.1 34.83C31.04 34.9 30.99 35.01 31 35.1C31.09 35.91 31.19 36.72 31.28 37.53C31.55 37.56 31.79 37.58 32.03 37.61C33.12 37.79 33.98 38.75 34.02 39.86C34.04 40.36 34.03 40.87 34.02 41.37C34 42.1 33.46 42.67 32.73 42.68C30.66 42.69 28.6 42.69 26.53 42.68C25.81 42.68 25.27 42.13 25.24 41.42C25.22 40.94 25.23 40.46 25.24 39.98C25.26 39 25.72 38.28 26.59 37.83C26.79 37.73 26.86 37.62 26.83 37.4C26.74 36.8 26.68 36.2 26.61 35.6C26.6 35.49 26.58 35.35 26.51 35.29C25.66 34.51 25.32 33.54 25.44 32.37C24.65 32.37 23.89 32.37 23.08 32.37C23.08 32.5 23.08 32.63 23.08 32.76C23.11 33.75 22.74 34.57 22.02 35.25C21.89 35.38 21.78 35.57 21.75 35.75C21.66 36.32 21.6 36.9 21.55 37.47C21.54 37.57 21.63 37.73 21.72 37.77C22.7 38.29 23.16 39.1 23.14 40.2C23.13 40.58 23.15 40.96 23.14 41.33C23.12 42.11 22.57 42.67 21.79 42.67C19.75 42.68 17.71 42.68 15.67 42.67C14.93 42.67 14.38 42.15 14.34 41.4C14.31 40.89 14.31 40.37 14.35 39.85C14.45 38.55 15.37 37.65 16.68 37.55C16.8 37.54 16.93 37.53 17.09 37.53C17.2 36.66 17.31 35.81 17.4 34.95C17.41 34.86 17.36 34.76 17.3 34.68C16.84 33.98 16.65 33.22 16.77 32.38C16.78 32.29 16.72 32.14 16.64 32.08C16.1 31.7 15.87 31.18 15.87 30.53C15.88 29.08 15.87 27.63 15.87 26.19C15.87 26.08 15.86 25.97 15.85 25.88C15.44 25.85 15.04 25.86 14.67 25.78C13.38 25.48 12.58 24.66 12.23 23.37C12.17 23.13 12.03 22.89 11.86 22.71C10.92 21.74 9.96001 20.79 9.00001 19.85C8.89001 19.75 8.73001 19.65 8.59001 19.64C7.41001 19.56 6.52001 19.02 6.02001 17.94C5.53001 16.86 5.68001 15.83 6.42001 14.89C6.44001 14.86 6.46001 14.83 6.50001 14.76C6.11001 14.19 5.71001 13.62 5.33001 13.03C5.20001 12.83 5.04001 12.58 5.03001 12.33C4.99001 11.56 4.99001 10.77 5.02001 10C5.03001 9.58 5.31001 9.33 5.72001 9.29C5.99001 9.26 6.27001 9.25 6.55001 9.26C6.94001 9.28 7.16001 9.5 7.15001 9.84C7.14001 10.16 6.93001 10.36 6.56001 10.39C6.43001 10.41 6.31001 10.41 6.14001 10.41C6.14001 10.98 6.14001 11.55 6.14001 12.11C6.14001 12.18 6.18001 12.26 6.22001 12.32C6.62001 12.91 7.03001 13.5 7.44001 14.11C8.19001 13.81 8.94001 13.77 9.70001 14.05C9.77001 14.08 9.92001 14.02 9.97001 13.95C10.35 13.42 10.72 12.87 11.08 12.33C11.13 12.26 11.17 12.17 11.17 12.09C11.18 11.54 11.17 10.99 11.17 10.42C10.97 10.41 10.81 10.41 10.65 10.38C10.34 10.33 10.15 10.14 10.15 9.82C10.15 9.5 10.34 9.29 10.66 9.27C11.01 9.25 11.35 9.25 11.69 9.3C12.02 9.34 12.27 9.58 12.28 9.9C12.3 10.75 12.29 11.61 12.26 12.46C12.25 12.65 12.1 12.85 11.99 13.03C11.66 13.54 11.32 14.03 10.97 14.53C10.85 14.7 10.81 14.83 10.96 15.02C11.34 15.5 11.52 16.05 11.55 16.66C11.56 16.8 11.63 16.98 11.74 17.08C12.52 17.88 13.32 18.67 14.11 19.47C14.26 19.62 14.39 19.66 14.6 19.62C15 19.54 15.42 19.53 15.89 19.48C15.89 19.3 15.89 19.08 15.89 18.86C15.86 17.17 16.13 15.55 16.95 14.05C17.03 13.91 17.11 13.76 17.2 13.63C17.4 13.32 17.7 13.24 17.98 13.39C18.27 13.55 18.34 13.86 18.19 14.21C17.89 14.89 17.56 15.55 17.34 16.26C17.17 16.8 17.13 17.38 17.02 17.98C21.9 17.98 26.71 17.98 31.62 17.98C31.49 17.3 31.41 16.63 31.23 15.99C30.1 12.18 26.51 10.66 23.48 11C22.2 11.14 21.03 11.55 19.98 12.29C19.61 12.55 19.29 12.52 19.08 12.24C18.87 11.95 18.96 11.61 19.34 11.35C20.51 10.54 21.81 10.06 23.22 9.9C23.37 9.88 23.52 9.86 23.72 9.83C23.72 9.43 23.73 9.03 23.71 8.63C23.71 8.56 23.61 8.47 23.53 8.43C22.43 7.89 21.93 7.12 22.03 6.06C22.11 5.12 22.81 4.26 23.85 4.05C23.87 4.05 23.89 4.02 23.91 4.01C24.16 4 24.42 4 24.67 4ZM17.04 19.13C17.03 19.26 17.02 19.37 17.02 19.48C17.02 23.14 17.02 26.81 17.02 30.47C17.02 31.07 17.17 31.21 17.79 31.21C22.11 31.21 26.42 31.21 30.74 31.21C31.39 31.21 31.55 31.04 31.55 30.38C31.55 26.77 31.55 23.16 31.55 19.54C31.55 19.41 31.55 19.27 31.55 19.13C26.69 19.13 21.88 19.13 17.04 19.13ZM29.64 41.55C30.57 41.55 31.5 41.54 32.43 41.56C32.78 41.57 32.95 41.48 32.91 41.1C32.88 40.79 32.91 40.47 32.9 40.16C32.9 39.25 32.39 38.73 31.48 38.72C30.75 38.71 30.02 38.72 29.29 38.72C28.76 38.72 28.23 38.71 27.71 38.72C26.9 38.75 26.4 39.27 26.39 40.07C26.38 40.43 26.41 40.8 26.38 41.16C26.36 41.49 26.5 41.57 26.8 41.56C27.75 41.54 28.7 41.55 29.64 41.55ZM18.72 41.55C19.68 41.55 20.63 41.54 21.59 41.56C21.93 41.57 22.04 41.44 22.02 41.12C22 40.76 22.03 40.39 22.01 40.03C21.98 39.29 21.5 38.75 20.76 38.73C19.42 38.7 18.07 38.7 16.73 38.73C16 38.75 15.53 39.27 15.5 40C15.48 40.39 15.51 40.78 15.49 41.17C15.48 41.47 15.61 41.56 15.89 41.56C16.83 41.54 17.77 41.55 18.72 41.55ZM10.4 16.74C10.4 15.77 9.61001 15 8.64001 15.01C7.69001 15.02 6.92001 15.79 6.91001 16.75C6.91001 17.71 7.70001 18.51 8.66001 18.51C9.62001 18.5 10.4 17.71 10.4 16.74ZM38.19 16.75C38.19 17.72 38.97 18.51 39.94 18.5C40.88 18.5 41.67 17.71 41.68 16.77C41.69 15.8 40.92 15.01 39.95 15.01C38.96 15 38.19 15.77 38.19 16.75ZM15.88 20.75C15.11 20.49 14.25 20.78 13.74 21.44C13.22 22.12 13.18 23.05 13.63 23.78C14.07 24.47 14.97 24.88 15.68 24.7C15.76 24.68 15.87 24.56 15.87 24.48C15.88 23.23 15.88 21.99 15.88 20.75ZM32.7 20.74C32.7 21.98 32.7 23.22 32.71 24.45C32.71 24.54 32.85 24.68 32.94 24.7C33.72 24.84 34.54 24.45 34.97 23.75C35.4 23.05 35.35 22.14 34.86 21.48C34.36 20.8 33.56 20.52 32.7 20.74ZM26.57 32.35C26.59 32.73 26.57 33.08 26.65 33.41C26.89 34.43 27.98 35.09 29 34.88C30.05 34.66 30.79 33.65 30.62 32.63C30.6 32.53 30.47 32.37 30.39 32.37C29.15 32.35 27.91 32.35 26.57 32.35ZM17.99 32.35C17.72 33.08 18 33.95 18.64 34.46C19.33 35.01 20.26 35.06 21 34.6C21.68 34.17 22.11 33.25 21.92 32.56C21.9 32.47 21.76 32.36 21.67 32.36C20.45 32.35 19.21 32.35 17.99 32.35ZM10.28 19.37C10.91 20 11.65 20.74 12.37 21.46C12.64 21.08 12.94 20.65 13.2 20.29C12.52 19.6 11.84 18.92 11.28 18.37C10.95 18.69 10.6 19.04 10.28 19.37ZM35.33 20.2C35.66 20.67 35.95 21.08 36.22 21.46C36.95 20.73 37.7 19.99 38.3 19.39C37.98 19.04 37.63 18.67 37.29 18.3C37.3 18.26 37.23 18.32 37.16 18.39C36.54 19.01 35.93 19.61 35.33 20.2ZM23.16 6.28C23.16 6.9 23.67 7.4 24.29 7.41C24.92 7.41 25.44 6.89 25.43 6.26C25.42 5.65 24.89 5.14 24.29 5.15C23.67 5.15 23.16 5.67 23.16 6.28ZM18.24 37.54C18.98 37.54 19.67 37.54 20.39 37.54C20.45 37.03 20.51 36.55 20.56 36.12C19.86 36.02 19.17 35.93 18.46 35.83C18.39 36.34 18.32 36.92 18.24 37.54ZM30.14 37.54C30.07 36.95 30 36.38 29.95 35.89C29.23 35.95 28.54 36.01 27.83 36.07C27.89 36.52 27.95 37.03 28.01 37.53C28.73 37.54 29.42 37.54 30.14 37.54Z"
                fill="#1F1F1F" />
            <path
                d="M26.95 17.01C25.91 17.01 25.07 16.19 25.06 15.16C25.05 14.13 25.89 13.29 26.92 13.29C27.96 13.29 28.8 14.11 28.81 15.14C28.82 16.16 27.98 17 26.95 17.01ZM27.67 15.15C27.67 14.76 27.35 14.43 26.95 14.43C26.54 14.42 26.2 14.76 26.21 15.17C26.22 15.56 26.55 15.88 26.95 15.87C27.34 15.86 27.67 15.53 27.67 15.15Z"
                fill="#1F1F1F" />
            <path
                d="M21.66 17.01C20.62 17.01 19.78 16.18 19.78 15.15C19.78 14.13 20.61 13.3 21.63 13.29C22.67 13.28 23.52 14.1 23.53 15.13C23.54 16.15 22.7 17 21.66 17.01ZM22.38 15.13C22.37 14.74 22.04 14.42 21.64 14.43C21.23 14.43 20.9 14.77 20.93 15.18C20.95 15.58 21.28 15.88 21.68 15.87C22.07 15.85 22.39 15.51 22.38 15.13Z"
                fill="#1F1F1F" />
            <path
                d="M17.04 19.13C21.88 19.13 26.69 19.13 31.56 19.13C31.56 19.27 31.56 19.4 31.56 19.54C31.56 23.15 31.56 26.76 31.56 30.38C31.56 31.04 31.39 31.21 30.75 31.21C26.43 31.21 22.12 31.21 17.8 31.21C17.18 31.21 17.03 31.07 17.03 30.47C17.03 26.81 17.03 23.14 17.03 19.48C17.03 19.37 17.04 19.26 17.04 19.13ZM20.72 27.87C20.72 26.88 20.72 25.96 20.72 25.05C23.14 25.05 25.53 25.05 27.91 25.05C27.91 26 27.91 26.92 27.91 27.87C27.2 27.87 26.52 27.87 25.84 27.87C25.4 27.87 25.14 28.09 25.14 28.43C25.14 28.77 25.41 29 25.84 29C26.51 29 27.17 29.01 27.84 29C28.58 28.99 29.07 28.52 29.08 27.77C29.1 26.88 29.1 25.98 29.08 25.09C29.07 24.34 28.58 23.88 27.83 23.88C25.49 23.88 23.15 23.88 20.8 23.88C20.04 23.88 19.55 24.36 19.54 25.13C19.53 26 19.53 26.87 19.54 27.74C19.55 28.53 20.03 29.01 20.82 29.01C21.49 29.02 22.15 29.01 22.82 29.01C23.29 29.01 23.55 28.8 23.54 28.43C23.54 28.06 23.3 27.87 22.81 27.87C22.13 27.86 21.44 27.87 20.72 27.87ZM20.86 21.92C21.11 21.92 21.36 21.93 21.62 21.92C21.96 21.9 22.17 21.7 22.19 21.39C22.21 21.06 21.99 20.81 21.64 20.79C21.12 20.77 20.61 20.77 20.09 20.79C19.77 20.8 19.54 21.07 19.55 21.36C19.55 21.66 19.78 21.9 20.11 21.91C20.36 21.93 20.61 21.92 20.86 21.92ZM27.76 21.92C27.99 21.92 28.21 21.92 28.44 21.92C28.47 21.92 28.49 21.92 28.52 21.92C28.86 21.89 29.07 21.69 29.08 21.38C29.09 21.08 28.88 20.81 28.56 20.79C28.03 20.77 27.5 20.77 26.98 20.79C26.66 20.8 26.45 21.06 26.45 21.37C26.46 21.68 26.67 21.9 27.01 21.92C27.26 21.93 27.51 21.92 27.76 21.92Z"
                fill="white" />
            <path
                d="M10.4 16.74C10.4 17.71 9.62 18.5 8.66 18.5C7.7 18.5 6.91 17.7 6.91 16.74C6.91 15.79 7.68 15.01 8.64 15C9.61 14.99 10.39 15.76 10.4 16.74Z"
                fill="url(#paint0_linear_5322_3673)" />
            <path
                d="M38.19 16.75C38.19 15.77 38.97 15 39.94 15.01C40.91 15.02 41.68 15.8 41.67 16.77C41.66 17.71 40.88 18.5 39.93 18.5C38.97 18.5 38.18 17.72 38.19 16.75Z"
                fill="url(#paint1_linear_5322_3673)" />
            <path
                d="M15.88 20.75C15.88 21.98 15.88 23.23 15.87 24.47C15.87 24.54 15.76 24.66 15.68 24.69C14.97 24.87 14.07 24.46 13.63 23.77C13.17 23.05 13.22 22.11 13.74 21.43C14.25 20.78 15.11 20.5 15.88 20.75Z"
                fill="white" />
            <path
                d="M32.7 20.74C33.56 20.52 34.36 20.81 34.86 21.47C35.35 22.13 35.4 23.04 34.97 23.74C34.54 24.44 33.72 24.84 32.94 24.69C32.85 24.67 32.71 24.53 32.71 24.44C32.7 23.21 32.7 21.98 32.7 20.74Z"
                fill="white" />
            <path
                d="M26.57 32.35C27.91 32.35 29.15 32.34 30.4 32.36C30.48 32.36 30.61 32.52 30.63 32.62C30.79 33.65 30.06 34.65 29.01 34.87C27.98 35.09 26.9 34.43 26.66 33.4C26.57 33.08 26.59 32.73 26.57 32.35Z"
                fill="url(#paint2_linear_5322_3673)" />
            <path
                d="M17.99 32.35C19.21 32.35 20.44 32.35 21.68 32.36C21.77 32.36 21.91 32.47 21.93 32.56C22.12 33.25 21.69 34.17 21.01 34.6C20.27 35.07 19.33 35.01 18.65 34.46C18 33.95 17.73 33.09 17.99 32.35Z"
                fill="url(#paint3_linear_5322_3673)" />
            <path
                d="M10.28 19.37C10.6 19.05 10.95 18.69 11.28 18.37C11.83 18.92 12.51 19.61 13.2 20.29C12.94 20.65 12.64 21.07 12.37 21.46C11.65 20.74 10.91 19.99 10.28 19.37Z"
                fill="white" />
            <path
                d="M35.33 20.1999C35.92 19.6099 36.54 18.9999 37.15 18.3899C37.22 18.3199 37.3 18.2599 37.28 18.2999C37.62 18.6699 37.97 19.0399 38.29 19.3899C37.69 19.9899 36.94 20.7399 36.21 21.4599C35.95 21.0899 35.66 20.6699 35.33 20.1999Z"
                fill="white" />
            <path
                d="M23.16 6.28004C23.16 5.67004 23.67 5.15004 24.28 5.14004C24.89 5.13004 25.41 5.64004 25.42 6.25004C25.43 6.88004 24.91 7.40004 24.28 7.40004C23.67 7.40004 23.16 6.89004 23.16 6.28004Z"
                fill="url(#paint4_linear_5322_3673)" />
            <path
                d="M18.24 37.54C18.32 36.92 18.39 36.34 18.45 35.83C19.16 35.93 19.85 36.02 20.55 36.12C20.5 36.55 20.44 37.03 20.38 37.54C19.67 37.54 18.98 37.54 18.24 37.54Z"
                fill="white" />
            <path
                d="M30.14 37.54C29.41 37.54 28.73 37.54 28.01 37.54C27.95 37.04 27.89 36.53 27.83 36.08C28.54 36.02 29.23 35.96 29.95 35.9C30.01 36.39 30.07 36.95 30.14 37.54Z"
                fill="white" />
            <path
                d="M27.67 15.1501C27.67 15.5401 27.34 15.8701 26.95 15.8701C26.55 15.8701 26.22 15.5601 26.21 15.1701C26.2 14.7601 26.54 14.4301 26.95 14.4301C27.34 14.4301 27.67 14.7601 27.67 15.1501Z"
                fill="url(#paint5_linear_5322_3673)" />
            <path
                d="M22.38 15.13C22.39 15.52 22.07 15.85 21.68 15.87C21.28 15.88 20.95 15.58 20.93 15.18C20.91 14.77 21.23 14.43 21.64 14.43C22.04 14.42 22.37 14.74 22.38 15.13Z"
                fill="url(#paint6_linear_5322_3673)" />
            <path
                d="M20.72 27.87C21.43 27.87 22.12 27.87 22.81 27.87C23.3 27.87 23.54 28.06 23.54 28.43C23.54 28.8 23.29 29.01 22.82 29.01C22.15 29.01 21.49 29.02 20.82 29.01C20.04 29 19.55 28.52 19.54 27.74C19.53 26.87 19.53 26 19.54 25.13C19.55 24.36 20.04 23.88 20.8 23.88C23.14 23.88 25.48 23.88 27.83 23.88C28.58 23.88 29.07 24.35 29.08 25.09C29.1 25.98 29.1 26.88 29.08 27.77C29.07 28.52 28.58 28.99 27.84 29C27.17 29.01 26.51 29.01 25.84 29C25.41 29 25.14 28.77 25.14 28.43C25.14 28.08 25.4 27.87 25.84 27.87C26.52 27.87 27.2 27.87 27.91 27.87C27.91 26.92 27.91 26 27.91 25.05C25.53 25.05 23.14 25.05 20.72 25.05C20.72 25.96 20.72 26.88 20.72 27.87Z"
                fill="#1F1F1F" />
            <path
                d="M20.86 21.92C20.61 21.92 20.36 21.93 20.1 21.92C19.78 21.9 19.55 21.67 19.54 21.37C19.54 21.08 19.76 20.81 20.08 20.8C20.6 20.78 21.11 20.78 21.63 20.8C21.98 20.81 22.19 21.07 22.18 21.4C22.17 21.71 21.95 21.92 21.61 21.93C21.37 21.93 21.11 21.92 20.86 21.92Z"
                fill="#1F1F1F" />
            <path
                d="M27.76 21.92C27.51 21.92 27.26 21.93 27.01 21.92C26.67 21.9 26.46 21.68 26.45 21.37C26.44 21.07 26.65 20.8 26.98 20.79C27.51 20.77 28.04 20.77 28.56 20.79C28.88 20.8 29.09 21.07 29.08 21.38C29.07 21.69 28.85 21.9 28.52 21.92C28.49 21.92 28.47 21.92 28.44 21.92C28.22 21.92 27.99 21.92 27.76 21.92Z"
                fill="#1F1F1F" />
        </g>
    </g>
    <defs>
        <linearGradient id="paint0_linear_5322_3673" x1="6.91345" y1="16.7508" x2="10.4018"
            y2="16.7508" gradientUnits="userSpaceOnUse">
            <stop stop-color="#FF7304" />
            <stop offset="1" stop-color="#FB2A77" />
        </linearGradient>
        <linearGradient id="paint1_linear_5322_3673" x1="38.1933" y1="16.7558" x2="41.6719"
            y2="16.7558" gradientUnits="userSpaceOnUse">
            <stop stop-color="#FF7304" />
            <stop offset="1" stop-color="#FB2A77" />
        </linearGradient>
        <linearGradient id="paint2_linear_5322_3673" x1="26.574" y1="33.6306" x2="30.6541"
            y2="33.6306" gradientUnits="userSpaceOnUse">
            <stop stop-color="#FF7304" />
            <stop offset="1" stop-color="#FB2A77" />
        </linearGradient>
        <linearGradient id="paint3_linear_5322_3673" x1="17.896" y1="33.6337" x2="21.9772"
            y2="33.6337" gradientUnits="userSpaceOnUse">
            <stop stop-color="#FF7304" />
            <stop offset="1" stop-color="#FB2A77" />
        </linearGradient>
        <linearGradient id="paint4_linear_5322_3673" x1="23.1622" y1="6.27052" x2="25.4213"
            y2="6.27052" gradientUnits="userSpaceOnUse">
            <stop stop-color="#FF7304" />
            <stop offset="1" stop-color="#FB2A77" />
        </linearGradient>
        <linearGradient id="paint5_linear_5322_3673" x1="26.2112" y1="15.1504" x2="27.6707"
            y2="15.1504" gradientUnits="userSpaceOnUse">
            <stop stop-color="#FF7304" />
            <stop offset="1" stop-color="#FB2A77" />
        </linearGradient>
        <linearGradient id="paint6_linear_5322_3673" x1="20.9305" y1="15.1504" x2="22.381"
            y2="15.1504" gradientUnits="userSpaceOnUse">
            <stop stop-color="#FF7304" />
            <stop offset="1" stop-color="#FB2A77" />
        </linearGradient>
        <clipPath id="clip0_5322_3673">
            <rect width="48" height="48" fill="white" />
        </clipPath>
        <clipPath id="clip1_5322_3673">
            <rect width="38.57" height="38.69" fill="white" transform="translate(5 4)" />
        </clipPath>
    </defs>
</svg>
