<svg width="48" height="48" viewBox="0 0 48 48" fill="none" xmlns="http://www.w3.org/2000/svg">
    <rect width="6.15891" height="4.15083" rx="2.07542"
        transform="matrix(0.388344 -0.921515 -0.912497 -0.409082 19.5939 15.8633)" fill="white"
        stroke="#1F1F1F" stroke-width="1.6" />
    <rect width="6.07732" height="4.20743" rx="2.10371"
        transform="matrix(0.760593 -0.649229 -0.625826 -0.779963 33.0617 31.0118)" fill="white"
        stroke="#1F1F1F" stroke-width="1.6" />
    <path
        d="M34.7143 37.9425L23.5714 26.8916L30 20.2611L35.903 32.0799C36.7432 33.7621 36.5098 35.782 35.3079 37.2282L34.7143 37.9425Z"
        fill="#FE4545" stroke="#1F1F1F" stroke-width="1.6" />
    <path
        d="M9.10731 12.1561L20.2775 23.1776L26.432 16.276L14.959 10.7925C13.1776 9.94112 11.0522 10.2859 9.62566 11.6576L9.10731 12.1561Z"
        fill="#FE4545" stroke="#1F1F1F" stroke-width="1.6" />
    <path
        d="M17.1429 26.8915L12.4448 25.6801C12.1698 25.6092 11.8779 25.6913 11.6803 25.8952L9.76276 27.873C9.38745 28.2601 9.50153 28.9011 9.98735 29.1349L15.4286 31.7539L17.5199 37.1464C17.7365 37.7049 18.4715 37.8286 18.859 37.3718L20.7644 35.1258C20.9139 34.9496 20.9788 34.7168 20.9419 34.4887L20.1429 29.5437L35.802 16.3292C37.55 14.8541 37.727 12.2237 36.1923 10.5278C34.5195 8.67917 31.5884 8.77079 30.0343 10.7203L17.1429 26.8915Z"
        fill="white" stroke="#1F1F1F" stroke-width="1.6" />
    <path d="M12 34.0258L9 37.5129" stroke="#1F1F1F" stroke-width="1.6" stroke-linecap="round" />
    <path d="M12.8333 37.5128L9.83331 41" stroke="#1F1F1F" stroke-width="1.6"
        stroke-linecap="round" />
</svg>
