<svg width="13" height="13" viewBox="0 0 13 13" fill="none" xmlns="http://www.w3.org/2000/svg">
    <path id="Vector"
        d="M10.527 12.4658C10.0787 12.7851 7.20256 10.7612 6.65171 10.7568C6.10087 10.7524 3.19234 12.7297 2.74933 12.4033C2.30631 12.0768 3.34782 8.72379 3.18184 8.20004C3.01586 7.6763 0.231129 5.52898 0.405566 5.00796C0.580042 4.48694 4.09987 4.43855 4.54812 4.11927C4.99637 3.80003 6.18386 0.495595 6.73474 0.500004C7.28555 0.504453 8.41939 3.82757 8.86241 4.15401C9.30543 4.48042 12.8241 4.58549 12.9901 5.10924C13.1561 5.63298 10.337 7.7352 10.1625 8.25622C9.98806 8.77724 10.9752 12.1466 10.527 12.4658Z"
        fill="#E9E9E9" />
</svg>
