<svg width="51" height="51" viewBox="0 0 51 51" fill="none" xmlns="http://www.w3.org/2000/svg">
    <g clip-path="url(#clip0_803_25812)">
        <path
            d="M25.5 51C39.5833 51 51 39.5833 51 25.5C51 11.4167 39.5833 0 25.5 0C11.4167 0 0 11.4167 0 25.5C0 39.5833 11.4167 51 25.5 51Z"
            fill="#EEEFF4" />
        <path fill-rule="evenodd" clip-rule="evenodd"
            d="M35.1082 18.7736C35.6604 18.7736 36.1082 19.2213 36.1082 19.7736V27.3494C36.1082 27.9017 35.6604 28.3494 35.1082 28.3494C34.5559 28.3494 34.1082 27.9017 34.1082 27.3494V19.7736C34.1082 19.2213 34.5559 18.7736 35.1082 18.7736Z"
            fill="#FE4545" />
        <path fill-rule="evenodd" clip-rule="evenodd"
            d="M30.2162 23.5614C30.2162 23.0091 30.6639 22.5614 31.2162 22.5614H39C39.5523 22.5614 40 23.0091 40 23.5614C40 24.1137 39.5523 24.5614 39 24.5614H31.2162C30.6639 24.5614 30.2162 24.1137 30.2162 23.5614Z"
            fill="#FE4545" />
        <path
            d="M24 23.1086C26.3254 23.1086 28.2105 21.2235 28.2105 18.898C28.2105 16.5726 26.3254 14.6875 24 14.6875C21.6746 14.6875 19.7894 16.5726 19.7894 18.898C19.7894 21.2235 21.6746 23.1086 24 23.1086Z"
            fill="#FE4545" />
        <path
            d="M24 25.2139C18.852 25.2139 14.6126 28.8991 14.0608 33.6369C13.9936 34.2143 14.4713 34.6876 15.0526 34.6876H32.9474C33.5288 34.6876 34.0065 34.2143 33.9393 33.6369C33.3875 28.8991 29.148 25.2139 24 25.2139Z"
            fill="#FE4545" />
        <path
            d="M33.9392 33.6369C33.396 28.9722 29.2779 25.3278 24.2376 25.2165C24.1068 25.2136 24 25.3199 24 25.4507C24 25.5815 24.1057 25.6866 24.2355 25.7026C25.7508 25.8902 28.076 27.7889 29.5 29.6875C30.7497 31.3537 31.3053 33.7141 31.4559 34.4555C31.4832 34.59 31.6006 34.6876 31.7378 34.6876H32.9474C33.5288 34.6876 34.0065 34.2143 33.9392 33.6369Z"
            fill="#B42626" />
    </g>
    <defs>
        <clipPath id="clip0_803_25812">
            <rect width="51" height="51" fill="white" />
        </clipPath>
    </defs>
</svg>
