<svg width="48" height="48" viewBox="0 0 48 48" fill="none" xmlns="http://www.w3.org/2000/svg">
    <g clip-path="url(#clip0_803_25964)">
        <g filter="url(#filter0_d_803_25964)">
            <path
                d="M24 42C35.0457 42 44 33.0457 44 22C44 10.9543 35.0457 2 24 2C12.9543 2 4 10.9543 4 22C4 33.0457 12.9543 42 24 42Z"
                fill="white" />
        </g>
        <path fill-rule="evenodd" clip-rule="evenodd"
            d="M30.0812 17.5645C30.4954 17.5645 30.8312 17.9002 30.8312 18.3145V23.9963C30.8312 24.4106 30.4954 24.7463 30.0812 24.7463C29.667 24.7463 29.3312 24.4106 29.3312 23.9963V18.3145C29.3312 17.9002 29.667 17.5645 30.0812 17.5645Z"
            fill="#1F1F1F" />
        <path fill-rule="evenodd" clip-rule="evenodd"
            d="M26.4122 21.1554C26.4122 20.7412 26.748 20.4054 27.1622 20.4054H33.0001C33.4143 20.4054 33.7501 20.7412 33.7501 21.1554C33.7501 21.5696 33.4143 21.9054 33.0001 21.9054H27.1622C26.748 21.9054 26.4122 21.5696 26.4122 21.1554Z"
            fill="#1F1F1F" />
        <path
            d="M21.75 20.3158C23.494 20.3158 24.9079 18.902 24.9079 17.1579C24.9079 15.4138 23.494 14 21.75 14C20.0059 14 18.592 15.4138 18.592 17.1579C18.592 18.902 20.0059 20.3158 21.75 20.3158Z"
            stroke="#1F1F1F" stroke-width="1.4" />
        <path
            d="M21.75 22.8158C17.889 22.8158 14.7094 25.5798 14.2956 29.1331C14.2452 29.5662 14.6035 29.9211 15.0395 29.9211H28.4606C28.8966 29.9211 29.2549 29.5662 29.2045 29.1331C28.7906 25.5798 25.611 22.8158 21.75 22.8158Z"
            stroke="#1F1F1F" stroke-width="1.4" />
    </g>
    <defs>
        <filter id="filter0_d_803_25964" x="0" y="0" width="48" height="48"
            filterUnits="userSpaceOnUse" color-interpolation-filters="sRGB">
            <feFlood flood-opacity="0" result="BackgroundImageFix" />
            <feColorMatrix in="SourceAlpha" type="matrix"
                values="0 0 0 0 0 0 0 0 0 0 0 0 0 0 0 0 0 0 127 0" result="hardAlpha" />
            <feOffset dy="2" />
            <feGaussianBlur stdDeviation="2" />
            <feComposite in2="hardAlpha" operator="out" />
            <feColorMatrix type="matrix" values="0 0 0 0 0 0 0 0 0 0 0 0 0 0 0 0 0 0 0.12 0" />
            <feBlend mode="normal" in2="BackgroundImageFix" result="effect1_dropShadow_803_25964" />
            <feBlend mode="normal" in="SourceGraphic" in2="effect1_dropShadow_803_25964"
                result="shape" />
        </filter>
        <clipPath id="clip0_803_25964">
            <rect width="48" height="48" fill="white" />
        </clipPath>
    </defs>
</svg>
