<svg width="24" height="24" viewBox="0 0 24 24" fill="none" xmlns="http://www.w3.org/2000/svg">
    <path
        d="M11.2854 4.03267C9.41866 4.20182 7.6707 5.02119 6.34685 6.34765C5.0206 7.67119 4.2015 9.41834 4.03256 11.2841C3.86362 13.1498 4.35557 15.0156 5.42253 16.5557C6.48949 18.0957 8.06366 19.2123 9.87023 19.7104C11.6768 20.2085 13.601 20.0565 15.3069 19.2809C15.8312 19.0542 16.4218 19.0339 16.9604 19.2243L19.193 19.968C19.2557 19.9892 19.3213 20 19.3875 20C19.4849 19.9999 19.581 19.9767 19.6677 19.9323C19.7544 19.8879 19.8294 19.8235 19.8863 19.7444C19.9433 19.6654 19.9807 19.5739 19.9953 19.4776C20.01 19.3813 20.0016 19.2829 19.9709 19.1905L19.2262 16.958C19.036 16.4195 19.0566 15.829 19.2841 15.3051C20.0608 13.5998 20.2136 11.676 19.7156 9.86956C19.2177 8.06316 18.1007 6.48905 16.5599 5.42219C15.019 4.35532 13.1521 3.86351 11.2854 4.03267Z"
        fill="#8C8C8C" />
    <path d="M12 9.00003V15" stroke="white" stroke-width="1.4" stroke-linecap="round" />
    <path d="M9 12.0001H15" stroke="white" stroke-width="1.4" stroke-linecap="round" />
</svg>
