<svg width="401" height="216" viewBox="0 0 401 216" fill="none" xmlns="http://www.w3.org/2000/svg">
    <path d="M250.95 201.473L249.662 205.338L246.955 203.257V160.907H250.95V201.473Z"
        fill="#111111" />
    <path
        d="M248.534 147.477C247.686 147.477 246.988 146.833 246.913 145.986L245.699 131.934C245.613 130.979 246.365 130.164 247.321 130.164H249.759C250.715 130.164 251.466 130.979 251.381 131.934L250.167 145.986C250.092 146.823 249.394 147.477 248.545 147.477H248.534Z"
        fill="white" />
    <path
        d="M248.534 155.072C247.352 155.072 246.396 154.117 246.396 152.937C246.396 151.757 247.352 150.802 248.534 150.802C249.715 150.802 250.671 151.757 250.671 152.937C250.671 154.117 249.715 155.072 248.534 155.072Z"
        fill="white" />
    <path
        d="M257.612 91.2106C262.609 98.2648 266.856 105.884 273.781 111.566C285.598 121.272 303.556 123.761 313.446 135.507C324.052 148.093 319.39 165.936 308.022 176.495C300.463 183.514 290.284 188.009 279.713 190.695C256.816 196.527 104.085 190.05 96.5026 186.707C86.3467 182.235 81.7996 173.659 82.5382 163.977C83.7385 148.117 97.2643 135.195 112.129 126.412C126.993 117.641 143.901 111.566 157.773 101.607C165.701 95.9134 172.464 89.0667 180.035 83.0038C186.336 77.9553 193.364 73.46 201.385 70.7513C222.055 63.7663 246.567 75.5808 257.612 91.1991V91.2106Z"
        fill="#FFF3F3" />
    <path
        d="M120.009 215.303C117.356 212.986 117.216 208.748 119.708 206.292C122.2 203.836 126.904 203.568 129.718 205.713C128.977 203.396 129.61 200.618 131.726 199.127C133.842 197.636 137.451 198.011 138.707 200.146C138.825 196.874 139.749 193.527 141.983 190.931C144.217 188.346 147.922 186.652 151.531 187.156C155.032 187.649 157.943 190.159 159.178 193.152C160.413 196.145 160.123 199.513 158.974 202.527C161.122 201.261 164.118 201.519 166.234 202.827C168.35 204.147 169.628 206.356 170.068 208.641C170.509 210.915 170.186 213.264 169.606 215.517"
        fill="#B0C5D0" />
    <path
        d="M169.585 215.538L165.214 215.517C165.192 214.862 165.139 214.208 165.01 213.554C164.559 211.28 163.27 209.07 161.176 207.729C159.06 206.421 156.053 206.163 153.905 207.429C155.065 204.425 155.344 201.046 154.109 198.043C152.874 195.072 149.963 192.551 146.462 192.068C144.389 191.768 142.295 192.197 140.479 193.098C140.909 192.336 141.392 191.607 141.972 190.931C144.217 188.357 147.901 186.673 151.52 187.177C155.032 187.66 157.932 190.18 159.167 193.184C160.402 196.155 160.123 199.534 158.963 202.57C161.111 201.282 164.118 201.54 166.234 202.87C168.328 204.179 169.617 206.399 170.068 208.673C170.498 210.969 170.165 213.318 169.585 215.56V215.538Z"
        fill="#B0C5D0" />
    <path d="M237.085 214.445L237.085 206.002" stroke="#111111" stroke-width="0.75"
        stroke-linecap="round" stroke-linejoin="round" />
    <path
        d="M232.954 215.173C233.437 212.341 239.975 200.778 242.811 200.295C245.646 199.813 248.707 201.293 250.092 203.803C250.146 199.502 252.208 195.179 255.795 192.787C259.372 190.395 264.43 190.212 267.942 192.69C271.465 195.168 272.958 200.306 270.971 204.114C274.01 203.041 277.651 203.889 279.885 206.206C282.119 208.523 282.86 212.18 281.679 215.173"
        fill="#B0C5D0" />
    <path d="M197.605 124.029H193.609V186.447H197.605V124.029Z" fill="#111111" stroke="#111111"
        stroke-width="0.75" stroke-linecap="round" stroke-linejoin="round" />
    <path
        d="M165.724 215.645C164.134 212.62 163.973 208.051 164.585 204.865C165.198 201.679 166.991 198.579 169.945 196.734C172.898 194.889 177.098 194.535 180.105 196.305C178.494 192.089 178.096 187.37 179.826 183.186C181.555 179.003 185.625 175.484 190.523 174.798C195.56 174.09 200.737 176.461 203.873 180.075C206.998 183.69 208.298 188.378 208.459 192.958C210.22 189.976 215.257 189.451 218.221 191.532C221.186 193.613 222.056 197.496 221.025 200.735C224.966 197.721 231.539 198.107 235.019 201.54C238.499 204.972 238.724 212.395 235.019 215.645H165.724Z"
        fill="#8497A3" />
    <path
        d="M235.089 215.613C235.497 212.459 234.584 208.984 232.489 206.914C229.031 203.481 222.437 203.106 218.506 206.109C219.537 202.859 218.656 198.976 215.703 196.906C212.749 194.814 207.701 195.339 205.929 198.322C205.779 193.752 204.49 189.064 201.354 185.439C198.218 181.835 193.052 179.464 187.993 180.172C184.406 180.676 181.249 182.693 179.133 185.417C179.305 184.656 179.541 183.926 179.842 183.197C181.56 179.013 185.62 175.506 190.517 174.798C195.565 174.09 200.742 176.461 203.878 180.097C207.014 183.701 208.292 188.389 208.453 192.98C210.225 189.976 215.273 189.472 218.227 191.542C221.18 193.634 222.061 197.517 221.03 200.746C224.971 197.742 231.555 198.118 235.013 201.55C238.472 204.983 238.729 212.341 235.089 215.624V215.613Z"
        fill="#8497A3" />
    <path
        d="M193.333 45.1882L155.49 82.9838C154.232 84.2405 154.232 86.278 155.49 87.5348L193.333 125.33C194.591 126.587 196.631 126.587 197.89 125.33L235.732 87.5348C236.991 86.278 236.991 84.2405 235.732 82.9838L197.89 45.1882C196.631 43.9315 194.591 43.9315 193.333 45.1882Z"
        fill="#FD4545" />
    <path
        d="M224.778 153.988L244.766 120.371C246.463 117.518 250.597 117.518 252.294 120.371L272.282 153.988C274.011 156.906 271.917 160.596 268.523 160.596H228.559C225.165 160.596 223.06 156.906 224.8 153.988H224.778Z"
        fill="#FF964A" />
    <path
        d="M212.748 77.1535C212.748 68.7331 205.08 61.9109 195.607 61.9109C186.134 61.9109 178.466 68.7331 178.466 77.1535C178.466 83.1605 182.375 88.3307 188.046 90.8193C188.669 91.538 189.184 92.3425 189.55 93.2221C189.872 94.0051 190.087 94.8418 190.548 95.5605C191.01 96.2792 191.794 96.8692 192.643 96.7726C194.039 96.6225 194.823 94.7775 196.219 94.7131C197.078 94.6702 197.787 95.3245 198.442 95.893C199.087 96.4616 199.935 97.0193 200.751 96.7404C201.525 96.483 201.879 95.6249 202.148 94.8526C202.62 93.4581 203.071 92.0636 203.522 90.6584C208.989 88.1162 212.737 83.021 212.737 77.1535H212.748Z"
        fill="white" />
    <path
        d="M204.209 82.4527C204.209 84.0188 203.167 85.2953 201.878 85.2953C200.59 85.2953 199.548 84.0188 199.548 82.4527C199.548 80.8866 200.59 79.6101 201.878 79.6101C203.167 79.6101 204.209 80.8866 204.209 82.4527Z"
        fill="#111111" />
    <path
        d="M192.439 82.4527C192.439 84.0188 191.397 85.2953 190.108 85.2953C188.819 85.2953 187.777 84.0188 187.777 82.4527C187.777 80.8866 188.819 79.6101 190.108 79.6101C191.397 79.6101 192.439 80.8866 192.439 82.4527Z"
        fill="#111111" />
    <path
        d="M194.135 88.1487C194.135 88.5993 193.824 88.9532 193.427 88.9532C193.029 88.9532 192.718 88.5885 192.718 88.1487C192.718 87.7089 193.029 87.3442 193.427 87.3442C193.824 87.3442 194.135 87.7089 194.135 88.1487Z"
        fill="#111111" />
    <path
        d="M198.496 88.1487C198.496 88.5993 198.184 88.9532 197.787 88.9532C197.39 88.9532 197.078 88.5885 197.078 88.1487C197.078 87.7089 197.39 87.3442 197.787 87.3442C198.184 87.3442 198.496 87.7089 198.496 88.1487Z"
        fill="#111111" />
</svg>
