<svg width="52" height="52" viewBox="0 0 52 52" fill="none" xmlns="http://www.w3.org/2000/svg">
    <path
        d="M0.285645 3.48364C0.285645 1.86312 1.59933 0.549438 3.21985 0.549438H31.6372C33.2577 0.549438 34.5714 1.86313 34.5714 3.48364V51.6846C34.5714 51.8466 34.44 51.978 34.2779 51.978H0.579063C0.417011 51.978 0.285645 51.8466 0.285645 51.6846V3.48364Z"
        fill="#CACACA" />
    <path
        d="M20.6431 36.9783H14.2145C13.6228 36.9783 13.1431 37.458 13.1431 38.0498V51.9783H21.7145V38.0498C21.7145 37.458 21.2348 36.9783 20.6431 36.9783Z"
        fill="#F5F6FB" />
    <rect x="21.7146" y="26.2642" width="6.42863" height="6.42863" rx="0.857151" fill="#F5F6FB" />
    <rect x="6.7146" y="26.264" width="6.42863" height="6.42863" rx="0.857151" fill="#F5F6FB" />
    <rect x="21.7146" y="15.5497" width="6.42863" height="6.42863" rx="0.857151" fill="#F5F6FB" />
    <rect x="6.7146" y="15.5497" width="6.42863" height="6.42863" rx="0.857151" fill="#F5F6FB" />
    <rect x="21.7146" y="4.83545" width="6.42863" height="6.42863" rx="0.857151" fill="#F5F6FB" />
    <rect x="6.7146" y="4.83533" width="6.42863" height="6.42863" rx="0.857151" fill="#F5F6FB" />
    <path
        d="M34.572 23.876C34.572 22.8279 35.4217 21.9783 36.4698 21.9783H49.8171C50.8652 21.9783 51.7149 22.8279 51.7149 23.876V51.7885C51.7149 51.8933 51.6299 51.9783 51.5251 51.9783H34.7618C34.657 51.9783 34.572 51.8933 34.572 51.7885V23.876Z"
        fill="#AAAAAA" />
    <path
        d="M39.9292 29.2641C39.9292 28.7907 40.313 28.4069 40.7863 28.4069H45.5006C45.974 28.4069 46.3578 28.7907 46.3578 29.2641V33.9783C46.3578 34.4517 45.974 34.8355 45.5006 34.8355H40.7863C40.313 34.8355 39.9292 34.4517 39.9292 33.9783V29.2641Z"
        fill="#F5F6FB" />
    <path
        d="M39.9292 39.9784C39.9292 39.505 40.313 39.1212 40.7863 39.1212H45.5006C45.974 39.1212 46.3578 39.505 46.3578 39.9784V44.6926C46.3578 45.166 45.974 45.5498 45.5006 45.5498H40.7863C40.313 45.5498 39.9292 45.166 39.9292 44.6926V39.9784Z"
        fill="#F5F6FB" />
</svg>
