<svg width="80" height="80" viewBox="0 0 80 80" fill="none" xmlns="http://www.w3.org/2000/svg">
    <path
        d="M76 24.2635C76 14.7589 67.9755 7 57.9194 7C47.8633 7 39.8388 14.6619 39.8388 24.2635C39.8388 32.6485 46.165 39.6607 54.5343 41.2105C54.9598 41.2893 55.2784 41.6541 55.2784 42.0868V49.191C55.2784 49.9568 56.1961 50.3494 56.75 49.8205L70.2101 36.9686C73.9685 33.3802 76 29.3068 76 24.2635Z"
        fill="#FE4545" />
    <path
        d="M66.2483 27.076C64.9019 27.076 63.8105 26.0338 63.8105 24.7483C63.8105 23.4628 64.9019 22.4207 66.2483 22.4207C67.5947 22.4207 68.6862 23.4628 68.6862 24.7483C68.6862 26.0338 67.5947 27.076 66.2483 27.076Z"
        fill="white" />
    <path
        d="M57.7156 27.076C56.3692 27.076 55.2778 26.0338 55.2778 24.7483C55.2778 23.4628 56.3692 22.4207 57.7156 22.4207C59.062 22.4207 60.1534 23.4628 60.1534 24.7483C60.1534 26.0338 59.062 27.076 57.7156 27.076Z"
        fill="white" />
    <path
        d="M49.1834 27.076C47.837 27.076 46.7455 26.0338 46.7455 24.7483C46.7455 23.4628 47.837 22.4207 49.1834 22.4207C50.5298 22.4207 51.6212 23.4628 51.6212 24.7483C51.6212 26.0338 50.5298 27.076 49.1834 27.076Z"
        fill="white" />
    <path
        d="M24.453 44.3187C18.7383 44.3187 14.1056 39.8953 14.1056 34.4389C14.1056 28.9824 18.7383 24.5591 24.453 24.5591C30.1677 24.5591 34.8004 28.9824 34.8004 34.4389C34.8004 39.8953 30.1677 44.3187 24.453 44.3187Z"
        fill="#CACACA" />
    <path
        d="M45.549 73.6814C46.1255 73.6814 46.5874 73.2153 46.552 72.6399C46.2689 68.0375 44.0188 49.7512 26.1387 49.7512C9.03651 49.7512 5.69579 62.7111 4.17903 72.4895C4.08146 73.1185 4.57078 73.6814 5.20732 73.6814H45.549Z"
        fill="#CACACA" />
    <path
        d="M12.7795 73.6815C12.7795 73.6815 11.5253 67.2025 15.706 59.6773C19.8867 52.152 29.5023 50.0616 29.5023 50.0616C29.5023 50.0616 7.12351 44.7719 4.11236 72.5265C4.04637 73.1348 4.52588 73.6815 5.13777 73.6815H12.7795Z"
        fill="#AAAAAA" />
</svg>
