<svg width="20" height="20" viewBox="0 0 20 20" fill="none" xmlns="http://www.w3.org/2000/svg">
    <path
        d="M10.3501 4.93333L15.5084 10.0833C16.1084 10.7585 16.4278 11.6374 16.4012 12.5402C16.3747 13.4431 16.0041 14.3017 15.3655 14.9404C14.7268 15.579 13.8682 15.9496 12.9653 15.9762C12.0625 16.0027 11.1836 15.6833 10.5084 15.0833L3.84176 8.41667C3.46368 8.01865 3.25287 7.49064 3.25287 6.94167C3.25287 6.3927 3.46368 5.86469 3.84176 5.46667C4.23475 5.07887 4.76465 4.86145 5.31676 4.86145C5.86887 4.86145 6.39877 5.07887 6.79176 5.46667L12.5334 11.2167C12.5947 11.2736 12.6442 11.342 12.679 11.418C12.7139 11.494 12.7334 11.5762 12.7365 11.6598C12.7396 11.7433 12.7262 11.8267 12.6971 11.9051C12.6679 11.9835 12.6237 12.0554 12.5668 12.1167C12.5099 12.1779 12.4414 12.2274 12.3654 12.2623C12.2894 12.2971 12.2072 12.3166 12.1237 12.3197C12.0401 12.3228 11.9567 12.3094 11.8783 12.2803C11.7999 12.2512 11.728 12.2069 11.6668 12.15L7.4001 7.875C7.24318 7.71808 7.03035 7.62992 6.80843 7.62992C6.58651 7.62992 6.37368 7.71808 6.21676 7.875C6.05984 8.03192 5.97169 8.24475 5.97169 8.46667C5.97169 8.68858 6.05984 8.90141 6.21676 9.05833L10.5001 13.3333C10.7123 13.5472 10.9648 13.717 11.243 13.8329C11.5212 13.9488 11.8196 14.0084 12.1209 14.0084C12.4223 14.0084 12.7206 13.9488 12.9988 13.8329C13.277 13.717 13.5295 13.5472 13.7418 13.3333C14.158 12.8964 14.3902 12.316 14.3902 11.7125C14.3902 11.109 14.158 10.5286 13.7418 10.0917L7.99176 4.35C7.28089 3.6876 6.34065 3.32698 5.36915 3.34412C4.39764 3.36127 3.47072 3.75482 2.78365 4.44189C2.09659 5.12895 1.70303 6.05588 1.68589 7.02739C1.66875 7.99889 2.02936 8.93912 2.69176 9.65L9.35843 16.3167C10.3541 17.2157 11.6583 17.6958 12.9992 17.6571C14.3402 17.6183 15.6145 17.0636 16.5566 16.1086C17.4987 15.1536 18.036 13.8719 18.0565 12.5306C18.077 11.1893 17.5792 9.89172 16.6668 8.90833L11.5168 3.75C11.4391 3.6723 11.3468 3.61067 11.2453 3.56862C11.1438 3.52657 11.035 3.50492 10.9251 3.50492C10.8152 3.50492 10.7064 3.52657 10.6049 3.56862C10.5034 3.61067 10.4111 3.6723 10.3334 3.75C10.2557 3.8277 10.1941 3.91994 10.152 4.02146C10.11 4.12298 10.0884 4.23178 10.0884 4.34166C10.0884 4.45155 10.11 4.56036 10.152 4.66187C10.1941 4.76339 10.2557 4.85563 10.3334 4.93333H10.3501Z"
        fill="#CACACA" />
</svg>
