<svg width="160" height="175" viewBox="0 0 160 175" fill="none" xmlns="http://www.w3.org/2000/svg">
    <g clip-path="url(#clip0_978_8135)">
        <path
            d="M118.819 66.0229C118.578 66.0229 118.458 65.7828 118.458 65.6628C118.579 63.6226 118.819 61.5823 119.179 59.6621C119.179 59.4221 119.419 59.302 119.659 59.302C119.899 59.302 120.019 59.5421 120.019 59.7821C119.779 61.8224 119.539 63.7426 119.299 65.7829C119.179 65.9029 119.059 66.0229 118.819 66.0229ZM120.619 54.0214C120.379 54.0214 120.259 53.7814 120.259 53.5413C120.619 51.6211 121.099 49.5809 121.699 47.6606C121.699 47.4206 121.939 47.3006 122.179 47.4206C122.419 47.4206 122.539 47.6606 122.419 47.9007C121.939 49.8209 121.459 51.8612 120.979 53.7814C120.979 53.9014 120.859 54.0214 120.619 54.0214ZM123.859 42.38H123.739C123.499 42.26 123.379 42.14 123.499 41.8999C124.099 39.9797 124.819 38.0595 125.659 36.1392C125.779 35.8992 126.019 35.8992 126.139 35.8992C126.379 36.0192 126.379 36.1392 126.379 36.3793C125.659 38.1795 124.939 40.0997 124.219 42.02C124.219 42.26 123.979 42.38 123.859 42.38ZM128.42 31.0986H128.3C128.06 30.9786 128.06 30.7386 128.18 30.6186C129.02 28.8183 129.98 27.0181 130.94 25.2179C131.06 24.9779 131.3 24.9779 131.42 25.0979C131.66 25.2179 131.66 25.4579 131.54 25.578C130.58 27.3782 129.62 29.1784 128.78 30.9786C128.66 30.9786 128.54 31.0986 128.42 31.0986ZM134.3 20.4173C134.18 20.4173 134.18 20.4173 134.06 20.4173C133.94 20.2973 133.82 20.0573 133.94 19.9372C135.021 18.257 136.221 16.5768 137.301 14.8966C137.421 14.7766 137.661 14.6566 137.781 14.7766C137.901 14.8967 138.021 15.1367 137.901 15.2567C136.701 16.9369 135.621 18.6171 134.54 20.2973C134.54 20.4173 134.42 20.4173 134.3 20.4173ZM141.381 10.5761C141.261 10.5761 141.261 10.5761 141.141 10.4561C141.021 10.3361 140.901 10.0961 141.141 9.97605L141.381 9.73601C141.501 9.61599 141.741 9.61599 141.861 9.73601C141.981 9.85602 142.101 10.0961 141.861 10.2161L141.621 10.4561C141.621 10.5761 141.501 10.5761 141.381 10.5761Z"
            fill="#1F1F1F" />
        <path
            d="M74.904 21.1697C74.784 21.1697 74.664 21.0497 74.544 20.9296C73.8239 19.1294 72.8638 17.3292 71.7836 15.649C71.6636 15.529 71.6636 15.2889 71.9037 15.1689C72.0237 15.0489 72.2637 15.0489 72.3837 15.2889C73.4638 16.9691 74.424 18.8894 75.2641 20.6896C75.3841 20.9296 75.2641 21.0496 75.024 21.1697C75.024 21.0496 75.024 21.1697 74.904 21.1697ZM68.4232 10.9684C68.3032 10.9684 68.1832 10.9684 68.1832 10.8484C66.863 9.40822 65.3029 8.08806 63.6227 6.88791C63.5026 6.7679 63.3826 6.52788 63.5026 6.40786C63.6227 6.28785 63.8627 6.16782 63.9827 6.28784C65.6629 7.48799 67.2231 8.80816 68.6633 10.3683C68.7833 10.4884 68.7833 10.7284 68.6633 10.8484C68.6633 10.9684 68.5433 10.9684 68.4232 10.9684ZM58.582 3.88755H58.462C56.6618 3.04744 54.7416 2.32736 52.8213 1.8473C52.5813 1.8473 52.4613 1.60728 52.5813 1.36725C52.5813 1.12722 52.8213 1.00721 53.0614 1.12723C54.9816 1.60728 57.0219 2.32737 58.8221 3.16747C59.0621 3.28749 59.0621 3.52751 59.0621 3.64752C58.9421 3.88755 58.702 3.88755 58.582 3.88755ZM33.1389 3.04745C33.0189 3.04745 32.8989 2.92744 32.7789 2.80742C32.6589 2.56739 32.7789 2.44739 33.0189 2.32737C33.619 2.08734 34.2191 1.84731 34.8192 1.7273C35.0592 1.7273 35.1792 1.7273 35.2992 1.96732C35.4192 2.20735 35.2992 2.32736 35.0592 2.44738C34.4591 2.6874 33.859 2.80742 33.259 3.04745H33.1389ZM40.8199 1.12723C40.5799 1.12723 40.4598 1.00721 40.4598 0.767178C40.4598 0.527149 40.5799 0.407123 40.8199 0.287109C42.8601 0.0470793 44.9004 -0.0729317 46.9406 0.047083C47.1806 0.047083 47.3007 0.287116 47.3007 0.40713C47.3007 0.64716 47.1806 0.767178 46.9406 0.767178C44.9004 0.767178 42.8601 0.887196 40.8199 1.12723Z"
            fill="#1F1F1F" />
        <path
            d="M42.1722 68.7532C42.0522 68.7532 41.9322 68.6331 41.8122 68.5131C41.0921 66.7129 40.132 64.9127 39.0518 63.2325C38.9318 63.1125 38.9318 62.8724 39.1719 62.7524C39.2919 62.6324 39.5319 62.6324 39.6519 62.8724C40.732 64.5526 41.6922 66.4729 42.5323 68.2731C42.6523 68.5131 42.5323 68.6331 42.2922 68.7532C42.2922 68.6331 42.2922 68.7532 42.1722 68.7532ZM35.6914 58.5519C35.5714 58.5519 35.4514 58.5519 35.4514 58.4319C34.1312 56.9917 32.5711 55.6716 30.8909 54.4714C30.7708 54.3514 30.6508 54.1114 30.7708 53.9914C30.8908 53.8713 31.1309 53.7513 31.2509 53.8713C32.9311 55.0715 34.4913 56.3917 35.9315 57.9518C36.0515 58.0719 36.0515 58.3119 35.9315 58.4319C35.9315 58.5519 35.8115 58.5519 35.6914 58.5519ZM25.8502 51.471H25.7302C23.93 50.6309 22.0098 49.9109 20.0895 49.4308C19.8495 49.4308 19.7295 49.1908 19.8495 48.9507C19.8495 48.7107 20.0895 48.5907 20.3296 48.7107C22.2498 49.1908 24.29 49.9109 26.0903 50.751C26.3303 50.871 26.3303 51.111 26.3303 51.231C26.2103 51.471 25.9702 51.471 25.8502 51.471ZM0.407127 50.6309C0.287113 50.6309 0.167094 50.5109 0.0470797 50.3909C-0.0729349 50.1509 0.0470944 50.0309 0.287124 49.9109C0.887197 49.6708 1.48727 49.4308 2.08734 49.3108C2.32737 49.3108 2.44738 49.3108 2.56739 49.5508C2.68741 49.7908 2.5674 49.9109 2.32737 50.0309C1.7273 50.2709 1.12722 50.3909 0.527149 50.6309H0.407127ZM8.08807 48.7107C7.84804 48.7107 7.72803 48.5907 7.72803 48.3507C7.72803 48.1106 7.84804 47.9906 8.08807 47.8706C10.1283 47.6306 12.1686 47.5106 14.2088 47.6306C14.4488 47.6306 14.5689 47.8706 14.5689 47.9906C14.5689 48.2307 14.4488 48.3507 14.2088 48.3507C12.1686 48.3507 10.1283 48.4707 8.08807 48.7107Z"
            fill="#1F1F1F" />
        <path
            d="M79.9564 53.4541C88.0583 53.4541 94.6261 46.8863 94.6261 38.7844C94.6261 30.6826 88.0583 24.1147 79.9564 24.1147C71.8546 24.1147 65.2867 30.6826 65.2867 38.7844C65.2867 46.8863 71.8546 53.4541 79.9564 53.4541Z"
            fill="#E71313" />
        <path
            d="M78.9543 31.1206C79.0542 31.0824 79.1406 31.0157 79.203 30.9288C79.2653 30.8419 79.3007 30.7386 79.3048 30.6318C79.2051 30.6702 79.1188 30.737 79.0565 30.8238C78.9942 30.9107 78.9587 31.0138 78.9543 31.1206Z"
            fill="#71BC58" />
        <path
            d="M84.2708 34.4699C82.9324 33.1315 81.4164 30.9488 80.5851 29.692C80.2905 29.2466 79.6227 29.2469 79.3285 29.6925C78.501 30.9456 76.9921 33.1196 75.6417 34.4699C74.292 35.8196 72.1192 37.3279 70.8659 38.1556C70.4199 38.4501 70.4199 39.1187 70.8659 39.4133C72.1192 40.2409 74.292 41.7492 75.6417 43.099C76.9977 44.4549 78.5136 46.6415 79.3388 47.892C79.6303 48.3338 80.29 48.3381 80.5858 47.8992C81.4453 46.6235 83.0221 44.3734 84.2708 43.099C85.6736 41.6673 87.7862 40.213 89.0229 39.412C89.4755 39.1188 89.4806 38.4414 89.0309 38.1438C87.7714 37.31 85.6029 35.802 84.2708 34.4699Z"
            fill="#FFA91A" />
        <path
            d="M84.2712 43.0991C85.674 41.6674 87.7866 40.2131 89.0233 39.4121C89.4759 39.1189 89.48 38.4409 89.0304 38.1433C88.6059 37.8623 88.0782 37.5047 87.5141 37.1031C87.2893 36.9431 86.9925 36.9214 86.7523 37.0574C82.5277 39.4481 78.8676 43.4743 78.1061 45.6622C78.0374 45.8594 78.0849 46.0725 78.2065 46.2423C78.6479 46.8591 79.039 47.4371 79.3388 47.8915C79.6304 48.3334 80.2904 48.3383 80.5862 47.8993C81.4457 46.6236 83.0225 44.3736 84.2712 43.0991Z"
            fill="#EF7816" />
        <path
            d="M116.248 88.4202C124.35 88.4202 130.918 81.8524 130.918 73.7505C130.918 65.6487 124.35 59.0808 116.248 59.0808C108.146 59.0808 101.578 65.6487 101.578 73.7505C101.578 81.8524 108.146 88.4202 116.248 88.4202Z"
            fill="#E71313" />
        <path
            d="M115.246 66.0868C115.346 66.0486 115.432 65.9819 115.495 65.895C115.557 65.8081 115.592 65.7048 115.597 65.5979C115.497 65.6364 115.411 65.7031 115.348 65.79C115.286 65.8768 115.25 65.98 115.246 66.0868Z"
            fill="#71BC58" />
        <path
            d="M120.563 69.436C119.224 68.0976 117.708 65.9149 116.877 64.6581C116.582 64.2126 115.914 64.213 115.62 64.6586C114.793 65.9117 113.284 68.0857 111.933 69.436C110.584 70.7857 108.411 72.294 107.158 73.1217C106.712 73.4162 106.712 74.0848 107.158 74.3793C108.411 75.207 110.584 76.7153 111.933 78.065C113.289 79.421 114.805 81.6075 115.631 82.858C115.922 83.2999 116.582 83.3042 116.878 82.8652C117.737 81.5896 119.314 79.3395 120.563 78.065C121.965 76.6333 124.078 75.1791 125.315 74.378C125.767 74.0849 125.772 73.4075 125.323 73.1099C124.063 72.2761 121.895 70.7681 120.563 69.436Z"
            fill="#FFA91A" />
        <path
            d="M120.563 78.0651C121.966 76.6334 124.078 75.1792 125.315 74.3781C125.768 74.085 125.772 73.407 125.322 73.1094C124.898 72.8283 124.37 72.4708 123.806 72.0692C123.581 71.9091 123.284 71.8875 123.044 72.0234C118.819 74.4142 115.159 78.4404 114.398 80.6282C114.329 80.8255 114.377 81.0385 114.498 81.2084C114.94 81.8252 115.331 82.4032 115.631 82.8576C115.922 83.2994 116.582 83.3043 116.878 82.8654C117.737 81.5897 119.314 79.3396 120.563 78.0651Z"
            fill="#EF7816" />
        <path
            d="M50.8416 95.0088C58.9434 95.0088 65.5113 88.441 65.5113 80.3391C65.5113 72.2373 58.9434 65.6694 50.8416 65.6694C42.7397 65.6694 36.1719 72.2373 36.1719 80.3391C36.1719 88.441 42.7397 95.0088 50.8416 95.0088Z"
            fill="#E71313" />
        <path
            d="M49.8396 72.6754C49.9394 72.6372 50.0259 72.5705 50.0882 72.4836C50.1505 72.3967 50.1859 72.2934 50.19 72.1865C50.0903 72.225 50.004 72.2917 49.9418 72.3786C49.8795 72.4655 49.844 72.5686 49.8396 72.6754Z"
            fill="#71BC58" />
        <path
            d="M55.1561 76.0246C53.8177 74.6862 52.3017 72.5035 51.4704 71.2467C51.1758 70.8013 50.508 70.8016 50.2137 71.2472C49.3863 72.5003 47.8773 74.6743 46.527 76.0246C45.1773 77.3743 43.0045 78.8826 41.7512 79.7103C41.3052 80.0048 41.3052 80.6734 41.7512 80.968C43.0045 81.7956 45.1773 83.3039 46.527 84.6536C47.883 86.0096 49.3989 88.1961 50.2241 89.4467C50.5156 89.8885 51.1752 89.8928 51.471 89.4539C52.3306 88.1782 53.9073 85.9281 55.1561 84.6536C56.5589 83.2219 58.6714 81.7677 59.9082 80.9666C60.3607 80.6735 60.3658 79.9961 59.9162 79.6985C58.6567 78.8647 56.4882 77.3567 55.1561 76.0246Z"
            fill="#FFA91A" />
        <path
            d="M55.1563 84.6539C56.5591 83.2222 58.6717 81.7679 59.9084 80.9669C60.361 80.6738 60.3652 79.9958 59.9155 79.6981C59.491 79.4171 58.9633 79.0595 58.3993 78.658C58.1744 78.4979 57.8776 78.4763 57.6374 78.6122C53.4128 81.0029 49.7527 85.0292 48.9912 87.217C48.9226 87.4143 48.97 87.6273 49.0916 87.7972C49.533 88.4139 49.9241 88.9919 50.224 89.4464C50.5155 89.8882 51.1755 89.8931 51.4713 89.4541C52.3309 88.1785 53.9076 85.9284 55.1563 84.6539Z"
            fill="#EF7816" />
        <path d="M146.183 171.04V174.325H32.7114V171.04V164.67V106.142H146.183V164.67V171.04Z"
            fill="#0066C8" />
        <path
            d="M65.459 173.429C65.3594 173.429 65.3594 173.429 65.2599 173.429L60.2831 170.542C60.1835 170.542 60.1835 170.443 60.084 170.343C60.084 170.244 60.084 170.144 60.1835 170.045L65.0608 164.67V108.332C65.0608 108.133 65.1604 108.033 65.3594 108.033C65.5585 108.033 65.658 108.133 65.658 108.332V164.769C65.658 164.869 65.658 164.968 65.5585 164.968L60.8803 170.144L65.5585 172.832C65.7576 172.931 65.7576 173.13 65.658 173.23C65.658 173.33 65.5585 173.429 65.459 173.429Z"
            fill="white" />
        <path
            d="M58.9891 164.67H36.2947C36.0956 164.67 35.9961 164.57 35.9961 164.371C35.9961 164.172 36.0956 164.073 36.2947 164.073H58.9891C59.1882 164.073 59.2877 164.172 59.2877 164.371C59.2877 164.57 59.1882 164.67 58.9891 164.67Z"
            fill="white" />
        <path
            d="M114.232 164.67H70.7344C70.5353 164.67 70.4358 164.57 70.4358 164.371C70.4358 164.172 70.5353 164.073 70.7344 164.073H114.232C114.431 164.073 114.531 164.172 114.531 164.371C114.531 164.57 114.431 164.67 114.232 164.67Z"
            fill="white" />
        <path
            d="M138.121 164.67H122.095C121.896 164.67 121.797 164.57 121.797 164.371C121.797 164.172 121.896 164.073 122.095 164.073H138.121C138.32 164.073 138.419 164.172 138.419 164.371C138.419 164.57 138.22 164.67 138.121 164.67Z"
            fill="white" />
        <path d="M159.223 84.0452H78.4983L65.459 106.142H146.183L159.223 84.0452Z" fill="#0066C8" />
        <path d="M19.6721 84.0452H52.4197L65.459 106.142H32.7114L19.6721 84.0452Z" fill="#0066C8" />
        <path
            d="M140.808 106.441H87.2576C87.0585 106.441 86.959 106.341 86.959 106.142C86.959 105.943 87.0585 105.844 87.2576 105.844H140.808C141.007 105.844 141.107 105.943 141.107 106.142C141.206 106.341 141.007 106.441 140.808 106.441Z"
            fill="#1F1F1F" />
        <path
            d="M60.4821 106.441H47.6419C47.4428 106.441 47.3433 106.341 47.3433 106.142C47.3433 105.943 47.4428 105.844 47.6419 105.844H60.4821C60.6812 105.844 60.7807 105.943 60.7807 106.142C60.7807 106.341 60.6812 106.441 60.4821 106.441Z"
            fill="#1F1F1F" />
    </g>
    <defs>
        <clipPath id="clip0_978_8135">
            <rect width="160" height="175" fill="white" />
        </clipPath>
    </defs>
</svg>
