<svg width="48" height="48" viewBox="0 0 48 48" fill="none" xmlns="http://www.w3.org/2000/svg">
    <g clip-path="url(#clip0_803_25960)">
        <g filter="url(#filter0_d_803_25960)">
            <path
                d="M24 42C35.0457 42 44 33.0457 44 22C44 10.9543 35.0457 2 24 2C12.9543 2 4 10.9543 4 22C4 33.0457 12.9543 42 24 42Z"
                fill="white" />
        </g>
        <path fill-rule="evenodd" clip-rule="evenodd"
            d="M27.857 13H30.7969C32.0133 13 33 13.9953 33 15.2232V18.1877C33 19.4146 32.0133 20.4109 30.7969 20.4109H27.857C26.6397 20.4109 25.6529 19.4146 25.6529 18.1877V15.2232C25.6529 13.9953 26.6397 13 27.857 13ZM17.204 13H20.143C21.3603 13 22.3471 13.9953 22.3471 15.2232V18.1877C22.3471 19.4146 21.3603 20.4109 20.143 20.4109H17.204C15.9867 20.4109 15 19.4146 15 18.1877V15.2232C15 13.9953 15.9867 13 17.204 13ZM17.204 23.5891H20.143C21.3603 23.5891 22.3471 24.5845 22.3471 25.8132V28.7768C22.3471 30.0047 21.3603 31 20.143 31H17.204C15.9867 31 15 30.0047 15 28.7768V25.8132C15 24.5845 15.9867 23.5891 17.204 23.5891ZM27.857 23.5891H30.7969C32.0133 23.5891 33 24.5845 33 25.8132V28.7768C33 30.0047 32.0133 31 30.7969 31H27.857C26.6397 31 25.6529 30.0047 25.6529 28.7768V25.8132C25.6529 24.5845 26.6397 23.5891 27.857 23.5891Z"
            stroke="#1F1F1F" stroke-width="1.4" stroke-linecap="round" stroke-linejoin="round" />
    </g>
    <defs>
        <filter id="filter0_d_803_25960" x="0" y="0" width="48" height="48"
            filterUnits="userSpaceOnUse" color-interpolation-filters="sRGB">
            <feFlood flood-opacity="0" result="BackgroundImageFix" />
            <feColorMatrix in="SourceAlpha" type="matrix"
                values="0 0 0 0 0 0 0 0 0 0 0 0 0 0 0 0 0 0 127 0" result="hardAlpha" />
            <feOffset dy="2" />
            <feGaussianBlur stdDeviation="2" />
            <feComposite in2="hardAlpha" operator="out" />
            <feColorMatrix type="matrix" values="0 0 0 0 0 0 0 0 0 0 0 0 0 0 0 0 0 0 0.12 0" />
            <feBlend mode="normal" in2="BackgroundImageFix" result="effect1_dropShadow_803_25960" />
            <feBlend mode="normal" in="SourceGraphic" in2="effect1_dropShadow_803_25960"
                result="shape" />
        </filter>
        <clipPath id="clip0_803_25960">
            <rect width="48" height="48" fill="white" />
        </clipPath>
    </defs>
</svg>
