<svg width="24" height="24" viewBox="0 0 24 24" fill="none" xmlns="http://www.w3.org/2000/svg">
    <g id="POC request">
        <path id="Vector"
            d="M6.34802 6.3475L6.34659 6.34892C5.02045 7.67235 4.20148 9.41929 4.03256 11.2847C3.86365 13.1502 4.35552 15.0157 5.42236 16.5556C6.4892 18.0955 8.06327 19.2121 9.8698 19.7101C11.6764 20.2082 13.6005 20.0562 15.3063 19.2807L15.3148 19.2768L15.3233 19.2731C16.1417 18.9192 17.0632 18.8865 17.9044 19.1812L19.4439 19.6941C19.6003 19.7462 19.749 19.5974 19.6968 19.441L19.1835 17.9019C18.8887 17.0602 18.9221 16.1382 19.2773 15.32L19.2809 15.3118L19.2846 15.3037C20.0612 13.5986 20.2139 11.6751 19.7161 9.86898C19.2182 8.06286 18.1014 6.4889 16.5606 5.42211C15.0198 4.3553 13.153 3.8635 11.2863 4.03265C9.41961 4.20181 7.67175 5.02116 6.34802 6.3475Z"
            stroke="#8C8C8C" stroke-width="2" />
        <path id="Vector_2" d="M9 9.75122H14.9999" stroke="#8C8C8C" stroke-width="2"
            stroke-linecap="round" stroke-linejoin="round" />
        <path id="Vector_3" d="M11.4001 13.1268H15.0001" stroke="#8C8C8C" stroke-width="2"
            stroke-linecap="round" stroke-linejoin="round" />
    </g>
</svg>
