<svg width="25" height="24" viewBox="0 0 25 24" fill="none" xmlns="http://www.w3.org/2000/svg">
    <g id="Check">
        <circle id="Ellipse 2094" cx="12.7441" cy="12" r="6" fill="white" />
        <path id="Vector" fill-rule="evenodd" clip-rule="evenodd"
            d="M12.7441 22C18.2671 22 22.7441 17.523 22.7441 12C22.7441 6.477 18.2671 2 12.7441 2C7.22114 2 2.74414 6.477 2.74414 12C2.74414 17.523 7.22114 22 12.7441 22ZM16.2801 8.464C16.4679 8.27649 16.7225 8.17126 16.9878 8.17144C17.2532 8.17163 17.5076 8.27723 17.6951 8.465C17.8826 8.65277 17.9879 8.90734 17.9877 9.17271C17.9875 9.43807 17.8819 9.69249 17.6941 9.88L12.0411 15.533L12.0371 15.537C11.9445 15.6302 11.8343 15.7041 11.713 15.7546C11.5917 15.8051 11.4615 15.831 11.3301 15.831C11.1987 15.831 11.0686 15.8051 10.9473 15.7546C10.826 15.7041 10.7158 15.6302 10.6231 15.537L10.6191 15.533L7.79414 12.708C7.69863 12.6158 7.62245 12.5054 7.57004 12.3834C7.51763 12.2614 7.49004 12.1302 7.48889 11.9974C7.48774 11.8646 7.51304 11.7329 7.56332 11.61C7.6136 11.4872 7.68785 11.3755 7.78175 11.2816C7.87564 11.1877 7.98729 11.1135 8.11019 11.0632C8.23308 11.0129 8.36476 10.9876 8.49754 10.9887C8.63032 10.9899 8.76154 11.0175 8.88354 11.0699C9.00555 11.1223 9.11589 11.1985 9.20814 11.294L11.3301 13.415L16.2801 8.465V8.464Z"
            fill="#148A28" />
    </g>
</svg>
