<svg width="48" height="48" viewBox="0 0 48 48" fill="none" xmlns="http://www.w3.org/2000/svg">
    <g clip-path="url(#clip0_803_25971)">
        <g filter="url(#filter0_d_803_25971)">
            <path
                d="M24 42C35.0457 42 44 33.0457 44 22C44 10.9543 35.0457 2 24 2C12.9543 2 4 10.9543 4 22C4 33.0457 12.9543 42 24 42Z"
                fill="white" />
        </g>
        <path
            d="M16.1761 28.2286L16.8538 28.4042L16.9415 28.0657L16.7235 27.7922L16.1761 28.2286ZM19.6573 31.0104L19.9616 30.38L19.7458 30.2758L19.5113 30.3257L19.6573 31.0104ZM33.3 22C33.3 27.1362 29.1362 31.3 24 31.3V32.7C29.9094 32.7 34.7001 27.9094 34.7001 22H33.3ZM24 12.7C29.1362 12.7 33.3 16.8638 33.3 22H34.7001C34.7001 16.0906 29.9094 11.3 24 11.3V12.7ZM14.7 22C14.7 16.8638 18.8638 12.7 24 12.7V11.3C18.0906 11.3 13.3 16.0906 13.3 22H14.7ZM16.7235 27.7922C15.4567 26.203 14.7 24.1908 14.7 22H13.3C13.3 24.5192 14.1714 26.8367 15.6288 28.6649L16.7235 27.7922ZM16.2929 30.5678L16.8538 28.4042L15.4985 28.0529L14.9377 30.2165L16.2929 30.5678ZM16.6458 30.9365C16.4277 30.983 16.2369 30.7837 16.2929 30.5678L14.9377 30.2165C14.6206 31.4398 15.7017 32.5692 16.9377 32.3057L16.6458 30.9365ZM19.5113 30.3257L16.6458 30.9365L16.9377 32.3057L19.8032 31.695L19.5113 30.3257ZM24 31.3C22.5515 31.3 21.1821 30.9693 19.9616 30.38L19.3529 31.6407C20.7591 32.3197 22.3361 32.7 24 32.7V31.3Z"
            fill="#1F1F1F" />
        <path
            d="M24.0002 23.7848C24.7692 23.7848 25.3926 23.1614 25.3926 22.3924C25.3926 21.6234 24.7692 21 24.0002 21C23.2312 21 22.6078 21.6234 22.6078 22.3924C22.6078 23.1614 23.2312 23.7848 24.0002 23.7848Z"
            fill="#1F1F1F" />
        <path
            d="M28.608 23.7848C29.377 23.7848 30.0004 23.1614 30.0004 22.3924C30.0004 21.6234 29.377 21 28.608 21C27.839 21 27.2156 21.6234 27.2156 22.3924C27.2156 23.1614 27.839 23.7848 28.608 23.7848Z"
            fill="#1F1F1F" />
        <path
            d="M19.3924 23.7848C20.1614 23.7848 20.7848 23.1614 20.7848 22.3924C20.7848 21.6234 20.1614 21 19.3924 21C18.6234 21 18 21.6234 18 22.3924C18 23.1614 18.6234 23.7848 19.3924 23.7848Z"
            fill="#1F1F1F" />
    </g>
    <defs>
        <filter id="filter0_d_803_25971" x="0" y="0" width="48" height="48"
            filterUnits="userSpaceOnUse" color-interpolation-filters="sRGB">
            <feFlood flood-opacity="0" result="BackgroundImageFix" />
            <feColorMatrix in="SourceAlpha" type="matrix"
                values="0 0 0 0 0 0 0 0 0 0 0 0 0 0 0 0 0 0 127 0" result="hardAlpha" />
            <feOffset dy="2" />
            <feGaussianBlur stdDeviation="2" />
            <feComposite in2="hardAlpha" operator="out" />
            <feColorMatrix type="matrix" values="0 0 0 0 0 0 0 0 0 0 0 0 0 0 0 0 0 0 0.12 0" />
            <feBlend mode="normal" in2="BackgroundImageFix" result="effect1_dropShadow_803_25971" />
            <feBlend mode="normal" in="SourceGraphic" in2="effect1_dropShadow_803_25971"
                result="shape" />
        </filter>
        <clipPath id="clip0_803_25971">
            <rect width="48" height="48" fill="white" />
        </clipPath>
    </defs>
</svg>
