<svg width="24" height="24" viewBox="0 0 24 24" fill="none" xmlns="http://www.w3.org/2000/svg">
    <defs>
        <linearGradient id="paint0_linear_4352_35206" x1="1.38041" y1="6.20685" x2="25.2747"
            y2="7.96727" gradientUnits="userSpaceOnUse">
            <stop stop-color="#FF006E" />
            <stop offset="0.497159" stop-color="#FB5607" />
            <stop offset="1" stop-color="#FFBE0B" />
        </linearGradient>
        <clipPath id="clip0_4352_35206">
            <rect width="24" height="24" fill="white" />
        </clipPath>
    </defs>
    <g id="Frame 1171279549" clip-path="url(#clip0_4352_35206)">
        <g id="Group 1171278718">
            <path id="Subtract"
                d="M23.881 14.5787C24.1829 15.3257 23.8942 16.1776 23.1941 16.6099L21.7721 17.4869C21.1246 17.8856 20.6608 18.4983 20.4639 19.2117L20.0308 20.777C19.9345 21.1254 19.7245 21.4191 19.4532 21.6373C19.1207 21.9017 18.6876 22.057 18.2282 22.0318L16.5393 21.9395C15.7692 21.8975 15.0211 22.1325 14.4216 22.5984L13.1134 23.6223C12.9472 23.7524 12.759 23.8489 12.5621 23.9119C12.199 24.0294 11.8052 24.0294 11.4377 23.9119C11.2408 23.8489 11.0527 23.7524 10.8864 23.6223L9.57819 22.5984C9.0269 22.1661 8.34435 21.9353 7.63555 21.9353C7.57867 21.9353 7.5218 21.9353 7.46054 21.9395L5.77168 22.0318C5.31227 22.0528 4.87911 21.9017 4.54659 21.6373C4.27095 21.4191 4.06093 21.1254 3.96905 20.777L3.5359 19.2117C3.33901 18.4983 2.87523 17.8856 2.22768 17.4869L0.80571 16.6099C0.105662 16.1776 -0.183108 15.3215 0.118788 14.5787L0.73133 13.068C1.01135 12.3797 1.01135 11.6202 0.73133 10.9361L0.118788 9.42538C-0.183108 8.67839 0.105662 7.82649 0.80571 7.39005L2.22768 6.51297C2.87523 6.1143 3.33901 5.5016 3.5359 4.78819L3.96905 3.22288C4.18344 2.45071 4.94037 1.92194 5.77168 1.96811L7.46054 2.06043C8.23059 2.1024 8.97877 1.86739 9.57819 1.40157L10.8864 0.377613C11.5339 -0.125973 12.4703 -0.125973 13.1134 0.377613L14.4216 1.40157C15.0167 1.86739 15.7736 2.0982 16.5393 2.06043L18.2282 1.96811C19.0638 1.92614 19.8164 2.45071 20.0308 3.22288L20.4639 4.78819C20.6608 5.5016 21.1246 6.1143 21.7721 6.51297L23.1941 7.39005C23.8942 7.82229 24.1829 8.67839 23.881 9.42538L23.2685 10.9361C22.9885 11.6244 22.9885 12.3797 23.2685 13.068L23.5748 13.8234L23.881 14.5787Z"
                fill="url(#paint0_linear_4352_35206)" />
            <g id="Group">
                <g id="Group_2">
                    <g id="Group_3">
                        <g id="Group_4">
                            <path id="Vector" fill-rule="evenodd" clip-rule="evenodd"
                                d="M11.6576 6.54378C11.7219 6.41475 11.8545 6.33326 11.9997 6.33326C12.145 6.33326 12.2776 6.41475 12.3419 6.54378L13.9231 9.71432C13.9645 9.79779 14.0452 9.85551 14.1384 9.8691L17.6732 10.3776C17.817 10.3982 17.9362 10.4978 17.9811 10.6348C18.0259 10.7714 17.9885 10.9214 17.8847 11.0219L15.3267 13.4898C15.2596 13.5549 15.2287 13.6486 15.2447 13.7402L15.8482 17.2251C15.8727 17.3669 15.8139 17.5101 15.6964 17.5944C15.5789 17.679 15.4231 17.69 15.2947 17.6233L12.1327 15.9782C12.0495 15.9349 11.95 15.9349 11.8668 15.9782L8.70478 17.6233C8.57642 17.69 8.42062 17.679 8.30313 17.5944C8.18563 17.5101 8.12674 17.3669 8.15133 17.2251L8.75481 13.7402C8.77082 13.6486 8.73994 13.5549 8.67276 13.4898L6.11477 11.0219C6.011 10.9214 5.97355 10.7714 6.01843 10.6348C6.06331 10.4978 6.18253 10.3982 6.32632 10.3776L9.86113 9.8691C9.95433 9.85551 10.0349 9.79779 10.0764 9.71432L11.6576 6.54378Z"
                                fill="white" />
                        </g>
                    </g>
                </g>
            </g>
        </g>
    </g>
</svg>
