<svg width="20" height="20" viewBox="0 0 20 20" fill="none" xmlns="http://www.w3.org/2000/svg">
    <rect width="20" height="20" fill="white" />
    <mask id="mask0_7025_2547" style="mask-type:luminance" maskUnits="userSpaceOnUse" x="2" y="2"
        width="16" height="16">
        <path d="M18 2H2V18H18V2Z" fill="white" />
    </mask>
    <g mask="url(#mask0_7025_2547)">
        <path
            d="M16.9417 18C15.0306 18 13.1674 17.5739 11.3523 16.7218C9.53722 15.8696 7.92982 14.7437 6.53011 13.344C5.13041 11.9443 4.00448 10.3369 3.15233 8.52178C2.30019 6.70667 1.87441 4.84385 1.875 2.93333C1.875 2.66667 1.96389 2.44444 2.14167 2.26667C2.31945 2.08889 2.54167 2 2.80833 2H6.40834C6.61574 2 6.80093 2.06667 6.96389 2.2C7.12685 2.33333 7.22315 2.5037 7.25278 2.71111L7.83056 5.82222C7.86019 6.02963 7.85634 6.21867 7.819 6.38933C7.78167 6.56 7.69663 6.7117 7.56389 6.84444L5.40833 9.02222C6.03056 10.0889 6.81219 11.0889 7.75322 12.0222C8.69426 12.9556 9.72745 13.763 10.8528 14.4444L12.9417 12.3556C13.075 12.2222 13.2492 12.1221 13.4643 12.0551C13.6794 11.9881 13.8904 11.9698 14.0972 12L17.1639 12.6222C17.3713 12.6667 17.5417 12.7668 17.675 12.9227C17.8083 13.0785 17.875 13.2599 17.875 13.4667V17.0667C17.875 17.3333 17.7861 17.5556 17.6083 17.7333C17.4306 17.9111 17.2083 18 16.9417 18ZM4.56389 7.33333L6.03056 5.86667L5.65278 3.77778H3.675C3.74908 4.38519 3.85278 4.98519 3.98611 5.57778C4.11945 6.17037 4.31204 6.75556 4.56389 7.33333ZM12.5194 15.2889C13.0972 15.5407 13.6863 15.7407 14.2866 15.8889C14.8869 16.037 15.4904 16.1333 16.0972 16.1778V14.2222L14.0083 13.8L12.5194 15.2889Z"
            fill="#1F1F1F" />
    </g>
</svg>
