<svg width="352" height="192" viewBox="0 0 352 192" fill="none" xmlns="http://www.w3.org/2000/svg">
    <path
        d="M276.742 187.735C276.742 187.735 318.146 169.088 317.186 131.473C316.225 93.8567 272.54 67.7353 245.9 90.9569C219.26 114.178 202.021 94.7057 188.217 75.0826C174.413 55.4596 148.065 39.315 107.666 50.7642C65.3469 62.7544 52.3308 106.147 56.517 135.101C59.5253 155.904 70.5384 173.536 85.5427 187.081C86.0303 187.524 86.5329 187.96 87.0431 188.388C87.0431 188.388 269.186 192.459 276.734 187.735C284.283 183.011 276.742 187.735 276.742 187.735Z"
        fill="#FFF3F3" />
    <path
        d="M40.7245 127.078C40.7245 128.738 39.3967 130.091 37.7612 130.091C36.1257 130.091 34.7979 128.746 34.7979 127.078C34.7979 125.41 36.1257 124.065 37.7612 124.065C39.3967 124.065 40.7245 125.41 40.7245 127.078Z"
        stroke="#EEEEFF" stroke-miterlimit="10" />
    <path
        d="M102.957 188.223C100.624 188.223 98.7334 186.33 98.7334 183.993V179.764H107.181V183.993C107.181 186.33 105.29 188.223 102.957 188.223Z"
        fill="#637582" />
    <path
        d="M143.34 188.223C141.007 188.223 139.116 186.33 139.116 183.993V179.764H147.564V183.993C147.564 186.33 145.673 188.223 143.34 188.223Z"
        fill="#455760" />
    <path
        d="M168.174 94.5549L163.035 172.656C162.667 178.223 158.053 182.55 152.479 182.55H135.832L143.664 95.1784L168.174 94.5474V94.5549Z"
        fill="#455760" />
    <path
        d="M171.182 88.3047H93.9253C92.5497 88.3047 91.4346 89.4214 91.4346 90.7989V95.4267C91.4346 96.8042 92.5497 97.9209 93.9253 97.9209H171.182C172.558 97.9209 173.673 96.8042 173.673 95.4267V90.7989C173.673 89.4214 172.558 88.3047 171.182 88.3047Z"
        fill="#455760" />
    <path
        d="M79.1445 94.5552L85.7464 173.235C86.189 178.501 90.5853 182.551 95.8668 182.551H135.831C141.135 182.551 145.546 178.464 145.958 173.167L152.028 94.5552H79.1445Z"
        fill="#637582" />
    <path
        d="M99.8204 131.329C98.6576 132.945 98.14 134.365 97.9224 135.424C97.7124 136.446 97.8849 137.512 98.4025 138.421L102.994 146.452C102.094 142.606 107.465 136.979 108.215 136.213L110.286 137.415L106.145 129.692L97.8174 130.165L99.8204 131.329Z"
        fill="#9FAEB9" />
    <path
        d="M105.199 141.652L112.476 141.314L112.153 150.006L106.647 149.765C105.597 149.72 104.666 149.089 104.246 148.128C103.623 146.708 103.406 144.416 105.199 141.652Z"
        fill="#9FAEB9" />
    <path
        d="M125.828 123.411C124.951 121.623 123.938 120.496 123.113 119.805C122.31 119.136 121.29 118.791 120.247 118.828L111.012 119.121C114.823 120.136 117.268 127.521 117.584 128.542L115.551 129.804L124.305 129.767L127.801 122.179L125.828 123.404V123.411Z"
        fill="#9FAEB9" />
    <path
        d="M114.207 123.328L111.086 129.917L103.569 125.552L106.36 120.797C106.893 119.895 107.891 119.362 108.933 119.444C110.479 119.565 112.602 120.444 114.2 123.328H114.207Z"
        fill="#9FAEB9" />
    <path
        d="M121.036 149.743C123.024 149.841 124.495 149.502 125.5 149.112C126.475 148.736 127.271 148.007 127.751 147.076L131.982 138.85C129.244 141.689 121.614 140.239 120.564 140.022L120.451 137.625L116.228 145.303L121.149 152.049L121.036 149.728V149.743Z"
        fill="#9FAEB9" />
    <path
        d="M126.76 139.608L122.521 133.673L129.986 129.218L132.777 133.974C133.31 134.883 133.287 136.01 132.709 136.889C131.854 138.181 130.054 139.608 126.76 139.608Z"
        fill="#9FAEB9" />
    <path d="M79.1465 94.5552L79.7241 101.467L153.17 101.82L152.03 94.5552H79.1465Z"
        fill="#455760" />
    <path
        d="M154.19 88.3047H76.9331C75.5575 88.3047 74.4424 89.4214 74.4424 90.7989V95.4267C74.4424 96.8042 75.5575 97.9209 76.9331 97.9209H154.19C155.565 97.9209 156.681 96.8042 156.681 95.4267V90.7989C156.681 89.4214 155.565 88.3047 154.19 88.3047Z"
        fill="#637582" />
    <path d="M263.03 177.577L259.841 164.648L251.874 167.353L256.053 179.478L263.03 177.577Z"
        fill="#F1ABA3" />
    <path
        d="M256.053 179.478L253.075 183.828L246.623 187.96H255.768L267.329 182.228L262.955 177.172L256.053 179.478Z"
        fill="#1E0D1D" />
    <path d="M239.803 78.5681L270.089 170.756L242.908 179.673L215.203 97.6577L239.803 78.5681Z"
        fill="#FF7723" />
    <path d="M239.841 82.3096L226.682 131.788L219.067 109.866L239.841 82.3096Z" fill="#EF671B" />
    <path d="M184.79 178.366L169.613 182.678L190.897 188.388L191.73 180.785L184.79 178.366Z"
        fill="#1E0D1D" />
    <path d="M191.729 180.785L194.744 167.818L186.425 166.616L184.789 178.366L191.729 180.785Z"
        fill="#F1ABA3" />
    <path
        d="M213.569 65.3985L212.781 68.4862C203.899 84.5106 190.05 110.925 186.839 117.822C186.194 119.204 185.699 120.654 185.354 122.141L173.673 172.732L203.404 180.011L215.902 126.258C225.588 105.381 253.42 82.8804 231.829 63.7908L213.562 65.3985H213.569Z"
        fill="#FF964A" />
    <path
        d="M161.632 47.8267L190.245 58.0439C193.366 58.9153 195.122 62.2209 194.109 65.3011C193.081 68.4188 188.865 69.9739 185.827 68.7494L159.517 55.8051L161.632 47.8342V47.8267Z"
        fill="#FFC3BD" />
    <path
        d="M157.43 49.9751C157.43 49.9751 160.979 60.4778 148.038 60.5754L147.13 51.7781L157.43 49.9751Z"
        fill="#F1ABA3" />
    <path
        d="M155.78 54.2426C157.002 54.7083 160.161 56.0531 160.161 56.0531L166.057 49.4119L161.099 47.2483L155.479 50.1782L155.78 54.2426Z"
        fill="#FFC3BD" />
    <ellipse cx="140.2" cy="56.5457" rx="17.6764" ry="17.7627" fill="#628CA2" />
    <path
        d="M140.689 59.3333C144.49 58.6528 147.807 58.6977 148.226 61.0868C148.645 63.4767 145.521 64.6521 141.741 65.3289C137.941 66.0094 134.624 65.9646 134.205 63.5755C133.785 61.1855 136.909 60.0102 140.689 59.3333ZM138.659 47.7622C141.234 47.3011 143.66 48.9994 144.113 51.5791C144.565 54.1588 142.865 56.5967 140.29 57.0577C137.716 57.5186 135.289 55.8197 134.837 53.2399C134.384 50.6602 136.085 48.2231 138.659 47.7622Z"
        fill="white" />
    <path
        d="M162.181 47.8792C162.181 47.8792 157.042 44.0628 153.388 45.2798C150.823 46.1363 149.412 47.1956 147.192 48.9009C146.359 49.5395 146.261 50.7716 146.997 51.5303C147.552 52.1013 148.422 52.2365 149.12 51.8534L151.768 50.8317C151.768 50.8317 160.388 54.1598 162.188 47.8792H162.181Z"
        fill="#FFC3BD" />
    <path
        d="M205.188 56.4512L196.058 47.1431C191.43 51.2375 187.011 56.5038 184.055 58.4195C180.717 60.5832 180.439 63.3403 182.862 66.5031C185.098 69.418 189.239 70.0341 192.225 67.9005L205.188 56.4587V56.4512Z"
        fill="#FFC3BD" />
    <path
        d="M212.128 50.2761C214.814 48.3529 215.572 44.6792 213.869 41.8469C212.023 38.7893 208.024 37.8577 205.024 39.796C202.878 41.1783 199.555 44.0556 196.059 47.1433L205.189 56.4515L212.128 50.2761Z"
        fill="#FFC3BD" />
    <path d="M205.654 47.1433L205.188 56.4515L208.294 53.6568L205.654 47.1433Z" fill="#FFC3BD" />
    <path
        d="M217.627 35.5661L229.93 34.9726C231.356 34.905 232.548 36.0319 232.571 37.4593L231.836 63.7836L213.568 65.3913L204.28 43.815C203.508 41.7866 204.611 39.5253 206.689 38.8942L217.627 35.5586V35.5661Z"
        fill="#FD4545" />
    <path d="M232.159 52.8077L227.62 47.6165L231.919 60.5758L232.159 52.8077Z" fill="#E02323" />
    <path
        d="M235.835 37.5198C233.877 34.8528 230.201 34.1466 227.395 35.8896C224.364 37.7752 223.486 41.7945 225.459 44.7695C226.87 46.9031 229.788 50.1861 232.916 53.6495L242.092 44.3789L235.835 37.5123V37.5198Z"
        fill="#FD4545" />
    <path
        d="M242.091 44.3862L232.916 53.6568C237.065 58.2395 242.384 62.5893 244.342 65.5267C246.547 68.8398 249.301 69.0802 252.429 66.6086C255.31 64.3322 255.873 60.1777 253.697 57.2102L242.099 44.3787L242.091 44.3862Z"
        fill="#FFC3BD" />
    <path
        d="M225.504 81.153L244.897 57.7436C246.787 55.1067 250.486 54.5883 253.029 56.6017C255.595 58.6377 255.617 63.1377 253.427 65.5793L232.263 85.886L225.511 81.1606L225.504 81.153Z"
        fill="#FFC3BD" />
    <path
        d="M227.74 79.0721L218.767 78.5537C218.242 78.4786 217.77 78.8692 217.74 79.4026L217.709 79.951C217.694 80.214 217.8 80.4769 217.995 80.6572L219.352 81.9194L217.139 84.947C216.854 85.3376 216.742 85.8184 216.824 86.2992C216.982 87.2308 217.424 88.7934 218.64 89.8978C219.15 90.3636 219.855 90.5664 220.538 90.4537L221.536 90.2809C221.536 90.2809 224.964 92.9254 226.997 91.498C229.038 90.0706 229.008 88.0196 230.471 87.1256C231.934 86.2241 232.901 85.2399 232.901 85.2399L227.717 79.0796L227.74 79.0721Z"
        fill="#FFC3BD" />
    <path
        d="M234.528 8.97094C235.143 13.4034 232.052 17.4978 227.626 18.1138C223.2 18.7299 219.111 15.6346 218.496 11.2022C217.881 6.76973 220.972 2.67534 225.398 2.05931C229.824 1.44327 233.913 4.53848 234.528 8.97094Z"
        fill="#000201" />
    <path
        d="M226.284 12.4646C226.764 15.9579 224.333 19.1734 220.852 19.6617C217.364 20.1425 214.153 17.7084 213.665 14.2225C213.185 10.7291 215.616 7.51374 219.097 7.02541C222.585 6.54461 225.796 8.9787 226.284 12.4646Z"
        fill="#FFDA7B" />
    <path
        d="M218.572 27.843L212.016 30.0517L213.103 37.9024C213.103 37.9024 212.773 39.4651 216.464 42.8082L220.913 35.4158L218.58 27.843H218.572Z"
        fill="#FFC3BD" />
    <path
        d="M224.906 20.7717C227.076 14.7893 223.992 8.17829 218.018 6.00559C212.044 3.8329 205.442 6.92129 203.272 12.9037C201.103 18.8861 204.187 25.4972 210.161 27.6699C216.135 29.8425 222.737 26.7542 224.906 20.7717Z"
        fill="#000201" />
    <path
        d="M209.96 22.1031C210.29 23.7709 209.247 25.3937 207.626 25.7167C206.013 26.0398 204.438 24.9504 204.108 23.2826C203.778 21.6148 204.821 19.9921 206.441 19.669C208.054 19.346 209.629 20.4353 209.96 22.1031Z"
        fill="#E69892" />
    <path
        d="M212.405 32.8539C212.405 32.8539 218.669 32.6436 219.652 25.7019C219.96 23.5157 211.835 28.4891 211.835 28.4891L212.405 32.8539Z"
        fill="#000201" />
    <path
        d="M214.415 31.0885C210.251 31.6369 206.373 28.677 205.803 25.1761L204.497 16.9046C203.777 12.5173 206.56 8.35526 210.776 7.50633C215.098 6.63487 220.064 9.39952 220.942 13.8695L221.917 20.5332C222.675 25.6869 219.351 30.0968 214.407 31.0885H214.415Z"
        fill="#FFC3BD" />
    <path d="M209.959 22.1035L209.944 24.2521L210.98 24.162" stroke="#000201" stroke-width="0.57"
        stroke-linecap="round" stroke-linejoin="round" />
    <path
        d="M214.017 17.5883C214.017 17.5883 212.292 17.6634 212.367 18.3846C212.367 18.3846 212.427 18.8729 213.935 18.7753C215.435 18.6851 215.81 18.5198 215.885 18.0465C215.96 17.5732 214.82 17.4906 214.017 17.5883Z"
        fill="#000201" />
    <path
        d="M206.906 18.7076C206.906 18.7076 208.294 18.3771 208.497 19.0382C208.497 19.0382 208.624 19.489 207.401 19.7444C206.178 20.0073 205.758 19.8946 205.593 19.5415C205.406 19.1434 206.238 18.8053 206.906 18.7076Z"
        fill="#000201" />
    <path
        d="M208.287 21.5402C208.355 21.9458 208.085 22.329 207.695 22.3966C207.297 22.4642 206.929 22.1787 206.862 21.7731C206.794 21.3674 207.064 20.9842 207.455 20.9166C207.845 20.8565 208.22 21.1345 208.287 21.5402Z"
        fill="#000201" />
    <path
        d="M214.536 20.5182C214.604 20.9239 214.334 21.3071 213.944 21.3747C213.546 21.4348 213.178 21.1568 213.111 20.7511C213.043 20.3454 213.314 19.9623 213.704 19.8947C214.094 19.8271 214.469 20.1126 214.536 20.5182Z"
        fill="#000201" />
    <path
        d="M210.155 25.552L213.486 24.8909C213.486 24.8909 213.749 26.1004 211.873 26.3333C210.523 26.5061 210.163 25.552 210.163 25.552H210.155Z"
        fill="white" />
    <path
        d="M217.521 15.65C217.612 15.973 219.99 20.736 219.99 20.736L224.033 14.4104L217.521 15.65Z"
        fill="#000201" />
    <path
        d="M219.712 18.0088C219.712 18.0088 212.353 19.7893 206.591 13.6439C206.591 13.6439 204.243 15.3794 204.813 18.9403C204.813 18.9403 201.707 10.6689 209.014 7.44601C216.314 4.22309 222.991 8.42265 223.028 16.5138L219.72 18.0088H219.712Z"
        fill="#000201" />
    <path
        d="M225.738 19.8871C226.06 21.5398 225.032 23.1476 223.427 23.4706C221.829 23.7936 220.268 22.7118 219.946 21.059C219.623 19.4063 220.651 17.7985 222.257 17.4755C223.855 17.1525 225.415 18.2343 225.738 19.8871Z"
        fill="#F1ABA3" />
    <path d="M222.002 21.5698C222.002 21.5698 221.575 19.3987 223.653 19.3311" stroke="#000201"
        stroke-width="0.57" stroke-linecap="round" stroke-linejoin="round" />
</svg>
