<svg width="14" height="14" viewBox="0 0 14 14" fill="none" xmlns="http://www.w3.org/2000/svg">
    <path fill-rule="evenodd" clip-rule="evenodd"
        d="M2.33313 4.38458V12.0769C2.33313 12.3217 2.43849 12.5565 2.62602 12.7296C2.81356 12.9027 3.06791 13 3.33313 13H10.6665C10.9317 13 11.186 12.9027 11.3736 12.7296C11.5611 12.5565 11.6665 12.3217 11.6665 12.0769V4.38458H2.33313Z"
        stroke="#E71313" stroke-width="1.2" />
    <path
        d="M4.33313 6.17538V11.2092M6.9998 6.17538V11.2092M9.66646 6.17538V11.2092M4.66646 2.43569V1.76554C4.66646 1.34277 5.08446 1 5.5998 1H8.3998C8.91513 1 9.33313 1.34277 9.33313 1.76554V2.43631"
        stroke="#E71313" stroke-width="1.2" stroke-linecap="round" />
    <path
        d="M12 2.53845H2C1.44772 2.53845 1 2.95173 1 3.46153C1 3.97133 1.44772 4.38461 2 4.38461H12C12.5523 4.38461 13 3.97133 13 3.46153C13 2.95173 12.5523 2.53845 12 2.53845Z"
        stroke="#E71313" stroke-width="1.2" />
</svg>
