<svg width="352" height="192" viewBox="0 0 352 192" fill="none" xmlns="http://www.w3.org/2000/svg">
    <path
        d="M102.941 21.8882L85.4509 58.9396C84.0811 61.8466 86.2181 65.1826 89.4314 65.1536L130.719 64.7578C134.156 64.7235 136.199 60.9127 134.329 58.0313L110.532 21.3756C108.675 18.5161 104.397 18.8025 102.941 21.8882Z"
        fill="#628CA1" />
    <path
        d="M92.836 62.4441C91.5677 62.455 90.3729 61.7901 89.6374 60.6612C88.9063 59.5321 88.7887 58.1788 89.3259 57.0389L104.154 25.6278C104.692 24.4879 105.773 23.7993 107.041 23.7884C108.31 23.7776 109.505 24.4425 110.24 25.5714L130.417 56.6518C131.148 57.7809 131.265 59.1342 130.728 60.2741C130.191 61.414 129.109 62.1026 127.841 62.1135L92.8362 62.4486L92.836 62.4441Z"
        fill="white" />
    <path
        d="M106.814 34.1414L109.037 34.1201C110.466 34.1066 111.729 35.2886 111.856 36.7625L112.114 39.7864C112.124 39.898 112.124 40.0101 112.124 40.1177L111.792 49.3949C111.743 50.733 110.729 51.7459 109.421 51.7585C108.112 51.7712 106.921 50.7744 106.651 49.4367L104.761 40.1809C104.738 40.0743 104.725 39.9673 104.715 39.8556L104.457 36.8273C104.329 35.3534 105.388 34.1457 106.818 34.1323L106.814 34.1414ZM109.358 54.3168L109.963 54.3126C111.241 54.3014 112.372 55.3591 112.484 56.6768C112.595 57.9945 111.652 59.076 110.37 59.0875L109.765 59.0916C108.488 59.1029 107.357 58.0451 107.245 56.7275C107.133 55.4098 108.077 54.3282 109.358 54.3168Z"
        fill="#7E8F9B" />
    <path
        d="M215.623 87.4908C219.75 93.3165 223.257 99.6086 228.976 104.302C238.736 112.317 253.566 114.373 261.734 124.073C270.493 134.468 266.642 149.203 257.254 157.923C251.012 163.72 242.605 167.432 233.875 169.65C214.965 174.467 88.8319 169.117 82.57 166.357C74.1827 162.663 70.4275 155.581 71.0375 147.585C72.0287 134.487 83.199 123.816 95.475 116.562C107.751 109.318 121.714 104.302 133.17 96.077C139.718 91.3746 145.303 85.7202 151.555 80.7131C156.759 76.5437 162.564 72.8313 169.188 70.5943C186.258 64.8257 206.502 74.5828 215.623 87.4812V87.4908Z"
        fill="#FFF3F3" />
    <path
        d="M223.31 68.1096L218.817 69.5686L222.43 73.8469C222.43 73.8469 224.132 72.3996 225.058 70.7727C225.446 70.0954 225.22 69.227 224.549 68.8333L223.31 68.1096Z"
        fill="#E3AEA9" />
    <path d="M216.75 73.0828L219.448 76.3538L222.435 73.847L218.817 69.5686L216.75 73.0828Z"
        fill="#E3AEA9" />
    <path
        d="M224.762 33.1707C225.862 36.1811 226.869 39.1916 227.819 42.2426C228.762 45.2995 229.66 48.3563 230.424 51.5694L230.696 52.8025L230.823 53.4451L230.887 53.7693L230.904 53.8504L230.922 53.972L230.956 54.2151C231.119 55.5235 230.98 56.554 230.8 57.5093C230.424 59.4024 229.81 61.0061 229.133 62.5634C227.755 65.655 226.105 68.4339 224.177 71.1318L221.172 69.4702C222.238 66.5871 223.286 63.6171 224.073 60.7514C224.449 59.3272 224.779 57.8856 224.872 56.6467C224.918 56.0388 224.883 55.4714 224.802 55.2109L224.553 54.3078L224.229 53.2367C223.32 50.3362 222.284 47.3547 221.259 44.3963C220.24 41.4321 219.21 38.439 218.226 35.469L224.762 33.1764V33.1707Z"
        fill="#E3AEA9" />
    <path
        d="M199.758 15.258C199.833 15.617 199.705 15.9586 199.474 16.0165C199.242 16.0744 198.988 15.8312 198.912 15.4723C198.837 15.1133 198.964 14.7717 199.196 14.7138C199.428 14.656 199.682 14.8991 199.758 15.258Z"
        fill="black" />
    <path
        d="M199.74 15.9529C199.74 15.9529 199.37 18.2397 198.687 19.4728C199.445 19.907 200.464 19.3628 200.464 19.3628L199.74 15.9529Z"
        fill="#630F0F" />
    <path
        d="M198.803 13.0697C198.733 13.0697 198.669 13.035 198.623 12.9771C198.554 12.8786 198.577 12.7455 198.675 12.676C198.71 12.6529 199.544 12.0797 200.638 12.5313C200.748 12.5776 200.8 12.705 200.754 12.815C200.707 12.925 200.58 12.9771 200.47 12.9307C199.596 12.5718 198.93 13.0292 198.924 13.035C198.884 13.0639 198.843 13.0755 198.803 13.0755V13.0697Z"
        fill="black" />
    <path
        d="M212.165 16.4045C212.57 20.6076 211.974 24.6776 212.912 28.3307C212.912 28.3307 211.87 31.7233 205.658 31.7233C198.826 31.7233 202.525 28.3307 202.525 28.3307C206.289 27.4391 206.3 24.6718 205.75 22.0782L212.171 16.4045H212.165Z"
        fill="#E3AEA9" />
    <path
        d="M214.237 29.4943C214.77 28.4232 215.123 26.9006 214.023 26.5185C212.813 26.0959 206.346 25.957 204.001 26.7501C201.657 27.5433 202.23 29.7201 202.23 29.7201L214.243 29.4943H214.237Z"
        fill="black" />
    <path
        d="M228.196 181.964C228.647 181.86 229.11 181.651 229.423 181.489C229.464 181.466 229.492 181.426 229.487 181.373C229.481 181.321 229.452 181.287 229.406 181.269C229.203 181.2 227.408 180.609 226.934 181.009C226.858 181.072 226.777 181.188 226.812 181.379C226.858 181.64 226.986 181.825 227.194 181.929C227.46 182.062 227.819 182.045 228.19 181.958L228.196 181.964ZM229.052 181.408C228.265 181.767 227.623 181.889 227.304 181.727C227.165 181.657 227.078 181.53 227.049 181.344C227.032 181.252 227.061 181.217 227.09 181.194C227.333 180.986 228.329 181.194 229.052 181.408Z"
        fill="#FD4545" />
    <path
        d="M229.4 181.501C229.4 181.501 229.44 181.484 229.458 181.466C229.487 181.437 229.498 181.391 229.487 181.351C229.469 181.293 229.018 179.921 228.346 179.591C228.172 179.504 227.993 179.492 227.819 179.556C227.553 179.654 227.518 179.839 227.524 179.944C227.547 180.511 228.775 181.345 229.342 181.501C229.359 181.501 229.382 181.501 229.4 181.501ZM227.952 179.764C228.045 179.741 228.143 179.753 228.242 179.805C228.676 180.013 229.023 180.795 229.174 181.188C228.583 180.928 227.773 180.268 227.761 179.932C227.761 179.903 227.761 179.828 227.9 179.776C227.9 179.776 227.935 179.764 227.952 179.758V179.764Z"
        fill="#FD4545" />
    <path
        d="M196.574 185.496C197.037 185.496 197.535 185.397 197.882 185.316C197.928 185.305 197.963 185.27 197.969 185.218C197.975 185.166 197.957 185.125 197.917 185.096C197.737 184.98 196.122 183.99 195.572 184.274C195.485 184.32 195.381 184.413 195.369 184.61C195.352 184.876 195.433 185.085 195.613 185.235C195.838 185.426 196.192 185.49 196.574 185.49V185.496ZM197.535 185.148C196.689 185.316 196.035 185.287 195.763 185.056C195.642 184.957 195.589 184.812 195.601 184.627C195.607 184.535 195.642 184.506 195.676 184.488C195.966 184.343 196.881 184.766 197.535 185.148Z"
        fill="#FD4545" />
    <path
        d="M197.853 185.322C197.853 185.322 197.899 185.316 197.917 185.305C197.952 185.281 197.975 185.241 197.969 185.195C197.969 185.131 197.847 183.695 197.263 183.22C197.112 183.099 196.944 183.047 196.759 183.07C196.475 183.105 196.4 183.278 196.383 183.382C196.278 183.938 197.274 185.032 197.795 185.316C197.813 185.328 197.83 185.328 197.853 185.328V185.322ZM196.846 183.296C196.944 183.296 197.031 183.33 197.118 183.4C197.488 183.701 197.65 184.546 197.708 184.963C197.193 184.575 196.556 183.747 196.62 183.417C196.62 183.388 196.637 183.319 196.794 183.296C196.794 183.296 196.828 183.296 196.846 183.296Z"
        fill="#FD4545" />
    <path d="M203.225 185.142H198.658L198.611 174.559H203.179L203.225 185.142Z" fill="#E3AEA9" />
    <path d="M235.061 181.223L230.667 182.033L227.512 171.618L231.906 170.813L235.061 181.223Z"
        fill="#E3AEA9" />
    <path
        d="M229.828 180.858L234.824 179.677C235.004 179.637 235.189 179.724 235.264 179.892L236.926 183.672C237.099 184.066 236.85 184.535 236.434 184.621C234.685 185.004 233.817 185.102 231.617 185.623C230.268 185.941 227.506 186.74 225.642 187.186C223.818 187.62 223.164 185.82 223.9 185.473C227.176 183.904 228.265 182.56 229.168 181.304C229.33 181.078 229.567 180.922 229.834 180.858H229.828Z"
        fill="black" />
    <path
        d="M198.704 184.61H203.694C203.88 184.61 204.036 184.737 204.071 184.922L204.817 188.987C204.893 189.409 204.557 189.809 204.128 189.797C202.328 189.768 199.734 189.658 197.471 189.658C194.825 189.658 193.881 189.803 190.778 189.803C188.902 189.803 188.457 187.904 189.244 187.736C192.851 186.955 194.425 186.868 197.586 184.963C197.928 184.755 198.304 184.61 198.704 184.61Z"
        fill="black" />
    <path
        d="M223.1 29.5116C227.367 32.5105 228.647 40.2451 228.647 40.2451L218.978 45.1487C218.978 45.1487 216.524 40.3899 215.447 35.5557C214.428 30.9821 220.061 27.3753 223.095 29.5116H223.1Z"
        fill="#FD4545" />
    <path opacity="0.2"
        d="M218.267 34.444L222.076 43.5681L218.984 45.1486C218.984 45.1486 217.635 42.526 216.483 39.1682L218.267 34.4382V34.444Z"
        fill="black" />
    <path
        d="M194.669 49.5834C194.704 54.6839 195.01 61.0291 195.769 68.9027H220.212C220.513 65.3132 219.013 48.385 222.649 31.4394C222.921 30.1774 222.076 28.95 220.802 28.7532C219.245 28.51 217.114 28.2321 215.03 28.1337C211.915 27.9832 207.394 27.8848 204.644 28.1337C203.145 28.2669 201.68 28.51 200.476 28.7416C198.391 29.1468 196.73 30.7042 196.18 32.7594C195.653 34.722 195.115 37.7383 194.843 42.283C194.715 44.3788 194.651 46.7929 194.669 49.5776V49.5834Z"
        fill="#FD4545" />
    <path opacity="0.2"
        d="M202.387 39.9906C200.771 41.1774 197.68 41.7216 194.866 41.9648C194.913 41.2179 194.97 40.5116 195.034 39.8458C195.793 39.4464 196.522 39.0816 197.211 38.7458L202.387 39.9906Z"
        fill="black" />
    <g opacity="0.2">
        <path d="M198.611 174.559L198.634 180.441H203.202L203.179 174.559H198.611Z" fill="black" />
        <path d="M231.912 170.813L227.512 171.618L229.139 176.991L233.538 176.18L231.912 170.813Z"
            fill="black" />
    </g>
    <path
        d="M211.517 11.4835C212.188 15.9819 212.802 18.5755 211.071 21.4065C208.46 25.6675 202.612 25.0076 200.633 20.8508C198.844 17.105 198.05 10.3777 201.976 7.52935C205.837 4.72149 210.851 6.98515 211.522 11.4835H211.517Z"
        fill="#E3AEA9" />
    <path
        d="M202.166 14.7661C200.475 14.025 200.632 11.3503 201.147 10.2272C199.184 10.9046 196.348 11.2867 195.838 9.2951C195.329 7.30355 197.065 6.65514 196 4.95305C194.941 3.25097 198.316 1.38099 199.891 3.76043C201.465 6.13988 205.356 5.092 207.869 2.7936C209.698 1.12047 212.373 3.27412 211.307 5.46252C211.307 5.46252 216.807 5.10936 215.713 8.83774C214.619 12.5661 213.073 12.7051 213.432 15.3566C213.669 17.1513 213.884 20.8044 211.73 21.3197C209.125 21.9392 202.629 19.635 202.166 14.7603V14.7661Z"
        fill="black" />
    <path opacity="0.2"
        d="M202.137 19.6409C201.639 19.9998 201.124 20.3819 200.597 20.7872C200.608 20.8103 200.614 20.8277 200.626 20.8509C201.17 21.9914 202.009 22.8714 202.994 23.4619C203.323 23.1435 203.503 22.0724 204.122 22.0898C205.958 22.1361 209.507 21.3719 210.097 19.2993L202.142 19.6409H202.137Z"
        fill="black" />
    <path
        d="M203.561 14.7024C203.689 15.8545 203.475 16.9371 203.127 17.6434C202.6 18.7029 201.784 18.0255 201.46 16.7229C201.17 15.5476 201.095 13.585 201.848 13.0061C202.589 12.4387 203.417 13.3824 203.561 14.7024Z"
        fill="#E3AEA9" />
    <path
        d="M204.441 68.9028C204.441 68.9028 208.28 103.825 210.619 116.909C213.183 131.237 226.464 176.204 226.464 176.204L234.651 174.461C234.651 174.461 225.509 132.389 224.276 118.205C222.939 102.811 220.212 68.9028 220.212 68.9028H204.441Z"
        fill="#FD4545" />
    <path
        d="M204.441 68.9028C204.441 68.9028 208.28 103.825 210.619 116.909C213.183 131.237 226.464 176.204 226.464 176.204L234.651 174.461C234.651 174.461 225.509 132.389 224.276 118.205C223.431 108.448 222.076 92.0141 220.212 68.9028H204.441Z"
        fill="#FF7723" />
    <path
        d="M224.634 173.442C224.6 173.448 226.03 176.429 226.03 176.429L235.241 174.467L234.581 171.676L224.634 173.442Z"
        fill="#FEC2BD" />
    <path opacity="0.2"
        d="M207.238 81.3442C213.189 82.5195 211.69 104.884 210.526 116.382C209.113 108.253 207.185 92.6104 205.883 81.5063C206.288 81.3095 206.74 81.2458 207.238 81.3442Z"
        fill="black" />
    <path
        d="M195.774 68.9028C195.774 68.9028 193.823 103.066 193.783 117.001C193.742 131.498 196.973 178.953 196.973 178.953H204.713C204.713 178.953 206.797 132.343 207.689 118.107C208.661 102.586 211.84 68.897 211.84 68.897H195.774V68.9028Z"
        fill="#FF964A" />
    <path opacity="0.3"
        d="M195.774 68.9028C195.774 68.9028 193.823 103.066 193.783 117.001C193.742 131.498 196.973 178.953 196.973 178.953H204.713C204.713 178.953 206.797 132.343 207.689 118.107C208.661 102.586 211.84 68.897 211.84 68.897H195.774V68.9028Z"
        fill="#FF964A" />
    <path
        d="M195.601 175.874C195.566 175.874 195.914 179.087 195.914 179.087H205.333L205.698 176.221L195.601 175.874Z"
        fill="#FEC2BD" />
    <path
        d="M205.455 36.6791C204.528 36.7717 203.747 36.818 202.901 36.8412C202.068 36.8701 201.24 36.8817 200.406 36.8759C198.745 36.8585 197.077 36.7717 195.398 36.5864C193.719 36.407 192.035 36.1349 190.338 35.718C188.642 35.307 186.928 34.7396 185.232 33.9059L185.041 33.8133C183.542 33.0781 182.928 31.266 183.663 29.7723C183.744 29.6102 183.848 29.4423 183.953 29.3034C184.746 28.2381 185.51 27.4971 186.297 26.7966C187.079 26.1018 187.861 25.4824 188.648 24.8918C190.223 23.705 191.832 22.6571 193.447 21.6382C195.074 20.6308 196.713 19.6814 198.374 18.7724C200.047 17.8809 201.709 17.0009 203.446 16.1904C204.308 15.7909 205.333 16.1672 205.738 17.0298C206.086 17.7767 205.854 18.6451 205.223 19.1256L205.206 19.143C203.747 20.2603 202.253 21.3661 200.8 22.5008C199.335 23.624 197.882 24.7529 196.464 25.8992C195.039 27.0339 193.65 28.2034 192.336 29.3786C191.682 29.9691 191.05 30.5655 190.489 31.1676C189.933 31.7581 189.406 32.3717 189.123 32.8349L187.837 28.2265C189.018 28.6839 190.344 29.0139 191.728 29.2628C193.117 29.506 194.559 29.6623 196.018 29.7607C197.483 29.8534 198.965 29.8997 200.452 29.9055C201.199 29.9055 201.946 29.9055 202.687 29.8823C203.417 29.8534 204.204 29.8302 204.852 29.7955H204.933C206.844 29.6855 208.477 31.1444 208.587 33.0549C208.691 34.9133 207.301 36.5112 205.466 36.6964L205.455 36.6791Z"
        fill="#E3AEA9" />
    <path
        d="M208.696 15.2466L205.79 15.8892C205.79 15.8892 201.917 15.4087 201.031 18.3265L203.324 20.2833L206.867 20.8449C207.429 20.9318 208.002 20.8449 208.511 20.5786L209.414 20.1097C209.831 19.8955 210.109 19.4844 210.15 19.0155L210.364 16.7171C210.451 15.7908 209.605 15.0439 208.696 15.2466Z"
        fill="#E3AEA9" />
    <path
        d="M203.046 40.0601C198.177 41.409 192.625 39.7243 192.625 39.7243L194.669 28.8228C194.669 28.8228 199.509 28.4002 202.525 28.3365C210.3 28.1744 211.823 37.6285 203.046 40.0659V40.0601Z"
        fill="#FD4545" />
</svg>
