<svg width="24" height="24" viewBox="0 0 24 24" fill="none" xmlns="http://www.w3.org/2000/svg">
    <!-- <path d="M24 0H0V24H24V0Z" fill="white"/> -->
    <path
        d="M12 22C17.5228 22 22 17.5228 22 12C22 6.47715 17.5228 2 12 2C6.47715 2 2 6.47715 2 12C2 17.5228 6.47715 22 12 22Z"
        stroke="#1F1F1F" stroke-width="2" />
    <path
        d="M16.4639 6.56275L10.1823 9.41805C9.92807 9.53362 9.86751 9.86755 10.065 10.065L13.4913 13.4914C13.6888 13.6888 14.0227 13.6283 14.1383 13.374L16.9936 7.09242C17.1465 6.75595 16.8004 6.40981 16.4639 6.56275Z"
        stroke="#1F1F1F" stroke-width="2" stroke-linecap="round" stroke-linejoin="round" />
    <path
        d="M6.56263 16.464L9.41793 10.1823C9.5335 9.92807 9.86743 9.86752 10.0649 10.065L13.4913 13.4914C13.6887 13.6888 13.6282 14.0228 13.3739 14.1384L7.0923 16.9937C6.75583 17.1466 6.40969 16.8005 6.56263 16.464Z"
        stroke="#1F1F1F" stroke-width="2" stroke-linecap="round" stroke-linejoin="round" />
</svg>
