<svg width="17" height="17" viewBox="0 0 17 17" fill="none" xmlns="http://www.w3.org/2000/svg">
    <path
        d="M9.15142 5.92145H2.15331C2.01054 5.92145 1.87361 5.86474 1.77266 5.76378C1.67171 5.66283 1.61499 5.52591 1.61499 5.38313C1.61499 5.24036 1.67171 5.10344 1.77266 5.00249C1.87361 4.90153 2.01054 4.84482 2.15331 4.84482H9.15142C9.29419 4.84482 9.43112 4.90153 9.53207 5.00249C9.63303 5.10344 9.68974 5.24036 9.68974 5.38313C9.68974 5.52591 9.63303 5.66283 9.53207 5.76378C9.43112 5.86474 9.29419 5.92145 9.15142 5.92145ZM13.9963 5.92145H11.843C11.7002 5.92145 11.5633 5.86474 11.4624 5.76378C11.3614 5.66283 11.3047 5.52591 11.3047 5.38313C11.3047 5.24036 11.3614 5.10344 11.4624 5.00249C11.5633 4.90153 11.7002 4.84482 11.843 4.84482H13.9963C14.139 4.84482 14.276 4.90153 14.3769 5.00249C14.4779 5.10344 14.5346 5.24036 14.5346 5.38313C14.5346 5.52591 14.4779 5.66283 14.3769 5.76378C14.276 5.86474 14.139 5.92145 13.9963 5.92145Z"
        fill="#1F1F1F" />
    <path
        d="M10.4972 7.26727C10.1246 7.26727 9.7603 7.15677 9.45046 6.94974C9.14062 6.74271 8.89913 6.44846 8.75653 6.10418C8.61392 5.7599 8.57661 5.38107 8.64931 5.01559C8.72201 4.65011 8.90145 4.31439 9.16495 4.0509C9.42845 3.7874 9.76416 3.60796 10.1296 3.53526C10.4951 3.46256 10.874 3.49987 11.2182 3.64247C11.5625 3.78508 11.8568 4.02657 12.0638 4.33641C12.2708 4.64625 12.3813 5.01052 12.3813 5.38316C12.3813 5.88286 12.1828 6.36209 11.8295 6.71543C11.4761 7.06877 10.9969 7.26727 10.4972 7.26727ZM10.4972 4.57569C10.3375 4.57569 10.1814 4.62305 10.0486 4.71177C9.91582 4.8005 9.81232 4.92661 9.75121 5.07416C9.69009 5.2217 9.6741 5.38406 9.70526 5.54069C9.73641 5.69733 9.81332 5.84121 9.92625 5.95413C10.0392 6.06706 10.1831 6.14397 10.3397 6.17512C10.4963 6.20628 10.6587 6.19029 10.8062 6.12917C10.9538 6.06806 11.0799 5.96456 11.1686 5.83177C11.2573 5.69898 11.3047 5.54287 11.3047 5.38316C11.3047 5.16901 11.2196 4.96362 11.0682 4.81219C10.9168 4.66076 10.7114 4.57569 10.4972 4.57569ZM13.9963 11.3046H6.99816C6.85539 11.3046 6.71846 11.2479 6.61751 11.147C6.51656 11.046 6.45984 10.9091 6.45984 10.7663C6.45984 10.6236 6.51656 10.4866 6.61751 10.3857C6.71846 10.2847 6.85539 10.228 6.99816 10.228H13.9963C14.139 10.228 14.276 10.2847 14.3769 10.3857C14.4779 10.4866 14.5346 10.6236 14.5346 10.7663C14.5346 10.9091 14.4779 11.046 14.3769 11.147C14.276 11.2479 14.139 11.3046 13.9963 11.3046ZM4.30657 11.3046H2.15331C2.01054 11.3046 1.87361 11.2479 1.77266 11.147C1.67171 11.046 1.61499 10.9091 1.61499 10.7663C1.61499 10.6236 1.67171 10.4866 1.77266 10.3857C1.87361 10.2847 2.01054 10.228 2.15331 10.228H4.30657C4.44934 10.228 4.58627 10.2847 4.68722 10.3857C4.78818 10.4866 4.84489 10.6236 4.84489 10.7663C4.84489 10.9091 4.78818 11.046 4.68722 11.147C4.58627 11.2479 4.44934 11.3046 4.30657 11.3046V11.3046Z"
        fill="#1F1F1F" />
    <path
        d="M5.65242 12.6504C5.27978 12.6504 4.91551 12.5399 4.60567 12.3329C4.29583 12.1259 4.05433 11.8316 3.91173 11.4873C3.76913 11.1431 3.73182 10.7642 3.80451 10.3987C3.87721 10.0333 4.05666 9.69754 4.32015 9.43405C4.58365 9.17055 4.91937 8.9911 5.28485 8.91841C5.65033 8.84571 6.02916 8.88302 6.37344 9.02562C6.71771 9.16823 7.01197 9.40972 7.219 9.71956C7.42603 10.0294 7.53653 10.3937 7.53653 10.7663C7.53653 11.266 7.33802 11.7452 6.98469 12.0986C6.63135 12.4519 6.15212 12.6504 5.65242 12.6504V12.6504ZM5.65242 9.95884C5.49272 9.95884 5.3366 10.0062 5.20381 10.0949C5.07102 10.1836 4.96753 10.3098 4.90641 10.4573C4.84529 10.6049 4.8293 10.7672 4.86046 10.9238C4.89162 11.0805 4.96852 11.2244 5.08145 11.3373C5.19438 11.4502 5.33825 11.5271 5.49489 11.5583C5.65152 11.5894 5.81388 11.5734 5.96143 11.5123C6.10897 11.4512 6.23508 11.3477 6.32381 11.2149C6.41254 11.0821 6.45989 10.926 6.45989 10.7663C6.45989 10.5522 6.37482 10.3468 6.22339 10.1953C6.07196 10.0439 5.86658 9.95884 5.65242 9.95884Z"
        fill="#1F1F1F" />
</svg>
