<svg width="32" height="37" viewBox="0 0 32 37" fill="none" xmlns="http://www.w3.org/2000/svg">
    <defs>
        <linearGradient id="paint0_linear_54_280" x1="7.9443" y1="9.48339" x2="23.8563" y2="9.48339"
            gradientUnits="userSpaceOnUse">
            <stop stop-color="#FF7304" />
            <stop offset="1" stop-color="#FB2A77" />
        </linearGradient>
        <linearGradient id="paint1_linear_54_280" x1="14.0528" y1="25.668" x2="17.7197" y2="25.668"
            gradientUnits="userSpaceOnUse">
            <stop stop-color="#FF7304" />
            <stop offset="1" stop-color="#FB2A77" />
        </linearGradient>
        <clipPath id="clip0_54_280">
            <rect width="31.78" height="36.67" fill="white" />
        </clipPath>
    </defs>
    <g id="Frame" clip-path="url(#clip0_54_280)">
        <path id="Vector 43"
            d="M23.5 13.5V8.5L19.5 6.5L16 6L11.5 6.5L9 10L7 15L3.5 16.2292V18.5L0.5 29.5L1.5 32.5L4.5 33.5L5.5 36.5L26 36L27 34.5L26 33H29.5L31 31V29.5L30.5 26L28 17L27 15.5H24L23.5 13.5Z"
            fill="white" />
        <path id="Vector"
            d="M5.70999 36.67C5.54999 36.6 5.38999 36.53 5.22999 36.45C4.63999 36.11 4.29999 35.6 4.26999 34.91C4.24999 34.5 4.26999 34.08 4.26999 33.6C3.98999 33.6 3.64999 33.61 3.30999 33.6C1.54999 33.56 0.239993 32.41 0.0199926 30.67C-0.0300074 30.29 0.00999257 29.88 0.0899926 29.5C0.949993 25.5 1.82999 21.51 2.69999 17.51C3.02999 15.99 4.14999 15.01 5.77999 14.81C6.30999 14.74 6.83999 14.66 7.34999 14.59C7.17999 13.89 6.98999 13.23 6.85999 12.55C6.45999 10.47 6.89999 8.5 7.84999 6.63C9.00999 4.33 10.65 2.43 12.82 1.01C14.81 -0.289996 16.82 -0.359995 18.83 0.940004C21.91 2.94 24 5.68001 24.88 9.27001C25.28 10.93 25.05 12.57 24.53 14.17C24.49 14.29 24.45 14.42 24.4 14.58C25.05 14.68 25.67 14.76 26.29 14.87C27.75 15.11 28.78 16.09 29.09 17.52C29.97 21.53 30.85 25.53 31.72 29.54C32.18 31.64 30.7 33.53 28.55 33.6C28.19 33.61 27.84 33.6 27.44 33.6C27.67 34.95 27.58 36.13 26.08 36.67C19.28 36.67 12.5 36.67 5.70999 36.67ZM7.61999 32.37C13.14 32.37 18.63 32.37 24.14 32.37C24.16 32.24 24.18 32.13 24.19 32.01C24.44 29.99 24.7 27.96 24.95 25.94C25.18 24.08 25.41 22.22 25.64 20.36C25.7 19.87 25.57 19.43 25.14 19.18C24.87 19.03 24.51 18.95 24.19 18.95C18.65 18.94 13.11 18.94 7.56999 18.94C7.46999 18.94 7.37999 18.94 7.27999 18.95C6.52999 19 6.04999 19.56 6.11999 20.32C6.16999 20.85 6.23999 21.39 6.30999 21.92C6.65999 24.73 7.00999 27.53 7.35999 30.34C7.44999 31.01 7.53999 31.68 7.61999 32.37ZM19.8 17.71C20.03 17.71 20.32 17.69 20.61 17.71C20.87 17.73 21.07 17.65 21.22 17.44C21.68 16.8 22.21 16.2 22.59 15.52C23.58 13.74 24.13 11.81 23.71 9.77001C22.99 6.25001 20.89 3.68 17.87 1.82C16.46 0.950004 15.07 1.05 13.69 1.9C11.66 3.15 10.16 4.87 9.04999 6.96C8.33999 8.29 7.86999 9.71 7.94999 11.24C8.06999 13.51 8.87999 15.51 10.37 17.23C10.79 17.72 11.4 17.86 12.05 17.63C10.04 16.05 9.21999 13.91 9.14999 11.43C9.12999 10.66 9.41999 10.04 9.97999 9.53C10.53 9.03 11.19 8.72001 11.89 8.5C14.25 7.78 16.64 7.75001 19.04 8.27001C20 8.48001 20.92 8.81 21.69 9.45C22.24 9.91 22.6 10.48 22.61 11.2C22.63 12.82 22.32 14.37 21.42 15.73C20.95 16.44 20.34 17.05 19.8 17.71ZM9.11999 17.71C8.72999 17.07 8.36999 16.48 7.99999 15.9C7.95999 15.83 7.82999 15.77 7.74999 15.78C7.04999 15.87 6.34999 15.96 5.65999 16.08C4.70999 16.24 4.11999 16.81 3.90999 17.74C3.52999 19.41 3.16999 21.09 2.79999 22.77C2.27999 25.17 1.73999 27.57 1.23999 29.97C0.999993 31.19 1.95999 32.35 3.19999 32.38C4.18999 32.41 5.17999 32.39 6.16999 32.39C6.22999 32.39 6.27999 32.37 6.33999 32.37C6.33999 32.25 6.34999 32.14 6.33999 32.04C6.16999 30.64 5.98999 29.25 5.81999 27.85C5.51999 25.44 5.19999 23.02 4.91999 20.6C4.72999 18.87 5.78999 17.73 7.51999 17.72C8.04999 17.71 8.56999 17.71 9.11999 17.71ZM22.65 17.73C23.34 17.73 23.98 17.69 24.62 17.74C26.04 17.84 27.03 19.03 26.86 20.44C26.45 23.88 26.01 27.31 25.58 30.74C25.51 31.28 25.45 31.82 25.39 32.37C26.55 32.37 27.66 32.41 28.77 32.36C29.62 32.32 30.33 31.58 30.51 30.74C30.65 30.09 30.42 29.49 30.29 28.87C29.49 25.16 28.68 21.46 27.86 17.75C27.65 16.82 27.06 16.25 26.11 16.08C25.42 15.96 24.72 15.87 24.02 15.78C23.95 15.77 23.83 15.81 23.79 15.87C23.42 16.47 23.06 17.06 22.65 17.73ZM15.87 35.45C18.16 35.45 20.46 35.45 22.75 35.45C23.68 35.45 24.61 35.45 25.55 35.45C25.83 35.45 26.07 35.38 26.21 35.12C26.62 34.36 26.2 33.61 25.35 33.61C19.04 33.61 12.74 33.61 6.42999 33.61C6.30999 33.61 6.17999 33.59 6.06999 33.62C5.90999 33.68 5.64999 33.76 5.62999 33.87C5.55999 34.28 5.49999 34.72 5.58999 35.11C5.65999 35.46 6.04999 35.45 6.36999 35.45C9.53999 35.45 12.7 35.45 15.87 35.45ZM15.87 9.15C14.56 9.12 13.28 9.32001 12.04 9.76C11.88 9.81001 11.75 9.86 11.81 10.08C12.13 11.42 12.53 12.73 13.36 13.86C13.81 14.48 14.38 14.97 15.14 15.17C16.36 15.5 17.53 15.05 18.39 13.91C19.25 12.77 19.65 11.44 19.98 10.07C20.04 9.82 19.86 9.8 19.71 9.75C18.46 9.33 17.18 9.13 15.87 9.15ZM21.14 10.67C21.1 10.7 21.09 10.7 21.09 10.71C21.05 10.84 21.01 10.96 20.98 11.09C20.65 12.29 20.21 13.45 19.49 14.48C17.6 17.19 14.2 17.2 12.3 14.49C11.72 13.66 11.32 12.75 11.01 11.79C10.89 11.42 10.79 11.05 10.67 10.66C9.85999 11.64 10.83 14.83 12.32 16.26C14.31 18.15 17.27 18.21 19.3 16.4C20.89 14.97 21.94 11.72 21.14 10.67Z"
            fill="black" />
        <path id="Vector_2"
            d="M19.8 17.71C20.35 17.05 20.95 16.44 21.42 15.74C22.33 14.38 22.63 12.82 22.61 11.21C22.6 10.48 22.24 9.90999 21.69 9.45999C20.92 8.80999 20 8.47999 19.04 8.26999C16.64 7.74999 14.25 7.77999 11.89 8.49999C11.19 8.70999 10.53 9.02999 9.98 9.52999C9.42 10.04 9.13 10.66 9.15 11.43C9.22 13.91 10.04 16.04 12.05 17.63C11.4 17.86 10.79 17.72 10.37 17.23C8.88 15.51 8.07 13.51 7.95 11.24C7.87 9.70999 8.35 8.28999 9.05 6.95999C10.15 4.86999 11.66 3.14999 13.69 1.89999C15.07 1.04999 16.46 0.949988 17.87 1.81999C20.89 3.67999 22.99 6.24999 23.71 9.76999C24.13 11.81 23.57 13.73 22.59 15.52C22.21 16.2 21.68 16.8 21.22 17.44C21.07 17.65 20.87 17.73 20.61 17.71C20.32 17.7 20.03 17.71 19.8 17.71Z"
            fill="url(#paint0_linear_54_280)" />
        <path id="Vector_3"
            d="M15.88 22.61C17.57 22.61 18.94 23.97 18.94 25.65C18.95 27.34 17.56 28.73 15.87 28.72C14.19 28.71 12.83 27.35 12.82 25.66C12.82 23.99 14.2 22.61 15.88 22.61ZM15.89 23.84C14.89 23.84 14.06 24.65 14.06 25.65C14.06 26.67 14.88 27.5 15.89 27.5C16.89 27.5 17.71 26.69 17.72 25.69C17.73 24.67 16.91 23.84 15.89 23.84Z"
            fill="black" />
        <path id="Vector_4"
            d="M15.89 23.84C16.92 23.84 17.73 24.67 17.72 25.68C17.71 26.68 16.89 27.49 15.89 27.49C14.88 27.49 14.05 26.66 14.06 25.64C14.06 24.65 14.89 23.83 15.89 23.84Z"
            fill="url(#paint1_linear_54_280)" />
    </g>
</svg>
