<svg width="20" height="20" viewBox="0 0 20 20" fill="none" xmlns="http://www.w3.org/2000/svg">
    <path fill-rule="evenodd" clip-rule="evenodd"
        d="M15.0676 6.30371C15.4128 6.30371 15.6926 6.58353 15.6926 6.92871V11.6636C15.6926 12.0088 15.4128 12.2886 15.0676 12.2886C14.7224 12.2886 14.4426 12.0088 14.4426 11.6636V6.92871C14.4426 6.58353 14.7224 6.30371 15.0676 6.30371Z"
        fill="#FE4545" />
    <path fill-rule="evenodd" clip-rule="evenodd"
        d="M12.0101 9.29614C12.0101 8.95096 12.29 8.67114 12.6351 8.67114H17.5C17.8452 8.67114 18.125 8.95096 18.125 9.29614C18.125 9.64132 17.8452 9.92114 17.5 9.92114H12.6351C12.29 9.92114 12.0101 9.64132 12.0101 9.29614Z"
        fill="#FE4545" />
    <path
        d="M8.125 8.59649C9.57839 8.59649 10.7566 7.41829 10.7566 5.9649C10.7566 4.51152 9.57839 3.33331 8.125 3.33331C6.67161 3.33331 5.49341 4.51152 5.49341 5.9649C5.49341 7.41829 6.67161 8.59649 8.125 8.59649Z"
        fill="#FE4545" />
    <path
        d="M8.12504 10.6798C4.90753 10.6798 2.25788 12.9831 1.91301 15.9442C1.87098 16.3051 2.16956 16.6009 2.53291 16.6009H13.7172C14.0805 16.6009 14.3791 16.3051 14.337 15.9442C13.9922 12.9831 11.3425 10.6798 8.12504 10.6798Z"
        fill="#FE4545" />
</svg>
