<svg width="80" height="80" viewBox="0 0 80 80" fill="none" xmlns="http://www.w3.org/2000/svg">
    <g clip-path="url(#clip0_6834_11636)">
        <path
            d="M58.2997 37.1482H52.0997V26.4843C52.0997 19.8521 46.7041 14.4565 40.0719 14.4565C33.4396 14.4565 28.044 19.8521 28.044 26.4843V37.1482H21.844V26.4843C21.844 16.4334 30.0211 8.25646 40.0719 8.25646C50.1227 8.25646 58.2997 16.4334 58.2997 26.4843V37.1482Z"
            fill="#CACACA" />
        <path
            d="M58.2996 26.4843V37.1482H52.0996V34.2962C54.5798 33.3042 55.5716 31.3203 55.5716 28.5923V26.4843C55.5716 16.8918 48.1243 9.00673 38.7078 8.30727C38.8082 8.29993 38.9086 8.29366 39.0103 8.2874C39.0302 8.2862 39.05 8.285 39.0698 8.2838C39.1406 8.28006 39.2124 8.27633 39.2831 8.2738C39.3116 8.2726 39.3402 8.2714 39.3687 8.27007C39.4083 8.26887 39.4492 8.26633 39.4903 8.26633C39.5695 8.2626 39.649 8.2614 39.7283 8.2602C39.8423 8.25766 39.9578 8.25646 40.0718 8.25646C50.1231 8.25646 58.2996 16.433 58.2996 26.4843Z"
            fill="#E9E9E9" />
        <path
            d="M59.4771 71H20.6667C19.194 71 18 69.8061 18 68.3334V37.583C18 36.1103 19.194 34.9163 20.6667 34.9163H59.4771C60.9497 34.9163 62.1437 36.1103 62.1437 37.583V68.3334C62.1437 69.8061 60.9497 71 59.4771 71Z"
            fill="#E9E9E9" />
        <path
            d="M44.5297 58.6447C44.728 59.8909 43.7657 61.0181 42.5046 61.0181H37.639C36.378 61.0181 35.4157 59.8909 35.614 58.6447L36.306 54.3023C35.2644 53.3078 34.6158 51.9066 34.6158 50.3541C34.6158 47.341 37.0586 44.8982 40.0718 44.8982C43.085 44.8982 45.5278 47.341 45.5278 50.3541C45.5278 51.9066 44.8793 53.3078 43.8377 54.3023L44.5297 58.6447Z"
            fill="#FE4545" />
        <path
            d="M62.1438 37.3963V68.5202C62.1438 69.8903 61.0339 71 59.6637 71H27.9199C40.8159 71 54.5799 68.8922 54.5799 54.0122V41.3643C54.5799 37.8031 51.6931 34.9163 48.1318 34.9163H59.6637C61.0339 34.9163 62.1438 36.0262 62.1438 37.3963Z"
            fill="#CACACA" />
        <path
            d="M20.1079 37.9642V54.5081C20.1079 54.5081 25.5652 41.0667 36.8844 37.0242H21.0478C20.5287 37.0242 20.1079 37.445 20.1079 37.9642Z"
            fill="#CACACA" />
        <path
            d="M35.3598 50.6644C35.3598 52.2168 36.0084 53.618 37.05 54.6124L36.358 58.9548C36.2266 59.7782 36.6036 60.5508 37.2372 60.9785C36.1806 60.7702 35.438 59.7546 35.614 58.6449L36.306 54.3025C35.2644 53.308 34.6158 51.9068 34.6158 50.3542C34.6158 47.3412 37.0586 44.8984 40.0718 44.8984C40.9584 44.8984 41.7966 45.1104 42.5369 45.4861C41.9964 45.305 41.4173 45.2084 40.8158 45.2084C37.8026 45.2084 35.3598 47.6512 35.3598 50.6644Z"
            fill="#E71313" />
        <path
            d="M36.3519 9.62058C36.3519 9.62058 23.8279 12.0326 22.8359 25.6165H25.1919C25.1919 25.6165 25.6879 14.8257 36.3519 9.62058Z"
            fill="#CACACA" />
    </g>
    <defs>
        <clipPath id="clip0_6834_11636">
            <rect width="80" height="80" fill="white" />
        </clipPath>
    </defs>
</svg>
