<svg width="20" height="20" viewBox="0 0 20 20" fill="none" xmlns="http://www.w3.org/2000/svg">
    <path fill-rule="evenodd" clip-rule="evenodd"
        d="M9.99996 18.3334C14.6025 18.3334 18.3333 14.6025 18.3333 10C18.3333 5.39752 14.6025 1.66669 9.99996 1.66669C5.39746 1.66669 1.66663 5.39752 1.66663 10C1.66663 14.6025 5.39746 18.3334 9.99996 18.3334ZM12.9466 7.05335C13.1031 6.8971 13.3152 6.8094 13.5364 6.80956C13.7575 6.80971 13.9695 6.89771 14.1258 7.05419C14.282 7.21066 14.3697 7.42281 14.3696 7.64394C14.3694 7.86508 14.2814 8.0771 14.125 8.23335L9.41413 12.9442L9.41079 12.9475C9.33358 13.0252 9.24178 13.0868 9.14067 13.1288C9.03956 13.1709 8.93113 13.1925 8.82163 13.1925C8.71212 13.1925 8.60369 13.1709 8.50258 13.1288C8.40147 13.0868 8.30967 13.0252 8.23246 12.9475L8.22913 12.9442L5.87496 10.59C5.79537 10.5131 5.73188 10.4212 5.68821 10.3195C5.64453 10.2179 5.62155 10.1085 5.62058 9.99785C5.61962 9.88721 5.64071 9.77747 5.68261 9.67506C5.72451 9.57265 5.78639 9.4796 5.86463 9.40136C5.94287 9.32311 6.03592 9.26124 6.13833 9.21934C6.24074 9.17743 6.35048 9.15635 6.46113 9.15731C6.57178 9.15827 6.68113 9.18126 6.7828 9.22494C6.88447 9.26861 6.97642 9.33209 7.05329 9.41169L8.82163 11.1792L12.9466 7.05335Z"
        fill="#FE4545" />
</svg>
