<svg width="20" height="20" viewBox="0 0 20 20" fill="none" xmlns="http://www.w3.org/2000/svg">
    <path
        d="M14.1667 7.50002H7.50004V5.83335C7.50004 5.16669 7.75004 4.58335 8.25004 4.08335C9.25004 3.08335 10.8334 3.08335 11.75 4.08335C12.0834 4.41669 12.25 4.83335 12.4167 5.25002C12.5 5.66669 13 5.91669 13.4167 5.83335C13.8334 5.75002 14.1667 5.25002 14 4.83335C13.8334 4.08335 13.4167 3.41669 12.9167 2.91669C12.1667 2.08335 11.0834 1.66669 10 1.66669C7.66671 1.66669 5.83337 3.50002 5.83337 5.83335V7.50002C4.41671 7.50002 3.33337 8.58335 3.33337 10V15.8334C3.33337 17.25 4.41671 18.3334 5.83337 18.3334H14.1667C15.5834 18.3334 16.6667 17.25 16.6667 15.8334V10C16.6667 8.58335 15.5834 7.50002 14.1667 7.50002ZM10.9167 12.9167L10.8334 13V14.1667C10.8334 14.6667 10.5 15 10 15C9.50004 15 9.16671 14.6667 9.16671 14.1667V13C8.66671 12.5 8.58337 11.75 9.08337 11.25C9.58337 10.75 10.3334 10.6667 10.8334 11.1667C11.3334 11.5834 11.4167 12.4167 10.9167 12.9167Z"
        fill="#FE4545" />
</svg>
