<svg width="14" height="13" viewBox="0 0 14 13" fill="none" xmlns="http://www.w3.org/2000/svg">
    <path id="Vector"
        d="M10.7286 12.4658C10.2804 12.7851 7.40422 10.7612 6.85337 10.7568C6.30253 10.7524 3.394 12.7297 2.95099 12.4033C2.50797 12.0768 3.54948 8.72379 3.3835 8.20004C3.21752 7.6763 0.432789 5.52898 0.607226 5.00796C0.781703 4.48694 4.30153 4.43855 4.74978 4.11927C5.19803 3.80003 6.38552 0.495595 6.9364 0.500004C7.48721 0.504453 8.62105 3.82757 9.06407 4.15401C9.50709 4.48042 13.0257 4.58549 13.1917 5.10924C13.3577 5.63298 10.5386 7.7352 10.3642 8.25622C10.1897 8.77724 11.1769 12.1466 10.7286 12.4658Z"
        fill="#FFBE0B" />
</svg>
