<svg width="80" height="80" viewBox="0 0 80 80" fill="none" xmlns="http://www.w3.org/2000/svg">
    <defs>
        <filter id="filter0_d_3049_39629" x="30.413" y="46.1939" width="14.4681" height="11.5122"
            filterUnits="userSpaceOnUse" color-interpolation-filters="sRGB">
            <feFlood flood-opacity="0" result="BackgroundImageFix" />
            <feColorMatrix in="SourceAlpha" type="matrix"
                values="0 0 0 0 0 0 0 0 0 0 0 0 0 0 0 0 0 0 127 0" result="hardAlpha" />
            <feOffset dy="0.131413" />
            <feGaussianBlur stdDeviation="0.0876089" />
            <feColorMatrix type="matrix"
                values="0 0 0 0 0.756863 0 0 0 0 0.0784314 0 0 0 0 0.0784314 0 0 0 0.3 0" />
            <feBlend mode="normal" in2="BackgroundImageFix"
                result="effect1_dropShadow_3049_39629" />
            <feBlend mode="normal" in="SourceGraphic" in2="effect1_dropShadow_3049_39629"
                result="shape" />
        </filter>
        <linearGradient id="paint0_linear_3049_39629" x1="29.1443" y1="23.8024" x2="48.3946"
            y2="25.2269" gradientUnits="userSpaceOnUse">
            <stop stop-color="#FF006E" />
            <stop offset="0.497159" stop-color="#FB5607" />
            <stop offset="1" stop-color="#FFBE0B" />
        </linearGradient>
        <linearGradient id="paint1_linear_3049_39629" x1="20.7691" y1="46.9039" x2="58.2675"
            y2="52.3952" gradientUnits="userSpaceOnUse">
            <stop stop-color="#FF006E" />
            <stop offset="0.497159" stop-color="#FB5607" />
            <stop offset="1" stop-color="#FFBE0B" />
        </linearGradient>
        <linearGradient id="paint2_linear_3049_39629" x1="35.5563" y1="52.7492" x2="35.57"
            y2="52.9763" gradientUnits="userSpaceOnUse">
            <stop stop-color="#FD4545" />
            <stop offset="1" stop-color="white" />
        </linearGradient>
        <linearGradient id="paint3_linear_3049_39629" x1="40.3767" y1="51.4535" x2="36.5094"
            y2="51.9702" gradientUnits="userSpaceOnUse">
            <stop stop-color="#FD4545" />
            <stop offset="0.08" stop-color="#FD5A5A" />
            <stop offset="0.32" stop-color="#FD9494" />
            <stop offset="0.54" stop-color="#FEC2C2" />
            <stop offset="0.73" stop-color="#FEE3E3" />
            <stop offset="0.89" stop-color="#FEF7F7" />
            <stop offset="1" stop-color="white" />
        </linearGradient>
        <linearGradient id="paint4_linear_3049_39629" x1="35.5132" y1="52.5163" x2="35.5876"
            y2="55.9042" gradientUnits="userSpaceOnUse">
            <stop stop-color="#FD4545" />
            <stop offset="0.15" stop-color="#FD7373" />
            <stop offset="0.34" stop-color="#FEA5A5" />
            <stop offset="0.52" stop-color="#FECCCC" />
            <stop offset="0.68" stop-color="#FEE8E8" />
            <stop offset="0.82" stop-color="#FEF9F9" />
            <stop offset="0.92" stop-color="white" />
        </linearGradient>
        <linearGradient id="paint5_linear_3049_39629" x1="35.5661" y1="52.573" x2="35.5661"
            y2="49.4298" gradientUnits="userSpaceOnUse">
            <stop stop-color="#FD4545" />
            <stop offset="1" stop-color="white" />
        </linearGradient>
        <linearGradient id="paint6_linear_3049_39629" x1="39.7406" y1="51.4125" x2="42.5785"
            y2="50.8195" gradientUnits="userSpaceOnUse">
            <stop stop-color="#FD4545" />
            <stop offset="0.22" stop-color="#FD7A7A" />
            <stop offset="0.49" stop-color="#FEB2B2" />
            <stop offset="0.71" stop-color="#FEDCDC" />
            <stop offset="0.89" stop-color="#FEF5F5" />
            <stop offset="1" stop-color="white" />
        </linearGradient>
        <linearGradient id="paint7_linear_3049_39629" x1="66.2819" y1="44.5943" x2="79.1154"
            y2="45.5441" gradientUnits="userSpaceOnUse">
            <stop stop-color="#FF006E" />
            <stop offset="0.497159" stop-color="#FB5607" />
            <stop offset="1" stop-color="#FFBE0B" />
        </linearGradient>
    </defs>
    <g id="Frame 1171279597">
        <g id="Group 1171278723">
            <g id="Group 1171278719">
                <g id="Group 1171278718">
                    <path id="Vector"
                        d="M16.3527 43.3252C20.4787 43.3252 23.8236 39.9951 23.8236 35.8872C23.8236 31.7793 20.4787 28.4492 16.3527 28.4492C12.2266 28.4492 8.88171 31.7793 8.88171 35.8872C8.88171 39.9951 12.2266 43.3252 16.3527 43.3252Z"
                        fill="#AAAAAA" stroke="#F5F6FB" stroke-width="0.732028" />
                </g>
                <path id="Rectangle 13800"
                    d="M1.5686 55.5565C1.5686 50.4445 5.71274 46.3004 10.8248 46.3004H21.8805C26.9925 46.3004 31.1367 50.4445 31.1367 55.5565V58.091C31.1367 59.795 29.7553 61.1764 28.0513 61.1764H4.654C2.94998 61.1764 1.5686 59.795 1.5686 58.091V55.5565Z"
                    fill="#AAAAAA" stroke="#F5F6FB" stroke-width="0.732028" />
            </g>
            <g id="Group 1171278720">
                <g id="Group 1171278717">
                    <path id="Vector_2"
                        d="M59.0478 43.3252C63.1739 43.3252 66.5187 39.9951 66.5187 35.8872C66.5187 31.7793 63.1739 28.4492 59.0478 28.4492C54.9217 28.4492 51.5768 31.7793 51.5768 35.8872C51.5768 39.9951 54.9217 43.3252 59.0478 43.3252Z"
                        fill="#AAAAAA" stroke="#F5F6FB" stroke-width="0.732028" />
                </g>
                <path id="Rectangle 13799"
                    d="M44.2637 55.5565C44.2637 50.4445 48.4079 46.3004 53.5199 46.3004H64.5756C69.6877 46.3004 73.8318 50.4445 73.8318 55.5565V58.091C73.8318 59.795 72.4504 61.1764 70.7464 61.1764H47.3491C45.6451 61.1764 44.2637 59.795 44.2637 58.091V55.5565Z"
                    fill="#AAAAAA" stroke="#F5F6FB" stroke-width="0.732028" />
            </g>
            <g id="Group 1171278721">
                <g id="Group 1171278716">
                    <path id="Vector_3"
                        d="M37.7003 38.0749C43.0399 38.0749 47.3685 33.7653 47.3685 28.4492C47.3685 23.1331 43.0399 18.8235 37.7003 18.8235C32.3606 18.8235 28.032 23.1331 28.032 28.4492C28.032 33.7653 32.3606 38.0749 37.7003 38.0749Z"
                        fill="url(#paint0_linear_3049_39629)" stroke="#F5F6FB"
                        stroke-width="1.46406" />
                </g>
                <path id="Rectangle 13798"
                    d="M18.568 53.9037C18.568 47.2881 23.931 41.9251 30.5466 41.9251H44.854C51.4696 41.9251 56.8326 47.2881 56.8326 53.9037V57.1836C56.8326 59.3888 55.0449 61.1765 52.8397 61.1765H22.5609C20.3557 61.1765 18.568 59.3888 18.568 57.1836V53.9037Z"
                    fill="url(#paint1_linear_3049_39629)" stroke="#F5F6FB" stroke-width="1.46406" />
                <g id="Group" filter="url(#filter0_d_3049_39629)">
                    <g id="Group_2">
                        <path id="Vector_4"
                            d="M36.2491 52.7433V52.7962L34.883 53.0741V53.0193L36.2491 52.7433Z"
                            fill="url(#paint2_linear_3049_39629)" />
                        <path id="Vector_5"
                            d="M39.0419 50.8409V52.2325L36.2491 52.7962V51.4046L39.0419 50.8409Z"
                            fill="url(#paint3_linear_3049_39629)" />
                        <path id="Vector_6"
                            d="M36.2491 52.7961V56.7164C36.2491 56.9806 36.0945 57.2233 35.8557 57.3349C35.7637 57.3779 35.6639 57.3995 35.568 57.3995C35.4095 57.3995 35.2529 57.3447 35.1276 57.239L34.883 57.0335V53.0721L36.2491 52.7961Z"
                            fill="url(#paint4_linear_3049_39629)" />
                        <path id="Vector_7"
                            d="M36.2491 51.4046V52.7981L34.883 53.0741L32.7908 53.4968L33.9045 54.4343L34.8811 55.2544V57.0374L32.1939 54.7808L30.8376 53.6417C30.8376 53.6417 30.8318 53.6358 30.8278 53.6338C30.82 53.626 30.8083 53.6182 30.8004 53.6084C30.7907 53.6006 30.7828 53.5908 30.773 53.583C30.7652 53.5751 30.7574 53.5653 30.7496 53.5556C30.7496 53.5556 30.7476 53.5556 30.7456 53.5516C30.7378 53.5438 30.73 53.534 30.7241 53.5262C30.7163 53.5164 30.7085 53.5066 30.7026 53.4968C30.6948 53.4851 30.6889 53.4753 30.683 53.4636C30.6771 53.4538 30.6713 53.444 30.6654 53.4323C30.6576 53.4205 30.6537 53.4107 30.6497 53.399C30.6497 53.399 30.6497 53.399 30.6478 53.3951C30.64 53.3755 30.6302 53.354 30.6243 53.3344C30.6223 53.3266 30.6184 53.3207 30.6165 53.3148C30.6165 53.3109 30.6126 53.307 30.6126 53.3011C30.6106 53.2933 30.6086 53.2855 30.6067 53.2796C30.6067 53.2776 30.6067 53.2757 30.6067 53.2718C30.6067 53.2639 30.6028 53.2542 30.6008 53.2463C30.5989 53.2326 30.5969 53.2228 30.5949 53.2111C30.5949 53.2013 30.593 53.1876 30.591 53.1778C30.5891 53.1485 30.5871 53.1171 30.5891 53.0878C30.5891 53.0819 30.5891 53.076 30.5891 53.0702C30.5891 53.0486 30.593 53.0271 30.5949 53.0056C30.5949 52.9978 30.5989 52.9919 30.5989 52.9841C30.6008 52.9704 30.6047 52.9567 30.6086 52.943C30.6126 52.9273 30.6165 52.9116 30.6223 52.896C30.6223 52.8921 30.6263 52.8862 30.6282 52.8803C30.6321 52.8725 30.636 52.8627 30.638 52.8549C30.6419 52.8431 30.6478 52.8314 30.6537 52.8216C30.6556 52.8157 30.6595 52.8099 30.6615 52.802C30.6654 52.7942 30.6693 52.7864 30.6752 52.7766C30.6791 52.7688 30.685 52.7609 30.6908 52.7531C30.6908 52.7531 30.6908 52.7531 30.6908 52.7512C30.6948 52.7433 30.7006 52.7355 30.7065 52.7277C30.7202 52.7061 30.7359 52.6866 30.7535 52.667C30.7574 52.6631 30.7613 52.6592 30.7652 52.6533C30.7828 52.6337 30.8024 52.6161 30.822 52.5965C30.8298 52.5907 30.8357 52.5867 30.8415 52.5809C30.8455 52.577 30.8513 52.573 30.8572 52.5691C30.8631 52.5672 30.867 52.5613 30.8729 52.5574C30.8787 52.5515 30.8866 52.5476 30.8924 52.5437C30.9081 52.5319 30.9277 52.5222 30.9453 52.5124C30.9492 52.5085 30.9531 52.5065 30.959 52.5045C30.9648 52.5026 30.9688 52.5006 30.9746 52.4967C31.0001 52.485 31.0255 52.4732 31.0549 52.4654C31.0607 52.4634 31.0686 52.4615 31.0744 52.4576C31.094 52.4497 31.1155 52.4458 31.1371 52.4419L34.8869 51.6845L36.253 51.4085L36.2491 51.4046Z"
                            fill="white" />
                        <path id="Vector_8"
                            d="M39.0419 54.3306L40.4061 54.0546V56.6127C40.4061 56.9885 40.1008 57.2957 39.723 57.2957C39.3453 57.2957 39.04 56.9904 39.04 56.6127"
                            fill="white" />
                        <path id="Vector_9"
                            d="M36.2491 47.0244V51.4046L34.883 51.6805V47.0244C34.883 46.6486 35.1883 46.3413 35.5661 46.3413C35.9438 46.3413 36.2491 46.6466 36.2491 47.0244Z"
                            fill="url(#paint5_linear_3049_39629)" />
                        <path id="Vector_10"
                            d="M40.4081 48.4081V51.9565V54.0547L39.0419 54.3306V48.6841L40.4081 48.4081Z"
                            fill="white" />
                    </g>
                    <path id="Vector_11"
                        d="M44.7059 50.5259V50.5533C44.7059 50.5533 44.7059 50.565 44.7059 50.5709C44.7059 50.5963 44.702 50.6218 44.6961 50.6472C44.6961 50.657 44.6922 50.6668 44.6902 50.6746C44.6863 50.6962 44.6804 50.7157 44.6746 50.7353C44.6726 50.7431 44.6707 50.751 44.6667 50.7588C44.6628 50.7686 44.6609 50.7764 44.657 50.7862C44.653 50.7979 44.6472 50.8097 44.6413 50.8195C44.6393 50.8253 44.6354 50.8312 44.6315 50.839C44.6276 50.8469 44.6217 50.8547 44.6178 50.8645C44.6139 50.8723 44.608 50.8801 44.6041 50.888C44.6041 50.888 44.6041 50.8886 44.6041 50.8899C44.6041 50.8899 44.5943 50.9056 44.5885 50.9134C44.5787 50.9271 44.5689 50.9408 44.5591 50.9545C44.5552 50.9584 44.5493 50.9643 44.5454 50.9682C44.5082 51.0132 44.4652 51.0524 44.4182 51.0856C44.4064 51.0935 44.3947 51.1013 44.383 51.1091C44.3693 51.1189 44.3536 51.1248 44.3379 51.1326C44.3321 51.1365 44.3262 51.1385 44.3203 51.1424C44.2714 51.1659 44.2166 51.1835 44.1598 51.1952L40.4119 51.9546V50.5631L42.1068 50.2206H42.1088L42.5021 50.1403H42.5002L44.2107 49.7919L44.4554 49.9994C44.4554 49.9994 44.4652 50.0053 44.4671 50.0092C44.4769 50.017 44.4847 50.0248 44.4926 50.0327C44.5023 50.0425 44.5121 50.0503 44.52 50.0601C44.5278 50.0699 44.5356 50.0757 44.5434 50.0855C44.5434 50.0875 44.5474 50.0894 44.5474 50.0914C44.5532 50.1012 44.5611 50.109 44.5689 50.1188C44.5826 50.1384 44.5982 50.1579 44.61 50.1814C44.6159 50.1912 44.6217 50.2029 44.6276 50.2127C44.6335 50.2245 44.6393 50.2343 44.6433 50.246C44.6472 50.2519 44.6491 50.2597 44.653 50.2656C44.657 50.2734 44.6589 50.2812 44.6628 50.2891C44.6667 50.2969 44.6687 50.3047 44.6726 50.3145C44.6765 50.3262 44.6785 50.336 44.6824 50.3478C44.6824 50.3497 44.6824 50.3536 44.6844 50.3556C44.6844 50.3615 44.6883 50.3673 44.6883 50.3732C44.6902 50.381 44.6922 50.3869 44.6922 50.3947C44.6922 50.3947 44.6922 50.3954 44.6922 50.3967C44.6922 50.3967 44.6922 50.4006 44.6922 50.4026C44.6941 50.4104 44.6961 50.4182 44.6961 50.428C44.6961 50.43 44.6961 50.4319 44.6961 50.4358C44.6961 50.4456 44.6981 50.4554 44.7 50.4632C44.7 50.475 44.702 50.4848 44.702 50.4946C44.702 50.5063 44.702 50.5181 44.702 50.5278L44.7059 50.5259Z"
                        fill="url(#paint6_linear_3049_39629)" />
                    <path id="Vector_12"
                        d="M44.2068 49.7919L42.4963 50.1403L42.324 49.9954L41.3846 49.2067L40.408 48.3866V48.4101L39.0439 48.6861V49.6803V46.9207C39.0439 46.6564 39.1985 46.4138 39.4392 46.3022C39.678 46.1887 39.9618 46.2278 40.1653 46.3981L43.0971 48.8602L43.283 49.0168L44.2088 49.7938L44.2068 49.7919Z"
                        fill="white" />
                </g>
            </g>
            <ellipse id="Ellipse 2085" cx="71.9859" cy="47.6923" rx="6.44551" ry="6.41712"
                fill="url(#paint7_linear_3049_39629)" />
            <g id="Group 1171278722">
                <path id="Vector 772" d="M75.2087 47.6923H68.7632" stroke="white"
                    stroke-width="1.09804" stroke-linecap="round" />
                <path id="Vector 773" d="M71.9858 50.9008V44.4836" stroke="white"
                    stroke-width="1.09804" stroke-linecap="round" />
            </g>
        </g>
    </g>
</svg>
