<svg width="25" height="24" viewBox="0 0 25 24" fill="none" xmlns="http://www.w3.org/2000/svg">
    <g clip-path="url(#clip0_2024_10)">
        <path
            d="M6.58588 23.9151C5.65758 23.9047 4.73801 23.7344 3.86753 23.4118C3.23187 23.1768 2.65676 22.8027 2.18424 22.3169C1.69712 21.8454 1.32251 21.2701 1.08824 20.6339C0.765824 19.7634 0.595808 18.8439 0.585647 17.9158C0.514353 16.3727 0.5 15.9099 0.5 12C0.5 8.09012 0.515765 7.62894 0.584941 6.08471C0.596335 5.15689 0.76656 4.23787 1.08824 3.36753C1.32365 2.73176 1.69773 2.15642 2.18329 1.68329C2.65523 1.19662 3.23061 0.822358 3.86682 0.588235C4.7373 0.265557 5.65687 0.0953008 6.58518 0.0849412C8.1287 0.0143529 8.59223 0 12.5 0C16.4078 0 16.8711 0.0157647 18.4153 0.0849412C19.3433 0.0962542 20.2626 0.266481 21.1332 0.588235C21.7691 0.822667 22.3443 1.1968 22.8165 1.68306C23.3029 2.15535 23.6772 2.73073 23.9118 3.36682C24.2345 4.23729 24.4049 5.15686 24.4153 6.08518C24.4859 7.62941 24.5002 8.09176 24.5002 12.0005C24.5002 15.9092 24.4859 16.3715 24.4153 17.9158C24.4041 18.8439 24.2338 19.7633 23.9118 20.6339C23.6682 21.2652 23.2951 21.8386 22.8166 22.317C22.338 22.7954 21.7646 23.1683 21.1332 23.4118C20.2627 23.7345 19.3431 23.9049 18.4148 23.9153C16.872 23.9859 16.4082 24.0002 12.4995 24.0002C8.59082 24.0002 8.12847 23.9866 6.58565 23.9153"
            fill="url(#paint0_radial_2024_10)" />
        <path
            d="M6.58588 23.9151C5.65758 23.9047 4.73801 23.7344 3.86753 23.4118C3.23187 23.1768 2.65676 22.8027 2.18424 22.3169C1.69712 21.8454 1.32251 21.2701 1.08824 20.6339C0.765824 19.7634 0.595808 18.8439 0.585647 17.9158C0.514353 16.3727 0.5 15.9099 0.5 12C0.5 8.09012 0.515765 7.62894 0.584941 6.08471C0.596335 5.15689 0.76656 4.23787 1.08824 3.36753C1.32365 2.73176 1.69773 2.15642 2.18329 1.68329C2.65523 1.19662 3.23061 0.822358 3.86682 0.588235C4.7373 0.265557 5.65687 0.0953008 6.58518 0.0849412C8.1287 0.0143529 8.59223 0 12.5 0C16.4078 0 16.8711 0.0157647 18.4153 0.0849412C19.3433 0.0962542 20.2626 0.266481 21.1332 0.588235C21.7691 0.822667 22.3443 1.1968 22.8165 1.68306C23.3029 2.15535 23.6772 2.73073 23.9118 3.36682C24.2345 4.23729 24.4049 5.15686 24.4153 6.08518C24.4859 7.62941 24.5002 8.09176 24.5002 12.0005C24.5002 15.9092 24.4859 16.3715 24.4153 17.9158C24.4041 18.8439 24.2338 19.7633 23.9118 20.6339C23.6682 21.2652 23.2951 21.8386 22.8166 22.317C22.338 22.7954 21.7646 23.1683 21.1332 23.4118C20.2627 23.7345 19.3431 23.9049 18.4148 23.9153C16.872 23.9859 16.4082 24.0002 12.4995 24.0002C8.59082 24.0002 8.12847 23.9866 6.58565 23.9153"
            fill="#CACACA" />
        <path
            d="M9.55336 12.051C9.55341 11.4632 9.72776 10.8886 10.0544 10.3999C10.381 9.91117 10.8452 9.53027 11.3883 9.30538C11.9314 9.08048 12.529 9.02169 13.1055 9.13643C13.682 9.25117 14.2115 9.53429 14.6271 9.94999C15.0427 10.3657 15.3257 10.8953 15.4403 11.4718C15.5549 12.0484 15.496 12.6459 15.271 13.189C15.0459 13.732 14.6649 14.1961 14.1761 14.5226C13.6873 14.8491 13.1127 15.0234 12.5249 15.0233C11.7367 15.0231 10.9808 14.7099 10.4236 14.1525C9.86632 13.5951 9.5533 12.8392 9.55336 12.051ZM7.94653 12.051C7.94653 12.9565 8.21505 13.8417 8.71813 14.5946C9.2212 15.3475 9.93624 15.9344 10.7728 16.2809C11.6094 16.6274 12.53 16.7181 13.4181 16.5414C14.3062 16.3648 15.122 15.9287 15.7623 15.2884C16.4026 14.6481 16.8386 13.8323 17.0153 12.9442C17.1919 12.0561 17.1013 11.1355 16.7547 10.299C16.4082 9.46238 15.8214 8.74734 15.0685 8.24426C14.3156 7.74119 13.4304 7.47267 12.5249 7.47267C11.9236 7.47264 11.3283 7.59104 10.7728 7.82112C10.2173 8.05119 9.71258 8.38842 9.28743 8.81357C8.86229 9.23872 8.52505 9.74344 8.29498 10.2989C8.06491 10.8544 7.9465 11.4498 7.94653 12.051ZM16.2145 7.29126C16.2144 7.50286 16.2771 7.70974 16.3946 7.88574C16.5121 8.06173 16.6791 8.19893 16.8746 8.27999C17.07 8.36106 17.2851 8.38234 17.4927 8.34115C17.7002 8.29996 17.8909 8.19814 18.0406 8.04858C18.1903 7.89902 18.2923 7.70844 18.3336 7.50092C18.375 7.2934 18.3539 7.07827 18.273 6.88274C18.1921 6.68721 18.0551 6.52006 17.8792 6.40242C17.7033 6.28479 17.4965 6.22195 17.2849 6.22185C17.0013 6.22198 16.7293 6.33467 16.5287 6.53518C16.3281 6.7357 16.2153 7.00763 16.215 7.29126M8.92324 19.3087C8.35786 19.3025 7.79776 19.199 7.26747 19.0028C6.8829 18.8546 6.53363 18.6275 6.24214 18.3361C5.95064 18.0447 5.72339 17.6955 5.575 17.311C5.37871 16.7808 5.27524 16.2207 5.26912 15.6553C5.22583 14.7155 5.21736 14.4331 5.21736 12.0522C5.21736 9.67126 5.22677 9.38962 5.26912 8.44891C5.27598 7.88359 5.37943 7.3236 5.575 6.79314C5.72322 6.40845 5.95041 6.05909 6.24191 5.76759C6.53342 5.47608 6.88278 5.24889 7.26747 5.10067C7.79773 4.90439 8.35785 4.80092 8.92324 4.79479C9.863 4.7515 10.1454 4.74303 12.5254 4.74303C14.9054 4.74303 15.1879 4.75221 16.1286 4.79503C16.694 4.80189 17.254 4.90534 17.7844 5.10091C18.1691 5.24914 18.5185 5.47633 18.81 5.76784C19.1015 6.05934 19.3287 6.4087 19.4769 6.79338C19.6732 7.32364 19.7766 7.88376 19.7828 8.44915C19.8261 9.39032 19.8345 9.67126 19.8345 12.0524C19.8345 14.4336 19.8258 14.715 19.7828 15.6557C19.7762 16.2211 19.6727 16.7811 19.4769 17.3115C19.3285 17.696 19.1012 18.0452 18.8098 18.3366C18.5183 18.6279 18.169 18.855 17.7844 19.0033C17.2542 19.1995 16.694 19.303 16.1286 19.3091C15.1889 19.3524 14.9065 19.3609 12.5254 19.3609C10.1442 19.3609 9.86277 19.3522 8.92324 19.3091M8.84936 3.18938C8.10955 3.20393 7.37758 3.34395 6.68465 3.60349C6.0923 3.83252 5.55434 4.18281 5.10527 4.63188C4.65619 5.08095 4.30591 5.61891 4.07688 6.21126C3.81737 6.90421 3.67735 7.63617 3.66277 8.37597C3.61877 9.32656 3.60889 9.63055 3.60889 12.052C3.60889 14.4734 3.61901 14.7771 3.66277 15.728C3.67735 16.4678 3.81737 17.1997 4.07688 17.8927C4.30592 18.485 4.65621 19.023 5.10528 19.472C5.55435 19.9211 6.09231 20.2714 6.68465 20.5004C7.37762 20.7599 8.10957 20.8999 8.84936 20.9146C9.80042 20.9579 10.1039 20.9684 12.5254 20.9684C14.9468 20.9684 15.2505 20.9583 16.2014 20.9146C16.9412 20.8999 17.6731 20.7599 18.3661 20.5004C18.9584 20.2714 19.4964 19.9211 19.9454 19.472C20.3945 19.023 20.7448 18.485 20.9738 17.8927C21.2337 17.1998 21.3737 16.4678 21.3879 15.728C21.4312 14.7767 21.4411 14.4734 21.4411 12.052C21.4411 9.63055 21.431 9.32679 21.3879 8.37597C21.3734 7.63617 21.2334 6.9042 20.9738 6.21126C20.7448 5.61902 20.3946 5.08115 19.9457 4.63209C19.4967 4.18303 18.9589 3.83268 18.3668 3.60349C17.6739 3.34378 16.9419 3.20375 16.2021 3.18938C15.2512 3.14585 14.9475 3.1355 12.5265 3.1355C10.1056 3.1355 9.80112 3.14562 8.84983 3.18938"
            fill="white" />
    </g>
    <defs>
        <radialGradient id="paint0_radial_2024_10" cx="0" cy="0" r="1"
            gradientUnits="userSpaceOnUse"
            gradientTransform="translate(2.05318 23.4744) scale(30.4711)">
            <stop offset="0.09" stop-color="#CACACA" />
            <stop offset="0.78" stop-color="#D82D7E" />
        </radialGradient>
        <clipPath id="clip0_2024_10">
            <rect width="24" height="24" fill="white" transform="translate(0.5)" />
        </clipPath>
    </defs>
</svg>
