<svg width="12" height="12" viewBox="0 0 12 12" fill="none" xmlns="http://www.w3.org/2000/svg">
    <path
        d="M8.9483 2.01833C8.8099 2.01833 8.6745 2.05939 8.5594 2.1363C8.4443 2.21322 8.3546 2.32255 8.3016 2.45045C8.2486 2.57836 8.2348 2.71911 8.2618 2.8549C8.2888 2.99068 8.3555 3.11541 8.4534 3.21331C8.5513 3.3112 8.676 3.37787 8.8118 3.40488C8.9476 3.43189 9.0883 3.41803 9.2162 3.36505C9.3441 3.31207 9.4534 3.22235 9.5304 3.10723C9.6073 2.99212 9.6483 2.85678 9.6483 2.71833C9.6483 2.53268 9.5746 2.35463 9.4433 2.22336C9.312 2.09208 9.134 2.01833 8.9483 2.01833ZM11.6317 3.43C11.6203 2.94601 11.5297 2.46715 11.3633 2.0125C11.215 1.62349 10.9842 1.27125 10.6867 0.98C10.3978 0.681 10.0447 0.4516 9.6542 0.30917C9.2007 0.13776 8.7213 0.0450398 8.2367 0.0349998C7.6183 -1.52737e-07 7.42 0 5.83333 0C4.24667 0 4.04833 -1.52737e-07 3.43 0.0349998C2.94534 0.0450398 2.46595 0.13776 2.0125 0.30917C1.62264 0.45304 1.26988 0.68224 0.98 0.98C0.681 1.26885 0.4516 1.62192 0.30917 2.0125C0.13776 2.46595 0.0450398 2.94534 0.0349998 3.43C-1.52737e-07 4.04833 0 4.24667 0 5.83333C0 7.42 -1.52737e-07 7.6183 0.0349998 8.2367C0.0450398 8.7213 0.13776 9.2007 0.30917 9.6542C0.4516 10.0447 0.681 10.3978 0.98 10.6867C1.26988 10.9844 1.62264 11.2136 2.0125 11.3575C2.46595 11.5289 2.94534 11.6216 3.43 11.6317C4.04833 11.6667 4.24667 11.6667 5.83333 11.6667C7.42 11.6667 7.6183 11.6667 8.2367 11.6317C8.7213 11.6216 9.2007 11.5289 9.6542 11.3575C10.0447 11.2151 10.3978 10.9857 10.6867 10.6867C10.9855 10.3965 11.2165 10.0439 11.3633 9.6542C11.5297 9.1995 11.6203 8.7207 11.6317 8.2367C11.6317 7.6183 11.6667 7.42 11.6667 5.83333C11.6667 4.24667 11.6667 4.04833 11.6317 3.43ZM10.5817 8.1667C10.5774 8.5369 10.5104 8.9038 10.3833 9.2517C10.2902 9.5055 10.1406 9.7349 9.9458 9.9225C9.7566 10.1153 9.5277 10.2646 9.275 10.36C8.9272 10.487 8.5603 10.5541 8.19 10.5583C7.6067 10.5875 7.3908 10.5933 5.85667 10.5933C4.3225 10.5933 4.10667 10.5933 3.52333 10.5583C3.13885 10.5655 2.75601 10.5063 2.39167 10.3833C2.15004 10.283 1.93162 10.1341 1.75 9.9458C1.55638 9.7584 1.40866 9.5289 1.31833 9.275C1.17592 8.9222 1.09693 8.547 1.085 8.1667C1.085 7.5833 1.05 7.3675 1.05 5.83333C1.05 4.29917 1.05 4.08333 1.085 3.5C1.08761 3.12145 1.15672 2.7463 1.28917 2.39167C1.39186 2.14545 1.54949 1.92597 1.75 1.75C1.92722 1.54943 2.14625 1.39014 2.39167 1.28333C2.74724 1.15503 3.122 1.08796 3.5 1.085C4.08333 1.085 4.29917 1.05 5.83333 1.05C7.3675 1.05 7.5833 1.05 8.1667 1.085C8.5369 1.08925 8.9038 1.15631 9.2517 1.28333C9.5168 1.38171 9.7547 1.54166 9.9458 1.75C10.137 1.92919 10.2864 2.14826 10.3833 2.39167C10.513 2.74688 10.5801 3.12187 10.5817 3.5C10.6108 4.08333 10.6167 4.29917 10.6167 5.83333C10.6167 7.3675 10.6108 7.5833 10.5817 8.1667ZM5.83333 2.84083C5.24172 2.84199 4.66373 3.01847 4.17238 3.34799C3.68104 3.67751 3.29839 4.14528 3.07279 4.69219C2.84719 5.2391 2.78876 5.84061 2.90488 6.4207C3.021 7.0008 3.30647 7.5335 3.72521 7.9514C4.14395 8.3693 4.67717 8.6538 5.2575 8.7688C5.83783 8.8837 6.4392 8.8241 6.9857 8.5975C7.5322 8.3708 7.9992 7.9873 8.3277 7.4953C8.6563 7.0033 8.8317 6.4249 8.8317 5.83333C8.8324 5.43964 8.7554 5.04969 8.6049 4.68589C8.4544 4.32209 8.2335 3.99164 7.9548 3.71353C7.6762 3.43542 7.3453 3.21515 6.9812 3.06538C6.6171 2.9156 6.227 2.83929 5.83333 2.84083ZM5.83333 7.7758C5.44914 7.7758 5.07358 7.6619 4.75414 7.4485C4.4347 7.235 4.18572 6.9316 4.0387 6.5767C3.89167 6.2218 3.85321 5.83118 3.92816 5.45437C4.00311 5.07756 4.18811 4.73144 4.45978 4.45978C4.73144 4.18811 5.07756 4.00311 5.45437 3.92816C5.83118 3.85321 6.2218 3.89167 6.5767 4.0387C6.9316 4.18572 7.235 4.4347 7.4485 4.75414C7.6619 5.07358 7.7758 5.44914 7.7758 5.83333C7.7758 6.0884 7.7256 6.341 7.628 6.5767C7.5303 6.8124 7.3873 7.0265 7.2069 7.2069C7.0265 7.3873 6.8124 7.5303 6.5767 7.628C6.341 7.7256 6.0884 7.7758 5.83333 7.7758Z"
        fill="#8C8C8C" />
</svg>
