<svg width="24" height="24" viewBox="0 0 24 24" fill="none" xmlns="http://www.w3.org/2000/svg">
    <defs>
        <radialGradient id="paint0_radial_518_11299" cx="0" cy="0" r="1"
            gradientUnits="userSpaceOnUse"
            gradientTransform="translate(1.55318 23.4744) scale(30.4711)">
            <stop offset="0.09" stop-color="#FA8F21" />
            <stop offset="0.78" stop-color="#D82D7E" />
        </radialGradient>
        <radialGradient id="paint1_radial_518_11299" cx="0" cy="0" r="1"
            gradientUnits="userSpaceOnUse"
            gradientTransform="translate(16.624 22.7035) scale(26.8148)">
            <stop offset="0.64" stop-color="#8C3AAA" stop-opacity="0" />
            <stop offset="1" stop-color="#8C3AAA" />
        </radialGradient>
        <clipPath id="clip0_518_11299">
            <rect width="24" height="24" fill="white" />
        </clipPath>
    </defs>
    <g clip-path="url(#clip0_518_11299)">
        <mask id="mask0_518_11299" style="mask-type:luminance" maskUnits="userSpaceOnUse" x="0"
            y="0" width="24" height="24">
            <path d="M24 0H0V24H24V0Z" fill="white" />
        </mask>
        <g mask="url(#mask0_518_11299)">
            <path
                d="M6.08588 23.9151C5.15758 23.9047 4.23801 23.7344 3.36753 23.4118C2.73187 23.1768 2.15676 22.8027 1.68424 22.3169C1.19712 21.8454 0.822514 21.2701 0.588235 20.6339C0.265824 19.7634 0.0958076 18.8439 0.085647 17.9158C0.0143529 16.3727 0 15.9099 0 12C0 8.09012 0.0157647 7.62894 0.0849412 6.08471C0.0963347 5.15689 0.26656 4.23787 0.588235 3.36753C0.823654 2.73176 1.19773 2.15642 1.68329 1.68329C2.15523 1.19662 2.73061 0.822358 3.36682 0.588235C4.2373 0.265557 5.15687 0.0953008 6.08518 0.0849412C7.6287 0.0143529 8.09223 0 12 0C15.9078 0 16.3711 0.0157647 17.9153 0.0849412C18.8433 0.0962542 19.7626 0.266481 20.6332 0.588235C21.2691 0.822667 21.8443 1.1968 22.3165 1.68306C22.8029 2.15535 23.1772 2.73073 23.4118 3.36682C23.7345 4.23729 23.9049 5.15686 23.9153 6.08518C23.9859 7.62941 24.0002 8.09176 24.0002 12.0005C24.0002 15.9092 23.9859 16.3715 23.9153 17.9158C23.9041 18.8439 23.7338 19.7633 23.4118 20.6339C23.1682 21.2652 22.7951 21.8386 22.3166 22.317C21.838 22.7954 21.2646 23.1683 20.6332 23.4118C19.7627 23.7345 18.8431 23.9049 17.9148 23.9153C16.372 23.9859 15.9082 24.0002 11.9995 24.0002C8.09082 24.0002 7.6287 23.9864 6.08588 23.9151Z"
                fill="url(#paint0_radial_518_11299)" />
            <path
                d="M6.08588 23.9151C5.15758 23.9047 4.23801 23.7344 3.36753 23.4118C2.73187 23.1768 2.15676 22.8027 1.68424 22.3169C1.19712 21.8454 0.822514 21.2701 0.588235 20.6339C0.265824 19.7634 0.0958076 18.8439 0.085647 17.9158C0.0143529 16.3727 0 15.9099 0 12C0 8.09012 0.0157647 7.62894 0.0849412 6.08471C0.0963347 5.15689 0.26656 4.23787 0.588235 3.36753C0.823654 2.73176 1.19773 2.15642 1.68329 1.68329C2.15523 1.19662 2.73061 0.822358 3.36682 0.588235C4.2373 0.265557 5.15687 0.0953008 6.08518 0.0849412C7.6287 0.0143529 8.09223 0 12 0C15.9078 0 16.3711 0.0157647 17.9153 0.0849412C18.8433 0.0962542 19.7626 0.266481 20.6332 0.588235C21.2691 0.822667 21.8443 1.1968 22.3165 1.68306C22.8029 2.15535 23.1772 2.73073 23.4118 3.36682C23.7345 4.23729 23.9049 5.15686 23.9153 6.08518C23.9859 7.62941 24.0002 8.09176 24.0002 12.0005C24.0002 15.9092 23.9859 16.3715 23.9153 17.9158C23.9041 18.8439 23.7338 19.7633 23.4118 20.6339C23.1682 21.2652 22.7951 21.8386 22.3166 22.317C21.838 22.7954 21.2646 23.1683 20.6332 23.4118C19.7627 23.7345 18.8431 23.9049 17.9148 23.9153C16.372 23.9859 15.9082 24.0002 11.9995 24.0002C8.09082 24.0002 7.6287 23.9864 6.08588 23.9151Z"
                fill="url(#paint1_radial_518_11299)" />
            <path
                d="M9.05348 12.0511C9.05353 11.4632 9.22788 10.8886 9.5545 10.3999C9.88112 9.9112 10.3454 9.5303 10.8885 9.30541C11.4315 9.08051 12.0291 9.02172 12.6056 9.13646C13.1822 9.2512 13.7117 9.53432 14.1273 9.95002C14.5429 10.3657 14.8259 10.8953 14.9405 11.4719C15.0551 12.0484 14.9962 12.646 14.7711 13.189C14.5461 13.732 14.1651 14.1962 13.6763 14.5227C13.1875 14.8492 12.6129 15.0234 12.025 15.0233C11.2369 15.0232 10.481 14.71 9.92371 14.1526C9.36644 13.5952 9.05342 12.8392 9.05348 12.0511ZM7.44665 12.0511C7.44665 12.9566 7.71517 13.8418 8.21825 14.5947C8.72132 15.3476 9.43636 15.9344 10.273 16.2809C11.1096 16.6274 12.0301 16.7181 12.9182 16.5414C13.8064 16.3648 14.6221 15.9287 15.2624 15.2884C15.9027 14.6481 16.3388 13.8324 16.5154 12.9443C16.6921 12.0561 16.6014 11.1356 16.2549 10.299C15.9084 9.46241 15.3215 8.74737 14.5686 8.24429C13.8157 7.74122 12.9306 7.4727 12.025 7.4727C11.4238 7.47267 10.8284 7.59107 10.273 7.82115C9.71743 8.05122 9.2127 8.38845 8.78755 8.8136C8.36241 9.23875 8.02517 9.74347 7.7951 10.299C7.56503 10.8544 7.44662 11.4498 7.44665 12.0511ZM15.7147 7.29129C15.7146 7.50289 15.7773 7.70977 15.8947 7.88577C16.0122 8.06176 16.1793 8.19896 16.3747 8.28002C16.5702 8.36109 16.7853 8.38237 16.9928 8.34118C17.2004 8.29999 17.3911 8.19817 17.5408 8.04861C17.6905 7.89905 17.7924 7.70847 17.8338 7.50095C17.8752 7.29343 17.8541 7.0783 17.7732 6.88277C17.6923 6.68724 17.5553 6.52009 17.3794 6.40245C17.2035 6.28482 16.9966 6.22198 16.785 6.22188C16.5014 6.22201 16.2294 6.3347 16.0288 6.53522C15.8282 6.73573 15.7149 7.00766 15.7147 7.29129ZM8.42336 19.3087C7.85798 19.3025 7.29788 19.199 6.76759 19.0028C6.38302 18.8546 6.03375 18.6275 5.74226 18.3361C5.45077 18.0447 5.22351 17.6956 5.07512 17.3111C4.87883 16.7808 4.77536 16.2207 4.76924 15.6553C4.72595 14.7155 4.71748 14.4332 4.71748 12.0522C4.71748 9.67129 4.72689 9.38965 4.76924 8.44894C4.7761 7.88362 4.87955 7.32363 5.07512 6.79317C5.22334 6.40848 5.45053 6.05912 5.74204 5.76762C6.03354 5.47611 6.3829 5.24892 6.76759 5.1007C7.29785 4.90442 7.85797 4.80095 8.42336 4.79482C9.36313 4.75153 9.64548 4.74306 12.0255 4.74306C14.4055 4.74306 14.6881 4.75224 15.6288 4.79506C16.1941 4.80192 16.7541 4.90537 17.2846 5.10094C17.6693 5.24917 18.0186 5.47636 18.3101 5.76787C18.6016 6.05937 18.8288 6.40873 18.977 6.79341C19.1733 7.32367 19.2768 7.88379 19.2829 8.44918C19.3262 9.39035 19.3347 9.67129 19.3347 12.0525C19.3347 14.4336 19.326 14.7151 19.2829 15.6558C19.2763 16.2211 19.1729 16.7811 18.977 17.3115C18.8287 17.696 18.6014 18.0452 18.3099 18.3366C18.0184 18.628 17.6691 18.8551 17.2846 19.0033C16.7543 19.1996 16.1942 19.303 15.6288 19.3092C14.689 19.3525 14.4067 19.3609 12.0255 19.3609C9.6443 19.3609 9.36289 19.3517 8.42336 19.3087ZM8.34948 3.18941C7.60968 3.20396 6.87771 3.34398 6.18477 3.60352C5.59242 3.83255 5.05446 4.18284 4.60539 4.63191C4.15632 5.08098 3.80603 5.61894 3.577 6.21129C3.3175 6.90424 3.17747 7.6362 3.16289 8.376C3.11889 9.32659 3.10901 9.63058 3.10901 12.052C3.10901 14.4734 3.11913 14.7772 3.16289 15.728C3.17747 16.4678 3.31749 17.1998 3.577 17.8927C3.80604 18.485 4.15633 19.023 4.6054 19.4721C5.05448 19.9211 5.59243 20.2714 6.18477 20.5005C6.87774 20.7599 7.60969 20.8999 8.34948 20.9146C9.30054 20.9579 9.60406 20.9685 12.0255 20.9685C14.4469 20.9685 14.7507 20.9584 15.7015 20.9146C16.4413 20.9 17.1733 20.76 17.8662 20.5005C18.4586 20.2714 18.9965 19.9211 19.4456 19.4721C19.8947 19.023 20.2449 18.485 20.474 17.8927C20.7338 17.1999 20.8739 16.4678 20.8881 15.728C20.9314 14.7767 20.9413 14.4734 20.9413 12.052C20.9413 9.63058 20.9312 9.32682 20.8881 8.376C20.8736 7.6362 20.7335 6.90423 20.474 6.21129C20.245 5.61905 19.8948 5.08118 19.4458 4.63212C18.9969 4.18306 18.4591 3.83271 17.8669 3.60352C17.174 3.34381 16.442 3.20378 15.7022 3.18941C14.7514 3.14588 14.4476 3.13553 12.0267 3.13553C9.60571 3.13553 9.30077 3.14565 8.34948 3.18941Z"
                fill="white" />
        </g>
    </g>
</svg>
