<svg width="24" height="24" viewBox="0 0 24 24" fill="none" xmlns="http://www.w3.org/2000/svg">
    <g id="Frame 1171279714">
        <g id="Group 1171278720">
            <path id="Vector"
                d="M10.4879 10.3471C12.2387 10.3471 13.658 8.92627 13.658 7.17356C13.658 5.42085 12.2387 4 10.4879 4C8.73716 4 7.31787 5.42085 7.31787 7.17356C7.31787 8.92627 8.73716 10.3471 10.4879 10.3471Z"
                stroke="#1F1F1F" stroke-width="2" />
            <path id="Vector_2"
                d="M10.4879 12.8595C6.612 12.8595 3.42015 15.6372 3.00476 19.2081C2.95417 19.6434 3.31385 20 3.75152 20H17.2243C17.662 20 18.0217 19.6434 17.9711 19.2081C17.5556 15.6372 14.3637 12.8595 10.4879 12.8595Z"
                stroke="#1F1F1F" stroke-width="2" />
            <path id="Vector 648" d="M18.9922 9V13.0198" stroke="black" stroke-width="2"
                stroke-linecap="round" />
            <path id="Vector 649" d="M16.9846 11.0099H21" stroke="black" stroke-width="2"
                stroke-linecap="round" />
        </g>
    </g>
</svg>
