<svg width="18" height="18" viewBox="0 0 18 18" fill="none" xmlns="http://www.w3.org/2000/svg">
    <path
        d="M5.17774 11.2811L3.22857 12.7003C3.20768 12.7114 3.22537 12.7344 3.22857 12.7579V15.9593C3.2324 15.9874 3.20026 16.0084 3.22857 16.0084H3.56486L9.329 16.7715C9.60342 16.8063 9.88104 16.7395 10.1096 16.5837L16.0168 12.5578C16.3084 12.3591 16.4237 11.9849 16.2945 11.6565C16.1361 11.2538 15.6726 11.066 15.2786 11.2449L10.329 13.492C10.315 13.4983 10.3024 13.481 10.3127 13.4696L11.8438 11.7739C12.1386 11.4473 11.8035 10.9429 11.3881 11.0882L9.12289 11.8805C8.8696 11.9691 8.5931 11.9649 8.34258 11.8687L6.5869 11.1942C6.12683 11.0175 5.61265 11.0492 5.17774 11.2811Z"
        fill="white" stroke="#1F1F1F" stroke-width="1.4" />
    <path
        d="M3.03133 10.9538L1.28322 10.9633C1.1268 10.9642 1.00073 11.0916 1.00163 11.2481L1.03301 16.717C1.03391 16.8734 1.16144 16.9995 1.31786 16.9987L3.06597 16.9892C3.22239 16.9883 3.34847 16.8608 3.34757 16.7044L3.31618 11.2355C3.31528 11.0791 3.18775 10.953 3.03133 10.9538Z"
        fill="white" stroke="#1F1F1F" stroke-width="1.4" />
    <path
        d="M2.15627 12.563C2.36933 12.563 2.54204 12.3941 2.54204 12.1858C2.54204 11.9775 2.36933 11.8086 2.15627 11.8086C1.94322 11.8086 1.77051 11.9775 1.77051 12.1858C1.77051 12.3941 1.94322 12.563 2.15627 12.563Z"
        fill="white" />
    <path
        d="M12.0585 5.39167C12.0756 5.26667 12.0842 5.1375 12.0842 5C12.0842 4.86667 12.0756 4.73333 12.0542 4.60833L12.9238 3.95C13.0009 3.89167 13.0223 3.77917 12.9752 3.69583L12.1527 2.3125C12.1013 2.22083 11.9942 2.19167 11.9 2.22083L10.8762 2.62083C10.662 2.4625 10.435 2.32917 10.1823 2.22917L10.0281 1.17083C10.0109 1.07083 9.92525 1 9.82245 1H8.17755C8.07475 1 7.99336 1.07083 7.97623 1.17083L7.82202 2.22917C7.56929 2.32917 7.33797 2.46667 7.12808 2.62083L6.1043 2.22083C6.01007 2.1875 5.90298 2.22083 5.85157 2.3125L5.03341 3.69583C4.98201 3.78333 4.99914 3.89167 5.08481 3.95L5.95438 4.60833C5.93296 4.73333 5.91583 4.87083 5.91583 5C5.91583 5.12917 5.92439 5.26667 5.94581 5.39167L5.07625 6.05C4.99914 6.10833 4.97773 6.22083 5.02484 6.30417L5.84729 7.6875C5.89869 7.77917 6.00578 7.80833 6.10002 7.77917L7.1238 7.37917C7.33797 7.5375 7.565 7.67083 7.81773 7.77083L7.97194 8.82917C7.99336 8.92917 8.07475 9 8.17755 9H9.82245C9.92525 9 10.0109 8.92917 10.0238 8.82917L10.178 7.77083C10.4307 7.67083 10.662 7.5375 10.8719 7.37917L11.8957 7.77917C11.9899 7.8125 12.097 7.77917 12.1484 7.6875L12.9709 6.30417C13.0223 6.2125 13.0009 6.10833 12.9195 6.05L12.0585 5.39167Z"
        fill="white" stroke="#1F1F1F" stroke-width="1.4" />
    <path d="M8 5C8 5.55 8.45 6 9 6C9.55 6 10 5.55 10 5C10 4.45 9.55 4 9 4C8.45 4 8 4.45 8 5Z"
        fill="#1F1F1F" />
</svg>
