<svg width="80" height="80" viewBox="0 0 80 80" fill="none" xmlns="http://www.w3.org/2000/svg">
    <g clip-path="url(#clip0_803_25787)">
        <g filter="url(#filter0_d_803_25787)">
            <path
                d="M40 74C59.8823 74 76 57.8823 76 38C76 18.1177 59.8823 2 40 2C20.1177 2 4 18.1177 4 38C4 57.8823 20.1177 74 40 74Z"
                fill="white" />
        </g>
        <path
            d="M46.0044 16.6403L44.0849 16.1717V17.6246L42.6803 17.1559V15.4687L40.7608 15V16.9215H39.3563V15L37.4367 15.4687V17.1559L36.0322 17.6246V16.1717L34.1127 16.6403L34.1829 25.2405H45.9342L46.0044 16.6403Z"
            fill="#8CD41F" />
        <path
            d="M40.0585 26.4591C43.3035 26.4591 45.9341 25.9135 45.9341 25.2405C45.9341 24.5675 43.3035 24.022 40.0585 24.022C36.8135 24.022 34.1829 24.5675 34.1829 25.2405C34.1829 25.9135 36.8135 26.4591 40.0585 26.4591Z"
            fill="#433959" />
        <path
            d="M46.1214 20.9756C46.0044 20.9756 45.8873 20.9287 45.7937 20.8584C45.7469 20.835 44.3658 19.757 40.0117 19.757C35.7279 19.757 34.2297 20.8584 34.2297 20.8584C34.019 21.0224 33.6913 20.999 33.504 20.7647C33.3402 20.5538 33.3636 20.2257 33.5742 20.0617C33.6445 20.0148 35.2831 18.726 39.9883 18.726C44.7637 18.726 46.2619 19.9445 46.4257 20.0851C46.6364 20.2726 46.6598 20.6006 46.4726 20.8115C46.4023 20.9287 46.2619 20.9756 46.1214 20.9756Z"
            fill="#00A979" />
        <path
            d="M41.8376 19.8273C42.9378 19.921 43.7571 20.085 44.3657 20.2491C44.6935 20.3428 45.0212 20.1085 45.0212 19.7569C45.0212 19.5226 44.8573 19.3351 44.6466 19.2648C43.9678 19.0774 43.0782 18.9133 41.9312 18.8196C41.6269 18.7962 41.3694 19.0305 41.3694 19.3351C41.3694 19.5929 41.5801 19.8038 41.8376 19.8273Z"
            fill="#F8FFE1" />
        <path
            d="M46.1214 25.3108C46.0044 25.3108 45.8873 25.2639 45.7937 25.1936C45.7469 25.1702 44.3658 24.0922 40.0117 24.0922C35.7279 24.0922 34.2297 25.1936 34.2297 25.1936C34.019 25.3576 33.6913 25.3342 33.504 25.0999C33.3402 24.889 33.3636 24.5609 33.5742 24.3969C33.6445 24.35 35.2831 23.0612 39.9883 23.0612C44.7637 23.0612 46.2619 24.2797 46.4257 24.4203C46.6364 24.6078 46.6598 24.9358 46.4726 25.1467C46.4023 25.2639 46.2619 25.3108 46.1214 25.3108Z"
            fill="#00A979" />
        <path
            d="M41.8376 24.1626C42.9378 24.2563 43.7571 24.4203 44.3657 24.5844C44.6935 24.6781 45.0212 24.4438 45.0212 24.0923C45.0212 23.8579 44.8573 23.6705 44.6466 23.6002C43.9678 23.4127 43.0782 23.2487 41.9312 23.1549C41.6269 23.1315 41.3694 23.3658 41.3694 23.6705C41.3694 23.9282 41.5801 24.1391 41.8376 24.1626Z"
            fill="#F8FFE1" />
        <path d="M48.6028 61.0001H56L55.1339 57.9538L56 54.9073H48.6028V61.0001Z" fill="#00A979" />
        <path d="M48.6028 59.1957H52.6525L48.6028 61.0001V59.1957Z" fill="#433959" />
        <path
            d="M53.6592 50.6189V34.8716L40.0352 26.9745L26.3878 34.8716V50.6189L40.0352 58.516L53.6592 50.6189Z"
            fill="#8CD41F" />
        <path
            d="M40.0352 60.4845L24.679 51.6031V33.864L40.0352 25.0061L55.3681 33.864V51.6031L40.0352 60.4845ZM28.0967 49.6347L40.0352 56.5242L51.9738 49.6347V35.8324L40.0352 28.9429L28.0967 35.8324V49.6347Z"
            fill="#8CD41F" />
        <path d="M40.0352 25.0061V28.9429L28.0967 35.8558L24.679 33.8874L40.0352 25.0061Z"
            fill="#00A979" />
        <path d="M55.3679 51.6032L51.9736 49.6348L40.035 56.5477V60.4845L55.3679 51.6032Z"
            fill="#00A979" />
        <path
            d="M46.4043 48.7221C49.7045 45.4185 49.7045 40.0623 46.4043 36.7586C43.1042 33.455 37.7536 33.455 34.4535 36.7586C31.1533 40.0623 31.1533 45.4185 34.4535 48.7221C37.7536 52.0257 43.1042 52.0257 46.4043 48.7221Z"
            fill="#00A979" />
        <path
            d="M40.4331 34.2858C40.1522 34.2858 39.8947 34.3092 39.6138 34.3326C43.8976 34.7544 47.2451 38.3632 47.2451 42.7453C47.2451 47.1508 43.8976 50.7595 39.6138 51.1579C39.8947 51.1813 40.1522 51.2048 40.4331 51.2048C45.0915 51.2048 48.8837 47.4085 48.8837 42.7453C48.8837 38.082 45.0915 34.2858 40.4331 34.2858Z"
            fill="#514769" />
        <path d="M24.679 51.6032L28.0967 49.6348L40.0352 56.5477V60.4845L24.679 51.6032Z"
            fill="#AAF4DB" />
        <path d="M40.035 25.0061V28.9429L51.9736 35.8558L55.3679 33.8874L40.035 25.0061Z"
            fill="#AAF4DB" />
        <path
            d="M28.0966 49.6348L40.0351 56.5242L51.9737 49.6348V35.8324L40.0351 28.943L28.0966 35.8324V49.6348Z"
            stroke="#F8FFE1" stroke-width="0.467446" stroke-miterlimit="10" />
        <path d="M31.3738 61.0001H24L24.8427 57.9538L24 54.9073H31.3738V61.0001Z" fill="#00A979" />
        <path d="M52.7228 53.1029H27.3475V59.1722H52.7228V53.1029Z" fill="#00A979" />
        <path d="M31.3739 59.1957H27.3475L31.3739 61.0001V59.1957Z" fill="#433959" />
        <path
            d="M31.5803 54.1995H32.269V56.614H33.7611V57.1752H31.5803V54.1995ZM37.3001 56.6225V57.1752H34.996V54.1995H37.2448V54.7521H35.6805V55.3983H37.062V55.9339H35.6805V56.6225H37.3001ZM41.5176 54.1995L40.2295 57.1752H39.5494L38.2656 54.1995H39.0095L39.915 56.325L40.8332 54.1995H41.5176ZM44.9202 56.6225V57.1752H42.6162V54.1995H44.865V54.7521H43.3006V55.3983H44.6822V55.9339H43.3006V56.6225H44.9202ZM46.3184 54.1995H47.007V56.614H48.4991V57.1752H46.3184V54.1995Z"
            fill="#F8FFE1" />
        <path d="M41.6369 38.1088V47.9252H39.3651V39.9318H37.4019V38.1088H41.6369Z"
            fill="#F8FFE1" />
    </g>
    <defs>
        <filter id="filter0_d_803_25787" x="0" y="0" width="80" height="80"
            filterUnits="userSpaceOnUse" color-interpolation-filters="sRGB">
            <feFlood flood-opacity="0" result="BackgroundImageFix" />
            <feColorMatrix in="SourceAlpha" type="matrix"
                values="0 0 0 0 0 0 0 0 0 0 0 0 0 0 0 0 0 0 127 0" result="hardAlpha" />
            <feOffset dy="2" />
            <feGaussianBlur stdDeviation="2" />
            <feComposite in2="hardAlpha" operator="out" />
            <feColorMatrix type="matrix" values="0 0 0 0 0 0 0 0 0 0 0 0 0 0 0 0 0 0 0.25 0" />
            <feBlend mode="normal" in2="BackgroundImageFix" result="effect1_dropShadow_803_25787" />
            <feBlend mode="normal" in="SourceGraphic" in2="effect1_dropShadow_803_25787"
                result="shape" />
        </filter>
        <clipPath id="clip0_803_25787">
            <rect width="80" height="80" fill="white" />
        </clipPath>
    </defs>
</svg>
