<svg width="32" height="48" viewBox="0 0 32 48" fill="none" xmlns="http://www.w3.org/2000/svg">
    <path
        d="M20.67 3.7252L19.8039 1.044L17.6971 2.4676L16.0585 0L14.4432 2.4676L12.3364 1.044L11.4703 3.7252L9.15283 3.0133L10.6042 8.091H16.0585H21.5362L22.9641 3.0133L20.67 3.7252Z"
        fill="#39759A" />
    <path
        d="M16.0585 5.71826C12.8047 5.71826 10.1829 6.26396 10.1829 6.95206V11.7924H21.9341V6.95206C21.9341 6.28766 19.3123 5.71826 16.0585 5.71826Z"
        fill="#39759A" />
    <path
        d="M16.0585 13.0262C19.3035 13.0262 21.9341 12.4738 21.9341 11.7924C21.9341 11.111 19.3035 10.5586 16.0585 10.5586C12.8135 10.5586 10.1829 11.111 10.1829 11.7924C10.1829 12.4738 12.8135 13.0262 16.0585 13.0262Z"
        fill="#433959" />
    <path
        d="M22.1449 7.47409C22.0278 7.47409 21.9108 7.42659 21.8171 7.35549C21.7703 7.33169 20.3892 6.24029 16.0351 6.24029C11.7513 6.24029 10.2531 7.35549 10.2531 7.35549C10.0425 7.52149 9.71469 7.49779 9.52749 7.26059C9.36359 7.04699 9.38699 6.71479 9.59769 6.54869C9.66789 6.50129 11.3065 5.19629 16.0117 5.19629C20.7872 5.19629 22.2853 6.43009 22.4492 6.57249C22.6599 6.76229 22.6833 7.09449 22.496 7.30799C22.4258 7.42659 22.2853 7.47409 22.1449 7.47409Z"
        fill="#4AACD1" />
    <path
        d="M17.861 6.31148C18.9612 6.40638 19.7805 6.57248 20.3892 6.73848C20.7169 6.83348 21.0446 6.59618 21.0446 6.24028C21.0446 6.00298 20.8808 5.81318 20.6701 5.74198C19.9912 5.55218 19.1017 5.38608 17.9546 5.29118C17.6503 5.26748 17.3928 5.50468 17.3928 5.81318C17.3928 6.07418 17.5801 6.28768 17.861 6.31148Z"
        fill="#F8FFE1" />
    <path
        d="M22.1449 11.8636C22.0278 11.8636 21.9108 11.8162 21.8171 11.745C21.7703 11.7213 20.3892 10.6298 16.0351 10.6298C11.7513 10.6298 10.2531 11.745 10.2531 11.745C10.0425 11.9111 9.71469 11.8873 9.52749 11.6501C9.36359 11.4365 9.38699 11.1044 9.59769 10.9383C9.66789 10.8908 11.3065 9.58582 16.0117 9.58582C20.7872 9.58582 22.2853 10.8196 22.4492 10.962C22.6599 11.1518 22.6833 11.484 22.496 11.6975C22.4258 11.8162 22.2853 11.8636 22.1449 11.8636Z"
        fill="#4AACD1" />
    <path
        d="M17.861 10.701C18.9612 10.7959 19.7805 10.962 20.3892 11.1281C20.7169 11.223 21.0446 10.9857 21.0446 10.6298C21.0446 10.3925 20.8808 10.2027 20.6701 10.1315C19.9912 9.94171 19.1017 9.77561 17.9546 9.68071C17.6503 9.65701 17.3928 9.89431 17.3928 10.2027C17.3928 10.4637 17.5801 10.6773 17.861 10.701Z"
        fill="#F8FFE1" />
    <path
        d="M15.1456 8.09103C15.1456 7.59273 15.5436 7.18933 16.0352 7.18933C16.5268 7.18933 16.9247 7.59273 16.9247 8.09103C16.9247 8.58923 16.5268 8.99263 16.0352 8.99263C15.5436 8.96893 15.1456 8.58923 15.1456 8.09103Z"
        fill="#4AACD1" />
    <path
        d="M9.31677 8.96886C9.31677 8.47056 9.71467 8.06726 10.2063 8.06726C10.6979 8.06726 11.0959 8.47056 11.0959 8.96886C11.0959 9.46716 10.6979 9.87046 10.2063 9.87046C9.69127 9.87046 9.31677 9.46716 9.31677 8.96886Z"
        fill="#4AACD1" />
    <path
        d="M21.068 8.96886C21.068 8.47056 21.4659 8.06726 21.9575 8.06726C22.4491 8.06726 22.8471 8.47056 22.8471 8.96886C22.8471 9.46716 22.4491 9.87046 21.9575 9.87046C21.4659 9.87046 21.068 9.46716 21.068 8.96886Z"
        fill="#4AACD1" />
    <path d="M24.6261 48H31.9999L31.1572 44.9155L31.9999 41.8309H24.6261V48Z" fill="#4AACD1" />
    <path d="M24.6261 46.173H28.6524L24.6261 48V46.173Z" fill="#433959" />
    <path
        d="M29.6825 37.4889V21.5443L16.0351 13.5482L2.41113 21.5443V37.4889L16.0351 45.4849L29.6825 37.4889Z"
        fill="#4AACD1" />
    <path
        d="M16.0351 47.4781L0.702271 38.4855V20.524L16.0351 11.5552L31.368 20.524V38.4855L16.0351 47.4781ZM4.09657 36.4924L16.0351 43.4682L27.9737 36.4924V22.5171L16.0351 15.5413L4.09657 22.5171V36.4924Z"
        fill="#4AACD1" />
    <path d="M16.0351 11.5552V15.5413L4.09657 22.5408L0.702271 20.5478L16.0351 11.5552Z"
        fill="#39759A" />
    <path d="M31.3679 38.4854L27.9736 36.4923L16.035 43.4918V47.478L31.3679 38.4854Z"
        fill="#39759A" />
    <path
        d="M24.7693 30.9037C25.5254 26.2356 22.4048 21.83 17.7992 21.0637C13.1937 20.2973 8.8472 23.4604 8.0912 28.1285C7.3351 32.7966 10.4557 37.2022 15.0612 37.9685C19.6668 38.7349 24.0132 35.5719 24.7693 30.9037Z"
        fill="#39759A" />
    <path
        d="M16.4331 20.951C16.1522 20.951 15.8947 20.9749 15.6138 20.9986C19.8976 21.4257 23.2451 25.0796 23.2451 29.5165C23.2451 33.9772 19.8976 37.6312 15.6138 38.0346C15.8947 38.0583 16.1522 38.0821 16.4331 38.0821C21.0915 38.0821 24.8837 34.2382 24.8837 29.5165C24.8837 24.7948 21.0915 20.951 16.4331 20.951Z"
        fill="#433959" />
    <path d="M0.702271 38.4854L4.09657 36.4923L16.0351 43.4918V47.478L0.702271 38.4854Z"
        fill="#AAF4DB" />
    <path d="M16.035 11.5552V15.5413L27.9736 22.5408L31.3679 20.5478L16.035 11.5552Z"
        fill="#AAF4DB" />
    <path
        d="M4.09656 36.4923L16.0351 43.4681L27.9737 36.4923V22.517L16.0351 15.5413L4.09656 22.517V36.4923Z"
        stroke="#F8FFE1" stroke-width="0.467446" stroke-miterlimit="10" />
    <path d="M7.3738 48H0L0.842699 44.9155L0 41.8309H7.3738V48Z" fill="#4AACD1" />
    <path d="M28.7228 40.004H3.34753V46.1494H28.7228V40.004Z" fill="#4AACD1" />
    <path d="M7.37393 46.173H3.34753L7.37393 48V46.173Z" fill="#433959" />
    <path
        d="M5.22156 41.1016H5.91016V43.5161H7.40226V44.0772H5.22156V41.1016ZM10.0911 43.5246V44.0772H7.78706V41.1016H10.0359V41.6542H8.47146V42.3003H9.85306V42.836H8.47146V43.5246H10.0911ZM13.4584 41.1016L12.1704 44.0772H11.4903L10.2065 41.1016H10.9504L11.8558 43.2271L12.774 41.1016H13.4584ZM16.0109 43.5246V44.0772H13.7069V41.1016H15.9557V41.6542H14.3913V42.3003H15.7729V42.836H14.3913V43.5246H16.0109ZM16.5589 41.1016H17.2475V43.5161H18.7396V44.0772H16.5589V41.1016ZM21.6503 44.1283C21.2252 44.1283 20.8936 44.0107 20.6556 43.7754C20.4204 43.5402 20.3028 43.2044 20.3028 42.768V41.1016H20.9914V42.7424C20.9914 43.2752 21.2125 43.5416 21.6546 43.5416C21.8699 43.5416 22.0343 43.4779 22.1477 43.3503C22.261 43.22 22.3177 43.0173 22.3177 42.7424V41.1016H22.9979V42.768C22.9979 43.2044 22.8788 43.5402 22.6408 43.7754C22.4056 44.0107 22.0754 44.1283 21.6503 44.1283ZM24.9664 41.1016C25.23 41.1016 25.4581 41.1455 25.6508 41.2334C25.8464 41.3212 25.9966 41.4459 26.1014 41.6074C26.2063 41.769 26.2587 41.9603 26.2587 42.1813C26.2587 42.3995 26.2063 42.5908 26.1014 42.7552C25.9966 42.9167 25.8464 43.0414 25.6508 43.1293C25.4581 43.2143 25.23 43.2568 24.9664 43.2568H24.367V44.0772H23.6784V41.1016H24.9664ZM24.9282 42.6957C25.135 42.6957 25.2923 42.6518 25.4 42.5639C25.5077 42.4732 25.5616 42.3457 25.5616 42.1813C25.5616 42.0141 25.5077 41.8866 25.4 41.7987C25.2923 41.708 25.135 41.6627 24.9282 41.6627H24.367V42.6957H24.9282Z"
        fill="#F8FFE1" />
    <path
        d="M19.8009 32.7348V34.5859H12.3826V33.1135L16.1689 29.5375C16.5709 29.1542 16.842 28.827 16.9822 28.5559C17.1225 28.2754 17.1926 27.9996 17.1926 27.7285C17.1926 27.3358 17.057 27.0367 16.7859 26.831C16.5241 26.616 16.1362 26.5085 15.622 26.5085C15.1919 26.5085 14.8039 26.5926 14.458 26.7609C14.1121 26.9198 13.8223 27.1629 13.5886 27.4901L11.9338 26.4243C12.3171 25.854 12.8453 25.41 13.5185 25.0921C14.1916 24.7649 14.9629 24.6013 15.8323 24.6013C16.5615 24.6013 17.1973 24.7228 17.7395 24.9659C18.2911 25.1996 18.7165 25.5362 19.0156 25.9756C19.3242 26.4056 19.4784 26.9151 19.4784 27.5041C19.4784 28.037 19.3662 28.5372 19.1418 29.0046C18.9175 29.4721 18.4827 30.005 17.8377 30.6033L15.5799 32.7348H19.8009Z"
        fill="#F8FFE1" />
</svg>
