<svg width="80" height="80" viewBox="0 0 80 80" fill="none" xmlns="http://www.w3.org/2000/svg">
    <g clip-path="url(#clip0_803_25678)">
        <g filter="url(#filter0_d_803_25678)">
            <path
                d="M40 74C59.8823 74 76 57.8823 76 38C76 18.1177 59.8823 2 40 2C20.1177 2 4 18.1177 4 38C4 57.8823 20.1177 74 40 74Z"
                fill="white" />
        </g>
        <path
            d="M44.67 16.7252L43.8039 14.044L41.6971 15.4676L40.0585 13L38.4432 15.4676L36.3364 14.044L35.4703 16.7252L33.1528 16.0133L34.6042 21.091H40.0585H45.5362L46.9641 16.0133L44.67 16.7252Z"
            fill="#39759A" />
        <path
            d="M40.0585 18.7183C36.8047 18.7183 34.1829 19.264 34.1829 19.9521V24.7924H45.9341V19.9521C45.9341 19.2877 43.3123 18.7183 40.0585 18.7183Z"
            fill="#39759A" />
        <path
            d="M40.0585 26.0262C43.3035 26.0262 45.9341 25.4738 45.9341 24.7924C45.9341 24.111 43.3035 23.5586 40.0585 23.5586C36.8135 23.5586 34.1829 24.111 34.1829 24.7924C34.1829 25.4738 36.8135 26.0262 40.0585 26.0262Z"
            fill="#433959" />
        <path
            d="M46.1449 20.4741C46.0278 20.4741 45.9108 20.4266 45.8171 20.3555C45.7703 20.3317 44.3892 19.2403 40.0351 19.2403C35.7513 19.2403 34.2531 20.3555 34.2531 20.3555C34.0425 20.5215 33.7147 20.4978 33.5275 20.2606C33.3636 20.047 33.387 19.7148 33.5977 19.5487C33.6679 19.5013 35.3065 18.1963 40.0117 18.1963C44.7872 18.1963 46.2853 19.4301 46.4492 19.5725C46.6599 19.7623 46.6833 20.0945 46.496 20.308C46.4258 20.4266 46.2853 20.4741 46.1449 20.4741Z"
            fill="#4AACD1" />
        <path
            d="M41.861 19.3115C42.9612 19.4064 43.7805 19.5725 44.3892 19.7385C44.7169 19.8335 45.0446 19.5962 45.0446 19.2403C45.0446 19.003 44.8808 18.8132 44.6701 18.742C43.9912 18.5522 43.1017 18.3861 41.9546 18.2912C41.6503 18.2675 41.3928 18.5047 41.3928 18.8132C41.3928 19.0742 41.5801 19.2877 41.861 19.3115Z"
            fill="#F8FFE1" />
        <path
            d="M46.1449 24.8636C46.0278 24.8636 45.9108 24.8162 45.8171 24.745C45.7703 24.7213 44.3892 23.6298 40.0351 23.6298C35.7513 23.6298 34.2531 24.745 34.2531 24.745C34.0425 24.9111 33.7147 24.8873 33.5275 24.6501C33.3636 24.4365 33.387 24.1044 33.5977 23.9383C33.6679 23.8908 35.3065 22.5858 40.0117 22.5858C44.7872 22.5858 46.2853 23.8196 46.4492 23.962C46.6599 24.1518 46.6833 24.484 46.496 24.6975C46.4258 24.8162 46.2853 24.8636 46.1449 24.8636Z"
            fill="#4AACD1" />
        <path
            d="M41.861 23.701C42.9612 23.7959 43.7805 23.962 44.3892 24.1281C44.7169 24.223 45.0446 23.9857 45.0446 23.6298C45.0446 23.3925 44.8808 23.2027 44.6701 23.1315C43.9912 22.9417 43.1017 22.7756 41.9546 22.6807C41.6503 22.657 41.3928 22.8943 41.3928 23.2027C41.3928 23.4637 41.5801 23.6773 41.861 23.701Z"
            fill="#F8FFE1" />
        <path
            d="M39.1456 21.091C39.1456 20.5927 39.5436 20.1893 40.0352 20.1893C40.5268 20.1893 40.9247 20.5927 40.9247 21.091C40.9247 21.5892 40.5268 21.9926 40.0352 21.9926C39.5436 21.9689 39.1456 21.5892 39.1456 21.091Z"
            fill="#4AACD1" />
        <path
            d="M33.3168 21.9689C33.3168 21.4706 33.7147 21.0673 34.2063 21.0673C34.6979 21.0673 35.0959 21.4706 35.0959 21.9689C35.0959 22.4672 34.6979 22.8705 34.2063 22.8705C33.6913 22.8705 33.3168 22.4672 33.3168 21.9689Z"
            fill="#4AACD1" />
        <path
            d="M45.068 21.9689C45.068 21.4706 45.4659 21.0673 45.9575 21.0673C46.4491 21.0673 46.8471 21.4706 46.8471 21.9689C46.8471 22.4672 46.4491 22.8705 45.9575 22.8705C45.4659 22.8705 45.068 22.4672 45.068 21.9689Z"
            fill="#4AACD1" />
        <path d="M48.6261 61H55.9999L55.1572 57.9155L55.9999 54.8309H48.6261V61Z" fill="#4AACD1" />
        <path d="M48.6261 59.173H52.6524L48.6261 61V59.173Z" fill="#433959" />
        <path
            d="M53.6825 50.4889V34.5443L40.0351 26.5482L26.4111 34.5443V50.4889L40.0351 58.4849L53.6825 50.4889Z"
            fill="#4AACD1" />
        <path
            d="M40.0351 60.4781L24.7023 51.4855V33.524L40.0351 24.5552L55.368 33.524V51.4855L40.0351 60.4781ZM28.0966 49.4924L40.0351 56.4682L51.9737 49.4924V35.5171L40.0351 28.5413L28.0966 35.5171V49.4924Z"
            fill="#4AACD1" />
        <path d="M40.0351 24.5552V28.5413L28.0966 35.5408L24.7023 33.5478L40.0351 24.5552Z"
            fill="#39759A" />
        <path d="M55.3679 51.4854L51.9736 49.4923L40.035 56.4918V60.478L55.3679 51.4854Z"
            fill="#39759A" />
        <path
            d="M48.7693 43.9037C49.5254 39.2356 46.4048 34.83 41.7992 34.0637C37.1937 33.2973 32.8472 36.4604 32.0912 41.1285C31.3351 45.7966 34.4557 50.2022 39.0612 50.9685C43.6668 51.7349 48.0132 48.5719 48.7693 43.9037Z"
            fill="#39759A" />
        <path
            d="M40.4331 33.951C40.1522 33.951 39.8947 33.9749 39.6138 33.9986C43.8976 34.4257 47.2451 38.0796 47.2451 42.5165C47.2451 46.9772 43.8976 50.6312 39.6138 51.0346C39.8947 51.0583 40.1522 51.0821 40.4331 51.0821C45.0915 51.0821 48.8837 47.2382 48.8837 42.5165C48.8837 37.7948 45.0915 33.951 40.4331 33.951Z"
            fill="#433959" />
        <path d="M24.7023 51.4854L28.0966 49.4923L40.0351 56.4918V60.478L24.7023 51.4854Z"
            fill="#AAF4DB" />
        <path d="M40.035 24.5552V28.5413L51.9736 35.5408L55.3679 33.5478L40.035 24.5552Z"
            fill="#AAF4DB" />
        <path
            d="M28.0966 49.4923L40.0351 56.4681L51.9737 49.4923V35.517L40.0351 28.5413L28.0966 35.517V49.4923Z"
            stroke="#F8FFE1" stroke-width="0.467446" stroke-miterlimit="10" />
        <path d="M31.3738 61H24L24.8427 57.9155L24 54.8309H31.3738V61Z" fill="#4AACD1" />
        <path d="M52.7228 53.004H27.3475V59.1494H52.7228V53.004Z" fill="#4AACD1" />
        <path d="M31.3739 59.173H27.3475L31.3739 61V59.173Z" fill="#433959" />
        <path
            d="M29.2216 54.1016H29.9102V56.5161H31.4023V57.0772H29.2216V54.1016ZM34.0911 56.5246V57.0772H31.7871V54.1016H34.0359V54.6542H32.4715V55.3003H33.8531V55.836H32.4715V56.5246H34.0911ZM37.4584 54.1016L36.1704 57.0772H35.4903L34.2065 54.1016H34.9504L35.8558 56.2271L36.774 54.1016H37.4584ZM40.0109 56.5246V57.0772H37.7069V54.1016H39.9557V54.6542H38.3913V55.3003H39.7729V55.836H38.3913V56.5246H40.0109ZM40.5589 54.1016H41.2475V56.5161H42.7396V57.0772H40.5589V54.1016ZM45.6503 57.1283C45.2252 57.1283 44.8936 57.0107 44.6556 56.7754C44.4204 56.5402 44.3028 56.2044 44.3028 55.768V54.1016H44.9914V55.7424C44.9914 56.2752 45.2125 56.5416 45.6546 56.5416C45.8699 56.5416 46.0343 56.4779 46.1477 56.3503C46.261 56.22 46.3177 56.0173 46.3177 55.7424V54.1016H46.9979V55.768C46.9979 56.2044 46.8788 56.5402 46.6408 56.7754C46.4056 57.0107 46.0754 57.1283 45.6503 57.1283ZM48.9664 54.1016C49.23 54.1016 49.4581 54.1455 49.6508 54.2334C49.8464 54.3212 49.9966 54.4459 50.1014 54.6074C50.2063 54.769 50.2587 54.9603 50.2587 55.1813C50.2587 55.3995 50.2063 55.5908 50.1014 55.7552C49.9966 55.9167 49.8464 56.0414 49.6508 56.1293C49.4581 56.2143 49.23 56.2568 48.9664 56.2568H48.367V57.0772H47.6784V54.1016H48.9664ZM48.9282 55.6957C49.135 55.6957 49.2923 55.6518 49.4 55.5639C49.5077 55.4732 49.5616 55.3457 49.5616 55.1813C49.5616 55.0141 49.5077 54.8866 49.4 54.7987C49.2923 54.708 49.135 54.6627 48.9282 54.6627H48.367V55.6957H48.9282Z"
            fill="#F8FFE1" />
        <path
            d="M43.8009 45.7348V47.5859H36.3826V46.1135L40.1689 42.5375C40.5709 42.1542 40.842 41.827 40.9822 41.5559C41.1225 41.2754 41.1926 40.9996 41.1926 40.7285C41.1926 40.3358 41.057 40.0367 40.7859 39.831C40.5241 39.616 40.1362 39.5085 39.622 39.5085C39.1919 39.5085 38.8039 39.5926 38.458 39.7609C38.1121 39.9198 37.8223 40.1629 37.5886 40.4901L35.9338 39.4243C36.3171 38.854 36.8453 38.41 37.5185 38.0921C38.1916 37.7649 38.9629 37.6013 39.8323 37.6013C40.5615 37.6013 41.1973 37.7228 41.7395 37.9659C42.2911 38.1996 42.7165 38.5362 43.0156 38.9756C43.3242 39.4056 43.4784 39.9151 43.4784 40.5041C43.4784 41.037 43.3662 41.5372 43.1418 42.0046C42.9175 42.4721 42.4827 43.005 41.8377 43.6033L39.5799 45.7348H43.8009Z"
            fill="#F8FFE1" />
    </g>
    <defs>
        <filter id="filter0_d_803_25678" x="0" y="0" width="80" height="80"
            filterUnits="userSpaceOnUse" color-interpolation-filters="sRGB">
            <feFlood flood-opacity="0" result="BackgroundImageFix" />
            <feColorMatrix in="SourceAlpha" type="matrix"
                values="0 0 0 0 0 0 0 0 0 0 0 0 0 0 0 0 0 0 127 0" result="hardAlpha" />
            <feOffset dy="2" />
            <feGaussianBlur stdDeviation="2" />
            <feComposite in2="hardAlpha" operator="out" />
            <feColorMatrix type="matrix" values="0 0 0 0 0 0 0 0 0 0 0 0 0 0 0 0 0 0 0.25 0" />
            <feBlend mode="normal" in2="BackgroundImageFix" result="effect1_dropShadow_803_25678" />
            <feBlend mode="normal" in="SourceGraphic" in2="effect1_dropShadow_803_25678"
                result="shape" />
        </filter>
        <clipPath id="clip0_803_25678">
            <rect width="80" height="80" fill="white" />
        </clipPath>
    </defs>
</svg>
