<svg width="32" height="49" viewBox="0 0 32 49" fill="none" xmlns="http://www.w3.org/2000/svg">
    <path
        d="M23.2451 3.0436C22.7535 3.0436 22.3322 3.4386 22.3322 3.9497C22.3322 4.0659 22.3556 4.1821 22.4024 4.275L18.5868 5.2044L16.5268 1.6728C16.8077 1.5102 16.9715 1.2314 16.9715 0.9061C16.9715 0.4182 16.5736 0 16.0586 0C15.567 0 15.1456 0.395 15.1456 0.9061C15.1456 1.2314 15.3329 1.5334 15.5904 1.6728L13.5304 5.2044L9.71481 4.275C9.76161 4.1821 9.78501 4.0659 9.78501 3.9497C9.78501 3.4618 9.38711 3.0436 8.87211 3.0436C8.38051 3.0436 7.95911 3.4386 7.95911 3.9497C7.95911 4.4376 8.35711 4.8559 8.87211 4.8559C8.94231 4.8559 9.0359 4.8326 9.1061 4.8326L11.0491 11.129H16.0586H21.0681L23.011 4.8326C23.0813 4.8559 23.1515 4.8559 23.2451 4.8559C23.7367 4.8559 24.1581 4.4609 24.1581 3.9497C24.1581 3.4386 23.7601 3.0436 23.2451 3.0436Z"
        fill="#9A408F" />
    <path
        d="M16.082 1.67285V11.1058H21.0915L23.0111 4.80935L22.4024 4.27495L18.5868 5.20435L16.5268 1.67285H16.082Z"
        fill="#D064A5" />
    <path
        d="M16.0821 7.59741C12.8282 7.59741 10.2064 8.13181 10.2064 8.80561V13.5453H21.9577V8.80561C21.9577 8.15501 19.3125 7.59741 16.0821 7.59741Z"
        fill="#9A408F" />
    <path
        d="M16.0821 14.7535C19.3271 14.7535 21.9577 14.2126 21.9577 13.5453C21.9577 12.8781 19.3271 12.3372 16.0821 12.3372C12.837 12.3372 10.2064 12.8781 10.2064 13.5453C10.2064 14.2126 12.837 14.7535 16.0821 14.7535Z"
        fill="#433959" />
    <path
        d="M22.1449 9.3167C22.0278 9.3167 21.9108 9.2703 21.8171 9.2006C21.7703 9.1773 20.3892 8.1086 16.0351 8.1086C11.7513 8.1086 10.2531 9.2006 10.2531 9.2006C10.0425 9.3632 9.71469 9.34 9.52749 9.1076C9.36359 8.8985 9.38699 8.5733 9.59769 8.4106C9.66789 8.3642 11.3065 7.0863 16.0117 7.0863C20.7871 7.0863 22.2853 8.2945 22.4492 8.4339C22.6599 8.6197 22.6833 8.945 22.496 9.1541C22.4258 9.2703 22.2853 9.3167 22.1449 9.3167Z"
        fill="#FF6F89" />
    <path
        d="M17.861 8.17831C18.9612 8.27121 19.7805 8.43381 20.3892 8.59651C20.7169 8.68941 21.0446 8.45711 21.0446 8.10861C21.0446 7.87621 20.8808 7.69041 20.6701 7.62071C19.9912 7.43481 19.1017 7.27211 17.9546 7.17921C17.6503 7.15601 17.3928 7.38831 17.3928 7.69041C17.3928 7.94591 17.6035 8.15501 17.861 8.17831Z"
        fill="#F8FFE1" />
    <path
        d="M22.1449 13.615C22.0278 13.615 21.9108 13.5685 21.8171 13.4988C21.7703 13.4756 20.3892 12.4068 16.0351 12.4068C11.7513 12.4068 10.2531 13.4988 10.2531 13.4988C10.0425 13.6614 9.71469 13.6382 9.52749 13.4059C9.36359 13.1968 9.38699 12.8715 9.59769 12.7088C9.66789 12.6624 11.3065 11.3845 16.0117 11.3845C20.7871 11.3845 22.2853 12.5927 22.4492 12.7321C22.6599 12.918 22.6833 13.2432 22.496 13.4523C22.4258 13.5685 22.2853 13.615 22.1449 13.615Z"
        fill="#FF6F89" />
    <path
        d="M17.861 12.4765C18.9612 12.5694 19.7805 12.7321 20.3892 12.8947C20.7169 12.9876 21.0446 12.7553 21.0446 12.4068C21.0446 12.1744 20.8808 11.9886 20.6701 11.9189C19.9912 11.733 19.1017 11.5704 17.9546 11.4774C17.6503 11.4542 17.3928 11.6865 17.3928 11.9886C17.3928 12.2441 17.6035 12.4533 17.861 12.4765Z"
        fill="#F8FFE1" />
    <path
        d="M15.1689 9.92086C15.1689 9.43286 15.5669 9.03796 16.0585 9.03796C16.5501 9.03796 16.948 9.43286 16.948 9.92086C16.948 10.4088 16.5501 10.8037 16.0585 10.8037C15.5669 10.8037 15.1689 10.4088 15.1689 9.92086Z"
        fill="#FF6F89" />
    <path
        d="M9.31677 10.8037C9.31677 10.3157 9.71467 9.92078 10.2063 9.92078C10.6979 9.92078 11.0959 10.3157 11.0959 10.8037C11.0959 11.2916 10.6979 11.6865 10.2063 11.6865C9.71467 11.6633 9.31677 11.2683 9.31677 10.8037Z"
        fill="#FF6F89" />
    <path
        d="M21.0681 10.8037C21.0681 10.3157 21.4661 9.92078 21.9577 9.92078C22.4492 9.92078 22.8472 10.3157 22.8472 10.8037C22.8472 11.2916 22.4492 11.6865 21.9577 11.6865C21.4661 11.6865 21.0681 11.2683 21.0681 10.8037Z"
        fill="#FF6F89" />
    <path d="M24.6262 49H32L31.1573 45.9796L32 42.9592H24.6262V49Z" fill="#9A408F" />
    <path d="M24.6262 47.2109H28.6526L24.6262 48.9999V47.2109Z" fill="#433959" />
    <path
        d="M29.6825 38.7307V23.0944L16.0351 15.2878L2.41113 23.0944V38.7307L16.0351 46.5373L29.6825 38.7307Z"
        fill="#D064A5" />
    <path
        d="M16.0351 48.4889L0.702271 39.7065V22.1185L16.0351 13.3362L31.368 22.1185V39.7065L16.0351 48.4889ZM4.11997 37.7549L16.0585 44.5856L27.9971 37.7549V24.0702L16.0585 17.2395L4.11997 24.0702V37.7549Z"
        fill="#D064A5" />
    <path d="M16.0351 13.3362V17.2395L4.11997 24.0702L0.702271 22.1185L16.0351 13.3362Z"
        fill="#9A408F" />
    <path d="M31.3913 39.7065L27.9736 37.7549L16.035 44.5856V48.4889L31.3913 39.7065Z"
        fill="#9A408F" />
    <path
        d="M19.7332 38.6269C24.0284 36.8148 26.0302 31.8899 24.2045 27.6268C22.3787 23.3638 17.4166 21.3769 13.1215 23.1891C8.82631 25.0012 6.82451 29.9261 8.65021 34.1891C10.476 38.4522 15.4381 40.439 19.7332 38.6269Z"
        fill="#9A408F" />
    <path
        d="M16.4331 22.5135C16.1522 22.5135 15.8947 22.5369 15.6138 22.5601C19.8976 22.9783 23.2451 26.5563 23.2451 30.901C23.2451 35.269 19.8976 38.847 15.6138 39.242C15.8947 39.2652 16.1522 39.2883 16.4331 39.2883C21.0915 39.2883 24.8837 35.5246 24.8837 30.901C24.8837 26.2775 21.1149 22.5135 16.4331 22.5135Z"
        fill="#433959" />
    <path d="M0.702271 39.7065L4.11997 37.7549L16.0351 44.5856V48.4889L0.702271 39.7065Z"
        fill="#FF6F89" />
    <path d="M16.035 13.3362V17.2395L27.9736 24.0702L31.3913 22.1185L16.035 13.3362Z"
        fill="#FF6F89" />
    <path
        d="M4.12 37.7549L16.0585 44.5856L27.9971 37.7549V24.0702L16.0585 17.2395L4.12 24.0702V37.7549Z"
        stroke="#F8FFE1" stroke-width="0.467446" stroke-miterlimit="10" />
    <path d="M7.3972 49H0L0.8661 45.9796L0 42.9592H7.3972V49Z" fill="#9A408F" />
    <path d="M28.7228 41.1935H3.34753V47.211H28.7228V41.1935Z" fill="#9A408F" />
    <path d="M7.39734 47.2109H3.34753L7.39734 48.9999V47.2109Z" fill="#433959" />
    <path d="M9.73816 4.27502L12.875 6.50553L13.5772 5.20442L9.73816 4.27502Z" fill="#D064A5" />
    <path d="M19.5464 6.50553L18.5867 5.20442L22.4023 4.27502L19.5464 6.50553Z" fill="#9A408F" />
    <path
        d="M2.99636 13.7776L2.64526 13.917L2.99636 14.0564C4.07316 14.4746 4.93926 15.3343 5.36066 16.403L5.50116 16.7516L5.64156 16.403C6.06296 15.3343 6.92907 14.4746 8.00587 14.0564L8.35696 13.917L8.00587 13.7776C6.92907 13.3594 6.06296 12.4998 5.64156 11.431L5.50116 11.0825L5.36066 11.431C4.93926 12.4998 4.09656 13.3594 2.99636 13.7776Z"
        fill="#D064A5" />
    <path
        d="M24.0644 13.7776L23.7133 13.917L24.0644 14.0564C25.1412 14.4746 26.0073 15.3343 26.4287 16.403L26.5691 16.7516L26.7096 16.403C27.131 15.3343 27.9971 14.4746 29.0739 14.0564L29.425 13.917L29.0739 13.7776C27.9971 13.3594 27.131 12.4998 26.7096 11.431L26.5691 11.0825L26.4287 11.431C26.0073 12.4998 25.1646 13.3594 24.0644 13.7776Z"
        fill="#D064A5" />
    <path
        d="M5.23254 42.2704H5.92114V44.685H7.41324V45.2461H5.23254V42.2704ZM10.102 44.6935V45.2461H7.79804V42.2704H10.0467V42.823H8.48244V43.4692H9.86404V44.0048H8.48244V44.6935H10.102ZM13.4693 42.2704L12.1813 45.2461H11.5011L10.2173 42.2704H10.9613L11.8667 44.3959L12.7849 42.2704H13.4693ZM16.0218 44.6935V45.2461H13.7178V42.2704H15.9665V42.823H14.4022V43.4692H15.7837V44.0048H14.4022V44.6935H16.0218ZM16.5697 42.2704H17.2584V44.685H18.7505V45.2461H16.5697V42.2704ZM21.6612 45.2971C21.2361 45.2971 20.9045 45.1795 20.6665 44.9443C20.4312 44.7091 20.3136 44.3732 20.3136 43.9368V42.2704H21.0023V43.9113C21.0023 44.4441 21.2233 44.7105 21.6654 44.7105C21.8808 44.7105 22.0452 44.6467 22.1586 44.5192C22.2719 44.3888 22.3286 44.1862 22.3286 43.9113V42.2704H23.0087V43.9368C23.0087 44.3732 22.8897 44.7091 22.6517 44.9443C22.4164 45.1795 22.0863 45.2971 21.6612 45.2971ZM24.9773 42.2704C25.2409 42.2704 25.469 42.3143 25.6617 42.4022C25.8573 42.4901 26.0075 42.6148 26.1123 42.7763C26.2172 42.9378 26.2696 43.1291 26.2696 43.3502C26.2696 43.5684 26.2172 43.7597 26.1123 43.924C26.0075 44.0856 25.8573 44.2103 25.6617 44.2981C25.469 44.3831 25.2409 44.4257 24.9773 44.4257H24.3779V45.2461H23.6893V42.2704H24.9773ZM24.939 43.8645C25.1459 43.8645 25.3032 43.8206 25.4109 43.7328C25.5186 43.6421 25.5724 43.5145 25.5724 43.3502C25.5724 43.183 25.5186 43.0554 25.4109 42.9676C25.3032 42.8769 25.1459 42.8315 24.939 42.8315H24.3779V43.8645H24.939Z"
        fill="#F8FFE1" />
    <path
        d="M17.0492 30.3404C17.9093 30.4807 18.5684 30.8032 19.0265 31.3081C19.4846 31.8036 19.7136 32.4205 19.7136 33.159C19.7136 33.7293 19.5641 34.2576 19.2649 34.7438C18.9657 35.2206 18.5076 35.6039 17.8906 35.8937C17.2829 36.1835 16.535 36.3284 15.6468 36.3284C14.955 36.3284 14.2726 36.2396 13.5994 36.062C12.9357 35.875 12.37 35.6131 11.9026 35.2766L12.7861 33.5378C13.16 33.8182 13.5901 34.0378 14.0762 34.1968C14.5717 34.3464 15.0766 34.4212 15.5908 34.4212C16.161 34.4212 16.6098 34.3137 16.937 34.0987C17.2642 33.8743 17.4278 33.5611 17.4278 33.159C17.4278 32.355 16.8155 31.953 15.5908 31.953H14.553V30.4525L16.5724 28.1668H12.3934V26.3438H19.2649V27.8162L17.0492 30.3404Z"
        fill="#F8FFE1" />
</svg>
