<svg width="32" height="46" viewBox="0 0 32 46" fill="none" xmlns="http://www.w3.org/2000/svg">
    <path
        d="M22.0044 1.6403L20.0849 1.1717V2.6246L18.6803 2.1559V0.4687L16.7608 0V1.9215H15.3563V0L13.4367 0.4687V2.1559L12.0322 2.6246V1.1717L10.1127 1.6403L10.1829 10.2405H21.9342L22.0044 1.6403Z"
        fill="#8CD41F" />
    <path
        d="M16.0585 11.4591C19.3035 11.4591 21.9341 10.9135 21.9341 10.2405C21.9341 9.56747 19.3035 9.02197 16.0585 9.02197C12.8135 9.02197 10.1829 9.56747 10.1829 10.2405C10.1829 10.9135 12.8135 11.4591 16.0585 11.4591Z"
        fill="#433959" />
    <path
        d="M22.1214 5.97555C22.0044 5.97555 21.8873 5.92865 21.7937 5.85835C21.7469 5.83495 20.3658 4.75695 16.0117 4.75695C11.7279 4.75695 10.2297 5.85835 10.2297 5.85835C10.019 6.02235 9.69128 5.99895 9.50398 5.76465C9.34018 5.55375 9.36358 5.22565 9.57418 5.06165C9.64448 5.01475 11.2831 3.72595 15.9883 3.72595C20.7637 3.72595 22.2619 4.94445 22.4257 5.08505C22.6364 5.27255 22.6598 5.60055 22.4726 5.81145C22.4023 5.92865 22.2619 5.97555 22.1214 5.97555Z"
        fill="#00A979" />
    <path
        d="M17.8376 4.8273C18.9378 4.921 19.7571 5.08501 20.3657 5.24911C20.6935 5.34281 21.0212 5.10851 21.0212 4.75691C21.0212 4.52261 20.8573 4.3351 20.6466 4.2648C19.9678 4.0774 19.0782 3.9133 17.9312 3.8196C17.6269 3.7962 17.3694 4.03051 17.3694 4.33511C17.3694 4.59291 17.5801 4.8038 17.8376 4.8273Z"
        fill="#F8FFE1" />
    <path
        d="M22.1214 10.3108C22.0044 10.3108 21.8873 10.2639 21.7937 10.1936C21.7469 10.1702 20.3658 9.09216 16.0117 9.09216C11.7279 9.09216 10.2297 10.1936 10.2297 10.1936C10.019 10.3576 9.69128 10.3342 9.50398 10.0999C9.34018 9.88896 9.36358 9.56086 9.57418 9.39686C9.64448 9.34996 11.2831 8.06116 15.9883 8.06116C20.7637 8.06116 22.2619 9.27966 22.4257 9.42026C22.6364 9.60776 22.6598 9.93576 22.4726 10.1467C22.4023 10.2639 22.2619 10.3108 22.1214 10.3108Z"
        fill="#00A979" />
    <path
        d="M17.8376 9.16263C18.9378 9.25633 19.7571 9.42033 20.3657 9.58443C20.6935 9.67813 21.0212 9.44383 21.0212 9.09233C21.0212 8.85793 20.8573 8.67053 20.6466 8.60023C19.9678 8.41273 19.0782 8.24873 17.9312 8.15493C17.6269 8.13153 17.3694 8.36583 17.3694 8.67053C17.3694 8.92823 17.5801 9.13913 17.8376 9.16263Z"
        fill="#F8FFE1" />
    <path d="M24.6028 46.0001H32L31.1339 42.9538L32 39.9073H24.6028V46.0001Z" fill="#00A979" />
    <path d="M24.6028 44.1957H28.6525L24.6028 46.0001V44.1957Z" fill="#433959" />
    <path
        d="M29.6592 35.6189V19.8716L16.0352 11.9745L2.38782 19.8716V35.6189L16.0352 43.516L29.6592 35.6189Z"
        fill="#8CD41F" />
    <path
        d="M16.0352 45.4845L0.678955 36.6031V18.864L16.0352 10.0061L31.3681 18.864V36.6031L16.0352 45.4845ZM4.09665 34.6347L16.0352 41.5242L27.9738 34.6347V20.8324L16.0352 13.9429L4.09665 20.8324V34.6347Z"
        fill="#8CD41F" />
    <path d="M16.0352 10.0061V13.9429L4.09665 20.8558L0.678955 18.8874L16.0352 10.0061Z"
        fill="#00A979" />
    <path d="M31.3679 36.6032L27.9736 34.6348L16.035 41.5477V45.4845L31.3679 36.6032Z"
        fill="#00A979" />
    <path
        d="M22.4043 33.7221C25.7045 30.4185 25.7045 25.0623 22.4043 21.7586C19.1042 18.455 13.7536 18.455 10.4535 21.7586C7.15334 25.0623 7.15334 30.4185 10.4535 33.7221C13.7536 37.0257 19.1042 37.0257 22.4043 33.7221Z"
        fill="#00A979" />
    <path
        d="M16.4331 19.2858C16.1522 19.2858 15.8947 19.3092 15.6138 19.3326C19.8976 19.7544 23.2451 23.3632 23.2451 27.7453C23.2451 32.1508 19.8976 35.7595 15.6138 36.1579C15.8947 36.1813 16.1522 36.2048 16.4331 36.2048C21.0915 36.2048 24.8837 32.4085 24.8837 27.7453C24.8837 23.082 21.0915 19.2858 16.4331 19.2858Z"
        fill="#514769" />
    <path d="M0.678955 36.6032L4.09665 34.6348L16.0352 41.5477V45.4845L0.678955 36.6032Z"
        fill="#AAF4DB" />
    <path d="M16.035 10.0061V13.9429L27.9736 20.8558L31.3679 18.8874L16.035 10.0061Z"
        fill="#AAF4DB" />
    <path
        d="M4.09656 34.6348L16.0351 41.5242L27.9737 34.6348V20.8324L16.0351 13.943L4.09656 20.8324V34.6348Z"
        stroke="#F8FFE1" stroke-width="0.467446" stroke-miterlimit="10" />
    <path d="M7.3738 46.0001H0L0.842699 42.9538L0 39.9073H7.3738V46.0001Z" fill="#00A979" />
    <path d="M28.7228 38.1029H3.34753V44.1722H28.7228V38.1029Z" fill="#00A979" />
    <path d="M7.37393 44.1957H3.34753L7.37393 46.0001V44.1957Z" fill="#433959" />
    <path
        d="M7.58032 39.1995H8.26902V41.614H9.76112V42.1752H7.58032V39.1995ZM13.3001 41.6225V42.1752H10.996V39.1995H13.2448V39.7521H11.6805V40.3983H13.062V40.9339H11.6805V41.6225H13.3001ZM17.5176 39.1995L16.2295 42.1752H15.5494L14.2656 39.1995H15.0095L15.915 41.325L16.8332 39.1995H17.5176ZM20.9202 41.6225V42.1752H18.6162V39.1995H20.865V39.7521H19.3006V40.3983H20.6822V40.9339H19.3006V41.6225H20.9202ZM22.3184 39.1995H23.007V41.614H24.4991V42.1752H22.3184V39.1995Z"
        fill="#F8FFE1" />
    <path d="M17.6369 23.1088V32.9252H15.3651V24.9318H13.4019V23.1088H17.6369Z" fill="#F8FFE1" />
</svg>
