<svg width="45" height="49" viewBox="0 0 45 49" fill="none" xmlns="http://www.w3.org/2000/svg">
    <path d="M7.7706 27.9734H4.0593C1.8093 27.9734 0 26.1611 0 23.9075H7.7706V27.9734Z"
        fill="#FF7B34" />
    <path
        d="M7.77053 32.0393H4.98703C2.73703 32.0393 0.927734 30.2271 0.927734 27.9734H7.77053V32.0393Z"
        fill="#FF9700" />
    <path
        d="M7.77058 36.1052H6.37888C4.12888 36.1052 2.31958 34.293 2.31958 32.0393H7.77058V36.1052Z"
        fill="#F5C05B" />
    <path d="M7.30649 36.1052H7.77049V23.9075H5.91479L7.30649 36.1052Z" fill="#433959" />
    <path d="M37.2294 27.9734H40.9407C43.1907 27.9734 45 26.1611 45 23.9075H37.2294V27.9734Z"
        fill="#FF7B34" />
    <path
        d="M37.2294 32.0393H40.0129C42.2629 32.0393 44.0722 30.2271 44.0722 27.9734H37.2294V32.0393Z"
        fill="#FF9700" />
    <path
        d="M37.2294 36.1052H38.6211C40.8711 36.1052 42.6804 34.293 42.6804 32.0393H37.2294V36.1052Z"
        fill="#F5C05B" />
    <path d="M37.6933 36.1052H37.2294V23.9075H39.085L37.6933 36.1052Z" fill="#433959" />
    <path
        d="M30.4793 3.9497C30.4793 2.3698 28.9947 1.0688 27.1623 1.0688C26.6055 1.0688 26.072 1.1849 25.6081 1.394C24.9354 0.5576 23.822 0 22.5463 0C21.2705 0 20.1339 0.5576 19.4844 1.394C19.0205 1.1849 18.487 1.0688 17.9303 1.0688C16.0978 1.0688 14.6133 2.3466 14.6133 3.9497C14.6133 6.5287 17.4432 7.2489 17.4432 9.6652H27.719C27.6494 7.0863 30.4793 6.3893 30.4793 3.9497Z"
        fill="#FF7B34" />
    <path
        d="M25.5618 1.3708C24.8891 0.5576 23.7757 0 22.5232 0C21.2706 0 20.1572 0.5344 19.4845 1.3708C17.9768 5.0185 21.085 9.642 21.085 9.642H23.9381C23.9613 9.642 27.0696 4.4144 25.5618 1.3708Z"
        fill="#FF9700" />
    <path
        d="M22.5233 7.62061C19.2991 7.62061 16.701 8.15501 16.701 8.82881V13.5684H28.3455V8.82881C28.3455 8.15501 25.7475 7.62061 22.5233 7.62061Z"
        fill="#FF7B34" />
    <path
        d="M28.3455 13.5685C28.3455 14.2423 25.7475 14.7767 22.5233 14.7767C19.2991 14.7767 16.701 14.2423 16.701 13.5685C16.701 12.8947 19.2991 12.3604 22.5233 12.3604C25.7475 12.3604 28.3455 12.8947 28.3455 13.5685Z"
        fill="#433959" />
    <path
        d="M28.5541 9.3399C28.4381 9.3399 28.3221 9.2935 28.2293 9.2238C28.1829 9.2005 26.8144 8.1318 22.5 8.1318C18.2551 8.1318 16.7706 9.2238 16.7706 9.2238C16.5618 9.3864 16.2371 9.3632 16.0515 9.1308C15.8891 8.9217 15.9123 8.5965 16.1211 8.4338C16.1907 8.3874 17.8144 7.1095 22.4768 7.1095C27.2087 7.1095 28.6933 8.3176 28.8556 8.4571C29.0644 8.6429 29.0876 8.9682 28.902 9.1773C28.8324 9.2702 28.6933 9.3399 28.5541 9.3399Z"
        fill="#F4AF3E" />
    <path
        d="M24.3093 8.20163C25.3995 8.29453 26.2113 8.45723 26.8144 8.61983C27.1392 8.71273 27.4639 8.48043 27.4639 8.13193C27.4639 7.89953 27.3015 7.71373 27.0928 7.64403C26.4201 7.45813 25.5386 7.29553 24.402 7.20253C24.1005 7.17933 23.8453 7.41163 23.8453 7.71373C23.8453 7.94603 24.0309 8.17843 24.3093 8.20163Z"
        fill="#F8FFE1" />
    <path
        d="M28.5541 13.6382C28.4381 13.6382 28.3221 13.5917 28.2293 13.522C28.1829 13.4988 26.8144 12.43 22.5 12.43C18.2551 12.43 16.7706 13.522 16.7706 13.522C16.5618 13.6846 16.2371 13.6614 16.0515 13.4291C15.8891 13.22 15.9123 12.8947 16.1211 12.732C16.1907 12.6856 17.8144 11.4077 22.4768 11.4077C27.2087 11.4077 28.6933 12.6159 28.8556 12.7553C29.0644 12.9411 29.0876 13.2664 28.902 13.4755C28.8324 13.5685 28.6933 13.6382 28.5541 13.6382Z"
        fill="#F4AF3E" />
    <path
        d="M24.3093 12.4997C25.3995 12.5926 26.2113 12.7553 26.8144 12.9179C27.1392 13.0108 27.4639 12.7785 27.4639 12.43C27.4639 12.1976 27.3015 12.0118 27.0928 11.9421C26.4201 11.7562 25.5386 11.5936 24.402 11.5006C24.1005 11.4774 23.8453 11.7097 23.8453 12.0118C23.8453 12.2441 24.0309 12.4764 24.3093 12.4997Z"
        fill="#F8FFE1" />
    <path
        d="M21.6185 9.92086C21.6185 9.43286 22.0129 9.03796 22.5 9.03796C22.9871 9.03796 23.3814 9.43286 23.3814 9.92086C23.3814 10.4088 22.9871 10.8037 22.5 10.8037C22.0129 10.8037 21.6185 10.4088 21.6185 9.92086Z"
        fill="#F5C05B" />
    <path
        d="M15.8428 10.8038C15.8428 10.3159 16.2371 9.9209 16.7242 9.9209C17.2113 9.9209 17.6057 10.3159 17.6057 10.8038C17.6057 11.2917 17.2113 11.6867 16.7242 11.6867C16.2371 11.6867 15.8428 11.2917 15.8428 10.8038Z"
        fill="#F5C05B" />
    <path
        d="M27.4871 10.8038C27.4871 10.3159 27.8814 9.9209 28.3685 9.9209C28.8556 9.9209 29.2499 10.3159 29.2499 10.8038C29.2499 11.2917 28.8556 11.6867 28.3685 11.6867C27.8582 11.6867 27.4871 11.2917 27.4871 10.8038Z"
        fill="#F5C05B" />
    <path d="M31.0128 49H38.3195L37.4845 45.9796L38.3195 42.9824H31.0128V49Z" fill="#FF7B34" />
    <path d="M31.0128 47.2109H35.0025L31.0128 48.9999V47.2109Z" fill="#433959" />
    <path d="M36 38.7307V23.0944L22.5 15.2878L8.97681 23.0944V38.7307L22.5 46.5373L36 38.7307Z"
        fill="#F4AF3E" />
    <path
        d="M22.5001 48.4889L7.30676 39.7065V22.1185L22.5001 13.3362L37.6934 22.1185V39.7065L22.5001 48.4889ZM10.6702 37.7549L22.5001 44.5856L34.33 37.7549V24.0702L22.5001 17.2395L10.6702 24.0702V37.7549Z"
        fill="#FF9700" />
    <path d="M22.5001 13.3362V17.2395L10.6702 24.0702L7.30676 22.1185L22.5001 13.3362Z"
        fill="#FF7B34" />
    <path d="M37.6933 39.7065L34.3299 37.7549L22.5 44.5856V48.4889L37.6933 39.7065Z"
        fill="#FF7B34" />
    <path
        d="M22.8943 39.3115C27.519 39.3115 31.268 35.5564 31.268 30.9241C31.268 26.2919 27.519 22.5367 22.8943 22.5367C18.2697 22.5367 14.5206 26.2919 14.5206 30.9241C14.5206 35.5564 18.2697 39.3115 22.8943 39.3115Z"
        fill="#FF9700" />
    <path
        d="M22.8944 22.5367C22.616 22.5367 22.3609 22.56 22.0825 22.5832C26.3274 23.0014 29.6444 26.5794 29.6444 30.9241C29.6444 35.2921 26.3274 38.8701 22.0825 39.2651C22.3609 39.2883 22.616 39.3115 22.8944 39.3115C27.5104 39.3115 31.2681 35.5477 31.2681 30.9241C31.2681 26.2774 27.5104 22.5367 22.8944 22.5367Z"
        fill="#FF7B34" />
    <path d="M7.30676 39.7065L10.6702 37.7549L22.5001 44.5856V48.4889L7.30676 39.7065Z"
        fill="#F5C05B" />
    <path d="M22.5 13.3362V17.2395L34.3299 24.0702L37.6933 22.1185L22.5 13.3362Z" fill="#F5C05B" />
    <path
        d="M10.67 37.7549L22.4999 44.5856L34.3298 37.7549V24.0702L22.4999 17.2395L10.67 24.0702V37.7549Z"
        stroke="#F8FFE1" stroke-width="0.467446" stroke-miterlimit="10" />
    <path d="M13.9175 49H6.61084L7.44594 45.9796L6.61084 42.9824H13.9175V49Z" fill="#FF7B34" />
    <path d="M35.0722 41.1935H9.92786V47.211H35.0722V41.1935Z" fill="#FF7B34" />
    <path d="M13.9175 47.2109H9.92786L13.9175 48.9999V47.2109Z" fill="#433959" />
    <path
        d="M10.3222 10.6643L12.1082 11.7795L14.1959 11.9422L13.7088 13.9867L14.1959 16.0313L12.085 16.1939L10.299 17.2859L9.51029 15.3343L7.90979 13.9635L9.51029 12.6159L10.3222 10.6643Z"
        fill="#FF9700" />
    <path
        d="M34.6778 10.6643L32.8917 11.7795L30.8041 11.9422L31.2912 13.9867L30.8041 16.0313L32.9149 16.1939L34.701 17.2859L35.4896 15.3343L37.0902 13.9635L35.4896 12.6159L34.6778 10.6643Z"
        fill="#FF9700" />
    <path
        d="M11.7867 42.2817H12.4753V44.6962H13.9674V45.2573H11.7867V42.2817ZM16.6562 44.7047V45.2573H14.3522V42.2817H16.601V42.8343H15.0366V43.4804H16.4182V44.016H15.0366V44.7047H16.6562ZM20.0236 42.2817L18.7355 45.2573H18.0554L16.7716 42.2817H17.5155L18.4209 44.4071L19.3391 42.2817H20.0236ZM22.576 44.7047V45.2573H20.272V42.2817H22.5208V42.8343H20.9564V43.4804H22.338V44.016H20.9564V44.7047H22.576ZM23.124 42.2817H23.8126V44.6962H25.3047V45.2573H23.124V42.2817ZM28.2154 45.3083C27.7903 45.3083 27.4587 45.1907 27.2207 44.9555C26.9855 44.7203 26.8679 44.3845 26.8679 43.948V42.2817H27.5565V43.9225C27.5565 44.4553 27.7776 44.7217 28.2197 44.7217C28.435 44.7217 28.5994 44.6579 28.7128 44.5304C28.8261 44.4 28.8828 44.1974 28.8828 43.9225V42.2817H29.563V43.948C29.563 44.3845 29.4439 44.7203 29.2059 44.9555C28.9707 45.1907 28.6405 45.3083 28.2154 45.3083ZM31.5315 42.2817C31.7951 42.2817 32.0232 42.3256 32.2159 42.4134C32.4115 42.5013 32.5617 42.626 32.6665 42.7875C32.7714 42.9491 32.8238 43.1403 32.8238 43.3614C32.8238 43.5796 32.7714 43.7709 32.6665 43.9353C32.5617 44.0968 32.4115 44.2215 32.2159 44.3094C32.0232 44.3944 31.7951 44.4369 31.5315 44.4369H30.9321V45.2573H30.2435V42.2817H31.5315ZM31.4933 43.8758C31.7001 43.8758 31.8574 43.8318 31.9651 43.744C32.0728 43.6533 32.1267 43.5258 32.1267 43.3614C32.1267 43.1942 32.0728 43.0667 31.9651 42.9788C31.8574 42.8881 31.7001 42.8428 31.4933 42.8428H30.9321V43.8758H31.4933Z"
        fill="#F8FFE1" />
    <path
        d="M27.2679 34.1099H25.6692V36.1714H23.4535V34.1099H18.1667V32.5814L22.7944 26.355H25.1784L20.8872 32.2589H23.5236V30.4218H25.6692V32.2589H27.2679V34.1099Z"
        fill="#F8FFE1" />
</svg>
