<svg width="24" height="24" viewBox="0 0 24 24" fill="none" xmlns="http://www.w3.org/2000/svg">
    <path fill-rule="evenodd" clip-rule="evenodd"
        d="M12.3616 20.5814L12.2838 20.6715C12.1342 20.8446 11.8658 20.8446 11.7162 20.6715L11.6384 20.5814C11.3973 20.315 5.25 13.4651 5.25 9.39323C5.25 5.89218 8.30357 3 12 3C15.6964 3 18.75 5.85412 18.75 9.39323C18.75 13.1701 13.4611 19.3044 12.5024 20.4163C12.4275 20.5031 12.3791 20.5593 12.3616 20.5814ZM14.6996 9.30005C14.6996 10.7766 13.4762 12 11.9996 12C10.5231 12 9.29963 10.7766 9.29963 9.30005C9.29963 7.82348 10.5231 6.60005 11.9996 6.60005C13.4762 6.60005 14.6996 7.82348 14.6996 9.30005Z"
        fill="#FFBE0B" />
</svg>
