<svg width="24" height="24" viewBox="0 0 24 24" fill="none" xmlns="http://www.w3.org/2000/svg">
    <g id="Lock">
        <rect width="24" height="24" fill="white" />
        <path id="Vector"
            d="M17 9.15379H9.00002V7.15379C9.00002 6.3538 9.30002 5.65379 9.90002 5.05379C11.1 3.8538 13 3.8538 14.1 5.05379C14.5 5.4538 14.7 5.95379 14.9 6.45379C15 6.9538 15.6 7.2538 16.1 7.15379C16.6 7.05379 17 6.45379 16.8 5.95379C16.6 5.05379 16.1 4.2538 15.5 3.6538C14.6 2.6538 13.3 2.15381 12 2.15381C9.20002 2.15381 7.00002 4.3538 7.00002 7.15379V9.15379C5.30004 9.15379 4.00003 10.4538 4.00003 12.1538V19.1538C4.00003 20.8537 5.30004 22.1538 7.00002 22.1538H17C18.7 22.1538 20 20.8537 20 19.1538V12.1538C20 10.4538 18.7 9.15379 17 9.15379ZM13.1 15.6538L13 15.7537V17.1538C13 17.7538 12.6 18.1537 12 18.1537C11.4 18.1537 11 17.7538 11 17.1538V15.7537C10.4 15.1537 10.3 14.2537 10.9 13.6538C11.5 13.0538 12.4 12.9538 13 13.5538C13.6 14.0538 13.7 15.0538 13.1 15.6538Z"
            fill="#8C8C8C" />
    </g>
</svg>
