<svg width="352" height="192" viewBox="0 0 352 192" fill="none" xmlns="http://www.w3.org/2000/svg">
    <g clip-path="url(#clip0_309_1477)">
        <path
            d="M121.84 67.6431C118.803 67.6431 115.856 67.048 113.082 65.8743C110.402 64.7409 107.996 63.1187 105.93 61.0529C103.865 58.9871 102.242 56.581 101.109 53.9017C99.9349 51.1267 99.3398 48.1799 99.3398 45.1433C99.3398 42.1067 99.9349 39.1594 101.109 36.3849C102.242 33.7056 103.864 31.2995 105.93 29.2337C107.996 27.1679 110.402 25.5457 113.081 24.4123C115.856 23.2382 118.803 22.6431 121.84 22.6431C124.877 22.6431 127.824 23.2382 130.598 24.4118C133.278 25.5452 135.684 27.1674 137.75 29.2332C139.816 31.299 141.438 33.7051 142.571 36.3845C143.745 39.1594 144.34 42.1062 144.34 45.1428C144.34 48.1794 143.745 51.1267 142.571 53.9012C141.438 56.5805 139.816 58.9866 137.75 61.0524C135.684 63.1183 133.278 64.7404 130.598 65.8738C127.823 67.0475 124.877 67.6426 121.84 67.6426V67.6431Z"
            fill="#8497A3" />
        <path
            d="M121.84 66.2888C133.518 66.2888 142.985 56.8217 142.985 45.1433C142.985 33.465 133.518 23.9978 121.84 23.9978C110.162 23.9978 100.694 33.465 100.694 45.1433C100.694 56.8217 110.162 66.2888 121.84 66.2888Z"
            fill="#628CA1" />
        <path
            d="M121.966 64.921C132.973 64.921 141.896 55.998 141.896 44.9909C141.896 33.9838 132.973 25.0608 121.966 25.0608C110.959 25.0608 102.036 33.9838 102.036 44.9909C102.036 55.998 110.959 64.921 121.966 64.921Z"
            fill="white" />
        <mask id="mask0_309_1477" style="mask-type:luminance" maskUnits="userSpaceOnUse" x="102"
            y="25" width="40" height="40">
            <path
                d="M121.966 64.921C132.973 64.921 141.896 55.998 141.896 44.9909C141.896 33.9838 132.973 25.0608 121.966 25.0608C110.959 25.0608 102.036 33.9838 102.036 44.9909C102.036 55.998 110.959 64.921 121.966 64.921Z"
                fill="white" />
        </mask>
        <g mask="url(#mask0_309_1477)">
            <path opacity="0.14"
                d="M133.404 27.4373C133.404 27.4373 129.668 48.9099 100.694 55.7199C100.694 55.7199 109.089 70.8719 130.598 65.8743C130.598 65.8743 142.326 62.6081 144.117 44.0221C144.117 44.0221 141.849 30.6476 133.404 27.4373Z"
                fill="white" />
        </g>
        <path d="M122.523 26.385H121.372V28.4901H122.523V26.385Z" fill="#D1D1D1" />
        <path d="M122.56 61.4917H121.409V63.5968H122.56V61.4917Z" fill="#D1D1D1" />
        <path d="M135.516 32.2283L134.702 31.4146L133.214 32.9031L134.027 33.7169L135.516 32.2283Z"
            fill="#D1D1D1" />
        <path d="M110.717 57.0787L109.903 56.2649L108.415 57.7534L109.229 58.5672L110.717 57.0787Z"
            fill="#D1D1D1" />
        <path d="M103.359 44.4343V45.5852H105.465V44.4343H103.359Z" fill="#D1D1D1" />
        <path d="M138.467 44.397V45.5479H140.572V44.397H138.467Z" fill="#D1D1D1" />
        <path d="M109.203 31.4406L108.39 32.2544L109.878 33.7429L110.692 32.9292L109.203 31.4406Z"
            fill="#D1D1D1" />
        <path d="M134.053 56.239L133.239 57.0527L134.728 58.5413L135.542 57.7275L134.053 56.239Z"
            fill="#D1D1D1" />
        <path
            d="M122.547 44.2842L121.967 45.2098L121.386 44.2808C121.17 43.9357 121.064 43.5333 121.082 43.1265L121.492 34.1672C121.497 34.0478 121.596 33.9541 121.715 33.9541H122.184C122.303 33.9541 122.401 34.0473 122.408 34.1662L122.849 43.1221C122.87 43.5313 122.764 43.9366 122.547 44.2837V44.2842Z"
            fill="#8497A3" />
        <path
            d="M120.44 45.7303L121.254 46.5441L111.304 56.4941C111.218 56.5799 111.078 56.5803 110.992 56.4941L110.489 55.9916C110.404 55.9058 110.403 55.7661 110.489 55.68L120.439 45.73L120.44 45.7303Z"
            fill="#8497A3" />
        <path
            d="M123.621 46.7903C124.605 45.8067 124.605 44.2119 123.621 43.2283C122.638 42.2447 121.043 42.2447 120.059 43.2283C119.076 44.2119 119.076 45.8067 120.059 46.7903C121.043 47.7739 122.638 47.7739 123.621 46.7903Z"
            fill="#628CA1" />
    </g>
    <path
        d="M226.405 87.3221C230.849 93.5948 234.625 100.37 240.783 105.423C251.291 114.053 267.26 116.267 276.054 126.711C285.486 137.904 281.34 153.77 271.231 163.159C264.509 169.401 255.458 173.398 246.058 175.786C225.697 180.973 89.8848 175.212 83.1425 172.24C74.1116 168.263 70.0682 160.637 70.725 152.028C71.7923 137.924 83.8198 126.435 97.0377 118.624C110.256 110.824 125.29 105.423 137.625 96.5672C144.676 91.5039 150.689 85.4157 157.421 80.0244C163.025 75.5351 169.275 71.5377 176.407 69.1291C194.787 62.9178 216.584 73.4236 226.405 87.3118V87.3221Z"
        fill="#FFF3F3" />
    <path
        d="M215.591 39.4531C216.429 40.796 217.129 42.0885 217.848 43.4314C218.567 44.7617 219.216 46.1235 219.853 47.5042C221.107 50.2657 222.23 53.1154 223.068 56.1605C223.182 56.5325 223.263 56.9297 223.358 57.3206L223.497 57.9069L223.566 58.197L223.648 58.6761C223.831 59.956 223.667 61.0026 223.453 61.923C222.999 63.7577 222.274 65.2267 221.492 66.6263C219.897 69.3941 218.037 71.752 215.887 73.9839L213.233 71.9727C214.544 69.4887 215.837 66.8848 216.789 64.3819C217.249 63.1398 217.64 61.8726 217.753 60.8323C217.81 60.3216 217.772 59.8803 217.703 59.7164L217.451 58.9472C217.35 58.632 217.255 58.3168 217.129 57.9952C216.221 55.4481 215.067 52.8947 213.806 50.3792C212.564 47.8699 211.19 45.3165 209.841 42.927L215.597 39.4531H215.591Z"
        fill="#FFC3BD" />
    <path
        d="M213.908 71.0647L211.014 72.603L214.343 76.4993C214.343 76.4993 216.423 75.0934 216.511 72.9498L213.908 71.071V71.0647Z"
        fill="#FFC3BD" />
    <path d="M207.116 75.0056L210.678 77.8364L214.341 76.4998L211.013 72.6035L207.116 75.0056Z"
        fill="#FFC3BD" />
    <path
        d="M194.936 18.8242C194.867 19.1772 194.621 19.4231 194.394 19.3727C194.167 19.3285 194.035 19.007 194.11 18.6539C194.18 18.3009 194.425 18.055 194.652 18.1054C194.879 18.1496 195.012 18.4711 194.936 18.8242Z"
        fill="black" />
    <path
        d="M194.659 19.4294C194.659 19.4294 193.449 21.2893 192.377 22.09C192.881 22.7961 193.985 22.7457 193.985 22.7457L194.659 19.4357V19.4294Z"
        fill="#FF5652" />
    <path
        d="M193.519 31.7931L193.544 27.6636L199.017 28.3256C199.017 28.3256 198.922 31.8814 195.864 32.9217L193.513 31.7931H193.519Z"
        fill="#FFC3BD" />
    <path d="M195.095 24.6877L198.948 25.7974L199.023 28.3256L193.551 27.6636L195.095 24.6877Z"
        fill="#FFC3BD" />
    <path opacity="0.2"
        d="M198.946 25.7974L195.094 24.6877L194.344 26.1252C194.438 28.5651 195.926 30.57 197.9 31.4716C198.971 30.0656 199.016 28.3256 199.016 28.3256L198.946 25.7974Z"
        fill="black" />
    <path
        d="M196.621 17.1411C196.671 17.1411 196.722 17.1222 196.766 17.0844C196.854 17.0087 196.854 16.87 196.779 16.7881C195.991 15.9369 195.032 16.0883 194.994 16.0946C194.881 16.1135 194.805 16.2207 194.824 16.3341C194.843 16.4476 194.957 16.5233 195.064 16.5044C195.095 16.5044 195.846 16.3909 196.476 17.0718C196.52 17.1159 196.571 17.1411 196.627 17.1411H196.621Z"
        fill="black" />
    <path
        d="M204.673 25.2046C204.036 28.4515 203.651 32.9467 205.921 35.1093C205.921 35.1093 205.032 38.4003 199.005 38.4003C192.378 38.4003 195.814 35.5128 195.814 35.5128C198.57 34.6553 198.544 31.5219 197.914 29L204.666 25.2046H204.673Z"
        fill="#FFC3BD" />
    <path
        d="M207.162 37.2783C207.755 36.4398 207.73 33.7981 207.099 33.3378C206.084 32.5876 201.728 32.4111 195.864 33.7603C196.495 36.32 195.146 37.6566 195.146 37.6566L207.162 37.2783Z"
        fill="#FD4545" />
    <path
        d="M226.869 186.952C226.422 187.046 225.98 187.071 225.766 186.888C225.678 186.813 225.583 186.668 225.665 186.403C225.709 186.264 225.798 186.157 225.936 186.094C226.535 185.81 227.91 186.372 227.973 186.39C228.011 186.403 228.036 186.441 228.036 186.485C228.036 186.529 228.017 186.567 227.979 186.58C227.771 186.68 227.323 186.851 226.876 186.945L226.869 186.952ZM226.151 186.245C226.106 186.258 226.062 186.271 226.025 186.283C225.943 186.321 225.892 186.384 225.867 186.46C225.81 186.649 225.88 186.706 225.905 186.731C226.144 186.933 227.027 186.75 227.651 186.498C227.229 186.346 226.542 186.157 226.151 186.245Z"
        fill="#407BFF" />
    <path
        d="M227.949 186.592C227.949 186.592 227.917 186.592 227.898 186.592C227.394 186.447 226.322 185.684 226.31 185.18C226.31 185.091 226.341 184.921 226.581 184.839C226.738 184.783 226.89 184.795 227.047 184.877C227.64 185.18 228.012 186.409 228.031 186.46C228.043 186.497 228.031 186.535 228.006 186.567C227.993 186.579 227.974 186.592 227.955 186.598L227.949 186.592ZM226.694 185.022C226.694 185.022 226.663 185.028 226.65 185.035C226.518 185.079 226.524 185.142 226.524 185.173C226.53 185.47 227.236 186.069 227.76 186.308C227.627 185.955 227.331 185.255 226.953 185.06C226.864 185.016 226.782 185.003 226.7 185.022H226.694Z"
        fill="#407BFF" />
    <path
        d="M194.13 187.696C193.563 187.696 193.014 187.62 192.825 187.362C192.762 187.273 192.712 187.122 192.831 186.901C192.901 186.782 193.014 186.7 193.166 186.655C193.903 186.454 195.454 187.336 195.517 187.374C195.555 187.393 195.574 187.437 195.568 187.481C195.561 187.525 195.53 187.557 195.486 187.57C195.202 187.626 194.654 187.696 194.124 187.696H194.13ZM193.424 186.838C193.348 186.838 193.279 186.845 193.222 186.863C193.128 186.889 193.058 186.939 193.014 187.008C192.939 187.141 192.97 187.204 192.995 187.242C193.203 187.525 194.326 187.538 195.145 187.418C194.735 187.21 193.941 186.838 193.424 186.838Z"
        fill="#407BFF" />
    <path
        d="M195.466 187.576C195.466 187.576 195.435 187.576 195.422 187.569C194.886 187.33 193.827 186.371 193.909 185.867C193.928 185.747 194.01 185.602 194.3 185.571C194.514 185.552 194.709 185.608 194.88 185.754C195.441 186.214 195.561 187.412 195.567 187.462C195.567 187.5 195.554 187.538 195.523 187.557C195.504 187.569 195.485 187.576 195.46 187.576H195.466ZM194.382 185.779C194.382 185.779 194.338 185.779 194.319 185.779C194.129 185.798 194.117 185.873 194.117 185.899C194.066 186.201 194.791 186.951 195.334 187.279C195.277 186.932 195.119 186.214 194.747 185.911C194.634 185.817 194.514 185.772 194.382 185.772V185.779Z"
        fill="#407BFF" />
    <path d="M200.346 187.469H195.907L195.466 177.198H199.904L200.346 187.469Z" fill="#FFC3BD" />
    <path d="M232.891 185.42L228.559 186.359L224.209 176.789L228.54 175.849L232.891 185.42Z"
        fill="#FFC3BD" />
    <path
        d="M228.144 185.918L233.011 184.865C233.188 184.827 233.37 184.915 233.446 185.079L235.136 188.748C235.312 189.127 235.079 189.574 234.669 189.656C232.961 189.997 232.116 190.072 229.972 190.539C228.655 190.823 225.679 191.548 223.863 191.945C222.085 192.329 221.417 190.589 222.129 190.268C225.313 188.811 226.637 187.532 227.501 186.34C227.658 186.126 227.885 185.974 228.144 185.924V185.918Z"
        fill="black" />
    <path
        d="M195.938 186.958H200.78C200.963 186.958 201.121 187.084 201.159 187.261L202.035 191.201C202.123 191.611 201.814 191.995 201.398 191.989C199.652 191.958 197.13 191.857 194.93 191.857C192.364 191.857 190.144 191.995 187.137 191.995C185.315 191.995 184.811 190.154 185.574 189.991C189.041 189.234 191.878 189.152 194.873 187.305C195.201 187.103 195.56 186.958 195.938 186.958Z"
        fill="black" />
    <path
        d="M213.864 36.112C218.018 37.064 221.448 47.6748 221.448 47.6748L213.101 54.0362C213.101 54.0362 210.037 51.1487 208.675 45.8401C207.244 40.2794 209.614 35.1348 213.864 36.112Z"
        fill="#FD4545" />
    <path opacity="0.4"
        d="M213.864 36.112C218.018 37.064 221.448 47.6748 221.448 47.6748L213.101 54.0362C213.101 54.0362 210.037 51.1487 208.675 45.8401C207.244 40.2794 209.614 35.1348 213.864 36.112Z"
        fill="#FD4545" />
    <path
        d="M192.005 48.7714C190.965 49.8937 189.931 50.8835 188.865 51.9112C188.336 52.4218 187.787 52.9199 187.232 53.4117L186.394 54.143L186.186 54.3258C186.085 54.4141 185.959 54.515 185.827 54.6222C185.549 54.8302 185.246 55.0635 184.61 55.3409C184.276 55.4733 183.841 55.6435 183.078 55.6561C182.718 55.6561 182.227 55.5994 181.754 55.4229C181.275 55.2463 180.808 54.9374 180.493 54.6222C179.831 53.9602 179.635 53.3801 179.503 52.9893C179.383 52.5858 179.345 52.302 179.32 52.0498C179.282 51.5581 179.307 51.2302 179.333 50.9213C179.364 50.6187 179.402 50.3539 179.452 50.108C179.635 49.1371 179.9 48.349 180.184 47.5672C180.474 46.7917 180.789 46.0415 181.161 45.2912C181.558 44.4905 181.949 43.9042 182.334 43.2359C183.891 40.6321 185.719 38.2552 187.661 36.0107C189.647 33.7852 191.728 31.7488 194.123 29.8826L196.444 32.272C194.811 34.4535 193.209 36.7925 191.728 39.0937C190.246 41.4138 188.878 43.7781 187.693 46.1865C187.422 46.7791 187.087 47.4285 186.898 47.9266C186.678 48.4688 186.476 49.0551 186.306 49.6289C186.142 50.1963 186.009 50.7889 185.946 51.2239C185.934 51.3311 185.927 51.4194 185.927 51.4761C185.927 51.5266 185.94 51.5518 185.927 51.4194C185.921 51.3437 185.915 51.2365 185.845 51.0096C185.77 50.7889 185.65 50.3728 185.12 49.8369C184.862 49.5847 184.477 49.3199 184.08 49.1812C183.696 49.0299 183.292 48.9858 183.021 48.9858C182.435 48.9984 182.176 49.1182 182.006 49.1812C181.697 49.3136 181.691 49.3514 181.691 49.3388L181.93 49.1182L182.687 48.4247L184.194 47.0124C185.19 46.073 186.192 45.0706 187.144 44.1375L191.999 48.7903L192.005 48.7714Z"
        fill="#FFC3BD" />
    <path opacity="0.2"
        d="M210.303 43.9172C212.56 46.1491 213.298 50.2219 213.474 53.7589L213.108 54.0426C213.108 54.0426 210.044 51.1487 208.676 45.8465C208.594 45.5123 208.519 45.1845 208.462 44.8566L210.309 43.9235L210.303 43.9172Z"
        fill="black" />
    <path
        d="M187.598 40.5565C186.69 45.348 186.123 55.1834 188.758 74.6711H212.476C212.64 71.027 210.352 53.2667 213.863 36.1117C213.863 36.1117 209.797 35.2984 205.926 35.1092C202.893 34.9642 198.505 34.8697 195.845 35.1092C194.735 35.2101 193.638 35.374 192.667 35.5443C190.101 35.9982 188.083 37.9968 187.604 40.5565H187.598Z"
        fill="#407BFF" />
    <path
        d="M187.598 40.5565C186.69 45.348 186.123 55.1834 188.758 74.6711H212.476C212.64 71.027 210.352 53.2667 213.863 36.1117C213.863 36.1117 209.797 35.2984 205.926 35.1092C202.893 34.9642 198.505 34.8697 195.845 35.1092C194.735 35.2101 193.638 35.374 192.667 35.5443C190.101 35.9982 188.083 37.9968 187.604 40.5565H187.598Z"
        fill="#FD4545" />
    <path opacity="0.2"
        d="M191.23 47.6368L186.943 46.6091C186.81 49.2067 186.798 52.4221 186.993 56.4003C188.967 54.1558 191.482 50.6567 191.23 47.6368Z"
        fill="black" />
    <path opacity="0.2" d="M195.466 177.205L195.693 182.494H200.131L199.904 177.205H195.466Z"
        fill="black" />
    <path opacity="0.2"
        d="M228.539 175.855L224.208 176.795L226.452 181.725L230.784 180.785L228.539 175.855Z"
        fill="black" />
    <path
        d="M206.785 20.4574C205.644 24.7068 205.196 27.2539 202.574 29.0192C198.627 31.6798 193.716 28.6283 193.558 24.1204C193.419 20.0665 195.304 13.7934 199.869 12.9359C204.364 12.0911 207.926 16.2017 206.785 20.4511V20.4574Z"
        fill="#FFC3BD" />
    <path
        d="M196.828 20.6212C196.62 20.0538 195.636 15.6594 196.557 14.5183C197.477 13.3771 207.975 14.1967 209.526 15.7225C212.098 18.2569 210.314 20.5203 207.496 23.4331C205.377 25.6271 205.295 28.0986 204.223 28.4642C202.351 29.101 199.444 28.5021 198.858 26.5035C198.278 24.5049 196.822 20.6212 196.822 20.6212H196.828Z"
        fill="black" />
    <path
        d="M208.258 10.7291C204.544 9.14663 197.59 10.8993 193.839 9.99146C193.707 11.9396 194.879 15.0541 198.637 15.8926C198.637 15.8926 203.971 16.9329 208.094 16.7627C212.217 16.5925 211.416 12.0657 208.264 10.7291H208.258Z"
        fill="black" />
    <path
        d="M208.838 15.8611C208.838 15.8611 211.133 16.1196 212.759 15.1108C213.453 16.7879 209.645 17.2481 208.838 15.8611Z"
        fill="black" />
    <path
        d="M198.852 20.7979C198.783 21.9517 198.247 23.0298 197.604 23.7422C196.639 24.8077 195.631 24.1457 195.454 22.8469C195.303 21.6806 195.618 19.7198 196.797 19.1335C197.963 18.5534 198.922 19.4865 198.846 20.8042L198.852 20.7979Z"
        fill="#FFC3BD" />
    <path
        d="M197.169 74.6713C197.169 74.6713 202.201 108.559 204.962 121.257C207.988 135.159 224.21 181.158 224.21 181.158L232.148 179.436C232.148 179.436 220.806 141.949 218.265 122.511C216.317 107.582 212.471 74.665 212.471 74.665H197.163L197.169 74.6713Z"
        fill="#FF7723" />
    <path
        d="M222.312 178.51C222.28 178.516 223.794 181.378 223.794 181.378L232.727 179.443L231.977 176.757L222.318 178.503L222.312 178.51Z"
        fill="#FEC2BD" />
    <path opacity="0.3"
        d="M200.352 86.7447C206.172 87.8858 205.554 109.587 204.854 120.746C203.177 112.859 200.718 97.677 199.041 86.9023C199.426 86.7068 199.861 86.6501 200.352 86.7447Z"
        fill="black" />
    <path
        d="M188.758 74.6711C188.758 74.6711 188.146 107.827 188.632 121.351C189.136 135.417 194.047 181.473 194.047 181.473H201.563C201.563 181.473 201.84 136.236 202.174 122.423C202.54 107.361 204.356 74.6711 204.356 74.6711H188.764H188.758Z"
        fill="#FF964A" />
    <path
        d="M192.598 178.478C192.567 178.478 193.021 181.599 193.021 181.599H202.156L202.402 178.818L192.592 178.484L192.598 178.478Z"
        fill="#FEC7C7" />
    <path
        d="M196.892 42.0128C199.016 47.7437 186.527 54.4961 186.527 54.4961L181.117 47.542C181.117 47.542 184.723 40.361 189.156 37.1267C194.628 33.1295 195.278 37.6562 196.892 42.0191V42.0128Z"
        fill="#FD4545" />
    <path opacity="0.4"
        d="M196.892 42.0128C199.016 47.7437 186.527 54.4961 186.527 54.4961L181.117 47.542C181.117 47.542 184.723 40.361 189.156 37.1267C194.628 33.1295 195.278 37.6562 196.892 42.0191V42.0128Z"
        fill="#FD4545" />
    <defs>
        <clipPath id="clip0_309_1477">
            <rect width="45" height="45" fill="white" transform="translate(99.3398 22.6431)" />
        </clipPath>
    </defs>
</svg>
