<svg width="353" height="192" viewBox="0 0 353 192" fill="none" xmlns="http://www.w3.org/2000/svg">
    <path
        d="M275.004 187.492C275.004 187.492 315.52 169.374 314.58 132.823C313.641 96.2723 270.893 70.8905 244.825 93.4546C218.757 116.019 201.887 97.0972 188.379 78.0298C174.872 58.9624 149.09 43.2748 109.558 54.3999C68.1464 66.0506 55.4095 108.215 59.5059 136.349C62.4497 156.563 73.2264 173.696 87.9087 186.857C88.3858 187.288 88.8777 187.711 89.3769 188.127C89.3769 188.127 267.611 192.083 274.997 187.492C282.384 182.902 275.004 187.492 275.004 187.492Z"
        fill="#FFF3F3" />
    <path
        d="M44.0544 128.553C44.0544 130.166 42.755 131.48 41.1546 131.48C39.5543 131.48 38.2549 130.173 38.2549 128.553C38.2549 126.932 39.5543 125.625 41.1546 125.625C42.755 125.625 44.0544 126.932 44.0544 128.553Z"
        stroke="#EEEEFF" stroke-miterlimit="10" />
    <path d="M234.993 5.36401H149.92V188.244H234.993V5.36401Z" fill="#628CA1" />
    <path opacity="0.5" d="M234.993 5.36401H149.92V188.244H234.993V5.36401Z" fill="white" />
    <path opacity="0.3" d="M193.377 10.6183V181.469L149.92 188.244V5.36401L193.377 10.6183Z"
        fill="#637582" />
    <path opacity="0.4" d="M193.377 10.6183L149.92 5.36401L193.377 125.469V10.6183Z"
        fill="#637582" />
    <path opacity="0.4"
        d="M150.03 6.31414L149.81 187.799L152.638 187.802L152.859 6.31761L150.03 6.31414Z"
        fill="#637582" />
    <path d="M146.973 2.28906V188.244H149.919V5.36396H234.645V188.244H237.592V2.28906H146.973Z"
        fill="#628CA1" />
    <path
        d="M174.08 48.2806C171.696 50.6312 169.778 53.5481 173.111 57.1036C173.111 57.1036 175.023 62.5555 167.833 57.795C161.318 53.4756 162.202 49.874 162.202 49.874C166.118 49.097 169.444 42.0254 170.95 37.9563L174.073 48.274L174.08 48.2806Z"
        fill="#FFC3BD" />
    <path
        d="M186.389 41.1431C186.658 41.2814 186.723 41.7489 186.52 42.1637C186.324 42.5785 185.944 42.8024 185.676 42.6707C185.401 42.5324 185.348 42.0847 185.545 41.6567C185.754 41.2156 186.121 41.0049 186.389 41.1431Z"
        fill="#263238" />
    <path
        d="M183.351 45.9103C183.351 45.9103 184.445 46.8716 185.499 46.549C185.198 45.028 185.099 43.4675 185.211 41.9202L183.345 45.9103H183.351Z"
        fill="#A02724" />
    <path
        d="M174.695 29.7392C177.897 27.0725 182.637 27.5203 185.289 30.7334C189.289 35.3556 186.395 43.4017 183.135 47.4972C182.218 48.6955 180.954 49.5844 179.527 50.0519C175.618 51.3161 171.434 49.1564 170.177 45.2256C168.854 41.2486 170.354 38.2396 172.462 32.8865C172.92 31.6552 173.693 30.5688 174.701 29.7326L174.695 29.7392Z"
        fill="#FFC3BD" />
    <path
        d="M174.57 43.5595C172.593 43.4147 170.766 42.4139 169.568 40.8204C168.553 39.5102 169.666 32.0435 172.645 29.0805C175.52 26.2361 177.909 25.9859 181.962 27.7242C186.015 29.4624 188.543 33.6567 187.79 35.4937C187.037 37.3307 182.886 41.1628 181.674 41.018C180.273 38.7332 176.207 43.6056 174.577 43.5529L174.57 43.5595Z"
        fill="#000201" />
    <path opacity="0.2"
        d="M174.57 43.5595C172.593 43.4147 170.766 42.4139 169.568 40.8204C168.553 39.5102 169.666 32.0435 172.645 29.0805C175.52 26.2361 177.909 25.9859 181.962 27.7242C186.015 29.4624 188.543 33.6567 187.79 35.4937C187.037 37.3307 182.886 41.1628 181.674 41.018C180.273 38.7332 176.207 43.6056 174.577 43.5529L174.57 43.5595Z"
        fill="#000201" />
    <path
        d="M174.301 30.8585C170.641 29.917 172.199 24.9195 175.578 24.0964C178.315 23.4248 183.357 25.7688 185.622 27.7112C187.888 29.647 188.097 27.7112 188.097 27.7112C189.996 28.5869 191.207 30.4964 191.194 32.5968C191.161 36.1985 187.626 37.9104 185.93 36.633C185.93 36.633 177.961 31.8001 174.301 30.8585Z"
        fill="#000201" />
    <path
        d="M183.2 38.5097C184.13 40.1097 182.755 42.401 181.511 43.4743C180.129 44.6726 178.276 44.5014 178.054 42.5985C177.89 41.1434 178.289 39.6817 179.16 38.5162C180.247 37.094 182.264 36.9097 183.2 38.5162V38.5097Z"
        fill="#000201" />
    <path
        d="M185.538 39.0429C186.179 38.7466 186.919 38.7664 187.548 39.1022C187.672 39.1812 187.843 39.1483 187.928 39.0166C188.006 38.8915 187.967 38.7203 187.843 38.6413C187.07 38.2067 186.134 38.1672 185.328 38.5359C185.191 38.5952 185.132 38.7598 185.191 38.8915C185.217 38.9507 185.256 39.0034 185.315 39.0297C185.387 39.0627 185.472 39.0693 185.544 39.0297L185.538 39.0429Z"
        fill="#263238" />
    <path
        d="M178.283 29.8115L177.995 29.6601C178.728 28.2313 178.728 26.4601 177.995 25.0379C177.262 23.6091 175.821 22.5885 174.243 22.3646L174.289 22.0354C175.972 22.2724 177.504 23.3654 178.29 24.8798C179.069 26.4008 179.069 28.284 178.29 29.8049L178.283 29.8115Z"
        fill="#263238" />
    <path
        d="M179.999 30.8123L179.868 30.5094C181.328 29.8576 182.428 28.4749 182.743 26.9012C183.057 25.3276 182.572 23.6222 181.472 22.4568L181.708 22.2329C182.874 23.4774 183.397 25.2881 183.063 26.9671C182.729 28.6461 181.557 30.1144 179.999 30.8123Z"
        fill="#263238" />
    <path
        d="M173.929 27.0724C172.947 26.4073 171.572 26.3152 170.504 26.8485L170.36 26.5522C171.545 25.9596 173.019 26.0584 174.112 26.7958L173.929 27.0658V27.0724Z"
        fill="#263238" />
    <path
        d="M189.505 32.4187L189.335 32.1355C190.625 31.3652 192.098 30.9306 193.597 30.8647L193.611 31.194C192.164 31.2532 190.743 31.6746 189.505 32.4187Z"
        fill="#263238" />
    <path
        d="M187.411 29.9232C187.136 29.9232 186.874 29.831 186.658 29.6598C186.396 29.4491 186.213 29.1726 186.036 28.896L185.996 28.8367C185.682 28.3495 182.834 24.0763 179.737 23.7668C178.676 23.6614 177.701 24.0565 176.836 24.9454L176.601 24.7149C177.537 23.7536 178.604 23.3256 179.763 23.4376C183.004 23.7602 185.938 28.1586 186.265 28.659L186.304 28.7182C186.474 28.975 186.632 29.2252 186.854 29.403C187.07 29.5742 187.365 29.6335 187.64 29.561C187.908 29.4886 188.098 29.3503 188.196 29.1594C188.367 28.8368 188.262 28.4088 188.19 28.1849C188.052 27.7833 187.712 27.4606 187.411 27.1841L187.633 26.9405C187.948 27.2302 188.34 27.5989 188.498 28.0795C188.589 28.3561 188.714 28.8828 188.485 29.3174C188.34 29.5874 188.085 29.7783 187.725 29.8771C187.614 29.9034 187.509 29.9232 187.398 29.9232H187.411Z"
        fill="#263238" />
    <path
        d="M185.951 36.6722C185.898 36.6063 185.898 36.5076 185.964 36.4483C186.029 36.3956 186.121 36.4022 186.18 36.4549C186.894 37.1199 187.909 37.324 188.825 36.9948C190.397 36.5273 191.569 35.1973 191.844 33.571C191.863 33.4854 191.942 33.4327 192.027 33.4459C192.112 33.4656 192.165 33.5446 192.151 33.6302C191.844 35.3685 190.593 36.7841 188.91 37.2911C188.059 37.5677 187.129 37.4689 186.357 37.008C186.206 36.9092 186.075 36.7973 185.957 36.6656L185.951 36.6722Z"
        fill="#263238" />
    <path
        d="M171.337 95.5499C174.021 97.6964 177.616 98.8355 179.665 101.608C180.707 103.017 184.995 105.268 186.665 106.078C187.071 106.276 187.542 106.282 187.955 106.098C188.93 105.663 190.79 104.847 191.576 104.518C191.759 104.439 191.818 104.215 191.7 104.057L190.41 102.286L187.038 102.523C187.352 100.89 187.896 98.875 186.049 98.7499C184.779 98.6643 183.574 98.7104 182.173 97.8281C173.838 92.5738 167.67 79.9121 165.804 70.2002C165.346 67.8364 165.012 65.3607 163.702 63.3393C162.393 61.3244 159.748 59.9286 157.561 60.9096C151.275 63.7211 165.346 90.7499 171.35 95.5565L171.337 95.5499Z"
        fill="#FFC3BD" />
    <path
        d="M141.007 140.311C135.14 145.091 107.653 159.906 107.653 159.906L111.51 167.194C111.51 167.194 134.754 160.729 146.572 152.334L141.007 140.311Z"
        fill="#FF7723" />
    <path
        d="M146.369 152.366C147.862 149.996 149.093 147.395 150.101 144.748C151.254 141.713 152.118 138.612 152.773 135.708C152.871 135.274 152.963 134.832 153.054 134.378C153.087 134.207 153.12 134.036 153.159 133.858C154.521 127.017 154.685 121.683 154.685 121.683L155.542 114.52L157.382 99.0398C149.643 95.7871 143.285 92.5608 143.285 92.5608C143.285 92.5608 138.676 97.453 138.401 104.301C138.021 113.769 139.625 137.953 136.679 143.399L146.376 152.386L146.369 152.366Z"
        fill="#FF7723" />
    <path
        d="M108.42 159.352L97.3152 164.165C97.3152 164.165 97.1843 169.216 99.2009 168.834C101.938 168.314 110.81 166.569 110.81 166.569C110.81 166.569 112.172 168.044 108.42 159.352Z"
        fill="#FFC3BD" />
    <path
        d="M96.3119 172.119C96.1809 171.546 96.1024 170.96 96.0762 170.374C96.0762 170.315 96.1024 170.262 96.1547 170.242C96.2071 170.223 96.2661 170.236 96.2988 170.275C96.4887 170.493 98.1452 172.396 97.9422 173.14C97.903 173.284 97.7982 173.396 97.6542 173.436C97.425 173.521 97.1762 173.489 96.9797 173.35C96.6262 173.028 96.3905 172.593 96.3119 172.119ZM96.3643 170.756C96.469 172 96.7506 172.87 97.1107 173.14C97.2417 173.232 97.4119 173.252 97.5625 173.192C97.6149 173.179 97.6607 173.14 97.6738 173.08C97.7982 172.666 97.019 171.546 96.3643 170.749V170.756Z"
        fill="#FD4545" />
    <path
        d="M96.0769 170.401C96.0769 170.401 96.0769 170.348 96.0769 170.322C96.0965 170.282 96.1358 170.249 96.1816 170.243C96.2733 170.21 98.5322 169.913 98.8465 171.118L98.8792 171.224C98.9316 171.579 98.781 171.724 98.6501 171.783C98.0673 172.034 96.5745 171.026 96.1096 170.447L96.0703 170.401H96.0769ZM98.5977 171.191C98.4013 170.407 97.0525 170.447 96.4828 170.473C97.0525 171.046 98.1917 171.698 98.5388 171.54C98.5388 171.54 98.6566 171.5 98.6173 171.263L98.5977 171.191Z"
        fill="#FD4545" />
    <path opacity="0.2"
        d="M103.81 161.38L105.951 167.55L110.619 166.49L106.926 160.031L103.81 161.38Z"
        fill="black" />
    <path
        d="M98.7617 163.738C97.8647 162.875 98.1659 163.448 96.601 162.21C95.8415 161.611 93.5498 161.064 92.7379 161.525C91.4808 162.25 91.0945 163.738 89.8242 165.93C88.1677 168.794 86.8582 173.371 86.3867 175.826C86.2034 176.768 86.773 177.769 87.7224 177.999C87.9451 178.052 88.1349 178.092 88.2921 178.118C88.5474 178.157 88.7963 178.059 88.9468 177.861C90.7671 175.491 91.1403 175.247 92.9082 173.087C94.676 170.928 98.9189 169.486 98.9189 169.486L98.7683 163.738H98.7617Z"
        fill="#1E0D1D" />
    <path
        d="M112.158 168.116C112.184 168.149 108.91 168.913 108.91 168.913L105.303 159.438L107.935 158.095L112.152 168.116H112.158Z"
        fill="#FD4545" />
    <g opacity="0.7">
        <path
            d="M112.158 168.116C112.184 168.149 108.91 168.913 108.91 168.913L105.303 159.438L107.935 158.095L112.152 168.116H112.158Z"
            fill="white" />
    </g>
    <path
        d="M203.628 164.245L211.138 176.432C211.138 176.432 216.382 174.812 215.603 172.712C215.125 171.415 213.325 166.997 212.022 163.487C211.531 162.151 210.503 161.242 209.625 161.222C208.165 161.189 206.554 162.315 203.621 164.245H203.628Z"
        fill="#FFC3BD" />
    <path
        d="M220.33 173.423C219.806 173.68 219.256 173.884 218.693 174.036C218.641 174.055 218.582 174.036 218.549 173.983C218.516 173.937 218.516 173.878 218.549 173.832C218.719 173.595 220.206 171.56 220.972 171.593C221.116 171.593 221.253 171.685 221.319 171.81C221.45 172.014 221.469 172.271 221.378 172.495C221.142 172.91 220.769 173.239 220.33 173.417V173.423ZM218.994 173.674C220.179 173.298 220.965 172.837 221.142 172.423C221.201 172.271 221.188 172.1 221.096 171.968C221.07 171.916 221.024 171.883 220.965 171.883C220.533 171.85 219.616 172.864 218.988 173.674H218.994Z"
        fill="#FD4545" />
    <path
        d="M218.7 174.2C218.7 174.2 218.648 174.214 218.621 174.214C218.576 174.207 218.536 174.174 218.517 174.128C218.464 174.042 217.685 171.896 218.785 171.323L218.883 171.27C219.211 171.139 219.388 171.257 219.479 171.376C219.852 171.896 219.198 173.575 218.733 174.154L218.7 174.2ZM218.916 171.554C218.202 171.916 218.53 173.233 218.68 173.786C219.113 173.101 219.499 171.843 219.27 171.534C219.27 171.534 219.211 171.428 218.982 171.514L218.916 171.547V171.554Z"
        fill="#FD4545" />
    <path
        d="M210.345 176.156C210.398 177.157 211.256 178.5 211.491 180.093C211.603 180.864 212.225 182.082 212.951 182.26C214.084 182.536 215.178 182.339 217.122 181.766C219.663 181.015 226.079 177.367 227.703 176.195C228.325 175.748 228.548 174.846 228.116 174.187C228.017 174.036 227.926 173.904 227.847 173.805C227.723 173.641 227.52 173.562 227.323 173.595C224.96 173.963 224.606 173.897 222.393 174.181C220.173 174.457 215.957 172.561 215.957 172.561L210.339 176.169L210.345 176.156Z"
        fill="#1E0D1D" />
    <path opacity="0.2"
        d="M206.477 168.92L208.205 171.731L213.731 167.932L212.553 164.745L206.477 168.92Z"
        fill="black" />
    <path
        d="M158.371 95.4775L140.496 104.544C140.496 104.544 141.707 109.219 143.423 112.083C149.696 122.552 156.741 117.588 162.149 121.453C174.144 130.026 182.964 134.391 185.478 137.321C187.456 139.626 207.387 170.361 207.387 170.361L213.286 166.404C213.286 166.404 204.178 138.941 197.009 129.466C189.832 119.985 158.371 95.4841 158.371 95.4841V95.4775Z"
        fill="#FF7723" />
    <path opacity="0.2"
        d="M152.772 135.761C153.754 131.297 154.402 126.767 154.704 122.204C154.867 119.702 154.907 117.074 153.807 114.829C152.929 113.045 151.41 111.662 149.799 110.51C148.038 109.246 140.698 104.788 142.25 108.686C143.546 111.945 152.517 136.893 152.766 135.761H152.772Z"
        fill="black" />
    <path
        d="M158.371 95.4775L140.496 98.3169C140.496 98.3169 141.707 109.219 143.423 112.083C149.696 122.552 156.741 117.588 162.149 121.453C174.144 130.026 182.964 134.391 185.478 137.321C187.456 139.626 207.387 170.361 207.387 170.361L213.286 166.404C213.286 166.404 204.178 138.941 197.009 129.466C189.832 119.985 158.371 95.4841 158.371 95.4841V95.4775Z"
        fill="#FF964A" />
    <path d="M213.168 162.625L214.484 165.575L206.24 171.244L204.361 168.952L213.168 162.625Z"
        fill="#FD4545" />
    <path opacity="0.7"
        d="M213.168 162.625L214.484 165.575L206.24 171.244L204.361 168.952L213.168 162.625Z"
        fill="white" />
    <path
        d="M184.862 101.746C184.724 103.616 186.119 105.248 187.979 105.387C189.838 105.525 191.462 104.123 191.599 102.253C191.737 100.383 190.342 98.7497 188.483 98.6115C186.623 98.4732 184.999 99.8757 184.862 101.746Z"
        fill="#628CA1" />
    <path opacity="0.7"
        d="M188.483 98.618C186.623 98.4731 184.999 99.8756 184.862 101.746C184.718 103.615 186.112 105.248 187.972 105.387C189.831 105.532 191.455 104.129 191.593 102.259C191.737 100.389 190.342 98.7562 188.483 98.618ZM188.332 103.326C187.684 103.326 187.167 102.799 187.167 102.147C187.167 101.495 187.684 100.975 188.332 100.975C188.98 100.975 189.498 101.502 189.498 102.147C189.498 102.792 188.974 103.326 188.332 103.326Z"
        fill="#B0C5D0" />
    <path
        d="M168.96 82.9935C167.847 87.5631 167.5 93.0742 167.395 96.6297L168.429 101.008L167.068 101.18L166.858 100.198L166.393 98.0585L165.935 100.047L165.653 101.285C165.653 101.285 162.098 101.476 157.901 101.081C151.196 100.455 136.333 97.5713 136.333 97.5713C136.333 97.5713 138.487 89.2289 140.262 87.5828C141.244 83.2569 142.547 77.3441 144.026 70.3713C145.657 62.6808 148.06 57.3409 150.018 53.9631C151.779 50.9145 155.013 49.038 158.516 48.9919C160.71 48.9656 163.329 49.0512 165.778 49.4594C171.723 50.4405 177.766 53.8314 178.46 55.3721C179.835 58.4075 170.76 75.5927 168.96 83.0001V82.9935Z"
        fill="#FD4545" />
    <path d="M166.858 100.199L165.935 100.047L166.393 98.0586L166.858 100.199Z" fill="#FD4545" />
    <path
        d="M168.946 83.0002C167.833 87.5697 167.486 93.0808 167.381 96.6363L168.416 101.015L167.054 101.186L166.844 100.205L166.38 98.0652L165.921 100.054L165.64 101.291C165.64 101.291 162.084 101.482 157.887 101.087C151.182 100.462 136.319 97.5779 136.319 97.5779C136.319 97.5779 138.474 89.2355 140.248 87.5895C141.23 83.2635 142.533 77.3508 144.013 70.3779C145.532 63.2339 147.706 58.1179 149.578 54.7203C151.536 51.1648 155.275 48.9854 159.315 48.992C161.325 48.992 163.61 49.1105 165.757 49.466C171.703 50.4471 177.746 53.838 178.44 55.3788C179.815 58.4142 170.74 75.5993 168.94 83.0067L168.946 83.0002Z"
        fill="#FD4545" />
    <path
        d="M159.957 48.9853L162.543 47.3261C163.152 46.9376 163.879 46.7796 164.592 46.8849C166.262 47.1285 169.601 47.4446 172.319 48.8075C174.794 50.0454 174.047 52.1853 174.047 52.1853C174.047 52.1853 169.32 49.7096 159.95 48.9919L159.957 48.9853Z"
        fill="#FD4545" />
    <path
        d="M171.854 71.0561L169.235 71.1153L169.216 70.1606C169.209 69.7458 169.052 69.3573 168.784 69.0808C168.548 68.8306 168.247 68.6989 167.932 68.7055L163.054 68.8174C162.747 68.8306 162.445 68.9688 162.223 69.2322C161.967 69.5219 161.836 69.9104 161.843 70.3318L161.863 71.2865L159.244 71.3458L159.224 70.3911C159.198 69.3112 159.564 68.2841 160.252 67.4939C160.966 66.6709 161.941 66.21 162.995 66.1837L167.873 66.0717C168.928 66.0454 169.923 66.4668 170.676 67.2503C171.396 68.0075 171.809 69.0149 171.835 70.0948L171.854 71.0495V71.0561Z"
        fill="#628CA1" />
    <g opacity="0.2">
        <path
            d="M171.853 71.0561L169.234 71.1153L169.215 70.1606C169.208 69.7458 169.051 69.3573 168.783 69.0808C168.547 68.8306 168.246 68.6989 167.931 68.7055L163.053 68.8174C162.746 68.8306 162.444 68.9688 162.222 69.2322C161.966 69.5219 161.835 69.9104 161.842 70.3318L161.862 71.2865L159.243 71.3458L159.223 70.3911C159.197 69.3112 159.563 68.2841 160.251 67.4939C160.965 66.6709 161.94 66.21 162.994 66.1837L167.872 66.0717C168.927 66.0454 169.922 66.4668 170.675 67.2503C171.395 68.0075 171.808 69.0149 171.834 70.0948L171.853 71.0495V71.0561Z"
            fill="white" />
    </g>
    <path d="M148.498 71.6091L147.549 94.7333L152.446 94.6148L150.03 71.5696L148.498 71.6091Z"
        fill="#628CA1" />
    <path
        d="M183.529 93.8841L181.519 93.9302L178.638 94.0026L149.029 94.694L148.499 71.6026L179.581 70.8784L180.982 70.8455L181.119 70.8389L183.529 93.8841Z"
        fill="#628CA1" />
    <path opacity="0.2"
        d="M183.529 93.8841L181.519 93.9302L178.638 94.0026L149.029 94.694L148.499 71.6026L179.581 70.8784L180.982 70.8455L181.119 70.8389L183.529 93.8841Z"
        fill="white" />
    <path opacity="0.2"
        d="M148.498 71.6091L147.549 94.7333L152.446 94.6148L150.03 71.5696L148.498 71.6091Z"
        fill="white" />
    <path d="M149.939 71.5702L149.284 71.5811L149.666 94.6758L150.32 94.6649L149.939 71.5702Z"
        fill="#628CA1" />
    <path
        d="M169.982 55.688C168.666 58.2559 164.711 68.9489 161.103 78.753C160.461 80.4913 161.463 82.4074 163.251 82.8617L167.251 83.5267C171.488 74.0716 174.866 66.0913 178.611 58.0255C175.541 56.2872 172.051 51.6716 169.982 55.688Z"
        fill="#FFC3BD" />
    <path
        d="M167.133 83.3159C168.757 92.9949 169.372 101.798 170.662 110.121L166.419 110.299C166.256 107.158 163.971 101.653 162.733 96.1686C162.288 94.1867 161.306 92.2838 160.598 89.3011C160.068 87.0822 161.646 84.0731 163.787 83.3093H167.133V83.3159Z"
        fill="#FFC3BD" />
    <path
        d="M169.182 109.285C165.129 108.962 164.802 114.585 164.802 114.585L169.758 117.627L170.642 110.134L169.182 109.285Z"
        fill="#FFC3BD" />
    <path d="M169.765 117.627L164.802 114.585L162.366 118.469L165.411 121.169L169.765 117.627Z"
        fill="#FFC3BD" />
    <path
        d="M168.417 80.9062L162.347 75.2173C162.347 75.2173 157.679 85.0741 161.529 90.8815C164.822 95.8461 166.787 86.3975 166.787 86.3975L167.553 83.3753L168.41 80.9128L168.417 80.9062Z"
        fill="#FFC3BD" />
    <path opacity="0.5"
        d="M167.572 60.4552C167.546 59.935 167.487 59.3622 167.113 59C166.786 58.684 166.151 58.7235 165.941 59.0725L166.112 58.6116C164.507 61.5943 162.903 64.5704 161.299 67.5531C160.952 68.1984 160.599 68.9885 160.946 69.6338C161.162 70.0354 160.893 70.9967 161.214 71.3128C162.177 72.2741 158.962 74.4009 159.656 83.0264C164.887 75.0856 167.873 66.684 167.578 60.4618L167.572 60.4552Z"
        fill="#263238" />
    <path
        d="M173.425 53.4625C171.375 53.7852 169.561 54.9769 167.964 56.3004C167.296 56.8535 166.648 57.4527 166.222 58.2033C165.672 59.1843 165.561 60.3432 165.456 61.4691C165.279 63.4313 163.97 68.4222 163.793 70.3778C166.674 72.116 169.869 73.3275 173.169 73.9333C173.582 74.0057 174.04 74.065 174.387 73.828C175.022 73.4 177.628 64.6889 178.617 62.7136C180.725 58.493 178.898 52.5934 173.418 53.4625H173.425Z"
        fill="#407BFF" />
    <path
        d="M173.425 53.4625C171.375 53.7852 169.561 54.9769 167.964 56.3004C167.296 56.8535 166.648 57.4527 166.222 58.2033C165.672 59.1843 165.561 60.3432 165.456 61.4691C165.279 63.4313 163.97 68.4222 163.793 70.3778C166.674 72.116 169.869 73.3275 173.169 73.9333C173.582 74.0057 174.04 74.065 174.387 73.828C175.022 73.4 177.628 64.6889 178.617 62.7136C180.725 58.493 178.898 52.5934 173.418 53.4625H173.425Z"
        fill="#FD4545" />
</svg>
