<svg width="2000" height="568" viewBox="0 0 2000 568" fill="none"
    xmlns="http://www.w3.org/2000/svg">
    <path
        d="M768.842 246.713C779.052 246.713 788.618 248.845 797.489 253.156C806.361 257.419 814.043 263.267 820.486 270.701C826.978 278.135 832.033 286.759 835.651 296.721C839.269 306.683 841.153 317.239 841.153 328.49V406.5H798.877V378.002C798.877 370.072 798.877 361.894 799.025 353.419C799.125 344.944 799.174 337.708 799.174 331.662C799.174 325.615 798.232 320.064 796.349 314.414C794.466 308.764 791.839 303.808 788.469 299.546C785.099 295.284 781.183 291.814 776.673 289.188C772.163 286.561 767.405 285.272 762.35 285.272C757.295 285.272 752.933 286.164 748.522 287.949C744.111 289.733 740.245 292.31 736.875 295.779C733.505 299.249 730.829 303.56 728.846 308.764C726.864 313.968 725.873 320.164 725.873 327.251V406.5H682.655V177.872H725.873L726.17 263.069C731.622 257.865 737.817 253.85 744.805 251.025C751.793 248.2 759.773 246.813 768.743 246.813L768.842 246.713Z"
        fill="#261649" />
    <path
        d="M1010.6 251.124V406.45H973.333L968.972 389.847C962.925 397.975 955.64 403.427 947.214 406.153C938.739 408.879 929.917 410.217 920.748 410.217C909.696 410.217 899.487 408.086 890.219 403.823C880.901 399.561 872.823 393.713 865.933 386.279C859.044 378.844 853.692 370.221 849.826 360.259C845.96 350.347 844.027 339.74 844.027 328.49C844.027 317.239 845.96 306.633 849.826 296.721C853.692 286.809 859.044 278.135 865.933 270.701C872.823 263.267 880.901 257.419 890.219 253.156C899.487 248.894 909.696 246.713 920.748 246.713C930.76 246.713 939.978 248.299 948.305 251.422C956.631 254.544 963.57 259.55 968.972 266.439L973.333 251.075H1010.6V251.124ZM967.386 329.085C967.386 320.957 966.296 314.117 964.115 308.566C961.934 303.015 959.01 298.555 955.342 295.085C951.675 291.666 947.413 289.138 942.506 287.552C937.599 285.966 932.346 285.223 926.696 285.223C921.046 285.223 915.792 286.363 910.886 288.642C905.979 290.922 901.667 294.045 897.901 297.861C894.134 301.727 891.21 306.336 889.128 311.639C887.047 316.942 886.006 322.543 886.006 328.391C886.006 334.239 887.047 340.087 889.128 345.291C891.21 350.495 894.134 355.055 897.901 358.921C901.667 362.786 905.979 365.859 910.886 368.139C915.792 370.419 921.046 371.608 926.696 371.608C937.996 371.608 947.512 368.09 955.342 361.101C963.173 354.113 967.188 343.408 967.386 328.985V329.085Z"
        fill="#261649" />
    <path
        d="M1124.6 325.021C1136.09 333.149 1141.84 344.746 1141.84 359.763C1141.84 366.652 1140.21 373.145 1136.99 379.191C1133.76 385.238 1129.3 390.59 1123.65 395.15C1118 399.759 1111.46 403.328 1103.93 405.955C1096.39 408.581 1088.37 409.87 1079.79 409.87C1073.3 409.87 1067 409.027 1060.86 407.342C1054.71 405.657 1049.01 403.377 1043.81 400.453C1038.61 397.529 1034.05 394.06 1030.18 389.946C1026.31 385.882 1023.44 381.322 1021.56 376.317C1026.36 374.037 1031.67 371.46 1037.52 368.635C1043.36 365.81 1048.47 363.282 1052.88 360.953C1054.76 364.075 1057.69 366.95 1061.65 369.576C1065.62 372.203 1071.07 373.492 1077.96 373.492C1084.85 373.492 1090.3 371.807 1093.62 368.486C1096.94 365.165 1098.62 361.993 1098.62 359.069C1098.62 356.988 1097.48 355.055 1095.16 353.271C1092.88 351.486 1090.25 350.099 1087.32 349.058C1083.16 347.373 1079.69 346.481 1077.02 346.382C1074.29 346.282 1071.17 345.688 1067.6 344.647C1056.35 341.921 1047.73 338.353 1041.78 333.843C1035.83 329.332 1031.47 324.822 1028.79 320.213C1026.07 315.604 1024.58 311.242 1024.23 307.079C1023.89 302.916 1023.79 299.546 1023.79 297.068C1023.79 290.377 1025.22 284.033 1028.15 277.987C1031.07 271.94 1035.09 266.687 1040.19 262.177C1045.3 257.666 1051.24 254.098 1058.03 251.372C1064.82 248.646 1072.06 247.308 1079.79 247.308C1086.28 247.308 1092.43 248.25 1098.28 250.133C1104.13 252.016 1109.43 254.643 1114.24 257.964C1119.04 261.284 1123.16 265.299 1126.63 269.859C1130.1 274.468 1132.62 279.573 1134.31 285.223L1100.81 296.523C1099.57 292.756 1096.99 289.733 1093.12 287.453C1089.26 285.173 1085.14 283.984 1080.73 283.984C1076.32 283.984 1072.8 285.47 1070.08 288.345C1067.35 291.269 1066.01 294.193 1066.01 297.117C1066.01 300.686 1067.3 303.412 1069.93 305.394C1072.56 307.377 1075.43 308.814 1078.55 309.607C1080.83 310.003 1083.11 310.4 1085.29 310.697C1087.47 310.995 1089.6 311.391 1091.74 311.788C1099.02 313.473 1105.37 315.356 1110.67 317.438C1115.97 319.519 1120.63 322.047 1124.6 324.971V325.021Z"
        fill="#261649" />
    <path
        d="M1238.64 246.713C1248.85 246.713 1258.41 248.845 1267.28 253.156C1276.15 257.419 1283.84 263.267 1290.28 270.701C1296.77 278.135 1301.83 286.759 1305.44 296.721C1309.06 306.683 1310.95 317.239 1310.95 328.49V406.5H1268.67V378.002C1268.67 370.072 1268.67 361.894 1268.82 353.419C1268.92 344.944 1268.97 337.708 1268.97 331.662C1268.97 325.615 1268.03 320.064 1266.14 314.414C1264.26 308.764 1261.63 303.808 1258.26 299.546C1254.89 295.284 1250.98 291.814 1246.47 289.188C1241.96 286.561 1237.2 285.272 1232.14 285.272C1227.09 285.272 1222.73 286.164 1218.32 287.949C1213.9 289.733 1210.04 292.31 1206.67 295.779C1203.3 299.249 1200.62 303.56 1198.64 308.764C1196.66 313.968 1195.67 320.164 1195.67 327.251V406.5H1152.45V177.872H1195.67L1195.96 263.069C1201.42 257.865 1207.61 253.85 1214.6 251.025C1221.59 248.2 1229.57 246.813 1238.54 246.813L1238.64 246.713Z"
        fill="#261649" />
    <path
        d="M1334.93 209.939C1338.21 202.108 1342.57 195.615 1348.02 190.511C1353.47 185.406 1359.81 181.639 1366.95 179.26C1374.09 176.881 1381.62 175.642 1389.55 175.642C1394.36 175.642 1399.17 176.039 1403.97 176.881C1408.78 177.724 1413.59 178.963 1418.4 180.648L1414.93 212.268L1404.62 210.682C1402.93 210.484 1401.45 210.335 1400.06 210.236C1398.72 210.137 1397.38 210.087 1396.14 210.087C1388.21 210.087 1382.41 212.02 1378.75 215.886C1375.08 219.752 1373.25 225.352 1373.25 232.638V251.124H1414.88V289.634H1373.25V406.45H1330.03V289.634H1309.66V266.786L1330.03 251.124V237.991C1330.03 227.137 1331.66 217.769 1334.93 209.939Z"
        fill="#261649" />
    <path
        d="M1586.56 251.124V406.45H1549.29L1544.93 389.847C1538.88 397.975 1531.59 403.427 1523.17 406.153C1514.69 408.879 1505.87 410.217 1496.7 410.217C1485.65 410.217 1475.44 408.086 1466.17 403.823C1456.86 399.561 1448.78 393.713 1441.89 386.279C1435 378.844 1429.65 370.221 1425.78 360.259C1421.91 350.347 1419.98 339.74 1419.98 328.49C1419.98 317.239 1421.91 306.633 1425.78 296.721C1429.65 286.809 1435 278.135 1441.89 270.701C1448.78 263.267 1456.86 257.419 1466.17 253.156C1475.44 248.894 1485.65 246.713 1496.7 246.713C1506.71 246.713 1515.93 248.299 1524.26 251.422C1532.59 254.544 1539.52 259.55 1544.93 266.439L1549.29 251.075H1586.56V251.124ZM1543.34 329.085C1543.34 320.957 1542.25 314.117 1540.07 308.566C1537.89 303.015 1534.96 298.555 1531.3 295.085C1527.63 291.666 1523.37 289.138 1518.46 287.552C1513.55 285.966 1508.3 285.223 1502.65 285.223C1497 285.223 1491.75 286.363 1486.84 288.642C1481.93 290.922 1477.62 294.045 1473.86 297.861C1470.09 301.727 1467.16 306.336 1465.08 311.639C1463 316.942 1461.96 322.543 1461.96 328.391C1461.96 334.239 1463 340.087 1465.08 345.291C1467.16 350.495 1470.09 355.055 1473.86 358.921C1477.62 362.786 1481.93 365.859 1486.84 368.139C1491.75 370.419 1497 371.608 1502.65 371.608C1513.95 371.608 1523.47 368.09 1531.3 361.101C1539.13 354.113 1543.14 343.408 1543.34 328.985V329.085Z"
        fill="#261649" />
    <path
        d="M1774.79 251.124C1780.44 251.124 1786.49 252.066 1792.98 253.949C1799.47 255.833 1805.47 259.153 1810.97 263.961C1816.52 268.768 1821.03 275.36 1824.6 283.686C1828.17 292.062 1829.9 302.668 1829.9 315.653V406.5H1786.69V323.732C1786.69 317.487 1785.99 312.184 1784.66 307.823C1783.32 303.461 1781.48 299.893 1779.15 297.217C1776.87 294.491 1774.2 292.558 1771.17 291.418C1768.15 290.278 1765.08 289.683 1761.96 289.683C1759.03 289.683 1756.11 290.228 1753.18 291.269C1750.26 292.31 1747.63 294.094 1745.35 296.572C1743.07 299.05 1741.24 302.52 1739.85 306.881C1738.51 311.242 1737.82 316.793 1737.82 323.435V406.5H1694.6V323.732C1694.6 311.044 1692.42 302.173 1688.01 297.167C1683.65 292.161 1677.26 289.683 1668.93 289.683C1662.88 289.683 1657.43 292.508 1652.62 298.109C1647.82 303.709 1645.44 312.482 1645.44 324.327V406.5H1602.22V251.174H1639.19L1645.44 265.695C1650.24 261.086 1655.8 257.468 1662.19 254.941C1668.53 252.413 1675.37 251.124 1682.71 251.124C1686.47 251.124 1690.44 251.521 1694.6 252.215C1698.77 252.958 1702.83 254.247 1706.79 256.18C1710.76 258.063 1714.58 260.541 1718.24 263.614C1721.91 266.687 1725.18 270.503 1728.11 275.162C1730.63 271.147 1733.66 267.628 1737.18 264.605C1740.74 261.532 1744.56 259.005 1748.77 257.022C1752.94 255.04 1757.3 253.553 1761.76 252.611C1766.27 251.67 1770.58 251.174 1774.74 251.174L1774.79 251.124Z"
        fill="#261649" />
    <path
        d="M1921.69 246.713C1933.39 246.713 1944.05 249.043 1953.66 253.751C1963.27 258.459 1971.5 264.605 1978.39 272.238C1985.28 279.87 1990.58 288.642 1994.35 298.555C1998.12 308.467 2000 318.677 2000 329.085C2000 335.329 1999.16 342.02 1997.52 349.108H1886.65C1890.82 356.195 1896.76 362.192 1904.49 367.098C1912.23 372.005 1920.55 374.433 1929.57 374.433C1938.59 374.433 1946.42 373.69 1953.21 372.253C1960 370.815 1966.4 368.932 1972.49 366.603L1986.92 393.217C1979.18 398.669 1970.36 402.832 1960.45 405.756C1950.54 408.68 1939.93 410.118 1928.63 410.118C1916.29 410.118 1904.84 407.987 1894.19 403.724C1883.53 399.462 1874.26 393.663 1866.33 386.328C1858.4 379.043 1852.11 370.369 1847.55 360.308C1842.94 350.297 1840.66 339.641 1840.66 328.341C1840.66 317.041 1842.74 306.782 1846.9 296.87C1851.07 286.957 1856.87 278.284 1864.3 270.85C1871.69 263.416 1880.31 257.518 1890.12 253.156C1899.94 248.795 1910.49 246.565 1921.74 246.565L1921.69 246.713ZM1957.08 315.604C1954.55 306.633 1950.09 299.298 1943.6 293.698C1937.11 288.048 1929.82 285.223 1921.69 285.223C1913.56 285.223 1905.78 288.048 1898.99 293.698C1892.2 299.348 1887.55 306.633 1885.07 315.604H1957.08Z"
        fill="#261649" />
    <path
        d="M451.104 556.126C337.657 572.035 228.374 571.787 123.155 555.878C67.101 547.403 23.0903 503.739 14.6649 448.429C-2.73122 333.644 -5.45711 222.825 10.8486 117.209C19.621 60.1638 66.3575 15.9054 124.493 9.41281C225.103 -1.83765 331.611 -3.86968 446.94 8.07465C509.784 14.5672 558.702 64.9713 562.914 127.171C569.803 228.673 569.556 332.257 562.171 438.021C557.958 498.238 511.668 547.601 451.104 556.076V556.126Z"
        fill="#FD4545" />
    <defs>
        <filter id="filter0_d_140_106" x="85.4181" y="137.681" width="397.157" height="322.295"
            filterUnits="userSpaceOnUse" color-interpolation-filters="sRGB">
            <feFlood flood-opacity="0" result="BackgroundImageFix" />
            <feColorMatrix in="SourceAlpha" type="matrix"
                values="0 0 0 0 0 0 0 0 0 0 0 0 0 0 0 0 0 0 127 0" result="hardAlpha" />
            <feOffset dy="14.8685" />
            <feGaussianBlur stdDeviation="9.9123" />
            <feColorMatrix type="matrix"
                values="0 0 0 0 0.756863 0 0 0 0 0.0784314 0 0 0 0 0.0784314 0 0 0 0.3 0" />
            <feBlend mode="normal" in2="BackgroundImageFix" result="effect1_dropShadow_140_106" />
            <feBlend mode="normal" in="SourceGraphic" in2="effect1_dropShadow_140_106"
                result="shape" />
        </filter>
        <linearGradient id="paint0_linear_140_106" x1="231.05" y1="307.525" x2="231.397"
            y2="313.274" gradientUnits="userSpaceOnUse">
            <stop stop-color="#FD4545" />
            <stop offset="1" stop-color="white" />
        </linearGradient>
        <linearGradient id="paint1_linear_140_106" x1="353.12" y1="274.716" x2="255.187" y2="287.8"
            gradientUnits="userSpaceOnUse">
            <stop stop-color="#FD4545" />
            <stop offset="0.08" stop-color="#FD5A5A" />
            <stop offset="0.32" stop-color="#FD9494" />
            <stop offset="0.54" stop-color="#FEC2C2" />
            <stop offset="0.73" stop-color="#FEE3E3" />
            <stop offset="0.89" stop-color="#FEF7F7" />
            <stop offset="1" stop-color="white" />
        </linearGradient>
        <linearGradient id="paint2_linear_140_106" x1="229.96" y1="301.628" x2="231.843"
            y2="387.419" gradientUnits="userSpaceOnUse">
            <stop stop-color="#FD4545" />
            <stop offset="0.15" stop-color="#FD7373" />
            <stop offset="0.34" stop-color="#FEA5A5" />
            <stop offset="0.52" stop-color="#FECCCC" />
            <stop offset="0.68" stop-color="#FEE8E8" />
            <stop offset="0.82" stop-color="#FEF9F9" />
            <stop offset="0.92" stop-color="white" />
        </linearGradient>
        <linearGradient id="paint3_linear_140_106" x1="231.298" y1="303.065" x2="231.298"
            y2="223.469" gradientUnits="userSpaceOnUse">
            <stop stop-color="#FD4545" />
            <stop offset="1" stop-color="white" />
        </linearGradient>
        <linearGradient id="paint4_linear_140_106" x1="337.013" y1="273.675" x2="408.877"
            y2="258.658" gradientUnits="userSpaceOnUse">
            <stop stop-color="#FD4545" />
            <stop offset="0.22" stop-color="#FD7A7A" />
            <stop offset="0.49" stop-color="#FEB2B2" />
            <stop offset="0.71" stop-color="#FEDCDC" />
            <stop offset="0.89" stop-color="#FEF5F5" />
            <stop offset="1" stop-color="white" />
        </linearGradient>
        <linearGradient id="paint5_linear_140_106" x1="284.329" y1="158.048" x2="282.446"
            y2="718.043" gradientUnits="userSpaceOnUse">
            <stop offset="0.32" stop-color="#FF4533" stop-opacity="0" />
            <stop offset="1" />
        </linearGradient>
    </defs>
    <g filter="url(#filter0_d_140_106)">
        <path d="M248.595 307.377V308.715L214.001 315.753V314.365L248.595 307.377Z"
            fill="url(#paint0_linear_140_106)" />
        <path d="M319.32 259.203V294.441L248.595 308.715V273.477L319.32 259.203Z"
            fill="url(#paint1_linear_140_106)" />
        <path
            d="M248.595 308.715V407.987C248.595 414.677 244.68 420.823 238.633 423.648C236.304 424.738 233.776 425.284 231.348 425.284C227.333 425.284 223.368 423.896 220.196 421.219L214.001 416.016V315.703L248.595 308.715Z"
            fill="url(#paint2_linear_140_106)" />
        <path
            d="M248.595 273.477V308.764L214.001 315.753L161.02 326.458L189.22 350.198L213.952 370.964V416.115L145.904 358.97L111.558 330.125C111.558 330.125 111.409 329.977 111.31 329.927C111.112 329.729 110.814 329.531 110.616 329.283C110.368 329.085 110.17 328.837 109.922 328.639C109.724 328.44 109.526 328.192 109.327 327.945C109.327 327.945 109.278 327.945 109.228 327.846C109.03 327.647 108.832 327.399 108.683 327.201C108.485 326.953 108.287 326.706 108.138 326.458C107.94 326.16 107.791 325.913 107.642 325.615C107.494 325.367 107.345 325.12 107.196 324.822C106.998 324.525 106.899 324.277 106.8 323.98C106.8 323.98 106.8 323.98 106.75 323.881C106.552 323.385 106.304 322.84 106.155 322.344C106.106 322.146 106.007 321.997 105.957 321.849C105.957 321.749 105.858 321.65 105.858 321.502C105.808 321.303 105.759 321.105 105.709 320.957C105.709 320.907 105.709 320.857 105.709 320.758C105.709 320.56 105.61 320.312 105.561 320.114C105.511 319.767 105.462 319.519 105.412 319.222C105.412 318.974 105.362 318.627 105.313 318.379C105.263 317.636 105.214 316.843 105.263 316.099C105.263 315.951 105.263 315.802 105.263 315.653C105.263 315.108 105.362 314.563 105.412 314.018C105.412 313.82 105.511 313.671 105.511 313.473C105.561 313.126 105.66 312.779 105.759 312.432C105.858 312.035 105.957 311.639 106.106 311.242C106.106 311.143 106.205 310.995 106.254 310.846C106.354 310.648 106.453 310.4 106.502 310.202C106.601 309.904 106.75 309.607 106.899 309.359C106.948 309.21 107.047 309.062 107.097 308.863C107.196 308.665 107.295 308.467 107.444 308.219C107.543 308.021 107.692 307.823 107.84 307.624C107.84 307.624 107.84 307.624 107.84 307.575C107.94 307.377 108.088 307.178 108.237 306.98C108.584 306.435 108.98 305.939 109.426 305.444C109.526 305.345 109.625 305.246 109.724 305.097C110.17 304.601 110.665 304.155 111.161 303.66C111.359 303.511 111.508 303.412 111.657 303.263C111.756 303.164 111.905 303.065 112.053 302.966C112.202 302.916 112.301 302.767 112.45 302.668C112.598 302.52 112.797 302.42 112.945 302.321C113.342 302.024 113.837 301.776 114.283 301.528C114.383 301.429 114.482 301.38 114.63 301.33C114.779 301.281 114.878 301.231 115.027 301.132C115.671 300.835 116.315 300.537 117.059 300.339C117.208 300.289 117.406 300.24 117.555 300.141C118.05 299.942 118.595 299.843 119.14 299.744L214.1 280.564L248.694 273.576L248.595 273.477Z"
            fill="white" />
        <path
            d="M319.319 347.571L353.864 340.583V405.36C353.864 414.876 346.132 422.657 336.567 422.657C327.002 422.657 319.27 414.925 319.27 405.36"
            fill="white" />
        <path
            d="M248.595 162.558V273.477L214.001 280.465V162.558C214.001 153.042 221.733 145.261 231.298 145.261C240.864 145.261 248.595 152.993 248.595 162.558Z"
            fill="url(#paint3_linear_140_106)" />
        <path d="M353.913 197.598V287.453V340.583L319.32 347.571V204.586L353.913 197.598Z"
            fill="white" />
        <path
            d="M462.751 251.223V251.917C462.751 251.917 462.751 252.215 462.751 252.363C462.751 253.008 462.651 253.652 462.503 254.296C462.503 254.544 462.404 254.792 462.354 254.99C462.255 255.535 462.106 256.031 461.958 256.527C461.908 256.725 461.858 256.923 461.759 257.121C461.66 257.369 461.611 257.567 461.512 257.815C461.412 258.113 461.264 258.41 461.115 258.658C461.065 258.806 460.966 258.955 460.867 259.153C460.768 259.352 460.619 259.55 460.52 259.798C460.421 259.996 460.272 260.194 460.173 260.392C460.173 260.392 460.173 260.409 460.173 260.442C460.173 260.442 459.926 260.838 459.777 261.037C459.529 261.384 459.281 261.731 459.033 262.077C458.934 262.177 458.786 262.325 458.687 262.424C457.745 263.564 456.654 264.556 455.465 265.398C455.168 265.596 454.87 265.795 454.573 265.993C454.226 266.241 453.829 266.389 453.433 266.588C453.284 266.687 453.136 266.736 452.987 266.835C451.748 267.43 450.36 267.876 448.923 268.174L354.013 287.403V252.165L396.933 243.492H396.982L406.944 241.46H406.895L450.211 232.638L456.407 237.891C456.407 237.891 456.654 238.04 456.704 238.139C456.952 238.337 457.15 238.536 457.348 238.734C457.596 238.982 457.844 239.18 458.042 239.428C458.24 239.676 458.439 239.824 458.637 240.072C458.637 240.122 458.736 240.171 458.736 240.221C458.885 240.469 459.083 240.667 459.281 240.915C459.628 241.41 460.025 241.906 460.322 242.501C460.471 242.748 460.619 243.046 460.768 243.294C460.917 243.591 461.065 243.839 461.165 244.136C461.264 244.285 461.313 244.483 461.412 244.632C461.511 244.83 461.561 245.028 461.66 245.227C461.759 245.425 461.809 245.623 461.908 245.871C462.007 246.168 462.057 246.416 462.156 246.713C462.156 246.763 462.156 246.862 462.205 246.912C462.205 247.06 462.304 247.209 462.304 247.358C462.354 247.556 462.404 247.705 462.404 247.903C462.404 247.903 462.404 247.919 462.404 247.952C462.404 247.952 462.404 248.052 462.404 248.101C462.453 248.299 462.503 248.498 462.503 248.745C462.503 248.795 462.503 248.845 462.503 248.944C462.503 249.191 462.552 249.439 462.602 249.637C462.602 249.935 462.651 250.183 462.651 250.43C462.651 250.728 462.651 251.025 462.651 251.273L462.751 251.223Z"
            fill="url(#paint4_linear_140_106)" />
        <path
            d="M450.112 232.638L406.796 241.46L402.434 237.792L378.645 217.819L353.913 197.053V197.647L319.369 204.636V229.813V159.931C319.369 153.24 323.284 147.095 329.38 144.27C335.427 141.395 342.613 142.386 347.768 146.698L422.011 209.047L426.719 213.012L450.162 232.687L450.112 232.638Z"
            fill="white" />
    </g>
    <g style="mix-blend-mode:overlay">
        <path
            d="M562.914 127.171C558.702 64.9713 509.784 14.5672 446.94 8.07465C331.611 -3.86968 225.103 -1.83766 124.493 9.41281C66.3575 15.9549 19.621 60.1638 10.8486 117.209C-5.45716 222.825 -2.73127 333.595 14.7144 448.429C23.1398 503.739 67.1505 547.403 123.205 555.878C228.424 571.787 337.707 571.986 451.153 556.126C511.767 547.651 558.057 498.238 562.221 438.07C569.605 332.306 569.853 228.673 562.964 127.221L562.914 127.171ZM533.673 426.523C530.105 478.166 489.861 520.937 438.019 528.223C386.475 535.459 335.08 539.126 285.172 539.126C235.263 539.126 184.611 535.409 135.942 528.025C87.3716 520.69 49.8039 483.469 42.5184 435.493C25.8657 325.714 24.6762 223.073 38.95 130.392C46.5329 81.3266 86.7768 43.1642 136.884 37.5638C188.428 31.8146 240.368 28.8905 291.367 28.8905C338.599 28.8905 386.773 31.4181 434.55 36.3743C488.77 41.9747 530.798 85.1428 534.466 138.967C540.81 232.39 540.562 329.184 533.772 426.572L533.673 426.523Z"
            fill="url(#paint5_linear_140_106)" />
    </g>
</svg>
