<svg width="220" height="220" viewBox="0 0 220 220" fill="none" xmlns="http://www.w3.org/2000/svg">
    <mask id="mask0_2126_12533" style="mask-type:luminance" maskUnits="userSpaceOnUse" x="0" y="0"
        width="220" height="220">
        <path d="M220 0H0V220H220V0Z" fill="white" />
    </mask>
    <g mask="url(#mask0_2126_12533)">
        <path d="M51.071 108.458V173.509L109.998 197.085L168.931 173.509V108.458H51.071Z"
            fill="#CCD1D9" />
        <path d="M110 197.085L168.931 173.51V108.458H110V197.085Z" fill="#F3F3F3" />
        <path
            d="M133.569 59.5815L110 71.7622L86.4288 59.5815L27.5 90.0295L51.0693 102.207L27.5 114.387L86.4288 144.828L110 132.655L133.569 144.828L192.5 114.387L168.929 102.207L192.5 90.0295L133.569 59.5815Z"
            fill="#EFEFEF" />
        <path d="M109.998 71.7622L51.071 102.205L109.998 132.655L168.931 102.205L109.998 71.7622Z"
            fill="#CCD1D9" />
        <path
            d="M109.518 113.009C100.947 105.441 84.6341 87.4391 110.136 77.7719C133.632 68.8656 141.011 70.2937 149.343 63.4481C160.587 54.2062 154.942 28.5781 124.812 23.1184"
            stroke="#595E66" stroke-linecap="round" stroke-linejoin="round"
            stroke-dasharray="2.03 2.03" />
        <path
            d="M116.849 11.4321C120.508 11.4321 123.474 14.3985 123.474 18.0578C123.474 21.7171 120.508 24.6835 116.849 24.6835C113.189 24.6835 110.223 21.7171 110.223 18.0578C110.223 14.3985 113.189 11.4321 116.849 11.4321Z"
            fill="white" />
        <path
            d="M116.849 11.4321C120.508 11.4321 123.474 14.3985 123.474 18.0578C123.474 21.7171 120.508 24.6835 116.849 24.6835C113.189 24.6835 110.223 21.7171 110.223 18.0578C110.223 14.3985 113.189 11.4321 116.849 11.4321Z"
            stroke="#6C6C6C" stroke-width="0.7" stroke-miterlimit="10" />
        <path
            d="M128.195 11.6045C130.8 11.6045 132.912 13.7165 132.912 16.3235C132.912 18.9305 130.8 21.0425 128.195 21.0425C125.588 21.0425 123.474 18.9305 123.474 16.3235C123.474 13.7165 125.588 11.6045 128.195 11.6045Z"
            fill="white" />
        <path
            d="M128.195 11.6045C130.8 11.6045 132.912 13.7165 132.912 16.3235C132.912 18.9305 130.8 21.0425 128.195 21.0425C125.588 21.0425 123.474 18.9305 123.474 16.3235C123.474 13.7165 125.588 11.6045 128.195 11.6045Z"
            stroke="#6C6C6C" stroke-width="0.7" stroke-miterlimit="10" />
        <path
            d="M124.992 19.5079C126.816 19.5079 128.296 20.9856 128.296 22.8079C128.296 24.6303 126.816 26.1116 124.992 26.1116C123.17 26.1116 121.692 24.6303 121.692 22.8079C121.692 20.9856 123.17 19.5079 124.992 19.5079Z"
            fill="#6C6C6C" />
    </g>
</svg>
