<svg width="120" height="121" viewBox="0 0 120 121" fill="none" xmlns="http://www.w3.org/2000/svg">
    <g id="padlock 2" clip-path="url(#clip0_4555_21888)">
        <g id="g8">
            <g id="g10">
                <path id="path12" d="M120 120.075H0V0.0754395H120V120.075Z" fill="white" />
                <g id="Group 1">
                    <path id="path16"
                        d="M87.4496 55.7979H78.1496V39.8021C78.1496 29.8537 70.0562 21.7603 60.1078 21.7603C50.1594 21.7603 42.066 29.8537 42.066 39.8021V55.7979H32.766V39.8021C32.766 24.7257 45.0316 12.4603 60.1078 12.4603C75.184 12.4603 87.4496 24.7257 87.4496 39.8021V55.7979Z"
                        fill="#DCE2EB" />
                    <path id="path18"
                        d="M87.4496 39.8021V55.7979H78.1496V51.5199C81.8698 50.0319 83.3576 47.0561 83.3576 42.9641V39.8021C83.3576 25.4133 72.1866 13.5857 58.0618 12.5365C58.2124 12.5255 58.363 12.5161 58.5156 12.5067C58.5454 12.5049 58.5752 12.5031 58.6048 12.5013C58.711 12.4957 58.8188 12.4901 58.9248 12.4863C58.9676 12.4845 59.0104 12.4827 59.0532 12.4807C59.1126 12.4789 59.174 12.4751 59.2356 12.4751C59.3544 12.4695 59.4736 12.4677 59.5926 12.4659C59.7636 12.4621 59.9368 12.4603 60.1078 12.4603C75.1848 12.4603 87.4496 24.7251 87.4496 39.8021Z"
                        fill="#B3B3B3" />
                    <path id="path20"
                        d="M89.2156 106.575H31C28.791 106.575 27 104.785 27 102.575V56.4499C27 54.2409 28.791 52.4499 31 52.4499H89.2156C91.4246 52.4499 93.2156 54.2409 93.2156 56.4499V102.575C93.2156 104.785 91.4246 106.575 89.2156 106.575Z"
                        fill="#CCD1D9" />
                    <path id="path22"
                        d="M66.7946 88.0427C67.092 89.9119 65.6486 91.6027 63.757 91.6027H56.4586C54.567 91.6027 53.1236 89.9119 53.421 88.0427L54.459 81.5291C52.8966 80.0373 51.9238 77.9355 51.9238 75.6067C51.9238 71.0871 55.588 67.4229 60.1078 67.4229C64.6276 67.4229 68.2918 71.0871 68.2918 75.6067C68.2918 77.9355 67.319 80.0373 65.7566 81.5291L66.7946 88.0427Z"
                        fill="#DCE2EB" />
                    <path id="path24"
                        d="M93.2156 56.1699V102.856C93.2156 104.911 91.5508 106.575 89.4954 106.575H41.8798C61.2238 106.575 81.8698 103.414 81.8698 81.0937V62.1219C81.8698 56.7801 77.5396 52.4499 72.1976 52.4499H89.4954C91.5508 52.4499 93.2156 54.1147 93.2156 56.1699Z"
                        fill="#DCE2EB" />
                    <path id="path26"
                        d="M30.162 57.0219V81.8377C30.162 81.8377 38.348 61.6757 55.3268 55.6119H31.5718C30.7932 55.6119 30.162 56.2431 30.162 57.0219Z"
                        fill="#DCE2EB" />
                    <path id="path28"
                        d="M53.0398 76.0719C53.0398 78.4005 54.0126 80.5023 55.575 81.9939L54.537 88.5075C54.34 89.7427 54.9054 90.9015 55.8558 91.5431C54.271 91.2307 53.157 89.7073 53.421 88.0427L54.459 81.5291C52.8966 80.0373 51.9238 77.9355 51.9238 75.6067C51.9238 71.0871 55.588 67.4229 60.1078 67.4229C61.4376 67.4229 62.695 67.7409 63.8054 68.3045C62.9946 68.0329 62.126 67.8879 61.2238 67.8879C56.704 67.8879 53.0398 71.5521 53.0398 76.0719Z"
                        fill="#B3B3B3" />
                    <path id="path30"
                        d="M54.528 14.5063C54.528 14.5063 35.742 18.1243 34.254 38.5001H37.788C37.788 38.5001 38.532 22.3139 54.528 14.5063Z"
                        fill="#DCE2EB" />
                </g>
            </g>
        </g>
    </g>
    <defs>
        <clipPath id="clip0_4555_21888">
            <rect width="120" height="120" fill="white" transform="translate(0 0.0754395)" />
        </clipPath>
    </defs>
</svg>
