<svg width="18" height="18" viewBox="0 0 18 18" fill="none" xmlns="http://www.w3.org/2000/svg">
    <g clip-path="url(#clip0_12684_92771)">
        <mask id="mask0_12684_92771" style="mask-type:luminance" maskUnits="userSpaceOnUse" x="0"
            y="0" width="18" height="18">
            <path d="M18 0H0V18H18V0Z" fill="white" />
        </mask>
        <g mask="url(#mask0_12684_92771)">
            <path
                d="M11.68 4.98496C11.68 3.52084 10.3653 2.25 8.85071 2.25C7.33615 2.25 6.02148 3.52084 6.02148 4.98496C6.02148 6.44907 7.33615 7.7199 8.85071 7.7199C10.3653 7.7199 11.68 6.44907 11.68 4.98496Z"
                stroke="#FE4545" stroke-width="1.5" />
            <path
                d="M4.125 14.0111C4.125 11.6933 6.36812 9.82812 8.8533 9.82812C11.3385 9.82812 13.5817 11.6933 13.5817 14.0111C13.5817 16.329 4.125 16.329 4.125 14.0111Z"
                stroke="#FE4545" stroke-width="1.5" />
        </g>
    </g>
    <defs>
        <clipPath id="clip0_12684_92771">
            <rect width="18" height="18" fill="white" />
        </clipPath>
    </defs>
</svg>
