<svg width="48" height="48" viewBox="0 0 48 48" fill="none" xmlns="http://www.w3.org/2000/svg">
    <g clip-path="url(#clip0_803_25949)">
        <g filter="url(#filter0_d_803_25949)">
            <path
                d="M24 42C35.0457 42 44 33.0457 44 22C44 10.9543 35.0457 2 24 2C12.9543 2 4 10.9543 4 22C4 33.0457 12.9543 42 24 42Z"
                fill="white" />
        </g>
        <path
            d="M31.6688 27.5207C31.6272 27.4791 31.6272 27.4791 31.5856 27.4375L29.0078 25.4418L28.7583 25.1923C28.5505 24.9845 28.301 24.8597 28.0515 24.8181C27.7189 24.7766 27.3863 24.8597 27.0953 25.1092L25.6401 26.2318C25.5569 26.2734 25.4737 26.3565 25.3906 26.3149C25.349 26.3149 25.3074 26.3149 25.2243 26.2318C25.0996 26.1486 24.9748 26.0655 24.8501 25.9407C24.7254 25.8576 24.6006 25.7744 24.4759 25.6497C23.3949 24.735 22.4802 23.654 21.6071 22.2819C21.1497 21.492 20.8587 20.8683 20.6924 20.2446C20.6508 20.0783 20.6924 19.9952 20.8171 19.8705C21.1913 19.621 21.5239 19.3715 21.8981 19.0805L22.2723 18.7894C22.9375 18.2905 23.0207 17.6253 22.5633 17.0016L21.4408 14.8812C21.3992 14.798 21.3576 14.7149 21.316 14.6317C21.2744 14.5486 21.2329 14.4654 21.1913 14.3823C21.1081 14.2575 21.0666 14.1744 21.025 14.0912C20.9002 13.8833 20.8171 13.717 20.6508 13.5091C20.4429 13.2181 20.1519 13.0102 19.8192 13.0102C19.5282 12.9686 19.1956 13.0518 18.863 13.3012L17.4078 14.4238C16.9504 14.7565 16.7009 15.2138 16.5762 15.7543C16.4099 16.5443 16.5346 18.4153 16.7841 19.4547C17.1583 21.1178 17.8651 22.7393 18.9461 24.4855C20.2766 26.606 22.0228 28.3938 24.1017 29.7658C24.8085 30.2232 25.5985 30.6805 26.8458 30.93C26.929 30.93 26.9705 30.9716 27.0537 30.9716C27.22 30.9716 27.3863 31.0132 27.5942 31.0132C28.301 31.0132 29.2989 30.8884 30.0472 30.4311C30.1304 30.3895 30.2967 30.2648 30.463 30.1816C30.6293 30.0569 30.8372 29.9322 31.0035 29.849L31.1283 29.7658C31.2946 29.6411 31.4193 29.558 31.544 29.4332C32.0845 28.8511 32.1677 28.1859 31.6688 27.5207Z"
            fill="white" stroke="#1F1F1F" stroke-width="1.4" stroke-miterlimit="10"
            stroke-linecap="round" stroke-linejoin="round" />
    </g>
    <defs>
        <filter id="filter0_d_803_25949" x="0" y="0" width="48" height="48"
            filterUnits="userSpaceOnUse" color-interpolation-filters="sRGB">
            <feFlood flood-opacity="0" result="BackgroundImageFix" />
            <feColorMatrix in="SourceAlpha" type="matrix"
                values="0 0 0 0 0 0 0 0 0 0 0 0 0 0 0 0 0 0 127 0" result="hardAlpha" />
            <feOffset dy="2" />
            <feGaussianBlur stdDeviation="2" />
            <feComposite in2="hardAlpha" operator="out" />
            <feColorMatrix type="matrix" values="0 0 0 0 0 0 0 0 0 0 0 0 0 0 0 0 0 0 0.12 0" />
            <feBlend mode="normal" in2="BackgroundImageFix" result="effect1_dropShadow_803_25949" />
            <feBlend mode="normal" in="SourceGraphic" in2="effect1_dropShadow_803_25949"
                result="shape" />
        </filter>
        <clipPath id="clip0_803_25949">
            <rect width="48" height="48" fill="white" />
        </clipPath>
    </defs>
</svg>
