<svg width="24" height="24" viewBox="0 0 24 24" fill="none" xmlns="http://www.w3.org/2000/svg">
    <g id="Photos">
        <path id="Vector"
            d="M19.5 5.25H18.75V4.5C18.75 3.25927 17.7407 2.25 16.5 2.25H4.5C3.25927 2.25 2.25 3.25927 2.25 4.5V16.5C2.25 17.7407 3.25927 18.75 4.5 18.75H5.25V19.5C5.25 20.7407 6.25927 21.75 7.5 21.75H19.5C20.7407 21.75 21.75 20.7407 21.75 19.5V7.5C21.75 6.25927 20.7407 5.25 19.5 5.25ZM4.5 3.75H16.5C16.9138 3.75 17.25 4.08652 17.25 4.5V8.71778L12.6746 13.9475L7.9878 9.93052C7.69042 9.6753 7.24658 9.6921 6.96975 9.96968L3.75 13.1894V4.5C3.75 4.08652 4.08615 3.75 4.5 3.75ZM20.25 19.5C20.25 19.9135 19.9139 20.25 19.5 20.25H7.5C7.08615 20.25 6.75 19.9135 6.75 19.5V18.75H16.5C17.7407 18.75 18.75 17.7407 18.75 16.5V6.75H19.5C19.9139 6.75 20.25 7.08652 20.25 7.5V19.5Z"
            fill="#1F1F1F" />
        <path id="Vector_2"
            d="M12 9.75C13.2407 9.75 14.25 8.74073 14.25 7.5C14.25 6.25927 13.2407 5.25 12 5.25C10.7593 5.25 9.75 6.25927 9.75 7.5C9.75 8.74073 10.7593 9.75 12 9.75Z"
            fill="#1F1F1F" />
    </g>
</svg>
