<svg width="14" height="18" viewBox="0 0 14 18" fill="none" xmlns="http://www.w3.org/2000/svg">
    <path
        d="M11.6295 16.4286H2.37056C1.6136 16.4286 1 15.7199 1 14.8458V7.72571C1 6.85151 1.6136 6.14288 2.37056 6.14288H11.6295C12.3864 6.14288 13 6.85156 13 7.72571V14.8458C13 15.7199 12.3864 16.4286 11.6295 16.4286Z"
        stroke="#1F1F1F" stroke-width="1.2" />
    <path
        d="M10.4286 6.14286V4.10394C10.4286 2.39242 8.8905 1 7 1C5.10947 1 3.57141 2.39242 3.57141 4.10394V6.14286"
        stroke="#1F1F1F" stroke-width="1.2" stroke-linecap="round" />
    <path
        d="M8.71434 10.4286C8.71434 9.4818 7.94683 8.71429 7.00005 8.71429C6.05328 8.71429 5.28577 9.4818 5.28577 10.4286C5.28577 10.9576 5.52552 11.4304 5.90203 11.7448L5.3274 13.8013H8.6585L8.08657 11.7545C8.46978 11.4401 8.71434 10.9629 8.71434 10.4286Z"
        fill="#1F1F1F" />
</svg>
