<svg width="24" height="24" viewBox="0 0 24 24" fill="none" xmlns="http://www.w3.org/2000/svg">
    <g id="Profile" clip-path="url(#clip0_6126_62265)">
        <g id="Clip path group">
            <mask id="mask0_6126_62265" style="mask-type:luminance" maskUnits="userSpaceOnUse" x="0"
                y="0" width="24" height="24">
                <g id="clip0_6126_62231">
                    <path id="Vector" d="M24 0H0V24H24V0Z" fill="white" />
                </g>
            </mask>
            <g mask="url(#mask0_6126_62265)">
                <g id="Group">
                    <path id="Vector_2"
                        d="M15.5743 6.64661C15.5743 4.69446 13.8214 3 11.8019 3C9.78249 3 8.0296 4.69446 8.0296 6.64661C8.0296 8.59876 9.78249 10.2932 11.8019 10.2932C13.8214 10.2932 15.5743 8.59876 15.5743 6.64661Z"
                        stroke="#8C8C8C" stroke-width="2" />
                    <path id="Vector_3"
                        d="M5.5 18.6818C5.5 15.5914 8.49082 13.1045 11.8044 13.1045C15.118 13.1045 18.1089 15.5914 18.1089 18.6818C18.1089 21.7723 5.5 21.7723 5.5 18.6818Z"
                        stroke="#8C8C8C" stroke-width="2" />
                </g>
            </g>
        </g>
    </g>
    <defs>
        <clipPath id="clip0_6126_62265">
            <rect width="24" height="24" fill="white" />
        </clipPath>
    </defs>
</svg>
