<svg width="44" height="44" viewBox="0 0 44 44" fill="none" xmlns="http://www.w3.org/2000/svg">
    <defs>
        <linearGradient id="paint0_linear_146_369" x1="19.8836" y1="23.1888" x2="23.9385"
            y2="23.1888" gradientUnits="userSpaceOnUse">
            <stop stop-color="#FF7304" />
            <stop offset="1" stop-color="#FB2A77" />
        </linearGradient>
        <linearGradient id="paint1_linear_146_369" x1="2.81701" y1="7.4995" x2="4.85621" y2="7.4995"
            gradientUnits="userSpaceOnUse">
            <stop stop-color="#FF7304" />
            <stop offset="1" stop-color="#FB2A77" />
        </linearGradient>
        <linearGradient id="paint2_linear_146_369" x1="5.54521" y1="7.5017" x2="7.58481" y2="7.5017"
            gradientUnits="userSpaceOnUse">
            <stop stop-color="#FF7304" />
            <stop offset="1" stop-color="#FB2A77" />
        </linearGradient>
        <linearGradient id="paint3_linear_146_369" x1="8.2736" y1="7.50431" x2="10.3131"
            y2="7.50431" gradientUnits="userSpaceOnUse">
            <stop stop-color="#FF7304" />
            <stop offset="1" stop-color="#FB2A77" />
        </linearGradient>
        <clipPath id="clip0_146_369">
            <rect width="43.74" height="43.74" fill="white" />
        </clipPath>
    </defs>
    <g id="Programming" clip-path="url(#clip0_146_369)">
        <g id="Group">
            <path id="Vector"
                d="M21.91 38.88C15.76 38.88 9.60001 38.88 3.45001 38.88C1.71001 38.88 0.76001 37.93 0.76001 36.19C0.76001 26.61 0.76001 17.04 0.76001 7.45999C0.76001 5.71999 1.71001 4.76999 3.45001 4.76999C15.76 4.76999 28.06 4.76999 40.37 4.76999C42.11 4.76999 43.06 5.71999 43.06 7.44999C43.06 17.03 43.06 26.6 43.06 36.18C43.06 37.91 42.11 38.87 40.37 38.87C34.22 38.88 28.07 38.88 21.91 38.88ZM2.13001 10.25C2.13001 10.43 2.13001 10.57 2.13001 10.71C2.13001 19.21 2.13001 27.7 2.13001 36.2C2.13001 37.18 2.48001 37.52 3.47001 37.52C15.76 37.52 28.05 37.52 40.34 37.52C41.36 37.52 41.69 37.18 41.69 36.17C41.69 27.69 41.69 19.21 41.69 10.72C41.69 10.57 41.69 10.42 41.69 10.25C28.49 10.25 15.34 10.25 2.13001 10.25ZM41.69 8.84999C41.69 8.37999 41.69 7.94999 41.69 7.52999C41.69 6.45999 41.37 6.13999 40.29 6.13999C28.03 6.13999 15.77 6.13999 3.51001 6.13999C3.35001 6.13999 3.20001 6.12999 3.04001 6.14999C2.61001 6.19999 2.20001 6.51999 2.17001 6.94999C2.12001 7.57999 2.16001 8.20999 2.16001 8.84999C15.34 8.84999 28.49 8.84999 41.69 8.84999Z"
                fill="black" />
            <path id="Vector_2"
                d="M2.13 10.25C15.34 10.25 28.49 10.25 41.69 10.25C41.69 10.42 41.69 10.57 41.69 10.72C41.69 19.2 41.69 27.68 41.69 36.17C41.69 37.18 41.35 37.52 40.34 37.52C28.05 37.52 15.76 37.52 3.47 37.52C2.48 37.52 2.13 37.18 2.13 36.2C2.13 27.7 2.13 19.21 2.13 10.71C2.13 10.56 2.13 10.42 2.13 10.25ZM18.59 19.01C18.39 18.82 18.24 18.58 18.01 18.46C17.71 18.31 17.42 18.46 17.24 18.73C16.33 20.08 15.42 21.44 14.54 22.81C14.43 22.99 14.43 23.37 14.54 23.55C15.42 24.93 16.33 26.28 17.24 27.63C17.44 27.93 17.74 28.04 18.1 27.88C18.52 27.69 18.61 27.25 18.32 26.8C17.59 25.7 16.87 24.6 16.12 23.51C15.95 23.26 15.96 23.08 16.13 22.84C16.86 21.77 17.57 20.7 18.28 19.62C18.39 19.47 18.46 19.29 18.59 19.01ZM25.99 18.3C25.76 18.49 25.49 18.6 25.43 18.78C25.36 19 25.37 19.33 25.5 19.52C26.2 20.64 26.94 21.73 27.69 22.82C27.87 23.08 27.88 23.26 27.7 23.53C26.95 24.62 26.22 25.72 25.5 26.82C25.24 27.22 25.3 27.6 25.63 27.83C25.97 28.06 26.35 27.98 26.62 27.58C27.51 26.26 28.39 24.94 29.27 23.61C29.47 23.32 29.47 23.03 29.28 22.74C28.39 21.41 27.51 20.07 26.6 18.74C26.46 18.58 26.23 18.48 25.99 18.3ZM20.63 27.96C20.93 27.93 21.13 27.71 21.24 27.37C22.11 24.73 23 22.1 23.87 19.47C24.04 18.97 23.89 18.59 23.48 18.46C23.09 18.33 22.75 18.55 22.58 19.06C22.12 20.42 21.67 21.78 21.22 23.13C20.79 24.42 20.35 25.71 19.93 27C19.76 27.52 20.06 27.97 20.63 27.96Z"
                fill="white" />
            <path id="Vector_3"
                d="M41.69 8.85001C28.49 8.85001 15.34 8.85001 2.15001 8.85001C2.15001 8.21001 2.11001 7.58001 2.16001 6.95001C2.20001 6.52001 2.61 6.20001 3.05 6.15001C3.2 6.13001 3.36001 6.14001 3.52 6.14001C15.78 6.14001 28.04 6.14001 40.3 6.14001C41.38 6.14001 41.7 6.46001 41.7 7.53001C41.69 7.95001 41.69 8.38001 41.69 8.85001ZM3.8 8.18001C3.94 8.18001 4.09001 8.19001 4.23001 8.18001C4.60001 8.14001 4.86001 7.85001 4.86001 7.49001C4.85001 7.14001 4.59 6.86001 4.21001 6.83001C3.96001 6.81001 3.70001 6.81001 3.44001 6.83001C3.07001 6.86001 2.81 7.16001 2.82 7.51001C2.82 7.87001 3.09001 8.14001 3.46001 8.18001C3.57001 8.19001 3.69 8.18001 3.8 8.18001ZM6.55001 8.18001C6.65001 8.18001 6.75001 8.18001 6.85001 8.18001C7.29001 8.16001 7.57 7.90001 7.58001 7.52001C7.59001 7.12001 7.29001 6.84001 6.83001 6.82001C6.65001 6.81001 6.46001 6.81001 6.28001 6.82001C5.84001 6.84001 5.56001 7.10001 5.55001 7.49001C5.54001 7.89001 5.84001 8.17001 6.30001 8.19001C6.38001 8.19001 6.46001 8.18001 6.55001 8.18001ZM9.31001 6.82001C9.21001 6.82001 9.11001 6.82001 9.01001 6.82001C8.57001 6.84001 8.28001 7.10001 8.27001 7.49001C8.26001 7.89001 8.56001 8.17001 9.02001 8.19001C9.20001 8.20001 9.39001 8.20001 9.57 8.19001C10.01 8.17001 10.3 7.91001 10.31 7.53001C10.32 7.13001 10.02 6.85001 9.56001 6.83001C9.48001 6.82001 9.39001 6.82001 9.31001 6.82001Z"
                fill="white" />
            <path id="Vector_4"
                d="M18.59 19.01C18.45 19.28 18.38 19.47 18.28 19.63C17.57 20.71 16.86 21.78 16.13 22.85C15.96 23.09 15.95 23.27 16.12 23.52C16.87 24.61 17.59 25.71 18.32 26.81C18.61 27.26 18.52 27.69 18.1 27.89C17.75 28.05 17.45 27.95 17.24 27.64C16.33 26.29 15.41 24.94 14.54 23.56C14.42 23.38 14.42 23 14.54 22.82C15.42 21.44 16.33 20.09 17.24 18.74C17.42 18.47 17.71 18.31 18.01 18.47C18.24 18.58 18.4 18.82 18.59 19.01Z"
                fill="black" />
            <path id="Vector_5"
                d="M25.99 18.3C26.23 18.48 26.47 18.58 26.59 18.76C27.5 20.08 28.38 21.42 29.27 22.76C29.47 23.05 29.46 23.34 29.26 23.63C28.38 24.95 27.5 26.28 26.61 27.6C26.35 27.99 25.96 28.08 25.62 27.85C25.29 27.62 25.23 27.24 25.49 26.84C26.22 25.74 26.94 24.63 27.69 23.55C27.87 23.28 27.86 23.1 27.68 22.84C26.93 21.75 26.19 20.66 25.49 19.54C25.37 19.35 25.35 19.02 25.42 18.8C25.49 18.61 25.76 18.49 25.99 18.3Z"
                fill="black" />
            <path id="Vector_6"
                d="M20.63 27.96C20.06 27.96 19.76 27.51 19.93 27C20.35 25.71 20.79 24.42 21.22 23.13C21.67 21.77 22.12 20.41 22.58 19.06C22.75 18.55 23.09 18.33 23.48 18.46C23.89 18.6 24.04 18.97 23.87 19.47C22.99 22.11 22.11 24.74 21.24 27.37C21.12 27.71 20.93 27.93 20.63 27.96Z"
                fill="url(#paint0_linear_146_369)" stroke="#020202" stroke-width="0.25"
                stroke-miterlimit="10" />
            <path id="Vector_7"
                d="M3.80001 8.18C3.69001 8.18 3.57001 8.19 3.46001 8.18C3.08001 8.14 2.82001 7.87 2.82001 7.51C2.82001 7.15 3.07001 6.86 3.45001 6.83C3.70001 6.81 3.96001 6.81 4.22001 6.83C4.60001 6.86 4.86001 7.14 4.87001 7.5C4.86001 7.85 4.60001 8.14 4.23001 8.18C4.09001 8.19 3.94001 8.18 3.80001 8.18Z"
                fill="url(#paint1_linear_146_369)" />
            <path id="Vector_8"
                d="M6.55001 8.18C6.46001 8.18 6.38001 8.18 6.29001 8.18C5.83001 8.16 5.53001 7.88 5.54001 7.48C5.55001 7.09 5.84001 6.83 6.28001 6.82C6.46001 6.81 6.65001 6.81 6.83001 6.82C7.29001 6.84 7.59001 7.12 7.58001 7.52C7.57001 7.9 7.29001 8.16 6.85001 8.18C6.75001 8.19 6.65001 8.18 6.55001 8.18Z"
                fill="url(#paint2_linear_146_369)" />
            <path id="Vector_9"
                d="M9.31 6.82001C9.4 6.82001 9.48 6.82001 9.57 6.82001C10.03 6.84001 10.33 7.12001 10.32 7.52001C10.31 7.90001 10.02 8.17001 9.58 8.18001C9.4 8.19001 9.21 8.19001 9.03 8.18001C8.57 8.16001 8.27 7.88001 8.28 7.48001C8.29 7.09001 8.58 6.83001 9.02 6.82001C9.11 6.82001 9.21 6.82001 9.31 6.82001Z"
                fill="url(#paint3_linear_146_369)" />
        </g>
    </g>
</svg>
