<svg width="24" height="24" viewBox="0 0 24 24" fill="none" xmlns="http://www.w3.org/2000/svg">
    <g id="POC request">
        <g id="Group 1171278718">
            <path id="Vector"
                d="M5.64098 5.64129L5.63937 5.64289C4.14777 7.13195 3.22662 9.09752 3.03663 11.1964C2.84664 13.2954 3.39988 15.3943 4.59983 17.127C5.79978 18.8596 7.57024 20.1159 9.60217 20.6762C11.6342 21.2367 13.7983 21.0657 15.7169 20.1931L15.7265 20.1887L15.7361 20.1846C16.6566 19.7864 17.693 19.7496 18.6392 20.0812L20.3707 20.6582C20.5466 20.7168 20.7139 20.5495 20.6553 20.3736L20.0779 18.6417C19.7463 17.6947 19.7839 16.6573 20.1834 15.7367L20.1874 15.7275L20.1916 15.7184C21.0651 13.7999 21.2369 11.6357 20.6769 9.60349C20.1169 7.57133 18.8608 5.80039 17.1277 4.60009C15.3947 3.39977 13.295 2.84642 11.1954 3.03673C9.09581 3.22707 7.12987 4.14896 5.64098 5.64129Z"
                stroke="#1F1F1F" stroke-width="2" />
            <path id="Vector_2" d="M8.62378 9.47099H15.3723" stroke="#1F1F1F" stroke-width="2"
                stroke-linecap="round" stroke-linejoin="round" />
            <path id="Vector_3" d="M11.3232 13.269H15.3724" stroke="#1F1F1F" stroke-width="2"
                stroke-linecap="round" stroke-linejoin="round" />
        </g>
    </g>
</svg>
