<svg width="24" height="24" viewBox="0 0 24 24" fill="none" xmlns="http://www.w3.org/2000/svg">
    <g id="Share">
        <g id="Group 1171278714">
            <g id="Group 1171278713">
                <path id="Vector 768" d="M16.05 6.60001L7.5 11.1" stroke="#1F1F1F"
                    stroke-width="2" />
                <path id="Vector"
                    d="M19.8001 3.45503C19.3561 3.15835 18.8341 3 18.3001 3C17.584 3 16.8973 3.28446 16.3909 3.79081C15.8846 4.29716 15.6001 4.98391 15.6001 5.7C15.6001 6.23401 15.7584 6.75603 16.0551 7.20004C16.3518 7.64405 16.7735 7.99012 17.2669 8.19447C17.7602 8.39883 18.3031 8.4523 18.8268 8.34812C19.3506 8.24394 19.8317 7.98679 20.2093 7.60919C20.5869 7.23159 20.844 6.75049 20.9482 6.22674C21.0524 5.70299 20.9989 5.16011 20.7946 4.66675C20.5902 4.17339 20.2441 3.75171 19.8001 3.45503Z"
                    stroke="#1F1F1F" stroke-width="2" />
            </g>
            <path id="Vector_2"
                d="M7.19868 9.75504C6.75481 9.45836 6.23296 9.3 5.69912 9.3C4.98327 9.3 4.29674 9.58447 3.79056 10.0908C3.28437 10.5972 3 11.2839 3 12C3 12.534 3.1583 13.056 3.45488 13.5C3.75147 13.9441 4.17301 14.2901 4.66621 14.4945C5.15941 14.6988 5.70212 14.7523 6.2257 14.6481C6.74927 14.5439 7.23021 14.2868 7.60769 13.9092C7.98517 13.5316 8.24224 13.0505 8.34638 12.5267C8.45053 12.003 8.39708 11.4601 8.19279 10.9668C7.9885 10.4734 7.64254 10.0517 7.19868 9.75504Z"
                stroke="#1F1F1F" stroke-width="2" />
            <g id="Group 1171278712">
                <path id="Vector 769" d="M16.05 17.4L7.5 12.9" stroke="#1F1F1F" stroke-width="2" />
                <path id="Vector_3"
                    d="M19.8001 20.545C19.3561 20.8416 18.8341 21 18.3001 21C17.584 21 16.8973 20.7155 16.3909 20.2092C15.8846 19.7028 15.6001 19.0161 15.6001 18.3C15.6001 17.766 15.7584 17.244 16.0551 16.8C16.3518 16.3559 16.7735 16.0099 17.2669 15.8055C17.7602 15.6012 18.3031 15.5477 18.8268 15.6519C19.3506 15.7561 19.8317 16.0132 20.2093 16.3908C20.5869 16.7684 20.844 17.2495 20.9482 17.7733C21.0524 18.297 20.9989 18.8399 20.7946 19.3332C20.5902 19.8266 20.2441 20.2483 19.8001 20.545Z"
                    stroke="#1F1F1F" stroke-width="2" />
            </g>
        </g>
    </g>
</svg>
