<svg width="24" height="24" viewBox="0 0 24 24" fill="none" xmlns="http://www.w3.org/2000/svg">
    <g id="Privacy">
        <g id="Group 1171277018">
            <g id="Group">
                <path id="Vector" fill-rule="evenodd" clip-rule="evenodd"
                    d="M4.99976 9.07672V19.6152C4.99976 19.9824 5.15779 20.3346 5.4391 20.5943C5.7204 20.8539 6.10193 20.9998 6.49976 20.9998H17.4998C17.8976 20.9998 18.2791 20.8539 18.5604 20.5943C18.8417 20.3346 18.9998 19.9824 18.9998 19.6152V9.07672H4.99976Z"
                    stroke="#1F1F1F" stroke-width="2" />
                <path id="Vector_2"
                    d="M9.49988 11.763V18.3138M14.4999 11.763V18.3138M8.49976 5.15348V4.14825C8.49976 3.51409 9.12676 2.99994 9.89976 2.99994H14.0998C14.8728 2.99994 15.4998 3.51409 15.4998 4.14825V5.1544"
                    stroke="#1F1F1F" stroke-width="2" stroke-linecap="round" />
                <path id="Vector_3"
                    d="M19.5 6H4.5C3.67157 6 3 6.67157 3 7.5C3 8.32843 3.67157 9 4.5 9H19.5C20.3284 9 21 8.32843 21 7.5C21 6.67157 20.3284 6 19.5 6Z"
                    stroke="#1F1F1F" stroke-width="2" />
            </g>
        </g>
    </g>
</svg>
