<svg width="24" height="24" viewBox="0 0 24 24" fill="none" xmlns="http://www.w3.org/2000/svg">
    <g id="Property 1=Phone">
        <path id="Vector"
            d="M19.95 21C17.8 21 15.704 20.5207 13.662 19.562C11.62 18.6033 9.81167 17.3367 8.237 15.762C6.66233 14.1873 5.39567 12.379 4.437 10.337C3.47833 8.295 2.99933 6.19933 3 4.05C3 3.75 3.1 3.5 3.3 3.3C3.5 3.1 3.75 3 4.05 3H8.1C8.33333 3 8.54167 3.075 8.725 3.225C8.90833 3.375 9.01667 3.56667 9.05 3.8L9.7 7.3C9.73333 7.53333 9.729 7.746 9.687 7.938C9.645 8.13 9.54933 8.30067 9.4 8.45L6.975 10.9C7.675 12.1 8.55433 13.225 9.613 14.275C10.6717 15.325 11.834 16.2333 13.1 17L15.45 14.65C15.6 14.5 15.796 14.3873 16.038 14.312C16.28 14.2367 16.5173 14.216 16.75 14.25L20.2 14.95C20.4333 15 20.625 15.1127 20.775 15.288C20.925 15.4633 21 15.6673 21 15.9V19.95C21 20.25 20.9 20.5 20.7 20.7C20.5 20.9 20.25 21 19.95 21ZM6.025 9L7.675 7.35L7.25 5H5.025C5.10833 5.68333 5.225 6.35833 5.375 7.025C5.525 7.69167 5.74167 8.35 6.025 9ZM14.975 17.95C15.625 18.2333 16.2877 18.4583 16.963 18.625C17.6383 18.7917 18.3173 18.9 19 18.95V16.75L16.65 16.275L14.975 17.95Z"
            fill="#1F1F1F" />
    </g>
</svg>
