<svg width="107" height="55" viewBox="0 0 107 55" fill="none" xmlns="http://www.w3.org/2000/svg">
    <g clip-path="url(#clip0_11_12729)">
        <path opacity="0.41"
            d="M112.663 44.901C114.45 46.8378 114.596 49.6104 112.988 51.0936C111.38 52.577 107.511 53.24 105.724 51.3032C103.937 49.3664 106.36 46.9382 106.904 44.7038C107.663 41.5874 110.876 42.9642 112.663 44.901Z"
            fill="#FFEFEF" />
        <g opacity="0.43">
            <path
                d="M94.9357 62.2176C95.8893 57.4766 94.3607 53.4326 93.9793 48.7838C93.6183 44.3826 95.1815 40.6812 96.0487 36.4894C96.8205 32.7588 96.5633 28.5332 95.5945 24.8666C94.2717 19.8606 91.2253 15.2254 86.8363 12.3996C79.9973 7.9964 70.8767 8.515 63.3223 11.5436C60.1581 12.8122 57.0935 14.5002 53.7047 14.9272C48.7623 15.5498 43.9519 13.4196 39.1373 12.1416C32.5835 10.4018 25.3891 10.2728 19.2055 13.0186C12.1945 16.1318 7.20927 23.1598 7.79167 30.9004C8.05567 34.4078 9.40567 37.869 8.92767 41.3534C8.44287 44.8872 6.34367 47.8436 5.23227 51.1718C3.71547 55.7146 3.57727 62.3908 6.01607 67.0002H93.2937C94.0467 65.4928 94.6015 63.8788 94.9357 62.2176Z"
                fill="#FFEFEF" />
        </g>
        <path
            d="M52.6071 24.8C58.9549 24.8 64.1009 19.6541 64.1009 13.3062C64.1009 6.95835 58.9549 1.8124 52.6071 1.8124C46.2592 1.8124 41.1133 6.95835 41.1133 13.3062C41.1133 19.6541 46.2592 24.8 52.6071 24.8Z"
            fill="#1B1B25" />
        <path
            d="M51.3942 23.5876C57.742 23.5876 62.888 18.4416 62.888 12.0938C62.888 5.74595 57.742 0.599998 51.3942 0.599998C45.0463 0.599998 39.9004 5.74595 39.9004 12.0938C39.9004 18.4416 45.0463 23.5876 51.3942 23.5876Z"
            fill="#FFB54A" />
        <path
            d="M51.3939 21.3734C46.2895 21.3734 42.1367 17.2206 42.1367 12.1162C42.1367 7.0118 46.2895 2.859 51.3939 2.859C56.4983 2.859 60.6511 7.0118 60.6511 12.1162C60.6511 17.2208 56.4983 21.3734 51.3939 21.3734ZM51.3939 3.4592C46.6203 3.4592 42.7367 7.3428 42.7367 12.1164C42.7367 16.89 46.6203 20.7736 51.3939 20.7736C56.1675 20.7736 60.0511 16.89 60.0511 12.1164C60.0511 7.3428 56.1675 3.4592 51.3939 3.4592Z"
            fill="#FCF0E3" />
        <path
            d="M50.7174 16.2662C50.1398 16.1952 49.5826 16.051 49.0454 15.8332C48.5078 15.6156 48.0172 15.3382 47.5732 15.0004L48.6124 13.4816C48.9764 13.757 49.3296 13.9858 49.6716 14.1678C50.0134 14.35 50.3844 14.4808 50.7842 14.5608V12.4426C50.3046 12.3092 49.8848 12.1628 49.5252 12.003C49.1654 11.843 48.8678 11.6522 48.6324 11.43C48.397 11.2082 48.2196 10.9484 48.0996 10.6506C47.9796 10.3532 47.9198 10.0092 47.9198 9.618V9.5914C47.9198 9.2184 47.9864 8.881 48.1196 8.5788C48.2528 8.277 48.4414 8.0148 48.6858 7.7928C48.93 7.571 49.2254 7.391 49.5718 7.2532C49.9182 7.1156 50.3002 7.0246 50.7176 6.98V6.2072H52.1032V7.0066C52.5826 7.0778 53.0246 7.1954 53.4288 7.3596C53.833 7.524 54.2168 7.735 54.5812 7.9924L53.6886 9.5512C53.4222 9.3736 53.1512 9.216 52.876 9.0782C52.6006 8.9406 52.321 8.8362 52.0368 8.7652V10.777C53.0494 11.0526 53.784 11.4122 54.2418 11.8562C54.6992 12.3004 54.928 12.8954 54.928 13.6414V13.668C54.928 14.041 54.859 14.3786 54.7216 14.6806C54.5838 14.9826 54.3928 15.2448 54.1486 15.4666C53.9042 15.6888 53.6092 15.8708 53.2626 16.0128C52.9162 16.155 52.53 16.2482 52.1036 16.2926V17.6116H50.718V16.2662H50.7174ZM50.784 8.6456C50.4642 8.6902 50.231 8.7856 50.0844 8.932C49.938 9.0786 49.8646 9.2584 49.8646 9.4716V9.4982C49.8646 9.7026 49.9268 9.878 50.0512 10.0244C50.1754 10.171 50.4196 10.3108 50.784 10.4442V8.6456ZM52.0364 14.6274C52.6668 14.5298 52.9824 14.2456 52.9824 13.7748V13.7482C52.9824 13.5174 52.9158 13.3286 52.7826 13.182C52.6492 13.0354 52.4006 12.8956 52.0366 12.7624V14.6274H52.0364Z"
            fill="#1B1B25" />
        <path
            d="M52.6071 24.8C58.9549 24.8 64.1009 19.6541 64.1009 13.3062C64.1009 6.95835 58.9549 1.8124 52.6071 1.8124C46.2592 1.8124 41.1133 6.95835 41.1133 13.3062C41.1133 19.6541 46.2592 24.8 52.6071 24.8Z"
            fill="#1B1B25" />
        <path
            d="M51.3942 23.5876C57.742 23.5876 62.888 18.4416 62.888 12.0938C62.888 5.74595 57.742 0.599998 51.3942 0.599998C45.0463 0.599998 39.9004 5.74595 39.9004 12.0938C39.9004 18.4416 45.0463 23.5876 51.3942 23.5876Z"
            fill="#FFB54A" />
        <path
            d="M51.3939 21.3734C46.2895 21.3734 42.1367 17.2206 42.1367 12.1162C42.1367 7.0118 46.2895 2.859 51.3939 2.859C56.4983 2.859 60.6511 7.0118 60.6511 12.1162C60.6511 17.2208 56.4983 21.3734 51.3939 21.3734ZM51.3939 3.4592C46.6203 3.4592 42.7367 7.3428 42.7367 12.1164C42.7367 16.89 46.6203 20.7736 51.3939 20.7736C56.1675 20.7736 60.0511 16.89 60.0511 12.1164C60.0511 7.3428 56.1675 3.4592 51.3939 3.4592Z"
            fill="#FCF0E3" />
        <path
            d="M39.9418 11.9748C42.814 11.9748 45.1424 9.64641 45.1424 6.7742C45.1424 3.90199 42.814 1.5736 39.9418 1.5736C37.0696 1.5736 34.7412 3.90199 34.7412 6.7742C34.7412 9.64641 37.0696 11.9748 39.9418 11.9748Z"
            fill="#1B1B25" />
        <path
            d="M39.393 11.4264C42.2652 11.4264 44.5936 9.09801 44.5936 6.2258C44.5936 3.35359 42.2652 1.0252 39.393 1.0252C36.5208 1.0252 34.1924 3.35359 34.1924 6.2258C34.1924 9.09801 36.5208 11.4264 39.393 11.4264Z"
            fill="#FFB54A" />
        <path
            d="M39.3927 10.4246C37.0831 10.4246 35.2041 8.5456 35.2041 6.236C35.2041 3.9264 37.0831 2.0474 39.3927 2.0474C41.7023 2.0474 43.5813 3.9264 43.5813 6.236C43.5813 8.5456 41.7023 10.4246 39.3927 10.4246ZM39.3927 2.3188C37.2329 2.3188 35.4755 4.076 35.4755 6.236C35.4755 8.3958 37.2327 10.1532 39.3927 10.1532C41.5527 10.1532 43.3099 8.396 43.3099 6.236C43.3097 4.076 41.5525 2.3188 39.3927 2.3188Z"
            fill="#FCF0E3" />
        <path
            d="M33.5191 15.5646C33.5191 14.3172 32.5079 13.3062 31.2607 13.3062C32.5081 13.3062 33.5191 12.295 33.5191 11.0478C33.5191 12.295 34.5303 13.3062 35.7775 13.3062C34.5303 13.3062 33.5191 14.3172 33.5191 15.5646Z"
            fill="white" />
        <path
            d="M60.0512 26.9192C60.0512 26.0032 59.3086 25.2606 58.3926 25.2606C59.3086 25.2606 60.0512 24.518 60.0512 23.602C60.0512 24.518 60.7938 25.2606 61.7098 25.2606C60.7938 25.2606 60.0512 26.0032 60.0512 26.9192Z"
            fill="white" />
        <path
            d="M49.2102 34.907C49.2102 33.2226 47.8448 31.857 46.1602 31.857C47.8446 31.857 49.2102 30.4916 49.2102 28.807C49.2102 30.4914 50.5758 31.857 52.2602 31.857C50.5756 31.8572 49.2102 33.2226 49.2102 34.907Z"
            fill="white" />
        <path
            d="M59.7389 11.3754C59.7389 9.797 58.4593 8.5174 56.8809 8.5174C58.4593 8.5174 59.7389 7.2378 59.7389 5.6592C59.7389 7.2376 61.0185 8.5174 62.5969 8.5174C61.0185 8.5172 59.7389 9.7968 59.7389 11.3754Z"
            fill="#FCF0E3" />
        <path
            d="M69.2934 13.3062C69.2934 12.4354 68.5876 11.7296 67.7168 11.7296C68.5874 11.7296 69.2934 11.0238 69.2934 10.153C69.2934 11.0238 69.9992 11.7296 70.87 11.7296C69.9994 11.7296 69.2934 12.4354 69.2934 13.3062Z"
            fill="white" />
        <path
            d="M20.9835 8.04581H3.42352C1.61752 8.04581 0.15332 9.50981 0.15332 11.316C0.15332 13.122 1.61732 14.586 3.42352 14.586H17.8951L19.8861 16.4002V14.586H20.9837C22.7897 14.586 24.2539 13.122 24.2539 11.316C24.2535 9.50981 22.7895 8.04581 20.9835 8.04581Z"
            fill="url(#paint0_linear_11_12729)" />
        <path
            d="M5.00467 10.9035C5.21077 10.7323 5.34199 10.4743 5.34199 10.1854C5.34199 9.67009 4.92421 9.25249 4.40905 9.25249C3.89371 9.25249 3.47611 9.67027 3.47611 10.1854C3.47611 10.4742 3.60733 10.7323 3.81343 10.9035C3.32801 11.0817 2.94412 11.4703 2.77404 11.9593C2.65661 12.2969 2.86981 12.6436 3.21551 12.7344C3.96313 12.9308 5.0121 12.9307 5.68372 12.734C5.98767 12.645 6.15777 12.3332 6.06683 12.0298C5.91034 11.5078 5.51322 11.0902 5.00467 10.9035Z"
            fill="#FFB54A" />
        <path
            d="M21.2033 9.80381H8.62051C8.56531 9.80381 8.52051 9.75901 8.52051 9.70381C8.52051 9.64861 8.56531 9.60381 8.62051 9.60381H21.2033C21.2585 9.60381 21.3033 9.64861 21.3033 9.70381C21.3033 9.75901 21.2585 9.80381 21.2033 9.80381Z"
            fill="white" />
        <path
            d="M19.2511 12.7562H8.62051C8.56531 12.7562 8.52051 12.7114 8.52051 12.6562C8.52051 12.601 8.56531 12.5562 8.62051 12.5562H19.2511C19.3063 12.5562 19.3511 12.601 19.3511 12.6562C19.3511 12.7116 19.3063 12.7562 19.2511 12.7562Z"
            fill="white" />
        <path
            d="M16.3561 11.3734H8.62051C8.56531 11.3734 8.52051 11.3286 8.52051 11.2734C8.52051 11.2182 8.56531 11.1734 8.62051 11.1734H16.3561C16.4113 11.1734 16.4561 11.2182 16.4561 11.2734C16.4561 11.3286 16.4113 11.3734 16.3561 11.3734Z"
            fill="white" />
        <path
            d="M21.2031 11.3734H17.3207C17.2655 11.3734 17.2207 11.3286 17.2207 11.2734C17.2207 11.2182 17.2655 11.1734 17.3207 11.1734H21.2031C21.2583 11.1734 21.3031 11.2182 21.3031 11.2734C21.3031 11.3286 21.2583 11.3734 21.2031 11.3734Z"
            fill="white" />
        <path
            d="M5.3386 12.0538C5.2833 12.0538 5.22815 12.0328 5.18596 11.9906L4.64337 11.448C4.55898 11.3636 4.55898 11.2268 4.64337 11.1425C4.72775 11.0582 4.86441 11.0582 4.94879 11.1425L5.3386 11.5325L6.3862 10.485C6.47058 10.4007 6.60724 10.4007 6.69162 10.485C6.77601 10.5693 6.77601 10.7062 6.69162 10.7905L5.49138 11.9907C5.44919 12.0326 5.39389 12.0538 5.3386 12.0538Z"
            fill="white" />
        <path
            d="M66.7095 38.3294L66.7161 38.3064L69.6117 28.2332L69.5993 28.2238C69.7295 27.969 70.0671 27.4222 70.7577 26.9404C71.9515 26.1078 72.0939 24.7284 72.0939 24.7284C72.7313 24.1114 73.4499 23.585 74.1007 22.9824C74.1685 22.9196 74.2393 22.8506 74.2593 22.7602C74.2815 22.6594 74.2345 22.5564 74.1769 22.4708C73.8409 21.973 73.2237 21.901 72.7101 22.131C72.4093 22.2656 72.1403 22.4572 71.8883 22.6678C71.7687 22.7676 71.3607 23.0422 71.2369 23.225L73.5403 18.307C73.7449 17.8704 73.6109 17.372 73.2429 17.1996C73.0589 17.1134 72.8497 17.1244 72.6611 17.2116C72.5415 17.2668 72.4323 17.3556 72.3407 17.4666C72.3477 17.4306 72.3519 17.4092 72.3519 17.4092C69.6543 15.1408 66.3257 22.8618 66.3257 22.8618L65.3809 25.091L57.3687 39.9464C56.2357 42.1018 57.1091 44.7672 59.2979 45.8342C59.3295 45.8496 59.3613 45.863 59.3929 45.8776C60.0353 46.2484 60.7801 46.4616 61.5751 46.4616H77.3431L80.7409 38.3862L66.7095 38.3294Z"
            fill="#FEC29E" />
        <path opacity="0.17"
            d="M64.0091 46.4574C63.4967 46.4418 63.8069 46.4512 64.0091 46.4574V46.4574Z"
            fill="#FF887C" />
        <path opacity="0.17"
            d="M64.0117 46.4574C64.084 46.4596 64.1418 46.4614 64.1418 46.4614C64.0925 46.4598 64.051 46.4586 64.0117 46.4574Z"
            fill="#FF887C" />
        <path opacity="0.17"
            d="M66.7158 38.3064L66.257 39.9024C66.1378 40.3454 66 40.8212 65.8534 41.3064L65.299 43.2352C65.2224 43.4826 65.1254 43.7172 65.0116 43.9388C64.5344 45.3666 64.1406 46.4614 64.1406 46.4614L69.8112 38.3418C68.4008 38.3418 68.0772 38.308 66.7158 38.3064Z"
            fill="#FF887C" />
        <path
            d="M68.9995 23.7274C68.9787 23.7274 68.9581 23.721 68.9401 23.7078C68.8957 23.675 68.8861 23.6124 68.9191 23.568C69.9255 22.203 71.2785 22.9406 71.2917 22.948C71.3397 22.975 71.3567 23.0358 71.3297 23.084C71.3029 23.132 71.2419 23.1492 71.1937 23.1226C71.1445 23.0952 69.9799 22.4664 69.0799 23.6868C69.0605 23.7134 69.0301 23.7274 68.9995 23.7274Z"
            fill="#FB8E77" />
        <path
            d="M72.3973 17.4472C71.9817 17.971 71.5947 18.522 71.2521 19.0948C71.0813 19.3816 70.9267 19.6774 70.7971 19.9812C70.6697 20.2826 70.5665 20.6066 70.5829 20.9122L70.5833 20.9184C70.5863 20.9736 70.5439 21.0206 70.4889 21.0236C70.4337 21.0266 70.3867 20.9842 70.3837 20.9292C70.3837 20.9286 70.3837 20.9274 70.3835 20.9268C70.3727 20.555 70.4951 20.2226 70.6319 19.9106C70.7725 19.5984 70.9365 19.3 71.1157 19.0124C71.4755 18.4376 71.8745 17.893 72.3057 17.3714C72.3267 17.346 72.3643 17.3424 72.3897 17.3634C72.4147 17.3842 72.4185 17.421 72.3985 17.4464L72.3973 17.4472Z"
            fill="#FB8E77" />
        <path
            d="M71.7018 17.1618C71.438 17.3434 71.201 17.584 70.989 17.8338C70.7768 18.0864 70.5906 18.3602 70.4228 18.6444C70.2584 18.931 70.1136 19.2286 69.9904 19.5352C69.925 19.687 69.8762 19.8454 69.8184 20L69.675 20.4748L69.6732 20.4806C69.6572 20.5334 69.6014 20.5634 69.5486 20.5474C69.4958 20.5314 69.4658 20.4756 69.4818 20.4228C69.482 20.4224 69.4822 20.4214 69.4824 20.421L69.6382 19.9382C69.7004 19.7808 69.7534 19.62 69.8232 19.4656C69.9554 19.154 70.1094 18.8518 70.2836 18.5614C70.4612 18.273 70.6574 17.9958 70.8806 17.7404C71.106 17.486 71.3458 17.248 71.6374 17.0554C71.666 17.0366 71.7044 17.0444 71.7234 17.073C71.742 17.1012 71.7346 17.1392 71.7068 17.1582L71.7018 17.1618Z"
            fill="#FB8E77" />
        <path
            d="M70.6118 17.2386C70.229 17.6394 69.8726 18.0724 69.5646 18.5326C69.4126 18.7638 69.2666 18.9998 69.1518 19.2488C69.0364 19.4966 68.941 19.7542 68.8994 20.017L68.899 20.0194C68.8904 20.074 68.8392 20.1112 68.7846 20.1026C68.73 20.094 68.6928 20.0428 68.7014 19.9882C68.7014 19.9876 68.7016 19.9864 68.7018 19.9858C68.7552 19.6952 68.864 19.426 68.9908 19.1702C69.1172 18.9134 69.2728 18.6754 69.434 18.4432C69.761 17.9808 70.1296 17.5548 70.53 17.1558C70.5528 17.133 70.5896 17.1332 70.6124 17.156C70.6348 17.1784 70.635 17.2146 70.6134 17.2374L70.6118 17.2386Z"
            fill="#FB8E77" />
        <path
            d="M103.101 52.9968L99.2335 42.4534C98.7731 40.1398 96.5721 38.386 93.9243 38.386L83.1199 38.3002L70.9473 38.3466V46.4616H74.7249L72.7751 67.6268L99.5793 67.7784L99.4291 53.4464L103.101 52.9968Z"
            fill="url(#paint1_linear_11_12729)" />
        <path opacity="0.05"
            d="M83.0996 38.3904L83.1208 38.3L70.9482 38.3464V46.4614H74.7258L74.7456 46.2472C74.7456 41.9644 78.4688 38.4842 83.0996 38.3904Z"
            fill="#1B1B25" />
        <path opacity="0.18"
            d="M67.7158 26.6476C67.7158 26.6476 68.399 32.4506 68.4392 32.3108C68.4794 32.171 69.6114 28.2332 69.6114 28.2332L67.7158 26.6476Z"
            fill="#FF887C" />
        <path
            d="M83.672 56.026L82.649 50.8704L81.8598 46.8926C81.767 46.4246 81.3082 46.1178 80.8402 46.2106L76.889 46.9946C76.421 47.0874 76.1142 47.5462 76.207 48.0142L77.0014 52.0178L77.6314 55.1932L78.0192 57.1476C78.112 57.6156 78.5708 57.9224 79.0388 57.8296L81.3724 57.3666L82.9898 57.0456C83.4578 56.9526 83.7648 56.4938 83.672 56.026Z"
            fill="#1B1B25" />
        <path
            d="M104.704 60.7774L102.922 53.019L94.8207 54.0102L95.2655 55.9836L95.2245 55.9734L86.4183 53.7934L86.4107 53.8042C86.1677 53.6824 85.7111 53.3922 85.3097 52.792C84.5713 51.6886 83.3309 51.6582 83.3309 51.6582C83.0919 51.4078 82.8693 51.1404 82.6491 50.8704L82.8555 51.9102L82.8039 51.9376C82.2441 52.2342 81.6125 52.3658 80.9807 52.3164C79.8119 52.2252 77.9025 52.0762 77.1087 52.0142C76.8663 51.9952 76.6337 52.124 76.5293 52.3436C75.3959 54.726 80.2623 56.9056 81.3727 57.3664H81.3725C81.3871 57.3724 81.3983 57.377 81.4117 57.3826C81.4277 57.3892 81.4431 57.3956 81.4571 57.4012C81.4733 57.4078 81.4861 57.413 81.4995 57.4184C81.5121 57.4234 81.5247 57.4286 81.5349 57.4326C81.5491 57.4382 81.5587 57.442 81.5681 57.4456C81.5723 57.4474 81.5775 57.4494 81.5809 57.4506C81.5915 57.4548 81.5975 57.457 81.5975 57.457L83.5021 58.171L98.5789 65.5922C98.7189 65.6592 98.8605 65.7178 99.0035 65.7686C99.7345 66.1034 100.576 66.2122 101.42 66.0184C103.774 65.4778 105.244 63.1314 104.704 60.7774Z"
            fill="#FEC29E" />
        <path opacity="0.17"
            d="M104.129 58.2762L94.8213 54.01C95.1321 55.3636 94.9511 54.7662 95.2251 55.9732L95.8585 56.13C98.5389 56.311 104.129 58.2762 104.129 58.2762Z"
            fill="#FF887C" />
        <path opacity="0.35"
            d="M94.0684 54.1102C94.0218 54.1102 93.9802 54.0774 93.9708 54.0306L92.8078 48.397C92.7964 48.3428 92.8314 48.29 92.8854 48.2788C92.9384 48.2664 92.9924 48.302 93.0036 48.3564L94.1482 53.8994L98.0652 53.401C98.1194 53.3932 98.17 53.4326 98.1772 53.4876C98.1842 53.5424 98.1454 53.5924 98.0906 53.5996L94.0816 54.1098C94.077 54.11 94.0726 54.1102 94.0684 54.1102Z"
            fill="#1B1B25" />
        <path
            d="M93.1509 17.4982C92.9045 15.7998 91.3547 14.5912 89.6371 14.7854C89.1813 14.837 88.7601 14.9838 88.3879 15.2012C87.8353 14.2968 86.7949 13.7428 85.6723 13.8698C85.0307 13.9424 84.4663 14.2274 84.0355 14.644C83.4157 14.3334 82.7031 14.1908 81.9629 14.2746C79.9291 14.5046 78.4667 16.3398 78.6967 18.3736C78.8043 19.3248 79.2639 20.1498 79.9299 20.7362L79.1767 24.7598C78.9605 25.9148 79.7215 27.0264 80.8765 27.2428L89.8013 28.9136C90.9563 29.1298 92.0679 28.3688 92.2843 27.2136L93.7463 19.403C93.8813 18.682 93.6355 17.9782 93.1509 17.4982Z"
            fill="#1B1B25" />
        <path
            d="M80.143 19.6984C80.11 19.6984 80.0776 19.6818 80.0584 19.6518C78.4642 17.129 80.66 15.5112 80.6824 15.4952C80.7274 15.4628 80.7894 15.4734 80.8218 15.5182C80.8538 15.563 80.8436 15.6254 80.799 15.6576C80.714 15.7188 78.7354 17.1836 80.2276 19.5448C80.2572 19.5914 80.2432 19.6534 80.1966 19.6828C80.1798 19.6934 80.1614 19.6984 80.143 19.6984Z"
            fill="#FCF0E3" />
        <path
            d="M91.7075 25.386L91.5123 25.3494L89.5421 21.1148C89.0573 21.0448 88.6031 20.866 88.2091 20.5994C87.8311 21.0086 87.3113 21.2906 86.7143 21.358C85.9959 21.4392 85.3173 21.1936 84.8223 20.7416C84.2731 21.2242 83.5775 21.5512 82.7959 21.6396C81.9021 21.7406 81.0469 21.5144 80.3491 21.057L78.9767 28.3878C78.7871 29.4006 78.9951 30.3934 79.4851 31.2132C79.9727 32.4194 81.0217 33.3668 82.3711 33.6776V38.5186C82.3711 40.2002 83.7471 41.5762 85.4287 41.5762H86.3931C88.0747 41.5762 89.4507 40.2004 89.4507 38.5186V33.022C89.9467 32.477 90.3055 31.7954 90.4509 31.0178L90.7015 29.6792L90.8967 29.7158C92.0551 29.9326 93.1803 29.1622 93.3971 28.0038L93.4191 27.8864C93.6363 26.728 92.8659 25.6028 91.7075 25.386Z"
            fill="#FEC29E" />
        <path opacity="0.32"
            d="M90.2479 29.5094L90.0692 30.4644C89.6568 32.6674 87.5365 34.119 85.3335 33.7066L82.2189 33.1236C81.0287 32.9008 80.0614 32.1772 79.4854 31.2136C79.9932 32.4698 81.1074 33.4502 82.538 33.718L82.6621 33.7412C83.1571 34.7666 84.2054 35.4802 85.415 35.4802H86.3917C87.8345 35.4802 89.0495 34.4662 89.3663 33.1162C89.9073 32.5572 90.2971 31.8398 90.4511 31.0178L90.7017 29.6792L90.2479 29.5094Z"
            fill="#FF887C" />
        <path
            d="M91.8781 28.2574C91.8567 28.2574 91.8349 28.2506 91.8167 28.2364L91.0385 27.6324C91.0155 27.6146 91.0015 27.5874 91.0001 27.5582C90.9985 27.5292 91.0101 27.5008 91.0313 27.4806L91.991 26.5748C92.0308 26.5372 92.0948 26.5388 92.1322 26.579C92.17 26.6192 92.1684 26.6824 92.128 26.7204L91.2533 27.546L91.9394 28.0784C91.983 28.1122 91.9909 28.175 91.9569 28.2188C91.9375 28.244 91.9079 28.2574 91.8781 28.2574Z"
            fill="#FB8E77" />
        <path
            d="M86.9288 24.536C86.7786 24.5316 86.624 24.4406 86.4694 24.3612C86.3154 24.278 86.1588 24.1982 86.0204 24.1338C85.8816 24.069 85.7196 24.0002 85.557 23.9358C85.3968 23.8684 85.2268 23.808 85.1288 23.6966C85.0332 23.5908 85.052 23.4238 85.2756 23.3122C85.4886 23.2012 85.9224 23.175 86.3822 23.388C86.8404 23.603 87.0934 23.9496 87.1402 24.1816C87.1928 24.4222 87.0728 24.5418 86.9288 24.536Z"
            fill="#1B1B25" />
        <path
            d="M80.5656 23.9876C80.6952 24.059 80.874 24.0688 81.0468 24.087C81.221 24.102 81.3956 24.121 81.547 24.1424C81.6986 24.1636 81.872 24.1934 82.0438 24.2266C82.215 24.2564 82.3908 24.2964 82.5326 24.263C82.6694 24.2324 82.7414 24.1 82.6106 23.9064C82.4886 23.7188 82.135 23.4838 81.6334 23.4124C81.132 23.3434 80.7352 23.4732 80.5734 23.6212C80.402 23.7724 80.4404 23.9204 80.5656 23.9876Z"
            fill="#1B1B25" />
        <path
            d="M85.4588 26.2456L85.4724 26.2482C85.6062 26.2732 85.7362 26.1842 85.7612 26.0504L85.8206 25.7336C85.8456 25.5998 85.7566 25.4698 85.6228 25.4448L85.6092 25.4422C85.4754 25.4172 85.3454 25.5062 85.3204 25.6398L85.261 25.9566C85.2362 26.0908 85.3252 26.2206 85.4588 26.2456Z"
            fill="#1B1B25" />
        <path
            d="M81.1473 25.5452L81.1609 25.5478C81.2947 25.5728 81.4247 25.4838 81.4497 25.3502L81.5091 25.0334C81.5341 24.8996 81.4451 24.7696 81.3113 24.7446L81.2977 24.742C81.1639 24.717 81.0339 24.806 81.0089 24.9396L80.9495 25.2564C80.9245 25.3902 81.0135 25.5202 81.1473 25.5452Z"
            fill="#1B1B25" />
        <path opacity="0.17"
            d="M85.6364 27.3918L86.5214 27.4914C86.689 27.5102 86.8414 27.3886 86.8602 27.2212L86.8622 27.2042C86.881 27.0366 86.7594 26.8842 86.592 26.8654L85.707 26.7658C85.5394 26.747 85.387 26.8686 85.3682 27.036L85.3662 27.053C85.3472 27.2206 85.4688 27.373 85.6364 27.3918Z"
            fill="#FF887C" />
        <path opacity="0.17"
            d="M79.7995 26.4724L80.6845 26.572C80.8521 26.5908 81.0045 26.4692 81.0233 26.3018L81.0253 26.2848C81.0441 26.1172 80.9225 25.9648 80.7551 25.946L79.8701 25.8464C79.7027 25.8276 79.5501 25.9492 79.5313 26.1166L79.5293 26.1336C79.5105 26.301 79.6321 26.4536 79.7995 26.4724Z"
            fill="#FF887C" />
        <path
            d="M82.3782 31.0002C82.3476 31.0002 82.317 30.986 82.2976 30.9592C82.265 30.9146 82.2748 30.852 82.3192 30.8194C82.7384 30.5132 83.2078 30.685 83.3976 30.8184C83.4428 30.8502 83.4536 30.9122 83.422 30.9574C83.3904 31.0026 83.328 31.0134 83.283 30.9822C83.2652 30.9696 82.8436 30.684 82.4372 30.981C82.4194 30.9938 82.3988 31.0002 82.3782 31.0002Z"
            fill="#FB8E77" />
        <path
            d="M83.0547 28.1572L85.3935 27.823L85.1373 28.6354C84.9733 29.1556 84.4909 29.5092 83.9455 29.5092C83.5213 29.5092 83.1653 29.1894 83.1199 28.7676L83.0547 28.1572Z"
            fill="white" />
        <path
            d="M83.6598 27.3282C83.6516 27.3282 83.643 27.3272 83.6346 27.325L82.9094 27.1362C82.6018 27.0562 82.3538 26.8426 82.2286 26.5506C82.1036 26.2584 82.1202 25.9314 82.2744 25.6538L83.3788 23.666C83.406 23.6172 83.4668 23.6004 83.515 23.6272C83.5632 23.654 83.5806 23.715 83.5538 23.7632L82.4494 25.751C82.3252 25.9744 82.3118 26.2372 82.4124 26.472C82.513 26.707 82.7124 26.8786 82.9596 26.943L83.6848 27.1318C83.7384 27.1456 83.7704 27.2004 83.7562 27.2538C83.7448 27.2984 83.7042 27.3282 83.6598 27.3282Z"
            fill="#FB8E77" />
        <path
            d="M49.697 41.7076L41.6848 26.8522L40.74 24.6232C40.74 24.6232 37.4114 16.9022 34.7138 19.1706C34.7138 19.1706 34.718 19.192 34.725 19.2278C34.6334 19.1168 34.5242 19.028 34.4046 18.9728C34.2158 18.8856 34.0068 18.8748 33.8228 18.961C33.4548 19.1334 33.321 19.6318 33.5254 20.0684L35.8288 24.9864C35.7048 24.8036 35.2968 24.5292 35.1774 24.4292C34.9254 24.2186 34.6564 24.027 34.3556 23.8924C33.842 23.6624 33.2248 23.7344 32.8888 24.2322C32.831 24.3178 32.7842 24.4208 32.8064 24.5216C32.8262 24.612 32.897 24.681 32.965 24.7438C33.6158 25.3466 34.3342 25.8728 34.9716 26.4898C34.9716 26.4898 35.1142 27.8692 36.3078 28.7018C36.9984 29.1836 37.336 29.7304 37.4662 29.9852L37.4538 29.9946L40.356 40.0908L36.1178 40.1474V48.2228H45.4908C46.2868 48.2228 47.0324 48.009 47.6754 47.6374C47.7062 47.6232 47.7374 47.6104 47.768 47.5954C49.9566 46.5284 50.83 43.863 49.697 41.7076Z"
            fill="#FEC29E" />
        <path opacity="0.17"
            d="M42.9244 48.2226C42.9244 48.2226 40.7464 42.3628 40.3722 40.0674C38.929 40.0674 38.7096 40.1318 37.2666 40.1318L42.9244 48.2226Z"
            fill="#FF887C" />
        <path
            d="M38.0668 25.4886C38.0362 25.4886 38.0058 25.4746 37.9862 25.448C37.0864 24.2276 35.9214 24.8564 35.8724 24.884C35.8242 24.9106 35.7634 24.8936 35.7364 24.8454C35.7094 24.7974 35.7266 24.7366 35.7746 24.7094C35.7882 24.7018 37.141 23.9648 38.1472 25.3292C38.18 25.3736 38.1706 25.4364 38.1262 25.469C38.1082 25.4824 38.0874 25.4886 38.0668 25.4886Z"
            fill="#FB8E77" />
        <path
            d="M34.7558 19.1278C34.9986 19.3702 35.2192 19.6276 35.4294 19.8956C35.6382 20.1644 35.8338 20.444 36.009 20.7376C36.1814 21.0326 36.335 21.34 36.4572 21.6622C36.5728 21.987 36.6548 22.326 36.6822 22.6754C36.6866 22.7304 36.6454 22.7786 36.5904 22.7828C36.5354 22.7872 36.4872 22.746 36.4828 22.691C36.4828 22.6906 36.4828 22.69 36.4828 22.6896L36.4826 22.6854C36.4632 22.3598 36.3928 22.0366 36.288 21.7228C36.1768 21.4108 36.0338 21.1092 35.8712 20.8178C35.7058 20.5276 35.5192 20.249 35.319 19.9804C35.118 19.713 34.903 19.4524 34.6724 19.2126L34.671 19.2112C34.6482 19.1874 34.6488 19.1498 34.6726 19.127C34.6958 19.1046 34.7328 19.105 34.7558 19.1278Z"
            fill="#FB8E77" />
        <path
            d="M35.432 18.7432C35.7582 18.9118 35.9972 19.1628 36.2208 19.4268C36.4404 19.6934 36.6316 19.9818 36.7958 20.2836C36.9654 20.583 37.1056 20.8966 37.239 21.2126L37.4208 21.6934L37.5824 22.181C37.5998 22.2334 37.5714 22.29 37.519 22.3074C37.4666 22.3248 37.41 22.2964 37.3926 22.244C37.3924 22.2436 37.3924 22.2432 37.3922 22.2428L37.3908 22.2384L37.2406 21.7554L37.0706 21.2794C36.9456 20.967 36.8138 20.6566 36.6534 20.3614C36.4984 20.0634 36.3174 19.7792 36.1098 19.5174C35.9036 19.2604 35.6612 19.0078 35.3836 18.8578L35.3742 18.8528C35.3442 18.8366 35.333 18.799 35.3492 18.769C35.3652 18.739 35.402 18.7278 35.432 18.7432Z"
            fill="#FB8E77" />
        <path
            d="M36.5306 18.9124C36.7552 19.0936 36.9536 19.2942 37.1414 19.5078C37.3286 19.721 37.5012 19.9476 37.6552 20.1866C37.8104 20.4246 37.9506 20.6736 38.0668 20.934C38.1896 21.1918 38.2796 21.4636 38.3618 21.7374C38.3776 21.7902 38.3478 21.846 38.2948 21.862C38.242 21.8778 38.1862 21.848 38.1702 21.795C38.17 21.7944 38.1698 21.7938 38.1696 21.7932L38.1682 21.7882C38.0954 21.5232 38.0156 21.2588 37.9028 21.0066C37.7966 20.752 37.6666 20.507 37.5214 20.2716C37.3774 20.0352 37.2146 19.81 37.0368 19.5974C36.8598 19.3852 36.6666 19.181 36.4588 19.0046L36.4562 19.0024C36.4316 18.9816 36.4286 18.9448 36.4494 18.9202C36.4702 18.896 36.5062 18.8928 36.5306 18.9124Z"
            fill="#FB8E77" />
        <path opacity="0.18"
            d="M37.0928 29.4234L40.189 29.0412L38.2744 32.8494C38.2744 32.8494 37.7046 30.0176 37.0928 29.4234Z"
            fill="#FF887C" />
        <path
            d="M24.6503 40.1472L24.6509 40.1508C24.6031 40.1496 24.5557 40.1472 24.5077 40.1472H14.7243C12.6003 40.1472 10.7885 41.4808 10.0785 43.3562L10.0775 43.356L10.0625 43.3966C10.0601 43.403 10.0577 43.4096 10.0553 43.416L5.89453 54.7582L9.75733 55.2308V67.8266H30.7797L32.3517 48.2226H36.0087V40.1076L24.6503 40.1472Z"
            fill="white" />
        <path opacity="0.05"
            d="M36.1168 40.1078L24.9482 40.1544L24.9484 40.1558C29.1356 40.3302 32.477 43.7784 32.477 48.0086L32.4598 48.2228H36.1168V40.1078Z"
            fill="#1B1B25" />
        <path
            d="M32.2166 48.7558L28.2653 47.9718C27.7973 47.879 27.3386 48.1858 27.2458 48.6538L26.4566 52.6316L25.4335 57.7872C25.3407 58.2552 25.6476 58.714 26.1156 58.8068L27.7329 59.1278L30.0666 59.5908C30.5346 59.6836 30.9933 59.3768 31.0861 58.9088L31.4739 56.9544L32.1039 53.779L32.8984 49.7754C32.9914 49.3074 32.6846 48.8486 32.2166 48.7558Z"
            fill="#1B1B25" />
        <path
            d="M32.6306 54.0644C32.5814 53.961 32.503 53.8786 32.4094 53.8214C32.3926 53.7966 32.379 53.7718 32.3608 53.747C32.3608 53.747 32.3252 53.7514 32.2662 53.7588C32.1976 53.7388 32.1252 53.7294 32.0514 53.735C31.2578 53.797 29.3482 53.946 28.1794 54.0372C27.5478 54.0864 26.9162 53.955 26.3564 53.6584L26.263 53.6088L26.4568 52.6316C26.2478 52.8878 26.0356 53.1408 25.8104 53.38C25.6962 53.3864 25.0442 53.4442 24.4344 53.8988C24.2082 54.0582 23.9856 54.2698 23.796 54.553C23.558 54.9088 23.301 55.1544 23.08 55.3218C22.9508 55.4148 22.836 55.4812 22.7492 55.5248L22.7416 55.514L13.9348 57.6942L13.8945 57.7042L14.3414 55.7214L6.23845 54.7398L4.45665 62.4982C3.91605 64.852 5.38605 67.1984 7.73985 67.739C8.58425 67.933 9.42565 67.824 10.1566 67.4892C10.2996 67.4384 10.4412 67.3798 10.5812 67.3128L25.4878 59.9754L27.5084 59.218C27.5084 59.218 27.5903 59.1866 27.7332 59.1274L27.7036 59.1216C28.6254 58.7464 33.7948 56.512 32.6306 54.0644Z"
            fill="#FEC29E" />
        <path opacity="0.35"
            d="M15.0367 55.862C15.0325 55.862 15.0285 55.8618 15.0243 55.8612L13.2567 55.643C13.2019 55.6364 13.1629 55.5864 13.1697 55.5314C13.1765 55.4768 13.2273 55.4372 13.2811 55.4444L14.9527 55.6506L15.8833 49.7118C15.8919 49.6572 15.9429 49.6206 15.9977 49.6284C16.0523 49.637 16.0895 49.6882 16.0811 49.7426L15.1353 55.7772C15.1277 55.8266 15.0851 55.862 15.0367 55.862Z"
            fill="#1B1B25" />
        <path
            d="M29.6936 37.5922L28.3364 28.3546C28.1878 27.3426 27.8936 26.3882 27.4812 25.5072L28.2182 25.3888C28.2182 25.3888 27.7008 17.8908 19.2914 19.681C18.463 19.5954 17.611 19.6098 16.7492 19.7364C12.6638 20.3366 9.83859 24.135 10.4388 28.2204L11.23 33.6054C11.8302 37.6908 15.6286 40.516 19.714 39.9158L28.9778 38.5546C29.4414 38.4864 29.7618 38.0556 29.6936 37.5922Z"
            fill="#1B1B25" />
        <path
            d="M24.1146 25.0946C24.0654 25.0946 24.0226 25.0582 24.0156 25.0082C24.0082 24.9534 24.0464 24.903 24.1012 24.8954L26.8054 24.526C26.827 24.523 26.8468 24.5112 26.8596 24.4934C26.8668 24.4836 26.878 24.463 26.8732 24.4362C26.436 21.9986 24.1904 20.874 24.1678 20.863C24.1182 20.8388 24.0976 20.7788 24.1218 20.7292C24.1462 20.6796 24.2064 20.6588 24.2556 20.6832C24.2792 20.6946 26.6144 21.8612 27.07 24.4006C27.0832 24.4746 27.066 24.5492 27.0212 24.6106C26.9764 24.6724 26.9076 24.7136 26.8322 24.7238L24.128 25.0932C24.1236 25.0944 24.119 25.0946 24.1146 25.0946Z"
            fill="#FCF0E3" />
        <path
            d="M26.7198 25.6294L19.3174 26.8188L17.5208 24.1616C17.8738 27.1264 15.6876 29.0414 15.6876 29.0414C15.6876 29.0414 15.6652 29.0108 15.6264 28.9546L15.565 28.966C14.4066 29.1828 13.6362 30.308 13.853 31.4664C14.0698 32.6248 15.195 33.3952 16.3534 33.1784L16.4948 33.152C16.7478 34.2628 17.3185 35.225 18.0967 35.9558V40.7C18.0967 42.3816 19.4728 43.7576 21.1544 43.7576C22.836 43.7576 24.212 42.3816 24.212 40.7V36.9534C25.43 36.3928 26.3836 35.4138 26.928 34.23C26.9292 34.2282 26.9304 34.2264 26.9314 34.2246C27.593 33.1162 27.8696 31.772 27.6136 30.4034L26.7198 25.6294Z"
            fill="#FEC29E" />
        <path opacity="0.32"
            d="M23.2282 36.8092C20.4856 37.3226 17.8378 35.7002 16.9986 33.1154C16.971 33.0306 16.488 33.1416 16.5002 33.1936C16.7594 34.2944 17.3352 35.2458 18.1116 35.9696C18.2552 37.5204 19.5682 38.7454 21.1548 38.7454C22.3282 38.7454 23.3512 38.0744 23.8632 37.098C25.25 36.572 26.3368 35.521 26.9316 34.2246C26.1526 35.5296 24.8396 36.5074 23.2282 36.8092Z"
            fill="#FF887C" />
        <path
            d="M15.341 31.7728C15.3112 31.7728 15.2816 31.7596 15.262 31.7342C15.228 31.6906 15.236 31.6278 15.2796 31.5938L15.9446 31.0778L15.0958 30.2768C15.0556 30.239 15.0538 30.1756 15.0916 30.1354C15.1296 30.0952 15.1928 30.0936 15.233 30.1312L16.1668 31.0124C16.188 31.0326 16.1994 31.0608 16.198 31.09C16.1966 31.1192 16.1824 31.1464 16.1594 31.1642L15.4022 31.7518C15.384 31.766 15.3624 31.7728 15.341 31.7728Z"
            fill="#FB8E77" />
        <path
            d="M20.6671 28.1268C20.7563 28.1242 20.8481 28.0702 20.9399 28.023C21.0313 27.9736 21.1243 27.9262 21.2065 27.888C21.2889 27.8496 21.3851 27.8088 21.4817 27.7704C21.5767 27.7304 21.6777 27.6946 21.7359 27.6284C21.7927 27.5656 21.7815 27.4666 21.6487 27.4002C21.5223 27.3344 21.2647 27.3188 20.9917 27.4452C20.7197 27.5728 20.5695 27.7786 20.5417 27.9162C20.5105 28.0592 20.5817 28.1302 20.6671 28.1268Z"
            fill="#1B1B25" />
        <path
            d="M25.9724 27.204C25.886 27.2262 25.7828 27.1996 25.6816 27.1798C25.5802 27.1576 25.4776 27.1378 25.388 27.1238C25.2982 27.1096 25.1946 27.097 25.0912 27.087C24.9888 27.0748 24.8818 27.0684 24.8076 27.0208C24.7358 26.976 24.719 26.8778 24.8284 26.7774C24.9316 26.6792 25.1748 26.593 25.4722 26.639C25.7688 26.6864 25.9702 26.8426 26.035 26.9672C26.1044 27.0958 26.0556 27.1836 25.9724 27.204Z"
            fill="#1B1B25" />
        <path
            d="M22.9751 32.2646C22.1545 32.2646 21.6073 31.6208 21.6003 31.6124C21.5649 31.57 21.5709 31.507 21.6131 31.4716C21.6555 31.4364 21.7185 31.442 21.7539 31.4842C21.7857 31.5222 22.5447 32.4086 23.6049 31.9192C23.6551 31.896 23.7145 31.918 23.7377 31.9682C23.7609 32.0184 23.7389 32.0778 23.6887 32.101C23.4349 32.2184 23.1951 32.2646 22.9751 32.2646Z"
            fill="#FB8E77" />
        <path
            d="M23.5716 30.8688C23.5248 30.8688 23.483 30.8358 23.4736 30.7882C23.463 30.734 23.4982 30.6814 23.5524 30.6708L24.2558 30.5324C24.693 30.4464 24.9784 30.0208 24.8924 29.5838C24.8614 29.4258 24.7076 29.3232 24.5498 29.3538C24.1798 29.426 23.8206 29.185 23.7478 28.8156L23.578 27.953C23.5674 27.8988 23.6026 27.8462 23.6568 27.8356C23.711 27.825 23.7636 27.8604 23.7742 27.9144L23.944 28.7772C23.9954 29.0386 24.2502 29.2092 24.511 29.1578C24.6404 29.1326 24.771 29.1588 24.88 29.232C24.989 29.3052 25.063 29.4164 25.0884 29.5454C25.1958 30.0906 24.8394 30.6216 24.2942 30.729L23.5908 30.8674C23.5846 30.8682 23.578 30.8688 23.5716 30.8688Z"
            fill="#FB8E77" />
        <path
            d="M21.5797 29.8142C21.4459 29.8392 21.3159 29.7502 21.2909 29.6164L21.2357 29.3214C21.2107 29.1876 21.2997 29.0576 21.4335 29.0326C21.5673 29.0076 21.6973 29.0966 21.7223 29.2302L21.7775 29.5252C21.8025 29.6592 21.7135 29.7892 21.5797 29.8142Z"
            fill="#1B1B25" />
        <path
            d="M25.774 29.1328C25.6402 29.1578 25.5102 29.0688 25.4852 28.9352L25.43 28.6402C25.405 28.5064 25.494 28.3764 25.6276 28.3514C25.7614 28.3264 25.8914 28.4154 25.9164 28.5492L25.9716 28.8442C25.9968 28.9778 25.9078 29.1076 25.774 29.1328Z"
            fill="#1B1B25" />
        <path opacity="0.17"
            d="M21.405 30.929L20.5604 31.024C20.393 31.0428 20.2404 30.9212 20.2216 30.7538C20.2028 30.5862 20.3244 30.4338 20.492 30.415L21.3364 30.32C21.5038 30.3012 21.6564 30.4228 21.6752 30.5902C21.6942 30.7576 21.5724 30.9102 21.405 30.929Z"
            fill="#FF887C" />
        <path opacity="0.17"
            d="M27.0838 30.0344L26.2392 30.1294C26.0718 30.1482 25.9192 30.0266 25.9004 29.8592C25.8816 29.6916 26.0032 29.5392 26.1708 29.5204L27.0154 29.4254C27.1828 29.4066 27.3354 29.5282 27.3542 29.6956C27.3728 29.8632 27.2512 30.0156 27.0838 30.0344Z"
            fill="#FF887C" />
        <path
            d="M24.5824 34.4412C24.562 34.4412 24.5412 34.435 24.5236 34.422C24.13 34.1342 23.7214 34.4114 23.7042 34.4232C23.6588 34.4548 23.5968 34.4436 23.565 34.3984C23.5334 34.3532 23.5442 34.291 23.5894 34.2594C23.7746 34.1292 24.2328 33.9616 24.6416 34.2604C24.6862 34.293 24.6958 34.3556 24.6634 34.4002C24.6436 34.427 24.6132 34.4412 24.5824 34.4412Z"
            fill="#FB8E77" />
        <path
            d="M52.3088 17.6279L48.9664 14.155C48.9211 14.1098 48.8849 14.0533 48.8577 13.9855C48.8305 13.9176 48.8169 13.8475 48.8169 13.7752V13.4496C48.8169 13.2959 48.869 13.167 48.9732 13.063C49.0773 12.959 49.2064 12.907 49.3604 12.907H50.7191C51.1992 12.907 51.6136 12.751 51.9623 12.439C52.311 12.1269 52.5216 11.7403 52.5941 11.2791H48.8169C48.6629 11.2791 48.5339 11.2271 48.4297 11.1231C48.3255 11.0191 48.2734 10.8902 48.2734 10.7364C48.2734 10.5827 48.3255 10.4538 48.4297 10.3498C48.5339 10.2458 48.6629 10.1938 48.8169 10.1938H52.431C52.2771 9.87726 52.0483 9.61725 51.7449 9.41376C51.4415 9.21027 51.0995 9.10853 50.7191 9.10853H48.8169C48.6629 9.10853 48.5339 9.05652 48.4297 8.95252C48.3255 8.84851 48.2734 8.71964 48.2734 8.56589C48.2734 8.41214 48.3255 8.28327 48.4297 8.17926C48.5339 8.07526 48.6629 8.02325 48.8169 8.02325H54.2517C54.4057 8.02325 54.5348 8.07526 54.6389 8.17926C54.7431 8.28327 54.7952 8.41214 54.7952 8.56589C54.7952 8.71964 54.7431 8.84851 54.6389 8.95252C54.5348 9.05652 54.4057 9.10853 54.2517 9.10853H53.0289C53.1557 9.26227 53.2689 9.42959 53.3685 9.61046C53.4682 9.79134 53.5452 9.98579 53.5995 10.1938H54.2517C54.4057 10.1938 54.5348 10.2458 54.6389 10.3498C54.7431 10.4538 54.7952 10.5827 54.7952 10.7364C54.7952 10.8902 54.7431 11.0191 54.6389 11.1231C54.5348 11.2271 54.4057 11.2791 54.2517 11.2791H53.6946C53.6222 12.0478 53.3051 12.6922 52.7435 13.2122C52.182 13.7322 51.5071 13.9922 50.7191 13.9922H50.3251L53.0968 16.8682C53.2599 17.0401 53.2938 17.2368 53.1987 17.4583C53.1036 17.6799 52.9383 17.7907 52.7028 17.7907C52.6303 17.7907 52.5601 17.7771 52.4922 17.75C52.4243 17.7229 52.3631 17.6822 52.3088 17.6279Z"
            fill="#1B1B25" />
        <path
            d="M39.7538 8.41861L38.3214 6.93023C38.302 6.91085 38.2864 6.88663 38.2748 6.85756C38.2632 6.82849 38.2573 6.79845 38.2573 6.76744V6.62791C38.2573 6.56202 38.2797 6.50678 38.3243 6.46221C38.3689 6.41764 38.4243 6.39535 38.4903 6.39535H39.0726C39.2783 6.39535 39.4559 6.32849 39.6054 6.19477C39.7548 6.06105 39.8451 5.89535 39.8761 5.69767H38.2573C38.1913 5.69767 38.136 5.67539 38.0914 5.63081C38.0467 5.58624 38.0244 5.53101 38.0244 5.46512C38.0244 5.39923 38.0467 5.34399 38.0914 5.29942C38.136 5.25485 38.1913 5.23256 38.2573 5.23256H39.8062C39.7403 5.0969 39.6422 4.98547 39.5122 4.89826C39.3821 4.81105 39.2356 4.76744 39.0726 4.76744H38.2573C38.1913 4.76744 38.136 4.74516 38.0914 4.70058C38.0467 4.65601 38.0244 4.60078 38.0244 4.53488C38.0244 4.46899 38.0467 4.41376 38.0914 4.36919C38.136 4.32461 38.1913 4.30233 38.2573 4.30233H40.5865C40.6525 4.30233 40.7078 4.32461 40.7525 4.36919C40.7971 4.41376 40.8194 4.46899 40.8194 4.53488C40.8194 4.60078 40.7971 4.65601 40.7525 4.70058C40.7078 4.74516 40.6525 4.76744 40.5865 4.76744H40.0625C40.1168 4.83333 40.1653 4.90504 40.208 4.98256C40.2507 5.06008 40.2837 5.14341 40.307 5.23256H40.5865C40.6525 5.23256 40.7078 5.25485 40.7525 5.29942C40.7971 5.34399 40.8194 5.39923 40.8194 5.46512C40.8194 5.53101 40.7971 5.58624 40.7525 5.63081C40.7078 5.67539 40.6525 5.69767 40.5865 5.69767H40.3478C40.3167 6.02713 40.1809 6.3033 39.9402 6.52616C39.6995 6.74903 39.4103 6.86047 39.0726 6.86047H38.9037L40.0916 8.09302C40.1614 8.16667 40.176 8.25097 40.1352 8.34593C40.0945 8.44089 40.0236 8.48837 39.9227 8.48837C39.8917 8.48837 39.8616 8.48256 39.8324 8.47093C39.8033 8.4593 39.7771 8.44186 39.7538 8.41861Z"
            fill="#1B1B25" />
    </g>
    <defs>
        <linearGradient id="paint0_linear_11_12729" x1="0.17713" y1="12.2251" x2="24.2661"
            y2="12.2251" gradientUnits="userSpaceOnUse">
            <stop stop-color="#FF7304" />
            <stop offset="1" stop-color="#FB2A77" />
        </linearGradient>
        <linearGradient id="paint1_linear_11_12729" x1="70.979" y1="53.0465" x2="103.118"
            y2="53.0465" gradientUnits="userSpaceOnUse">
            <stop stop-color="#FF7304" />
            <stop offset="1" stop-color="#FB2A77" />
        </linearGradient>
        <clipPath id="clip0_11_12729">
            <rect width="107" height="55" fill="white" />
        </clipPath>
    </defs>
</svg>
