<svg width="360" height="138" viewBox="0 0 360 138" fill="none" xmlns="http://www.w3.org/2000/svg">
    <g filter="url(#filter0_d_220_20787)">
        <g clip-path="url(#clip0_220_20787)">
            <rect x="16" y="19" width="328" height="92" rx="12"
                fill="url(#paint0_radial_220_20787)" />
            <path
                d="M33.0043 51V40.8182H34.8487V49.4538H39.3331V51H33.0043ZM44.1854 51.1491C43.4396 51.1491 42.7933 50.9851 42.2464 50.657C41.6996 50.3288 41.2753 49.8698 40.9737 49.2798C40.6754 48.6899 40.5263 48.0005 40.5263 47.2116C40.5263 46.4228 40.6754 45.7318 40.9737 45.1385C41.2753 44.5452 41.6996 44.0845 42.2464 43.7564C42.7933 43.4283 43.4396 43.2642 44.1854 43.2642C44.9311 43.2642 45.5774 43.4283 46.1243 43.7564C46.6712 44.0845 47.0938 44.5452 47.392 45.1385C47.6937 45.7318 47.8445 46.4228 47.8445 47.2116C47.8445 48.0005 47.6937 48.6899 47.392 49.2798C47.0938 49.8698 46.6712 50.3288 46.1243 50.657C45.5774 50.9851 44.9311 51.1491 44.1854 51.1491ZM44.1953 49.7074C44.5997 49.7074 44.9377 49.5964 45.2095 49.3743C45.4813 49.1489 45.6835 48.8473 45.8161 48.4695C45.9519 48.0916 46.0199 47.6707 46.0199 47.2067C46.0199 46.7393 45.9519 46.3168 45.8161 45.9389C45.6835 45.5578 45.4813 45.2545 45.2095 45.0291C44.9377 44.8037 44.5997 44.6911 44.1953 44.6911C43.781 44.6911 43.4363 44.8037 43.1612 45.0291C42.8894 45.2545 42.6856 45.5578 42.5497 45.9389C42.4171 46.3168 42.3509 46.7393 42.3509 47.2067C42.3509 47.6707 42.4171 48.0916 42.5497 48.4695C42.6856 48.8473 42.8894 49.1489 43.1612 49.3743C43.4363 49.5964 43.781 49.7074 44.1953 49.7074ZM55.9332 43.3636L53.2138 51H51.2251L48.5057 43.3636H50.4247L52.1797 49.0362H52.2592L54.0192 43.3636H55.9332ZM57.1786 51V43.3636H58.9783V51H57.1786ZM58.0835 42.2798C57.7984 42.2798 57.5531 42.1854 57.3477 41.9964C57.1422 41.8042 57.0394 41.5739 57.0394 41.3054C57.0394 41.0336 57.1422 40.8033 57.3477 40.6143C57.5531 40.4221 57.7984 40.326 58.0835 40.326C58.3718 40.326 58.6171 40.4221 58.8192 40.6143C59.0247 40.8033 59.1275 41.0336 59.1275 41.3054C59.1275 41.5739 59.0247 41.8042 58.8192 41.9964C58.6171 42.1854 58.3718 42.2798 58.0835 42.2798ZM62.6287 46.5256V51H60.829V43.3636H62.5492V44.6612H62.6387C62.8143 44.2337 63.0944 43.8939 63.4789 43.642C63.8667 43.3902 64.3456 43.2642 64.9157 43.2642C65.4426 43.2642 65.9017 43.3769 66.2928 43.6023C66.6872 43.8277 66.9921 44.1541 67.2076 44.5817C67.4263 45.0092 67.534 45.5279 67.5307 46.1378V51H65.731V46.4162C65.731 45.9058 65.5984 45.5064 65.3333 45.218C65.0714 44.9297 64.7085 44.7855 64.2445 44.7855C63.9296 44.7855 63.6496 44.8551 63.4043 44.9943C63.1623 45.1302 62.9718 45.3274 62.8326 45.5859C62.6967 45.8445 62.6287 46.1577 62.6287 46.5256ZM72.6813 54.0227C72.035 54.0227 71.4798 53.9349 71.0158 53.7592C70.5518 53.5869 70.1789 53.3549 69.8972 53.0632C69.6155 52.7715 69.4199 52.4484 69.3105 52.0938L70.9313 51.701C71.0042 51.8501 71.1103 51.9976 71.2495 52.1435C71.3887 52.2926 71.5759 52.4152 71.8113 52.5114C72.0499 52.6108 72.3498 52.6605 72.7111 52.6605C73.2215 52.6605 73.6441 52.5362 73.9789 52.2876C74.3136 52.0424 74.481 51.638 74.481 51.0746V49.6278H74.3915C74.2987 49.8134 74.1628 50.004 73.9838 50.1996C73.8082 50.3951 73.5745 50.5592 73.2828 50.6918C72.9945 50.8243 72.6316 50.8906 72.1941 50.8906C71.6074 50.8906 71.0755 50.7531 70.5982 50.478C70.1242 50.1996 69.7464 49.7853 69.4647 49.2351C69.1863 48.6816 69.0471 47.9889 69.0471 47.157C69.0471 46.3184 69.1863 45.6108 69.4647 45.0341C69.7464 44.4541 70.1259 44.0149 70.6032 43.7166C71.0804 43.415 71.6124 43.2642 72.199 43.2642C72.6465 43.2642 73.0144 43.3404 73.3027 43.4929C73.5944 43.642 73.8264 43.8227 73.9988 44.0348C74.1711 44.2436 74.302 44.4408 74.3915 44.6264H74.4909V43.3636H76.2658V51.1243C76.2658 51.7772 76.11 52.3175 75.7985 52.745C75.4869 53.1726 75.061 53.4924 74.5208 53.7045C73.9805 53.9167 73.3674 54.0227 72.6813 54.0227ZM72.6962 49.4787C73.0774 49.4787 73.4022 49.3859 73.6706 49.2003C73.9391 49.0147 74.1429 48.7479 74.2821 48.3999C74.4213 48.0518 74.4909 47.6342 74.4909 47.147C74.4909 46.6664 74.4213 46.2455 74.2821 45.8842C74.1462 45.523 73.9441 45.2429 73.6756 45.044C73.4105 44.8419 73.084 44.7408 72.6962 44.7408C72.2952 44.7408 71.9604 44.8452 71.6919 45.054C71.4235 45.2628 71.2213 45.5495 71.0854 45.9141C70.9495 46.2753 70.8816 46.6863 70.8816 47.147C70.8816 47.6143 70.9495 48.0237 71.0854 48.375C71.2246 48.723 71.4284 48.9948 71.6969 49.1903C71.9687 49.3826 72.3018 49.4787 72.6962 49.4787ZM81.6625 51V40.8182H83.5069V45.1286H88.225V40.8182H90.0744V51H88.225V46.6747H83.5069V51H81.6625ZM94.1983 51.1541C93.7144 51.1541 93.2786 51.0679 92.8908 50.8956C92.5063 50.7199 92.2014 50.4614 91.976 50.12C91.754 49.7786 91.6429 49.3577 91.6429 48.8572C91.6429 48.4264 91.7225 48.0701 91.8816 47.7884C92.0407 47.5066 92.2578 47.2812 92.5328 47.1122C92.8079 46.9432 93.1178 46.8156 93.4625 46.7294C93.8105 46.6399 94.1702 46.5753 94.5414 46.5355C94.9888 46.4891 95.3517 46.4477 95.6301 46.4112C95.9086 46.3714 96.1107 46.3118 96.2367 46.2322C96.3659 46.1494 96.4306 46.0218 96.4306 45.8494V45.8196C96.4306 45.4451 96.3195 45.1551 96.0975 44.9496C95.8754 44.7441 95.5556 44.6413 95.138 44.6413C94.6971 44.6413 94.3475 44.7375 94.089 44.9297C93.8337 45.1219 93.6614 45.349 93.5719 45.6108L91.8915 45.3722C92.0241 44.9081 92.2428 44.5204 92.5478 44.2088C92.8527 43.8939 93.2256 43.6586 93.6664 43.5028C94.1072 43.3438 94.5944 43.2642 95.128 43.2642C95.4959 43.2642 95.8622 43.3073 96.2267 43.3935C96.5913 43.4796 96.9244 43.6222 97.226 43.821C97.5276 44.0166 97.7696 44.2834 97.9519 44.6214C98.1375 44.9595 98.2303 45.3821 98.2303 45.8892V51H96.5002V49.951H96.4405C96.3311 50.1631 96.177 50.362 95.9782 50.5476C95.7826 50.7299 95.5357 50.8774 95.2374 50.9901C94.9424 51.0994 94.5961 51.1541 94.1983 51.1541ZM94.6657 49.8317C95.0269 49.8317 95.3401 49.7604 95.6053 49.6179C95.8704 49.4721 96.0743 49.2798 96.2168 49.0412C96.3626 48.8026 96.4355 48.5424 96.4355 48.2607V47.3608C96.3792 47.4072 96.2831 47.4503 96.1472 47.4901C96.0146 47.5298 95.8655 47.5646 95.6998 47.5945C95.534 47.6243 95.37 47.6508 95.2076 47.674C95.0452 47.6972 94.9043 47.7171 94.785 47.7337C94.5165 47.7701 94.2762 47.8298 94.0641 47.9126C93.852 47.9955 93.6846 48.1115 93.562 48.2607C93.4393 48.4065 93.378 48.5954 93.378 48.8274C93.378 49.1589 93.499 49.4091 93.7409 49.5781C93.9829 49.7472 94.2911 49.8317 94.6657 49.8317ZM106.075 45.3821L104.435 45.5611C104.388 45.3954 104.307 45.2396 104.191 45.0938C104.079 44.9479 103.926 44.8303 103.734 44.7408C103.542 44.6513 103.306 44.6065 103.028 44.6065C102.653 44.6065 102.338 44.6877 102.083 44.8501C101.831 45.0125 101.707 45.223 101.71 45.4815C101.707 45.7036 101.788 45.8842 101.954 46.0234C102.123 46.1626 102.401 46.277 102.789 46.3665L104.092 46.6449C104.814 46.8007 105.351 47.0476 105.703 47.3857C106.057 47.7237 106.236 48.1662 106.24 48.7131C106.236 49.1937 106.095 49.6179 105.817 49.9858C105.542 50.3504 105.159 50.6354 104.669 50.8409C104.178 51.0464 103.615 51.1491 102.978 51.1491C102.044 51.1491 101.291 50.9536 100.721 50.5625C100.151 50.1681 99.8113 49.6196 99.7019 48.9169L101.457 48.7479C101.536 49.0926 101.705 49.3527 101.964 49.5284C102.222 49.7041 102.559 49.7919 102.973 49.7919C103.401 49.7919 103.744 49.7041 104.002 49.5284C104.264 49.3527 104.395 49.1357 104.395 48.8771C104.395 48.6584 104.311 48.4777 104.142 48.3352C103.976 48.1927 103.717 48.0833 103.366 48.0071L102.063 47.7337C101.331 47.5812 100.789 47.3243 100.438 46.9631C100.086 46.5985 99.9123 46.1378 99.9157 45.581C99.9123 45.1103 100.04 44.7027 100.298 44.358C100.56 44.0099 100.923 43.7415 101.387 43.5526C101.855 43.3603 102.393 43.2642 103.003 43.2642C103.898 43.2642 104.602 43.4548 105.116 43.8359C105.633 44.2171 105.953 44.7325 106.075 45.3821ZM109.523 46.5256V51H107.724V40.8182H109.483V44.6612H109.573C109.752 44.2304 110.029 43.8906 110.403 43.642C110.781 43.3902 111.262 43.2642 111.845 43.2642C112.375 43.2642 112.838 43.3752 113.232 43.5973C113.626 43.8194 113.931 44.1442 114.147 44.5717C114.366 44.9993 114.475 45.5213 114.475 46.1378V51H112.675V46.4162C112.675 45.9025 112.543 45.5031 112.278 45.218C112.016 44.9297 111.648 44.7855 111.174 44.7855C110.856 44.7855 110.571 44.8551 110.319 44.9943C110.07 45.1302 109.875 45.3274 109.732 45.5859C109.593 45.8445 109.523 46.1577 109.523 46.5256ZM116.389 51V40.8182H122.912V42.3643H118.233V45.1286H122.464V46.6747H118.233V51H116.389ZM126.642 51.1541C126.158 51.1541 125.722 51.0679 125.334 50.8956C124.95 50.7199 124.645 50.4614 124.419 50.12C124.197 49.7786 124.086 49.3577 124.086 48.8572C124.086 48.4264 124.166 48.0701 124.325 47.7884C124.484 47.5066 124.701 47.2812 124.976 47.1122C125.251 46.9432 125.561 46.8156 125.906 46.7294C126.254 46.6399 126.614 46.5753 126.985 46.5355C127.432 46.4891 127.795 46.4477 128.074 46.4112C128.352 46.3714 128.554 46.3118 128.68 46.2322C128.809 46.1494 128.874 46.0218 128.874 45.8494V45.8196C128.874 45.4451 128.763 45.1551 128.541 44.9496C128.319 44.7441 127.999 44.6413 127.581 44.6413C127.141 44.6413 126.791 44.7375 126.532 44.9297C126.277 45.1219 126.105 45.349 126.015 45.6108L124.335 45.3722C124.467 44.9081 124.686 44.5204 124.991 44.2088C125.296 43.8939 125.669 43.6586 126.11 43.5028C126.551 43.3438 127.038 43.2642 127.571 43.2642C127.939 43.2642 128.306 43.3073 128.67 43.3935C129.035 43.4796 129.368 43.6222 129.669 43.821C129.971 44.0166 130.213 44.2834 130.395 44.6214C130.581 44.9595 130.674 45.3821 130.674 45.8892V51H128.944V49.951H128.884C128.775 50.1631 128.62 50.362 128.422 50.5476C128.226 50.7299 127.979 50.8774 127.681 50.9901C127.386 51.0994 127.039 51.1541 126.642 51.1541ZM127.109 49.8317C127.47 49.8317 127.783 49.7604 128.049 49.6179C128.314 49.4721 128.518 49.2798 128.66 49.0412C128.806 48.8026 128.879 48.5424 128.879 48.2607V47.3608C128.823 47.4072 128.726 47.4503 128.591 47.4901C128.458 47.5298 128.309 47.5646 128.143 47.5945C127.977 47.6243 127.813 47.6508 127.651 47.674C127.489 47.6972 127.348 47.7171 127.228 47.7337C126.96 47.7701 126.72 47.8298 126.507 47.9126C126.295 47.9955 126.128 48.1115 126.005 48.2607C125.883 48.4065 125.821 48.5954 125.821 48.8274C125.821 49.1589 125.942 49.4091 126.184 49.5781C126.426 49.7472 126.734 49.8317 127.109 49.8317ZM132.483 51V43.3636H134.203V44.6612H134.293C134.452 44.2237 134.716 43.8823 135.083 43.6371C135.451 43.3885 135.891 43.2642 136.401 43.2642C136.918 43.2642 137.354 43.3902 137.708 43.642C138.066 43.8906 138.318 44.2304 138.464 44.6612H138.544C138.713 44.237 138.998 43.8989 139.399 43.647C139.803 43.3918 140.282 43.2642 140.836 43.2642C141.538 43.2642 142.112 43.4863 142.556 43.9304C143 44.3745 143.222 45.0225 143.222 45.8743V51H141.417V46.1527C141.417 45.6787 141.291 45.3324 141.039 45.1136C140.788 44.8916 140.479 44.7805 140.115 44.7805C139.681 44.7805 139.341 44.9164 139.096 45.1882C138.854 45.4567 138.733 45.8063 138.733 46.2372V51H136.968V46.0781C136.968 45.6837 136.848 45.3688 136.61 45.1335C136.374 44.8982 136.066 44.7805 135.685 44.7805C135.426 44.7805 135.191 44.8468 134.979 44.9794C134.767 45.1087 134.598 45.2926 134.472 45.5312C134.346 45.7666 134.283 46.0417 134.283 46.3565V51H132.483ZM148.428 51.1491C147.663 51.1491 147.002 50.9901 146.445 50.6719C145.891 50.3504 145.465 49.8963 145.167 49.3097C144.869 48.7197 144.72 48.0253 144.72 47.2266C144.72 46.4411 144.869 45.7517 145.167 45.1584C145.469 44.5618 145.89 44.0978 146.43 43.7663C146.97 43.4316 147.605 43.2642 148.334 43.2642C148.805 43.2642 149.249 43.3404 149.666 43.4929C150.087 43.642 150.459 43.8741 150.78 44.1889C151.105 44.5038 151.36 44.9048 151.546 45.392C151.731 45.8759 151.824 46.4527 151.824 47.1222V47.674H145.565V46.4609H150.099C150.096 46.1162 150.021 45.8097 149.875 45.5412C149.729 45.2694 149.526 45.0556 149.264 44.8999C149.005 44.7441 148.704 44.6662 148.359 44.6662C147.991 44.6662 147.668 44.7557 147.389 44.9347C147.111 45.1103 146.894 45.3423 146.738 45.6307C146.586 45.9157 146.508 46.2289 146.504 46.5703V47.6293C146.504 48.0734 146.586 48.4545 146.748 48.7727C146.91 49.0876 147.137 49.3295 147.429 49.4986C147.721 49.6643 148.062 49.7472 148.453 49.7472C148.715 49.7472 148.952 49.7107 149.164 49.6378C149.376 49.5616 149.56 49.4505 149.716 49.3047C149.872 49.1589 149.99 48.9782 150.069 48.7628L151.749 48.9517C151.643 49.3958 151.441 49.7836 151.143 50.1151C150.848 50.4432 150.47 50.6984 150.009 50.8807C149.549 51.0597 149.022 51.1491 148.428 51.1491ZM155.067 48.0071V47.8778C155.07 47.2779 155.126 46.8007 155.236 46.446C155.348 46.0914 155.508 45.8063 155.713 45.5909C155.919 45.3722 156.169 45.1716 156.464 44.9893C156.666 44.8634 156.847 44.7259 157.006 44.5767C157.168 44.4242 157.296 44.2552 157.388 44.0696C157.481 43.8807 157.528 43.6702 157.528 43.4382C157.528 43.1764 157.466 42.9493 157.344 42.7571C157.221 42.5649 157.055 42.4157 156.847 42.3097C156.641 42.2036 156.411 42.1506 156.156 42.1506C155.92 42.1506 155.696 42.2019 155.484 42.3047C155.276 42.4041 155.102 42.5566 154.962 42.7621C154.826 42.9643 154.75 43.2211 154.734 43.5327H152.964C152.98 42.9029 153.133 42.3759 153.421 41.9517C153.713 41.5275 154.097 41.2093 154.575 40.9972C155.055 40.785 155.585 40.679 156.165 40.679C156.799 40.679 157.355 40.79 157.836 41.0121C158.32 41.2341 158.696 41.5507 158.964 41.9616C159.236 42.3693 159.372 42.8532 159.372 43.4134C159.372 43.7912 159.311 44.1293 159.188 44.4276C159.069 44.7259 158.898 44.991 158.676 45.223C158.454 45.455 158.191 45.6622 157.886 45.8445C157.617 46.0102 157.397 46.1825 157.224 46.3615C157.055 46.5405 156.929 46.7509 156.847 46.9929C156.767 47.2315 156.726 47.5265 156.722 47.8778V48.0071H155.067ZM155.932 51.1094C155.634 51.1094 155.377 51.0033 155.161 50.7912C154.946 50.5791 154.838 50.3205 154.838 50.0156C154.838 49.7173 154.946 49.4621 155.161 49.25C155.377 49.0379 155.634 48.9318 155.932 48.9318C156.227 48.9318 156.482 49.0379 156.697 49.25C156.916 49.4621 157.026 49.7173 157.026 50.0156C157.026 50.2178 156.974 50.4018 156.871 50.5675C156.772 50.7332 156.639 50.8658 156.474 50.9652C156.311 51.0613 156.131 51.1094 155.932 51.1094Z"
                fill="white" />
            <path
                d="M37.8295 61.4545C37.7784 61.0227 37.571 60.6875 37.2074 60.4489C36.8438 60.2102 36.3977 60.0909 35.8693 60.0909C35.483 60.0909 35.1449 60.1534 34.8551 60.2784C34.5682 60.4034 34.3438 60.5753 34.1818 60.794C34.0227 61.0128 33.9432 61.2614 33.9432 61.5398C33.9432 61.7727 33.9986 61.973 34.1094 62.1406C34.223 62.3054 34.3679 62.4432 34.544 62.554C34.7202 62.6619 34.9048 62.7514 35.098 62.8224C35.2912 62.8906 35.4688 62.946 35.6307 62.9886L36.517 63.2273C36.7443 63.2869 36.9972 63.3693 37.2756 63.4744C37.5568 63.5795 37.8253 63.723 38.081 63.9048C38.3395 64.0838 38.5526 64.3139 38.7202 64.5952C38.8878 64.8764 38.9716 65.2216 38.9716 65.6307C38.9716 66.1023 38.848 66.5284 38.6009 66.9091C38.3565 67.2898 37.9986 67.5923 37.527 67.8168C37.0582 68.0412 36.4886 68.1534 35.8182 68.1534C35.1932 68.1534 34.652 68.0526 34.1946 67.8509C33.7401 67.6491 33.3821 67.3679 33.1207 67.0071C32.8622 66.6463 32.7159 66.2273 32.6818 65.75H33.7727C33.8011 66.0795 33.9119 66.3523 34.1051 66.5682C34.3011 66.7812 34.5483 66.9403 34.8466 67.0455C35.1477 67.1477 35.4716 67.1989 35.8182 67.1989C36.2216 67.1989 36.5838 67.1335 36.9048 67.0028C37.2259 66.8693 37.4801 66.6847 37.6676 66.4489C37.8551 66.2102 37.9489 65.9318 37.9489 65.6136C37.9489 65.3239 37.8679 65.0881 37.706 64.9062C37.544 64.7244 37.331 64.5767 37.0668 64.4631C36.8026 64.3494 36.517 64.25 36.2102 64.1648L35.1364 63.858C34.4545 63.6619 33.9148 63.3821 33.517 63.0185C33.1193 62.6548 32.9205 62.179 32.9205 61.5909C32.9205 61.1023 33.0526 60.6761 33.3168 60.3125C33.5838 59.946 33.9418 59.6619 34.3906 59.4602C34.8423 59.2557 35.3466 59.1534 35.9034 59.1534C36.4659 59.1534 36.9659 59.2543 37.4034 59.456C37.8409 59.6548 38.1875 59.9276 38.4432 60.2741C38.7017 60.6207 38.8381 61.0142 38.8523 61.4545H37.8295ZM41.5785 64.0625V68H40.5728V59.2727H41.5785V62.4773H41.6637C41.8171 62.1392 42.0472 61.8707 42.354 61.6719C42.6637 61.4702 43.0756 61.3693 43.5898 61.3693C44.0359 61.3693 44.4265 61.4588 44.7617 61.6378C45.0969 61.8139 45.3569 62.0852 45.5415 62.4517C45.729 62.8153 45.8228 63.2784 45.8228 63.8409V68H44.8171V63.9091C44.8171 63.3892 44.6822 62.9872 44.4123 62.7031C44.1452 62.4162 43.7745 62.2727 43.3001 62.2727C42.9705 62.2727 42.6751 62.3423 42.4137 62.4815C42.1552 62.6207 41.9506 62.8239 41.8001 63.0909C41.6523 63.358 41.5785 63.6818 41.5785 64.0625ZM49.5888 68.1534C49.174 68.1534 48.7976 68.0753 48.4595 67.919C48.1214 67.7599 47.853 67.5312 47.6541 67.233C47.4553 66.9318 47.3558 66.5682 47.3558 66.142C47.3558 65.767 47.4297 65.4631 47.5774 65.2301C47.7251 64.9943 47.9226 64.8097 48.1697 64.6761C48.4169 64.5426 48.6896 64.4432 48.9879 64.3778C49.2891 64.3097 49.5916 64.2557 49.8956 64.2159C50.2933 64.1648 50.6158 64.1264 50.8629 64.1009C51.1129 64.0724 51.2947 64.0256 51.4084 63.9602C51.5249 63.8949 51.5831 63.7812 51.5831 63.6193V63.5852C51.5831 63.1648 51.468 62.8381 51.2379 62.6051C51.0107 62.3722 50.6655 62.2557 50.2024 62.2557C49.7223 62.2557 49.3459 62.3608 49.0732 62.571C48.8004 62.7812 48.6087 63.0057 48.4979 63.2443L47.5433 62.9034C47.7138 62.5057 47.9411 62.196 48.2251 61.9744C48.5121 61.75 48.8246 61.5937 49.1626 61.5057C49.5036 61.4148 49.8388 61.3693 50.1683 61.3693C50.3786 61.3693 50.62 61.3949 50.8928 61.446C51.1683 61.4943 51.4339 61.5952 51.6896 61.7486C51.9482 61.902 52.1626 62.1335 52.3331 62.4432C52.5036 62.7528 52.5888 63.1676 52.5888 63.6875V68H51.5831V67.1136H51.532C51.4638 67.2557 51.3501 67.4077 51.1911 67.5696C51.032 67.7315 50.8203 67.8693 50.5561 67.983C50.2919 68.0966 49.9695 68.1534 49.5888 68.1534ZM49.7422 67.25C50.1399 67.25 50.4751 67.1719 50.7479 67.0156C51.0234 66.8594 51.2308 66.6577 51.37 66.4105C51.5121 66.1634 51.5831 65.9034 51.5831 65.6307V64.7102C51.5405 64.7614 51.4467 64.8082 51.3018 64.8509C51.1598 64.8906 50.995 64.9261 50.8075 64.9574C50.6229 64.9858 50.4425 65.0114 50.2663 65.0341C50.093 65.054 49.9524 65.071 49.8445 65.0852C49.5831 65.1193 49.3388 65.1747 49.1115 65.2514C48.8871 65.3253 48.7053 65.4375 48.5661 65.5881C48.4297 65.7358 48.3615 65.9375 48.3615 66.1932C48.3615 66.5426 48.4908 66.8068 48.7493 66.9858C49.0107 67.1619 49.3416 67.25 49.7422 67.25ZM54.4244 68V61.4545H55.396V62.4432H55.4641C55.5835 62.1193 55.7994 61.8565 56.1119 61.6548C56.4244 61.4531 56.7766 61.3523 57.1687 61.3523C57.2425 61.3523 57.3349 61.3537 57.4457 61.3565C57.5565 61.3594 57.6403 61.3636 57.6971 61.3693V62.392C57.663 62.3835 57.5849 62.3707 57.4627 62.3537C57.3434 62.3338 57.217 62.3239 57.0835 62.3239C56.7653 62.3239 56.4812 62.3906 56.2312 62.5241C55.984 62.6548 55.788 62.8366 55.6431 63.0696C55.5011 63.2997 55.43 63.5625 55.43 63.858V68H54.4244ZM61.4343 68.1364C60.8036 68.1364 60.2596 67.9972 59.8022 67.7188C59.3477 67.4375 58.9968 67.0455 58.7496 66.5426C58.5053 66.0369 58.3832 65.4489 58.3832 64.7784C58.3832 64.108 58.5053 63.517 58.7496 63.0057C58.9968 62.4915 59.3406 62.0909 59.7809 61.804C60.2241 61.5142 60.7411 61.3693 61.332 61.3693C61.6729 61.3693 62.0096 61.4261 62.342 61.5398C62.6744 61.6534 62.9769 61.8381 63.2496 62.0938C63.5224 62.3466 63.7397 62.6818 63.9016 63.0994C64.0636 63.517 64.1445 64.0312 64.1445 64.642V65.0682H59.0991V64.1989H63.1218C63.1218 63.8295 63.0479 63.5 62.9002 63.2102C62.7553 62.9205 62.5479 62.6918 62.2781 62.5241C62.011 62.3565 61.6957 62.2727 61.332 62.2727C60.9315 62.2727 60.5849 62.3722 60.2923 62.571C60.0025 62.767 59.7795 63.0227 59.6232 63.3381C59.467 63.6534 59.3888 63.9915 59.3888 64.3523V64.9318C59.3888 65.4261 59.4741 65.8452 59.6445 66.1889C59.8178 66.5298 60.0579 66.7898 60.3647 66.9688C60.6715 67.1449 61.0281 67.233 61.4343 67.233C61.6985 67.233 61.9371 67.196 62.1502 67.1222C62.3661 67.0455 62.5522 66.9318 62.7085 66.7812C62.8647 66.6278 62.9854 66.4375 63.0707 66.2102L64.0423 66.483C63.94 66.8125 63.7681 67.1023 63.5266 67.3523C63.2852 67.5994 62.9869 67.7926 62.6317 67.9318C62.2766 68.0682 61.8775 68.1364 61.4343 68.1364ZM69.0494 68V61.4545H70.055V68H69.0494ZM69.5607 60.3636C69.3647 60.3636 69.1957 60.2969 69.0536 60.1634C68.9144 60.0298 68.8448 59.8693 68.8448 59.6818C68.8448 59.4943 68.9144 59.3338 69.0536 59.2003C69.1957 59.0668 69.3647 59 69.5607 59C69.7567 59 69.9244 59.0668 70.0636 59.2003C70.2056 59.3338 70.2766 59.4943 70.2766 59.6818C70.2766 59.8693 70.2056 60.0298 70.0636 60.1634C69.9244 60.2969 69.7567 60.3636 69.5607 60.3636ZM74.7436 61.4545V62.3068H71.3516V61.4545H74.7436ZM72.3402 59.8864H73.3459V66.125C73.3459 66.4091 73.3871 66.6222 73.4695 66.7642C73.5547 66.9034 73.6626 66.9972 73.7933 67.0455C73.9268 67.0909 74.0675 67.1136 74.2152 67.1136C74.326 67.1136 74.4169 67.108 74.4879 67.0966C74.5589 67.0824 74.6158 67.071 74.6584 67.0625L74.8629 67.9659C74.7947 67.9915 74.6996 68.017 74.5774 68.0426C74.4553 68.071 74.3004 68.0852 74.1129 68.0852C73.8288 68.0852 73.5504 68.0241 73.2777 67.902C73.0078 67.7798 72.7834 67.5938 72.6044 67.3438C72.4283 67.0938 72.3402 66.7784 72.3402 66.3977V59.8864ZM81.1143 68L79.12 61.4545H80.1768L81.5916 66.4659H81.6598L83.0575 61.4545H84.1314L85.5121 66.4489H85.5803L86.995 61.4545H88.0518L86.0575 68H85.0689L83.6371 62.9716H83.5348L82.103 68H81.1143ZM89.3814 68V61.4545H90.3871V68H89.3814ZM89.8928 60.3636C89.6967 60.3636 89.5277 60.2969 89.3857 60.1634C89.2464 60.0298 89.1768 59.8693 89.1768 59.6818C89.1768 59.4943 89.2464 59.3338 89.3857 59.2003C89.5277 59.0668 89.6967 59 89.8928 59C90.0888 59 90.2564 59.0668 90.3956 59.2003C90.5376 59.3338 90.6087 59.4943 90.6087 59.6818C90.6087 59.8693 90.5376 60.0298 90.3956 60.1634C90.2564 60.2969 90.0888 60.3636 89.8928 60.3636ZM95.0756 61.4545V62.3068H91.6836V61.4545H95.0756ZM92.6722 59.8864H93.6779V66.125C93.6779 66.4091 93.7191 66.6222 93.8015 66.7642C93.8867 66.9034 93.9947 66.9972 94.1254 67.0455C94.2589 67.0909 94.3995 67.1136 94.5472 67.1136C94.658 67.1136 94.7489 67.108 94.82 67.0966C94.891 67.0824 94.9478 67.071 94.9904 67.0625L95.195 67.9659C95.1268 67.9915 95.0316 68.017 94.9094 68.0426C94.7873 68.071 94.6325 68.0852 94.445 68.0852C94.1609 68.0852 93.8825 68.0241 93.6097 67.902C93.3398 67.7798 93.1154 67.5938 92.9364 67.3438C92.7603 67.0938 92.6722 66.7784 92.6722 66.3977V59.8864ZM97.7347 64.0625V68H96.729V59.2727H97.7347V62.4773H97.82C97.9734 62.1392 98.2035 61.8707 98.5103 61.6719C98.82 61.4702 99.2319 61.3693 99.7461 61.3693C100.192 61.3693 100.583 61.4588 100.918 61.6378C101.253 61.8139 101.513 62.0852 101.698 62.4517C101.885 62.8153 101.979 63.2784 101.979 63.8409V68H100.973V63.9091C100.973 63.3892 100.838 62.9872 100.569 62.7031C100.301 62.4162 99.9308 62.2727 99.4563 62.2727C99.1268 62.2727 98.8313 62.3423 98.57 62.4815C98.3114 62.6207 98.1069 62.8239 97.9563 63.0909C97.8086 63.358 97.7347 63.6818 97.7347 64.0625ZM107.842 70.4545C107.671 70.4545 107.519 70.4403 107.386 70.4119C107.252 70.3864 107.16 70.3608 107.109 70.3352L107.364 69.4489C107.609 69.5114 107.825 69.5341 108.012 69.517C108.2 69.5 108.366 69.4162 108.511 69.2656C108.658 69.1179 108.793 68.8778 108.915 68.5455L109.103 68.0341L106.683 61.4545H107.773L109.58 66.6705H109.648L111.455 61.4545H112.546L109.768 68.9545C109.643 69.2926 109.488 69.5724 109.303 69.794C109.119 70.0185 108.904 70.1847 108.66 70.2926C108.418 70.4006 108.146 70.4545 107.842 70.4545ZM116.298 68.1364C115.707 68.1364 115.189 67.9957 114.743 67.7145C114.3 67.4332 113.953 67.0398 113.703 66.5341C113.456 66.0284 113.332 65.4375 113.332 64.7614C113.332 64.0795 113.456 63.4844 113.703 62.9759C113.953 62.4673 114.3 62.0724 114.743 61.7912C115.189 61.5099 115.707 61.3693 116.298 61.3693C116.889 61.3693 117.406 61.5099 117.849 61.7912C118.295 62.0724 118.642 62.4673 118.889 62.9759C119.139 63.4844 119.264 64.0795 119.264 64.7614C119.264 65.4375 119.139 66.0284 118.889 66.5341C118.642 67.0398 118.295 67.4332 117.849 67.7145C117.406 67.9957 116.889 68.1364 116.298 68.1364ZM116.298 67.233C116.747 67.233 117.116 67.1179 117.406 66.8878C117.696 66.6577 117.911 66.3551 118.05 65.9801C118.189 65.6051 118.259 65.1989 118.259 64.7614C118.259 64.3239 118.189 63.9162 118.05 63.5384C117.911 63.1605 117.696 62.8551 117.406 62.6222C117.116 62.3892 116.747 62.2727 116.298 62.2727C115.849 62.2727 115.48 62.3892 115.19 62.6222C114.901 62.8551 114.686 63.1605 114.547 63.5384C114.408 63.9162 114.338 64.3239 114.338 64.7614C114.338 65.1989 114.408 65.6051 114.547 65.9801C114.686 66.3551 114.901 66.6577 115.19 66.8878C115.48 67.1179 115.849 67.233 116.298 67.233ZM124.924 65.3239V61.4545H125.93V68H124.924V66.892H124.856C124.703 67.2244 124.464 67.5071 124.14 67.7401C123.816 67.9702 123.407 68.0852 122.913 68.0852C122.504 68.0852 122.14 67.9957 121.822 67.8168C121.504 67.6349 121.254 67.3622 121.072 66.9986C120.89 66.6321 120.799 66.1705 120.799 65.6136V61.4545H121.805V65.5455C121.805 66.0227 121.939 66.4034 122.206 66.6875C122.475 66.9716 122.819 67.1136 123.237 67.1136C123.487 67.1136 123.741 67.0497 124 66.9219C124.261 66.794 124.48 66.598 124.656 66.3338C124.835 66.0696 124.924 65.733 124.924 65.3239ZM127.772 68V61.4545H128.744V62.4432H128.812C128.931 62.1193 129.147 61.8565 129.46 61.6548C129.772 61.4531 130.124 61.3523 130.516 61.3523C130.59 61.3523 130.683 61.3537 130.793 61.3565C130.904 61.3594 130.988 61.3636 131.045 61.3693V62.392C131.011 62.3835 130.933 62.3707 130.81 62.3537C130.691 62.3338 130.565 62.3239 130.431 62.3239C130.113 62.3239 129.829 62.3906 129.579 62.5241C129.332 62.6548 129.136 62.8366 128.991 63.0696C128.849 63.2997 128.778 63.5625 128.778 63.858V68H127.772ZM136.618 64.0625V68H135.612V61.4545H136.583V62.4773H136.669C136.822 62.1449 137.055 61.8778 137.368 61.6761C137.68 61.4716 138.083 61.3693 138.578 61.3693C139.021 61.3693 139.409 61.4602 139.741 61.642C140.074 61.821 140.332 62.0938 140.517 62.4602C140.701 62.8239 140.794 63.2841 140.794 63.8409V68H139.788V63.9091C139.788 63.3949 139.654 62.9943 139.387 62.7074C139.12 62.4176 138.754 62.2727 138.288 62.2727C137.967 62.2727 137.68 62.3423 137.427 62.4815C137.177 62.6207 136.98 62.8239 136.835 63.0909C136.69 63.358 136.618 63.6818 136.618 64.0625ZM145.376 68.1364C144.745 68.1364 144.201 67.9972 143.744 67.7188C143.289 67.4375 142.938 67.0455 142.691 66.5426C142.447 66.0369 142.325 65.4489 142.325 64.7784C142.325 64.108 142.447 63.517 142.691 63.0057C142.938 62.4915 143.282 62.0909 143.722 61.804C144.165 61.5142 144.683 61.3693 145.273 61.3693C145.614 61.3693 145.951 61.4261 146.283 61.5398C146.616 61.6534 146.918 61.8381 147.191 62.0938C147.464 62.3466 147.681 62.6818 147.843 63.0994C148.005 63.517 148.086 64.0312 148.086 64.642V65.0682H143.04V64.1989H147.063C147.063 63.8295 146.989 63.5 146.842 63.2102C146.697 62.9205 146.489 62.6918 146.219 62.5241C145.952 62.3565 145.637 62.2727 145.273 62.2727C144.873 62.2727 144.526 62.3722 144.234 62.571C143.944 62.767 143.721 63.0227 143.565 63.3381C143.408 63.6534 143.33 63.9915 143.33 64.3523V64.9318C143.33 65.4261 143.415 65.8452 143.586 66.1889C143.759 66.5298 143.999 66.7898 144.306 66.9688C144.613 67.1449 144.969 67.233 145.376 67.233C145.64 67.233 145.879 67.196 146.092 67.1222C146.308 67.0455 146.494 66.9318 146.65 66.7812C146.806 66.6278 146.927 66.4375 147.012 66.2102L147.984 66.483C147.881 66.8125 147.71 67.1023 147.468 67.3523C147.227 67.5994 146.928 67.7926 146.573 67.9318C146.218 68.0682 145.819 68.1364 145.376 68.1364ZM152.462 61.4545V62.3068H149.07V61.4545H152.462ZM150.059 59.8864H151.065V66.125C151.065 66.4091 151.106 66.6222 151.188 66.7642C151.273 66.9034 151.381 66.9972 151.512 67.0455C151.646 67.0909 151.786 67.1136 151.934 67.1136C152.045 67.1136 152.136 67.108 152.207 67.0966C152.278 67.0824 152.335 67.071 152.377 67.0625L152.582 67.9659C152.513 67.9915 152.418 68.017 152.296 68.0426C152.174 68.071 152.019 68.0852 151.832 68.0852C151.548 68.0852 151.269 68.0241 150.996 67.902C150.727 67.7798 150.502 67.5938 150.323 67.3438C150.147 67.0938 150.059 66.7784 150.059 66.3977V59.8864ZM155.458 68L153.464 61.4545H154.521L155.935 66.4659H156.004L157.401 61.4545H158.475L159.856 66.4489H159.924L161.339 61.4545H162.396L160.401 68H159.413L157.981 62.9716H157.879L156.447 68H155.458ZM166.162 68.1364C165.571 68.1364 165.052 67.9957 164.606 67.7145C164.163 67.4332 163.816 67.0398 163.566 66.5341C163.319 66.0284 163.196 65.4375 163.196 64.7614C163.196 64.0795 163.319 63.4844 163.566 62.9759C163.816 62.4673 164.163 62.0724 164.606 61.7912C165.052 61.5099 165.571 61.3693 166.162 61.3693C166.752 61.3693 167.27 61.5099 167.713 61.7912C168.159 62.0724 168.505 62.4673 168.752 62.9759C169.002 63.4844 169.127 64.0795 169.127 64.7614C169.127 65.4375 169.002 66.0284 168.752 66.5341C168.505 67.0398 168.159 67.4332 167.713 67.7145C167.27 67.9957 166.752 68.1364 166.162 68.1364ZM166.162 67.233C166.61 67.233 166.98 67.1179 167.27 66.8878C167.559 66.6577 167.774 66.3551 167.913 65.9801C168.052 65.6051 168.122 65.1989 168.122 64.7614C168.122 64.3239 168.052 63.9162 167.913 63.5384C167.774 63.1605 167.559 62.8551 167.27 62.6222C166.98 62.3892 166.61 62.2727 166.162 62.2727C165.713 62.2727 165.343 62.3892 165.054 62.6222C164.764 62.8551 164.549 63.1605 164.41 63.5384C164.271 63.9162 164.201 64.3239 164.201 64.7614C164.201 65.1989 164.271 65.6051 164.41 65.9801C164.549 66.3551 164.764 66.6577 165.054 66.8878C165.343 67.1179 165.713 67.233 166.162 67.233ZM170.663 68V61.4545H171.634V62.4432H171.702C171.822 62.1193 172.038 61.8565 172.35 61.6548C172.663 61.4531 173.015 61.3523 173.407 61.3523C173.481 61.3523 173.573 61.3537 173.684 61.3565C173.795 61.3594 173.879 61.3636 173.935 61.3693V62.392C173.901 62.3835 173.823 62.3707 173.701 62.3537C173.582 62.3338 173.455 62.3239 173.322 62.3239C173.004 62.3239 172.719 62.3906 172.469 62.5241C172.222 62.6548 172.026 62.8366 171.881 63.0696C171.739 63.2997 171.668 63.5625 171.668 63.858V68H170.663ZM176.065 65.6136L176.048 64.3693H176.252L179.116 61.4545H180.36L177.309 64.5398H177.224L176.065 65.6136ZM175.127 68V59.2727H176.133V68H175.127ZM179.287 68L176.73 64.7614L177.446 64.0625L180.565 68H179.287Z"
                fill="white" fill-opacity="0.5" />
            <path
                d="M32.8608 90V81.2727H38.5369V82.598H34.4418V84.9673H38.2429V86.2926H34.4418V88.6747H38.571V90H32.8608ZM41.9652 90.1321C41.5504 90.1321 41.1768 90.0582 40.8445 89.9105C40.5149 89.7599 40.2536 89.5384 40.0604 89.2457C39.87 88.9531 39.7749 88.5923 39.7749 88.1634C39.7749 87.794 39.843 87.4886 39.9794 87.2472C40.1158 87.0057 40.3018 86.8125 40.5376 86.6676C40.7734 86.5227 41.0391 86.4134 41.3345 86.3395C41.6328 86.2628 41.9411 86.2074 42.2592 86.1733C42.6428 86.1335 42.9538 86.098 43.1925 86.0668C43.4311 86.0327 43.6044 85.9815 43.7124 85.9134C43.8232 85.8423 43.8786 85.733 43.8786 85.5852V85.5597C43.8786 85.2386 43.7834 84.9901 43.593 84.8139C43.4027 84.6378 43.1286 84.5497 42.7706 84.5497C42.3928 84.5497 42.093 84.6321 41.8714 84.7969C41.6527 84.9616 41.505 85.1562 41.4283 85.3807L39.9879 85.1761C40.1016 84.7784 40.2891 84.446 40.5504 84.179C40.8118 83.9091 41.1314 83.7074 41.5092 83.5739C41.8871 83.4375 42.3047 83.3693 42.7621 83.3693C43.0774 83.3693 43.3913 83.4062 43.7038 83.4801C44.0163 83.554 44.3018 83.6761 44.5604 83.8466C44.8189 84.0142 45.0263 84.2429 45.1825 84.5327C45.3416 84.8224 45.4212 85.1847 45.4212 85.6193V90H43.9382V89.1009H43.8871C43.7933 89.2827 43.6612 89.4531 43.4908 89.6122C43.3232 89.7685 43.1115 89.8949 42.8558 89.9915C42.603 90.0852 42.3061 90.1321 41.9652 90.1321ZM42.3658 88.9986C42.6754 88.9986 42.9439 88.9375 43.1712 88.8153C43.3984 88.6903 43.5732 88.5256 43.6953 88.321C43.8203 88.1165 43.8828 87.8935 43.8828 87.652V86.8807C43.8345 86.9205 43.7521 86.9574 43.6357 86.9915C43.522 87.0256 43.3942 87.0554 43.2521 87.081C43.1101 87.1065 42.9695 87.1293 42.8303 87.1491C42.6911 87.169 42.5703 87.1861 42.468 87.2003C42.2379 87.2315 42.032 87.2827 41.8501 87.3537C41.6683 87.4247 41.5249 87.5241 41.4197 87.652C41.3146 87.777 41.2621 87.9389 41.2621 88.1378C41.2621 88.4219 41.3658 88.6364 41.5732 88.7812C41.7805 88.9261 42.0447 88.9986 42.3658 88.9986ZM46.9723 90V83.4545H48.468V84.5455H48.5362C48.6555 84.1676 48.8601 83.8764 49.1499 83.6719C49.4425 83.4645 49.7763 83.3608 50.1513 83.3608C50.2365 83.3608 50.3317 83.3651 50.4368 83.3736C50.5447 83.3793 50.6342 83.3892 50.7053 83.4034V84.8224C50.6399 84.7997 50.5362 84.7798 50.3942 84.7628C50.255 84.7429 50.12 84.733 49.9893 84.733C49.7081 84.733 49.4553 84.794 49.2308 84.9162C49.0092 85.0355 48.8345 85.2017 48.7067 85.4148C48.5788 85.6278 48.5149 85.8736 48.5149 86.152V90H46.9723ZM53.2727 86.1648V90H51.7301V83.4545H53.2045V84.5668H53.2812C53.4318 84.2003 53.6719 83.9091 54.0014 83.6932C54.3338 83.4773 54.7443 83.3693 55.233 83.3693C55.6847 83.3693 56.0781 83.4659 56.4134 83.6591C56.7514 83.8523 57.0128 84.1321 57.1974 84.4986C57.3849 84.8651 57.4773 85.3097 57.4744 85.8324V90H55.9318V86.071C55.9318 85.6335 55.8182 85.2912 55.5909 85.044C55.3665 84.7969 55.0554 84.6733 54.6577 84.6733C54.3878 84.6733 54.1477 84.733 53.9375 84.8523C53.7301 84.9687 53.5668 85.1378 53.4474 85.3594C53.331 85.581 53.2727 85.8494 53.2727 86.1648ZM66.1911 87.2472V83.4545H67.7337V90H66.2379V88.8366H66.1697C66.022 89.2031 65.7791 89.5028 65.4411 89.7358C65.1058 89.9687 64.6925 90.0852 64.201 90.0852C63.772 90.0852 63.3928 89.9901 63.0632 89.7997C62.7365 89.6065 62.4808 89.3267 62.2962 88.9602C62.1115 88.5909 62.0192 88.1449 62.0192 87.6222V83.4545H63.5618V87.3835C63.5618 87.7983 63.6754 88.1278 63.9027 88.3722C64.13 88.6165 64.4283 88.7386 64.7976 88.7386C65.0249 88.7386 65.245 88.6832 65.4581 88.5724C65.6712 88.4616 65.8459 88.2969 65.9822 88.0781C66.1214 87.8565 66.1911 87.5795 66.1911 87.2472ZM69.32 92.4545V83.4545H70.837V84.5369H70.9265C71.006 84.3778 71.1183 84.2088 71.2631 84.0298C71.408 83.848 71.604 83.6932 71.8512 83.5653C72.0984 83.4347 72.4137 83.3693 72.7972 83.3693C73.3029 83.3693 73.7589 83.4986 74.1651 83.7571C74.5742 84.0128 74.8981 84.392 75.1367 84.8949C75.3782 85.3949 75.4989 86.0085 75.4989 86.7358C75.4989 87.4545 75.381 88.0653 75.1452 88.5682C74.9094 89.071 74.5884 89.4545 74.1822 89.7188C73.7759 89.983 73.3157 90.1151 72.8015 90.1151C72.4265 90.1151 72.1154 90.0526 71.8683 89.9276C71.6211 89.8026 71.4222 89.652 71.2717 89.4759C71.1239 89.2969 71.0089 89.1278 70.9265 88.9688H70.8626V92.4545H69.32ZM70.8327 86.7273C70.8327 87.1506 70.8924 87.5213 71.0117 87.8395C71.1339 88.1577 71.3086 88.4062 71.5359 88.5852C71.766 88.7614 72.0444 88.8494 72.3711 88.8494C72.712 88.8494 72.9975 88.7585 73.2276 88.5767C73.4577 88.392 73.631 88.1406 73.7475 87.8224C73.8668 87.5014 73.9265 87.1364 73.9265 86.7273C73.9265 86.321 73.8683 85.9602 73.7518 85.6449C73.6353 85.3295 73.462 85.0824 73.2319 84.9034C73.0018 84.7244 72.7148 84.6349 72.3711 84.6349C72.0415 84.6349 71.7617 84.7216 71.5316 84.8949C71.3015 85.0682 71.1268 85.3111 71.0075 85.6236C70.891 85.9361 70.8327 86.304 70.8327 86.7273ZM80.7873 85.7301V87H76.8583V85.7301H80.7873ZM85.6783 83.4545V84.6477H81.9155V83.4545H85.6783ZM82.8445 81.8864H84.3871V88.0312C84.3871 88.2386 84.4183 88.3977 84.4808 88.5085C84.5462 88.6165 84.6314 88.6903 84.7365 88.7301C84.8416 88.7699 84.9581 88.7898 85.0859 88.7898C85.1825 88.7898 85.2706 88.7827 85.3501 88.7685C85.4325 88.7543 85.495 88.7415 85.5376 88.7301L85.7976 89.9361C85.7152 89.9645 85.5973 89.9957 85.4439 90.0298C85.2933 90.0639 85.1087 90.0838 84.8899 90.0895C84.5036 90.1009 84.1555 90.0426 83.8459 89.9148C83.5362 89.7841 83.2905 89.5824 83.1087 89.3097C82.9297 89.0369 82.8416 88.696 82.8445 88.2869V81.8864ZM89.7532 90.1278C89.114 90.1278 88.56 89.9872 88.0913 89.706C87.6225 89.4247 87.2589 89.0312 87.0004 88.5256C86.7447 88.0199 86.6168 87.429 86.6168 86.7528C86.6168 86.0767 86.7447 85.4844 87.0004 84.9759C87.2589 84.4673 87.6225 84.0724 88.0913 83.7912C88.56 83.5099 89.114 83.3693 89.7532 83.3693C90.3924 83.3693 90.9464 83.5099 91.4151 83.7912C91.8839 84.0724 92.2461 84.4673 92.5018 84.9759C92.7603 85.4844 92.8896 86.0767 92.8896 86.7528C92.8896 87.429 92.7603 88.0199 92.5018 88.5256C92.2461 89.0312 91.8839 89.4247 91.4151 89.706C90.9464 89.9872 90.3924 90.1278 89.7532 90.1278ZM89.7617 88.892C90.1083 88.892 90.3981 88.7969 90.631 88.6065C90.864 88.4134 91.0373 88.1548 91.1509 87.831C91.2674 87.5071 91.3256 87.1463 91.3256 86.7486C91.3256 86.348 91.2674 85.9858 91.1509 85.6619C91.0373 85.3352 90.864 85.0753 90.631 84.8821C90.3981 84.6889 90.1083 84.5923 89.7617 84.5923C89.4066 84.5923 89.1112 84.6889 88.8754 84.8821C88.6424 85.0753 88.4677 85.3352 88.3512 85.6619C88.2376 85.9858 88.1808 86.348 88.1808 86.7486C88.1808 87.1463 88.2376 87.5071 88.3512 87.831C88.4677 88.1548 88.6424 88.4134 88.8754 88.6065C89.1112 88.7969 89.4066 88.892 89.7617 88.892Z"
                fill="white" />
            <path
                d="M102.741 83.4034L102.438 84.5199H96.7834L97.0902 83.4034H102.741ZM99.8984 90L96.9155 86.4119L96.9112 85.4659H98.3857C98.7379 85.4659 99.032 85.4077 99.2678 85.2912C99.5064 85.1719 99.6868 85.0057 99.8089 84.7926C99.9339 84.5767 99.9964 84.3239 99.9964 84.0341C99.9964 83.5994 99.8686 83.25 99.6129 82.9858C99.3572 82.7216 98.9482 82.5895 98.3857 82.5895H96.7834L97.1158 81.2727H98.3857C99.1016 81.2727 99.6939 81.3835 100.163 81.6051C100.634 81.8239 100.987 82.1335 101.219 82.5341C101.455 82.9347 101.573 83.4034 101.573 83.9403C101.573 84.4148 101.487 84.8381 101.313 85.2102C101.14 85.5824 100.867 85.8878 100.495 86.1264C100.123 86.3651 99.6357 86.5241 99.0334 86.6037L98.9822 86.6207L101.675 89.9233V90H99.8984ZM102.749 81.2727L102.438 82.4062L97.853 82.3892L98.1641 81.2727H102.749ZM107.04 90.1193C106.427 90.1193 105.881 90.0142 105.404 89.804C104.93 89.5937 104.555 89.3011 104.279 88.9261C104.004 88.5511 103.857 88.1179 103.84 87.6264H105.442C105.457 87.8622 105.535 88.0682 105.677 88.2443C105.819 88.4176 106.008 88.5526 106.244 88.6491C106.479 88.7457 106.744 88.794 107.036 88.794C107.349 88.794 107.626 88.7401 107.867 88.6321C108.109 88.5213 108.298 88.3679 108.434 88.1719C108.57 87.9759 108.637 87.75 108.634 87.4943C108.637 87.2301 108.569 86.9972 108.43 86.7955C108.29 86.5937 108.089 86.4361 107.825 86.3224C107.563 86.2088 107.248 86.152 106.879 86.152H106.107V84.9332H106.879C107.183 84.9332 107.448 84.8807 107.675 84.7756C107.906 84.6705 108.086 84.5227 108.217 84.3324C108.347 84.1392 108.411 83.9162 108.408 83.6634C108.411 83.4162 108.356 83.2017 108.242 83.0199C108.131 82.8352 107.974 82.6918 107.769 82.5895C107.567 82.4872 107.33 82.4361 107.058 82.4361C106.79 82.4361 106.543 82.4844 106.316 82.581C106.089 82.6776 105.906 82.8153 105.766 82.9943C105.627 83.1705 105.553 83.3807 105.545 83.625H104.023C104.035 83.1364 104.175 82.7074 104.445 82.3381C104.718 81.9659 105.082 81.6761 105.536 81.4688C105.991 81.2585 106.501 81.1534 107.066 81.1534C107.648 81.1534 108.154 81.2628 108.583 81.4815C109.015 81.6974 109.349 81.9886 109.585 82.3551C109.82 82.7216 109.938 83.1264 109.938 83.5696C109.941 84.0611 109.796 84.473 109.504 84.8054C109.214 85.1378 108.833 85.3551 108.362 85.4574V85.5256C108.975 85.6108 109.445 85.8381 109.772 86.2074C110.102 86.5739 110.265 87.0298 110.262 87.5753C110.262 88.0639 110.123 88.5014 109.844 88.8878C109.569 89.2713 109.188 89.5724 108.702 89.7912C108.219 90.0099 107.665 90.1193 107.04 90.1193ZM114.951 90.1662C114.249 90.1662 113.647 89.9886 113.144 89.6335C112.644 89.2756 112.259 88.7599 111.989 88.0866C111.722 87.4105 111.588 86.5966 111.588 85.6449C111.591 84.6932 111.726 83.8835 111.993 83.2159C112.263 82.5455 112.648 82.0341 113.148 81.6818C113.651 81.3295 114.252 81.1534 114.951 81.1534C115.65 81.1534 116.25 81.3295 116.753 81.6818C117.256 82.0341 117.641 82.5455 117.908 83.2159C118.178 83.8864 118.313 84.696 118.313 85.6449C118.313 86.5994 118.178 87.4148 117.908 88.0909C117.641 88.7642 117.256 89.2784 116.753 89.6335C116.253 89.9886 115.652 90.1662 114.951 90.1662ZM114.951 88.8324C115.496 88.8324 115.926 88.5639 116.242 88.027C116.56 87.4872 116.719 86.6932 116.719 85.6449C116.719 84.9517 116.647 84.3693 116.502 83.8977C116.357 83.4261 116.152 83.071 115.888 82.8324C115.624 82.5909 115.311 82.4702 114.951 82.4702C114.408 82.4702 113.979 82.7401 113.664 83.2798C113.348 83.8168 113.189 84.6051 113.186 85.6449C113.184 86.3409 113.253 86.9261 113.395 87.4006C113.54 87.875 113.745 88.233 114.009 88.4744C114.273 88.7131 114.587 88.8324 114.951 88.8324ZM122.955 90.1662C122.253 90.1662 121.651 89.9886 121.148 89.6335C120.648 89.2756 120.263 88.7599 119.993 88.0866C119.726 87.4105 119.592 86.5966 119.592 85.6449C119.595 84.6932 119.73 83.8835 119.997 83.2159C120.267 82.5455 120.652 82.0341 121.152 81.6818C121.655 81.3295 122.256 81.1534 122.955 81.1534C123.653 81.1534 124.254 81.3295 124.757 81.6818C125.26 82.0341 125.645 82.5455 125.912 83.2159C126.182 83.8864 126.317 84.696 126.317 85.6449C126.317 86.5994 126.182 87.4148 125.912 88.0909C125.645 88.7642 125.26 89.2784 124.757 89.6335C124.257 89.9886 123.656 90.1662 122.955 90.1662ZM122.955 88.8324C123.5 88.8324 123.93 88.5639 124.246 88.027C124.564 87.4872 124.723 86.6932 124.723 85.6449C124.723 84.9517 124.651 84.3693 124.506 83.8977C124.361 83.4261 124.156 83.071 123.892 82.8324C123.628 82.5909 123.315 82.4702 122.955 82.4702C122.412 82.4702 121.983 82.7401 121.668 83.2798C121.352 83.8168 121.193 84.6051 121.19 85.6449C121.188 86.3409 121.257 86.9261 121.399 87.4006C121.544 87.875 121.749 88.233 122.013 88.4744C122.277 88.7131 122.591 88.8324 122.955 88.8324ZM130.958 90.1662C130.257 90.1662 129.654 89.9886 129.152 89.6335C128.652 89.2756 128.267 88.7599 127.997 88.0866C127.73 87.4105 127.596 86.5966 127.596 85.6449C127.599 84.6932 127.734 83.8835 128.001 83.2159C128.271 82.5455 128.656 82.0341 129.156 81.6818C129.659 81.3295 130.26 81.1534 130.958 81.1534C131.657 81.1534 132.258 81.3295 132.761 81.6818C133.264 82.0341 133.649 82.5455 133.916 83.2159C134.186 83.8864 134.321 84.696 134.321 85.6449C134.321 86.5994 134.186 87.4148 133.916 88.0909C133.649 88.7642 133.264 89.2784 132.761 89.6335C132.261 89.9886 131.66 90.1662 130.958 90.1662ZM130.958 88.8324C131.504 88.8324 131.934 88.5639 132.25 88.027C132.568 87.4872 132.727 86.6932 132.727 85.6449C132.727 84.9517 132.654 84.3693 132.51 83.8977C132.365 83.4261 132.16 83.071 131.896 82.8324C131.632 82.5909 131.319 82.4702 130.958 82.4702C130.416 82.4702 129.987 82.7401 129.672 83.2798C129.356 83.8168 129.197 84.6051 129.194 85.6449C129.191 86.3409 129.261 86.9261 129.403 87.4006C129.548 87.875 129.752 88.233 130.017 88.4744C130.281 88.7131 130.595 88.8324 130.958 88.8324Z"
                fill="#60D66A" />
            <path opacity="0.41"
                d="M349.663 100.901C351.45 102.838 351.596 105.61 349.988 107.094C348.38 108.577 344.511 109.24 342.724 107.303C340.937 105.366 343.36 102.938 343.904 100.704C344.663 97.5874 347.876 98.9642 349.663 100.901Z"
                fill="#FFEFEF" />
            <g opacity="0.43">
                <path
                    d="M331.936 118.218C332.889 113.477 331.361 109.433 330.979 104.784C330.618 100.383 332.181 96.6812 333.049 92.4894C333.82 88.7588 333.563 84.5332 332.594 80.8666C331.272 75.8606 328.225 71.2254 323.836 68.3996C316.997 63.9964 307.877 64.515 300.322 67.5436C297.158 68.8122 294.093 70.5002 290.705 70.9272C285.762 71.5498 280.952 69.4196 276.137 68.1416C269.583 66.4018 262.389 66.2728 256.205 69.0186C249.194 72.1318 244.209 79.1598 244.792 86.9004C245.056 90.4078 246.406 93.869 245.928 97.3534C245.443 100.887 243.344 103.844 242.232 107.172C240.715 111.715 240.577 118.391 243.016 123H330.294C331.047 121.493 331.601 119.879 331.936 118.218Z"
                    fill="#FFEFEF" />
            </g>
            <path
                d="M230.7 67.2C230.866 67.2 231 67.0657 231 66.9C231 66.7343 230.866 66.6 230.7 66.6C230.535 66.6 230.4 66.7343 230.4 66.9C230.4 67.0657 230.535 67.2 230.7 67.2Z"
                fill="#17014C" />
            <path
                d="M289.607 80.8C295.955 80.8 301.101 75.6541 301.101 69.3062C301.101 62.9584 295.955 57.8124 289.607 57.8124C283.259 57.8124 278.113 62.9584 278.113 69.3062C278.113 75.6541 283.259 80.8 289.607 80.8Z"
                fill="#1B1B25" />
            <path
                d="M288.394 79.5876C294.742 79.5876 299.888 74.4416 299.888 68.0938C299.888 61.7459 294.742 56.6 288.394 56.6C282.046 56.6 276.9 61.7459 276.9 68.0938C276.9 74.4416 282.046 79.5876 288.394 79.5876Z"
                fill="#FFB54A" />
            <path
                d="M288.394 77.3734C283.29 77.3734 279.137 73.2206 279.137 68.1162C279.137 63.0118 283.29 58.859 288.394 58.859C293.498 58.859 297.651 63.0118 297.651 68.1162C297.651 73.2208 293.498 77.3734 288.394 77.3734ZM288.394 59.4592C283.62 59.4592 279.737 63.3428 279.737 68.1164C279.737 72.89 283.62 76.7736 288.394 76.7736C293.168 76.7736 297.051 72.89 297.051 68.1164C297.051 63.3428 293.168 59.4592 288.394 59.4592Z"
                fill="#FCF0E3" />
            <path
                d="M287.717 72.2662C287.14 72.1952 286.583 72.051 286.045 71.8332C285.508 71.6156 285.017 71.3382 284.573 71.0004L285.612 69.4816C285.976 69.757 286.33 69.9858 286.672 70.1678C287.013 70.35 287.384 70.4808 287.784 70.5608V68.4426C287.305 68.3092 286.885 68.1628 286.525 68.003C286.165 67.843 285.868 67.6522 285.632 67.43C285.397 67.2082 285.22 66.9484 285.1 66.6506C284.98 66.3532 284.92 66.0092 284.92 65.618V65.5914C284.92 65.2184 284.986 64.881 285.12 64.5788C285.253 64.277 285.441 64.0148 285.686 63.7928C285.93 63.571 286.225 63.391 286.572 63.2532C286.918 63.1156 287.3 63.0246 287.718 62.98V62.2072H289.103V63.0066C289.583 63.0778 290.025 63.1954 290.429 63.3596C290.833 63.524 291.217 63.735 291.581 63.9924L290.689 65.5512C290.422 65.3736 290.151 65.216 289.876 65.0782C289.601 64.9406 289.321 64.8362 289.037 64.7652V66.777C290.049 67.0526 290.784 67.4122 291.242 67.8562C291.699 68.3004 291.928 68.8954 291.928 69.6414V69.668C291.928 70.041 291.859 70.3786 291.722 70.6806C291.584 70.9826 291.393 71.2448 291.149 71.4666C290.904 71.6888 290.609 71.8708 290.263 72.0128C289.916 72.155 289.53 72.2482 289.104 72.2926V73.6116H287.718V72.2662H287.717ZM287.784 64.6456C287.464 64.6902 287.231 64.7856 287.084 64.932C286.938 65.0786 286.865 65.2584 286.865 65.4716V65.4982C286.865 65.7026 286.927 65.878 287.051 66.0244C287.175 66.171 287.42 66.3108 287.784 66.4442V64.6456ZM289.036 70.6274C289.667 70.5298 289.982 70.2456 289.982 69.7748V69.7482C289.982 69.5174 289.916 69.3286 289.783 69.182C289.649 69.0354 289.401 68.8956 289.037 68.7624V70.6274H289.036Z"
                fill="#1B1B25" />
            <path
                d="M289.607 80.8C295.955 80.8 301.101 75.6541 301.101 69.3062C301.101 62.9584 295.955 57.8124 289.607 57.8124C283.259 57.8124 278.113 62.9584 278.113 69.3062C278.113 75.6541 283.259 80.8 289.607 80.8Z"
                fill="#1B1B25" />
            <path
                d="M288.394 79.5876C294.742 79.5876 299.888 74.4416 299.888 68.0938C299.888 61.7459 294.742 56.6 288.394 56.6C282.046 56.6 276.9 61.7459 276.9 68.0938C276.9 74.4416 282.046 79.5876 288.394 79.5876Z"
                fill="#FFB54A" />
            <path
                d="M288.394 77.3734C283.29 77.3734 279.137 73.2206 279.137 68.1162C279.137 63.0118 283.29 58.859 288.394 58.859C293.498 58.859 297.651 63.0118 297.651 68.1162C297.651 73.2208 293.498 77.3734 288.394 77.3734ZM288.394 59.4592C283.62 59.4592 279.737 63.3428 279.737 68.1164C279.737 72.89 283.62 76.7736 288.394 76.7736C293.168 76.7736 297.051 72.89 297.051 68.1164C297.051 63.3428 293.168 59.4592 288.394 59.4592Z"
                fill="#FCF0E3" />
            <path
                d="M276.942 67.9748C279.814 67.9748 282.142 65.6464 282.142 62.7742C282.142 59.902 279.814 57.5736 276.942 57.5736C274.07 57.5736 271.741 59.902 271.741 62.7742C271.741 65.6464 274.07 67.9748 276.942 67.9748Z"
                fill="#1B1B25" />
            <path
                d="M276.393 67.4264C279.265 67.4264 281.594 65.098 281.594 62.2258C281.594 59.3536 279.265 57.0252 276.393 57.0252C273.521 57.0252 271.192 59.3536 271.192 62.2258C271.192 65.098 273.521 67.4264 276.393 67.4264Z"
                fill="#FFB54A" />
            <path
                d="M276.393 66.4246C274.083 66.4246 272.204 64.5456 272.204 62.236C272.204 59.9264 274.083 58.0474 276.393 58.0474C278.702 58.0474 280.581 59.9264 280.581 62.236C280.581 64.5456 278.702 66.4246 276.393 66.4246ZM276.393 58.3188C274.233 58.3188 272.476 60.076 272.476 62.236C272.476 64.3958 274.233 66.1532 276.393 66.1532C278.553 66.1532 280.31 64.396 280.31 62.236C280.31 60.076 278.552 58.3188 276.393 58.3188Z"
                fill="#FCF0E3" />
            <path
                d="M270.519 71.5646C270.519 70.3172 269.508 69.3062 268.261 69.3062C269.508 69.3062 270.519 68.295 270.519 67.0478C270.519 68.295 271.53 69.3062 272.778 69.3062C271.53 69.3062 270.519 70.3172 270.519 71.5646Z"
                fill="white" />
            <path
                d="M297.051 82.9192C297.051 82.0032 296.309 81.2606 295.393 81.2606C296.309 81.2606 297.051 80.518 297.051 79.602C297.051 80.518 297.794 81.2606 298.71 81.2606C297.794 81.2606 297.051 82.0032 297.051 82.9192Z"
                fill="white" />
            <path
                d="M286.21 90.907C286.21 89.2226 284.845 87.857 283.16 87.857C284.845 87.857 286.21 86.4916 286.21 84.807C286.21 86.4914 287.576 87.857 289.26 87.857C287.576 87.8572 286.21 89.2226 286.21 90.907Z"
                fill="white" />
            <path
                d="M296.739 67.3754C296.739 65.797 295.459 64.5174 293.881 64.5174C295.459 64.5174 296.739 63.2378 296.739 61.6592C296.739 63.2376 298.018 64.5174 299.597 64.5174C298.018 64.5172 296.739 65.7968 296.739 67.3754Z"
                fill="#FCF0E3" />
            <path
                d="M306.293 69.3062C306.293 68.4354 305.588 67.7296 304.717 67.7296C305.587 67.7296 306.293 67.0238 306.293 66.153C306.293 67.0238 306.999 67.7296 307.87 67.7296C306.999 67.7296 306.293 68.4354 306.293 69.3062Z"
                fill="white" />
            <path
                d="M257.984 64.0458H240.424C238.618 64.0458 237.153 65.5098 237.153 67.316C237.153 69.122 238.617 70.586 240.424 70.586H254.895L256.886 72.4002V70.586H257.984C259.79 70.586 261.254 69.122 261.254 67.316C261.254 65.5098 259.79 64.0458 257.984 64.0458Z"
                fill="url(#paint1_linear_220_20787)" />
            <path
                d="M242.005 66.9035C242.211 66.7323 242.342 66.4743 242.342 66.1854C242.342 65.6701 241.924 65.2525 241.409 65.2525C240.894 65.2525 240.476 65.6703 240.476 66.1854C240.476 66.4742 240.607 66.7323 240.813 66.9035C240.328 67.0817 239.944 67.4703 239.774 67.9593C239.657 68.2969 239.87 68.6436 240.216 68.7344C240.963 68.9308 242.012 68.9307 242.684 68.734C242.988 68.645 243.158 68.3332 243.067 68.0298C242.91 67.5078 242.513 67.0902 242.005 66.9035Z"
                fill="#FFB54A" />
            <path
                d="M258.203 65.8038H245.621C245.565 65.8038 245.521 65.759 245.521 65.7038C245.521 65.6486 245.565 65.6038 245.621 65.6038H258.203C258.259 65.6038 258.303 65.6486 258.303 65.7038C258.303 65.759 258.259 65.8038 258.203 65.8038Z"
                fill="white" />
            <path
                d="M256.251 68.7562H245.621C245.565 68.7562 245.521 68.7114 245.521 68.6562C245.521 68.601 245.565 68.5562 245.621 68.5562H256.251C256.306 68.5562 256.351 68.601 256.351 68.6562C256.351 68.7116 256.306 68.7562 256.251 68.7562Z"
                fill="white" />
            <path
                d="M253.356 67.3734H245.621C245.565 67.3734 245.521 67.3286 245.521 67.2734C245.521 67.2182 245.565 67.1734 245.621 67.1734H253.356C253.411 67.1734 253.456 67.2182 253.456 67.2734C253.456 67.3286 253.411 67.3734 253.356 67.3734Z"
                fill="white" />
            <path
                d="M258.203 67.3734H254.321C254.266 67.3734 254.221 67.3286 254.221 67.2734C254.221 67.2182 254.266 67.1734 254.321 67.1734H258.203C258.258 67.1734 258.303 67.2182 258.303 67.2734C258.303 67.3286 258.258 67.3734 258.203 67.3734Z"
                fill="white" />
            <path
                d="M242.339 68.0538C242.283 68.0538 242.228 68.0328 242.186 67.9906L241.643 67.448C241.559 67.3636 241.559 67.2268 241.643 67.1425C241.728 67.0582 241.864 67.0582 241.949 67.1425L242.339 67.5325L243.386 66.485C243.471 66.4007 243.607 66.4007 243.692 66.485C243.776 66.5693 243.776 66.7062 243.692 66.7905L242.491 67.9907C242.449 68.0326 242.394 68.0538 242.339 68.0538Z"
                fill="white" />
            <path
                d="M303.71 94.3294L303.716 94.3064L306.612 84.2332L306.599 84.2238C306.73 83.969 307.067 83.4222 307.758 82.9404C308.952 82.1078 309.094 80.7284 309.094 80.7284C309.731 80.1114 310.45 79.585 311.101 78.9824C311.169 78.9196 311.239 78.8506 311.259 78.7602C311.282 78.6594 311.235 78.5564 311.177 78.4708C310.841 77.973 310.224 77.901 309.71 78.131C309.409 78.2656 309.14 78.4572 308.888 78.6678C308.769 78.7676 308.361 79.0422 308.237 79.225L310.54 74.307C310.745 73.8704 310.611 73.372 310.243 73.1996C310.059 73.1134 309.85 73.1244 309.661 73.2116C309.542 73.2668 309.432 73.3556 309.341 73.4666C309.348 73.4306 309.352 73.4092 309.352 73.4092C306.654 71.1408 303.326 78.8618 303.326 78.8618L302.381 81.091L294.369 95.9464C293.236 98.1018 294.109 100.767 296.298 101.834C296.33 101.85 296.361 101.863 296.393 101.878C297.035 102.248 297.78 102.462 298.575 102.462H314.343L317.741 94.3862L303.71 94.3294Z"
                fill="#FEC29E" />
            <path opacity="0.17"
                d="M301.009 102.457C300.497 102.442 300.807 102.451 301.009 102.457V102.457Z"
                fill="#FF887C" />
            <path opacity="0.17"
                d="M301.012 102.457C301.084 102.46 301.142 102.461 301.142 102.461C301.092 102.46 301.051 102.459 301.012 102.457Z"
                fill="#FF887C" />
            <path opacity="0.17"
                d="M303.716 94.3064L303.257 95.9024C303.138 96.3454 303 96.8212 302.853 97.3064L302.299 99.2352C302.222 99.4826 302.125 99.7172 302.012 99.9388C301.534 101.367 301.141 102.461 301.141 102.461L306.811 94.3418C305.401 94.3418 305.077 94.308 303.716 94.3064Z"
                fill="#FF887C" />
            <path
                d="M305.999 79.7274C305.979 79.7274 305.958 79.721 305.94 79.7078C305.896 79.675 305.886 79.6124 305.919 79.568C306.925 78.203 308.278 78.9406 308.292 78.948C308.34 78.975 308.357 79.0358 308.33 79.084C308.303 79.132 308.242 79.1492 308.194 79.1226C308.144 79.0952 306.98 78.4664 306.08 79.6868C306.06 79.7134 306.03 79.7274 305.999 79.7274Z"
                fill="#FB8E77" />
            <path
                d="M309.397 73.4472C308.982 73.971 308.595 74.522 308.252 75.0948C308.081 75.3816 307.927 75.6774 307.797 75.9812C307.67 76.2826 307.566 76.6066 307.583 76.9122L307.583 76.9184C307.586 76.9736 307.544 77.0206 307.489 77.0236C307.434 77.0266 307.387 76.9842 307.384 76.9292C307.384 76.9286 307.384 76.9274 307.383 76.9268C307.373 76.555 307.495 76.2226 307.632 75.9106C307.772 75.5984 307.936 75.3 308.116 75.0124C308.475 74.4376 308.874 73.893 309.306 73.3714C309.327 73.346 309.364 73.3424 309.39 73.3634C309.415 73.3842 309.418 73.421 309.398 73.4464L309.397 73.4472Z"
                fill="#FB8E77" />
            <path
                d="M308.702 73.1618C308.438 73.3434 308.201 73.584 307.989 73.8338C307.777 74.0864 307.591 74.3602 307.423 74.6444C307.258 74.931 307.114 75.2286 306.99 75.5352C306.925 75.687 306.876 75.8454 306.818 76L306.675 76.4748L306.673 76.4806C306.657 76.5334 306.601 76.5634 306.549 76.5474C306.496 76.5314 306.466 76.4756 306.482 76.4228C306.482 76.4224 306.482 76.4214 306.482 76.421L306.638 75.9382C306.7 75.7808 306.753 75.62 306.823 75.4656C306.955 75.154 307.109 74.8518 307.284 74.5614C307.461 74.273 307.657 73.9958 307.881 73.7404C308.106 73.486 308.346 73.248 308.637 73.0554C308.666 73.0366 308.704 73.0444 308.723 73.073C308.742 73.1012 308.735 73.1392 308.707 73.1582L308.702 73.1618Z"
                fill="#FB8E77" />
            <path
                d="M307.612 73.2386C307.229 73.6394 306.873 74.0724 306.565 74.5326C306.413 74.7638 306.267 74.9998 306.152 75.2488C306.036 75.4966 305.941 75.7542 305.899 76.017L305.899 76.0194C305.89 76.074 305.839 76.1112 305.785 76.1026C305.73 76.094 305.693 76.0428 305.701 75.9882C305.701 75.9876 305.702 75.9864 305.702 75.9858C305.755 75.6952 305.864 75.426 305.991 75.1702C306.117 74.9134 306.273 74.6754 306.434 74.4432C306.761 73.9808 307.13 73.5548 307.53 73.1558C307.553 73.133 307.59 73.1332 307.612 73.156C307.635 73.1784 307.635 73.2146 307.613 73.2374L307.612 73.2386Z"
                fill="#FB8E77" />
            <path
                d="M340.101 108.997L336.233 98.4534C335.773 96.1398 333.572 94.386 330.924 94.386L320.12 94.3002L307.947 94.3466V102.462H311.725L309.775 123.627L336.579 123.778L336.429 109.446L340.101 108.997Z"
                fill="url(#paint2_linear_220_20787)" />
            <path opacity="0.05"
                d="M320.1 94.3904L320.121 94.3L307.948 94.3464V102.461H311.726L311.746 102.247C311.746 97.9644 315.469 94.4842 320.1 94.3904Z"
                fill="#1B1B25" />
            <path opacity="0.18"
                d="M304.716 82.6476C304.716 82.6476 305.399 88.4506 305.439 88.3108C305.479 88.171 306.611 84.2332 306.611 84.2332L304.716 82.6476Z"
                fill="#FF887C" />
            <path
                d="M320.672 112.026L319.649 106.87L318.86 102.893C318.767 102.425 318.308 102.118 317.84 102.211L313.889 102.995C313.421 103.087 313.114 103.546 313.207 104.014L314.001 108.018L314.631 111.193L315.019 113.148C315.112 113.616 315.571 113.922 316.039 113.83L318.372 113.367L319.99 113.046C320.458 112.953 320.765 112.494 320.672 112.026Z"
                fill="#1B1B25" />
            <path
                d="M341.704 116.777L339.922 109.019L331.821 110.01L332.266 111.984L332.224 111.973L323.418 109.793L323.411 109.804C323.168 109.682 322.711 109.392 322.31 108.792C321.571 107.689 320.331 107.658 320.331 107.658C320.092 107.408 319.869 107.14 319.649 106.87L319.856 107.91L319.804 107.938C319.244 108.234 318.612 108.366 317.981 108.316C316.812 108.225 314.903 108.076 314.109 108.014C313.866 107.995 313.634 108.124 313.529 108.344C312.396 110.726 317.262 112.906 318.373 113.366H318.372C318.387 113.372 318.398 113.377 318.412 113.383C318.428 113.389 318.443 113.396 318.457 113.401C318.473 113.408 318.486 113.413 318.499 113.418C318.512 113.423 318.525 113.429 318.535 113.433C318.549 113.438 318.559 113.442 318.568 113.446C318.572 113.447 318.578 113.449 318.581 113.451C318.592 113.455 318.597 113.457 318.597 113.457L320.502 114.171L335.579 121.592C335.719 121.659 335.861 121.718 336.004 121.769C336.735 122.103 337.576 122.212 338.42 122.018C340.774 121.478 342.244 119.131 341.704 116.777Z"
                fill="#FEC29E" />
            <path opacity="0.17"
                d="M341.129 114.276L331.821 110.01C332.132 111.364 331.951 110.766 332.225 111.973L332.858 112.13C335.539 112.311 341.129 114.276 341.129 114.276Z"
                fill="#FF887C" />
            <path opacity="0.35"
                d="M331.068 110.11C331.022 110.11 330.98 110.077 330.971 110.031L329.808 104.397C329.796 104.343 329.831 104.29 329.885 104.279C329.938 104.266 329.992 104.302 330.004 104.356L331.148 109.899L335.065 109.401C335.119 109.393 335.17 109.433 335.177 109.488C335.184 109.542 335.145 109.592 335.091 109.6L331.082 110.11C331.077 110.11 331.073 110.11 331.068 110.11Z"
                fill="#1B1B25" />
            <path
                d="M330.151 73.4982C329.904 71.7998 328.355 70.5912 326.637 70.7854C326.181 70.837 325.76 70.9838 325.388 71.2012C324.835 70.2968 323.795 69.7428 322.672 69.8698C322.031 69.9424 321.466 70.2274 321.035 70.644C320.416 70.3334 319.703 70.1908 318.963 70.2746C316.929 70.5046 315.467 72.3398 315.697 74.3736C315.804 75.3248 316.264 76.1498 316.93 76.7362L316.177 80.7598C315.96 81.9148 316.721 83.0264 317.876 83.2428L326.801 84.9136C327.956 85.1298 329.068 84.3688 329.284 83.2136L330.746 75.403C330.881 74.682 330.635 73.9782 330.151 73.4982Z"
                fill="#1B1B25" />
            <path
                d="M317.143 75.6984C317.11 75.6984 317.078 75.6818 317.058 75.6518C315.464 73.129 317.66 71.5112 317.682 71.4952C317.727 71.4628 317.789 71.4734 317.822 71.5182C317.854 71.563 317.844 71.6254 317.799 71.6576C317.714 71.7188 315.735 73.1836 317.228 75.5448C317.257 75.5914 317.243 75.6534 317.197 75.6828C317.18 75.6934 317.161 75.6984 317.143 75.6984Z"
                fill="#FCF0E3" />
            <path
                d="M328.707 81.386L328.512 81.3494L326.542 77.1148C326.057 77.0448 325.603 76.866 325.209 76.5994C324.831 77.0086 324.311 77.2906 323.714 77.358C322.996 77.4392 322.317 77.1936 321.822 76.7416C321.273 77.2242 320.577 77.5512 319.796 77.6396C318.902 77.7406 318.047 77.5144 317.349 77.057L315.977 84.3878C315.787 85.4006 315.995 86.3934 316.485 87.2132C316.973 88.4194 318.022 89.3668 319.371 89.6776V94.5186C319.371 96.2002 320.747 97.5762 322.429 97.5762H323.393C325.075 97.5762 326.451 96.2004 326.451 94.5186V89.022C326.947 88.477 327.305 87.7954 327.451 87.0178L327.701 85.6792L327.897 85.7158C329.055 85.9326 330.18 85.1622 330.397 84.0038L330.419 83.8864C330.636 82.728 329.866 81.6028 328.707 81.386Z"
                fill="#FEC29E" />
            <path opacity="0.32"
                d="M327.248 85.5094L327.069 86.4644C326.657 88.6674 324.537 90.119 322.334 89.7066L319.219 89.1236C318.029 88.9008 317.061 88.1772 316.485 87.2136C316.993 88.4698 318.107 89.4502 319.538 89.718L319.662 89.7412C320.157 90.7666 321.205 91.4802 322.415 91.4802H323.392C324.835 91.4802 326.05 90.4662 326.366 89.1162C326.907 88.5572 327.297 87.8398 327.451 87.0178L327.702 85.6792L327.248 85.5094Z"
                fill="#FF887C" />
            <path
                d="M328.878 84.2574C328.857 84.2574 328.835 84.2506 328.817 84.2364L328.039 83.6324C328.016 83.6146 328.002 83.5874 328 83.5582C327.999 83.5292 328.01 83.5008 328.031 83.4806L328.991 82.5748C329.031 82.5372 329.095 82.5388 329.132 82.579C329.17 82.6192 329.168 82.6824 329.128 82.7204L328.253 83.546L328.939 84.0784C328.983 84.1122 328.991 84.175 328.957 84.2188C328.938 84.244 328.908 84.2574 328.878 84.2574Z"
                fill="#FB8E77" />
            <path
                d="M323.929 80.536C323.779 80.5316 323.624 80.4406 323.469 80.3612C323.315 80.278 323.159 80.1982 323.02 80.1338C322.882 80.069 322.72 80.0002 322.557 79.9358C322.397 79.8684 322.227 79.808 322.129 79.6966C322.033 79.5908 322.052 79.4238 322.276 79.3122C322.489 79.2012 322.922 79.175 323.382 79.388C323.84 79.603 324.093 79.9496 324.14 80.1816C324.193 80.4222 324.073 80.5418 323.929 80.536Z"
                fill="#1B1B25" />
            <path
                d="M317.566 79.9876C317.695 80.059 317.874 80.0688 318.047 80.087C318.221 80.102 318.396 80.121 318.547 80.1424C318.699 80.1636 318.872 80.1934 319.044 80.2266C319.215 80.2564 319.391 80.2964 319.533 80.263C319.669 80.2324 319.741 80.1 319.611 79.9064C319.489 79.7188 319.135 79.4838 318.633 79.4124C318.132 79.3434 317.735 79.4732 317.573 79.6212C317.402 79.7724 317.44 79.9204 317.566 79.9876Z"
                fill="#1B1B25" />
            <path
                d="M322.459 82.2456L322.472 82.2482C322.606 82.2732 322.736 82.1842 322.761 82.0504L322.821 81.7336C322.846 81.5998 322.757 81.4698 322.623 81.4448L322.609 81.4422C322.475 81.4172 322.345 81.5062 322.32 81.6398L322.261 81.9566C322.236 82.0908 322.325 82.2206 322.459 82.2456Z"
                fill="#1B1B25" />
            <path
                d="M318.147 81.5452L318.161 81.5478C318.295 81.5728 318.425 81.4838 318.45 81.3502L318.509 81.0334C318.534 80.8996 318.445 80.7696 318.311 80.7446L318.298 80.742C318.164 80.717 318.034 80.806 318.009 80.9396L317.95 81.2564C317.925 81.3902 318.014 81.5202 318.147 81.5452Z"
                fill="#1B1B25" />
            <path opacity="0.17"
                d="M322.636 83.3918L323.521 83.4914C323.689 83.5102 323.841 83.3886 323.86 83.2212L323.862 83.2042C323.881 83.0366 323.759 82.8842 323.592 82.8654L322.707 82.7658C322.539 82.747 322.387 82.8686 322.368 83.036L322.366 83.053C322.347 83.2206 322.469 83.373 322.636 83.3918Z"
                fill="#FF887C" />
            <path opacity="0.17"
                d="M316.799 82.4724L317.684 82.572C317.852 82.5908 318.004 82.4692 318.023 82.3018L318.025 82.2848C318.044 82.1172 317.922 81.9648 317.755 81.946L316.87 81.8464C316.703 81.8276 316.55 81.9492 316.531 82.1166L316.529 82.1336C316.51 82.301 316.632 82.4536 316.799 82.4724Z"
                fill="#FF887C" />
            <path
                d="M319.378 87.0002C319.348 87.0002 319.317 86.986 319.298 86.9592C319.265 86.9146 319.275 86.852 319.319 86.8194C319.738 86.5132 320.208 86.685 320.398 86.8184C320.443 86.8502 320.454 86.9122 320.422 86.9574C320.39 87.0026 320.328 87.0134 320.283 86.9822C320.265 86.9696 319.844 86.684 319.437 86.981C319.419 86.9938 319.399 87.0002 319.378 87.0002Z"
                fill="#FB8E77" />
            <path
                d="M320.055 84.1572L322.393 83.823L322.137 84.6354C321.973 85.1556 321.491 85.5092 320.945 85.5092C320.521 85.5092 320.165 85.1894 320.12 84.7676L320.055 84.1572Z"
                fill="white" />
            <path
                d="M320.66 83.3282C320.652 83.3282 320.643 83.3272 320.635 83.325L319.909 83.1362C319.602 83.0562 319.354 82.8426 319.229 82.5506C319.104 82.2584 319.12 81.9314 319.274 81.6538L320.379 79.666C320.406 79.6172 320.467 79.6004 320.515 79.6272C320.563 79.654 320.581 79.715 320.554 79.7632L319.449 81.751C319.325 81.9744 319.312 82.2372 319.412 82.472C319.513 82.707 319.712 82.8786 319.96 82.943L320.685 83.1318C320.738 83.1456 320.77 83.2004 320.756 83.2538C320.745 83.2984 320.704 83.3282 320.66 83.3282Z"
                fill="#FB8E77" />
            <path
                d="M286.697 97.7076L278.685 82.8522L277.74 80.6232C277.74 80.6232 274.411 72.9022 271.714 75.1706C271.714 75.1706 271.718 75.192 271.725 75.2278C271.633 75.1168 271.524 75.028 271.405 74.9728C271.216 74.8856 271.007 74.8748 270.823 74.961C270.455 75.1334 270.321 75.6318 270.525 76.0684L272.829 80.9864C272.705 80.8036 272.297 80.5292 272.177 80.4292C271.925 80.2186 271.656 80.027 271.356 79.8924C270.842 79.6624 270.225 79.7344 269.889 80.2322C269.831 80.3178 269.784 80.4208 269.806 80.5216C269.826 80.612 269.897 80.681 269.965 80.7438C270.616 81.3466 271.334 81.8728 271.972 82.4898C271.972 82.4898 272.114 83.8692 273.308 84.7018C273.998 85.1836 274.336 85.7304 274.466 85.9852L274.454 85.9946L277.356 96.0908L273.118 96.1474V104.223H282.491C283.287 104.223 284.032 104.009 284.675 103.637C284.706 103.623 284.737 103.61 284.768 103.595C286.957 102.528 287.83 99.863 286.697 97.7076Z"
                fill="#FEC29E" />
            <path opacity="0.17"
                d="M279.924 104.223C279.924 104.223 277.746 98.3628 277.372 96.0674C275.929 96.0674 275.71 96.1318 274.267 96.1318L279.924 104.223Z"
                fill="#FF887C" />
            <path
                d="M275.067 81.4886C275.036 81.4886 275.006 81.4746 274.986 81.448C274.086 80.2276 272.921 80.8564 272.872 80.884C272.824 80.9106 272.763 80.8936 272.736 80.8454C272.709 80.7974 272.727 80.7366 272.775 80.7094C272.788 80.7018 274.141 79.9648 275.147 81.3292C275.18 81.3736 275.171 81.4364 275.126 81.469C275.108 81.4824 275.087 81.4886 275.067 81.4886Z"
                fill="#FB8E77" />
            <path
                d="M271.756 75.1278C271.999 75.3702 272.219 75.6276 272.429 75.8956C272.638 76.1644 272.834 76.444 273.009 76.7376C273.181 77.0326 273.335 77.34 273.457 77.6622C273.573 77.987 273.655 78.326 273.682 78.6754C273.687 78.7304 273.645 78.7786 273.59 78.7828C273.535 78.7872 273.487 78.746 273.483 78.691C273.483 78.6906 273.483 78.69 273.483 78.6896L273.483 78.6854C273.463 78.3598 273.393 78.0366 273.288 77.7228C273.177 77.4108 273.034 77.1092 272.871 76.8178C272.706 76.5276 272.519 76.249 272.319 75.9804C272.118 75.713 271.903 75.4524 271.672 75.2126L271.671 75.2112C271.648 75.1874 271.649 75.1498 271.673 75.127C271.696 75.1046 271.733 75.105 271.756 75.1278Z"
                fill="#FB8E77" />
            <path
                d="M272.432 74.7432C272.758 74.9118 272.997 75.1628 273.221 75.4268C273.44 75.6934 273.632 75.9818 273.796 76.2836C273.965 76.583 274.106 76.8966 274.239 77.2126L274.421 77.6934L274.582 78.181C274.6 78.2334 274.571 78.29 274.519 78.3074C274.467 78.3248 274.41 78.2964 274.393 78.244C274.392 78.2436 274.392 78.2432 274.392 78.2428L274.391 78.2384L274.241 77.7554L274.071 77.2794C273.946 76.967 273.814 76.6566 273.653 76.3614C273.498 76.0634 273.317 75.7792 273.11 75.5174C272.904 75.2604 272.661 75.0078 272.384 74.8578L272.374 74.8528C272.344 74.8366 272.333 74.799 272.349 74.769C272.365 74.739 272.402 74.7278 272.432 74.7432Z"
                fill="#FB8E77" />
            <path
                d="M273.531 74.9124C273.755 75.0936 273.954 75.2942 274.141 75.5078C274.329 75.721 274.501 75.9476 274.655 76.1866C274.81 76.4246 274.951 76.6736 275.067 76.934C275.19 77.1918 275.28 77.4636 275.362 77.7374C275.378 77.7902 275.348 77.846 275.295 77.862C275.242 77.8778 275.186 77.848 275.17 77.795C275.17 77.7944 275.17 77.7938 275.17 77.7932L275.168 77.7882C275.095 77.5232 275.016 77.2588 274.903 77.0066C274.797 76.752 274.667 76.507 274.521 76.2716C274.377 76.0352 274.215 75.81 274.037 75.5974C273.86 75.3852 273.667 75.181 273.459 75.0046L273.456 75.0024C273.432 74.9816 273.429 74.9448 273.449 74.9202C273.47 74.896 273.506 74.8928 273.531 74.9124Z"
                fill="#FB8E77" />
            <path opacity="0.18"
                d="M274.093 85.4234L277.189 85.0412L275.274 88.8494C275.274 88.8494 274.705 86.0176 274.093 85.4234Z"
                fill="#FF887C" />
            <path
                d="M261.65 96.1472L261.651 96.1508C261.603 96.1496 261.556 96.1472 261.508 96.1472H251.724C249.6 96.1472 247.789 97.4808 247.079 99.3562L247.078 99.356L247.063 99.3966C247.06 99.403 247.058 99.4096 247.055 99.416L242.895 110.758L246.757 111.231V123.827H267.78L269.352 104.223H273.009V96.1076L261.65 96.1472Z"
                fill="white" />
            <path opacity="0.05"
                d="M273.117 96.1078L261.948 96.1544L261.948 96.1558C266.136 96.3302 269.477 99.7784 269.477 104.009L269.46 104.223H273.117V96.1078Z"
                fill="#1B1B25" />
            <path
                d="M269.217 104.756L265.265 103.972C264.797 103.879 264.339 104.186 264.246 104.654L263.457 108.632L262.434 113.787C262.341 114.255 262.648 114.714 263.116 114.807L264.733 115.128L267.067 115.591C267.535 115.684 267.993 115.377 268.086 114.909L268.474 112.954L269.104 109.779L269.898 105.775C269.991 105.307 269.685 104.849 269.217 104.756Z"
                fill="#1B1B25" />
            <path
                d="M269.631 110.064C269.581 109.961 269.503 109.879 269.409 109.821C269.393 109.797 269.379 109.772 269.361 109.747C269.361 109.747 269.325 109.751 269.266 109.759C269.198 109.739 269.125 109.729 269.051 109.735C268.258 109.797 266.348 109.946 265.179 110.037C264.548 110.086 263.916 109.955 263.356 109.658L263.263 109.609L263.457 108.632C263.248 108.888 263.036 109.141 262.81 109.38C262.696 109.386 262.044 109.444 261.434 109.899C261.208 110.058 260.986 110.27 260.796 110.553C260.558 110.909 260.301 111.154 260.08 111.322C259.951 111.415 259.836 111.481 259.749 111.525L259.742 111.514L250.935 113.694L250.894 113.704L251.341 111.721L243.238 110.74L241.457 118.498C240.916 120.852 242.386 123.198 244.74 123.739C245.584 123.933 246.426 123.824 247.157 123.489C247.3 123.438 247.441 123.38 247.581 123.313L262.488 115.975L264.508 115.218C264.508 115.218 264.59 115.187 264.733 115.127L264.704 115.122C265.625 114.746 270.795 112.512 269.631 110.064Z"
                fill="#FEC29E" />
            <path opacity="0.35"
                d="M252.037 111.862C252.033 111.862 252.029 111.862 252.024 111.861L250.257 111.643C250.202 111.636 250.163 111.586 250.17 111.531C250.177 111.477 250.227 111.437 250.281 111.444L251.953 111.651L252.883 105.712C252.892 105.657 252.943 105.621 252.998 105.628C253.052 105.637 253.09 105.688 253.081 105.743L252.135 111.777C252.128 111.827 252.085 111.862 252.037 111.862Z"
                fill="#1B1B25" />
            <path
                d="M266.694 93.5922L265.336 84.3546C265.188 83.3426 264.894 82.3882 264.481 81.5072L265.218 81.3888C265.218 81.3888 264.701 73.8908 256.291 75.681C255.463 75.5954 254.611 75.6098 253.749 75.7364C249.664 76.3366 246.839 80.135 247.439 84.2204L248.23 89.6054C248.83 93.6908 252.629 96.516 256.714 95.9158L265.978 94.5546C266.441 94.4864 266.762 94.0556 266.694 93.5922Z"
                fill="#1B1B25" />
            <path
                d="M261.115 81.0946C261.065 81.0946 261.023 81.0582 261.016 81.0082C261.008 80.9534 261.046 80.903 261.101 80.8954L263.805 80.526C263.827 80.523 263.847 80.5112 263.86 80.4934C263.867 80.4836 263.878 80.463 263.873 80.4362C263.436 77.9986 261.19 76.874 261.168 76.863C261.118 76.8388 261.098 76.7788 261.122 76.7292C261.146 76.6796 261.206 76.6588 261.256 76.6832C261.279 76.6946 263.614 77.8612 264.07 80.4006C264.083 80.4746 264.066 80.5492 264.021 80.6106C263.976 80.6724 263.908 80.7136 263.832 80.7238L261.128 81.0932C261.124 81.0944 261.119 81.0946 261.115 81.0946Z"
                fill="#FCF0E3" />
            <path
                d="M263.72 81.6294L256.317 82.8188L254.521 80.1616C254.874 83.1264 252.688 85.0414 252.688 85.0414C252.688 85.0414 252.665 85.0108 252.626 84.9546L252.565 84.966C251.407 85.1828 250.636 86.308 250.853 87.4664C251.07 88.6248 252.195 89.3952 253.353 89.1784L253.495 89.152C253.748 90.2628 254.319 91.225 255.097 91.9558V96.7C255.097 98.3816 256.473 99.7576 258.154 99.7576C259.836 99.7576 261.212 98.3816 261.212 96.7V92.9534C262.43 92.3928 263.384 91.4138 263.928 90.23C263.929 90.2282 263.93 90.2264 263.931 90.2246C264.593 89.1162 264.87 87.772 264.614 86.4034L263.72 81.6294Z"
                fill="#FEC29E" />
            <path opacity="0.32"
                d="M260.228 92.8092C257.486 93.3226 254.838 91.7002 253.999 89.1154C253.971 89.0306 253.488 89.1416 253.5 89.1936C253.759 90.2944 254.335 91.2458 255.112 91.9696C255.255 93.5204 256.568 94.7454 258.155 94.7454C259.328 94.7454 260.351 94.0744 260.863 93.098C262.25 92.572 263.337 91.521 263.932 90.2246C263.153 91.5296 261.84 92.5074 260.228 92.8092Z"
                fill="#FF887C" />
            <path
                d="M252.341 87.7728C252.311 87.7728 252.282 87.7596 252.262 87.7342C252.228 87.6906 252.236 87.6278 252.28 87.5938L252.945 87.0778L252.096 86.2768C252.056 86.239 252.054 86.1756 252.092 86.1354C252.13 86.0952 252.193 86.0936 252.233 86.1312L253.167 87.0124C253.188 87.0326 253.199 87.0608 253.198 87.09C253.197 87.1192 253.182 87.1464 253.159 87.1642L252.402 87.7518C252.384 87.766 252.362 87.7728 252.341 87.7728Z"
                fill="#FB8E77" />
            <path
                d="M257.667 84.1268C257.756 84.1242 257.848 84.0702 257.94 84.023C258.031 83.9736 258.124 83.9262 258.206 83.888C258.289 83.8496 258.385 83.8088 258.482 83.7704C258.577 83.7304 258.678 83.6946 258.736 83.6284C258.793 83.5656 258.781 83.4666 258.649 83.4002C258.522 83.3344 258.265 83.3188 257.992 83.4452C257.72 83.5728 257.569 83.7786 257.542 83.9162C257.51 84.0592 257.582 84.1302 257.667 84.1268Z"
                fill="#1B1B25" />
            <path
                d="M262.972 83.204C262.886 83.2262 262.783 83.1996 262.682 83.1798C262.58 83.1576 262.478 83.1378 262.388 83.1238C262.298 83.1096 262.195 83.097 262.091 83.087C261.989 83.0748 261.882 83.0684 261.808 83.0208C261.736 82.976 261.719 82.8778 261.828 82.7774C261.932 82.6792 262.175 82.593 262.472 82.639C262.769 82.6864 262.97 82.8426 263.035 82.9672C263.104 83.0958 263.056 83.1836 262.972 83.204Z"
                fill="#1B1B25" />
            <path
                d="M259.975 88.2646C259.154 88.2646 258.607 87.6208 258.6 87.6124C258.565 87.57 258.571 87.507 258.613 87.4716C258.655 87.4364 258.718 87.442 258.754 87.4842C258.786 87.5222 259.545 88.4086 260.605 87.9192C260.655 87.896 260.714 87.918 260.738 87.9682C260.761 88.0184 260.739 88.0778 260.689 88.101C260.435 88.2184 260.195 88.2646 259.975 88.2646Z"
                fill="#FB8E77" />
            <path
                d="M260.572 86.8688C260.525 86.8688 260.483 86.8358 260.474 86.7882C260.463 86.734 260.498 86.6814 260.552 86.6708L261.256 86.5324C261.693 86.4464 261.978 86.0208 261.892 85.5838C261.861 85.4258 261.708 85.3232 261.55 85.3538C261.18 85.426 260.821 85.185 260.748 84.8156L260.578 83.953C260.567 83.8988 260.603 83.8462 260.657 83.8356C260.711 83.825 260.764 83.8604 260.774 83.9144L260.944 84.7772C260.995 85.0386 261.25 85.2092 261.511 85.1578C261.64 85.1326 261.771 85.1588 261.88 85.232C261.989 85.3052 262.063 85.4164 262.088 85.5454C262.196 86.0906 261.839 86.6216 261.294 86.729L260.591 86.8674C260.585 86.8682 260.578 86.8688 260.572 86.8688Z"
                fill="#FB8E77" />
            <path
                d="M258.58 85.8142C258.446 85.8392 258.316 85.7502 258.291 85.6164L258.236 85.3214C258.211 85.1876 258.3 85.0576 258.433 85.0326C258.567 85.0076 258.697 85.0966 258.722 85.2302L258.777 85.5252C258.802 85.6592 258.713 85.7892 258.58 85.8142Z"
                fill="#1B1B25" />
            <path
                d="M262.774 85.1328C262.64 85.1578 262.51 85.0688 262.485 84.9352L262.43 84.6402C262.405 84.5064 262.494 84.3764 262.628 84.3514C262.761 84.3264 262.891 84.4154 262.916 84.5492L262.972 84.8442C262.997 84.9778 262.908 85.1076 262.774 85.1328Z"
                fill="#1B1B25" />
            <path opacity="0.17"
                d="M258.405 86.929L257.56 87.024C257.393 87.0428 257.24 86.9212 257.222 86.7538C257.203 86.5862 257.324 86.4338 257.492 86.415L258.336 86.32C258.504 86.3012 258.656 86.4228 258.675 86.5902C258.694 86.7576 258.572 86.9102 258.405 86.929Z"
                fill="#FF887C" />
            <path opacity="0.17"
                d="M264.084 86.0344L263.239 86.1294C263.072 86.1482 262.919 86.0266 262.9 85.8592C262.882 85.6916 263.003 85.5392 263.171 85.5204L264.015 85.4254C264.183 85.4066 264.335 85.5282 264.354 85.6956C264.373 85.8632 264.251 86.0156 264.084 86.0344Z"
                fill="#FF887C" />
            <path
                d="M261.582 90.4412C261.562 90.4412 261.541 90.435 261.524 90.422C261.13 90.1342 260.721 90.4114 260.704 90.4232C260.659 90.4548 260.597 90.4436 260.565 90.3984C260.533 90.3532 260.544 90.291 260.589 90.2594C260.775 90.1292 261.233 89.9616 261.642 90.2604C261.686 90.293 261.696 90.3556 261.663 90.4002C261.644 90.427 261.613 90.4412 261.582 90.4412Z"
                fill="#FB8E77" />
            <path
                d="M289.309 73.6279L285.966 70.155C285.921 70.1098 285.885 70.0533 285.858 69.9855C285.831 69.9176 285.817 69.8475 285.817 69.7752V69.4496C285.817 69.2959 285.869 69.167 285.973 69.063C286.077 68.959 286.206 68.907 286.36 68.907H287.719C288.199 68.907 288.614 68.751 288.962 68.439C289.311 68.1269 289.522 67.7403 289.594 67.2791H285.817C285.663 67.2791 285.534 67.2271 285.43 67.1231C285.326 67.0191 285.273 66.8902 285.273 66.7364C285.273 66.5827 285.326 66.4538 285.43 66.3498C285.534 66.2458 285.663 66.1938 285.817 66.1938H289.431C289.277 65.8773 289.048 65.6172 288.745 65.4138C288.441 65.2103 288.1 65.1085 287.719 65.1085H285.817C285.663 65.1085 285.534 65.0565 285.43 64.9525C285.326 64.8485 285.273 64.7196 285.273 64.5659C285.273 64.4121 285.326 64.2833 285.43 64.1793C285.534 64.0753 285.663 64.0233 285.817 64.0233H291.252C291.406 64.0233 291.535 64.0753 291.639 64.1793C291.743 64.2833 291.795 64.4121 291.795 64.5659C291.795 64.7196 291.743 64.8485 291.639 64.9525C291.535 65.0565 291.406 65.1085 291.252 65.1085H290.029C290.156 65.2623 290.269 65.4296 290.369 65.6105C290.468 65.7913 290.545 65.9858 290.6 66.1938H291.252C291.406 66.1938 291.535 66.2458 291.639 66.3498C291.743 66.4538 291.795 66.5827 291.795 66.7364C291.795 66.8902 291.743 67.0191 291.639 67.1231C291.535 67.2271 291.406 67.2791 291.252 67.2791H290.695C290.622 68.0478 290.305 68.6922 289.744 69.2122C289.182 69.7322 288.507 69.9922 287.719 69.9922H287.325L290.097 72.8682C290.26 73.0401 290.294 73.2368 290.199 73.4583C290.104 73.6799 289.938 73.7907 289.703 73.7907C289.63 73.7907 289.56 73.7771 289.492 73.75C289.424 73.7229 289.363 73.6822 289.309 73.6279Z"
                fill="#1B1B25" />
            <path
                d="M276.754 64.4186L275.321 62.9302C275.302 62.9109 275.286 62.8866 275.275 62.8576C275.263 62.8285 275.257 62.7985 275.257 62.7674V62.6279C275.257 62.562 275.28 62.5068 275.324 62.4622C275.369 62.4176 275.424 62.3954 275.49 62.3954H276.073C276.278 62.3954 276.456 62.3285 276.605 62.1948C276.755 62.0611 276.845 61.8954 276.876 61.6977H275.257C275.191 61.6977 275.136 61.6754 275.091 61.6308C275.047 61.5862 275.024 61.531 275.024 61.4651C275.024 61.3992 275.047 61.344 275.091 61.2994C275.136 61.2548 275.191 61.2326 275.257 61.2326H276.806C276.74 61.0969 276.642 60.9855 276.512 60.8983C276.382 60.8111 276.236 60.7674 276.073 60.7674H275.257C275.191 60.7674 275.136 60.7452 275.091 60.7006C275.047 60.656 275.024 60.6008 275.024 60.5349C275.024 60.469 275.047 60.4138 275.091 60.3692C275.136 60.3246 275.191 60.3023 275.257 60.3023H277.587C277.653 60.3023 277.708 60.3246 277.752 60.3692C277.797 60.4138 277.819 60.469 277.819 60.5349C277.819 60.6008 277.797 60.656 277.752 60.7006C277.708 60.7452 277.653 60.7674 277.587 60.7674H277.062C277.117 60.8333 277.165 60.905 277.208 60.9826C277.251 61.0601 277.284 61.1434 277.307 61.2326H277.587C277.653 61.2326 277.708 61.2548 277.752 61.2994C277.797 61.344 277.819 61.3992 277.819 61.4651C277.819 61.531 277.797 61.5862 277.752 61.6308C277.708 61.6754 277.653 61.6977 277.587 61.6977H277.348C277.317 62.0271 277.181 62.3033 276.94 62.5262C276.699 62.749 276.41 62.8605 276.073 62.8605H275.904L277.092 64.093C277.161 64.1667 277.176 64.251 277.135 64.3459C277.094 64.4409 277.024 64.4884 276.923 64.4884C276.892 64.4884 276.862 64.4826 276.832 64.4709C276.803 64.4593 276.777 64.4419 276.754 64.4186Z"
                fill="#1B1B25" />
        </g>
    </g>
    <defs>
        <filter id="filter0_d_220_20787" x="-7" y="0" width="374" height="138"
            filterUnits="userSpaceOnUse" color-interpolation-filters="sRGB">
            <feFlood flood-opacity="0" result="BackgroundImageFix" />
            <feColorMatrix in="SourceAlpha" type="matrix"
                values="0 0 0 0 0 0 0 0 0 0 0 0 0 0 0 0 0 0 127 0" result="hardAlpha" />
            <feOffset dy="4" />
            <feGaussianBlur stdDeviation="11.5" />
            <feComposite in2="hardAlpha" operator="out" />
            <feColorMatrix type="matrix"
                values="0 0 0 0 0.121569 0 0 0 0 0.121569 0 0 0 0 0.121569 0 0 0 0.2 0" />
            <feBlend mode="normal" in2="BackgroundImageFix" result="effect1_dropShadow_220_20787" />
            <feBlend mode="normal" in="SourceGraphic" in2="effect1_dropShadow_220_20787"
                result="shape" />
        </filter>
        <radialGradient id="paint0_radial_220_20787" cx="0" cy="0" r="1"
            gradientUnits="userSpaceOnUse"
            gradientTransform="translate(53.5 -146.5) rotate(62.3292) scale(243.33 243.329)">
            <stop stop-color="#858585" />
            <stop offset="1" stop-color="#1F1F1F" />
        </radialGradient>
        <linearGradient id="paint1_linear_220_20787" x1="237.177" y1="68.2251" x2="261.266"
            y2="68.2251" gradientUnits="userSpaceOnUse">
            <stop stop-color="#FF7304" />
            <stop offset="1" stop-color="#FB2A77" />
        </linearGradient>
        <linearGradient id="paint2_linear_220_20787" x1="307.979" y1="109.047" x2="340.118"
            y2="109.047" gradientUnits="userSpaceOnUse">
            <stop stop-color="#FF7304" />
            <stop offset="1" stop-color="#FB2A77" />
        </linearGradient>
        <clipPath id="clip0_220_20787">
            <rect x="16" y="19" width="328" height="92" rx="12" fill="white" />
        </clipPath>
    </defs>
</svg>
