<svg width="80" height="80" viewBox="0 0 80 80" fill="none" xmlns="http://www.w3.org/2000/svg">
    <path
        d="M23.0375 12.2832C25.0926 13.7517 30.0419 19.2954 31.8001 22.0793C33.0525 24.0594 33.4418 25.4318 30.8077 27.2186C30.6559 27.3228 30.4933 27.4267 30.3192 27.5328C29.2691 28.1788 28.3871 28.9919 27.8097 29.9697C26.6381 31.9369 26.6915 34.5701 29.0382 37.8544C32.5503 42.7703 37.0996 46.9605 41.1275 49.3872C44.9043 51.6615 47.3171 49.9839 48.6844 47.8242C48.7746 47.6781 48.8614 47.5338 48.944 47.3856C50.2555 45.0278 51.982 44.6375 54.8682 47.0204C57.7545 49.4033 61.1597 53.5489 62.7449 55.7969C64.0048 57.5859 64.1625 59.6551 63.1315 61.4904C62.8652 61.9625 62.5212 62.4208 62.0979 62.8514C61.9333 63.0201 61.762 63.1841 61.587 63.3417C60.6482 64.2014 59.5865 64.9177 58.439 65.4846C58.0809 65.6641 57.7163 65.8282 57.3419 65.9786C57.0049 66.1123 56.6599 66.2357 56.3102 66.3468C50.5357 68.1911 43.1924 66.8586 37.182 61.9904C28.8671 55.2542 16.9879 40.7514 14.0876 35.1994C11.1865 29.6498 9.99186 22.9695 17.1162 12.6573L17.1201 12.653C19.2786 9.5294 21.2744 11.0248 23.0375 12.2832Z"
        fill="#E9E9E9" />
    <path
        d="M54.8681 47.0206C57.7544 49.4035 61.1595 53.5491 62.7448 55.7971C64.0047 57.5861 64.1624 59.6553 63.1314 61.4906C62.8651 61.9627 62.5211 62.421 62.0977 62.8516C61.9332 63.0203 61.7619 63.1843 61.5869 63.3419C61.4315 61.1481 58.8302 57.2506 55.7083 53.6937C55.4839 53.4373 55.2573 53.1884 55.035 52.9435L55.0325 52.9428C52.2272 49.905 49.6171 48.0298 48.6843 47.8244C48.7744 47.6783 48.8613 47.534 48.9439 47.3858C50.2554 45.028 51.9819 44.6377 54.8681 47.0206Z"
        fill="#AAAAAA" />
    <path
        d="M23.0377 12.2827C25.0928 13.7512 30.0421 19.295 31.8003 22.0788C33.0528 24.0586 33.442 25.4313 30.808 27.2181C30.1276 24.8109 25.1649 18.899 24.0056 17.816C22.9088 16.7912 19.2644 12.954 17.1164 12.6569L17.1203 12.6525C19.2788 9.52892 21.2747 11.024 23.0377 12.2827Z"
        fill="#AAAAAA" />
    <path
        d="M41.8598 63.1969C41.2356 62.8941 40.6057 62.554 39.9724 62.1743C39.9102 62.1372 39.8297 62.1573 39.7926 62.2192C39.7555 62.2814 39.7757 62.3617 39.8375 62.399C40.4777 62.7828 41.1141 63.1263 41.7456 63.4326C41.8107 63.4642 41.8889 63.437 41.9205 63.3719C41.9522 63.3067 41.925 63.2286 41.8598 63.1969Z"
        fill="#AAAAAA" />
    <path
        d="M59.5603 62.6252C56.7038 64.6986 51.4782 66.2644 45.429 64.5606C44.9474 64.425 44.4607 64.2687 43.9693 64.0903C43.9015 64.0655 43.8262 64.1007 43.8017 64.1686C43.7768 64.2367 43.812 64.3119 43.8799 64.3365C44.3774 64.5171 44.8704 64.6755 45.3581 64.8128C51.4886 66.5376 56.7889 64.959 59.7142 62.8373C59.7727 62.795 59.7857 62.7129 59.7431 62.6544C59.7008 62.5959 59.6188 62.5829 59.5603 62.6252Z"
        fill="#AAAAAA" />
    <path
        d="M64.9982 52.4109C64.8764 52.0391 67.0067 50.7479 67.255 51.5619C67.5187 52.4259 65.097 52.7141 64.9982 52.4109Z"
        fill="#FE4545" />
    <path
        d="M62.2429 48.5441C61.9828 48.2303 63.2837 46.3676 63.8718 46.94C64.4508 47.5033 62.5849 48.9569 62.2429 48.5441Z"
        fill="#FE4545" />
    <path
        d="M58.227 45.3999C58.5882 45.823 59.6155 43.5768 59.0784 43.2313C58.5412 42.886 57.9505 45.0761 58.227 45.3999Z"
        fill="#FE4545" />
    <path
        d="M64.7501 13.5L59.2501 19H63.3751C63.3751 23.5581 59.6832 27.25 55.1251 27.25C53.7295 27.25 52.4232 26.8994 51.2682 26.2944L49.2607 28.3019C50.9657 29.3675 52.9664 30 55.1251 30C61.2026 30 66.1251 25.0775 66.1251 19H70.2501L64.7501 13.5ZM46.8751 19C46.8751 14.4419 50.567 10.75 55.1251 10.75C56.5207 10.75 57.827 11.1006 58.982 11.7056L60.9895 9.69813C59.2845 8.6325 57.2839 8 55.1251 8C49.0476 8 44.1251 12.9225 44.1251 19H40.0001L45.5001 24.5L51.0001 19H46.8751Z"
        fill="#FE4545" />
</svg>
