<svg width="20" height="20" viewBox="0 0 20 20" fill="none" xmlns="http://www.w3.org/2000/svg">
    <g id="Flag" clip-path="url(#clip0_4572_32067)">
        <g id="Group 1171278731">
            <path id="Vector"
                d="M11.686 4.70732C11.5897 4.70732 11.5072 4.63876 11.4894 4.54416L11.2306 3.16316C11.2128 3.06856 11.1303 3 11.034 3H4.2C4.08954 3 4 3.08954 4 3.2V11.3366C4 11.447 4.08954 11.5366 4.2 11.5366H5.6H9.914C10.0103 11.5366 10.0928 11.6051 10.1106 11.6997L10.3694 13.0807C10.3872 13.1753 10.4697 13.2439 10.566 13.2439H15.8C15.9105 13.2439 16 13.1544 16 13.0439V4.90732C16 4.79686 15.9105 4.70732 15.8 4.70732H11.686Z"
                stroke="#FE4545" stroke-width="1.4" />
            <path id="Vector 781" d="M4 6.7561V17" stroke="#FE4545" stroke-width="1.4"
                stroke-linecap="round" />
        </g>
    </g>
    <defs>
        <clipPath id="clip0_4572_32067">
            <rect width="20" height="20" fill="white" />
        </clipPath>
    </defs>
</svg>
