<svg width="24" height="24" viewBox="0 0 24 24" fill="none" xmlns="http://www.w3.org/2000/svg">
    <g id="Share-1">
        <g id="Group 1171278715">
            <path id="Vector" d="M16.05 6.60001L7.5 11.1" stroke="white" stroke-width="2" />
            <path id="Vector_2"
                d="M19.8 3.45503C19.356 3.15835 18.8339 3 18.3 3C17.5838 3 16.8971 3.28446 16.3908 3.79081C15.8845 4.29716 15.6 4.98391 15.6 5.7C15.6 6.234 15.7583 6.75602 16.055 7.20004C16.3517 7.64405 16.7734 7.99011 17.2667 8.19447C17.7601 8.39883 18.3029 8.4523 18.8267 8.34811C19.3505 8.24394 19.8316 7.98679 20.2091 7.60919C20.5868 7.23158 20.8439 6.75049 20.9481 6.22674C21.0523 5.703 20.9988 5.16012 20.7944 4.66675C20.5901 4.17339 20.2441 3.75172 19.8 3.45503Z"
                stroke="white" stroke-width="2" />
            <path id="Vector_3"
                d="M7.19868 9.75502C6.75481 9.45834 6.23296 9.29999 5.69912 9.29999C4.98327 9.29999 4.29674 9.58445 3.79056 10.0908C3.28437 10.5972 3 11.2839 3 12C3 12.534 3.1583 13.056 3.45489 13.5C3.75146 13.9441 4.17301 14.2901 4.66621 14.4944C5.15941 14.6988 5.70211 14.7523 6.2257 14.6481C6.74927 14.5439 7.23021 14.2868 7.60768 13.9092C7.98517 13.5316 8.24224 13.0505 8.34638 12.5268C8.45052 12.003 8.39707 11.4601 8.19278 10.9667C7.9885 10.4734 7.64254 10.0517 7.19868 9.75502Z"
                stroke="white" stroke-width="2" />
            <path id="Vector_4" d="M16.05 17.4L7.5 12.9" stroke="white" stroke-width="2" />
            <path id="Vector_5"
                d="M19.8 20.545C19.356 20.8417 18.8339 21 18.3 21C17.5838 21 16.8971 20.7155 16.3908 20.2092C15.8845 19.7028 15.6 19.0161 15.6 18.3C15.6 17.766 15.7583 17.244 16.055 16.8C16.3517 16.3559 16.7734 16.0099 17.2667 15.8056C17.7601 15.6012 18.3029 15.5477 18.8267 15.6519C19.3505 15.7561 19.8316 16.0132 20.2091 16.3908C20.5868 16.7684 20.8439 17.2495 20.9481 17.7732C21.0523 18.297 20.9988 18.8399 20.7944 19.3333C20.5901 19.8266 20.2441 20.2483 19.8 20.545Z"
                stroke="white" stroke-width="2" />
        </g>
    </g>
</svg>
