<svg width="20" height="20" viewBox="0 0 20 20" fill="none" xmlns="http://www.w3.org/2000/svg">
    <g id="Share">
        <g id="Group 1171278714">
            <path id="Vector 768" d="M12.7 6.39998L7 9.4" stroke="#1F1F1F" stroke-width="1.4" />
            <path id="Vector"
                d="M15.2004 4.30331C14.9044 4.10552 14.5564 3.99995 14.2004 3.99995C13.723 3.99995 13.2652 4.1896 12.9276 4.52717C12.59 4.86473 12.4004 5.32257 12.4004 5.79997C12.4004 6.15597 12.506 6.50399 12.7037 6.8C12.9015 7.09601 13.1827 7.32672 13.5116 7.46296C13.8405 7.5992 14.2024 7.63484 14.5516 7.56539C14.9007 7.49594 15.2215 7.3245 15.4732 7.07277C15.7249 6.82103 15.8964 6.5003 15.9658 6.15113C16.0353 5.80196 15.9996 5.44004 15.8634 5.11113C15.7272 4.78222 15.4964 4.5011 15.2004 4.30331Z"
                stroke="#1F1F1F" stroke-width="1.4" />
            <path id="Vector_2"
                d="M6.79914 8.50334C6.50322 8.30555 6.15532 8.19998 5.79943 8.19998C5.32219 8.19998 4.8645 8.38963 4.52704 8.72719C4.18958 9.06476 4 9.5226 4 9.99999C4 10.356 4.10553 10.704 4.30326 11C4.50098 11.296 4.78201 11.5267 5.11082 11.663C5.43962 11.7992 5.80142 11.8349 6.15048 11.7654C6.49953 11.696 6.82016 11.5245 7.07181 11.2728C7.32347 11.0211 7.49485 10.7003 7.56428 10.3512C7.63371 10.002 7.59808 9.64007 7.46188 9.31116C7.32569 8.98225 7.09505 8.70113 6.79914 8.50334Z"
                stroke="#1F1F1F" stroke-width="1.4" />
            <path id="Vector 769" d="M12.7 13.6L7 10.6" stroke="#1F1F1F" stroke-width="1.4" />
            <path id="Vector_3"
                d="M15.2004 15.6967C14.9044 15.8945 14.5564 16 14.2004 16C13.723 16 13.2652 15.8104 12.9276 15.4728C12.59 15.1353 12.4004 14.6774 12.4004 14.2C12.4004 13.844 12.506 13.496 12.7037 13.2C12.9015 12.904 13.1827 12.6733 13.5116 12.537C13.8405 12.4008 14.2024 12.3651 14.5516 12.4346C14.9007 12.504 15.2215 12.6755 15.4732 12.9272C15.7249 13.179 15.8964 13.4997 15.9658 13.8489C16.0353 14.198 15.9996 14.5599 15.8634 14.8889C15.7272 15.2178 15.4964 15.4989 15.2004 15.6967Z"
                stroke="#1F1F1F" stroke-width="1.4" />
        </g>
    </g>
</svg>
