<svg width="48" height="48" viewBox="0 0 48 48" fill="none" xmlns="http://www.w3.org/2000/svg">
    <g clip-path="url(#clip0_803_25953)">
        <g filter="url(#filter0_d_803_25953)">
            <path
                d="M24 42C35.0457 42 44 33.0457 44 22C44 10.9543 35.0457 2 24 2C12.9543 2 4 10.9543 4 22C4 33.0457 12.9543 42 24 42Z"
                fill="white" />
        </g>
        <path
            d="M14.7483 16.5309C14.7483 14.4322 16.4496 12.7309 18.5483 12.7309H29.5229C31.6215 12.7309 33.3229 14.4322 33.3229 16.5309V27.4701C33.3229 29.5687 31.6215 31.2701 29.5229 31.2701H18.5483C16.4496 31.2701 14.7483 29.5687 14.7483 27.4701V16.5309Z"
            stroke="#1F1F1F" stroke-width="1.4" />
        <path
            d="M17.5 21C17.5 20.4477 17.9477 20 18.5 20H21.5C22.0523 20 22.5 20.4477 22.5 21V24C22.5 24.5523 22.0523 25 21.5 25H18.5C17.9477 25 17.5 24.5523 17.5 24V21Z"
            stroke="#1F1F1F" stroke-width="1.4" />
        <path d="M25.5 21H31" stroke="#1F1F1F" stroke-width="1.4" stroke-linecap="round" />
        <path d="M25.5 24H28.5" stroke="#1F1F1F" stroke-width="1.4" stroke-linecap="round" />
    </g>
    <defs>
        <filter id="filter0_d_803_25953" x="0" y="0" width="48" height="48"
            filterUnits="userSpaceOnUse" color-interpolation-filters="sRGB">
            <feFlood flood-opacity="0" result="BackgroundImageFix" />
            <feColorMatrix in="SourceAlpha" type="matrix"
                values="0 0 0 0 0 0 0 0 0 0 0 0 0 0 0 0 0 0 127 0" result="hardAlpha" />
            <feOffset dy="2" />
            <feGaussianBlur stdDeviation="2" />
            <feComposite in2="hardAlpha" operator="out" />
            <feColorMatrix type="matrix" values="0 0 0 0 0 0 0 0 0 0 0 0 0 0 0 0 0 0 0.12 0" />
            <feBlend mode="normal" in2="BackgroundImageFix" result="effect1_dropShadow_803_25953" />
            <feBlend mode="normal" in="SourceGraphic" in2="effect1_dropShadow_803_25953"
                result="shape" />
        </filter>
        <clipPath id="clip0_803_25953">
            <rect width="48" height="48" fill="white" />
        </clipPath>
    </defs>
</svg>
