<svg width="80" height="80" viewBox="0 0 80 80" fill="none" xmlns="http://www.w3.org/2000/svg">
    <path
        d="M23.0375 12.2832C25.0926 13.7517 30.0419 19.2954 31.8001 22.0793C33.0525 24.0594 33.4418 25.4318 30.8077 27.2186C30.6559 27.3228 30.4933 27.4267 30.3192 27.5328C29.2691 28.1788 28.3871 28.9919 27.8097 29.9697C26.6381 31.9369 26.6915 34.5701 29.0382 37.8544C32.5503 42.7703 37.0996 46.9605 41.1275 49.3872C44.9043 51.6615 47.3171 49.9839 48.6844 47.8242C48.7746 47.6781 48.8614 47.5338 48.944 47.3856C50.2555 45.0278 51.982 44.6375 54.8682 47.0204C57.7545 49.4033 61.1597 53.5489 62.7449 55.7969C64.0048 57.5859 64.1625 59.6551 63.1315 61.4904C62.8652 61.9625 62.5212 62.4208 62.0979 62.8514C61.9333 63.0201 61.762 63.1841 61.587 63.3417C60.6482 64.2014 59.5865 64.9177 58.439 65.4846C58.0809 65.6641 57.7163 65.8282 57.3419 65.9786C57.0049 66.1123 56.6599 66.2357 56.3102 66.3468C50.5357 68.1911 43.1924 66.8586 37.182 61.9904C28.8671 55.2542 16.9879 40.7514 14.0876 35.1994C11.1865 29.6498 9.99186 22.9695 17.1162 12.6573L17.1201 12.653C19.2786 9.5294 21.2744 11.0248 23.0375 12.2832Z"
        fill="#E9E9E9" />
    <path
        d="M54.8681 47.0206C57.7544 49.4035 61.1595 53.5491 62.7448 55.7971C64.0047 57.5861 64.1624 59.6553 63.1314 61.4906C62.8651 61.9627 62.5211 62.421 62.0977 62.8516C61.9332 63.0203 61.7619 63.1843 61.5869 63.3419C61.4315 61.1481 58.8302 57.2506 55.7083 53.6937C55.4839 53.4373 55.2573 53.1884 55.035 52.9435L55.0325 52.9428C52.2272 49.905 49.6171 48.0298 48.6843 47.8244C48.7744 47.6783 48.8613 47.534 48.9439 47.3858C50.2554 45.028 51.9819 44.6377 54.8681 47.0206Z"
        fill="#AAAAAA" />
    <path
        d="M23.0376 12.2827C25.0927 13.7512 30.042 19.295 31.8002 22.0788C33.0527 24.0586 33.4419 25.4313 30.8078 27.2181C30.1275 24.8109 25.1648 18.899 24.0055 17.816C22.9087 16.7912 19.2643 12.954 17.1163 12.6569L17.1202 12.6525C19.2787 9.52892 21.2746 11.024 23.0376 12.2827Z"
        fill="#AAAAAA" />
    <path
        d="M41.8598 63.1969C41.2356 62.8941 40.6057 62.554 39.9724 62.1743C39.9102 62.1372 39.8297 62.1573 39.7926 62.2192C39.7555 62.2814 39.7757 62.3617 39.8375 62.399C40.4777 62.7828 41.1141 63.1263 41.7456 63.4326C41.8107 63.4642 41.8889 63.437 41.9205 63.3719C41.9522 63.3067 41.925 63.2286 41.8598 63.1969Z"
        fill="#AAAAAA" />
    <path
        d="M59.5603 62.6252C56.7038 64.6986 51.4782 66.2644 45.429 64.5606C44.9474 64.425 44.4607 64.2687 43.9693 64.0903C43.9015 64.0655 43.8262 64.1007 43.8017 64.1686C43.7768 64.2367 43.812 64.3119 43.8799 64.3365C44.3774 64.5171 44.8704 64.6755 45.3581 64.8128C51.4886 66.5376 56.7889 64.959 59.7142 62.8373C59.7727 62.795 59.7857 62.7129 59.7431 62.6544C59.7008 62.5959 59.6188 62.5829 59.5603 62.6252Z"
        fill="#AAAAAA" />
    <path
        d="M64.9982 52.4109C64.8764 52.0391 67.0067 50.7479 67.255 51.5619C67.5187 52.4259 65.097 52.7141 64.9982 52.4109Z"
        fill="#FE4545" />
    <path
        d="M62.2429 48.5441C61.9828 48.2303 63.2837 46.3676 63.8718 46.94C64.4508 47.5033 62.5849 48.9569 62.2429 48.5441Z"
        fill="#FE4545" />
    <path
        d="M58.227 45.3999C58.5882 45.823 59.6155 43.5768 59.0784 43.2313C58.5412 42.886 57.9505 45.0761 58.227 45.3999Z"
        fill="#FE4545" />
    <path
        d="M66.218 23.0865C66.1899 24.2 66.0178 25.2854 65.7228 26.3181C64.2123 31.6431 59.4142 35.665 53.6781 35.9636C49.7897 36.1638 46.242 34.6885 43.6989 32.1911C41.8408 30.3716 39.3785 29.3143 36.7897 29.3143C36.6703 29.3143 36.5508 29.3178 36.4314 29.3213C38.6338 28.3835 39.944 26.1354 39.7613 23.7504C39.6946 22.8863 39.7086 21.9976 39.821 21.0914C40.1688 18.2321 41.4403 15.6469 43.3266 13.6482C45.4552 11.3861 48.3706 9.86869 51.6127 9.54554C59.6601 8.74467 66.4253 15.1551 66.218 23.0865Z"
        fill="#FE4545" />
    <path
        d="M65.7228 26.3181C64.2123 31.6431 59.4142 35.665 53.6781 35.9636C49.7897 36.1638 46.242 34.6885 43.6989 32.1911C41.8408 30.3716 39.3785 29.3143 36.7897 29.3143C36.6703 29.3143 36.5508 29.3178 36.4314 29.3213C38.6338 28.3835 39.944 26.1354 39.7613 23.7504C39.6946 22.8863 39.7086 21.9976 39.821 21.0914C40.1688 18.2321 41.4403 15.6469 43.3266 13.6482C42.5433 15.963 42.2658 18.4921 42.6557 20.8349C42.9999 22.8898 43.8219 24.8709 45.0899 26.5288C47.9562 30.2697 52.9862 32.2227 57.6263 31.3937C60.8403 30.8177 63.7663 28.9244 65.7228 26.3181Z"
        fill="#E71313" />
    <circle cx="47.6466" cy="22.9263" r="1.90212" fill="white" />
    <circle cx="52.8773" cy="22.9263" r="1.90212" fill="white" />
    <circle cx="58.1083" cy="22.9263" r="1.90212" fill="white" />
</svg>
