<svg width="30" height="27" viewBox="0 0 30 27" fill="none" xmlns="http://www.w3.org/2000/svg">
    <defs>
        <linearGradient id="paint0_linear_54_88" x1="17.3873" y1="9.33909" x2="28.0837" y2="9.33909"
            gradientUnits="userSpaceOnUse">
            <stop stop-color="#FF7304" />
            <stop offset="1" stop-color="#FB2A77" />
        </linearGradient>
        <linearGradient id="paint1_linear_54_88" x1="1.34485" y1="6.6677" x2="12.06" y2="6.6677"
            gradientUnits="userSpaceOnUse">
            <stop stop-color="#FF7304" />
            <stop offset="1" stop-color="#FB2A77" />
        </linearGradient>
    </defs>
    <path
        d="M29.451 4.97C29.411 5.48 29.381 6 29.341 6.51C29.211 8.16 28.981 9.78 28.431 11.35C28.001 12.58 27.411 13.73 26.421 14.62C25.481 15.47 24.341 15.86 23.101 15.99C21.531 16.16 20.021 15.95 18.611 15.2C18.271 15.02 17.961 14.77 17.611 14.53C17.371 14.95 17.111 15.37 16.891 15.81C15.841 17.86 15.231 20.05 14.961 22.33C14.831 23.49 14.781 24.66 14.721 25.83C14.691 26.41 14.481 26.72 14.051 26.73C13.611 26.74 13.371 26.43 13.361 25.83C13.351 23.62 13.221 21.43 12.881 19.24C12.541 17.05 11.981 14.91 11.091 12.87C11.041 12.76 10.981 12.65 10.941 12.56C10.411 12.75 9.93104 12.98 9.41104 13.11C7.53104 13.59 5.69104 13.53 3.93104 12.61C2.84104 12.04 2.14104 11.1 1.59104 10.04C0.861037 8.64 0.461037 7.12 0.301037 5.57C0.131037 3.98 0.0810374 2.38 0.00103737 0.78C-0.0189626 0.27 0.251039 0 0.741039 0C2.75104 0 4.74104 0.09 6.72104 0.48C8.09104 0.75 9.40104 1.17 10.611 1.9C12.281 2.9 13.141 4.41 13.351 6.31C13.501 7.69 13.361 9.03 12.811 10.31C12.631 10.73 12.351 11.1 12.131 11.5C12.081 11.59 12.051 11.74 12.091 11.82C13.141 14 13.751 16.3 14.151 18.67C14.171 18.76 14.191 18.85 14.221 18.98C14.441 18.33 14.631 17.71 14.851 17.1C15.321 15.82 15.941 14.61 16.691 13.47C16.741 13.39 16.751 13.24 16.711 13.15C15.891 11.2 15.801 9.23 16.521 7.24C16.941 6.06 17.771 5.21 18.811 4.57C20.211 3.7 21.771 3.28 23.371 3.01C25.121 2.72 26.891 2.65 28.671 2.64C29.071 2.64 29.321 2.82 29.451 3.18C29.451 3.78 29.451 4.37 29.451 4.97ZM17.701 12.05C17.731 12.07 17.761 12.08 17.791 12.1C17.821 12.05 17.841 12 17.881 11.95C19.041 10.61 20.411 9.53 21.961 8.67C22.331 8.47 22.701 8.27 23.091 8.12C23.531 7.95 23.921 8.19 24.011 8.63C24.071 8.94 23.941 9.17 23.571 9.35C22.551 9.85 21.581 10.42 20.691 11.13C19.861 11.8 19.101 12.54 18.401 13.44C18.711 13.66 18.981 13.9 19.301 14.06C20.601 14.71 21.971 14.82 23.391 14.59C24.721 14.37 25.731 13.69 26.411 12.53C26.831 11.82 27.151 11.06 27.371 10.26C27.841 8.57 28.011 6.84 28.071 5.09C28.081 4.73 28.071 4.37 28.071 4C28.011 4 27.951 3.99 27.901 3.99C26.571 4.09 25.241 4.14 23.921 4.29C22.571 4.44 21.261 4.78 20.051 5.4C19.321 5.78 18.621 6.22 18.181 6.93C17.181 8.56 17.251 10.29 17.701 12.05ZM1.37104 1.28C1.36104 1.4 1.35104 1.44 1.35104 1.48C1.46104 2.9 1.53104 4.33 1.70104 5.74C1.84104 7.01 2.19104 8.24 2.77104 9.38C3.35104 10.52 4.15104 11.42 5.44104 11.78C6.45104 12.06 7.48104 12.11 8.51104 11.93C9.13104 11.82 9.74104 11.65 10.331 11.3C9.96104 10.77 9.62104 10.24 9.24104 9.74C8.36104 8.57 7.24104 7.66 6.03104 6.84C5.86104 6.72 5.68104 6.59 5.54104 6.44C5.30104 6.18 5.30104 5.81 5.53104 5.55C5.74104 5.31 6.10104 5.26 6.39104 5.45C6.60104 5.59 6.81104 5.76 7.02104 5.9C8.69104 7.02 10.091 8.41 11.151 10.12C11.191 10.19 11.251 10.24 11.311 10.32C11.361 10.22 11.411 10.16 11.441 10.09C11.881 9.22 12.051 8.28 12.061 7.31C12.071 6.3 11.911 5.32 11.391 4.44C10.811 3.46 9.87104 2.92 8.87104 2.48C7.65104 1.95 6.35104 1.68 5.03104 1.55C3.82104 1.45 2.60104 1.38 1.37104 1.28Z"
        fill="black" />
    <path
        d="M17.701 12.05C17.251 10.29 17.181 8.54999 18.191 6.92999C18.631 6.21999 19.331 5.77999 20.061 5.39999C21.281 4.76999 22.591 4.43999 23.931 4.28999C25.251 4.13999 26.581 4.07999 27.911 3.98999C27.971 3.98999 28.021 3.99999 28.081 3.99999C28.081 4.36999 28.091 4.72999 28.081 5.08999C28.021 6.83999 27.851 8.56999 27.381 10.26C27.161 11.06 26.851 11.81 26.421 12.53C25.731 13.69 24.731 14.37 23.401 14.59C21.981 14.82 20.611 14.72 19.311 14.06C18.991 13.9 18.721 13.66 18.411 13.44C19.111 12.54 19.861 11.79 20.701 11.13C21.591 10.42 22.561 9.84999 23.581 9.34999C23.941 9.16999 24.081 8.93999 24.021 8.62999C23.941 8.19999 23.541 7.94999 23.101 8.11999C22.711 8.26999 22.331 8.46999 21.971 8.66999C20.431 9.52999 19.061 10.61 17.891 11.95C17.851 11.99 17.831 12.05 17.801 12.1C17.761 12.08 17.731 12.07 17.701 12.05Z"
        fill="url(#paint0_linear_54_88)" />
    <path
        d="M1.37104 1.28C2.61104 1.38 3.82104 1.44 5.03104 1.57C6.35104 1.71 7.64104 1.97 8.87104 2.5C9.88104 2.93 10.811 3.48 11.391 4.46C11.911 5.34 12.071 6.32 12.061 7.33C12.051 8.3 11.881 9.24 11.441 10.11C11.411 10.18 11.371 10.24 11.311 10.34C11.251 10.26 11.201 10.2 11.151 10.14C10.081 8.43 8.69104 7.04 7.02104 5.92C6.81104 5.78 6.60104 5.61 6.39104 5.47C6.10104 5.28 5.74104 5.32 5.53104 5.57C5.30104 5.83 5.30104 6.2 5.54104 6.46C5.68104 6.61 5.85104 6.74 6.03104 6.86C7.24104 7.67 8.35104 8.59 9.24104 9.76C9.62104 10.26 9.96105 10.79 10.331 11.32C9.74104 11.67 9.13105 11.85 8.51105 11.95C7.48105 12.13 6.45105 12.08 5.44105 11.8C4.15105 11.44 3.35104 10.54 2.77104 9.4C2.19104 8.25 1.84104 7.02 1.70104 5.76C1.54104 4.34 1.47105 2.92 1.35105 1.5C1.34105 1.45 1.35104 1.41 1.37104 1.28Z"
        fill="url(#paint1_linear_54_88)" />
</svg>
