<svg width="18" height="16" viewBox="0 0 18 16" fill="none" xmlns="http://www.w3.org/2000/svg">
    <g id="Timer 1">
        <path id="Vector"
            d="M5 11.6508C4.99986 11.1725 5.12756 10.7015 5.37176 10.2796C5.61597 9.85777 5.96915 9.49804 6.4 9.23231L7.775 8.38308C7.84306 8.34086 7.89883 8.28383 7.93739 8.21703C7.97595 8.15023 7.99612 8.07569 7.99612 8C7.99612 7.92431 7.97595 7.84977 7.93739 7.78297C7.89883 7.71617 7.84306 7.65914 7.775 7.61692L6.4 6.76769C5.96915 6.50196 5.61597 6.14223 5.37176 5.72036C5.12756 5.2985 4.99986 4.82754 5 4.34923V2H13V4.34923C13.0001 4.82754 12.8724 5.2985 12.6282 5.72036C12.384 6.14223 12.0308 6.50196 11.6 6.76769L10.225 7.61692C10.1569 7.65914 10.1012 7.71617 10.0626 7.78297C10.024 7.84977 10.0039 7.92431 10.0039 8C10.0039 8.07569 10.024 8.15023 10.0626 8.21703C10.1012 8.28383 10.1569 8.34086 10.225 8.38308L11.6 9.23231C12.0308 9.49804 12.384 9.85777 12.6282 10.2796C12.8724 10.7015 13.0001 11.1725 13 11.6508V14H5V11.6508Z"
            fill="white" stroke="#1F1F1F" stroke-width="1.6" />
        <path id="Vector_2" d="M3.66699 2H14.3336" stroke="#1F1F1F" stroke-width="1.6"
            stroke-linecap="round" />
        <path id="Vector_3" d="M3.66699 14H14.3336" stroke="#1F1F1F" stroke-width="1.6"
            stroke-linecap="round" />
    </g>
</svg>
