<svg width="24" height="24" viewBox="0 0 24 24" fill="none" xmlns="http://www.w3.org/2000/svg">
    <path
        d="M24 5.30851C23.0972 5.70227 22.1424 5.96395 21.165 6.08551C22.195 5.47446 22.9651 4.50686 23.3295 3.36601C22.365 3.93802 21.3098 4.34083 20.2095 4.55701C19.5349 3.83668 18.6592 3.33589 17.6962 3.11971C16.7333 2.90352 15.7276 2.98193 14.8098 3.34475C13.892 3.70757 13.1045 4.33803 12.5496 5.15422C11.9948 5.97041 11.6982 6.93459 11.6985 7.92151C11.6985 8.31151 11.7315 8.68651 11.8125 9.04351C9.85512 8.94755 7.94004 8.43954 6.19245 7.55269C4.44487 6.66585 2.90414 5.42014 1.671 3.89701C1.03923 4.9798 0.843913 6.26268 1.12482 7.48442C1.40574 8.70616 2.14175 9.7749 3.183 10.473C2.40414 10.4521 1.64171 10.2443 0.96 9.86701V9.92101C0.961305 11.0572 1.354 12.1582 2.07198 13.0387C2.78995 13.9192 3.78937 14.5255 4.902 14.7555C4.48108 14.8664 4.04728 14.9209 3.612 14.9175C3.29938 14.9231 2.98708 14.8949 2.6805 14.8335C2.99841 15.8101 3.61124 16.664 4.43459 17.2778C5.25795 17.8917 6.25134 18.2352 7.278 18.261C5.53641 19.6231 3.38846 20.3619 1.1775 20.3595C0.774 20.3595 0.387 20.3415 0 20.292C2.24982 21.7418 4.87151 22.5087 7.548 22.5C16.602 22.5 21.552 15 21.552 8.49901C21.552 8.28151 21.5445 8.07151 21.534 7.86301C22.5044 7.16849 23.3401 6.30284 24 5.30851Z"
        fill="#03A9F4" />
</svg>
