<svg width="13" height="10" viewBox="0 0 13 10" fill="none" xmlns="http://www.w3.org/2000/svg">
    <path
        d="M12.6356 1.13782C12.1972 1.32804 11.7335 1.45379 11.259 1.51115C11.7596 1.21209 12.1347 0.741611 12.3148 0.186991C11.8444 0.467021 11.3294 0.664331 10.7923 0.770321C10.4333 0.380991 9.95523 0.121832 9.43303 0.0334816C8.91083 -0.0548584 8.37413 0.0326113 7.90703 0.282181C7.43993 0.531751 7.06883 0.929301 6.85205 1.41247C6.63523 1.89565 6.58491 2.43713 6.70899 2.95199C5.75783 2.90388 4.82742 2.65621 3.97821 2.22507C3.129 1.79394 2.37999 1.18897 1.77983 0.449492C1.56932 0.817082 1.45871 1.23338 1.45899 1.65699C1.45825 2.05038 1.55479 2.43785 1.74002 2.7849C1.92525 3.13195 2.19342 3.42782 2.52066 3.64615C2.14031 3.6358 1.76809 3.53374 1.43566 3.34865V3.37782C1.43851 3.92901 1.63166 4.46229 1.98243 4.88747C2.3332 5.3126 2.82006 5.6036 3.36066 5.7112C3.15256 5.7745 2.9365 5.8079 2.71899 5.8103C2.56843 5.8086 2.41824 5.7949 2.26983 5.7695C2.42377 6.2436 2.72169 6.658 3.12212 6.9549C3.52255 7.2518 4.00558 7.4166 4.50399 7.4262C3.66236 8.0884 2.62326 8.4498 1.55233 8.4528C1.35734 8.4535 1.16251 8.4418 0.968994 8.4178C2.06241 9.1238 3.33663 9.4986 4.63816 9.497C5.53631 9.5063 6.42732 9.3366 7.25913 8.9977C8.09093 8.6588 8.84693 8.1576 9.48283 7.5233C10.1188 6.889 10.6219 6.1343 10.963 5.3033C11.304 4.4724 11.476 3.58183 11.469 2.68365C11.469 2.58449 11.469 2.47949 11.469 2.37449C11.9267 2.03313 12.3215 1.61465 12.6356 1.13782Z"
        fill="#8C8C8C" />
</svg>
