<svg width="24" height="24" viewBox="0 0 24 24" fill="none" xmlns="http://www.w3.org/2000/svg">
    <g id="Twitter">
        <path id="Vector"
            d="M24 5.3085C23.0972 5.70225 22.1424 5.96394 21.165 6.0855C22.195 5.47444 22.9651 4.50685 23.3295 3.366C22.365 3.938 21.3098 4.34081 20.2095 4.557C19.5349 3.83667 18.6592 3.33588 17.6962 3.11969C16.7333 2.9035 15.7276 2.98191 14.8098 3.34474C13.892 3.70756 13.1045 4.33802 12.5496 5.1542C11.9948 5.97039 11.6982 6.93458 11.6985 7.9215C11.6985 8.3115 11.7315 8.6865 11.8125 9.0435C9.85512 8.94753 7.94004 8.43952 6.19245 7.55268C4.44487 6.66583 2.90414 5.42012 1.671 3.897C1.03923 4.97979 0.843913 6.26266 1.12482 7.4844C1.40574 8.70615 2.14175 9.77488 3.183 10.473C2.40414 10.4521 1.64171 10.2443 0.96 9.867V9.921C0.961305 11.0571 1.354 12.1582 2.07198 13.0387C2.78995 13.9192 3.78937 14.5255 4.902 14.7555C4.48108 14.8664 4.04728 14.9209 3.612 14.9175C3.29938 14.9231 2.98708 14.8949 2.6805 14.8335C2.99841 15.81 3.61124 16.664 4.43459 17.2778C5.25795 17.8917 6.25134 18.2351 7.278 18.261C5.53641 19.6231 3.38846 20.3619 1.1775 20.3595C0.774 20.3595 0.387 20.3415 0 20.292C2.24982 21.7418 4.87151 22.5087 7.548 22.5C16.602 22.5 21.552 15 21.552 8.499C21.552 8.2815 21.5445 8.0715 21.534 7.863C22.5044 7.16848 23.3401 6.30282 24 5.3085Z"
            fill="#CACACA" />
    </g>
</svg>
