<svg width="80" height="80" viewBox="0 0 80 80" fill="none" xmlns="http://www.w3.org/2000/svg">
    <g clip-path="url(#clip0_803_25581)">
        <g filter="url(#filter0_d_803_25581)">
            <path
                d="M40 74C59.8823 74 76 57.8823 76 38C76 18.1177 59.8823 2 40 2C20.1177 2 4 18.1177 4 38C4 57.8823 20.1177 74 40 74Z"
                fill="#E9E9E9" />
        </g>
        <path
            d="M44.67 18.7252L43.8039 16.044L41.6971 17.4676L40.0585 15L38.4432 17.4676L36.3364 16.044L35.4703 18.7252L33.1528 18.0133L34.6042 23.091H40.0585H45.5362L46.9641 18.0133L44.67 18.7252Z"
            fill="white" />
        <path
            d="M40.0585 20.7183C36.8047 20.7183 34.1829 21.264 34.1829 21.9521V26.7924H45.9341V21.9521C45.9341 21.2877 43.3123 20.7183 40.0585 20.7183Z"
            fill="white" />
        <path
            d="M40.0585 28.0262C43.3035 28.0262 45.9341 27.4738 45.9341 26.7924C45.9341 26.111 43.3035 25.5586 40.0585 25.5586C36.8135 25.5586 34.1829 26.111 34.1829 26.7924C34.1829 27.4738 36.8135 28.0262 40.0585 28.0262Z"
            fill="white" />
        <path
            d="M46.1449 22.474C46.0278 22.474 45.9108 22.4265 45.8171 22.3553C45.7703 22.3316 44.3892 21.2402 40.0351 21.2402C35.7513 21.2402 34.2531 22.3553 34.2531 22.3553C34.0425 22.5214 33.7147 22.4977 33.5275 22.2604C33.3636 22.0469 33.387 21.7147 33.5977 21.5486C33.6679 21.5012 35.3065 20.1962 40.0117 20.1962C44.7872 20.1962 46.2853 21.43 46.4492 21.5723C46.6599 21.7622 46.6833 22.0943 46.496 22.3079C46.4258 22.4265 46.2853 22.474 46.1449 22.474Z"
            fill="white" />
        <path
            d="M41.861 21.3115C42.9612 21.4064 43.7805 21.5725 44.3892 21.7385C44.7169 21.8335 45.0446 21.5962 45.0446 21.2403C45.0446 21.003 44.8808 20.8132 44.6701 20.742C43.9912 20.5522 43.1017 20.3861 41.9546 20.2912C41.6503 20.2675 41.3928 20.5047 41.3928 20.8132C41.3928 21.0742 41.5801 21.2877 41.861 21.3115Z"
            fill="white" />
        <path
            d="M46.1449 26.8636C46.0278 26.8636 45.9108 26.8162 45.8171 26.745C45.7703 26.7213 44.3892 25.6298 40.0351 25.6298C35.7513 25.6298 34.2531 26.745 34.2531 26.745C34.0425 26.9111 33.7147 26.8873 33.5275 26.6501C33.3636 26.4365 33.387 26.1044 33.5977 25.9383C33.6679 25.8908 35.3065 24.5858 40.0117 24.5858C44.7872 24.5858 46.2853 25.8196 46.4492 25.962C46.6599 26.1518 46.6833 26.484 46.496 26.6975C46.4258 26.8162 46.2853 26.8636 46.1449 26.8636Z"
            fill="white" />
        <path
            d="M41.861 25.701C42.9612 25.7959 43.7805 25.962 44.3892 26.1281C44.7169 26.223 45.0446 25.9857 45.0446 25.6298C45.0446 25.3925 44.8808 25.2027 44.6701 25.1315C43.9912 24.9417 43.1017 24.7756 41.9546 24.6807C41.6503 24.657 41.3928 24.8943 41.3928 25.2027C41.3928 25.4637 41.5801 25.6773 41.861 25.701Z"
            fill="white" />
        <path
            d="M39.1455 23.091C39.1455 22.5927 39.5435 22.1893 40.035 22.1893C40.5266 22.1893 40.9246 22.5927 40.9246 23.091C40.9246 23.5892 40.5266 23.9926 40.035 23.9926C39.5435 23.9689 39.1455 23.5892 39.1455 23.091Z"
            fill="white" />
        <path
            d="M33.3168 23.9689C33.3168 23.4706 33.7147 23.0673 34.2063 23.0673C34.6979 23.0673 35.0959 23.4706 35.0959 23.9689C35.0959 24.4672 34.6979 24.8705 34.2063 24.8705C33.6913 24.8705 33.3168 24.4672 33.3168 23.9689Z"
            fill="white" />
        <path
            d="M45.068 23.9689C45.068 23.4706 45.4659 23.0673 45.9575 23.0673C46.4491 23.0673 46.8471 23.4706 46.8471 23.9689C46.8471 24.4672 46.4491 24.8705 45.9575 24.8705C45.4659 24.8705 45.068 24.4672 45.068 23.9689Z"
            fill="white" />
        <path d="M48.6261 63H55.9999L55.1572 59.9155L55.9999 56.8309H48.6261V63Z" fill="white" />
        <path d="M48.6261 61.173H52.6524L48.6261 63V61.173Z" fill="white" />
        <path
            d="M53.6825 52.4889V36.5443L40.0351 28.5482L26.4111 36.5443V52.4889L40.0351 60.4849L53.6825 52.4889Z"
            fill="white" />
        <path
            d="M40.0351 62.4779L24.7023 53.4854V35.5239L40.0351 26.5551L55.368 35.5239V53.4854L40.0351 62.4779ZM28.0966 51.4923L40.0351 58.4681L51.9737 51.4923V37.517L40.0351 30.5412L28.0966 37.517V51.4923Z"
            fill="white" />
        <path d="M40.0351 26.5551V30.5412L28.0966 37.5407L24.7023 35.5476L40.0351 26.5551Z"
            fill="white" />
        <path d="M55.3679 53.4854L51.9736 51.4923L40.035 58.4918V62.478L55.3679 53.4854Z"
            fill="white" />
        <path
            d="M48.7693 45.9037C49.5254 41.2356 46.4048 36.83 41.7992 36.0637C37.1937 35.2973 32.8472 38.4604 32.0912 43.1285C31.3351 47.7966 34.4557 52.2022 39.0612 52.9685C43.6668 53.7349 48.0132 50.5719 48.7693 45.9037Z"
            fill="white" />
        <path
            d="M40.4331 35.951C40.1522 35.951 39.8947 35.9749 39.6138 35.9986C43.8976 36.4257 47.2451 40.0796 47.2451 44.5165C47.2451 48.9772 43.8976 52.6312 39.6138 53.0346C39.8947 53.0583 40.1522 53.0821 40.4331 53.0821C45.0915 53.0821 48.8837 49.2382 48.8837 44.5165C48.8837 39.7948 45.0915 35.951 40.4331 35.951Z"
            fill="white" />
        <path d="M24.7023 53.4854L28.0966 51.4923L40.0351 58.4918V62.478L24.7023 53.4854Z"
            fill="white" />
        <path d="M40.035 26.5551V30.5412L51.9736 37.5407L55.3679 35.5476L40.035 26.5551Z"
            fill="white" />
        <path
            d="M28.0966 51.4923L40.0351 58.4681L51.9737 51.4923V37.517L40.0351 30.5413L28.0966 37.517V51.4923Z"
            stroke="white" stroke-width="0.467446" stroke-miterlimit="10" />
        <path d="M31.3738 63H24L24.8427 59.9155L24 56.8309H31.3738V63Z" fill="white" />
        <path d="M52.7228 55.0039H27.3475V61.1492H52.7228V55.0039Z" fill="white" />
        <path d="M31.3739 61.173H27.3475L31.3739 63V61.173Z" fill="white" />
        <path
            d="M29.2216 56.1016H29.9102V58.5161H31.4023V59.0772H29.2216V56.1016ZM34.0911 58.5246V59.0772H31.7871V56.1016H34.0359V56.6542H32.4715V57.3003H33.8531V57.836H32.4715V58.5246H34.0911ZM37.4584 56.1016L36.1704 59.0772H35.4903L34.2065 56.1016H34.9504L35.8558 58.2271L36.774 56.1016H37.4584ZM40.0109 58.5246V59.0772H37.7069V56.1016H39.9557V56.6542H38.3913V57.3003H39.7729V57.836H38.3913V58.5246H40.0109ZM40.5589 56.1016H41.2475V58.5161H42.7396V59.0772H40.5589V56.1016ZM45.6503 59.1283C45.2252 59.1283 44.8936 59.0107 44.6556 58.7754C44.4204 58.5402 44.3028 58.2044 44.3028 57.768V56.1016H44.9914V57.7424C44.9914 58.2752 45.2125 58.5416 45.6546 58.5416C45.8699 58.5416 46.0343 58.4779 46.1477 58.3503C46.261 58.22 46.3177 58.0173 46.3177 57.7424V56.1016H46.9979V57.768C46.9979 58.2044 46.8788 58.5402 46.6408 58.7754C46.4056 59.0107 46.0754 59.1283 45.6503 59.1283ZM48.9664 56.1016C49.23 56.1016 49.4581 56.1455 49.6508 56.2334C49.8464 56.3212 49.9966 56.4459 50.1014 56.6074C50.2063 56.769 50.2587 56.9603 50.2587 57.1813C50.2587 57.3995 50.2063 57.5908 50.1014 57.7552C49.9966 57.9167 49.8464 58.0414 49.6508 58.1293C49.4581 58.2143 49.23 58.2568 48.9664 58.2568H48.367V59.0772H47.6784V56.1016H48.9664ZM48.9282 57.6957C49.135 57.6957 49.2923 57.6518 49.4 57.5639C49.5077 57.4732 49.5616 57.3457 49.5616 57.1813C49.5616 57.0141 49.5077 56.8866 49.4 56.7987C49.2923 56.708 49.135 56.6627 48.9282 56.6627H48.367V57.6957H48.9282Z"
            fill="white" />
        <path
            d="M43.8008 47.7348V49.5859H36.3824V48.1135L40.1688 44.5375C40.5708 44.1542 40.8419 43.827 40.9821 43.5559C41.1224 43.2754 41.1925 42.9996 41.1925 42.7285C41.1925 42.3358 41.0569 42.0367 40.7858 41.831C40.524 41.616 40.136 41.5085 39.6219 41.5085C39.1918 41.5085 38.8038 41.5926 38.4579 41.7609C38.112 41.9198 37.8222 42.1629 37.5885 42.4901L35.9337 41.4243C36.317 40.854 36.8452 40.41 37.5183 40.0921C38.1915 39.7649 38.9628 39.6013 39.8322 39.6013C40.5614 39.6013 41.1971 39.7228 41.7394 39.9659C42.291 40.1996 42.7164 40.5362 43.0155 40.9756C43.324 41.4056 43.4783 41.9151 43.4783 42.5041C43.4783 43.037 43.3661 43.5372 43.1417 44.0046C42.9174 44.4721 42.4826 45.005 41.8376 45.6033L39.5798 47.7348H43.8008Z"
            fill="white" />
    </g>
    <defs>
        <filter id="filter0_d_803_25581" x="0" y="0" width="80" height="80"
            filterUnits="userSpaceOnUse" color-interpolation-filters="sRGB">
            <feFlood flood-opacity="0" result="BackgroundImageFix" />
            <feColorMatrix in="SourceAlpha" type="matrix"
                values="0 0 0 0 0 0 0 0 0 0 0 0 0 0 0 0 0 0 127 0" result="hardAlpha" />
            <feOffset dy="2" />
            <feGaussianBlur stdDeviation="2" />
            <feComposite in2="hardAlpha" operator="out" />
            <feColorMatrix type="matrix" values="0 0 0 0 0 0 0 0 0 0 0 0 0 0 0 0 0 0 0.12 0" />
            <feBlend mode="normal" in2="BackgroundImageFix" result="effect1_dropShadow_803_25581" />
            <feBlend mode="normal" in="SourceGraphic" in2="effect1_dropShadow_803_25581"
                result="shape" />
        </filter>
        <clipPath id="clip0_803_25581">
            <rect width="80" height="80" fill="white" />
        </clipPath>
    </defs>
</svg>
