<svg width="80" height="80" viewBox="0 0 80 80" fill="none" xmlns="http://www.w3.org/2000/svg">
    <g clip-path="url(#clip0_803_25707)">
        <g filter="url(#filter0_d_803_25707)">
            <path
                d="M40 74C59.8823 74 76 57.8823 76 38C76 18.1177 59.8823 2 40 2C20.1177 2 4 18.1177 4 38C4 57.8823 20.1177 74 40 74Z"
                fill="#E9E9E9" />
        </g>
        <path d="M24.7706 40.9734H21.0593C18.8093 40.9734 17 39.1611 17 36.9075H24.7706V40.9734Z"
            fill="white" />
        <path
            d="M24.7705 45.0393H21.987C19.737 45.0393 17.9277 43.2271 17.9277 40.9734H24.7705V45.0393Z"
            fill="white" />
        <path
            d="M24.7706 49.1052H23.3789C21.1289 49.1052 19.3196 47.293 19.3196 45.0393H24.7706V49.1052Z"
            fill="white" />
        <path d="M24.3065 49.1052H24.7705V36.9075H22.9148L24.3065 49.1052Z" fill="white" />
        <path d="M54.2294 40.9734H57.9407C60.1907 40.9734 62 39.1611 62 36.9075H54.2294V40.9734Z"
            fill="white" />
        <path
            d="M54.2294 45.0393H57.0129C59.2629 45.0393 61.0722 43.2271 61.0722 40.9734H54.2294V45.0393Z"
            fill="white" />
        <path
            d="M54.2294 49.1052H55.6211C57.8711 49.1052 59.6804 47.293 59.6804 45.0393H54.2294V49.1052Z"
            fill="white" />
        <path d="M54.6933 49.1052H54.2294V36.9075H56.085L54.6933 49.1052Z" fill="white" />
        <path
            d="M47.4793 16.9497C47.4793 15.3698 45.9947 14.0688 44.1623 14.0688C43.6055 14.0688 43.072 14.1849 42.6081 14.394C41.9354 13.5576 40.822 13 39.5463 13C38.2705 13 37.1339 13.5576 36.4844 14.394C36.0205 14.1849 35.487 14.0688 34.9303 14.0688C33.0978 14.0688 31.6133 15.3466 31.6133 16.9497C31.6133 19.5287 34.4432 20.2489 34.4432 22.6652H44.719C44.6494 20.0863 47.4793 19.3893 47.4793 16.9497Z"
            fill="white" />
        <path
            d="M42.5618 14.3708C41.8891 13.5576 40.7757 13 39.5232 13C38.2706 13 37.1572 13.5344 36.4845 14.3708C34.9768 18.0185 38.085 22.642 38.085 22.642H40.9381C40.9613 22.642 44.0696 17.4144 42.5618 14.3708Z"
            fill="white" />
        <path
            d="M39.5233 20.6206C36.2991 20.6206 33.701 21.155 33.701 21.8288V26.5684H45.3455V21.8288C45.3455 21.155 42.7475 20.6206 39.5233 20.6206Z"
            fill="white" />
        <path
            d="M45.3455 26.5685C45.3455 27.2423 42.7475 27.7767 39.5233 27.7767C36.2991 27.7767 33.701 27.2423 33.701 26.5685C33.701 25.8947 36.2991 25.3604 39.5233 25.3604C42.7475 25.3604 45.3455 25.8947 45.3455 26.5685Z"
            fill="white" />
        <path
            d="M45.5541 22.3399C45.4381 22.3399 45.3221 22.2935 45.2293 22.2238C45.1829 22.2005 43.8144 21.1318 39.5 21.1318C35.2551 21.1318 33.7706 22.2238 33.7706 22.2238C33.5618 22.3864 33.2371 22.3632 33.0515 22.1308C32.8891 21.9217 32.9123 21.5965 33.1211 21.4338C33.1907 21.3874 34.8144 20.1095 39.4768 20.1095C44.2087 20.1095 45.6933 21.3176 45.8556 21.4571C46.0644 21.6429 46.0876 21.9682 45.902 22.1773C45.8324 22.2702 45.6933 22.3399 45.5541 22.3399Z"
            fill="white" />
        <path
            d="M41.3093 21.2016C42.3995 21.2945 43.2113 21.4572 43.8144 21.6198C44.1392 21.7127 44.4639 21.4804 44.4639 21.1319C44.4639 20.8995 44.3015 20.7137 44.0928 20.644C43.4201 20.4581 42.5386 20.2955 41.402 20.2025C41.1005 20.1793 40.8453 20.4116 40.8453 20.7137C40.8453 20.946 41.0309 21.1784 41.3093 21.2016Z"
            fill="white" />
        <path
            d="M45.5541 26.6382C45.4381 26.6382 45.3221 26.5917 45.2293 26.522C45.1829 26.4988 43.8144 25.43 39.5 25.43C35.2551 25.43 33.7706 26.522 33.7706 26.522C33.5618 26.6846 33.2371 26.6614 33.0515 26.4291C32.8891 26.22 32.9123 25.8947 33.1211 25.732C33.1907 25.6856 34.8144 24.4077 39.4768 24.4077C44.2087 24.4077 45.6933 25.6159 45.8556 25.7553C46.0644 25.9411 46.0876 26.2664 45.902 26.4755C45.8324 26.5685 45.6933 26.6382 45.5541 26.6382Z"
            fill="white" />
        <path
            d="M41.3093 25.4997C42.3995 25.5926 43.2113 25.7553 43.8144 25.9179C44.1392 26.0108 44.4639 25.7785 44.4639 25.43C44.4639 25.1976 44.3015 25.0118 44.0928 24.9421C43.4201 24.7562 42.5386 24.5936 41.402 24.5006C41.1005 24.4774 40.8453 24.7097 40.8453 25.0118C40.8453 25.2441 41.0309 25.4764 41.3093 25.4997Z"
            fill="white" />
        <path
            d="M38.6185 22.9209C38.6185 22.4329 39.0129 22.038 39.5 22.038C39.9871 22.038 40.3814 22.4329 40.3814 22.9209C40.3814 23.4088 39.9871 23.8037 39.5 23.8037C39.0129 23.8037 38.6185 23.4088 38.6185 22.9209Z"
            fill="white" />
        <path
            d="M32.8428 23.8038C32.8428 23.3159 33.2371 22.9209 33.7242 22.9209C34.2113 22.9209 34.6057 23.3159 34.6057 23.8038C34.6057 24.2917 34.2113 24.6867 33.7242 24.6867C33.2371 24.6867 32.8428 24.2917 32.8428 23.8038Z"
            fill="white" />
        <path
            d="M44.4871 23.8038C44.4871 23.3159 44.8814 22.9209 45.3685 22.9209C45.8556 22.9209 46.2499 23.3159 46.2499 23.8038C46.2499 24.2917 45.8556 24.6867 45.3685 24.6867C44.8582 24.6867 44.4871 24.2917 44.4871 23.8038Z"
            fill="white" />
        <path d="M48.0128 62H55.3195L54.4845 58.9796L55.3195 55.9824H48.0128V62Z" fill="white" />
        <path d="M48.0128 60.2109H52.0025L48.0128 61.9999V60.2109Z" fill="white" />
        <path d="M53 51.7307V36.0944L39.5 28.2878L25.9768 36.0944V51.7307L39.5 59.5373L53 51.7307Z"
            fill="white" />
        <path
            d="M39.5001 61.4889L24.3068 52.7065V35.1185L39.5001 26.3362L54.6934 35.1185V52.7065L39.5001 61.4889ZM27.6702 50.7549L39.5001 57.5856L51.33 50.7549V37.0702L39.5001 30.2395L27.6702 37.0702V50.7549Z"
            fill="white" />
        <path d="M39.5001 26.3362V30.2395L27.6702 37.0702L24.3068 35.1185L39.5001 26.3362Z"
            fill="white" />
        <path d="M54.6933 52.7065L51.3299 50.7549L39.5 57.5856V61.4889L54.6933 52.7065Z"
            fill="white" />
        <path
            d="M39.8943 52.3115C44.519 52.3115 48.268 48.5564 48.268 43.9241C48.268 39.2919 44.519 35.5367 39.8943 35.5367C35.2697 35.5367 31.5206 39.2919 31.5206 43.9241C31.5206 48.5564 35.2697 52.3115 39.8943 52.3115Z"
            fill="white" />
        <path
            d="M39.8944 35.5367C39.616 35.5367 39.3609 35.56 39.0825 35.5832C43.3274 36.0014 46.6444 39.5794 46.6444 43.9241C46.6444 48.2921 43.3274 51.8701 39.0825 52.2651C39.3609 52.2883 39.616 52.3115 39.8944 52.3115C44.5104 52.3115 48.2681 48.5477 48.2681 43.9241C48.2681 39.2774 44.5104 35.5367 39.8944 35.5367Z"
            fill="white" />
        <path d="M24.3068 52.7065L27.6702 50.7549L39.5001 57.5856V61.4889L24.3068 52.7065Z"
            fill="white" />
        <path d="M39.5 26.3362V30.2395L51.3299 37.0702L54.6933 35.1185L39.5 26.3362Z"
            fill="white" />
        <path
            d="M27.67 50.7549L39.4999 57.5856L51.3298 50.7549V37.0702L39.4999 30.2395L27.67 37.0702V50.7549Z"
            stroke="white" stroke-width="0.467446" stroke-miterlimit="10" />
        <path d="M30.9175 62H23.6108L24.4459 58.9796L23.6108 55.9824H30.9175V62Z" fill="white" />
        <path d="M52.0722 54.1935H26.9279V60.211H52.0722V54.1935Z" fill="white" />
        <path d="M30.9175 60.2109H26.9279L30.9175 61.9999V60.2109Z" fill="white" />
        <path
            d="M27.3222 23.6643L29.1082 24.7795L31.1959 24.9422L30.7088 26.9867L31.1959 29.0313L29.085 29.1939L27.299 30.2859L26.5103 28.3343L24.9098 26.9635L26.5103 25.6159L27.3222 23.6643Z"
            fill="white" />
        <path
            d="M51.6778 23.6643L49.8917 24.7795L47.8041 24.9422L48.2912 26.9867L47.8041 29.0313L49.9149 29.1939L51.701 30.2859L52.4896 28.3343L54.0902 26.9635L52.4896 25.6159L51.6778 23.6643Z"
            fill="white" />
        <path
            d="M28.7867 55.2817H29.4753V57.6962H30.9674V58.2573H28.7867V55.2817ZM33.6562 57.7047V58.2573H31.3522V55.2817H33.601V55.8343H32.0366V56.4804H33.4182V57.016H32.0366V57.7047H33.6562ZM37.0236 55.2817L35.7355 58.2573H35.0554L33.7716 55.2817H34.5155L35.4209 57.4071L36.3391 55.2817H37.0236ZM39.576 57.7047V58.2573H37.272V55.2817H39.5208V55.8343H37.9564V56.4804H39.338V57.016H37.9564V57.7047H39.576ZM40.124 55.2817H40.8126V57.6962H42.3047V58.2573H40.124V55.2817ZM45.2154 58.3083C44.7903 58.3083 44.4587 58.1907 44.2207 57.9555C43.9855 57.7203 43.8679 57.3845 43.8679 56.948V55.2817H44.5565V56.9225C44.5565 57.4553 44.7776 57.7217 45.2197 57.7217C45.435 57.7217 45.5994 57.6579 45.7128 57.5304C45.8261 57.4 45.8828 57.1974 45.8828 56.9225V55.2817H46.563V56.948C46.563 57.3845 46.4439 57.7203 46.2059 57.9555C45.9707 58.1907 45.6405 58.3083 45.2154 58.3083ZM48.5315 55.2817C48.7951 55.2817 49.0232 55.3256 49.2159 55.4134C49.4115 55.5013 49.5617 55.626 49.6665 55.7875C49.7714 55.9491 49.8238 56.1403 49.8238 56.3614C49.8238 56.5796 49.7714 56.7709 49.6665 56.9353C49.5617 57.0968 49.4115 57.2215 49.2159 57.3094C49.0232 57.3944 48.7951 57.4369 48.5315 57.4369H47.9321V58.2573H47.2435V55.2817H48.5315ZM48.4933 56.8758C48.7001 56.8758 48.8574 56.8318 48.9651 56.744C49.0728 56.6533 49.1267 56.5258 49.1267 56.3614C49.1267 56.1942 49.0728 56.0667 48.9651 55.9788C48.8574 55.8881 48.7001 55.8428 48.4933 55.8428H47.9321V56.8758H48.4933Z"
            fill="white" />
        <path
            d="M44.2679 47.1099H42.6692V49.1714H40.4535V47.1099H35.1667V45.5814L39.7944 39.355H42.1784L37.8872 45.2589H40.5236V43.4218H42.6692V45.2589H44.2679V47.1099Z"
            fill="white" />
    </g>
    <defs>
        <filter id="filter0_d_803_25707" x="0" y="0" width="80" height="80"
            filterUnits="userSpaceOnUse" color-interpolation-filters="sRGB">
            <feFlood flood-opacity="0" result="BackgroundImageFix" />
            <feColorMatrix in="SourceAlpha" type="matrix"
                values="0 0 0 0 0 0 0 0 0 0 0 0 0 0 0 0 0 0 127 0" result="hardAlpha" />
            <feOffset dy="2" />
            <feGaussianBlur stdDeviation="2" />
            <feComposite in2="hardAlpha" operator="out" />
            <feColorMatrix type="matrix" values="0 0 0 0 0 0 0 0 0 0 0 0 0 0 0 0 0 0 0.12 0" />
            <feBlend mode="normal" in2="BackgroundImageFix" result="effect1_dropShadow_803_25707" />
            <feBlend mode="normal" in="SourceGraphic" in2="effect1_dropShadow_803_25707"
                result="shape" />
        </filter>
        <clipPath id="clip0_803_25707">
            <rect width="80" height="80" fill="white" />
        </clipPath>
    </defs>
</svg>
