<svg width="80" height="80" viewBox="0 0 80 80" fill="none" xmlns="http://www.w3.org/2000/svg">
    <g clip-path="url(#clip0_803_25644)">
        <g filter="url(#filter0_d_803_25644)">
            <path
                d="M40 74C59.8823 74 76 57.8823 76 38C76 18.1177 59.8823 2 40 2C20.1177 2 4 18.1177 4 38C4 57.8823 20.1177 74 40 74Z"
                fill="#E9E9E9" />
        </g>
        <path
            d="M47.2451 16.0436C46.7535 16.0436 46.3322 16.4386 46.3322 16.9497C46.3322 17.0659 46.3556 17.1821 46.4024 17.275L42.5868 18.2044L40.5268 14.6728C40.8077 14.5102 40.9715 14.2314 40.9715 13.9061C40.9715 13.4182 40.5736 13 40.0586 13C39.567 13 39.1456 13.395 39.1456 13.9061C39.1456 14.2314 39.3329 14.5334 39.5904 14.6728L37.5304 18.2044L33.7148 17.275C33.7616 17.1821 33.785 17.0659 33.785 16.9497C33.785 16.4618 33.3871 16.0436 32.8721 16.0436C32.3805 16.0436 31.9591 16.4386 31.9591 16.9497C31.9591 17.4376 32.3571 17.8559 32.8721 17.8559C32.9423 17.8559 33.0359 17.8326 33.1061 17.8326L35.0491 24.129H40.0586H45.0681L47.011 17.8326C47.0813 17.8559 47.1515 17.8559 47.2451 17.8559C47.7367 17.8559 48.1581 17.4609 48.1581 16.9497C48.1581 16.4386 47.7601 16.0436 47.2451 16.0436Z"
            fill="white" />
        <path
            d="M40.082 14.6729V24.1058H45.0915L47.0111 17.8094L46.4024 17.275L42.5868 18.2044L40.5268 14.6729H40.082Z"
            fill="white" />
        <path
            d="M40.0821 20.5974C36.8282 20.5974 34.2064 21.1318 34.2064 21.8056V26.5453H45.9577V21.8056C45.9577 21.155 43.3125 20.5974 40.0821 20.5974Z"
            fill="white" />
        <path
            d="M40.0821 27.7535C43.3271 27.7535 45.9577 27.2126 45.9577 26.5453C45.9577 25.8781 43.3271 25.3372 40.0821 25.3372C36.837 25.3372 34.2064 25.8781 34.2064 26.5453C34.2064 27.2126 36.837 27.7535 40.0821 27.7535Z"
            fill="white" />
        <path
            d="M46.1449 22.3167C46.0278 22.3167 45.9108 22.2703 45.8171 22.2006C45.7703 22.1773 44.3892 21.1086 40.0351 21.1086C35.7513 21.1086 34.2531 22.2006 34.2531 22.2006C34.0425 22.3632 33.7147 22.34 33.5275 22.1076C33.3636 21.8985 33.387 21.5733 33.5977 21.4106C33.6679 21.3642 35.3065 20.0863 40.0117 20.0863C44.7871 20.0863 46.2853 21.2945 46.4492 21.4339C46.6599 21.6197 46.6833 21.945 46.496 22.1541C46.4258 22.2703 46.2853 22.3167 46.1449 22.3167Z"
            fill="white" />
        <path
            d="M41.861 21.1783C42.9612 21.2712 43.7805 21.4338 44.3892 21.5965C44.7169 21.6894 45.0446 21.4571 45.0446 21.1086C45.0446 20.8762 44.8808 20.6904 44.6701 20.6207C43.9912 20.4348 43.1017 20.2721 41.9546 20.1792C41.6503 20.156 41.3928 20.3883 41.3928 20.6904C41.3928 20.9459 41.6035 21.155 41.861 21.1783Z"
            fill="white" />
        <path
            d="M46.1449 26.615C46.0278 26.615 45.9108 26.5685 45.8171 26.4988C45.7703 26.4756 44.3892 25.4068 40.0351 25.4068C35.7513 25.4068 34.2531 26.4988 34.2531 26.4988C34.0425 26.6614 33.7147 26.6382 33.5275 26.4059C33.3636 26.1968 33.387 25.8715 33.5977 25.7088C33.6679 25.6624 35.3065 24.3845 40.0117 24.3845C44.7871 24.3845 46.2853 25.5927 46.4492 25.7321C46.6599 25.918 46.6833 26.2432 46.496 26.4523C46.4258 26.5685 46.2853 26.615 46.1449 26.615Z"
            fill="white" />
        <path
            d="M41.861 25.4765C42.9612 25.5694 43.7805 25.7321 44.3892 25.8947C44.7169 25.9876 45.0446 25.7553 45.0446 25.4068C45.0446 25.1744 44.8808 24.9886 44.6701 24.9189C43.9912 24.733 43.1017 24.5704 41.9546 24.4774C41.6503 24.4542 41.3928 24.6865 41.3928 24.9886C41.3928 25.2441 41.6035 25.4533 41.861 25.4765Z"
            fill="white" />
        <path
            d="M39.1689 22.9209C39.1689 22.4329 39.5669 22.038 40.0585 22.038C40.5501 22.038 40.948 22.4329 40.948 22.9209C40.948 23.4088 40.5501 23.8037 40.0585 23.8037C39.5669 23.8037 39.1689 23.4088 39.1689 22.9209Z"
            fill="white" />
        <path
            d="M33.3168 23.8037C33.3168 23.3157 33.7147 22.9208 34.2063 22.9208C34.6979 22.9208 35.0959 23.3157 35.0959 23.8037C35.0959 24.2916 34.6979 24.6865 34.2063 24.6865C33.7147 24.6633 33.3168 24.2683 33.3168 23.8037Z"
            fill="white" />
        <path
            d="M45.0681 23.8037C45.0681 23.3157 45.4661 22.9208 45.9577 22.9208C46.4492 22.9208 46.8472 23.3157 46.8472 23.8037C46.8472 24.2916 46.4492 24.6865 45.9577 24.6865C45.4661 24.6865 45.0681 24.2683 45.0681 23.8037Z"
            fill="white" />
        <path d="M48.6262 62H56L55.1573 58.9796L56 55.9592H48.6262V62Z" fill="white" />
        <path d="M48.6262 60.2109H52.6526L48.6262 61.9999V60.2109Z" fill="white" />
        <path
            d="M53.6825 51.7307V36.0944L40.0351 28.2878L26.4111 36.0944V51.7307L40.0351 59.5373L53.6825 51.7307Z"
            fill="white" />
        <path
            d="M40.0351 61.4889L24.7023 52.7065V35.1185L40.0351 26.3362L55.368 35.1185V52.7065L40.0351 61.4889ZM28.12 50.7549L40.0585 57.5856L51.9971 50.7549V37.0702L40.0585 30.2395L28.12 37.0702V50.7549Z"
            fill="white" />
        <path d="M40.0351 26.3362V30.2395L28.12 37.0702L24.7023 35.1185L40.0351 26.3362Z"
            fill="white" />
        <path d="M55.3913 52.7065L51.9736 50.7549L40.035 57.5856V61.4889L55.3913 52.7065Z"
            fill="white" />
        <path
            d="M43.7332 51.6269C48.0284 49.8148 50.0302 44.8899 48.2045 40.6268C46.3787 36.3638 41.4166 34.3769 37.1215 36.1891C32.8263 38.0012 30.8245 42.9261 32.6502 47.1891C34.476 51.4522 39.4381 53.439 43.7332 51.6269Z"
            fill="white" />
        <path
            d="M40.4331 35.5135C40.1522 35.5135 39.8947 35.5369 39.6138 35.5601C43.8976 35.9783 47.2451 39.5563 47.2451 43.901C47.2451 48.269 43.8976 51.847 39.6138 52.242C39.8947 52.2652 40.1522 52.2883 40.4331 52.2883C45.0915 52.2883 48.8837 48.5246 48.8837 43.901C48.8837 39.2775 45.1149 35.5135 40.4331 35.5135Z"
            fill="white" />
        <path d="M24.7023 52.7065L28.12 50.7549L40.0351 57.5856V61.4889L24.7023 52.7065Z"
            fill="white" />
        <path d="M40.035 26.3362V30.2395L51.9736 37.0702L55.3913 35.1185L40.035 26.3362Z"
            fill="white" />
        <path
            d="M28.12 50.7549L40.0585 57.5856L51.9971 50.7549V37.0702L40.0585 30.2395L28.12 37.0702V50.7549Z"
            stroke="white" stroke-width="0.467446" stroke-miterlimit="10" />
        <path d="M31.3972 62H24L24.8661 58.9796L24 55.9592H31.3972V62Z" fill="white" />
        <path d="M52.7228 54.1935H27.3475V60.211H52.7228V54.1935Z" fill="white" />
        <path d="M31.3973 60.2109H27.3475L31.3973 61.9999V60.2109Z" fill="white" />
        <path d="M33.7382 17.275L36.875 19.5055L37.5772 18.2044L33.7382 17.275Z" fill="white" />
        <path d="M43.5464 19.5055L42.5867 18.2044L46.4023 17.275L43.5464 19.5055Z" fill="white" />
        <path
            d="M26.9964 26.7776L26.6453 26.917L26.9964 27.0564C28.0732 27.4746 28.9393 28.3343 29.3607 29.403L29.5012 29.7516L29.6416 29.403C30.063 28.3343 30.9291 27.4746 32.0059 27.0564L32.357 26.917L32.0059 26.7776C30.9291 26.3594 30.063 25.4998 29.6416 24.431L29.5012 24.0825L29.3607 24.431C28.9393 25.4998 28.0966 26.3594 26.9964 26.7776Z"
            fill="white" />
        <path
            d="M48.0644 26.7776L47.7133 26.917L48.0644 27.0564C49.1412 27.4746 50.0073 28.3343 50.4287 29.403L50.5691 29.7516L50.7096 29.403C51.131 28.3343 51.9971 27.4746 53.0739 27.0564L53.425 26.917L53.0739 26.7776C51.9971 26.3594 51.131 25.4998 50.7096 24.431L50.5691 24.0825L50.4287 24.431C50.0073 25.4998 49.1646 26.3594 48.0644 26.7776Z"
            fill="white" />
        <path
            d="M29.2325 55.2704H29.9211V57.685H31.4132V58.2461H29.2325V55.2704ZM34.102 57.6935V58.2461H31.798V55.2704H34.0467V55.823H32.4824V56.4692H33.864V57.0048H32.4824V57.6935H34.102ZM37.4693 55.2704L36.1813 58.2461H35.5011L34.2173 55.2704H34.9613L35.8667 57.3959L36.7849 55.2704H37.4693ZM40.0218 57.6935V58.2461H37.7178V55.2704H39.9665V55.823H38.4022V56.4692H39.7837V57.0048H38.4022V57.6935H40.0218ZM40.5697 55.2704H41.2584V57.685H42.7505V58.2461H40.5697V55.2704ZM45.6612 58.2971C45.2361 58.2971 44.9045 58.1795 44.6665 57.9443C44.4312 57.7091 44.3136 57.3732 44.3136 56.9368V55.2704H45.0023V56.9113C45.0023 57.4441 45.2233 57.7105 45.6654 57.7105C45.8808 57.7105 46.0452 57.6467 46.1586 57.5192C46.2719 57.3888 46.3286 57.1862 46.3286 56.9113V55.2704H47.0087V56.9368C47.0087 57.3732 46.8897 57.7091 46.6517 57.9443C46.4164 58.1795 46.0863 58.2971 45.6612 58.2971ZM48.9773 55.2704C49.2409 55.2704 49.469 55.3143 49.6617 55.4022C49.8573 55.4901 50.0075 55.6148 50.1123 55.7763C50.2172 55.9378 50.2696 56.1291 50.2696 56.3502C50.2696 56.5684 50.2172 56.7597 50.1123 56.924C50.0075 57.0856 49.8573 57.2103 49.6617 57.2981C49.469 57.3831 49.2409 57.4257 48.9773 57.4257H48.3779V58.2461H47.6893V55.2704H48.9773ZM48.939 56.8645C49.1459 56.8645 49.3032 56.8206 49.4109 56.7328C49.5186 56.6421 49.5724 56.5145 49.5724 56.3502C49.5724 56.183 49.5186 56.0554 49.4109 55.9676C49.3032 55.8769 49.1459 55.8315 48.939 55.8315H48.3779V56.8645H48.939Z"
            fill="white" />
        <path
            d="M41.0492 43.3404C41.9093 43.4807 42.5684 43.8032 43.0265 44.3081C43.4846 44.8036 43.7136 45.4205 43.7136 46.159C43.7136 46.7294 43.5641 47.2576 43.2649 47.7438C42.9657 48.2206 42.5076 48.6039 41.8906 48.8937C41.2829 49.1834 40.535 49.3284 39.6468 49.3284C38.955 49.3284 38.2726 49.2396 37.5994 49.062C36.9357 48.875 36.37 48.6131 35.9026 48.2766L36.7861 46.5378C37.16 46.8182 37.5901 47.0378 38.0762 47.1968C38.5717 47.3464 39.0766 47.4212 39.5908 47.4212C40.161 47.4212 40.6098 47.3137 40.937 47.0987C41.2642 46.8743 41.4278 46.5612 41.4278 46.159C41.4278 45.3551 40.8155 44.953 39.5908 44.953H38.553V43.4525L40.5724 41.1668H36.3934V39.3438H43.2649V40.8162L41.0492 43.3404Z"
            fill="white" />
    </g>
    <defs>
        <filter id="filter0_d_803_25644" x="0" y="0" width="80" height="80"
            filterUnits="userSpaceOnUse" color-interpolation-filters="sRGB">
            <feFlood flood-opacity="0" result="BackgroundImageFix" />
            <feColorMatrix in="SourceAlpha" type="matrix"
                values="0 0 0 0 0 0 0 0 0 0 0 0 0 0 0 0 0 0 127 0" result="hardAlpha" />
            <feOffset dy="2" />
            <feGaussianBlur stdDeviation="2" />
            <feComposite in2="hardAlpha" operator="out" />
            <feColorMatrix type="matrix" values="0 0 0 0 0 0 0 0 0 0 0 0 0 0 0 0 0 0 0.12 0" />
            <feBlend mode="normal" in2="BackgroundImageFix" result="effect1_dropShadow_803_25644" />
            <feBlend mode="normal" in="SourceGraphic" in2="effect1_dropShadow_803_25644"
                result="shape" />
        </filter>
        <clipPath id="clip0_803_25644">
            <rect width="80" height="80" fill="white" />
        </clipPath>
    </defs>
</svg>
