<svg width="352" height="192" viewBox="0 0 352 192" fill="none" xmlns="http://www.w3.org/2000/svg">
    <path
        d="M263.07 189.962C263.07 189.962 298.105 173.319 297.292 139.746C296.48 106.172 259.515 82.858 236.973 103.584C214.431 124.31 199.843 106.93 188.163 89.4158C176.483 71.9016 154.188 57.4919 120.004 67.7108C84.1945 78.4124 73.1807 117.142 76.7229 142.984C79.2685 161.551 88.5874 177.289 101.284 189.378C101.696 189.774 102.121 190.163 102.553 190.545C102.553 190.545 256.676 194.178 263.064 189.962C269.451 185.745 263.07 189.962 263.07 189.962Z"
        fill="#FFF3F3" />
    <path
        d="M63.3607 135.824C63.3607 137.306 62.2371 138.513 60.8532 138.513C59.4693 138.513 58.3457 137.312 58.3457 135.824C58.3457 134.335 59.4693 133.135 60.8532 133.135C62.2371 133.135 63.3607 134.335 63.3607 135.824Z"
        stroke="#EEEEFF" stroke-miterlimit="10" />
    <path
        d="M168.177 89.3252C168.027 89.7472 167.815 90.1374 167.522 90.4826C166.771 91.3649 165.635 91.7432 164.556 92.0831C163.666 92.3635 162.762 92.6466 161.833 92.6545C159.995 92.6704 158.278 91.6122 156.441 91.5196C155.197 91.4561 153.978 91.8384 152.751 92.058C150.435 92.4733 148.58 91.4866 146.857 89.8874C143.806 87.0528 143.968 79.0873 146.921 74.0398C150.042 68.7066 154.9 68.987 155.572 64.4117C155.959 61.7794 154.315 60.6829 155.146 57.8774C155.581 56.4092 156.836 55.1473 159.346 52.6222C162.788 49.1606 164.229 48.6342 164.728 48.4688C165.575 48.1897 167.29 47.6514 169.107 48.4384C169.652 48.6752 170.995 49.2558 171.483 50.6698C171.995 52.1539 171.248 53.6314 170.841 54.4343C169.932 56.2332 168.773 56.7174 168.121 57.5613C165.2 61.3443 170.706 66.6987 169.397 75.2448C169.116 77.0781 168.42 78.7421 167.968 80.5212C167.382 82.8333 168.293 83.4312 168.441 85.5092C168.531 86.7803 168.587 88.1652 168.175 89.3239L168.177 89.3252Z"
        fill="#000201" />
    <path
        d="M184.587 171.097L183.222 174.243C183.283 174.51 183.422 174.773 183.696 175.103C185.145 176.847 189.073 175.456 190.011 175.124C193.461 173.902 193.898 172.392 197.004 171.238C199.137 170.444 201.057 170.365 202.298 170.411C202.151 170.089 201.895 169.587 201.424 169.14C200.753 168.503 199.617 167.866 197.754 167.861C194.026 167.85 184.59 171.097 184.59 171.097H184.587Z"
        fill="#FF964A" />
    <path
        d="M186.05 176.251C184.666 176.251 183.906 175.798 183.488 175.296C183.194 174.941 183.03 174.638 182.954 174.313C182.939 174.249 182.946 174.182 182.972 174.122L184.337 170.977C184.37 170.903 184.43 170.846 184.503 170.821C184.889 170.689 193.993 167.57 197.735 167.57H197.753C199.766 167.576 200.961 168.309 201.608 168.924C202.11 169.4 202.384 169.929 202.547 170.286C202.589 170.379 202.582 170.488 202.53 170.572C202.477 170.658 202.39 170.715 202.289 170.704C200.471 170.638 198.724 170.909 197.098 171.514C195.639 172.056 194.797 172.67 193.904 173.319C192.933 174.024 191.93 174.755 190.102 175.403C188.363 176.019 187.047 176.252 186.054 176.252L186.05 176.251ZM183.516 174.267C183.58 174.466 183.703 174.669 183.904 174.912C184.4 175.51 185.842 176.294 189.921 174.85C191.677 174.228 192.647 173.522 193.587 172.839C194.471 172.196 195.383 171.532 196.911 170.964C198.434 170.398 200.057 170.111 201.743 170.111H201.827C201.687 169.87 201.496 169.604 201.237 169.357C200.412 168.572 199.205 168.157 197.751 168.152H197.733C194.3 168.152 185.872 170.968 184.789 171.334L183.516 174.265V174.267Z"
        fill="#FF964A" />
    <path
        d="M196.387 185.776C196.387 185.776 202.721 188.345 202.715 183.965C202.715 183.822 197.51 166.106 197.51 166.106L190.054 170.36L196.387 185.776Z"
        fill="#FFC3BD" />
    <path
        d="M195.607 190.36H211.302C211.726 190.36 212.053 189.968 211.998 189.526L211.881 188.584C211.587 187.749 211.012 187.055 210.267 186.634L201.756 181.817C201.756 181.817 199.009 182.431 199.246 185.468C199.246 185.468 197.397 183.596 195.693 184.907C195.693 184.907 195.028 187.24 195.083 189.822C195.09 190.122 195.324 190.362 195.609 190.362L195.607 190.36Z"
        fill="#131313" />
    <path
        d="M211.302 190.651H195.607C195.175 190.651 194.815 190.281 194.806 189.827C194.751 187.23 195.399 184.919 195.427 184.822C195.444 184.761 195.479 184.708 195.528 184.67C196.752 183.728 198.12 184.247 198.96 184.853C199.108 182.144 201.669 181.538 201.697 181.531C201.76 181.517 201.827 181.527 201.885 181.56L210.396 186.378C211.201 186.833 211.821 187.581 212.139 188.484C212.147 188.505 212.152 188.526 212.154 188.547L212.271 189.489C212.307 189.782 212.222 190.079 212.037 190.301C211.851 190.525 211.583 190.653 211.302 190.653V190.651ZM195.931 185.084C195.81 185.544 195.311 187.6 195.358 189.813C195.36 189.953 195.472 190.067 195.607 190.067H211.302C211.426 190.067 211.54 190.013 211.621 189.915C211.703 189.817 211.739 189.691 211.723 189.563L211.61 188.654C211.336 187.899 210.813 187.273 210.136 186.89L201.718 182.125C201.258 182.26 199.328 182.977 199.521 185.441C199.531 185.562 199.468 185.675 199.364 185.728C199.26 185.781 199.137 185.76 199.054 185.677C198.987 185.609 197.404 184.046 195.931 185.084Z"
        fill="black" />
    <path
        d="M206.913 187.256C206.899 187.256 206.884 187.256 206.869 187.252C202.732 186.565 200.282 184.278 200.179 184.182C200.065 184.075 200.056 183.891 200.158 183.77C200.259 183.651 200.435 183.641 200.548 183.748C200.571 183.77 202.988 186.018 206.954 186.675C207.104 186.7 207.207 186.85 207.185 187.008C207.163 187.153 207.045 187.254 206.913 187.254V187.256Z"
        fill="black" />
    <path
        d="M211.421 189.58H195.634C195.481 189.58 195.358 189.449 195.358 189.289C195.358 189.129 195.483 188.998 195.634 188.998H211.421C211.574 188.998 211.697 189.129 211.697 189.289C211.697 189.449 211.573 189.58 211.421 189.58Z"
        fill="black" />
    <path
        d="M162.913 175.769C161.527 175.445 158.868 174.825 158.28 172.908C157.835 171.457 158.788 169.947 159.005 169.603C161.686 165.354 170.569 164.153 175.597 168.313C178.25 170.507 180.046 174.372 179.108 175.606C178.538 176.356 177.335 175.638 174.395 175.366C168.906 174.856 167.503 176.841 162.913 175.769Z"
        fill="#FF964A" />
    <path
        d="M165.546 176.383C164.752 176.383 163.878 176.295 162.855 176.055C161.387 175.713 158.655 175.074 158.019 173C157.701 171.961 157.963 170.733 158.777 169.443C159.977 167.542 162.389 166.16 165.396 165.649C169.257 164.995 173.134 165.906 175.769 168.084C177.753 169.726 179.407 172.407 179.616 174.322C179.685 174.951 179.587 175.445 179.325 175.791C178.86 176.402 178.131 176.264 176.923 176.037C176.258 175.911 175.43 175.756 174.372 175.657C171.82 175.419 170.132 175.736 168.644 176.014C167.645 176.201 166.677 176.382 165.547 176.382L165.546 176.383ZM162.974 175.486C165.346 176.041 166.83 175.763 168.546 175.441C170.069 175.156 171.795 174.833 174.418 175.076C175.502 175.177 176.342 175.336 177.018 175.463C178.167 175.68 178.642 175.754 178.893 175.426C179.057 175.21 179.117 174.852 179.067 174.39C178.899 172.858 177.492 170.252 175.427 168.545C172.911 166.464 169.193 165.599 165.483 166.226C162.628 166.71 160.35 168 159.236 169.767C158.518 170.903 158.279 171.959 158.543 172.821C159.083 174.578 161.613 175.169 162.974 175.488L162.915 175.772L162.975 175.488L162.974 175.486Z"
        fill="#FF964A" />
    <path
        d="M163.692 167.861C163.471 168.009 166.339 186.448 166.339 186.448L172.067 187.185L171.815 169.419L163.692 167.861Z"
        fill="#FFC3BD" />
    <path
        d="M181.34 190.36H165.575C165.575 190.36 164.995 186.235 165.903 184.398L166.394 184.978C166.649 185.279 167.086 185.304 167.37 185.034C167.997 184.44 169.098 183.472 170.048 183.014C171.894 182.126 178.072 186.53 180.438 188.023C180.999 188.378 181.341 189.014 181.341 189.703V190.359L181.34 190.36Z"
        fill="#131313" />
    <path
        d="M181.34 190.651H165.575C165.439 190.651 165.322 190.546 165.302 190.403C165.278 190.231 164.719 186.161 165.658 184.263C165.701 184.178 165.779 184.12 165.869 184.108C165.958 184.096 166.049 184.132 166.11 184.203L166.601 184.784C166.674 184.87 166.775 184.921 166.885 184.928C166.999 184.932 167.103 184.895 167.185 184.816C167.915 184.124 168.985 183.203 169.933 182.748C171.517 181.988 175.458 184.421 179.359 186.98C179.828 187.286 180.243 187.559 180.579 187.772C181.218 188.175 181.616 188.916 181.616 189.702V190.358C181.616 190.519 181.492 190.649 181.34 190.649V190.651ZM165.817 190.068H181.064V189.703C181.064 189.12 180.77 188.572 180.296 188.273C179.956 188.059 179.538 187.785 179.067 187.476C176.46 185.765 171.608 182.583 170.162 183.28C169.232 183.727 168.128 184.707 167.554 185.251C167.361 185.433 167.112 185.521 166.853 185.511C166.595 185.495 166.359 185.376 166.187 185.173L165.985 184.935C165.463 186.522 165.721 189.237 165.817 190.069V190.068Z"
        fill="black" />
    <path
        d="M180.604 189.355H165.908C165.755 189.355 165.632 189.224 165.632 189.064C165.632 188.904 165.756 188.773 165.908 188.773H180.604C180.757 188.773 180.88 188.904 180.88 189.064C180.88 189.224 180.756 189.355 180.604 189.355Z"
        fill="black" />
    <path
        d="M173.988 187.368C173.947 187.368 173.904 187.358 173.864 187.337L169.319 184.917C169.182 184.845 169.128 184.67 169.197 184.526C169.266 184.383 169.433 184.325 169.568 184.396L174.114 186.816C174.25 186.888 174.304 187.063 174.235 187.207C174.186 187.309 174.09 187.367 173.988 187.367V187.368Z"
        fill="black" />
    <path
        d="M202.296 170.412C199.265 160.272 196.207 150.139 193.118 140.013C188.956 126.367 184.743 112.739 180.48 99.1306C173.859 99.9494 159.073 94.6505 160.617 101.587C161.382 105.026 161.312 105.787 161.229 107.067C160.589 117.068 159.596 124.217 159.628 126.719C159.657 128.936 159.738 135.598 159.596 144.706C159.574 146.193 159.534 147.781 159.47 149.692C159.146 159.316 158.534 161.664 158.485 169.504C158.479 170.605 158.483 171.673 158.497 172.71C161.866 172.014 165.716 171.82 169.797 172.792C173.025 173.56 173.39 174.342 176.296 174.756C177.252 174.892 178.145 174.939 178.994 174.919C176.61 141.421 176.785 133.738 176.785 133.738C177.692 141.179 178.818 148.945 180.211 156.996C181.234 162.91 182.343 168.623 183.51 174.14C186.95 173.068 189.966 171.19 194.072 170.391C196.217 169.975 198.955 169.796 202.296 170.412Z"
        fill="#FF7723" />
    <path
        d="M176.786 133.469C176.637 133.469 176.514 133.343 176.51 133.186L176.086 116.756C176.084 116.657 176.129 116.564 176.205 116.509L178.234 115.034C178.359 114.942 178.531 114.976 178.619 115.108C178.706 115.24 178.674 115.423 178.548 115.514L176.642 116.899L177.06 133.171C177.064 133.332 176.944 133.466 176.792 133.47H176.784L176.786 133.469Z"
        fill="#FF964A" />
    <path
        d="M197.959 69.5914L195.31 69.7779C194.994 70.9856 194.41 72.7369 193.275 74.5979C192.224 76.3201 189.987 79.9867 187.274 80.074C184.476 80.1626 182.431 73.8942 178.872 70.5768C174.221 70.1509 170.265 70.3467 167.267 70.6774C163.357 71.1086 160.397 71.844 159.187 72.1628C156.226 72.9445 153.686 73.8903 151.497 74.8175C150.226 79.0516 146.528 89.3781 148.159 101.65C149.407 111.038 159.03 116.97 161.629 120.022C162.27 119.264 162.804 118.383 163.249 117.442C162.491 116.002 161.353 113.845 159.963 111.223C157.301 106.202 156.773 105.246 156.548 104.794C155.368 102.425 154.842 98.5142 156.938 91.636C156.839 92.9389 156.814 94.3476 156.904 95.8489C157.146 99.8144 157.358 103.298 159.583 104.915C161.469 106.285 162.843 104.892 170.835 103.464C177.379 102.295 180.134 102.572 182.074 100.022C183.142 98.6173 183.472 97.001 183.58 95.8462C183.068 93.2881 182.565 90.7035 182.067 88.107C184.263 89.3225 186.742 89.8371 188.81 89.4746C194.614 88.4575 199.865 80.0634 197.957 69.5901L197.959 69.5914Z"
        fill="#FD4545" />
    <path
        d="M194.897 65.5666L196.31 60.6117C196.408 60.2678 196.725 60.0469 197.065 60.0879C197.449 60.1342 197.726 60.4979 197.686 60.9027L197.483 62.9344L199.355 64.5177C199.931 65.0058 200.157 65.8193 199.921 66.5573L199.298 68.5097C198.986 69.4872 198.137 70.1631 197.159 70.212L196.501 70.2451C195.488 70.2967 194.555 69.6644 194.18 68.6724L193.737 67.5031C193.459 66.7703 193.825 65.941 194.536 65.6923L194.897 65.5653V65.5666Z"
        fill="#FFC3BD" />
    <path
        d="M196.388 70.5401C195.307 70.5401 194.328 69.847 193.924 68.7809L193.481 67.6116C193.318 67.1817 193.331 66.7135 193.515 66.2942C193.701 65.8736 194.032 65.5627 194.449 65.4159L194.675 65.3365L196.047 60.5271C196.183 60.0483 196.625 59.7414 197.097 59.7983C197.63 59.8618 198.018 60.371 197.963 60.9332L197.776 62.8075L199.531 64.2916C200.196 64.8537 200.459 65.8021 200.187 66.6526L199.564 68.605C199.213 69.7042 198.275 70.4502 197.175 70.5057L196.517 70.5388C196.474 70.5415 196.432 70.5415 196.39 70.5415L196.388 70.5401ZM196.985 60.3737C196.798 60.3737 196.63 60.502 196.575 60.6951L195.161 65.65C195.135 65.7413 195.07 65.8127 194.983 65.8431L194.622 65.9701C194.35 66.0654 194.134 66.2677 194.015 66.5402C193.895 66.8127 193.887 67.1156 193.993 67.3947L194.435 68.564C194.768 69.4396 195.591 69.9978 196.487 69.9542L197.145 69.9211C198.015 69.8775 198.758 69.2862 199.036 68.4172L199.659 66.4648C199.857 65.8458 199.666 65.154 199.182 64.7453L197.309 63.162C197.235 63.0998 197.198 63.0032 197.208 62.904L197.411 60.8723C197.435 60.6276 197.267 60.4054 197.034 60.3776C197.017 60.375 197.001 60.375 196.985 60.375V60.3737Z"
        fill="#FFC3BD" />
    <path
        d="M194.897 65.5669L196.525 65.7851C196.525 65.7851 196.766 67.1806 195.741 67.1542L194.899 65.5669H194.897Z"
        fill="#FFC3BD" />
    <path
        d="M195.769 67.4449C195.758 67.4449 195.745 67.4449 195.734 67.4449C195.581 67.4409 195.461 67.3073 195.464 67.1459C195.468 66.9846 195.589 66.8615 195.748 66.8615C195.916 66.8695 196.04 66.8205 196.121 66.72C196.257 66.5534 196.281 66.2597 196.273 66.0441L194.864 65.8549C194.712 65.8351 194.605 65.6883 194.624 65.5296C194.643 65.3695 194.783 65.2597 194.934 65.2769L196.562 65.4952C196.681 65.511 196.777 65.6076 196.799 65.7319C196.814 65.8206 196.936 66.6142 196.543 67.0983C196.414 67.257 196.175 67.4449 195.77 67.4449H195.769Z"
        fill="#FFC3BD" />
    <path
        d="M197.586 66.1101C197.571 66.1101 197.554 66.1088 197.539 66.1061C197.389 66.0797 197.287 65.9289 197.314 65.7702L197.711 63.3125C197.736 63.1538 197.881 63.0467 198.03 63.0745C198.18 63.1009 198.282 63.2517 198.255 63.4104L197.858 65.8681C197.835 66.0096 197.717 66.1101 197.586 66.1101Z"
        fill="#FFC3BD" />
    <path
        d="M198.752 66.6999C198.736 66.6999 198.719 66.6986 198.703 66.6959C198.553 66.6668 198.453 66.516 198.48 66.3573L198.815 64.405C198.842 64.2462 198.986 64.1417 199.136 64.1695C199.286 64.1986 199.385 64.3494 199.359 64.5081L199.024 66.4605C199 66.602 198.884 66.6999 198.752 66.6999Z"
        fill="#FFC3BD" />
    <path
        d="M181.968 86.5251C181.841 86.5251 181.729 86.4338 181.698 86.2976L179.844 77.6892C179.81 77.5318 179.903 77.3758 180.052 77.34C180.201 77.3043 180.349 77.4035 180.383 77.5596L182.238 86.1679C182.272 86.3253 182.179 86.4814 182.03 86.5171C182.009 86.5224 181.988 86.5237 181.968 86.5237V86.5251Z"
        fill="#FD4545" />
    <path
        d="M159.99 121.562C159.881 121.562 159.777 121.493 159.734 121.379C159.677 121.23 159.746 121.06 159.886 120.999C165.38 118.649 164.572 105.629 164.563 105.498C164.552 105.338 164.667 105.198 164.819 105.187C164.978 105.174 165.104 105.297 165.114 105.457C165.151 106.01 165.955 119.032 160.093 121.54C160.059 121.555 160.024 121.562 159.989 121.562H159.99Z"
        fill="#FF964A" />
    <path
        d="M172.127 70.3281C170.451 70.0397 169.248 68.4683 169.337 66.6813L169.475 63.9062C171.067 63.7753 172.39 62.9777 172.386 62.4473C172.383 62.1893 171.8 59.6669 171.435 58.6246C171.744 58.36 172.119 57.6325 171.454 57.1868C170.791 56.741 169.299 53.9038 169.299 53.9038C167.459 51.6512 166.926 54.8257 165.552 55.0903C164.6 55.2728 164.083 55.8839 164.443 57.1934C164.803 58.5042 164.12 57.8468 163.419 57.4725C162.719 57.0995 162.243 57.3892 162.626 58.5809C163.01 59.7727 164.411 60.4883 164.411 60.4883L165.074 61.86L163.676 68.6072C163.411 69.8823 162.541 70.9246 161.374 71.3638L159.446 72.0873L169.576 77.6732L174.469 70.7315L172.129 70.3281H172.127Z"
        fill="#FFC3BD" />
    <path
        d="M168.904 64.27C167.701 64.27 166.955 63.352 166.705 62.7885C166.642 62.643 166.7 62.4684 166.84 62.401C166.978 62.3335 167.142 62.3957 167.207 62.5412C167.236 62.6047 167.887 64.0002 169.411 63.6205C169.559 63.5822 169.709 63.6801 169.744 63.8375C169.779 63.9935 169.687 64.151 169.538 64.188C169.314 64.2435 169.102 64.27 168.904 64.27Z"
        fill="#FFCDC8" />
    <path
        d="M205.699 42.5963L197.128 44.6332C196.071 44.8848 195.251 45.7618 195.026 46.879L193.883 52.556L189.963 47.8882C189.294 47.0908 188.265 46.7411 187.279 46.9742L179.396 48.8476C177.903 49.2029 176.42 48.2137 176.083 46.6373L172.313 28.988C171.976 27.4131 172.914 25.8481 174.408 25.4928L200.711 19.2429C202.204 18.8876 203.687 19.8769 204.024 21.4532L207.794 39.1026C208.131 40.6775 207.193 42.2424 205.699 42.5978V42.5963Z"
        fill="#B0C5D0" />
    <g clip-path="url(#clip0_309_1126)">
        <path
            d="M194.535 25.3759C195.592 25.5891 196.156 26.2774 196.306 27.4023C196.374 27.9184 196.496 28.4305 196.631 28.9325C196.765 29.4416 196.387 29.372 196.158 29.413C195.922 29.4555 195.581 29.774 195.478 29.2051C195.363 28.568 195.208 27.9402 195.081 27.304C194.979 26.7925 194.705 26.6058 194.225 26.7224C190.539 27.6088 186.851 28.4923 183.163 29.3721C182.65 29.4949 182.483 29.7994 182.611 30.3326C182.742 30.8808 182.818 31.444 182.975 31.9825C183.104 32.4301 183.021 32.6398 182.566 32.6894C182.359 32.7112 182.131 32.7259 181.96 32.8956L181.361 30.0769C181.412 29.2695 181.78 28.6765 182.432 28.2749L194.535 25.3759Z"
            fill="#455760" />
        <path
            d="M193.752 37.8383C193.895 38.5124 194.046 39.1846 194.179 39.8592C194.426 41.1141 193.896 42.0051 192.735 42.2935C192.083 42.4566 191.431 42.6111 190.777 42.7626C189.609 43.0319 188.767 42.4713 188.49 41.2219C188.192 39.8784 187.9 38.5318 187.638 37.1777C187.551 36.7217 187.422 36.5213 186.955 36.6975C186.605 36.8299 186.231 36.8901 185.862 36.9661C185.56 37.0281 185.162 37.2628 184.972 36.981C184.758 36.6632 185.114 36.3327 185.282 36.0435C185.912 34.958 186.558 33.8811 187.203 32.8042C187.657 32.0444 188.122 31.2943 188.575 30.5333C188.89 30.0054 189.284 29.9267 189.772 30.2552C191.62 31.4954 193.471 32.7299 195.316 33.9742C195.476 34.0823 195.712 34.2049 195.66 34.4331C195.614 34.6409 195.37 34.6889 195.176 34.737C194.678 34.8581 194.183 35.0097 193.677 35.089C193.248 35.1553 193.194 35.3509 193.299 35.7592C193.477 36.444 193.601 37.1452 193.749 37.8391L193.752 37.8383Z"
            fill="#455760" />
    </g>
    <defs>
        <clipPath id="clip0_309_1126">
            <rect width="15.192" height="16.0433" fill="white"
                transform="matrix(-0.972492 0.232937 -0.207655 -0.978202 199.153 40.7615)" />
        </clipPath>
    </defs>
</svg>
