<svg width="51" height="51" viewBox="0 0 51 51" fill="none" xmlns="http://www.w3.org/2000/svg">
    <g clip-path="url(#clip0_803_25819)">
        <path
            d="M25.5 51C39.5833 51 51 39.5833 51 25.5C51 11.4167 39.5833 0 25.5 0C11.4167 0 0 11.4167 0 25.5C0 39.5833 11.4167 51 25.5 51Z"
            fill="#EEEFF4" />
        <path
            d="M33.9392 33.6369C33.396 28.9722 29.2779 25.3278 24.2376 25.2165C24.1068 25.2136 24 25.3199 24 25.4507C24 25.5815 24.1057 25.6866 24.2355 25.7026C25.7508 25.8902 28.076 27.7889 29.5 29.6875C30.7497 31.3537 31.3053 33.7141 31.4559 34.4555C31.4832 34.59 31.6006 34.6876 31.7378 34.6876H32.9474C33.5288 34.6876 34.0065 34.2143 33.9392 33.6369Z"
            fill="#B42626" />
        <path
            d="M24.0001 22.1086C26.3255 22.1086 28.2106 20.2235 28.2106 17.898C28.2106 15.5726 26.3255 13.6875 24.0001 13.6875C21.6747 13.6875 19.7896 15.5726 19.7896 17.898C19.7896 20.2235 21.6747 22.1086 24.0001 22.1086Z"
            fill="#FE4545" />
        <path
            d="M24 24.2139C18.852 24.2139 14.6126 27.8991 14.0608 32.6369C13.9936 33.2143 14.4713 33.6876 15.0526 33.6876H32.9474C33.5288 33.6876 34.0065 33.2143 33.9393 32.6369C33.3875 27.8991 29.148 24.2139 24 24.2139Z"
            fill="#FE4545" />
        <path
            d="M34.776 35.4955C37.0028 35.4955 38.808 33.6903 38.808 31.4635C38.808 29.2367 37.0028 27.4315 34.776 27.4315C32.5492 27.4315 30.744 29.2367 30.744 31.4635C30.744 33.6903 32.5492 35.4955 34.776 35.4955Z"
            fill="white" />
        <path fill-rule="evenodd" clip-rule="evenodd"
            d="M35 37.2875C38.0929 37.2875 40.6 34.7804 40.6 31.6875C40.6 28.5946 38.0929 26.0875 35 26.0875C31.9071 26.0875 29.4 28.5946 29.4 31.6875C29.4 34.7804 31.9071 37.2875 35 37.2875ZM36.9802 29.7074C37.0853 29.6024 37.2279 29.5434 37.3765 29.5435C37.5251 29.5436 37.6676 29.6028 37.7726 29.7079C37.8776 29.8131 37.9365 29.9556 37.9364 30.1042C37.9363 30.2528 37.8772 30.3953 37.772 30.5003L34.6063 33.666L34.6041 33.6682C34.5522 33.7204 34.4905 33.7618 34.4226 33.7901C34.3546 33.8184 34.2818 33.8329 34.2082 33.8329C34.1346 33.8329 34.0617 33.8184 33.9938 33.7901C33.9258 33.7618 33.8642 33.7204 33.8123 33.6682L33.81 33.666L32.228 32.084C32.1745 32.0323 32.1319 31.9706 32.1025 31.9022C32.0732 31.8339 32.0577 31.7604 32.0571 31.6861C32.0564 31.6117 32.0706 31.538 32.0988 31.4692C32.1269 31.4003 32.1685 31.3378 32.2211 31.2852C32.2737 31.2326 32.3362 31.1911 32.405 31.1629C32.4738 31.1347 32.5476 31.1206 32.6219 31.1212C32.6963 31.1219 32.7698 31.1373 32.8381 31.1667C32.9064 31.196 32.9682 31.2387 33.0199 31.2922L34.2082 32.4799L36.9802 29.7074Z"
            fill="#13A14C" />
    </g>
    <defs>
        <clipPath id="clip0_803_25819">
            <rect width="51" height="51" fill="white" />
        </clipPath>
    </defs>
</svg>
