<svg width="14" height="18" viewBox="0 0 14 18" fill="none" xmlns="http://www.w3.org/2000/svg">
    <path fill-rule="evenodd" clip-rule="evenodd"
        d="M7.3616 17.5814L7.2838 17.6715C7.1342 17.8446 6.8658 17.8446 6.7162 17.6715L6.6384 17.5814C6.3973 17.315 0.25 10.4651 0.25 6.39323C0.25 2.89218 3.30357 0 7 0C10.6964 0 13.75 2.85412 13.75 6.39323C13.75 10.1701 8.4611 16.3044 7.5024 17.4163C7.4275 17.5031 7.3791 17.5593 7.3616 17.5814ZM9.6996 6.30005C9.6996 7.7766 8.4762 9 6.9996 9C5.5231 9 4.29963 7.7766 4.29963 6.30005C4.29963 4.82348 5.5231 3.60005 6.9996 3.60005C8.4762 3.60005 9.6996 4.82348 9.6996 6.30005Z"
        fill="#FFBE0B" />
</svg>
