<svg width="60" height="60" viewBox="0 0 60 60" fill="none" xmlns="http://www.w3.org/2000/svg">
    <path fill-rule="evenodd" clip-rule="evenodd"
        d="M29.9999 59.9999C46.5689 59.9999 59.9999 46.5689 59.9999 29.9999C59.9999 13.4309 46.5689 -6.10352e-05 29.9999 -6.10352e-05C13.4309 -6.10352e-05 -0.00012207 13.4309 -0.00012207 29.9999C-0.00012207 46.5689 13.4309 59.9999 29.9999 59.9999ZM40.6079 19.3919C41.1712 18.8294 41.9349 18.5137 42.731 18.5143C43.5271 18.5148 44.2904 18.8316 44.8529 19.3949C45.4154 19.9583 45.7311 20.722 45.7305 21.5181C45.73 22.3142 45.4132 23.0774 44.8499 23.6399L27.8909 40.5989L27.8789 40.6109C27.6009 40.8905 27.2704 41.1123 26.9064 41.2637C26.5424 41.4151 26.1521 41.493 25.7579 41.493C25.3637 41.493 24.9733 41.4151 24.6093 41.2637C24.2453 41.1123 23.9148 40.8905 23.6369 40.6109L23.6249 40.5989L15.1499 32.1239C14.8633 31.8472 14.6348 31.5162 14.4776 31.1502C14.3203 30.7841 14.2376 30.3905 14.2341 29.9921C14.2307 29.5938 14.3066 29.1988 14.4574 28.8301C14.6083 28.4614 14.831 28.1264 15.1127 27.8448C15.3944 27.5631 15.7293 27.3403 16.098 27.1895C16.4667 27.0386 16.8617 26.9627 17.2601 26.9662C17.6584 26.9696 18.0521 27.0524 18.4181 27.2096C18.7841 27.3669 19.1151 27.5954 19.3919 27.8819L25.7579 34.2449L40.6079 19.3949V19.3919Z"
        fill="#148A28" />
</svg>
