<svg width="16" height="16" viewBox="0 0 16 16" fill="none" xmlns="http://www.w3.org/2000/svg">
    <path
        d="M13.3337 8.12416V2.70939C13.3337 2.67792 13.308 2.65289 13.2766 2.65467C12.9531 2.67301 11.331 2.75031 10.3707 2.51948C9.38784 2.28322 8.08635 1.48089 7.8802 1.35133C7.86249 1.3402 7.84181 1.33998 7.82392 1.35083C7.6128 1.47881 6.26459 2.28291 5.33366 2.51948C4.43312 2.74832 3.0249 2.67432 2.72454 2.65516C2.69293 2.65314 2.66699 2.67827 2.66699 2.70995V8.21612C2.66699 10.09 3.60429 11.8398 5.16429 12.878L7.82285 14.6474C7.84069 14.6593 7.86385 14.6596 7.88199 14.6482L10.7172 12.8632C12.3457 11.838 13.3337 10.0484 13.3337 8.12416Z"
        stroke="#148A28" stroke-width="1.12" />
    <path
        d="M4.7998 7.73343L7.01683 9.84231C7.03108 9.85586 7.05358 9.85544 7.0673 9.84135L11.1998 5.6001"
        stroke="#148A28" stroke-width="1.12" stroke-linecap="round" />
</svg>
