<svg width="28" height="28" viewBox="0 0 28 28" fill="none" xmlns="http://www.w3.org/2000/svg">
    <g id="Verified" clip-path="url(#clip0_1815_11222)">
        <g id="Group" filter="url(#filter0_d_1815_11222)">
            <path id="Vector"
                d="M23.4426 11.8793L23.0206 11.5921C22.554 11.2828 22.3541 10.6864 22.5096 10.1562L22.6429 9.67017C22.8651 8.91907 22.3541 8.14589 21.5766 8.01334L21.0656 7.92498C20.5102 7.83661 20.0659 7.41689 19.9771 6.86461L19.8882 6.35652C19.7549 5.58333 18.9774 5.09733 18.2221 5.31824L17.7333 5.47288C17.2002 5.62751 16.6003 5.4287 16.2893 4.98688L15.9783 4.54506C15.5118 3.90442 14.601 3.81605 14.0234 4.34624L13.6457 4.69969C13.2236 5.07524 12.6238 5.1636 12.1129 4.87642L11.6686 4.63342C10.9799 4.25787 10.1135 4.56715 9.80247 5.29615L9.60253 5.78215C9.4026 6.31234 8.86943 6.6437 8.31405 6.59952L7.8031 6.57743C7.00335 6.53325 6.3591 7.19597 6.42575 7.96916L6.47018 8.47725C6.51461 9.02953 6.18138 9.55971 5.67043 9.78062L5.20391 9.97944C4.4708 10.2887 4.18201 11.1503 4.55967 11.8351L4.82625 12.2769C5.11505 12.7629 5.0484 13.3815 4.67074 13.8012L4.33751 14.1767C3.80435 14.7732 3.91542 15.6789 4.58188 16.1207L5.00397 16.4079C5.47049 16.7172 5.67043 17.3136 5.51492 17.8438L5.31499 18.3519C5.09283 19.103 5.60378 19.8762 6.38132 20.0087L6.89227 20.0971C7.44765 20.1855 7.89196 20.6052 7.98082 21.1575L8.06968 21.6656C8.20297 22.4388 8.98051 22.9248 9.73582 22.7038L10.2246 22.5492C10.7577 22.3946 11.3575 22.5934 11.6686 23.0352L11.9796 23.4549C12.4461 24.0956 13.3569 24.1839 13.9345 23.6538L14.3122 23.3003C14.7343 22.9248 15.3341 22.8364 15.845 23.1236L16.2893 23.3666C16.978 23.7421 17.8444 23.4329 18.1554 22.7038L18.3554 22.2178C18.5553 21.6877 19.0885 21.3563 19.6438 21.4005L20.1548 21.4226C20.9545 21.4668 21.5988 20.804 21.5321 20.0308L21.5099 19.5227C21.4655 18.9705 21.7987 18.4403 22.3097 18.2194L22.7762 18.0206C23.5093 17.7113 23.7981 16.8497 23.4204 16.1649L23.1539 15.7231C22.8651 15.2371 22.9317 14.6185 23.3094 14.1988L23.6426 13.8233C24.198 13.2489 24.0869 12.3211 23.4426 11.8793Z"
                fill="#03A9F4" />
            <path id="Vector_2"
                d="M12.1731 17.2559C12.4962 17.5811 13.0213 17.5843 13.3483 17.2631L14.5788 16.0544L18.1393 12.5328C18.467 12.2086 18.4693 11.68 18.1445 11.353L17.5196 10.724C17.1958 10.398 16.6691 10.3956 16.3424 10.7188L12.7793 14.243L11.6306 13.086C11.3075 12.7606 10.7823 12.7573 10.4552 13.0786L9.82261 13.7C9.49303 14.0238 9.48972 14.5538 9.81522 14.8817L10.9577 16.0323L12.1731 17.2559Z"
                fill="white" />
        </g>
    </g>
    <defs>
        <filter id="filter0_d_1815_11222" x="0.66666" y="0.66666" width="26.6667" height="26.6667"
            filterUnits="userSpaceOnUse" color-interpolation-filters="sRGB">
            <feFlood flood-opacity="0" result="BackgroundImageFix" />
            <feColorMatrix in="SourceAlpha" type="matrix"
                values="0 0 0 0 0 0 0 0 0 0 0 0 0 0 0 0 0 0 127 0" result="hardAlpha" />
            <feOffset />
            <feGaussianBlur stdDeviation="1.66667" />
            <feComposite in2="hardAlpha" operator="out" />
            <feColorMatrix type="matrix" values="0 0 0 0 0 0 0 0 0 0 0 0 0 0 0 0 0 0 0.12 0" />
            <feBlend mode="normal" in2="BackgroundImageFix"
                result="effect1_dropShadow_1815_11222" />
            <feBlend mode="normal" in="SourceGraphic" in2="effect1_dropShadow_1815_11222"
                result="shape" />
        </filter>
        <clipPath id="clip0_1815_11222">
            <rect width="28" height="28" fill="white" />
        </clipPath>
    </defs>
</svg>
