<svg width="20" height="20" viewBox="0 0 20 20" fill="none" xmlns="http://www.w3.org/2000/svg">
    <rect width="20" height="20" fill="white" />
    <path
        d="M1.23784 9.66879C2.2082 8.46422 5.8194 4.375 10.125 4.375C14.4306 4.375 18.0419 8.46421 19.0122 9.66879C19.0847 9.75853 19.125 9.87644 19.125 9.99888C19.125 10.1213 19.0848 10.2392 19.0123 10.329C18.042 11.534 14.4307 15.625 10.125 15.625C5.8193 15.625 2.20806 11.534 1.2378 10.329C1.16529 10.2392 1.12499 10.1213 1.125 9.99888C1.12501 9.87644 1.16532 9.75853 1.23784 9.66879Z"
        stroke="#1F1F1F" stroke-width="1.6" />
    <path
        d="M10.125 12.25C11.3676 12.25 12.375 11.2426 12.375 10C12.375 8.75736 11.3676 7.75 10.125 7.75C8.88236 7.75 7.875 8.75736 7.875 10C7.875 11.2426 8.88236 12.25 10.125 12.25Z"
        stroke="#1F1F1F" stroke-width="1.6" />
</svg>
