<svg width="29" height="20" viewBox="0 0 29 20" fill="none" xmlns="http://www.w3.org/2000/svg">
    <g id="Youtube" clip-path="url(#clip0_1797_8997)">
        <path id="Vector"
            d="M19.1515 9.71356C16.5842 8.34161 14.126 7.08031 11.6133 5.76343V13.6413C14.2574 12.2039 17.0445 10.8876 19.1624 9.71356H19.1515Z"
            fill="white" />
        <path id="Vector_2"
            d="M19.1515 9.71356C16.5842 8.34161 11.6133 5.76343 11.6133 5.76343L18.2408 10.218C18.2408 10.218 17.0335 10.8876 19.1515 9.71356Z"
            fill="#E8E0E0" />
        <path id="Vector_3"
            d="M12.0963 19.808C6.76384 19.7098 4.94254 19.6215 3.82306 19.3909C3.06566 19.2376 2.40748 18.8974 1.92488 18.4038C1.55189 18.0303 1.25527 17.4605 1.02514 16.6698C0.827735 16.0111 0.750852 15.4631 0.641241 14.1244C0.473449 11.1031 0.433449 8.63294 0.641241 5.87294C0.81267 4.34878 0.895787 2.53943 2.03449 1.48384C2.57215 0.989818 3.19761 0.671896 3.89994 0.540468C4.99709 0.332156 9.67137 0.16748 14.5103 0.16748C19.3384 0.16748 24.0231 0.332156 25.1212 0.540468C25.9986 0.705143 26.8215 1.19865 27.3046 1.83501C28.3436 3.4693 28.3618 5.50151 28.4672 7.09112C28.5109 7.84852 28.5109 12.1493 28.4672 12.9067C28.3031 15.4189 28.1711 16.3077 27.7981 17.2293C27.5675 17.8111 27.3706 18.1181 27.0298 18.4584C26.4954 18.982 25.814 19.3303 25.0766 19.4568C20.462 19.8038 16.5436 19.8792 12.0963 19.808ZM19.1628 9.71346C16.5955 8.34151 14.1373 7.0693 11.6246 5.75242V13.6309C14.2688 12.1935 17.0563 10.8766 19.1737 9.70255L19.1628 9.71346Z"
            fill="#CD201F" />
    </g>
    <defs>
        <clipPath id="clip0_1797_8997">
            <rect width="28" height="19.6672" fill="white" transform="translate(0.5 0.166504)" />
        </clipPath>
    </defs>
</svg>
