<svg width="29" height="20" viewBox="0 0 29 20" fill="none" xmlns="http://www.w3.org/2000/svg">
    <path id="Vector"
        d="M11.9297 19.8081C6.59718 19.7099 4.77588 19.6216 3.6564 19.3909C2.899 19.2377 2.24082 18.8974 1.75822 18.4039C1.38523 18.0304 1.08861 17.4605 0.858481 16.6699C0.661078 16.0112 0.584195 15.4631 0.474585 14.1244C0.306793 11.1031 0.266793 8.63301 0.474585 5.87301C0.646013 4.34885 0.72913 2.5395 1.86783 1.48392C2.40549 0.989891 3.03095 0.671969 3.73329 0.54054C4.83043 0.332229 9.50472 0.167553 14.3437 0.167553C19.1717 0.167553 23.8564 0.332229 24.9546 0.54054C25.832 0.705216 26.6548 1.19872 27.138 1.83509C28.1769 3.46937 28.1951 5.50158 28.3006 7.09119C28.3442 7.84859 28.3442 12.1494 28.3006 12.9068C28.1364 15.419 28.0045 16.3078 27.6315 17.2294C27.4008 17.8112 27.2039 18.1182 26.8632 18.4585C26.3287 18.9821 25.6473 19.3304 24.9099 19.4569C20.2954 19.8039 16.3769 19.8792 11.9297 19.8081ZM18.9961 9.71353C16.4289 8.34158 13.9707 7.06937 11.458 5.75249V13.6309C14.1021 12.1935 16.8897 10.8766 19.0071 9.70262L18.9961 9.71353Z"
        fill="#CACACA" />
</svg>
