<svg width="24" height="24" viewBox="0 0 24 24" fill="none" xmlns="http://www.w3.org/2000/svg">
    <path
        d="M9.93969 20.8347C5.36901 20.7506 3.80789 20.6749 2.84834 20.4772C2.19914 20.3458 1.63498 20.0542 1.22132 19.6312C0.901621 19.311 0.647372 18.8226 0.450118 18.1449C0.280916 17.5803 0.215016 17.1105 0.121064 15.963C-0.0227579 13.3734 -0.0570436 11.2561 0.121064 8.89039C0.268003 7.58397 0.339246 6.0331 1.31528 5.12831C1.77613 4.70486 2.31223 4.43236 2.91424 4.3197C3.85465 4.14115 7.86118 4 12.0089 4C16.1472 4 20.1626 4.14115 21.1039 4.3197C21.856 4.46085 22.5613 4.88386 22.9754 5.42931C23.8659 6.83013 23.8815 8.57202 23.9719 9.93455C24.0093 10.5837 24.0093 14.2701 23.9719 14.9193C23.8312 17.0727 23.7181 17.8345 23.3984 18.6244C23.2007 19.1231 23.0319 19.3863 22.7398 19.6779C22.2817 20.1267 21.6977 20.4253 21.0656 20.5337C17.1103 20.8312 13.7516 20.8957 9.93969 20.8347ZM15.9967 12.1823C13.7962 11.0063 11.6892 9.91584 9.53539 8.78709V15.54C11.8018 14.308 14.1911 13.1792 16.006 12.1729L15.9967 12.1823Z"
        fill="#CD201F" />
</svg>
