<svg width="12" height="10" viewBox="0 0 12 10" fill="none" xmlns="http://www.w3.org/2000/svg">
    <path
        d="M11.8306 3.72256C11.8568 2.964 11.6909 2.2111 11.3483 1.53379C11.1159 1.25588 10.7933 1.06833 10.4367 1.00383C8.96214 0.870019 7.48144 0.815179 6.00094 0.839539C4.52586 0.814069 3.05046 0.867149 1.58102 0.998529C1.2905 1.05137 1.02164 1.18764 0.807261 1.3907C0.330291 1.83058 0.277291 2.58313 0.224301 3.21909C0.147401 4.36254 0.147401 5.5098 0.224301 6.6533C0.239631 7.0112 0.292921 7.3665 0.383291 7.7132C0.447191 7.9809 0.576471 8.2285 0.759561 8.434C0.975401 8.6478 1.25052 8.7918 1.54922 8.8474C2.69178 8.9884 3.84304 9.0468 4.99401 9.0223C6.84894 9.0487 8.47594 9.0223 10.3997 8.8739C10.7057 8.8217 10.9885 8.6775 11.2105 8.4605C11.3589 8.312 11.4697 8.1304 11.5338 7.9305C11.7233 7.3489 11.8164 6.7403 11.8094 6.1286C11.8306 5.8318 11.8306 4.04055 11.8306 3.72256ZM4.80322 6.4466V3.1661L7.94064 4.8143C7.06084 5.3019 5.90026 5.853 4.80322 6.4466Z"
        fill="#8C8C8C" />
</svg>
