<svg width="16" height="16" viewBox="0 0 16 16" fill="none" xmlns="http://www.w3.org/2000/svg">
    <g id="youtube">
        <path id="Vector"
            d="M13.9972 6.97169C14.0241 6.19527 13.8552 5.42463 13.5063 4.73062C13.5029 4.72382 13.4987 4.71742 13.4938 4.71162C13.2553 4.43059 12.9265 4.24095 12.5635 4.17529C11.0468 4.03765 9.52379 3.98125 8.00099 4.0063C6.48377 3.98011 4.96622 4.0347 3.4548 4.16984C3.15598 4.22418 2.87944 4.36435 2.65894 4.57321C2.16834 5.02566 2.11383 5.79971 2.05932 6.45383C1.98023 7.62995 1.98023 8.80999 2.05932 9.98615C2.07509 10.3543 2.1299 10.7197 2.22285 11.0763C2.28858 11.3517 2.42155 11.6064 2.60987 11.8177C2.83188 12.0376 3.11486 12.1857 3.42209 12.2429C4.5973 12.388 5.78144 12.448 6.9653 12.4228C8.87322 12.45 10.5467 12.4228 12.5255 12.2702C12.8402 12.2165 13.1311 12.0682 13.3594 11.845C13.5121 11.6922 13.626 11.5055 13.692 11.2998C13.8869 10.7016 13.9826 10.0756 13.9754 9.44646C13.9972 9.14118 13.9972 7.29876 13.9972 6.97169ZM6.91681 9.69403C6.85002 9.72979 6.76906 9.6815 6.76906 9.60574V6.56482C6.76906 6.4896 6.84897 6.44131 6.91556 6.47629L9.83207 8.00844C9.9025 8.04544 9.90363 8.14571 9.83371 8.18367C8.99198 8.64072 7.93428 9.14938 6.91681 9.69403Z"
            stroke="#1F1F1F" />
    </g>
</svg>
