<svg width="121" height="120" viewBox="0 0 121 120" fill="none" xmlns="http://www.w3.org/2000/svg">
    <path
        d="M63.8296 92.6767L65.0663 93.8386C65.1443 93.9118 65.2533 93.942 65.3579 93.9194L67.0163 93.5594C67.2796 93.5023 67.4941 93.7718 67.3794 94.0157L66.6565 95.551C66.6109 95.6477 66.616 95.7607 66.6697 95.8531L67.5246 97.319C67.6605 97.5518 67.4704 97.8391 67.203 97.8053L65.5197 97.5922C65.4136 97.5787 65.3075 97.6183 65.2362 97.6982L64.1063 98.9642C63.927 99.1651 63.5949 99.0732 63.5445 98.8087L63.2269 97.1417C63.207 97.0366 63.1365 96.948 63.0385 96.905L61.4853 96.2215C61.2385 96.113 61.2234 95.7689 61.4596 95.639L62.9469 94.8218C63.0407 94.7702 63.1031 94.6759 63.1137 94.5696L63.2836 92.8812C63.3107 92.6131 63.6333 92.4922 63.8296 92.6767Z"
        fill="#F3AF00" fill-opacity="0.6" />
    <path
        d="M96.6903 15.3315L98.2215 17.1679C98.318 17.2836 98.4653 17.3446 98.6156 17.3307L100.996 17.1103C101.374 17.0753 101.629 17.4891 101.426 17.8104L100.153 19.8341C100.072 19.9618 100.06 20.1207 100.12 20.2591L101.065 22.4554C101.215 22.8041 100.9 23.1735 100.532 23.0806L98.2136 22.4947C98.0674 22.4578 97.9124 22.4952 97.7991 22.5946L96.0022 24.1721C95.7168 24.4227 95.2683 24.2371 95.2431 23.8584L95.0837 21.4726C95.0736 21.3221 94.9904 21.1863 94.8608 21.1092L92.8052 19.8879C92.4788 19.6939 92.5164 19.2099 92.869 19.0687L95.0888 18.18C95.2287 18.1241 95.3321 18.0027 95.3652 17.8555L95.8916 15.5232C95.9753 15.1536 96.4472 15.0399 96.6903 15.3315Z"
        fill="#F3AF00" fill-opacity="0.6" />
    <path
        d="M111.247 69.5054L111.449 70.2746C111.462 70.3231 111.498 70.3622 111.545 70.3793L112.293 70.6486C112.412 70.6913 112.43 70.8518 112.324 70.92L111.655 71.3501C111.613 71.3772 111.587 71.4233 111.585 71.4734L111.56 72.2683C111.556 72.3946 111.409 72.4615 111.312 72.3816L110.696 71.8783C110.657 71.8466 110.605 71.8361 110.557 71.85L109.793 72.072C109.672 72.1073 109.563 71.988 109.609 71.8704L109.897 71.129C109.915 71.0822 109.909 71.0297 109.881 70.9882L109.434 70.3303C109.363 70.2259 109.443 70.0853 109.569 70.0925L110.363 70.1376C110.413 70.1405 110.461 70.1184 110.492 70.0788L110.979 69.4502C111.057 69.3511 111.215 69.3833 111.247 69.5054Z"
        fill="#F3AF00" fill-opacity="0.6" />
    <path
        d="M110.623 53.4475L110.425 55.8302C110.412 55.9805 110.474 56.1273 110.591 56.2226L112.441 57.7373C112.735 57.9777 112.625 58.4508 112.256 58.5377L109.928 59.0849C109.781 59.1194 109.661 59.2238 109.607 59.3642L108.738 61.5919C108.6 61.9457 108.116 61.9877 107.919 61.6629L106.68 59.6184C106.601 59.4895 106.465 59.4072 106.314 59.3985L103.927 59.2608C103.548 59.2389 103.359 58.7918 103.607 58.5043L105.168 56.6935C105.267 56.5793 105.303 56.424 105.265 56.2783L104.658 53.9654C104.562 53.5982 104.928 53.28 105.279 53.4269L107.483 54.3523C107.622 54.4106 107.781 54.3969 107.908 54.3153L109.92 53.0237C110.239 52.8187 110.655 53.069 110.623 53.4475Z"
        fill="#F3AF00" fill-opacity="0.6" />
    <path
        d="M15.4354 52.1122L16.7887 53.4559C16.8739 53.5406 16.9956 53.5778 17.1137 53.5558L18.9879 53.2027C19.2855 53.1466 19.518 53.4562 19.3815 53.7264L18.5218 55.4287C18.4675 55.536 18.4697 55.6632 18.5273 55.7688L19.4422 57.4421C19.5874 57.7078 19.3649 58.0246 19.0659 57.9782L17.1811 57.6866C17.0623 57.6682 16.9421 57.7094 16.8595 57.797L15.5508 59.1842C15.343 59.4046 14.9729 59.2908 14.9244 58.992L14.6194 57.1094C14.6002 56.9909 14.5239 56.8891 14.4151 56.8378L12.6915 56.0218C12.4179 55.8922 12.4114 55.505 12.6807 55.3666L14.3767 54.4949C14.4838 54.4399 14.5567 54.3358 14.5721 54.2165L14.8155 52.325C14.8543 52.0246 15.2206 51.8988 15.4354 52.1122Z"
        fill="#F3AF00" fill-opacity="0.6" />
    <path
        d="M113.457 106.041C113.457 106.076 89.8529 106.104 60.7423 106.104C31.6217 106.104 8.02246 106.076 8.02246 106.041C8.02246 106.007 31.6217 105.979 60.7423 105.979C89.8529 105.979 113.457 106.007 113.457 106.041Z"
        fill="#263238" />
    <path
        d="M41.4063 38.7821L42.1771 39.9062C42.2256 39.977 42.306 40.0195 42.3919 40.0198L43.7549 40.0222C43.9714 40.0224 44.0933 40.2708 43.9615 40.4424L43.1307 41.5229C43.0783 41.591 43.0627 41.6806 43.0891 41.7624L43.5082 43.0594C43.5747 43.2653 43.3762 43.458 43.1722 43.3858L41.8879 42.9295C41.8071 42.9007 41.7171 42.9137 41.6475 42.9641L40.5435 43.7633C40.3683 43.8902 40.1235 43.7609 40.1295 43.5447L40.1667 42.1822C40.1691 42.0962 40.129 42.0147 40.0594 41.964L38.958 41.161C38.7831 41.0335 38.8303 40.7609 39.0379 40.6997L40.3452 40.314C40.4275 40.2898 40.4928 40.2264 40.5195 40.1448L40.9428 38.8493C41.0098 38.6429 41.2839 38.6035 41.4063 38.7821Z"
        fill="#FFBE0B" fill-opacity="0.6" />
    <path
        d="M101.707 66.2176L102.672 66.7183C102.733 66.75 102.805 66.7495 102.866 66.7173L103.825 66.2061C103.978 66.125 104.157 66.2536 104.128 66.424L103.951 67.4964C103.939 67.564 103.962 67.6327 104.012 67.6804L104.794 68.435C104.919 68.5548 104.851 68.765 104.681 68.7909L103.606 68.9532C103.538 68.9635 103.479 69.0062 103.449 69.0679L102.974 70.0454C102.898 70.2007 102.678 70.2019 102.6 70.0476L102.114 69.0753C102.083 69.0141 102.024 68.9719 101.956 68.9623L100.88 68.8118C100.709 68.788 100.64 68.5783 100.762 68.4573L101.537 67.6944C101.585 67.6461 101.608 67.5772 101.596 67.5098L101.406 66.4394C101.376 66.2688 101.554 66.1382 101.707 66.2176Z"
        fill="#FFBE0B" fill-opacity="0.6" />
    <path
        d="M47.8461 34.1884L48.0499 34.8084C48.0626 34.8475 48.094 34.8777 48.1334 34.8892L48.7595 35.0728C48.8589 35.1021 48.8817 35.2324 48.7982 35.2936L48.2716 35.6788C48.2385 35.7031 48.2193 35.7422 48.2205 35.7832L48.2395 36.4353C48.2424 36.5388 48.1255 36.6009 48.0415 36.5402L47.5123 36.1584C47.4789 36.1344 47.4359 36.1281 47.3971 36.142L46.7827 36.3616C46.6852 36.3964 46.59 36.3043 46.6216 36.2056L46.8211 35.5845C46.8336 35.5454 46.8261 35.5024 46.8009 35.47L46.4023 34.9536C46.3389 34.8715 46.3972 34.7524 46.5007 34.7522L47.1532 34.75C47.1943 34.7498 47.2327 34.7296 47.2559 34.6956L47.6241 34.1568C47.6827 34.0716 47.8137 34.09 47.8461 34.1884Z"
        fill="#FFBE0B" fill-opacity="0.6" />
    <path
        d="M65.8003 30.5841L73.9937 47.1859C74.5102 48.2325 75.5088 48.9581 76.6639 49.1261L94.9851 51.7884C97.8941 52.211 99.0555 55.7858 96.9507 57.8378L83.6933 70.7604C82.8574 71.5752 82.476 72.749 82.6733 73.8996L87.9674 93.2757C88.1071 95.7914 84.1589 97.5036 80.6571 95.8853L64.2701 87.2702C63.2369 86.7271 62.0026 86.7271 60.9694 87.2702L44.5824 95.8853C41.9806 97.253 38.9395 95.0438 39.4366 92.1465L42.5662 73.8993C42.7634 72.7488 42.3821 71.5749 41.5462 70.7601L28.2888 57.8376C26.1838 55.7858 27.3454 52.211 30.2544 51.7881L48.5755 49.1258C49.7306 48.9581 50.7293 48.2325 51.2458 47.1857L59.2102 31.0481C60.2028 29.0402 61.4064 28.2475 65.2001 28.2475C66.4656 28.2477 65.1499 29.2661 65.8003 30.5841Z"
        fill="#C99100" />
    <g style="mix-blend-mode:plus-darker" opacity="0.3">
        <path
            d="M65.8003 30.5841L73.9937 47.1859C74.5102 48.2325 75.5088 48.9581 76.6639 49.1261L94.9851 51.7884C97.8941 52.211 99.0555 55.7858 96.9507 57.8378L83.6933 70.7604C82.8574 71.5752 82.476 72.749 82.6733 73.8996L87.9674 93.2757C88.1071 95.7914 84.1589 97.5036 80.6571 95.8853L64.2701 87.2702C63.2369 86.7271 62.0026 86.7271 60.9694 87.2702L44.5824 95.8853C41.9806 97.253 38.9395 95.0438 39.4366 92.1465L42.5662 73.8993C42.7634 72.7488 42.3821 71.5749 41.5462 70.7601L28.2888 57.8376C26.1838 55.7858 27.3454 52.211 30.2544 51.7881L48.5755 49.1258C49.7306 48.9581 50.7293 48.2325 51.2458 47.1857L59.2102 31.0481C60.2028 29.0402 61.4064 28.2475 65.2001 28.2475C66.4656 28.2477 65.1499 29.2661 65.8003 30.5841Z"
            fill="white" />
    </g>
    <path
        d="M43.6442 70.4751C43.6481 70.5094 43.1182 70.597 42.4606 70.6709C41.8027 70.7448 41.2668 70.777 41.2627 70.7426C41.2589 70.7083 41.7888 70.6207 42.4464 70.5468C43.104 70.4729 43.6404 70.4407 43.6442 70.4751Z"
        fill="#C99100" />
    <path
        d="M44.0169 72.0273C44.0207 72.0617 43.7325 72.1221 43.373 72.1627C43.0134 72.203 42.7187 72.208 42.7149 72.1737C42.711 72.1394 42.9993 72.0789 43.3588 72.0384C43.7183 71.9978 44.013 71.993 44.0169 72.0273Z"
        fill="#C99100" />
    <path
        d="M42.4988 69.1394C42.5026 69.1737 41.9197 69.2673 41.1968 69.3487C40.4737 69.43 39.8847 69.468 39.8809 69.4336C39.877 69.3993 40.4598 69.3057 41.1829 69.2244C41.9055 69.1432 42.4947 69.1053 42.4988 69.1394Z"
        fill="#C99100" />
    <path
        d="M41.2146 67.8605C41.2185 67.8948 40.6355 67.9884 39.9126 68.0697C39.1895 68.1511 38.6005 68.189 38.5967 68.1547C38.5929 68.1204 39.1756 68.0268 39.8987 67.9454C40.6216 67.8643 41.2108 67.8261 41.2146 67.8605Z"
        fill="#C99100" />
    <path
        d="M39.9304 66.5815C39.9343 66.6158 39.3513 66.7094 38.6284 66.7907C37.9053 66.8721 37.3164 66.91 37.3125 66.8757C37.3087 66.8414 37.8914 66.7478 38.6145 66.6664C39.3374 66.5853 39.9266 66.5471 39.9304 66.5815Z"
        fill="#C99100" />
    <path
        d="M38.647 65.3025C38.6508 65.3368 38.0679 65.4304 37.3452 65.5118C36.6221 65.5931 36.0332 65.6311 36.0293 65.5967C36.0255 65.5624 36.6082 65.4688 37.3313 65.3875C38.054 65.3061 38.6432 65.2682 38.647 65.3025Z"
        fill="#C99100" />
    <path
        d="M37.3631 64.0233C37.3669 64.0576 36.7839 64.1512 36.0611 64.2326C35.3379 64.3139 34.749 64.3519 34.7451 64.3175C34.7413 64.2832 35.324 64.1896 36.0471 64.1083C36.77 64.0272 37.3592 63.9892 37.3631 64.0233Z"
        fill="#C99100" />
    <path
        d="M36.0789 62.7444C36.0827 62.7787 35.4998 62.8723 34.7769 62.9536C34.0538 63.035 33.4648 63.0729 33.461 63.0386C33.4571 63.0043 34.0398 62.9107 34.763 62.8293C35.4858 62.7482 36.075 62.71 36.0789 62.7444Z"
        fill="#C99100" />
    <path
        d="M34.7947 61.4654C34.7985 61.4998 34.2156 61.5934 33.4927 61.6747C32.7696 61.7561 32.1806 61.794 32.1768 61.7597C32.1729 61.7254 32.7557 61.6318 33.4788 61.5504C34.2014 61.4693 34.7906 61.4311 34.7947 61.4654Z"
        fill="#C99100" />
    <path
        d="M33.5105 60.1865C33.5144 60.2208 32.9314 60.3144 32.2085 60.3958C31.4854 60.4769 30.8964 60.515 30.8926 60.4807C30.8888 60.4464 31.4715 60.3528 32.1946 60.2717C32.9175 60.1901 33.5067 60.1521 33.5105 60.1865Z"
        fill="#C99100" />
    <path
        d="M29.7365 54.6271C29.738 54.6617 29.1934 54.7126 28.5204 54.7411C27.8472 54.7694 27.3003 54.7646 27.2988 54.7301C27.2974 54.6955 27.8417 54.6446 28.5152 54.6161C29.1881 54.5878 29.7351 54.5928 29.7365 54.6271Z"
        fill="#C99100" />
    <path
        d="M30.1336 53.2636C30.1326 53.2982 29.619 53.3128 28.9866 53.2968C28.354 53.2804 27.8418 53.2394 27.8428 53.2048C27.8437 53.1703 28.3571 53.1556 28.99 53.172C29.6224 53.188 30.1345 53.2291 30.1336 53.2636Z"
        fill="#C99100" />
    <path
        d="M31.3808 51.977C31.3815 52.0116 30.9747 52.0476 30.4724 52.0577C29.9705 52.0677 29.5606 52.0476 29.5625 52.0125C29.5594 51.9785 29.9679 51.9427 30.4697 51.9326C30.972 51.9228 31.38 51.9427 31.3808 51.977Z"
        fill="#C99100" />
    <path
        d="M32.2271 58.9073C32.2309 58.9416 31.648 59.0352 30.9253 59.1166C30.2022 59.1977 29.6132 59.2358 29.6094 59.2015C29.6056 59.1672 30.1883 59.0736 30.9114 58.9922C31.634 58.9111 32.2232 58.8732 32.2271 58.9073Z"
        fill="#C99100" />
    <path
        d="M31.0847 57.5314C31.0886 57.5657 30.5056 57.6593 29.7827 57.7406C29.0596 57.822 28.4707 57.8599 28.4668 57.8256C28.463 57.7913 29.0457 57.6977 29.7688 57.6163C30.4917 57.5352 31.0809 57.4973 31.0847 57.5314Z"
        fill="#C99100" />
    <path
        d="M30.0107 56.1674C30.0146 56.2018 29.4347 56.2951 28.7155 56.3758C27.9962 56.4566 27.4101 56.4943 27.4063 56.46C27.4024 56.4257 27.9823 56.3323 28.7015 56.2517C29.4208 56.171 30.0069 56.1331 30.0107 56.1674Z"
        fill="#C99100" />
    <path
        d="M82.0942 94.2016C82.1089 94.2328 81.6349 94.4858 81.0358 94.7666C80.4366 95.0474 79.939 95.2497 79.9242 95.2183C79.9095 95.1871 80.3833 94.9341 80.9826 94.6533C81.5821 94.3725 82.0796 94.1702 82.0942 94.2016Z"
        fill="#C99100" />
    <path
        d="M82.9447 95.5526C82.9594 95.5838 82.7057 95.7336 82.3781 95.8872C82.0505 96.0408 81.7731 96.1399 81.7584 96.1085C81.7438 96.0773 81.9975 95.9275 82.3251 95.7739C82.6527 95.6205 82.9301 95.5214 82.9447 95.5526Z"
        fill="#C99100" />
    <path
        d="M80.5812 93.3036C80.5959 93.3348 80.0736 93.6103 79.4151 93.9189C78.7563 94.2275 78.2103 94.4524 78.1956 94.4212C78.181 94.39 78.703 94.1145 79.362 93.8059C80.0208 93.4972 80.5666 93.2724 80.5812 93.3036Z"
        fill="#C99100" />
    <path
        d="M78.9552 92.5036C78.9699 92.5348 78.4476 92.8103 77.7891 93.119C77.1303 93.4276 76.5843 93.6525 76.5696 93.6213C76.555 93.5901 77.077 93.3146 77.736 93.0059C78.3946 92.6971 78.9406 92.4724 78.9552 92.5036Z"
        fill="#C99100" />
    <path
        d="M77.3293 91.7035C77.3439 91.7347 76.8217 92.0102 76.1631 92.3188C75.5043 92.6275 74.9583 92.8523 74.9437 92.8211C74.929 92.7899 75.451 92.5144 76.1101 92.2058C76.7686 91.8971 77.3146 91.6723 77.3293 91.7035Z"
        fill="#C99100" />
    <path
        d="M75.703 90.9036C75.7177 90.9348 75.1954 91.2103 74.5369 91.5189C73.8781 91.8276 73.3323 92.0524 73.3177 92.0212C73.303 91.99 73.825 91.7145 74.4841 91.4059C75.1424 91.0972 75.6884 90.8721 75.703 90.9036Z"
        fill="#C99100" />
    <path
        d="M74.0771 90.1034C74.0917 90.1346 73.5695 90.4101 72.9109 90.7188C72.2521 91.0274 71.7063 91.2523 71.6917 91.2211C71.6771 91.1899 72.1991 90.9144 72.8581 90.6057C73.5164 90.2971 74.0624 90.0722 74.0771 90.1034Z"
        fill="#C99100" />
    <path
        d="M72.4504 89.3035C72.465 89.3347 71.9428 89.6102 71.2842 89.9188C70.6254 90.2275 70.0794 90.4524 70.0648 90.4212C70.0501 90.39 70.5721 90.1144 71.2312 89.8058C71.89 89.4969 72.4357 89.272 72.4504 89.3035Z"
        fill="#C99100" />
    <path
        d="M70.8244 88.5033C70.839 88.5345 70.3168 88.81 69.6582 89.1187C68.9994 89.4273 68.4534 89.6522 68.4388 89.621C68.4241 89.5898 68.9461 89.3143 69.6052 89.0056C70.2637 88.697 70.8097 88.4721 70.8244 88.5033Z"
        fill="#C99100" />
    <path
        d="M69.1984 87.7034C69.213 87.7346 68.6908 88.0101 68.0322 88.3187C67.3734 88.6274 66.8274 88.8523 66.8128 88.8211C66.7982 88.7899 67.3202 88.5143 67.9792 88.2057C68.6378 87.8968 69.1838 87.6719 69.1984 87.7034Z"
        fill="#C99100" />
    <path
        d="M67.5724 86.9032C67.5871 86.9344 67.0648 87.2099 66.4063 87.5186C65.7475 87.8272 65.2015 88.0521 65.1868 88.0209C65.1722 87.9897 65.6942 87.7142 66.3532 87.4055C67.012 87.0969 67.5578 86.872 67.5724 86.9032Z"
        fill="#C99100" />
    <path
        d="M66.05 85.9658C66.0646 85.997 65.5424 86.2727 64.8838 86.5811C64.225 86.8898 63.679 87.1147 63.6644 87.0835C63.6497 87.0523 64.1717 86.7767 64.8308 86.4681C65.4896 86.1595 66.0353 85.9346 66.05 85.9658Z"
        fill="#C99100" />
    <path
        d="M64.0525 85.2722C64.0672 85.3034 63.8121 85.4539 63.4828 85.6082C63.1533 85.7625 62.8746 85.8624 62.86 85.8309C62.8453 85.7997 63.1005 85.6492 63.4297 85.4949C63.759 85.3406 64.0379 85.241 64.0525 85.2722Z"
        fill="#C99100" />
    <path
        d="M68.3804 30.2249L76.5737 46.8266C77.0902 47.8735 78.0889 48.5988 79.244 48.7668L97.5651 51.4291C100.474 51.8517 101.635 55.4265 99.5307 57.4785L86.2733 70.4011C85.4374 71.2159 85.0561 72.3897 85.2533 73.5403L88.3829 91.7875C88.8797 94.6848 85.8389 96.894 83.2371 95.5262L66.8502 86.9112C65.817 86.3681 64.5826 86.3681 63.5494 86.9112L47.1625 95.5262C44.5606 96.894 41.5196 94.6848 42.0166 91.7875L45.1462 73.5403C45.3435 72.3897 44.9622 71.2159 44.1262 70.4011L30.8689 57.4785C28.7638 55.4268 29.9254 51.852 32.8345 51.4291L51.1556 48.7668C52.3107 48.599 53.3094 47.8735 53.8261 46.8266L62.0194 30.2249C63.3207 27.5889 67.0796 27.5889 68.3804 30.2249Z"
        fill="url(#paint0_linear_13140_99681)" />
    <g opacity="0.3">
        <path
            d="M86.327 60.4322C85.9931 57.7082 85.577 54.8971 84.1142 52.5751C82.6514 50.2531 79.8547 48.5467 77.1885 49.1969C76.6992 52.037 76.1829 55.0512 77.8015 57.4358C78.1747 57.9857 78.6559 58.4909 78.8205 59.1348C78.9988 59.8313 78.7747 60.558 78.6045 61.2566C77.3311 66.4843 79.0871 71.9203 80.8233 77.0131C82.7188 82.5737 84.6863 88.2665 88.4126 92.8082C88.3838 91.4337 88.1471 90.3957 87.9767 89.3597C87.7063 87.714 87.4248 86.1693 87.0566 84.0165C86.6347 81.5493 85.6149 76.1798 85.2412 73.3963C85.1414 72.6528 85.2914 71.9407 85.5547 71.387C85.8456 70.7753 86.2893 70.3862 86.6111 70.0725C86.8893 69.8016 87.0813 69.6144 87.0813 69.6144C86.7765 65.4185 86.8387 64.608 86.327 60.4322Z"
            fill="black" />
    </g>
    <path
        d="M52.9955 47.8289C52.9641 47.843 52.7169 47.3661 52.4435 46.7635C52.1701 46.1609 51.9738 45.6607 52.0053 45.6465C52.0367 45.6324 52.2837 46.1093 52.5573 46.7119C52.8309 47.3145 53.0269 47.8145 52.9955 47.8289Z"
        fill="#C99100" />
    <path
        d="M51.6343 48.6624C51.6029 48.6765 51.4563 48.4212 51.3067 48.0916C51.1572 47.7621 51.0614 47.4835 51.0929 47.4693C51.1243 47.4552 51.271 47.7105 51.4205 48.04C51.57 48.3693 51.6658 48.648 51.6343 48.6624Z"
        fill="#C99100" />
    <path
        d="M53.9125 46.3267C53.881 46.3408 53.612 45.8155 53.3115 45.1531C53.0108 44.4904 52.7929 43.942 52.8243 43.9276C52.8557 43.9135 53.1248 44.4388 53.4255 45.1015C53.7257 45.7639 53.9439 46.3125 53.9125 46.3267Z"
        fill="#C99100" />
    <path
        d="M54.732 44.7105C54.7006 44.7247 54.4316 44.1993 54.1308 43.5369C53.8301 42.8743 53.6122 42.3259 53.6436 42.3115C53.6751 42.2973 53.9441 42.8227 54.2448 43.4853C54.5451 44.1477 54.7635 44.6964 54.732 44.7105Z"
        fill="#C99100" />
    <path
        d="M55.5524 43.0944C55.5209 43.1085 55.2519 42.5832 54.9512 41.9208C54.6504 41.2581 54.4325 40.7097 54.464 40.6953C54.4954 40.6812 54.7644 41.2065 55.0652 41.8692C55.3656 42.5313 55.5838 43.08 55.5524 43.0944Z"
        fill="#C99100" />
    <path
        d="M56.3717 41.478C56.3402 41.4922 56.0712 40.9668 55.7705 40.3044C55.47 39.6418 55.2518 39.0934 55.2833 39.079C55.3147 39.0648 55.5838 39.5902 55.8845 40.2528C56.185 40.9152 56.4031 41.4638 56.3717 41.478Z"
        fill="#C99100" />
    <path
        d="M57.192 39.8618C57.1606 39.876 56.8915 39.3506 56.5908 38.6882C56.2901 38.0256 56.0722 37.4772 56.1036 37.4628C56.135 37.4486 56.4041 37.974 56.7048 38.6366C57.0053 39.299 57.2234 39.8477 57.192 39.8618Z"
        fill="#C99100" />
    <path
        d="M58.0113 38.2456C57.9799 38.2598 57.7109 37.7344 57.4101 37.072C57.1094 36.4094 56.8915 35.861 56.9229 35.8466C56.9544 35.8324 57.2234 36.3578 57.5241 37.0204C57.8246 37.6826 58.0428 38.2312 58.0113 38.2456Z"
        fill="#C99100" />
    <path
        d="M58.8317 36.6292C58.8002 36.6434 58.5312 36.118 58.2305 35.4556C57.9297 34.793 57.7118 34.2446 57.7433 34.2302C57.7747 34.216 58.0437 34.7414 58.3445 35.404C58.6447 36.0664 58.8629 36.6151 58.8317 36.6292Z"
        fill="#C99100" />
    <path
        d="M59.6512 35.0131C59.6197 35.0272 59.3507 34.5019 59.05 33.8395C58.7493 33.1768 58.5313 32.6284 58.5625 32.614C58.594 32.5999 58.863 33.1253 59.1637 33.7879C59.4645 34.4503 59.6826 34.9989 59.6512 35.0131Z"
        fill="#C99100" />
    <path
        d="M60.4713 33.3969C60.4399 33.4111 60.1706 32.8857 59.8701 32.2233C59.5694 31.5607 59.3515 31.0123 59.3829 30.9979C59.4143 30.9837 59.6834 31.5091 59.9841 32.1717C60.2846 32.8339 60.5027 33.3825 60.4713 33.3969Z"
        fill="#C99100" />
    <path
        d="M61.4274 31.8859C61.3959 31.9001 61.1269 31.3747 60.8262 30.7123C60.5254 30.0497 60.3075 29.5013 60.339 29.4869C60.3704 29.4727 60.6394 29.9981 60.9402 30.6607C61.2406 31.3229 61.4588 31.8715 61.4274 31.8859Z"
        fill="#C99100" />
    <path
        d="M62.145 29.8975C62.1135 29.9117 61.9662 29.6549 61.8159 29.3237C61.6657 28.9925 61.5692 28.7124 61.6007 28.698C61.6321 28.6838 61.7795 28.9406 61.9297 29.2721C62.0802 29.603 62.1764 29.8831 62.145 29.8975Z"
        fill="#C99100" />
    <path
        d="M62.8433 31.3159C62.874 31.3315 60.9998 35.0781 58.6579 39.6833C56.315 44.2901 54.3914 48.0105 54.3607 47.9949C54.33 47.9793 56.2037 44.2334 58.5466 39.6269C60.8885 35.0215 62.8126 31.3003 62.8433 31.3159Z"
        fill="white" />
    <path
        d="M50.4273 50.4302C50.4278 50.4346 50.3579 50.4466 50.2247 50.465C50.0802 50.4838 49.8858 50.5092 49.641 50.5409C49.1214 50.6028 48.3904 50.6897 47.4923 50.7967C45.6662 51.0019 43.163 51.2832 40.3979 51.5938C39.0122 51.7442 37.6924 51.8873 36.49 52.0178C35.8893 52.0822 35.319 52.1388 34.7939 52.2382C34.269 52.3358 33.79 52.4786 33.3815 52.6735C32.5607 53.0642 32.0651 53.6585 31.8472 54.1097C31.6245 54.5674 31.6269 54.8628 31.6089 54.8582C31.6067 54.858 31.607 54.8405 31.6096 54.8059C31.613 54.7716 31.6154 54.7198 31.6264 54.653C31.6494 54.5201 31.695 54.3233 31.803 54.0888C32.0121 53.622 32.5079 53.0042 33.3431 52.5941C33.7576 52.3901 34.2443 52.2398 34.7742 52.1366C35.3046 52.0315 35.8778 51.971 36.4775 51.9036C37.6794 51.7702 38.9987 51.6238 40.3842 51.4699C43.151 51.1735 45.6556 50.905 47.4827 50.7091C48.3827 50.6186 49.1154 50.5452 49.6358 50.4929C49.8815 50.4708 50.0769 50.4533 50.2218 50.4403C50.3562 50.4295 50.4268 50.4259 50.4273 50.4302Z"
        fill="white" />
    <path
        d="M81.4616 93.6214C81.4446 93.6514 79.1067 92.3633 76.2404 90.7447C73.3731 89.1257 71.0631 87.7891 71.0802 87.7589C71.0972 87.7289 73.4346 89.0167 76.3018 90.6358C79.1682 92.2543 81.4786 93.5914 81.4616 93.6214Z"
        fill="white" />
    <path
        d="M67.7614 85.9262C67.7504 85.9529 67.3254 85.6918 66.5559 85.5396C65.7922 85.3798 64.6849 85.3913 63.5389 85.733C62.3922 86.0758 61.4334 86.6042 60.7465 86.9842C60.4196 87.169 60.1467 87.323 59.9343 87.4433C59.7421 87.551 59.6336 87.6074 59.629 87.6C59.6247 87.5928 59.7243 87.5222 59.9091 87.4018C60.0939 87.2813 60.3634 87.1104 60.7023 86.9078C61.3794 86.5078 62.3391 85.9617 63.5036 85.6133C64.6683 85.2655 65.8011 85.2677 66.5742 85.4532C66.9618 85.5422 67.2639 85.6579 67.4629 85.7561C67.5644 85.8005 67.6369 85.8482 67.688 85.8758C67.7382 85.9054 67.7634 85.9226 67.7614 85.9262Z"
        fill="white" />
    <path
        d="M99.725 44.0114L102.347 43.188C103.391 43.8758 104.632 44.2927 105.974 44.3333C109.831 44.4504 113.053 41.4182 113.17 37.5609C113.287 33.7037 110.255 30.4817 106.398 30.3645C102.541 30.2474 99.3186 33.2796 99.2015 37.1369C99.1526 38.7475 99.6542 40.2463 100.534 41.4557L100.531 41.4533L99.725 44.0114Z"
        fill="white" />
    <path
        d="M99.725 44.0114C99.725 44.0114 99.7389 43.9593 99.7715 43.8511C99.8061 43.7369 99.8548 43.5751 99.9184 43.3646C100.053 42.9242 100.249 42.2805 100.504 41.4449C100.509 41.4297 100.524 41.4213 100.54 41.4259C100.543 41.4271 100.547 41.429 100.549 41.4312C100.549 41.4312 100.551 41.4329 100.552 41.4336L100.511 41.4727C99.952 40.7085 99.3731 39.5957 99.2056 38.1765C99.0309 36.7742 99.2934 35.0628 100.272 33.5419C100.757 32.7857 101.415 32.0873 102.221 31.5345C103.026 30.983 103.979 30.5731 105.01 30.4005C106.039 30.2313 107.138 30.2868 108.192 30.5983C108.724 30.7421 109.228 30.983 109.721 31.2489C110.197 31.5453 110.667 31.8689 111.07 32.2754C111.49 32.6601 111.828 33.1164 112.142 33.5767C112.426 34.0562 112.684 34.5492 112.851 35.0712C113.204 36.1065 113.303 37.1973 113.176 38.2284C113.054 39.2618 112.685 40.2278 112.172 41.0529C111.657 41.8795 110.991 42.5647 110.26 43.0821C109.529 43.6015 108.734 43.9529 107.952 44.1564C107.17 44.3731 106.397 44.3923 105.691 44.3616C104.267 44.2579 103.124 43.7414 102.332 43.2125L102.356 43.2158C101.5 43.4762 100.84 43.6766 100.389 43.8139C100.173 43.8789 100.007 43.9289 99.8898 43.9641C99.7785 43.9973 99.725 44.0114 99.725 44.0114C99.9162 43.9493 100.693 43.6963 102.339 43.1604C102.347 43.1578 102.357 43.1594 102.364 43.1637C103.155 43.68 104.29 44.1821 105.696 44.2761C106.395 44.3023 107.157 44.28 107.928 44.0625C108.698 43.8583 109.48 43.5091 110.198 42.9953C110.916 42.4831 111.57 41.8068 112.075 40.9925C112.578 40.1796 112.938 39.2294 113.057 38.2133C113.18 37.1995 113.081 36.1277 112.733 35.111C112.57 34.5984 112.316 34.1145 112.036 33.6434C111.728 33.1915 111.396 32.7432 110.983 32.3652C110.587 31.9656 110.125 31.6483 109.659 31.3565C109.174 31.0953 108.679 30.858 108.157 30.7166C107.122 30.4099 106.042 30.3542 105.03 30.5189C104.016 30.6866 103.078 31.0879 102.286 31.6286C101.491 32.1703 100.841 32.8557 100.361 33.5993C99.3928 35.0937 99.1254 36.7797 99.2901 38.1665C99.4473 39.5693 100.011 40.6749 100.558 41.4389C100.567 41.4516 100.564 41.4696 100.552 41.4789C100.541 41.4869 100.527 41.4859 100.516 41.478C100.516 41.477 100.514 41.4756 100.514 41.4756L100.559 41.4619C100.034 43.0668 99.7864 43.823 99.725 44.0114Z"
        fill="#263238" />
    <path
        d="M107.584 39.3274L107.648 36.4939C107.648 36.4939 107.026 36.3588 106.489 35.4986C106.134 34.9294 105.978 34.4724 105.913 34.2245C105.873 34.073 105.731 33.9679 105.575 33.9826C105.428 33.9965 105.249 34.0505 105.142 34.2814C104.942 34.7095 105.208 35.7655 105.208 35.7655C105.208 35.7655 105.32 35.9789 105.025 35.9722L103.973 35.9486C103.836 35.9455 103.701 35.9875 103.596 36.0739C103.503 36.15 103.424 36.2669 103.433 36.4423C103.456 36.8434 103.663 37.027 103.661 37.1114C103.659 37.1957 103.54 37.3406 103.619 37.5847C103.698 37.8288 103.751 37.8089 103.748 37.9248C103.745 38.0407 103.76 38.3362 103.83 38.5169C103.9 38.6976 103.982 38.7838 103.982 38.7838C103.982 38.7838 103.942 39.1622 104.042 39.3859C104.142 39.6094 104.582 39.7351 104.73 39.7385C104.877 39.7418 105.935 39.5546 106.232 39.4874C106.529 39.4198 107.303 39.1841 107.584 39.3274Z"
        fill="#FF725E" />
    <path d="M108.117 36.4361L108.052 39.346L109.134 39.3702L109.199 36.4603L108.117 36.4361Z"
        fill="#FF725E" />
    <path
        d="M28.1232 67.08H19.6147H7.71094V77.8673H22.7244C23.1684 78.5508 24.1058 80.1015 24.1058 80.1015L25.1856 77.8673H28.1229L28.1232 67.08Z"
        fill="#FAFAFA" />
    <path
        d="M28.1231 67.0801C28.1231 67.0801 28.1264 67.1415 28.1279 67.266C28.1291 67.3954 28.1308 67.5804 28.1329 67.8214C28.1356 68.3163 28.1394 69.0382 28.1444 69.966C28.1502 71.839 28.1588 74.5395 28.1692 77.8671L28.1694 77.9134H28.1228C27.1931 77.9149 26.2115 77.9163 25.1855 77.918L25.2313 77.8892C24.8939 78.5897 24.5296 79.3457 24.1544 80.1245L24.1117 80.2131L24.0596 80.1289C23.6257 79.4285 23.1572 78.673 22.6768 77.8978L22.7243 77.9235C18.5987 77.9252 13.9441 77.9273 9.03588 77.9292C8.59164 77.9292 8.14956 77.9292 7.71084 77.9292H7.64844V77.8669C7.65012 74.0581 7.65156 70.4213 7.653 67.0798V67.0217H7.71108C13.7 67.0313 18.8048 67.0397 22.4168 67.0455C24.2183 67.0536 25.6465 67.0604 26.6293 67.0649C27.1134 67.0683 27.4866 67.0709 27.7439 67.0729C27.8668 67.0743 27.9611 67.0755 28.029 67.0764C28.0924 67.0779 28.1231 67.0801 28.1231 67.0801C28.1231 67.0801 28.0878 67.0825 28.022 67.0837C27.9527 67.0844 27.8562 67.0856 27.7307 67.0873C27.4712 67.0892 27.0947 67.0918 26.6063 67.0952C25.6247 67.0997 24.1981 67.1062 22.3991 67.1146C18.7914 67.1204 13.6926 67.1288 7.71108 67.1384L7.76916 67.0803C7.7706 70.4221 7.77204 74.0588 7.77348 77.8673L7.71108 77.8049C8.14956 77.8049 8.59188 77.8049 9.03612 77.8049C13.9446 77.8071 18.5989 77.809 22.7245 77.8107H22.7562L22.772 77.8364C23.2516 78.6137 23.7191 79.3712 24.1523 80.0734L24.0575 80.0777C24.4348 79.2997 24.8008 78.5449 25.1401 77.845L25.154 77.8162H25.186C26.2122 77.8179 27.1936 77.8193 28.1233 77.8208L28.077 77.8671C28.0876 74.5515 28.096 71.8606 28.1017 69.9944C28.1068 69.0622 28.1106 68.3367 28.1132 67.8394C28.1154 67.5946 28.1171 67.4067 28.1183 67.2754C28.1197 67.148 28.1231 67.0801 28.1231 67.0801Z"
        fill="#263238" />
    <path
        d="M12.4829 72.39C12.8157 72.2537 13.0545 71.9136 13.0601 71.5104C13.0668 70.9824 12.6708 70.549 12.1754 70.5425C11.6805 70.536 11.2735 70.9589 11.267 71.4869C11.262 71.8937 11.4965 72.2419 11.8308 72.3845C10.4493 72.5806 10.4993 74.0806 10.4993 74.0806L13.7616 74.1233C13.7616 74.1233 13.8489 72.6084 12.4829 72.39Z"
        fill="#FF725E" />
    <path
        d="M25.2772 70.8667C25.2772 70.8874 23.1969 70.9042 20.631 70.9042C18.0645 70.9042 15.9844 70.8874 15.9844 70.8667C15.9844 70.8461 18.0645 70.8293 20.631 70.8293C23.1966 70.8293 25.2772 70.8461 25.2772 70.8667Z"
        fill="#263238" />
    <path
        d="M25.2772 71.9792C25.2772 71.9998 23.1969 72.0166 20.631 72.0166C18.0645 72.0166 15.9844 71.9998 15.9844 71.9792C15.9844 71.9585 18.0645 71.9417 20.631 71.9417C23.1966 71.9417 25.2772 71.9585 25.2772 71.9792Z"
        fill="#263238" />
    <path
        d="M25.2772 73.0913C25.2772 73.1119 23.1969 73.1287 20.631 73.1287C18.0645 73.1287 15.9844 73.1119 15.9844 73.0913C15.9844 73.0706 18.0645 73.0538 20.631 73.0538C23.1966 73.0538 25.2772 73.0706 25.2772 73.0913Z"
        fill="#263238" />
    <path
        d="M21.5411 74.4979C21.5411 74.5193 20.2969 74.5368 18.7629 74.5368C17.2281 74.5368 15.9844 74.5193 15.9844 74.4979C15.9844 74.4766 17.2281 74.459 18.7629 74.459C20.2969 74.459 21.5411 74.4766 21.5411 74.4979Z"
        fill="#263238" />
    <path
        d="M96.1799 100.485L93.4172 104.627C93.4172 104.627 96.6997 108.826 96.2636 109.642L88.04 104.574L92.0797 97.9431L96.1799 100.485Z"
        fill="#FF725E" />
    <g opacity="0.3">
        <path
            d="M96.1799 100.485L93.4172 104.627C93.4172 104.627 96.6997 108.826 96.2636 109.642L88.04 104.574L92.0797 97.9431L96.1799 100.485Z"
            fill="black" />
    </g>
    <path
        d="M91.0942 102.704C90.9082 102.649 90.6879 102.76 90.6257 102.944C90.5636 103.128 90.6747 103.352 90.8597 103.41C91.0448 103.468 91.3133 103.343 91.3544 103.153C91.3957 102.964 91.2507 102.707 91.0573 102.695"
        fill="#E0E0E0" />
    <g opacity="0.6">
        <path
            d="M88.04 104.574L88.4735 103.921L96.196 109.024C96.196 109.024 96.4638 109.409 96.2636 109.642L88.04 104.574Z"
            fill="white" />
    </g>
    <path
        d="M93.5761 104.668C93.5499 104.707 93.338 104.601 93.0608 104.609C92.7834 104.609 92.5743 104.72 92.5472 104.682C92.5151 104.651 92.7229 104.448 93.0586 104.445C93.3942 104.439 93.6075 104.636 93.5761 104.668Z"
        fill="#263238" />
    <path
        d="M94.2187 105.556C94.2038 105.6 93.9878 105.562 93.7468 105.647C93.5032 105.726 93.3556 105.888 93.3168 105.862C93.275 105.845 93.3924 105.593 93.694 105.492C93.9948 105.388 94.2415 105.517 94.2187 105.556Z"
        fill="#263238" />
    <path
        d="M94.0731 106.89C94.0313 106.876 94.099 106.641 94.3378 106.485C94.5754 106.327 94.8183 106.357 94.8147 106.4C94.8171 106.447 94.6224 106.49 94.4285 106.622C94.2315 106.748 94.1156 106.911 94.0731 106.89Z"
        fill="#263238" />
    <path
        d="M94.101 103.654C94.0617 103.68 93.9117 103.511 93.6751 103.387C93.4411 103.257 93.2176 103.225 93.2179 103.177C93.2126 103.134 93.4766 103.092 93.753 103.242C94.0305 103.39 94.1402 103.634 94.101 103.654Z"
        fill="#263238" />
    <path
        d="M94.6433 102.808C94.6334 102.825 94.4594 102.752 94.2326 102.552C94.1198 102.452 93.9967 102.319 93.8834 102.154C93.827 102.071 93.7728 101.981 93.7243 101.883C93.7015 101.835 93.6715 101.783 93.6598 101.709C93.641 101.64 93.6814 101.518 93.773 101.484C93.8542 101.447 93.9454 101.466 94.0056 101.501C94.0675 101.536 94.109 101.579 94.147 101.617C94.2247 101.696 94.2919 101.779 94.3488 101.863C94.4618 102.031 94.5338 102.2 94.5751 102.346C94.657 102.641 94.6296 102.831 94.6111 102.83C94.5847 102.832 94.5694 102.649 94.4652 102.384C94.4131 102.251 94.3356 102.1 94.2254 101.95C94.17 101.876 94.1062 101.802 94.0339 101.732C93.961 101.655 93.8873 101.609 93.841 101.634C93.8237 101.644 93.8191 101.649 93.8215 101.685C93.8258 101.72 93.847 101.765 93.8693 101.812C93.9127 101.905 93.9605 101.991 94.0102 102.071C94.1098 102.23 94.217 102.364 94.3142 102.469C94.5091 102.68 94.6574 102.786 94.6433 102.808Z"
        fill="#263238" />
    <path
        d="M94.5556 102.833C94.5376 102.83 94.5467 102.637 94.6922 102.368C94.7647 102.235 94.8746 102.087 95.0263 101.952C95.1023 101.885 95.189 101.822 95.2852 101.767C95.3836 101.715 95.5094 101.643 95.6762 101.721C95.7595 101.768 95.7878 101.873 95.7775 101.941C95.7703 102.014 95.7463 102.065 95.7266 102.119C95.6824 102.224 95.6227 102.317 95.5559 102.396C95.4223 102.555 95.2607 102.657 95.1179 102.713C94.8259 102.827 94.6288 102.772 94.6336 102.756C94.6327 102.728 94.8203 102.736 95.0695 102.607C95.1923 102.544 95.3282 102.444 95.4383 102.301C95.4933 102.229 95.542 102.148 95.5773 102.058C95.6183 101.963 95.6289 101.872 95.5907 101.861C95.5504 101.835 95.4403 101.858 95.3637 101.907C95.2761 101.954 95.1959 102.009 95.1242 102.067C94.9811 102.184 94.871 102.312 94.7911 102.429C94.631 102.664 94.5813 102.841 94.5556 102.833Z"
        fill="#263238" />
    <path
        d="M95.4197 101.358L96.318 106.255C96.318 106.255 101.597 106.987 101.851 107.876L92.4189 109.959L90.7061 102.386L95.4197 101.358Z"
        fill="#FF725E" />
    <path
        d="M93.3115 106.491C93.1399 106.581 93.0592 106.814 93.1423 106.989C93.2253 107.164 93.4617 107.249 93.6348 107.161C93.8078 107.074 93.9134 106.797 93.8114 106.633C93.7091 106.468 93.4262 106.384 93.2793 106.511"
        fill="#E0E0E0" />
    <g opacity="0.6">
        <path
            d="M92.4192 109.959L92.2764 109.189L101.374 107.48C101.374 107.48 101.834 107.57 101.852 107.876L92.4192 109.959Z"
            fill="white" />
    </g>
    <path
        d="M96.4602 106.174C96.4688 106.22 96.2432 106.292 96.0493 106.49C95.8501 106.683 95.7774 106.908 95.731 106.9C95.6866 106.9 95.6946 106.609 95.9336 106.374C96.1702 106.136 96.4609 106.129 96.4602 106.174Z"
        fill="#263238" />
    <path
        d="M97.5404 106.365C97.5608 106.407 97.3786 106.529 97.2651 106.759C97.1449 106.985 97.1521 107.204 97.1058 107.212C97.064 107.229 96.9726 106.966 97.1192 106.684C97.263 106.4 97.5296 106.321 97.5404 106.365Z"
        fill="#263238" />
    <path
        d="M98.3632 107.425C98.3236 107.444 98.2086 107.228 98.2712 106.949C98.3317 106.671 98.5271 106.523 98.5549 106.557C98.5892 106.589 98.4793 106.756 98.4316 106.985C98.3783 107.213 98.408 107.41 98.3632 107.425Z"
        fill="#263238" />
    <path
        d="M96.1314 105.081C96.1213 105.127 95.896 105.11 95.6397 105.185C95.3817 105.255 95.1983 105.387 95.1657 105.353C95.1316 105.326 95.2917 105.111 95.595 105.027C95.8977 104.94 96.1461 105.039 96.1314 105.081Z"
        fill="#263238" />
    <path
        d="M95.9324 104.096C95.9372 104.115 95.7613 104.184 95.4593 104.198C95.3091 104.205 95.1281 104.195 94.9316 104.155C94.8334 104.135 94.7317 104.108 94.6285 104.071C94.5788 104.053 94.5209 104.036 94.4612 103.992C94.3995 103.955 94.3436 103.839 94.3858 103.751C94.4182 103.668 94.4967 103.618 94.5644 103.601C94.6333 103.584 94.6928 103.585 94.747 103.587C94.8577 103.589 94.9637 103.602 95.0629 103.623C95.2611 103.665 95.4305 103.736 95.5616 103.812C95.8251 103.967 95.9379 104.122 95.924 104.135C95.9065 104.154 95.7682 104.034 95.5085 103.916C95.3792 103.857 95.2181 103.802 95.0348 103.771C94.9429 103.756 94.8457 103.747 94.7451 103.747C94.6395 103.743 94.5543 103.761 94.5385 103.812C94.5329 103.83 94.5332 103.837 94.5605 103.862C94.5881 103.884 94.6345 103.902 94.6834 103.92C94.7789 103.956 94.8733 103.985 94.9645 104.008C95.1471 104.053 95.3168 104.074 95.4598 104.082C95.7471 104.097 95.9276 104.071 95.9324 104.096Z"
        fill="#263238" />
    <path
        d="M95.887 104.175C95.8724 104.186 95.7444 104.041 95.6616 103.746C95.6211 103.6 95.5968 103.418 95.612 103.215C95.6201 103.114 95.6381 103.008 95.6688 102.902C95.7036 102.796 95.7435 102.657 95.9175 102.597C96.0101 102.573 96.1037 102.628 96.1438 102.685C96.1892 102.742 96.2074 102.795 96.2307 102.847C96.2722 102.953 96.294 103.062 96.3012 103.165C96.3159 103.373 96.2705 103.558 96.2072 103.698C96.0768 103.983 95.8968 104.08 95.8894 104.066C95.869 104.046 96.0099 103.922 96.0992 103.655C96.1431 103.524 96.1712 103.358 96.1505 103.179C96.1404 103.089 96.1186 102.997 96.0816 102.908C96.0447 102.811 95.9892 102.738 95.954 102.757C95.9069 102.766 95.8438 102.859 95.8229 102.948C95.7932 103.043 95.7737 103.138 95.7624 103.23C95.7411 103.414 95.7512 103.582 95.7749 103.721C95.8232 104.001 95.9105 104.163 95.887 104.175Z"
        fill="#263238" />
    <path
        d="M93.5456 60.5486L105.026 78.2597C106.118 79.8634 106.741 81.5112 106.579 83.4142C106.474 84.6372 106.024 85.8055 105.35 86.8308L95.9831 103.197L91.316 98.419L98.2127 83.8447L91.6326 74.982L88.1377 60.5484L93.5456 60.5486Z"
        fill="#263238" />
    <path
        d="M96.8542 104.81L91.0747 64.8509L90.7531 60.7975L80.8644 60.2628C80.8644 60.2628 79.2672 65.3832 79.135 68.0355C79.0025 70.6877 85.0198 84.7831 85.0198 84.7831L86.407 91.8339L90.4191 106.139L96.8542 104.81Z"
        fill="#263238" />
    <path
        d="M80.1042 59.4391C79.9278 59.148 81.2857 58.007 83.4697 56.2274C84.0162 55.7801 84.6141 55.2907 85.2556 54.7653C85.9168 54.2376 86.6997 53.6088 87.7847 53.1965C88.8604 52.7937 90.0995 52.6857 91.3261 52.9608C91.9393 53.0978 92.5453 53.3301 93.1201 53.6791C93.6921 54.0273 94.2402 54.5069 94.6533 55.1424C94.7524 55.296 94.8573 55.4709 94.9523 55.7064C95.0449 55.9368 95.1261 56.2399 95.1143 56.5884C95.0961 56.9813 94.9753 57.3338 94.7202 57.6641C94.5901 57.8275 94.4169 57.9849 94.1973 58.1033C94.0885 58.1625 93.9678 58.2098 93.8437 58.2434C93.7271 58.271 93.6109 58.2931 93.4924 58.2962C92.997 58.3147 92.6622 58.1313 92.4777 58.0308C92.2828 57.9175 92.1772 57.8383 92.1203 57.8045C92.0953 57.7889 92.0814 57.7814 92.0985 57.7889C92.1121 57.7937 92.1424 57.8033 92.1597 57.8042C92.2 57.8083 92.2024 57.8013 92.163 57.8052C92.0821 57.8097 91.8762 57.8721 91.5877 57.9554C91.4409 57.9981 91.2601 58.0332 91.0977 58.0639C90.9337 58.0865 90.7693 58.109 90.6136 58.115C89.9812 58.152 89.4419 58.0735 88.9698 58.0123C88.4973 57.9458 88.0893 57.887 87.7372 57.876C87.3822 57.8606 87.1026 57.8993 86.7832 57.9845C86.1565 58.1623 85.5251 58.5307 84.9167 58.8847C84.3145 59.2399 83.6862 59.5937 83.0961 59.7984C82.5078 60.0129 81.9501 60.1068 81.4909 60.0924C81.0313 60.0828 80.6812 59.9683 80.4736 59.8452C80.2636 59.7233 80.1849 59.6047 80.2101 59.5291C80.2674 59.3551 80.7124 59.3971 81.3683 59.1607C81.6973 59.0455 82.083 58.8609 82.5107 58.5823C82.9451 58.3077 83.3862 57.9391 83.9469 57.4802C84.5073 57.0355 85.1634 56.4938 86.1136 56.0983C86.5816 55.9073 87.1607 55.7733 87.6969 55.7539C88.2354 55.7258 88.7406 55.7671 89.2014 55.8005C89.6625 55.8331 90.0865 55.859 90.4365 55.8168C90.5267 55.8098 90.6061 55.7918 90.6882 55.7784C90.7681 55.7561 90.8334 55.7448 90.9263 55.7133C91.1185 55.6555 91.3905 55.5389 91.8162 55.4661C92.0293 55.4328 92.2919 55.4141 92.5861 55.4669C92.7299 55.4923 92.8852 55.5369 93.0179 55.5926C93.1549 55.6488 93.2545 55.7049 93.3414 55.7551C93.508 55.8545 93.615 55.9274 93.6486 55.9428C93.6541 55.9461 93.6573 55.9476 93.6563 55.9464H93.6565C93.6565 55.9464 93.6601 55.9394 93.6453 55.9697L93.5879 56.0925C93.5332 56.1967 93.4866 56.3306 93.4648 56.3887C93.4384 56.4794 93.4266 56.5111 93.4201 56.5663C93.4132 56.5929 93.4139 56.6313 93.4139 56.6313C93.4139 56.6376 93.4153 56.6436 93.4139 56.6337L93.4125 56.6268L93.4115 56.6239L93.411 56.6225C93.3966 56.5677 93.43 56.6957 93.4264 56.6822C93.4257 56.6796 93.4242 56.675 93.4173 56.6618C93.405 56.6378 93.3731 56.5992 93.3369 56.5713C93.3009 56.5423 93.2653 56.5262 93.2557 56.5233C93.2502 56.5214 93.2526 56.5226 93.2603 56.5241L93.2771 56.5265L93.2893 56.5277L93.2958 56.5279H93.2992L93.1482 56.5217C93.1115 56.5202 93.0441 56.5231 92.9454 56.544C92.8967 56.5543 92.8372 56.5689 92.7724 56.5896L92.7198 56.6064C92.7073 56.6107 92.7167 56.6078 92.7136 56.6081L92.7119 56.604C92.7066 56.5889 92.6759 56.5286 92.6272 56.4552C92.2758 55.8984 91.5373 55.4544 90.7777 55.2614C90.0136 55.0617 89.2077 55.0901 88.5095 55.2996C87.8109 55.5045 87.1209 55.9356 86.4349 56.3829C85.7399 56.8404 85.0624 57.2666 84.4439 57.6293C81.9558 59.0873 80.2722 59.7185 80.1042 59.4391Z"
        fill="#F5F5F5" />
    <path
        d="M89.9544 40.2041C90.1586 40.2401 92.1281 41.0676 93.0228 41.4461C93.306 41.5658 93.5362 41.783 93.6727 42.0585L98.0657 50.922L94.668 53.2742C94.668 53.2742 95.0671 60.1984 94.1923 60.5486C93.8657 60.6794 81.9919 60.6578 81.9919 60.6578C81.9919 60.6578 80.7089 61.1126 80.2488 60.6578C79.8936 60.3067 80.0314 59.6229 80.0314 59.6229L80.0282 45.172L79.3867 41.1926C79.3867 41.1926 85.511 39.42 89.9544 40.2041Z"
        fill="white" />
    <path
        d="M81.7224 44.2711L81.911 51.4589L75.7862 52.0447C75.7862 52.0046 75.1241 42.7269 79.3867 41.1924L81.7224 44.2711Z"
        fill="white" />
    <path
        d="M94.4132 52.0433C94.3784 51.8105 94.3376 51.539 94.2721 51.1017C94.179 50.4518 94.0583 49.6116 93.9251 48.6823C93.7938 47.7525 93.6752 46.9118 93.5835 46.2619C93.5444 45.9739 93.5111 45.7289 93.4837 45.5277C93.4616 45.354 93.4525 45.2575 93.4614 45.2558C93.47 45.2541 93.4957 45.348 93.5329 45.5193C93.5701 45.6905 93.6186 45.9393 93.6733 46.2477C93.783 46.8643 93.9183 47.7185 94.0523 48.6643C94.1864 49.6099 94.2947 50.4677 94.3621 51.0902C94.3957 51.4015 94.4195 51.6537 94.4305 51.8289C94.436 51.9165 94.4387 51.9847 94.437 52.0315L94.4346 52.0632C94.4288 52.0641 94.4439 52.0845 94.4139 52.0737L94.4115 52.0625C94.4106 52.0502 94.4111 52.0437 94.4132 52.0433Z"
        fill="#263238" />
    <g opacity="0.3">
        <path
            d="M94.0243 56.1461C93.7584 55.3373 93.083 54.7056 92.3081 54.3535C91.5329 54.0014 90.6643 53.9033 89.813 53.9153C88.3301 53.9361 86.8312 54.2901 85.5775 55.0829C83.6983 56.2711 82.4407 58.3783 80.3745 59.1996L80.1211 59.5632C81.7197 59.646 83.3397 59.2586 84.7279 58.4616C85.6353 57.9405 86.4561 57.2445 87.4468 56.9073C88.3224 56.6095 89.268 56.6141 90.1929 56.6217C91.0668 56.6292 91.9972 56.6532 92.7216 57.1418C92.9359 57.2865 93.144 57.4754 93.4022 57.4908C93.6936 57.5081 93.9597 57.2796 94.0584 57.0048C94.1565 56.7302 94.1155 56.4235 94.0243 56.1461Z"
            fill="black" />
    </g>
    <path
        d="M91.3665 51.1648L92.0999 49.3094C92.1741 49.122 92.3551 48.9988 92.5564 48.9988H96.0417C96.2863 48.9988 96.456 49.2424 96.3715 49.4719L94.1364 55.5336C94.11 55.6051 94.042 55.6524 93.9657 55.6524H89.8401C89.7115 55.6524 89.6236 55.5225 89.6714 55.403L91.3665 51.1648Z"
        fill="#263238" />
    <path
        d="M95.7425 55.0161L96.1537 52.7604L95.8143 50.9836L95.269 52.4625V53.0596C95.0681 53.0073 93.1988 51.4219 92.6965 51.7632C92.1944 52.1047 90.9092 53.9772 90.9092 53.9772C90.9092 53.9772 93.1695 56.1842 93.5314 56.3505C93.5314 56.3505 93.6514 57.7442 93.6682 58.4642C93.6826 59.0762 93.7978 59.3085 94.5917 59.5744C95.3857 59.8404 96.3937 58.456 96.3937 57.2222C96.3939 56.4511 95.7425 55.0161 95.7425 55.0161Z"
        fill="#FFBE9D" />
    <path
        d="M81.1896 51.5949L81.3874 53.9671L87.096 51.8796L89.6381 50.7038L90.7502 50.9834C90.7502 50.9834 94.2456 51.2124 94.2775 51.4348C94.3092 51.6573 94.4681 51.8479 94.2775 51.8798C94.087 51.9115 91.3222 52.0387 91.3222 52.0387C91.3222 52.0387 94.303 52.2295 94.3697 52.4517C94.4364 52.6742 94.3409 53.0236 94.182 53.0236C94.0231 53.0236 90.9408 53.0236 90.9408 53.0236C90.9408 53.0236 93.9914 53.2142 94.0231 53.3414C94.055 53.4686 94.2773 53.6908 93.9914 53.7864C93.7054 53.8816 90.9091 53.9769 90.9091 53.9769L93.5467 54.4536C93.5467 54.4536 93.642 54.8666 93.4195 54.8666C93.197 54.8666 87.4454 55.248 87.4454 55.248C87.4454 55.248 80.7091 59.5444 79.4376 59.8557C78.1435 60.1725 77.0546 58.697 76.8977 57.6576C76.6613 56.0896 76.4434 52.0108 76.4434 52.0108L81.1896 51.5949Z"
        fill="#FFBE9D" />
    <path
        d="M87.4455 55.2482C87.4453 55.2458 87.4849 55.241 87.5622 55.2338C87.6457 55.2268 87.7595 55.2172 87.9051 55.2052C88.2135 55.1824 88.6563 55.15 89.223 55.1083C89.7971 55.0684 90.4959 55.0199 91.3052 54.964C91.7111 54.9364 92.1445 54.9071 92.6036 54.8759C92.8335 54.8606 93.0697 54.8447 93.3121 54.8284C93.4314 54.8234 93.5631 54.8097 93.6303 54.7461C93.6851 54.6885 93.5987 54.563 93.5154 54.4898L93.5382 54.5008C92.7351 54.3578 91.8447 54.1991 90.8996 54.0307C90.8701 54.0254 90.8504 53.9973 90.8557 53.9678C90.8603 53.9423 90.8826 53.9241 90.9075 53.9231C91.412 53.9008 91.9335 53.8778 92.4702 53.854C92.7383 53.8379 93.0099 53.8216 93.2852 53.8053C93.4225 53.7955 93.561 53.7851 93.6987 53.7707C93.8341 53.7523 93.9877 53.7532 94.0621 53.6783C94.1399 53.614 94.0974 53.4525 94.0148 53.4038C93.9745 53.3896 93.8915 53.3805 93.824 53.3707L93.6097 53.3452C93.3217 53.3155 93.0306 53.2852 92.7368 53.2547C92.1476 53.1998 91.5467 53.1439 90.9359 53.0867C90.9011 53.0836 90.8756 53.0529 90.8787 53.0183C90.8816 52.9857 90.9095 52.9612 90.9416 52.961C91.586 52.9607 92.2422 52.9603 92.9079 52.96C93.2408 52.96 93.5761 52.9598 93.9138 52.9598H94.1675C94.2102 52.9672 94.2608 52.9067 94.293 52.8415C94.358 52.7078 94.3494 52.5347 94.2275 52.4692C94.1461 52.4315 93.9999 52.4152 93.8843 52.3939L93.5139 52.3418C93.2663 52.312 93.0198 52.2825 92.7747 52.2532C92.2832 52.2023 91.797 52.1519 91.317 52.1023C91.2819 52.0989 91.2563 52.0677 91.2599 52.0329C91.263 52.0012 91.2894 51.977 91.3201 51.9755C91.9575 51.9448 92.5851 51.9146 93.2012 51.8851C93.5087 51.8675 93.8132 51.8503 94.1149 51.833C94.1859 51.8258 94.2759 51.8265 94.3079 51.8051C94.346 51.7821 94.364 51.725 94.3571 51.6662C94.3491 51.6071 94.3191 51.55 94.2745 51.5097C94.2301 51.4689 94.1701 51.4603 94.0971 51.4406C93.5269 51.3223 92.9449 51.2671 92.3862 51.2015C91.8253 51.1408 91.2779 51.0873 90.7463 51.0395L90.7374 51.0381C90.3572 50.9419 89.9871 50.848 89.6257 50.7563L89.661 50.753C88.7478 51.1725 87.8972 51.5632 87.1158 51.922L87.1122 51.9235C85.3501 52.5585 83.9223 53.0731 82.928 53.4314C82.4379 53.6049 82.0551 53.7405 81.7883 53.8351C81.662 53.8783 81.5634 53.9121 81.4907 53.9368C81.4235 53.9591 81.3884 53.9695 81.3877 53.9673C81.387 53.9651 81.4201 53.9507 81.4861 53.9241C81.5579 53.8963 81.6548 53.8583 81.7791 53.8101C82.0441 53.7103 82.4243 53.5667 82.9105 53.3834C83.9015 53.0159 85.3244 52.4879 87.0805 51.8366L87.0769 51.838C87.8567 51.4749 88.7048 51.0799 89.6159 50.6558C89.6274 50.6505 89.6399 50.6495 89.6514 50.6524C90.0131 50.7424 90.3836 50.8348 90.764 50.9296L90.7554 50.9282C91.2882 50.974 91.8361 51.0259 92.3982 51.0851C92.9607 51.1497 93.5353 51.2013 94.1255 51.3225C94.1929 51.34 94.2891 51.3573 94.3556 51.419C94.4216 51.4787 94.4655 51.5608 94.4778 51.6503C94.4891 51.737 94.466 51.8486 94.3724 51.9088C94.2697 51.9609 94.2003 51.9429 94.1231 51.9554C93.8207 51.9731 93.5151 51.9911 93.207 52.0091C92.5907 52.0396 91.9631 52.0706 91.3254 52.1023L91.3285 51.9753C91.8092 52.0247 92.2962 52.0749 92.7887 52.1253C93.0347 52.1546 93.2819 52.1841 93.5303 52.2139L93.9037 52.2664C94.0328 52.2935 94.1447 52.2926 94.2932 52.3586C94.3837 52.4099 94.4468 52.5119 94.4583 52.6123C94.4696 52.7128 94.4485 52.8093 94.4087 52.8964C94.3859 52.9391 94.3626 52.9816 94.3247 53.0188C94.305 53.0371 94.2863 53.0558 94.2565 53.0687C94.2363 53.0839 94.1799 53.0894 94.1672 53.0882H93.9135C93.5761 53.0882 93.2406 53.0879 92.9077 53.0879C92.2419 53.0877 91.5858 53.0872 90.9414 53.087L90.9469 52.9612C91.5582 53.0193 92.1594 53.0762 92.7488 53.1321C93.0433 53.1633 93.3351 53.194 93.6236 53.2245L93.8396 53.2507C93.9138 53.2641 93.9771 53.2619 94.071 53.2972C94.1576 53.35 94.1975 53.4275 94.2167 53.5118C94.2368 53.5943 94.2138 53.6995 94.1466 53.7623C94.0806 53.8269 93.9992 53.8485 93.9239 53.8622C93.8521 53.8723 93.7811 53.8821 93.711 53.8881C93.5706 53.9025 93.4316 53.9123 93.2934 53.9219C93.0171 53.9375 92.7447 53.9531 92.4759 53.9683C91.9386 53.9899 91.4166 54.011 90.9111 54.0316L90.9191 53.9239C91.8632 54.0969 92.7529 54.2599 93.5555 54.407L93.5569 54.4072C93.5651 54.4087 93.5725 54.4127 93.5783 54.418C93.6301 54.4658 93.6731 54.5159 93.7083 54.5788C93.7427 54.6359 93.7628 54.7391 93.7007 54.8078C93.5783 54.9163 93.4393 54.9088 93.3224 54.9189C93.0795 54.9335 92.8431 54.9479 92.613 54.9619C92.1531 54.9895 91.719 55.0154 91.3127 55.0399C90.5022 55.0871 89.8023 55.1279 89.2273 55.1615C88.6597 55.1923 88.2159 55.2163 87.9071 55.2331C87.7609 55.2395 87.6469 55.2446 87.5631 55.2482C87.4856 55.2503 87.4458 55.2506 87.4455 55.2482Z"
        fill="#EB996E" />
    <path
        d="M79.5756 56.6642C79.561 56.6627 79.5605 56.4702 79.6189 56.165C79.6784 55.8616 79.8097 55.4421 80.0746 55.0415C80.3413 54.6419 80.6797 54.3595 80.9393 54.1915C81.2012 54.0235 81.3809 53.9543 81.3874 53.9671C81.4193 54.0079 80.6991 54.3412 80.1814 55.1128C79.9277 55.4961 79.7878 55.894 79.7069 56.1859C79.628 56.4791 79.596 56.6668 79.5756 56.6642Z"
        fill="#EB996E" />
    <path
        d="M94.2489 50.5355C94.3068 50.6764 94.2278 50.842 94.073 50.9056C93.918 50.9692 93.7456 50.9066 93.6878 50.7657C93.6302 50.6248 93.7089 50.4592 93.864 50.3956C94.019 50.332 94.1911 50.3949 94.2489 50.5355Z"
        fill="#FAFAFA" />
    <path
        d="M94.9227 52.8369C94.9148 52.834 94.9539 52.7092 95.0312 52.4865C95.1181 52.2446 95.2318 51.9288 95.3686 51.5479C95.5177 51.1466 95.6917 50.6781 95.8834 50.1614C95.9324 50.0308 95.9825 49.8974 96.0339 49.7613C96.0752 49.6312 96.17 49.4664 96.1323 49.3802C96.1155 49.343 96.0613 49.3252 95.9883 49.3305C95.9113 49.3308 95.8335 49.3308 95.7553 49.331C95.5985 49.3312 95.4397 49.3312 95.2789 49.3315C94.6366 49.33 94.0246 49.3286 93.4647 49.3274C93.187 49.3255 92.9223 49.3238 92.6732 49.3221C92.5508 49.3096 92.4584 49.3509 92.4015 49.4352C92.3559 49.5208 92.3156 49.638 92.275 49.7308C92.1188 50.1045 91.9889 50.4146 91.8898 50.6517C91.7962 50.8682 91.741 50.9865 91.7333 50.9834C91.7257 50.9803 91.7662 50.8562 91.8461 50.6344C91.9361 50.3935 92.0537 50.0788 92.1956 49.6994C92.2371 49.5986 92.2633 49.5033 92.323 49.385C92.3581 49.3286 92.4111 49.2816 92.4745 49.253C92.5364 49.222 92.6161 49.2208 92.6729 49.2218C92.9218 49.2199 93.1863 49.218 93.4637 49.2158C94.0229 49.2141 94.6342 49.2122 95.276 49.2103C95.4365 49.2103 95.5954 49.2103 95.7519 49.2105C95.8301 49.2105 95.9079 49.2108 95.9849 49.2108C96.0598 49.2052 96.1865 49.2201 96.2386 49.3284C96.2833 49.4311 96.2465 49.5235 96.2228 49.5904C96.1959 49.6598 96.1695 49.7287 96.1431 49.7968C96.0905 49.9329 96.0389 50.0661 95.9885 50.1964C95.7872 50.7108 95.6048 51.1771 95.4485 51.5764C95.2969 51.9523 95.1711 52.2643 95.0746 52.5028C94.9844 52.721 94.9304 52.8398 94.9227 52.8369Z"
        fill="#455A64" />
    <path
        d="M84.892 26.5097C84.3085 26.1391 84.1674 25.2799 84.4837 24.6653C84.8 24.0506 85.4711 23.6774 86.1534 23.5673C87.141 23.4079 88.1972 23.7578 88.8942 24.4754C89.2708 24.8633 89.5758 25.3692 90.0865 25.5468C90.5353 25.703 91.0319 25.5619 91.5032 25.6231C92.1352 25.7049 92.6766 26.1542 93.0006 26.7026C93.3246 27.2513 93.458 27.8909 93.5329 28.5235C93.6016 29.1041 93.6469 29.7415 94.0499 30.1651C94.4428 30.5784 95.0634 30.666 95.5518 30.9597C96.471 31.5129 96.7688 32.8829 96.1624 33.7677C95.9689 34.0497 95.6915 34.3085 95.6689 34.6497C95.6485 34.9613 95.8499 35.2387 95.9442 35.5365C96.1871 36.3029 95.5597 37.2134 94.7569 37.2595C94.3516 37.2828 93.9176 37.1249 93.5543 37.3061C93.1936 37.4861 93.0592 37.9212 92.8285 38.2517C92.3747 38.9021 91.425 39.1473 90.7129 38.7981C90.4148 38.652 90.1333 38.4108 89.8021 38.4331C89.4716 38.4554 89.2112 38.7377 88.886 38.8005C88.4603 38.8829 88.0559 38.5692 87.8027 38.2171C87.5495 37.865 87.3731 37.4503 87.0491 37.1621C86.6248 36.7848 86.0286 36.6914 85.4917 36.5066C84.3066 36.0986 83.3164 35.1581 82.8479 33.9957C82.3792 32.8332 82.4404 31.469 83.0111 30.3533"
        fill="#263238" />
    <path
        d="M91.0669 34.1402C91.1881 34.0096 91.3621 33.8875 91.5407 33.8287L91.5044 33.8265C91.5378 33.8174 91.5719 33.8133 91.6059 33.8092C91.7365 33.7785 91.8661 33.785 91.976 33.8551L91.9724 33.8548C92.1752 33.9295 92.3538 34.078 92.4515 34.272C92.6216 34.6094 92.5585 35.04 92.3293 35.3404C92.1301 35.6016 91.7879 35.7727 91.4687 35.6952C91.1756 35.6239 90.9582 35.3582 90.8751 35.068C90.7842 34.7505 90.8423 34.3821 91.0669 34.1402Z"
        fill="#455A64" />
    <path
        d="M83.3664 40.3464L82.7463 28.9629C82.722 28.4618 83.0854 28.0255 83.5827 27.9585L88.6719 26.5173C90.3084 26.297 91.4575 28.2876 91.608 29.9321C91.7753 31.7592 91.9075 33.9965 91.7295 35.3683C91.3714 38.1269 89.2764 38.5363 89.2764 38.5363C89.3074 40.1093 89.3079 40.1093 89.3074 40.1093L89.1411 44.389L83.3664 40.3464Z"
        fill="#FFBE9D" />
    <path
        d="M90.8994 32.3189C90.9112 32.5046 90.7638 32.6678 90.5699 32.6839C90.3765 32.6998 90.2097 32.5625 90.1979 32.3767C90.1862 32.191 90.3335 32.0275 90.527 32.0117C90.7209 31.9954 90.8877 32.1331 90.8994 32.3189Z"
        fill="#263238" />
    <path
        d="M91.1555 31.1109C91.1133 31.1582 90.8406 30.9684 90.4617 30.9799C90.0829 30.9861 89.8103 31.1892 89.7678 31.1438C89.7469 31.1239 89.7892 31.0397 89.9077 30.948C90.0244 30.8568 90.2253 30.7656 90.4614 30.7598C90.6976 30.7545 90.8987 30.8357 91.0153 30.9213C91.1346 31.0077 91.1764 31.0898 91.1555 31.1109Z"
        fill="#263238" />
    <path
        d="M87.3965 32.3188C87.4085 32.5046 87.2609 32.6678 87.067 32.6839C86.8736 32.6997 86.7068 32.5624 86.695 32.3767C86.6832 32.1909 86.8306 32.0275 87.024 32.0114C87.218 31.9953 87.3847 32.1331 87.3965 32.3188Z"
        fill="#263238" />
    <path
        d="M87.4328 31.2876C87.3903 31.3349 87.1174 31.145 86.7389 31.1568C86.3602 31.163 86.0876 31.3658 86.0451 31.3207C86.0245 31.3008 86.066 31.2165 86.1853 31.1249C86.3019 31.0337 86.5028 30.9425 86.7389 30.9367C86.9751 30.9314 87.176 31.0125 87.2929 31.0982C87.4117 31.1844 87.4537 31.2665 87.4328 31.2876Z"
        fill="#263238" />
    <path
        d="M88.8877 34.0591C88.8853 34.0375 89.1198 33.9903 89.5002 33.9305C89.5966 33.9178 89.6876 33.8959 89.7022 33.8295C89.7231 33.7589 89.6797 33.6557 89.6295 33.5443C89.5318 33.3127 89.4296 33.0699 89.3223 32.8155C88.8951 31.7775 88.5829 30.9231 88.6249 30.9063C88.6669 30.8895 89.0473 31.717 89.4745 32.755C89.5774 33.0111 89.6761 33.2549 89.7697 33.4884C89.8095 33.5974 89.876 33.7203 89.8306 33.8669C89.8066 33.9399 89.737 33.9943 89.6756 34.0128C89.6142 34.0335 89.5597 34.0361 89.5119 34.0404C89.1279 34.0721 88.8896 34.0807 88.8877 34.0591Z"
        fill="#263238" />
    <path
        d="M89.2771 38.5366C89.2771 38.5366 87.433 38.7082 85.5713 37.6601C85.5713 37.6601 86.5171 39.5213 89.2584 39.1863L89.2771 38.5366Z"
        fill="#EB996E" />
    <path
        d="M88.8577 34.9618C88.6669 34.7078 88.3628 34.5573 88.0784 34.5763C87.8811 34.5895 87.6901 34.6862 87.5873 34.8619C87.4846 35.0374 87.4856 35.2944 87.614 35.4742C87.7582 35.6765 88.0227 35.7358 88.2353 35.6779C88.448 35.6198 88.6205 35.4684 88.7835 35.317C88.8286 35.275 88.8747 35.2313 88.8994 35.1718C88.9241 35.1122 88.9227 35.0328 88.879 34.98"
        fill="#EB996E" />
    <path
        d="M87.7797 34.3529C87.8411 34.3476 87.8536 34.759 88.2141 35.041C88.5739 35.3239 89.0111 35.2654 89.0159 35.3227C89.0224 35.3484 88.9204 35.4055 88.7356 35.4156C88.5542 35.4271 88.2875 35.3763 88.067 35.2037C87.8471 35.0309 87.748 34.7945 87.7291 34.626C87.7084 34.4547 87.7514 34.3515 87.7797 34.3529Z"
        fill="#263238" />
    <path
        d="M87.555 29.7225C87.5207 29.8267 87.1408 29.7885 86.6978 29.8548C86.2533 29.9121 85.8983 30.0525 85.8366 29.9616C85.809 29.9181 85.8688 29.8195 86.0111 29.7156C86.152 29.6119 86.3786 29.5106 86.6447 29.4734C86.9109 29.4367 87.1564 29.472 87.3203 29.5334C87.4854 29.5946 87.5697 29.6731 87.555 29.7225Z"
        fill="#263238" />
    <path
        d="M90.9848 29.8104C90.9205 29.8982 90.657 29.8164 90.3431 29.8212C90.0289 29.8149 89.7649 29.8956 89.7011 29.8073C89.673 29.7643 89.7126 29.6769 89.8263 29.592C89.9384 29.5075 90.128 29.4357 90.344 29.4362C90.5598 29.4369 90.7489 29.5097 90.8607 29.5946C90.974 29.6801 91.0129 29.7677 90.9848 29.8104Z"
        fill="#263238" />
    <path
        d="M93.4598 29.3554C93.3319 28.944 93.0965 28.5511 92.7355 28.3162C92.5377 28.1873 92.3078 28.1088 92.124 27.9605C91.727 27.6401 91.6351 27.0826 91.3903 26.6352C91.0745 26.0587 90.4641 25.6538 89.8101 25.5869C89.2658 25.5312 88.7052 25.6946 88.1748 25.5607C87.7826 25.4618 87.4401 25.2074 87.0429 25.1318C86.2694 24.9847 85.5501 25.5401 84.9893 26.0928C84.9871 26.6465 85.4282 27.0168 85.853 27.3722C86.2776 27.7277 86.8634 27.8822 87.408 27.7826C87.8306 27.7054 88.2938 27.4918 88.6596 27.7169C89.0443 27.9538 89.0604 28.5338 89.4014 28.83C89.8891 29.2534 90.6645 28.8562 91.2835 29.0398C91.7616 29.1816 92.0601 29.6386 92.3779 30.023C92.6954 30.4075 93.1713 30.773 93.6494 30.6312C93.6189 30.2011 93.5877 29.7667 93.4598 29.3554Z"
        fill="#263238" />
    <path
        d="M87.6991 26.8682C87.3374 26.7648 86.597 26.5303 86.4029 26.2166C85.9814 25.535 85.2384 25.0696 84.479 25.1112C83.7197 25.1527 82.991 25.7522 82.8355 26.554C81.9168 26.561 81.0204 27.138 80.5795 28.0063C80.5243 28.1148 80.4766 28.2276 80.4362 28.343C80.1499 28.8465 80.095 29.478 80.3026 30.0194C80.4278 30.346 80.641 30.7096 80.473 31.0166C80.3018 31.3288 79.8696 31.3387 79.5326 31.4548C78.9468 31.6567 78.5669 32.3299 78.6974 32.9359C78.7442 33.1533 78.8482 33.3703 78.8028 33.588C78.7558 33.8145 78.5616 33.9746 78.4128 34.1517C78.0427 34.5916 77.9282 35.2324 78.1231 35.7734C78.318 36.3144 78.8148 36.7348 79.3805 36.8376C79.6378 36.8844 79.9169 36.8736 80.1398 37.0106C80.3954 37.1678 80.507 37.4752 80.6873 37.715C81.0329 38.1748 81.6835 38.3786 82.2298 38.1979C82.3404 38.1614 82.4431 38.1062 82.5396 38.0419C82.7119 38.2809 82.9826 38.4429 83.4451 38.4429L83.3388 32.4014C83.3964 32.5288 83.5068 32.6436 83.705 32.6882C84.6746 32.9076 84.8165 30.9093 84.6 30.3679C84.9506 30.0564 85.3054 29.7405 85.573 29.3448C85.8406 28.949 86.0762 27.8702 86.0191 27.3844C86.3693 27.4051 87.8582 26.9136 87.6991 26.8682Z"
        fill="#263238" />
    <path
        d="M83.7274 32.7895C83.6982 32.201 82.9779 32.075 82.4677 32.37C82.1876 32.532 81.9733 32.8574 81.9992 33.4824C82.0678 35.1487 83.7267 34.7362 83.7277 34.6882C83.7279 34.6584 83.7618 33.4786 83.7274 32.7895Z"
        fill="#FFBE9D" />
    <path
        d="M83.1932 34.0776C83.1858 34.0726 83.1649 34.0992 83.1169 34.1237C83.0699 34.1474 82.9883 34.1659 82.9002 34.1371C82.7214 34.0798 82.5618 33.8064 82.5414 33.5064C82.5308 33.355 82.5567 33.2093 82.6055 33.0874C82.6513 32.9633 82.7267 32.875 82.8145 32.8555C82.9019 32.8315 82.9667 32.8819 82.9892 32.928C83.0135 32.9736 83.0043 33.0074 83.0132 33.0098C83.018 33.0139 83.0478 32.9803 83.0315 32.9122C83.0233 32.8793 83.0022 32.8409 82.9616 32.8104C82.9203 32.7794 82.8608 32.7653 82.7994 32.7746C82.6712 32.7888 82.5603 32.9117 82.5068 33.0454C82.4461 33.18 82.4135 33.3439 82.4252 33.5141C82.4497 33.8494 82.6345 34.1566 82.8783 34.2161C82.9969 34.2418 83.0931 34.2024 83.1421 34.1611C83.1918 34.1182 83.199 34.0805 83.1932 34.0776Z"
        fill="#EB996E" />
    <path
        d="M85.356 26.5648C85.3682 26.5826 85.188 26.6126 85.0236 26.8432C84.8585 27.0703 84.7966 27.5054 84.901 27.9955L84.9098 28.0375L84.8688 28.0478C84.4567 28.1505 84.0026 28.4781 83.7953 28.9936C83.7463 29.1208 83.7132 29.2617 83.7091 29.4002C83.7084 29.5413 83.7338 29.6892 83.7612 29.8406C83.7881 29.9923 83.819 30.1488 83.8248 30.3148C83.8361 30.4778 83.7924 30.6667 83.6928 30.8066C83.4854 31.1219 83.1523 31.2772 82.8662 31.4277C82.5718 31.5739 82.2996 31.7232 82.0925 31.9344C81.6706 32.3498 81.4822 32.8869 81.4702 33.3307C81.4541 33.7802 81.5806 34.1356 81.6898 34.3605C81.8004 34.588 81.8933 34.6965 81.8839 34.7035C81.8808 34.7061 81.8563 34.6802 81.8126 34.6286C81.7711 34.5753 81.7109 34.4952 81.649 34.3816C81.5251 34.1584 81.3811 33.7968 81.3869 33.3285C81.3888 32.8656 81.5765 32.2989 82.0159 31.8576C82.2314 31.6327 82.5223 31.4712 82.8134 31.3252C83.0998 31.1748 83.4134 31.0209 83.5939 30.7428C83.7785 30.4898 83.6959 30.1596 83.6474 29.861C83.6208 29.7088 83.5944 29.5557 83.5961 29.3985C83.6021 29.2394 83.6393 29.0923 83.6935 28.9538C83.923 28.4008 84.4085 28.0641 84.8482 27.9636L84.816 28.0159C84.7174 27.502 84.7954 27.0516 84.984 26.8152C85.0752 26.6976 85.1753 26.634 85.2446 26.6028C85.3169 26.5735 85.3546 26.5608 85.356 26.5648Z"
        fill="#455A64" />
    <path
        d="M82.5707 34.7013C82.6919 34.5708 82.8659 34.4486 83.0445 34.3898L83.0082 34.3877C83.0416 34.3785 83.0757 34.3747 83.1097 34.3704C83.2403 34.3394 83.3699 34.3461 83.4798 34.4162L83.4762 34.416C83.679 34.4906 83.8576 34.6392 83.9553 34.8331C84.1254 35.1705 84.0623 35.6011 83.8331 35.9016C83.6339 36.1627 83.2917 36.3338 82.9725 36.2563C82.6794 36.1853 82.462 35.9193 82.3789 35.6292C82.2882 35.3119 82.3461 34.9435 82.5707 34.7013Z"
        fill="#455A64" />
    <path
        d="M96.8541 104.81C96.8201 104.815 95.4614 95.7295 93.8198 84.5196C92.1777 73.3058 90.8748 64.2141 90.9089 64.2091C90.9429 64.2041 92.3013 73.2876 93.9434 84.5016C95.585 95.7115 96.8882 104.805 96.8541 104.81Z"
        fill="#455A64" />
    <path
        d="M86.8029 61.0361C86.8105 61.0375 86.805 61.1138 86.7789 61.2494C86.7532 61.385 86.7016 61.579 86.6125 61.8101C86.4378 62.2706 86.0793 62.881 85.4968 63.3744C84.9143 63.8681 84.2534 64.1215 83.7702 64.2185C83.5276 64.2684 83.3279 64.2874 83.1899 64.2905C83.0519 64.2938 82.9758 64.2869 82.9756 64.2792C82.9742 64.2566 83.2797 64.2521 83.7503 64.1323C84.2183 64.0157 84.8524 63.7567 85.4162 63.2791C85.9797 62.8015 86.3392 62.2188 86.5312 61.7762C86.7263 61.3318 86.7808 61.031 86.8029 61.0361Z"
        fill="#455A64" />
    <path
        d="M89.945 61.3598C89.9507 61.3807 89.7863 61.38 89.6608 61.5631C89.6025 61.65 89.5581 61.7808 89.5943 61.9077C89.6263 62.0352 89.7585 62.1355 89.9147 62.1535C90.0712 62.1717 90.2229 62.1045 90.2831 61.9877C90.3475 61.8722 90.3342 61.7349 90.2973 61.6368C90.2171 61.4297 90.057 61.3927 90.0674 61.374C90.0686 61.3677 90.1084 61.3639 90.1727 61.3925C90.2366 61.4198 90.3203 61.4875 90.3782 61.6013C90.4324 61.7126 90.4651 61.8789 90.3847 62.0419C90.3067 62.2087 90.0964 62.3033 89.9001 62.2778C89.7033 62.2577 89.5204 62.1175 89.4827 61.9373C89.4419 61.7604 89.5118 61.6061 89.5903 61.5098C89.6726 61.4124 89.7695 61.3656 89.8382 61.3536C89.9073 61.3406 89.9452 61.3536 89.945 61.3598Z"
        fill="#455A64" />
    <path
        d="M100.365 83.021C100.373 83.0565 99.8761 83.1981 99.2883 83.4377C98.6994 83.6745 98.2436 83.9184 98.2251 83.8869C98.2076 83.8596 98.642 83.5629 99.2415 83.3217C99.8398 83.0781 100.358 82.9891 100.365 83.021Z"
        fill="#455A64" />
    <path
        d="M81.8888 48.6828C81.8874 48.689 81.7904 48.6713 81.6236 48.6089C81.4573 48.545 81.2305 48.4171 80.9814 48.2201C80.731 48.0245 80.4644 47.7573 80.1639 47.4737C79.8639 47.1931 79.5176 46.8883 79.0791 46.728C78.6418 46.5638 78.1762 46.6106 77.791 46.7311C77.4013 46.8516 77.0814 47.0455 76.8238 47.2195C76.3131 47.5785 76.0196 47.8377 76.0052 47.8195C75.9997 47.813 76.0678 47.7434 76.1974 47.6241C76.3275 47.5056 76.5181 47.3357 76.7727 47.1473C77.0276 46.9615 77.3514 46.7532 77.7562 46.6212C78.1546 46.4894 78.6512 46.434 79.1216 46.6104C79.5906 46.7827 79.9448 47.1033 80.2434 47.3901C80.5424 47.6815 80.799 47.9513 81.0373 48.1517C81.5086 48.5654 81.8986 48.659 81.8888 48.6828Z"
        fill="white" />
    <path
        d="M93.6375 47.0107C93.6281 47.0198 93.5088 46.8869 93.2561 46.6922C93.0031 46.5012 92.6055 46.2523 92.0583 46.0973C91.5163 45.9425 90.8163 45.8911 90.1008 46.116C89.3815 46.3365 88.6877 46.8074 87.9363 47.2586C87.5592 47.4833 87.175 47.6861 86.7809 47.8269C86.3885 47.9702 85.9942 48.0602 85.6157 48.1152C84.8571 48.2244 84.1656 48.1963 83.5932 48.1529C83.0194 48.1065 82.5591 48.0393 82.2418 47.9911C82.0949 47.9666 81.9744 47.9467 81.877 47.9304C81.7939 47.915 81.7505 47.9047 81.751 47.9006C81.7515 47.8963 81.7961 47.8982 81.8803 47.9054C81.9785 47.9153 82.0999 47.9277 82.248 47.9426C82.567 47.976 83.0283 48.0295 83.5992 48.0643C84.1692 48.0965 84.8542 48.1147 85.5989 48.0009C85.9704 47.9441 86.3559 47.8533 86.7387 47.7117C87.1224 47.5728 87.498 47.3741 87.8724 47.1509C88.6176 46.704 89.3237 46.2273 90.0667 46.0056C90.8088 45.7793 91.5312 45.8424 92.0827 46.0121C92.6403 46.1822 93.0387 46.4484 93.2861 46.6538C93.409 46.7589 93.4999 46.8453 93.5551 46.9099C93.6125 46.9735 93.6408 47.0078 93.6375 47.0107Z"
        fill="white" />
    <path
        d="M96.1139 46.932C96.1273 46.9339 96.1189 47.0961 96.0066 47.3289C95.8976 47.5588 95.6641 47.8548 95.3046 48.0316C94.9446 48.2078 94.5675 48.2112 94.3191 48.1564C94.0664 48.1029 93.933 48.0103 93.9397 47.9983C93.9476 47.9793 94.0911 48.0408 94.3333 48.0693C94.5726 48.0993 94.9191 48.0811 95.2496 47.9193C95.5796 47.7571 95.8062 47.494 95.9291 47.2864C96.0546 47.0776 96.0939 46.9267 96.1139 46.932Z"
        fill="white" />
    <path
        d="M75.7861 52.0449C75.7852 52.0361 75.9409 52.0128 76.2229 51.978C76.5263 51.9437 76.9297 51.8983 77.4186 51.8431C78.4288 51.7349 79.8251 51.594 81.3681 51.4464C81.5519 51.4289 81.7336 51.4116 81.9049 51.3953L81.8471 51.4601C81.8113 50.0345 81.7857 48.7661 81.7732 47.8538C81.7698 47.4137 81.7669 47.0515 81.7648 46.7779C81.7655 46.5249 81.7698 46.386 81.7782 46.3857C81.7866 46.3855 81.7981 46.5242 81.8123 46.7769C81.8245 47.0503 81.8406 47.4122 81.8603 47.8521C81.8956 48.7639 81.9366 50.0318 81.9757 51.4577L81.9774 51.5169L81.9179 51.5227C81.7468 51.5393 81.5651 51.5565 81.3813 51.5743C79.8383 51.7219 78.4405 51.8484 77.4282 51.9336C76.9377 51.972 76.5328 52.0039 76.2287 52.0279C75.9443 52.0471 75.7871 52.0538 75.7861 52.0449Z"
        fill="#263238" />
    <path
        d="M24.2558 102.368L19.0601 105.289L14.2843 106.415C13.9402 106.496 13.7366 106.851 13.8408 107.189C13.8994 107.378 14.0438 107.527 14.232 107.589C15.4296 107.982 19.8415 109.306 20.1319 109.174C20.5927 108.966 25.8955 106.452 25.8955 106.452L24.2558 102.368Z"
        fill="#FF725E" />
    <g opacity="0.6">
        <path
            d="M13.8408 107.189L20.5656 108.981L20.3427 109.099C20.1053 109.2 19.9275 109.234 19.7141 109.187C19.1436 109.062 17.5759 108.683 14.2404 107.605C14.0463 107.542 13.8958 107.386 13.8408 107.189Z"
            fill="white" />
    </g>
    <g opacity="0.6">
        <path
            d="M21.6877 106.997C21.5264 106.914 21.3041 106.977 21.2141 107.135C21.1244 107.293 21.1865 107.519 21.3464 107.605C21.506 107.692 21.7753 107.624 21.847 107.457C21.9185 107.29 21.8309 107.028 21.6553 106.983"
            fill="white" />
    </g>
    <path
        d="M18.4615 106.925C18.4306 106.915 18.5179 106.595 18.4503 106.189C18.3888 105.783 18.2033 105.483 18.2302 105.468C18.2482 105.45 18.4872 105.746 18.5542 106.182C18.6255 106.617 18.4851 106.941 18.4615 106.925Z"
        fill="#263238" />
    <path
        d="M19.7079 106.628C19.669 106.631 19.6356 106.276 19.4477 105.89C19.2653 105.502 19.0095 105.253 19.0361 105.225C19.0541 105.197 19.3687 105.417 19.5658 105.834C19.7667 106.248 19.7412 106.632 19.7079 106.628Z"
        fill="#263238" />
    <path
        d="M20.7724 106.128C20.7333 106.128 20.753 105.742 20.5221 105.353C20.2999 104.957 19.956 104.782 19.9754 104.748C19.9819 104.734 20.0784 104.756 20.213 104.84C20.3472 104.923 20.513 105.076 20.6354 105.287C20.7571 105.498 20.807 105.719 20.8116 105.876C20.8171 106.035 20.788 106.13 20.7724 106.128Z"
        fill="#263238" />
    <path
        d="M20.7876 105.003C20.784 104.996 20.8483 104.947 20.9827 104.89C21.1164 104.833 21.3235 104.771 21.5882 104.77C21.7164 104.775 21.8733 104.767 22.0209 104.877C22.0949 104.932 22.1393 105.048 22.1028 105.147C22.068 105.245 21.9919 105.311 21.9096 105.357C21.5729 105.529 21.0969 105.415 20.849 105.065C20.6069 104.71 20.6402 104.253 20.849 103.95C20.9064 103.878 20.9858 103.807 21.0965 103.8C21.2076 103.793 21.3 103.881 21.3273 103.963C21.3871 104.131 21.3497 104.278 21.3317 104.405C21.2825 104.664 21.1889 104.858 21.114 104.982C21.0386 105.107 20.9813 105.164 20.9753 105.16C20.9515 105.149 21.1629 104.889 21.2402 104.39C21.2539 104.267 21.2765 104.123 21.2268 104.004C21.203 103.947 21.1562 103.911 21.1015 103.915C21.0482 103.918 20.9882 103.964 20.9445 104.023C20.7758 104.275 20.7463 104.693 20.9556 104.989C21.1615 105.287 21.5798 105.387 21.8525 105.251C21.9175 105.217 21.9734 105.165 21.9936 105.11C22.0133 105.056 21.996 104.998 21.9506 104.96C21.8549 104.88 21.7077 104.87 21.5861 104.863C21.0816 104.847 20.7945 105.029 20.7876 105.003Z"
        fill="#263238" />
    <path
        d="M27.0781 103.692L30.5668 106.756C30.5668 106.756 28.6244 111.331 29.2141 111.959L35.3972 105.408L30.1571 100.412L27.0781 103.692Z"
        fill="#FF725E" />
    <path
        d="M32.195 104.462C32.3493 104.368 32.5744 104.415 32.675 104.565C32.7753 104.716 32.7295 104.945 32.5768 105.042C32.4242 105.139 32.152 105.091 32.0692 104.93C31.9864 104.77 32.0548 104.503 32.2262 104.446"
        fill="#E0E0E0" />
    <g opacity="0.6">
        <path
            d="M35.3972 105.408L34.8493 104.926L29.126 111.387C29.126 111.387 28.9777 111.799 29.2141 111.96L35.3972 105.408Z"
            fill="white" />
    </g>
    <path
        d="M30.4331 106.83C30.466 106.86 30.6316 106.713 30.8828 106.653C31.1327 106.586 31.348 106.636 31.3628 106.594C31.3844 106.559 31.1483 106.426 30.8452 106.505C30.5416 106.58 30.3973 106.81 30.4331 106.83Z"
        fill="#263238" />
    <path
        d="M30.0695 107.786C30.0935 107.822 30.2787 107.735 30.5166 107.754C30.7549 107.766 30.9272 107.877 30.9558 107.844C30.9891 107.818 30.8226 107.619 30.5267 107.601C30.2307 107.581 30.0397 107.756 30.0695 107.786Z"
        fill="#263238" />
    <path
        d="M30.523 108.952C30.5573 108.929 30.4395 108.734 30.1867 108.651C29.9345 108.566 29.7231 108.651 29.737 108.69C29.7463 108.733 29.9319 108.725 30.1383 108.796C30.3463 108.863 30.4899 108.981 30.523 108.952Z"
        fill="#263238" />
    <path
        d="M29.7159 106.044C29.7576 106.058 29.8519 105.87 30.0351 105.7C30.2146 105.527 30.408 105.444 30.3963 105.401C30.3905 105.361 30.1426 105.387 29.9299 105.589C29.7159 105.79 29.676 106.036 29.7159 106.044Z"
        fill="#263238" />
    <path
        d="M29.0234 105.413C29.0363 105.426 29.1753 105.318 29.3313 105.083C29.4088 104.966 29.4878 104.817 29.5497 104.64C29.5807 104.552 29.6073 104.458 29.6275 104.358C29.6366 104.309 29.6507 104.255 29.6438 104.186C29.6438 104.119 29.578 104.019 29.4875 104.011C29.4055 103.997 29.3277 104.036 29.2821 104.082C29.2351 104.129 29.2077 104.177 29.183 104.221C29.1319 104.311 29.0915 104.402 29.0606 104.491C28.9994 104.67 28.9754 104.839 28.9737 104.981C28.9711 105.266 29.0416 105.431 29.0582 105.425C29.0824 105.421 29.0522 105.252 29.0819 104.988C29.0968 104.856 29.1302 104.702 29.1933 104.54C29.2252 104.459 29.2648 104.377 29.3131 104.297C29.3603 104.21 29.4155 104.151 29.4633 104.162C29.4813 104.167 29.4866 104.171 29.4933 104.204C29.4979 104.237 29.4897 104.282 29.4808 104.33C29.4638 104.424 29.4417 104.513 29.4163 104.597C29.3651 104.765 29.3006 104.911 29.2384 105.029C29.1134 105.265 29.0056 105.397 29.0234 105.413Z"
        fill="#263238" />
    <path
        d="M29.1085 105.414C29.1241 105.408 29.0694 105.236 28.8733 105.029C28.7756 104.926 28.6412 104.819 28.4717 104.735C28.387 104.693 28.2937 104.657 28.1936 104.63C28.0926 104.607 27.9618 104.573 27.8305 104.683C27.7669 104.746 27.7666 104.847 27.7926 104.906C27.8163 104.97 27.8504 105.01 27.8811 105.053C27.9461 105.138 28.0227 105.207 28.1019 105.262C28.2608 105.373 28.4307 105.426 28.573 105.442C28.8637 105.474 29.0278 105.377 29.0197 105.364C29.0137 105.338 28.8466 105.391 28.591 105.335C28.465 105.308 28.3184 105.251 28.1847 105.148C28.118 105.097 28.0546 105.035 28.0009 104.963C27.9409 104.887 27.9094 104.808 27.9411 104.789C27.9713 104.755 28.076 104.75 28.1569 104.775C28.2474 104.797 28.3328 104.827 28.4115 104.862C28.5687 104.932 28.6988 105.022 28.7989 105.107C28.9998 105.28 29.0871 105.427 29.1085 105.414Z"
        fill="#263238" />
    <path
        d="M27.0786 94.1745L23.1699 90.31L31.0719 75.7996C31.7977 74.9697 32.7164 74.3306 33.747 73.9389L36.2019 73.0058L42.3558 72.496L46.1437 73.5926C47.239 74.0239 48.6193 74.812 48.4803 75.9811L47.127 85.8492L46.4593 98.2718L29.8966 94.1949L33.5703 89.4376L32.246 83.7825L27.0786 94.1745Z"
        fill="white" />
    <path
        d="M33.1553 92.1777L41.6959 88.7606C42.4632 88.4517 42.7198 87.6059 42.7826 86.7813L43.4789 77.6603C43.4789 77.6603 43.3966 73.7812 45.8194 73.5923L47.1979 74.1352C48.9794 75.0813 49.4208 77.675 49.1782 79.6775C48.8335 82.523 48.69 86.5497 48.3043 89.0193C47.989 91.0394 46.7758 92.6375 44.8546 93.3369L34.0966 95.6426L33.1553 92.1777Z"
        fill="white" />
    <path
        d="M33.4772 92.4782H32.3254C32.3254 92.4782 29.7265 91.5391 29.192 91.6289C28.7105 91.7097 26.9485 92.8802 26.6031 93.1121C26.5645 93.138 26.5357 93.1749 26.5196 93.2186C26.4493 93.4092 26.5419 93.6213 26.7298 93.6988L26.7663 93.714L26.7505 93.7665C26.731 93.8313 26.7202 93.9048 26.7241 93.9768C26.737 94.2242 27.0697 94.2996 27.1961 94.0865L27.1297 94.2045C27.1025 94.2525 27.0898 94.3073 27.0929 94.3625L27.0989 94.4697C27.1054 94.5888 27.1846 94.6917 27.2981 94.7287C27.4059 94.7637 27.5245 94.7333 27.6008 94.6493C27.8242 94.4035 28.3071 93.911 28.6335 93.8565C28.9239 93.8081 29.408 93.8018 29.7003 93.803C29.8491 93.8037 29.9816 93.8954 30.0356 94.0339C29.8417 94.0478 28.4912 94.752 28.0133 95.004C27.8655 95.082 27.7549 95.2226 27.7354 95.3887C27.7179 95.5382 27.7935 95.6949 28.0894 95.6258C28.7245 95.4775 29.8671 94.9521 29.8671 94.9521C29.8671 94.9521 30.4565 94.7837 30.8384 95.0532C31.3755 95.4321 31.6215 95.5711 32.0828 95.4182C32.5441 95.2653 32.8841 95.046 32.8841 95.046L33.7928 94.9553C33.7928 94.9553 34.652 92.8075 33.4772 92.4782Z"
        fill="#916B5C" />
    <path
        d="M30.0453 92.9172C30.0432 92.927 29.861 92.8687 29.5569 92.8495C29.2552 92.8289 28.8261 92.8639 28.3994 93.0461C27.9722 93.2282 27.6501 93.5138 27.4562 93.7459C27.2599 93.9787 27.1759 94.1505 27.1672 94.1453C27.1646 94.1438 27.1836 94.1004 27.2251 94.025C27.2664 93.9497 27.3336 93.8443 27.4293 93.7238C27.6189 93.4831 27.9439 93.1869 28.38 93.0009C28.8158 92.8149 29.2545 92.7849 29.5593 92.8149C29.7127 92.8291 29.8353 92.8536 29.9181 92.8759C30.0016 92.8977 30.046 92.9143 30.0453 92.9172Z"
        fill="#6D5046" />
    <path
        d="M29.7703 92.286C29.7675 92.298 29.5824 92.2073 29.262 92.1974C28.9443 92.1838 28.4976 92.2795 28.08 92.5322C27.6622 92.7859 27.3497 93.1078 27.1275 93.3382C27.0221 93.4502 26.9343 93.5434 26.8663 93.6156C26.8044 93.6811 26.7694 93.7164 26.7667 93.714C26.7643 93.7118 26.7946 93.6722 26.8522 93.6029C26.9098 93.5335 26.994 93.4342 27.1023 93.3146C27.3185 93.0778 27.63 92.7487 28.0551 92.4902C28.4808 92.2325 28.9397 92.1398 29.2637 92.1629C29.4262 92.1727 29.5553 92.2022 29.641 92.232C29.6847 92.2445 29.7161 92.2608 29.7382 92.2694C29.7598 92.2786 29.7711 92.2843 29.7703 92.286Z"
        fill="#6D5046" />
    <path
        d="M44.161 79.0516C44.1569 79.0514 44.1473 79.1234 44.1329 79.2607C44.1187 79.4092 44.0998 79.6096 44.0758 79.8616C44.0302 80.3961 43.9663 81.1488 43.8876 82.0735C43.8123 83.0114 43.723 84.1226 43.6239 85.355C43.5996 85.6639 43.5747 85.9804 43.5492 86.3035C43.5228 86.627 43.5043 86.9582 43.4357 87.2796C43.3704 87.6021 43.2257 87.9043 42.9934 88.1342C42.7625 88.3651 42.4738 88.534 42.1723 88.6804C39.7188 89.8156 37.4575 90.7528 35.8162 91.4102C35.0014 91.7311 34.3385 91.9922 33.8674 92.1777C33.6451 92.2653 33.4685 92.3349 33.3375 92.3868C33.2167 92.4357 33.1539 92.4633 33.1553 92.4676C33.1567 92.4717 33.222 92.4523 33.3454 92.4112C33.4783 92.3652 33.6574 92.303 33.8827 92.2248C34.3486 92.0596 35.0196 91.8127 35.8452 91.4949C37.4962 90.8582 39.7611 89.9352 42.2218 88.7966C42.5278 88.6478 42.8283 88.4736 43.0747 88.2266C43.3236 87.9811 43.483 87.6448 43.549 87.3081C43.62 86.9707 43.6368 86.6371 43.6623 86.3148C43.6863 85.9912 43.7098 85.6747 43.7328 85.3656C43.8223 84.132 43.903 83.0198 43.9711 82.0809C44.034 81.1548 44.0851 80.4009 44.1216 79.8655C44.1363 79.6128 44.1478 79.4116 44.1564 79.2626C44.1636 79.1246 44.1651 79.0519 44.161 79.0516Z"
        fill="#263238" />
    <path
        d="M45.5433 90.3923C45.5562 90.3887 45.5157 90.1852 45.37 89.8852C45.226 89.5859 44.9594 89.1991 44.5713 88.8664C44.1818 88.535 43.7579 88.3324 43.4399 88.2369C43.121 88.1399 42.9136 88.1318 42.9122 88.1452C42.9083 88.1666 43.108 88.2062 43.4104 88.3219C43.7126 88.4363 44.1131 88.6439 44.4887 88.9631C44.8626 89.284 45.1302 89.6471 45.2908 89.9277C45.4523 90.2085 45.5229 90.3995 45.5433 90.3923Z"
        fill="#263238" />
    <g opacity="0.3">
        <path
            d="M35.4658 91.3747C36.4829 90.8001 37.4785 90.3585 38.5419 89.8751C39.6056 89.3918 40.6474 88.7714 41.3434 87.833C42.6562 86.0635 42.5067 83.5094 43.8507 81.7634C43.7629 82.9377 43.6753 84.1118 43.5874 85.2858C43.507 86.362 43.6719 87.4262 42.9788 88.1574C42.3949 88.7735 41.2563 89.2461 40.4501 89.5118C38.8301 90.0465 37.0858 90.8402 35.4658 91.3747Z"
            fill="black" />
    </g>
    <path
        d="M16.4643 90.9014C16.4643 90.9014 14.3885 91.6425 14.3799 93.97C14.3631 98.4283 23.3881 103.343 23.3881 103.343L35.3979 95.3851L36.1505 95.0805C36.1505 95.0805 19.9385 88.9907 16.4643 90.9014Z"
        fill="#263238" />
    <path
        d="M29.3144 99.4044C29.3093 99.4111 29.1982 99.3352 29.0016 99.1922C28.8048 99.0494 28.524 98.8377 28.1804 98.5721C27.4928 98.0405 26.5572 97.2873 25.5507 96.4236C24.5444 95.5591 23.658 94.7481 23.0288 94.1488C22.7139 93.8493 22.4621 93.6038 22.2915 93.4308C22.1204 93.258 22.0287 93.1598 22.0344 93.1536C22.0402 93.1473 22.1432 93.2342 22.3241 93.3962C22.5204 93.5733 22.7775 93.8054 23.0876 94.0855C23.7315 94.668 24.6255 95.4676 25.6304 96.3309C26.6355 97.1935 27.5609 97.9562 28.2341 98.5046C28.5579 98.7689 28.8262 98.9877 29.0309 99.155C29.2181 99.3091 29.3196 99.3979 29.3144 99.4044Z"
        fill="#455A64" />
    <path
        d="M19.8545 92.5677C19.85 92.5377 20.3856 92.4854 21.0118 92.6728C21.6394 92.8555 22.0608 93.1903 22.0407 93.2131C22.0208 93.245 21.583 92.9659 20.977 92.7902C20.3732 92.6088 19.854 92.6054 19.8545 92.5677Z"
        fill="#455A64" />
    <path
        d="M20.8895 91.8652C20.9003 91.8362 21.2852 92.0056 21.6015 92.4007C21.9215 92.7931 22.0057 93.2052 21.9752 93.2095C21.9402 93.2217 21.8089 92.8476 21.5063 92.4775C21.2082 92.104 20.8703 91.8969 20.8895 91.8652Z"
        fill="#455A64" />
    <path
        d="M17.3225 84.5676L20.7392 93.7717C20.9343 94.2975 21.4393 94.6436 22.0001 94.6364L40.8077 94.3887V92.9595L33.8288 93.2144L30.8657 84.0269C30.7656 83.7164 30.4762 83.5064 30.15 83.5073L18.0181 83.5424C17.4898 83.544 17.1289 84.0764 17.3225 84.5676Z"
        fill="#E0E0E0" />
    <path
        d="M17.3229 84.5688C17.3229 84.5688 17.3207 84.5589 17.315 84.5397C17.3104 84.5203 17.2979 84.4929 17.2914 84.4541C17.2742 84.3782 17.2612 84.2577 17.2991 84.1085C17.3385 83.9623 17.4357 83.7823 17.6294 83.6635C17.7244 83.6045 17.8418 83.5634 17.9709 83.5557C18.1005 83.5497 18.2409 83.5541 18.3885 83.5529C19.5746 83.5514 21.2958 83.5495 23.4498 83.5469C24.5282 83.5449 25.7145 83.5425 26.9961 83.5401C27.6371 83.5387 28.3017 83.5375 28.9886 83.5361C29.332 83.5353 29.681 83.5346 30.0352 83.5339C30.213 83.5248 30.3866 83.5476 30.5358 83.6438C30.6832 83.7365 30.797 83.8824 30.8471 84.053C31.7418 86.8313 32.7371 89.9215 33.801 93.2246L33.808 93.246L33.8303 93.2453C36.0558 93.1641 38.4002 93.0789 40.8093 92.9911L40.7778 92.9609C40.7778 93.0413 40.7778 93.1286 40.7778 93.216C40.7778 93.6182 40.7778 94.0185 40.7778 94.3901L40.8076 94.3598C36.6004 94.4162 32.6058 94.4697 28.9804 94.5182C27.1679 94.5432 25.4478 94.5667 23.8394 94.5888C23.4374 94.5943 23.0423 94.5998 22.6545 94.6053C22.4606 94.608 22.2686 94.6106 22.0782 94.6133C21.8889 94.6212 21.7038 94.5989 21.5313 94.5333C21.1869 94.4069 20.9082 94.1345 20.7777 93.8078C20.6524 93.4735 20.53 93.1464 20.4105 92.8269C19.4572 90.2705 18.6875 88.2062 18.155 86.778C17.8886 86.0676 17.6819 85.5158 17.5403 85.1385C17.3997 84.7639 17.3229 84.5688 17.3229 84.5688C17.3229 84.5688 17.3922 84.7668 17.5295 85.1426C17.6685 85.5209 17.8718 86.0738 18.1336 86.7861C18.6621 88.2161 19.4255 90.2825 20.3714 92.8416C20.4904 93.1617 20.6123 93.4893 20.7371 93.8246C20.8715 94.1628 21.1593 94.445 21.5154 94.5765C21.6928 94.6445 21.8882 94.668 22.079 94.6601C22.2693 94.6577 22.4613 94.6553 22.6552 94.6529C23.043 94.6481 23.4381 94.643 23.8401 94.6382C25.4486 94.6178 27.1689 94.5962 28.9814 94.5734C32.6068 94.5266 36.6011 94.4748 40.8086 94.4203L40.8386 94.4198V94.3898C40.8386 94.0183 40.8386 93.618 40.8386 93.2157C40.8386 93.1284 40.8386 93.041 40.8386 92.9606V92.9292L40.8071 92.9304C38.3982 93.0187 36.0539 93.1046 33.8284 93.186L33.8574 93.2064C32.7911 89.9045 31.7932 86.8147 30.8961 84.0372C30.843 83.8569 30.7204 83.699 30.5627 83.6009C30.4065 83.4979 30.2094 83.4739 30.0352 83.484C29.681 83.4852 29.332 83.4864 28.9886 83.4878C28.3017 83.4905 27.6371 83.4929 26.9961 83.4953C25.7145 83.5003 24.5282 83.5049 23.4498 83.5092C21.2956 83.5193 19.5743 83.5272 18.3885 83.5327C18.2404 83.5349 18.1014 83.5313 17.9697 83.5382C17.8374 83.5469 17.7177 83.5898 17.6212 83.6508C17.4244 83.7737 17.3274 83.9575 17.289 84.1061C17.2526 84.258 17.2672 84.3794 17.2864 84.4555C17.3061 84.5318 17.3229 84.5688 17.3229 84.5688Z"
        fill="#263238" />
    <path
        d="M25.6628 88.049C25.4189 87.8837 24.968 87.9499 24.7486 88.1467C24.5293 88.3435 24.4582 88.6838 24.5696 88.9567C24.6812 89.2296 24.9622 89.4206 25.2565 89.4365C25.5689 89.4533 25.8951 89.2574 25.9825 88.957C26.0698 88.6565 25.9729 88.2077 25.6628 88.049Z"
        fill="white" />
    <path
        d="M21.3623 103.844C21.3623 103.844 38.3121 92.9872 39.0602 92.5612C39.6966 92.1988 41.3997 91.1505 43.0787 91.6137C44.7577 92.0769 46.2633 93.5824 47.0159 95.7825C47.446 97.0394 47.649 99.1843 47.7443 100.793C47.8583 102.716 47.6077 104.316 46.3497 105.775C45.7773 106.439 45.0714 107.017 44.2338 107.277C44.0572 107.332 43.8738 107.38 43.6854 107.421C40.4771 108.116 36.8353 106.993 35.0329 104.249L34.6369 103.647C34.6369 103.647 23.5367 107.725 23.3629 107.667L21.3623 103.844Z"
        fill="#263238" />
    <path
        d="M42.3557 100.78C42.3557 100.78 42.325 100.796 42.2626 100.822C42.1954 100.848 42.1034 100.885 41.9849 100.932C41.7346 101.028 41.3734 101.167 40.9092 101.346C39.9655 101.702 38.604 102.214 36.9113 102.852C35.2128 103.486 33.1788 104.239 30.8966 105.07C28.614 105.899 26.0846 106.81 23.3834 107.725L23.3345 107.741L23.3105 107.695C22.8864 106.885 22.4388 106.031 21.9847 105.163C21.7531 104.721 21.5234 104.282 21.3091 103.872L21.2832 103.822L21.3302 103.793C26.4257 100.558 30.984 97.6646 34.2739 95.5761C35.9165 94.54 37.242 93.7038 38.1619 93.1238C38.6174 92.8396 38.9722 92.6181 39.2179 92.4647C39.3358 92.3927 39.4272 92.3366 39.4937 92.2963C39.5561 92.2588 39.5897 92.2422 39.5897 92.2422C39.5897 92.2422 39.5604 92.2655 39.5002 92.3063C39.4354 92.3493 39.3458 92.4086 39.2306 92.4849C38.9878 92.6426 38.6369 92.8703 38.1866 93.1627C37.2718 93.7504 35.953 94.5974 34.319 95.6471C31.0346 97.7435 26.4838 100.648 21.3967 103.895L21.4176 103.816C21.6322 104.225 21.8618 104.664 22.0934 105.107C22.5473 105.974 22.9944 106.829 23.4182 107.639L23.3453 107.609C26.0453 106.697 28.5758 105.791 30.8604 104.968C33.1414 104.138 35.179 103.396 36.8837 102.776C38.5817 102.153 39.9475 101.652 40.8943 101.304C41.3616 101.134 41.7254 101.002 41.9777 100.91C42.0979 100.868 42.1913 100.835 42.2594 100.811C42.3221 100.789 42.3557 100.78 42.3557 100.78Z"
        fill="#455A64" />
    <path
        d="M33.2005 62.0767C33.2005 62.0767 32.1826 66.4471 32.1826 69.516V70.5384C32.1826 70.5384 34.8087 72.5784 36.9577 72.6394L38.6115 68.1607L33.2005 62.0767Z"
        fill="#263238" />
    <path
        d="M44.6447 64.3649C44.0872 62.2675 43.8194 59.814 42.0172 58.4933C40.6799 57.5133 39.1847 57.2765 37.5314 57.3996C36.7173 57.4603 35.8089 57.8664 35.1119 58.2914C34.1562 58.8741 33.7802 60.0053 33.3436 61.0361C32.4686 63.1008 32.6776 65.8514 33.3398 66.5964L41.9862 70.8089C43.655 69.8702 44.7069 69.4838 44.9046 67.2125C44.9877 66.2563 44.8912 65.2922 44.6447 64.3649Z"
        fill="#263238" />
    <path
        d="M41.8876 60.1785L36.4866 58.774C34.7553 58.5789 33.5886 60.7046 33.4672 62.4427C33.3323 64.3737 33.2438 66.7368 33.4629 68.1796C33.9033 71.0812 36.1223 71.4653 36.1223 71.4653C36.123 71.4554 36.1288 71.5087 36.1396 72.3698L36.1286 73.7661C36.124 74.3306 36.2915 74.8934 36.6508 75.329C37.473 76.3255 38.9157 76.4153 40.5909 75.7327C41.5619 75.3372 42.2214 74.5836 42.2642 73.5847L42.7929 61.2184C42.8068 60.6897 42.4137 60.2378 41.8876 60.1785Z"
        fill="#CC9781" />
    <path
        d="M34.1712 65.2519C34.1628 65.4482 34.3224 65.617 34.5271 65.6294C34.7314 65.6419 34.9042 65.4931 34.9126 65.2968C34.921 65.1005 34.7616 64.9315 34.5571 64.919C34.3524 64.9068 34.1796 65.0556 34.1712 65.2519Z"
        fill="#263238" />
    <path
        d="M33.9715 64.1738C34.0174 64.2225 34.3003 64.0161 34.7004 64.0197C35.1 64.0178 35.3921 64.2257 35.436 64.1769C35.4576 64.1553 35.411 64.0675 35.2838 63.9737C35.1588 63.8801 34.9445 63.7886 34.6954 63.7879C34.4462 63.7877 34.236 63.8779 34.1148 63.971C33.9914 64.0646 33.9492 64.152 33.9715 64.1738Z"
        fill="#263238" />
    <path
        d="M37.6907 65.2519C37.6823 65.4482 37.8419 65.6169 38.0467 65.6294C38.2511 65.6416 38.4237 65.4931 38.4321 65.297C38.4405 65.1007 38.2809 64.9317 38.0764 64.9192C37.8717 64.9068 37.6991 65.0556 37.6907 65.2519Z"
        fill="#263238" />
    <path
        d="M37.9031 64.0932C37.949 64.1419 38.2324 63.9355 38.632 63.9394C39.0316 63.9374 39.3239 64.145 39.3676 64.0966C39.389 64.075 39.3431 63.9874 39.2155 63.8933C39.0904 63.7997 38.8764 63.708 38.6272 63.7075C38.3781 63.7073 38.1679 63.7975 38.0467 63.8906C37.9233 63.984 37.8808 64.0714 37.9031 64.0932Z"
        fill="#263238" />
    <path
        d="M36.4311 66.7339C36.433 66.7111 36.1849 66.6665 35.7822 66.6122C35.6802 66.6009 35.5834 66.5801 35.5669 66.5102C35.5434 66.4361 35.5868 66.3264 35.6372 66.2078C35.7349 65.9613 35.8371 65.7029 35.9446 65.4321C36.3716 64.3277 36.6814 63.419 36.637 63.4022C36.5924 63.3854 36.2101 64.2669 35.7829 65.3717C35.6802 65.6441 35.5818 65.9037 35.4882 66.1521C35.4488 66.2681 35.3814 66.3993 35.4325 66.5527C35.4596 66.6293 35.534 66.6852 35.5995 66.7032C35.6648 66.7236 35.7224 66.725 35.7728 66.7284C36.1777 66.7531 36.4294 66.7567 36.4311 66.7339Z"
        fill="#263238" />
    <path
        d="M36.123 71.4655C36.123 71.4655 38.0721 71.6045 40.012 70.4565C40.012 70.4565 39.0386 72.4783 36.1394 72.1872L36.123 71.4655Z"
        fill="#6D5046" />
    <path
        d="M37.7473 67.4896C37.634 67.3027 37.4273 67.2033 37.2149 67.1949C36.9089 67.1829 36.6517 67.2861 36.4508 67.5669C36.3824 67.648 36.3867 67.8782 36.4143 67.9418C36.4419 68.0056 36.4203 67.9742 36.4695 68.0183C36.6473 68.1775 36.8353 68.3366 37.0647 68.393C37.2941 68.4494 37.5771 68.3771 37.7288 68.1537C37.8637 67.9552 37.8605 67.6766 37.7473 67.4896Z"
        fill="#6D5046" />
    <path
        d="M37.6787 67.0337C37.6137 67.0291 37.6075 67.4633 37.2321 67.7666C36.8572 68.0712 36.395 68.0167 36.3909 68.0772C36.3844 68.1043 36.4929 68.1629 36.6883 68.1705C36.8798 68.1797 37.1603 68.1216 37.39 67.9358C37.6192 67.7496 37.7198 67.4988 37.7368 67.3207C37.7555 67.1397 37.7085 67.0315 37.6787 67.0337Z"
        fill="#263238" />
    <path
        d="M37.7044 62.6357C37.7368 62.7468 38.1386 62.7211 38.6032 62.8078C39.0698 62.885 39.4384 63.0466 39.5071 62.9532C39.5378 62.9086 39.4785 62.802 39.3326 62.687C39.1881 62.5723 38.9529 62.4571 38.6738 62.4077C38.3947 62.3587 38.1343 62.3868 37.9593 62.4451C37.7829 62.5034 37.691 62.5831 37.7044 62.6357Z"
        fill="#263238" />
    <path
        d="M33.9701 63.0974C34.0635 63.173 34.3501 63.0264 34.7137 62.957C35.0751 62.8764 35.3974 62.8972 35.4519 62.7912C35.4749 62.7403 35.4104 62.6594 35.2604 62.5984C35.1125 62.5377 34.8781 62.5084 34.6287 62.5596C34.3796 62.6112 34.177 62.7309 34.0666 62.8452C33.9541 62.9601 33.9281 63.0597 33.9701 63.0974Z"
        fill="#263238" />
    <path
        d="M36.5511 58.4597C36.5469 58.4799 36.5439 58.5001 36.54 58.5203L36.5497 58.524C36.5504 58.5026 36.5506 58.481 36.5511 58.4597Z"
        fill="#263238" />
    <path
        d="M40.7526 72.485C40.8097 71.7232 40.4795 70.9706 40.5436 70.2093C40.6113 69.4024 41.1097 68.6964 41.2979 67.9087C41.5996 66.6472 41.0865 65.333 40.8726 64.0464C40.1454 63.9806 39.4552 63.5673 38.9543 63.0206C38.3517 62.3625 37.9732 61.5352 37.6045 60.7226C37.6511 61.5295 37.9569 62.3193 38.4654 62.9472C38.146 63.0249 37.8025 62.8982 37.5537 62.6834C37.3048 62.4686 37.137 62.1758 36.9973 61.8782C36.6589 61.1577 36.4621 60.3729 36.4091 59.5788C36.3393 60.7197 36.5032 61.8753 36.8975 62.9484C36.6928 62.8924 36.4775 62.9556 36.2685 62.9928C36.0597 63.03 35.8187 63.0319 35.6656 62.885C35.5631 62.7868 35.5223 62.6421 35.4889 62.5041C35.2576 61.5434 35.1923 60.5431 35.2969 59.5605C35.0557 60.0979 34.8174 60.641 34.6859 61.2151C34.5546 61.7892 34.5357 62.4021 34.7303 62.958C34.6504 63.0664 34.4725 63.0556 34.3705 62.9673C34.2685 62.8792 34.2265 62.7412 34.2013 62.6088C34.1092 62.1249 34.179 61.6267 34.2491 61.139C33.9765 61.6615 33.8997 62.26 33.7578 62.8322C33.6162 63.4044 33.3801 63.9943 32.8979 64.3332C32.7849 63.4876 32.7964 62.9073 32.8979 62.1088C32.9757 61.4988 33.244 60.8872 33.4919 60.3242C33.7696 59.6935 34.1634 59.0721 34.6127 58.6521C35.4414 57.8772 35.8086 58.1872 36.3625 58.4544L36.4278 58.4793C36.4293 58.4659 36.4295 58.4524 36.4309 58.439L36.4516 58.3224C37.8592 57.9568 39.3652 57.9782 40.7617 58.3836C41.7995 58.685 43.0972 59.6997 43.6509 60.628C43.6612 60.6456 43.6717 60.6631 43.6825 60.6811C44.9646 62.8264 45.9525 65.9138 45.1981 70.9545L40.7526 72.485Z"
        fill="#263238" />
    <path
        d="M32.7486 78.3358C32.289 79.7088 31.8254 81.1027 31.7514 82.5485C31.6775 83.9945 32.0414 85.5242 33.0436 86.5692"
        fill="white" />
    <path
        d="M33.0438 86.5692C33.0407 86.5721 33.0174 86.5524 32.9756 86.5121C32.9355 86.4703 32.8703 86.4134 32.8007 86.3273C32.6538 86.1621 32.4637 85.9013 32.2794 85.5499C31.9038 84.852 31.623 83.7547 31.6895 82.5439C31.7569 81.3336 32.0744 80.2785 32.3132 79.5316C32.4349 79.1575 32.5417 78.8577 32.618 78.6516C32.6943 78.4454 32.7409 78.3329 32.7491 78.3355C32.7572 78.3384 32.7265 78.456 32.6641 78.6667C32.5945 78.8997 32.505 79.199 32.3977 79.5576C32.181 80.309 31.8805 81.359 31.8145 82.5501C31.7495 83.7401 32.0106 84.8153 32.3586 85.5101C32.7006 86.2133 33.0668 86.5512 33.0438 86.5692Z"
        fill="#263238" />
    <path
        d="M49.2287 79.0516C49.233 79.0519 49.2337 79.1061 49.2311 79.2096C49.2265 79.3257 49.2205 79.4755 49.2131 79.6608C49.1939 80.0524 49.1583 80.6186 49.1046 81.3177C49.0007 82.716 48.8065 84.6429 48.6255 86.7724C48.5528 87.8416 48.3829 88.8552 48.1549 89.7566C48.0371 90.2056 47.9106 90.6348 47.7121 91.006C47.5115 91.374 47.2573 91.6764 46.9931 91.9123C46.4588 92.3856 45.9075 92.5956 45.5327 92.704C45.3433 92.758 45.1931 92.7885 45.0906 92.8024C44.9881 92.8176 44.9343 92.8236 44.9336 92.8192C44.9312 92.8065 45.1472 92.7763 45.5185 92.6575C45.885 92.5363 46.4209 92.3164 46.9338 91.8468C47.1877 91.6125 47.4301 91.3156 47.6207 90.9573C47.8079 90.598 47.9295 90.1749 48.0433 89.7283C48.2634 88.8319 48.4285 87.8275 48.501 86.7621C48.6819 84.6304 48.8903 82.7056 49.0165 81.3103C49.0779 80.6239 49.1281 80.0632 49.1643 79.6576C49.1814 79.4728 49.1951 79.3238 49.2056 79.2081C49.2167 79.1052 49.2243 79.0514 49.2287 79.0516Z"
        fill="#263238" />
    <defs>
        <linearGradient id="paint0_linear_13140_99681" x1="44.5" y1="12" x2="75.3612" y2="121.31"
            gradientUnits="userSpaceOnUse">
            <stop stop-color="#FFA726" />
            <stop offset="0.953135" stop-color="#FFE0B2" />
        </linearGradient>
    </defs>
</svg>
