<svg width="132" height="152" viewBox="0 0 132 152" fill="none" xmlns="http://www.w3.org/2000/svg">
    <g clip-path="url(#clip0_584_8628)">
        <rect width="132" height="152" rx="12" fill="url(#paint0_radial_584_8628)" />
        <circle cx="110.5" cy="131.5" r="41" stroke="#CFD6FC" stroke-opacity="0.4" />
        <circle cx="110.5" cy="131.5" r="64" stroke="#CFD6FC" stroke-opacity="0.12" />
        <circle cx="110.5" cy="131.5" r="89" stroke="#CFD6FC" stroke-opacity="0.05" />
        <path
            d="M16.8849 18.8182H19.5398L22.3438 25.6591H22.4631L25.267 18.8182H27.9219V29H25.8338V22.3729H25.7493L23.1143 28.9503H21.6925L19.0575 22.348H18.973V29H16.8849V18.8182ZM33.1358 29.1491C32.3503 29.1491 31.6742 28.9901 31.1074 28.6719C30.544 28.3504 30.1098 27.8963 29.8049 27.3097C29.4999 26.7197 29.3475 26.022 29.3475 25.2166C29.3475 24.4311 29.4999 23.7417 29.8049 23.1484C30.1098 22.5552 30.539 22.0928 31.0925 21.7614C31.6493 21.4299 32.3023 21.2642 33.0513 21.2642C33.5551 21.2642 34.0241 21.3454 34.4583 21.5078C34.8958 21.6669 35.2769 21.9072 35.6017 22.2287C35.9299 22.5502 36.1851 22.9545 36.3674 23.4418C36.5497 23.9257 36.6408 24.4924 36.6408 25.142V25.7237H30.1926V24.4112H34.6472C34.6472 24.1063 34.5809 23.8362 34.4483 23.6009C34.3158 23.3655 34.1318 23.1816 33.8965 23.049C33.6645 22.9131 33.3944 22.8452 33.0861 22.8452C32.7646 22.8452 32.4796 22.9197 32.231 23.0689C31.9857 23.2147 31.7935 23.4119 31.6543 23.6605C31.5151 23.9058 31.4438 24.1792 31.4405 24.4808V25.7287C31.4405 26.1065 31.5101 26.433 31.6493 26.7081C31.7918 26.9832 31.9924 27.1953 32.2509 27.3445C32.5094 27.4936 32.816 27.5682 33.1706 27.5682C33.406 27.5682 33.6214 27.535 33.8169 27.4688C34.0125 27.4025 34.1799 27.303 34.3191 27.1705C34.4583 27.0379 34.5643 26.8755 34.6373 26.6832L36.5961 26.8125C36.4966 27.2831 36.2928 27.6941 35.9846 28.0455C35.6796 28.3935 35.2852 28.6652 34.8013 28.8608C34.3207 29.053 33.7656 29.1491 33.1358 29.1491ZM38.0229 29V21.3636H40.0414V22.7109H40.1309C40.29 22.2635 40.5551 21.9105 40.9263 21.652C41.2975 21.3935 41.7417 21.2642 42.2587 21.2642C42.7824 21.2642 43.2282 21.3951 43.5961 21.657C43.964 21.9155 44.2092 22.2668 44.3319 22.7109H44.4114C44.5672 22.2734 44.8489 21.9238 45.2566 21.6619C45.6676 21.3968 46.1531 21.2642 46.7132 21.2642C47.4258 21.2642 48.0042 21.4912 48.4483 21.9453C48.8958 22.3961 49.1195 23.0357 49.1195 23.8643V29H47.0066V24.282C47.0066 23.8577 46.8939 23.5395 46.6685 23.3274C46.4431 23.1153 46.1614 23.0092 45.8233 23.0092C45.4389 23.0092 45.1389 23.1319 44.9235 23.3771C44.708 23.6191 44.6003 23.9389 44.6003 24.3366V29H42.5471V24.2372C42.5471 23.8627 42.4393 23.5644 42.2239 23.3423C42.0118 23.1203 41.7317 23.0092 41.3837 23.0092C41.1484 23.0092 40.9363 23.0689 40.7473 23.1882C40.5617 23.3042 40.4142 23.4683 40.3049 23.6804C40.1955 23.8892 40.1408 24.1345 40.1408 24.4162V29H38.0229ZM54.2725 29.1491C53.487 29.1491 52.8109 28.9901 52.2441 28.6719C51.6807 28.3504 51.2465 27.8963 50.9416 27.3097C50.6367 26.7197 50.4842 26.022 50.4842 25.2166C50.4842 24.4311 50.6367 23.7417 50.9416 23.1484C51.2465 22.5552 51.6757 22.0928 52.2292 21.7614C52.786 21.4299 53.439 21.2642 54.188 21.2642C54.6918 21.2642 55.1608 21.3454 55.595 21.5078C56.0325 21.6669 56.4136 21.9072 56.7385 22.2287C57.0666 22.5502 57.3218 22.9545 57.5041 23.4418C57.6864 23.9257 57.7775 24.4924 57.7775 25.142V25.7237H51.3294V24.4112H55.7839C55.7839 24.1063 55.7176 23.8362 55.585 23.6009C55.4525 23.3655 55.2685 23.1816 55.0332 23.049C54.8012 22.9131 54.5311 22.8452 54.2228 22.8452C53.9013 22.8452 53.6163 22.9197 53.3677 23.0689C53.1225 23.2147 52.9302 23.4119 52.791 23.6605C52.6518 23.9058 52.5806 24.1792 52.5772 24.4808V25.7287C52.5772 26.1065 52.6468 26.433 52.786 26.7081C52.9286 26.9832 53.1291 27.1953 53.3876 27.3445C53.6461 27.4936 53.9527 27.5682 54.3074 27.5682C54.5427 27.5682 54.7581 27.535 54.9537 27.4688C55.1492 27.4025 55.3166 27.303 55.4558 27.1705C55.595 27.0379 55.7011 26.8755 55.774 26.6832L57.7328 26.8125C57.6333 27.2831 57.4295 27.6941 57.1213 28.0455C56.8163 28.3935 56.4219 28.6652 55.938 28.8608C55.4574 29.053 54.9023 29.1491 54.2725 29.1491ZM16.8849 45V34.8182H20.902C21.6742 34.8182 22.3321 34.9657 22.8757 35.2607C23.4193 35.5523 23.8336 35.9583 24.1186 36.4787C24.407 36.9957 24.5511 37.5923 24.5511 38.2685C24.5511 38.9446 24.4053 39.5412 24.1136 40.0582C23.822 40.5753 23.3994 40.978 22.8459 41.2663C22.2957 41.5547 21.6295 41.6989 20.8473 41.6989H18.2869V39.9737H20.4993C20.9136 39.9737 21.255 39.9025 21.5234 39.7599C21.7952 39.6141 21.9974 39.4136 22.13 39.1584C22.2659 38.8999 22.3338 38.6032 22.3338 38.2685C22.3338 37.9304 22.2659 37.6354 22.13 37.3835C21.9974 37.1283 21.7952 36.9311 21.5234 36.7919C21.2517 36.6494 20.907 36.5781 20.4893 36.5781H19.0376V45H16.8849ZM27.8821 45.1442C27.3949 45.1442 26.9607 45.0597 26.5795 44.8906C26.1984 44.7183 25.8968 44.4647 25.6747 44.13C25.456 43.7919 25.3466 43.371 25.3466 42.8672C25.3466 42.4429 25.4245 42.0866 25.5803 41.7983C25.736 41.5099 25.9482 41.2779 26.2166 41.1023C26.4851 40.9266 26.79 40.794 27.1314 40.7045C27.4761 40.6151 27.8374 40.5521 28.2152 40.5156C28.6593 40.4692 29.0173 40.4261 29.2891 40.3864C29.5608 40.3433 29.758 40.2803 29.8807 40.1974C30.0033 40.1146 30.0646 39.992 30.0646 39.8295V39.7997C30.0646 39.4848 29.9652 39.2412 29.7663 39.0689C29.5708 38.8965 29.2924 38.8104 28.9311 38.8104C28.55 38.8104 28.2467 38.8949 28.0213 39.0639C27.7959 39.2296 27.6468 39.4384 27.5739 39.6903L25.6151 39.5312C25.7145 39.0672 25.91 38.6662 26.2017 38.3281C26.4934 37.9867 26.8696 37.7249 27.3303 37.5426C27.7943 37.357 28.3312 37.2642 28.9411 37.2642C29.3653 37.2642 29.7713 37.3139 30.1591 37.4134C30.5502 37.5128 30.8965 37.6669 31.1982 37.8757C31.5031 38.0845 31.7434 38.353 31.919 38.6811C32.0947 39.0059 32.1825 39.3954 32.1825 39.8494V45H30.174V43.9411H30.1143C29.9917 44.1797 29.8277 44.3902 29.6222 44.5724C29.4167 44.7514 29.1697 44.8923 28.8814 44.995C28.593 45.0945 28.2599 45.1442 27.8821 45.1442ZM28.4886 43.6825C28.8002 43.6825 29.0753 43.6212 29.3139 43.4986C29.5526 43.3726 29.7398 43.2036 29.8757 42.9915C30.0116 42.7794 30.0795 42.5391 30.0795 42.2706V41.4602C30.0133 41.5033 29.9221 41.5431 29.8061 41.5795C29.6934 41.6127 29.5658 41.6442 29.4233 41.674C29.2808 41.7005 29.1383 41.7254 28.9957 41.7486C28.8532 41.7685 28.724 41.7867 28.608 41.8033C28.3594 41.8397 28.1423 41.8977 27.9567 41.9773C27.7711 42.0568 27.6269 42.1645 27.5241 42.3004C27.4214 42.433 27.37 42.5987 27.37 42.7976C27.37 43.0859 27.4744 43.3063 27.6832 43.4588C27.8954 43.608 28.1638 43.6825 28.4886 43.6825ZM37.266 48.0227C36.5799 48.0227 35.9916 47.9283 35.5011 47.7393C35.0138 47.5537 34.6261 47.3002 34.3377 46.9787C34.0494 46.6572 33.8621 46.2959 33.7759 45.8949L35.7347 45.6314C35.7944 45.7839 35.8888 45.9264 36.0181 46.0589C36.1474 46.1915 36.3181 46.2976 36.5302 46.3771C36.7456 46.46 37.0075 46.5014 37.3157 46.5014C37.7764 46.5014 38.1559 46.3887 38.4542 46.1634C38.7558 45.9413 38.9066 45.5684 38.9066 45.0447V43.6477H38.8171C38.7243 43.8598 38.5851 44.0604 38.3995 44.2493C38.2139 44.4382 37.9753 44.5923 37.6836 44.7116C37.3919 44.831 37.0439 44.8906 36.6396 44.8906C36.0662 44.8906 35.5442 44.758 35.0735 44.4929C34.6062 44.2244 34.2333 43.8151 33.9549 43.2649C33.6798 42.7114 33.5423 42.0121 33.5423 41.1669C33.5423 40.3018 33.6831 39.5793 33.9648 38.9993C34.2466 38.4193 34.6211 37.9851 35.0884 37.6967C35.5591 37.4084 36.0745 37.2642 36.6346 37.2642C37.0621 37.2642 37.4201 37.3371 37.7085 37.483C37.9968 37.6255 38.2288 37.8045 38.4045 38.0199C38.5835 38.232 38.721 38.4408 38.8171 38.6463H38.8967V37.3636H40.9996V45.0746C40.9996 45.7242 40.8406 46.2678 40.5224 46.7053C40.2042 47.1428 39.7634 47.4709 39.1999 47.6896C38.6398 47.9117 37.9951 48.0227 37.266 48.0227ZM37.3107 43.2997C37.6521 43.2997 37.9405 43.2152 38.1758 43.0462C38.4144 42.8738 38.5967 42.6286 38.7227 42.3104C38.8519 41.9889 38.9165 41.6044 38.9165 41.157C38.9165 40.7095 38.8536 40.3217 38.7276 39.9936C38.6017 39.6622 38.4194 39.4053 38.1808 39.223C37.9421 39.0407 37.6521 38.9496 37.3107 38.9496C36.9627 38.9496 36.6694 39.044 36.4308 39.233C36.1921 39.4186 36.0115 39.6771 35.8888 40.0085C35.7662 40.34 35.7049 40.7228 35.7049 41.157C35.7049 41.5978 35.7662 41.9789 35.8888 42.3004C36.0148 42.6186 36.1954 42.8655 36.4308 43.0412C36.6694 43.2135 36.9627 43.2997 37.3107 43.2997ZM46.1651 45.1491C45.3796 45.1491 44.7035 44.9901 44.1367 44.6719C43.5733 44.3504 43.1391 43.8963 42.8342 43.3097C42.5292 42.7197 42.3768 42.022 42.3768 41.2166C42.3768 40.4311 42.5292 39.7417 42.8342 39.1484C43.1391 38.5552 43.5683 38.0928 44.1218 37.7614C44.6786 37.4299 45.3316 37.2642 46.0806 37.2642C46.5844 37.2642 47.0534 37.3454 47.4876 37.5078C47.9251 37.6669 48.3062 37.9072 48.631 38.2287C48.9592 38.5502 49.2144 38.9545 49.3967 39.4418C49.579 39.9257 49.6701 40.4924 49.6701 41.142V41.7237H43.2219V40.4112H47.6765C47.6765 40.1063 47.6102 39.8362 47.4776 39.6009C47.3451 39.3655 47.1611 39.1816 46.9258 39.049C46.6938 38.9131 46.4237 38.8452 46.1154 38.8452C45.7939 38.8452 45.5089 38.9197 45.2603 39.0689C45.015 39.2147 44.8228 39.4119 44.6836 39.6605C44.5444 39.9058 44.4731 40.1792 44.4698 40.4808V41.7287C44.4698 42.1065 44.5394 42.433 44.6786 42.7081C44.8211 42.9832 45.0217 43.1953 45.2802 43.3445C45.5387 43.4936 45.8453 43.5682 46.1999 43.5682C46.4353 43.5682 46.6507 43.535 46.8462 43.4688C47.0418 43.4025 47.2092 43.303 47.3484 43.1705C47.4876 43.0379 47.5936 42.8755 47.6665 42.6832L49.6254 42.8125C49.5259 43.2831 49.3221 43.6941 49.0138 44.0455C48.7089 44.3935 48.3145 44.6652 47.8306 44.8608C47.35 45.053 46.7949 45.1491 46.1651 45.1491ZM57.4059 39.5412L55.467 39.6605C55.4338 39.4948 55.3626 39.3456 55.2532 39.2131C55.1438 39.0772 54.9996 38.9695 54.8207 38.8899C54.645 38.8071 54.4345 38.7656 54.1893 38.7656C53.8612 38.7656 53.5844 38.8352 53.359 38.9744C53.1336 39.1103 53.021 39.2926 53.021 39.5213C53.021 39.7036 53.0939 39.8577 53.2397 39.9837C53.3855 40.1096 53.6358 40.2107 53.9904 40.2869L55.3725 40.5653C56.1149 40.7178 56.6684 40.9631 57.033 41.3011C57.3976 41.6392 57.5799 42.0833 57.5799 42.6335C57.5799 43.134 57.4324 43.5732 57.1374 43.951C56.8458 44.3288 56.4447 44.6238 55.9343 44.8359C55.4272 45.0447 54.8422 45.1491 54.1793 45.1491C53.1684 45.1491 52.363 44.9387 51.7631 44.5178C51.1665 44.0935 50.8169 43.5168 50.7141 42.7876L52.7972 42.6783C52.8602 42.9865 53.0127 43.2218 53.2546 43.3842C53.4966 43.5433 53.8065 43.6229 54.1843 43.6229C54.5555 43.6229 54.8538 43.5516 55.0792 43.4091C55.3079 43.2633 55.4239 43.076 55.4272 42.8473C55.4239 42.6551 55.3427 42.4976 55.1836 42.375C55.0245 42.2491 54.7792 42.1529 54.4478 42.0866L53.1254 41.8232C52.3796 41.674 51.8245 41.4155 51.4599 41.0476C51.0986 40.6797 50.918 40.2107 50.918 39.6406C50.918 39.1501 51.0505 38.7275 51.3157 38.3729C51.5842 38.0182 51.9603 37.7448 52.4442 37.5526C52.9315 37.3603 53.5015 37.2642 54.1545 37.2642C55.119 37.2642 55.878 37.468 56.4315 37.8757C56.9883 38.2834 57.3131 38.8385 57.4059 39.5412Z"
            fill="white" />
        <path
            d="M17.946 52.7273L19.7038 58.2528H19.7713L21.5327 52.7273H23.2372L20.7301 60H18.7486L16.2379 52.7273H17.946ZM24.0842 60V54.5455H25.5969V60H24.0842ZM24.8441 53.8423C24.6192 53.8423 24.4263 53.7678 24.2653 53.6186C24.1067 53.4671 24.0273 53.286 24.0273 53.0753C24.0273 52.867 24.1067 52.6882 24.2653 52.5391C24.4263 52.3875 24.6192 52.3118 24.8441 52.3118C25.069 52.3118 25.2608 52.3875 25.4194 52.5391C25.5804 52.6882 25.6609 52.867 25.6609 53.0753C25.6609 53.286 25.5804 53.4671 25.4194 53.6186C25.2608 53.7678 25.069 53.8423 24.8441 53.8423ZM26.8088 60V54.5455H28.2754V55.4972H28.3322C28.4316 55.1586 28.5985 54.9029 28.8329 54.7301C29.0673 54.5549 29.3372 54.4673 29.6426 54.4673C29.7183 54.4673 29.8 54.4721 29.8876 54.4815C29.9752 54.491 30.0521 54.504 30.1184 54.5206V55.8629C30.0474 55.8416 29.9492 55.8227 29.8237 55.8061C29.6982 55.7895 29.5834 55.7812 29.4792 55.7812C29.2567 55.7812 29.0578 55.8298 28.8826 55.9268C28.7098 56.0215 28.5725 56.1541 28.4707 56.3246C28.3713 56.495 28.3216 56.6915 28.3216 56.9141V60H26.8088ZM32.2997 60.103C31.9517 60.103 31.6416 60.0426 31.3693 59.9219C31.0971 59.7988 30.8816 59.6177 30.723 59.3786C30.5668 59.1371 30.4886 58.8364 30.4886 58.4766C30.4886 58.1735 30.5443 57.919 30.6555 57.7131C30.7668 57.5071 30.9183 57.3414 31.1101 57.2159C31.3018 57.0904 31.5196 56.9957 31.7635 56.9318C32.0097 56.8679 32.2678 56.8229 32.5376 56.7969C32.8549 56.7637 33.1106 56.733 33.3047 56.7045C33.4988 56.6738 33.6397 56.6288 33.7273 56.5696C33.8149 56.5104 33.8587 56.4228 33.8587 56.3068V56.2855C33.8587 56.0606 33.7876 55.8866 33.6456 55.7635C33.5059 55.6404 33.3071 55.5788 33.049 55.5788C32.7768 55.5788 32.5601 55.6392 32.3991 55.7599C32.2382 55.8783 32.1316 56.0275 32.0795 56.2074L30.6804 56.0938C30.7514 55.7623 30.8911 55.4759 31.0994 55.2344C31.3078 54.9905 31.5765 54.8035 31.9055 54.6733C32.237 54.5407 32.6205 54.4744 33.0561 54.4744C33.3591 54.4744 33.6491 54.5099 33.9261 54.581C34.2055 54.652 34.4529 54.7621 34.6683 54.9112C34.8861 55.0604 35.0578 55.2521 35.1832 55.4865C35.3087 55.7185 35.3714 55.9967 35.3714 56.321V60H33.9368V59.2436H33.8942C33.8066 59.4141 33.6894 59.5644 33.5426 59.6946C33.3958 59.8224 33.2195 59.9231 33.0135 59.9964C32.8075 60.0675 32.5696 60.103 32.2997 60.103ZM32.733 59.0589C32.9555 59.0589 33.152 59.0152 33.3224 58.9276C33.4929 58.8376 33.6267 58.7169 33.7237 58.5653C33.8208 58.4138 33.8693 58.2422 33.8693 58.0504V57.4716C33.822 57.5024 33.7569 57.5308 33.674 57.5568C33.5935 57.5805 33.5024 57.603 33.4006 57.6243C33.2988 57.6432 33.197 57.661 33.0952 57.6776C32.9934 57.6918 32.901 57.7048 32.8182 57.7166C32.6406 57.7427 32.4856 57.7841 32.353 57.8409C32.2204 57.8977 32.1174 57.9747 32.044 58.0717C31.9706 58.1664 31.9339 58.2848 31.9339 58.4268C31.9339 58.6328 32.0085 58.7902 32.1577 58.8991C32.3092 59.0057 32.5009 59.0589 32.733 59.0589ZM38.0579 52.7273V60H36.5451V52.7273H38.0579ZM41.6126 60V52.7273H43.1502V55.728H46.2717V52.7273H47.8058V60H46.2717V56.9957H43.1502V60H41.6126ZM52.543 57.6776V54.5455H54.0558V60H52.6033V59.0092H52.5465C52.4234 59.3288 52.2186 59.5857 51.9322 59.7798C51.6481 59.974 51.3013 60.071 50.8917 60.071C50.5271 60.071 50.2063 59.9882 49.9293 59.8224C49.6523 59.6567 49.4357 59.4212 49.2795 59.1158C49.1256 58.8104 49.0475 58.4446 49.0451 58.0185V54.5455H50.5579V57.7486C50.5603 58.0705 50.6467 58.325 50.8171 58.5121C50.9876 58.6991 51.216 58.7926 51.5025 58.7926C51.6848 58.7926 51.8552 58.7512 52.0138 58.6683C52.1725 58.5831 52.3003 58.4576 52.3974 58.2919C52.4968 58.1262 52.5453 57.9214 52.543 57.6776ZM55.2658 60V54.5455H56.7076V55.5078H56.7715C56.8851 55.1882 57.0745 54.9361 57.3397 54.7514C57.6048 54.5668 57.9221 54.4744 58.2914 54.4744C58.6654 54.4744 58.9838 54.5679 59.2466 54.755C59.5094 54.9396 59.6846 55.1906 59.7722 55.5078H59.829C59.9403 55.1953 60.1415 54.9455 60.4327 54.7585C60.7263 54.5691 61.0731 54.4744 61.4732 54.4744C61.9822 54.4744 62.3953 54.6366 62.7125 54.9609C63.0321 55.2829 63.1919 55.7398 63.1919 56.3317V60H61.6827V56.63C61.6827 56.3269 61.6022 56.0997 61.4412 55.9482C61.2802 55.7966 61.079 55.7209 60.8375 55.7209C60.5629 55.7209 60.3487 55.8085 60.1948 55.9837C60.0409 56.1565 59.964 56.3849 59.964 56.669V60H58.4973V56.598C58.4973 56.3305 58.4204 56.1174 58.2665 55.9588C58.115 55.8002 57.915 55.7209 57.6664 55.7209C57.4983 55.7209 57.3468 55.7635 57.2118 55.8487C57.0792 55.9316 56.9739 56.0488 56.8958 56.2003C56.8176 56.3494 56.7786 56.5246 56.7786 56.7259V60H55.2658ZM66.8514 60.1065C66.2998 60.1065 65.8227 59.9893 65.4203 59.755C65.0202 59.5182 64.7112 59.1892 64.4934 58.7678C64.2756 58.344 64.1667 57.8527 64.1667 57.294C64.1667 56.7306 64.2756 56.2382 64.4934 55.8168C64.7112 55.393 65.0202 55.0639 65.4203 54.8295C65.8227 54.5928 66.2998 54.4744 66.8514 54.4744C67.403 54.4744 67.8788 54.5928 68.2789 54.8295C68.6814 55.0639 68.9915 55.393 69.2093 55.8168C69.4271 56.2382 69.536 56.7306 69.536 57.294C69.536 57.8527 69.4271 58.344 69.2093 58.7678C68.9915 59.1892 68.6814 59.5182 68.2789 59.755C67.8788 59.9893 67.403 60.1065 66.8514 60.1065ZM66.8585 58.9347C67.1094 58.9347 67.319 58.8636 67.487 58.7216C67.6551 58.5772 67.7818 58.3807 67.867 58.1321C67.9546 57.8835 67.9984 57.6006 67.9984 57.2834C67.9984 56.9661 67.9546 56.6832 67.867 56.4347C67.7818 56.1861 67.6551 55.9896 67.487 55.8452C67.319 55.7008 67.1094 55.6286 66.8585 55.6286C66.6052 55.6286 66.3921 55.7008 66.2193 55.8452C66.0488 55.9896 65.9198 56.1861 65.8322 56.4347C65.747 56.6832 65.7044 56.9661 65.7044 57.2834C65.7044 57.6006 65.747 57.8835 65.8322 58.1321C65.9198 58.3807 66.0488 58.5772 66.2193 58.7216C66.3921 58.8636 66.6052 58.9347 66.8585 58.9347ZM74.0176 57.6776V54.5455H75.5304V60H74.0779V59.0092H74.0211C73.898 59.3288 73.6932 59.5857 73.4068 59.7798C73.1227 59.974 72.7759 60.071 72.3663 60.071C72.0017 60.071 71.6809 59.9882 71.4039 59.8224C71.127 59.6567 70.9103 59.4212 70.7541 59.1158C70.6002 58.8104 70.5221 58.4446 70.5197 58.0185V54.5455H72.0325V57.7486C72.0349 58.0705 72.1213 58.325 72.2917 58.5121C72.4622 58.6991 72.6906 58.7926 72.9771 58.7926C73.1594 58.7926 73.3298 58.7512 73.4885 58.6683C73.6471 58.5831 73.7749 58.4576 73.872 58.2919C73.9714 58.1262 74.0199 57.9214 74.0176 57.6776ZM76.7404 60V54.5455H78.207V55.4972H78.2638C78.3633 55.1586 78.5302 54.9029 78.7646 54.7301C78.9989 54.5549 79.2688 54.4673 79.5742 54.4673C79.65 54.4673 79.7317 54.4721 79.8192 54.4815C79.9068 54.491 79.9838 54.504 80.0501 54.5206V55.8629C79.979 55.8416 79.8808 55.8227 79.7553 55.8061C79.6299 55.7895 79.515 55.7812 79.4109 55.7812C79.1883 55.7812 78.9895 55.8298 78.8143 55.9268C78.6415 56.0215 78.5041 56.1541 78.4023 56.3246C78.3029 56.495 78.2532 56.6915 78.2532 56.9141V60H76.7404ZM85.3768 60.1065C84.8749 60.1065 84.4416 60.0166 84.0771 59.8366C83.7125 59.6567 83.4319 59.4129 83.2354 59.1051C83.0413 58.795 82.9442 58.4493 82.9442 58.0682C82.9442 57.7841 83.0011 57.532 83.1147 57.3118C83.2283 57.0916 83.387 56.8892 83.5906 56.7045C83.7942 56.5175 84.0309 56.3317 84.3008 56.147L85.7106 55.2202C85.8929 55.1042 86.0266 54.9822 86.1119 54.8544C86.1971 54.7242 86.2397 54.5833 86.2397 54.4318C86.2397 54.2874 86.1817 54.1536 86.0657 54.0305C85.9497 53.9074 85.7852 53.8471 85.5721 53.8494C85.43 53.8494 85.3069 53.8814 85.2028 53.9453C85.0986 54.0069 85.0169 54.0885 84.9577 54.1903C84.9009 54.2898 84.8725 54.401 84.8725 54.5241C84.8725 54.6757 84.9151 54.8295 85.0004 54.9858C85.0856 55.142 85.1992 55.3078 85.3413 55.483C85.4833 55.6558 85.6384 55.8428 85.8065 56.044L89.2546 60H87.6779L84.8015 56.7969C84.6121 56.5814 84.4227 56.3565 84.2333 56.1222C84.0463 55.8854 83.89 55.6345 83.7646 55.3693C83.6391 55.1018 83.5763 54.8118 83.5763 54.4993C83.5763 54.1465 83.658 53.8293 83.8214 53.5476C83.9871 53.2659 84.2191 53.0433 84.5174 52.88C84.8157 52.7143 85.1637 52.6314 85.5614 52.6314C85.9497 52.6314 86.2847 52.7107 86.5664 52.8693C86.8505 53.0256 87.0683 53.2339 87.2198 53.4943C87.3737 53.7524 87.4506 54.0365 87.4506 54.3466C87.4506 54.6899 87.3654 55.0012 87.195 55.2805C87.0269 55.5575 86.7901 55.8061 86.4847 56.0263L85.0004 57.0952C84.7991 57.242 84.65 57.3923 84.5529 57.5462C84.4582 57.6977 84.4109 57.8433 84.4109 57.983C84.4109 58.1558 84.4535 58.3108 84.5387 58.4482C84.6239 58.5855 84.7447 58.6944 84.9009 58.7749C85.0572 58.853 85.2406 58.892 85.4513 58.892C85.707 58.892 85.9592 58.834 86.2077 58.718C86.4587 58.5997 86.686 58.4328 86.8896 58.2173C87.0955 57.9995 87.2601 57.7415 87.3832 57.4432C87.5063 57.1449 87.5678 56.8146 87.5678 56.4524H88.8214C88.8214 56.8975 88.7728 57.2988 88.6758 57.6562C88.5787 58.0114 88.4438 58.3215 88.271 58.5866C88.0981 58.8494 87.9004 59.0649 87.6779 59.233C87.6069 59.2779 87.5382 59.3205 87.4719 59.3608C87.4057 59.401 87.337 59.4437 87.266 59.4886C86.9961 59.7064 86.6942 59.8639 86.3604 59.9609C86.029 60.058 85.7011 60.1065 85.3768 60.1065ZM16.3551 67.995V66.7273H22.3281V67.995H20.1016V74H18.5817V67.995H16.3551ZM22.717 74V68.5455H24.1836V69.4972H24.2404C24.3398 69.1586 24.5067 68.9029 24.7411 68.7301C24.9755 68.5549 25.2454 68.4673 25.5508 68.4673C25.6265 68.4673 25.7082 68.4721 25.7958 68.4815C25.8834 68.491 25.9603 68.504 26.0266 68.5206V69.8629C25.9556 69.8416 25.8574 69.8227 25.7319 69.8061C25.6064 69.7895 25.4916 69.7812 25.3874 69.7812C25.1649 69.7812 24.966 69.8298 24.7908 69.9268C24.618 70.0215 24.4807 70.1541 24.3789 70.3246C24.2795 70.495 24.2298 70.6915 24.2298 70.9141V74H22.717ZM29.0407 74.1065C28.4796 74.1065 27.9966 73.9929 27.5918 73.7656C27.1893 73.536 26.8792 73.2116 26.6614 72.7926C26.4436 72.3712 26.3347 71.8729 26.3347 71.2976C26.3347 70.7365 26.4436 70.2441 26.6614 69.8203C26.8792 69.3965 27.1858 69.0663 27.5811 68.8295C27.9789 68.5928 28.4453 68.4744 28.9803 68.4744C29.3401 68.4744 29.6751 68.5324 29.9853 68.6484C30.2978 68.7621 30.57 68.9337 30.802 69.1634C31.0364 69.393 31.2187 69.6818 31.3489 70.0298C31.4791 70.3755 31.5442 70.7803 31.5442 71.2443V71.6598H26.9384V70.7223H30.1202C30.1202 70.5045 30.0729 70.3116 29.9782 70.1435C29.8835 69.9754 29.7521 69.844 29.584 69.7493C29.4183 69.6522 29.2253 69.6037 29.0051 69.6037C28.7755 69.6037 28.5719 69.657 28.3944 69.7635C28.2192 69.8677 28.0819 70.0085 27.9824 70.1861C27.883 70.3613 27.8321 70.5566 27.8297 70.772V71.6634C27.8297 71.9332 27.8794 72.1664 27.9789 72.3629C28.0807 72.5594 28.2239 72.7109 28.4086 72.8175C28.5932 72.924 28.8122 72.9773 29.0655 72.9773C29.2336 72.9773 29.3875 72.9536 29.5272 72.9062C29.6668 72.8589 29.7864 72.7879 29.8858 72.6932C29.9853 72.5985 30.061 72.4825 30.1131 72.3452L31.5123 72.4375C31.4412 72.7737 31.2956 73.0672 31.0755 73.3182C30.8577 73.5668 30.5759 73.7609 30.2303 73.9006C29.887 74.0379 29.4905 74.1065 29.0407 74.1065ZM34.0442 70.8466V74H32.5314V68.5455H33.9732V69.5078H34.0371C34.1578 69.1906 34.3603 68.9396 34.6444 68.755C34.9284 68.5679 35.2729 68.4744 35.6777 68.4744C36.0565 68.4744 36.3868 68.5573 36.6685 68.723C36.9502 68.8887 37.1692 69.1255 37.3255 69.4332C37.4817 69.7386 37.5598 70.1032 37.5598 70.527V74H36.0471V70.7969C36.0494 70.4631 35.9642 70.2027 35.7914 70.0156C35.6185 69.8262 35.3806 69.7315 35.0776 69.7315C34.874 69.7315 34.6941 69.7753 34.5378 69.8629C34.3839 69.9505 34.2632 70.0784 34.1756 70.2464C34.0904 70.4122 34.0466 70.6122 34.0442 70.8466ZM40.7621 74.0888C40.3478 74.0888 39.9725 73.9822 39.6364 73.7692C39.3026 73.5537 39.0374 73.2377 38.8409 72.821C38.6468 72.402 38.5497 71.8883 38.5497 71.2798C38.5497 70.6548 38.6503 70.1352 38.8516 69.7209C39.0528 69.3042 39.3203 68.9929 39.6541 68.7869C39.9903 68.5786 40.3584 68.4744 40.7585 68.4744C41.0639 68.4744 41.3184 68.5265 41.522 68.6307C41.728 68.7325 41.8937 68.8603 42.0192 69.0142C42.147 69.1657 42.2441 69.3149 42.3104 69.4616H42.3565V66.7273H43.8658V74H42.3743V73.1264H42.3104C42.2393 73.2779 42.1387 73.4283 42.0085 73.5774C41.8807 73.7242 41.7138 73.8461 41.5078 73.9432C41.3042 74.0402 41.0556 74.0888 40.7621 74.0888ZM41.2415 72.8849C41.4853 72.8849 41.6913 72.8187 41.8594 72.6861C42.0298 72.5511 42.16 72.3629 42.25 72.1214C42.3423 71.88 42.3885 71.5971 42.3885 71.2727C42.3885 70.9484 42.3435 70.6667 42.2536 70.4276C42.1636 70.1884 42.0334 70.0038 41.8629 69.8736C41.6925 69.7434 41.4853 69.6783 41.2415 69.6783C40.9929 69.6783 40.7834 69.7457 40.6129 69.8807C40.4425 70.0156 40.3134 70.2027 40.2259 70.4418C40.1383 70.6809 40.0945 70.9579 40.0945 71.2727C40.0945 71.59 40.1383 71.8705 40.2259 72.1143C40.3158 72.3558 40.4448 72.5452 40.6129 72.6825C40.7834 72.8175 40.9929 72.8849 41.2415 72.8849ZM49.6479 70.1009L48.263 70.1861C48.2393 70.0677 48.1884 69.9612 48.1103 69.8665C48.0321 69.7694 47.9292 69.6925 47.8013 69.6357C47.6758 69.5765 47.5255 69.5469 47.3503 69.5469C47.1159 69.5469 46.9183 69.5966 46.7573 69.696C46.5963 69.7931 46.5158 69.9233 46.5158 70.0866C46.5158 70.2169 46.5679 70.3269 46.6721 70.4169C46.7762 70.5069 46.955 70.5791 47.2083 70.6335L48.1955 70.8324C48.7258 70.9413 49.1212 71.1165 49.3816 71.358C49.642 71.5994 49.7722 71.9167 49.7722 72.3097C49.7722 72.6671 49.6668 72.9808 49.4561 73.2507C49.2478 73.5206 48.9614 73.7313 48.5968 73.8828C48.2346 74.032 47.8167 74.1065 47.3432 74.1065C46.6212 74.1065 46.0459 73.9562 45.6174 73.6555C45.1912 73.3525 44.9415 72.9406 44.8681 72.4197L46.356 72.3416C46.401 72.5618 46.5099 72.7299 46.6827 72.8459C46.8555 72.9595 47.0769 73.0163 47.3468 73.0163C47.6119 73.0163 47.825 72.9654 47.986 72.8636C48.1493 72.7595 48.2322 72.6257 48.2346 72.4624C48.2322 72.325 48.1742 72.2126 48.0605 72.125C47.9469 72.035 47.7717 71.9664 47.535 71.919L46.5904 71.7308C46.0577 71.6243 45.6612 71.4396 45.4007 71.1768C45.1427 70.9141 45.0137 70.5791 45.0137 70.1719C45.0137 69.8215 45.1084 69.5196 45.2978 69.2663C45.4895 69.013 45.7582 68.8177 46.1039 68.6804C46.4519 68.5431 46.8591 68.4744 47.3255 68.4744C48.0144 68.4744 48.5565 68.62 48.9519 68.9112C49.3496 69.2024 49.5816 69.599 49.6479 70.1009Z"
            fill="#CFD6FC" fill-opacity="0.8" />
        <mask id="path-8-inside-1_584_8628" fill="white">
            <path
                d="M100 26C100 20.4772 104.477 16 110 16H132V36H110C104.477 36 100 31.5228 100 26V26Z" />
        </mask>
        <path d="M100 26C100 20.4772 104.477 16 110 16H132V36H110C104.477 36 100 31.5228 100 26V26Z"
            fill="white" />
        <path d="M100 26C100 20.4772 104.477 16 110 16H132V36H110C104.477 36 100 31.5228 100 26V26Z"
            fill="url(#paint1_radial_584_8628)" fill-opacity="0.6" />
        <path d="M100 16H132H100ZM132 36H100H132ZM100 36V16V36ZM133 16V36H131V16H133Z" fill="white"
            mask="url(#path-8-inside-1_584_8628)" />
        <path d="M122 26H110" stroke="white" stroke-width="1.6" stroke-linecap="round"
            stroke-linejoin="round" />
        <path d="M118 21.3334L122 26L118 30.6667" stroke="white" stroke-width="1.6"
            stroke-linecap="round" stroke-linejoin="round" />
        <path
            d="M110.998 158.121C129.083 158.121 138.121 145.977 138.121 130.998C138.121 116.018 129.083 103.875 110.998 103.875C92.9123 103.875 83.875 116.018 83.875 130.998C83.875 145.977 92.9123 158.121 110.998 158.121Z"
            fill="url(#paint2_radial_584_8628)" />
        <path
            d="M110.998 158.121C129.083 158.121 138.121 145.977 138.121 130.998C138.121 116.018 129.083 103.875 110.998 103.875C92.9123 103.875 83.875 116.018 83.875 130.998C83.875 145.977 92.9123 158.121 110.998 158.121Z"
            fill="url(#paint3_radial_584_8628)" />
        <path
            d="M110.998 158.121C129.083 158.121 138.121 145.977 138.121 130.998C138.121 116.018 129.083 103.875 110.998 103.875C92.9123 103.875 83.875 116.018 83.875 130.998C83.875 145.977 92.9123 158.121 110.998 158.121Z"
            fill="url(#paint4_radial_584_8628)" fill-opacity="0.6" />
        <path
            d="M110.998 158.121C129.083 158.121 138.121 145.977 138.121 130.998C138.121 116.018 129.083 103.875 110.998 103.875C92.9123 103.875 83.875 116.018 83.875 130.998C83.875 145.977 92.9123 158.121 110.998 158.121Z"
            fill="url(#paint5_radial_584_8628)" />
        <path
            d="M110.998 158.121C129.083 158.121 138.121 145.977 138.121 130.998C138.121 116.018 129.083 103.875 110.998 103.875C92.9123 103.875 83.875 116.018 83.875 130.998C83.875 145.977 92.9123 158.121 110.998 158.121Z"
            fill="url(#paint6_radial_584_8628)" />
        <path
            d="M110.998 158.121C129.083 158.121 138.121 145.977 138.121 130.998C138.121 116.018 129.083 103.875 110.998 103.875C92.9123 103.875 83.875 116.018 83.875 130.998C83.875 145.977 92.9123 158.121 110.998 158.121Z"
            fill="url(#paint7_radial_584_8628)" />
        <path
            d="M110.998 158.121C129.083 158.121 138.121 145.977 138.121 130.998C138.121 116.018 129.083 103.875 110.998 103.875C92.9123 103.875 83.875 116.018 83.875 130.998C83.875 145.977 92.9123 158.121 110.998 158.121Z"
            fill="url(#paint8_radial_584_8628)" />
        <path
            d="M110.998 158.121C129.083 158.121 138.121 145.977 138.121 130.998C138.121 116.018 129.083 103.875 110.998 103.875C92.9123 103.875 83.875 116.018 83.875 130.998C83.875 145.977 92.9123 158.121 110.998 158.121Z"
            fill="url(#paint9_radial_584_8628)" />
        <path
            d="M110.998 158.121C129.083 158.121 138.121 145.977 138.121 130.998C138.121 116.018 129.083 103.875 110.998 103.875C92.9123 103.875 83.875 116.018 83.875 130.998C83.875 145.977 92.9123 158.121 110.998 158.121Z"
            fill="url(#paint10_radial_584_8628)" />
        <path
            d="M110.998 158.121C129.083 158.121 138.121 145.977 138.121 130.998C138.121 116.018 129.083 103.875 110.998 103.875C92.9123 103.875 83.875 116.018 83.875 130.998C83.875 145.977 92.9123 158.121 110.998 158.121Z"
            fill="url(#paint11_radial_584_8628)" />
        <path
            d="M110.998 158.121C129.083 158.121 138.121 145.977 138.121 130.998C138.121 116.018 129.083 103.875 110.998 103.875C92.9123 103.875 83.875 116.018 83.875 130.998C83.875 145.977 92.9123 158.121 110.998 158.121Z"
            fill="url(#paint12_radial_584_8628)" />
        <path
            d="M110.998 158.121C129.083 158.121 138.121 145.977 138.121 130.998C138.121 116.018 129.083 103.875 110.998 103.875C92.9123 103.875 83.875 116.018 83.875 130.998C83.875 145.977 92.9123 158.121 110.998 158.121Z"
            fill="url(#paint13_radial_584_8628)" />
        <path
            d="M111 150.375C91.625 150.375 91.625 131 91.625 131H130.375C130.375 131 130.375 150.375 111 150.375Z"
            fill="url(#paint14_radial_584_8628)" />
        <path
            d="M93.5625 131.906V131H128.438V131.906C128.438 133.011 127.542 133.906 126.438 133.906H95.5625C94.4579 133.906 93.5625 133.011 93.5625 131.906Z"
            fill="url(#paint15_linear_584_8628)" />
        <path
            d="M98.304 126.912C97.3469 127.39 96.1831 127.002 95.7046 126.045C95.226 125.088 95.6139 123.924 96.571 123.446L100.846 121.308L104.218 120.344L107.125 121.308C107.123 122.04 106.709 122.709 106.054 123.037L98.304 126.912Z"
            fill="url(#paint16_linear_584_8628)" />
        <path
            d="M98.304 126.912C97.3469 127.39 96.1831 127.002 95.7046 126.045C95.226 125.088 95.6139 123.924 96.571 123.446L100.846 121.308L104.218 120.344L107.125 121.308C107.123 122.04 106.709 122.709 106.054 123.037L98.304 126.912Z"
            fill="url(#paint17_linear_584_8628)" />
        <path
            d="M98.304 126.912C97.3469 127.39 96.1831 127.002 95.7046 126.045C95.226 125.088 95.6139 123.924 96.571 123.446L100.846 121.308L104.218 120.344L107.125 121.308C107.123 122.04 106.709 122.709 106.054 123.037L98.304 126.912Z"
            fill="url(#paint18_radial_584_8628)" />
        <path
            d="M98.304 115.705C97.3469 115.226 96.1831 115.614 95.7046 116.571C95.226 117.529 95.6139 118.692 96.571 119.171L100.846 121.308H107.125C107.123 120.576 106.709 119.907 106.054 119.58L98.304 115.705Z"
            fill="url(#paint19_linear_584_8628)" />
        <path
            d="M98.304 115.705C97.3469 115.226 96.1831 115.614 95.7046 116.571C95.226 117.529 95.6139 118.692 96.571 119.171L100.846 121.308H107.125C107.123 120.576 106.709 119.907 106.054 119.58L98.304 115.705Z"
            fill="url(#paint20_linear_584_8628)" />
        <path
            d="M98.304 115.705C97.3469 115.226 96.1831 115.614 95.7046 116.571C95.226 117.529 95.6139 118.692 96.571 119.171L100.846 121.308H107.125C107.123 120.576 106.709 119.907 106.054 119.58L98.304 115.705Z"
            fill="url(#paint21_radial_584_8628)" />
        <path
            d="M123.666 126.912C124.623 127.39 125.787 127.002 126.265 126.045C126.744 125.088 126.356 123.924 125.399 123.446L121.124 121.308L117.781 120.344L114.845 121.308C114.846 122.04 115.261 122.709 115.916 123.037L123.666 126.912Z"
            fill="url(#paint22_linear_584_8628)" />
        <path
            d="M123.666 126.912C124.623 127.39 125.787 127.002 126.265 126.045C126.744 125.088 126.356 123.924 125.399 123.446L121.124 121.308L117.781 120.344L114.845 121.308C114.846 122.04 115.261 122.709 115.916 123.037L123.666 126.912Z"
            fill="url(#paint23_linear_584_8628)" />
        <path
            d="M123.666 115.705C124.623 115.226 125.787 115.614 126.265 116.571C126.744 117.529 126.356 118.692 125.399 119.171L121.124 121.308H114.845C114.846 120.576 115.261 119.907 115.916 119.58L123.666 115.705Z"
            fill="url(#paint24_linear_584_8628)" />
        <path
            d="M123.666 115.705C124.623 115.226 125.787 115.614 126.265 116.571C126.744 117.529 126.356 118.692 125.399 119.171L121.124 121.308H114.845C114.846 120.576 115.261 119.907 115.916 119.58L123.666 115.705Z"
            fill="url(#paint25_radial_584_8628)" />
        <path
            d="M123.666 115.705C124.623 115.226 125.787 115.614 126.265 116.571C126.744 117.529 126.356 118.692 125.399 119.171L121.124 121.308H114.845C114.846 120.576 115.261 119.907 115.916 119.58L123.666 115.705Z"
            fill="url(#paint26_radial_584_8628)" />
        <path
            d="M123.666 115.705C124.623 115.226 125.787 115.614 126.265 116.571C126.744 117.529 126.356 118.692 125.399 119.171L121.124 121.308H114.845C114.846 120.576 115.261 119.907 115.916 119.58L123.666 115.705Z"
            fill="url(#paint27_linear_584_8628)" />
        <g clip-path="url(#clip1_584_8628)">
            <path
                d="M109.172 96.1403C113.194 95.4311 114.727 92.3764 114.14 89.0453C113.553 85.7142 111.067 83.3682 107.045 84.0774C103.023 84.7865 101.49 87.8412 102.077 91.1723C102.665 94.5034 105.15 96.8494 109.172 96.1403Z"
                fill="url(#paint28_radial_584_8628)" />
            <path
                d="M109.172 96.1403C113.194 95.4311 114.727 92.3764 114.14 89.0453C113.553 85.7142 111.067 83.3682 107.045 84.0774C103.023 84.7865 101.49 87.8412 102.077 91.1723C102.665 94.5034 105.15 96.8494 109.172 96.1403Z"
                fill="url(#paint29_radial_584_8628)" />
            <path
                d="M109.172 96.1403C113.194 95.4311 114.727 92.3764 114.14 89.0453C113.553 85.7142 111.067 83.3682 107.045 84.0774C103.023 84.7865 101.49 87.8412 102.077 91.1723C102.665 94.5034 105.15 96.8494 109.172 96.1403Z"
                fill="url(#paint30_radial_584_8628)" fill-opacity="0.6" />
            <path
                d="M109.172 96.1403C113.194 95.4311 114.727 92.3764 114.14 89.0453C113.553 85.7142 111.067 83.3682 107.045 84.0774C103.023 84.7865 101.49 87.8412 102.077 91.1723C102.665 94.5034 105.15 96.8494 109.172 96.1403Z"
                fill="url(#paint31_radial_584_8628)" />
            <path
                d="M109.172 96.1403C113.194 95.4311 114.727 92.3764 114.14 89.0453C113.553 85.7142 111.067 83.3682 107.045 84.0774C103.023 84.7865 101.49 87.8412 102.077 91.1723C102.665 94.5034 105.15 96.8494 109.172 96.1403Z"
                fill="url(#paint32_radial_584_8628)" />
            <path
                d="M109.172 96.1403C113.194 95.4311 114.727 92.3764 114.14 89.0453C113.553 85.7142 111.067 83.3682 107.045 84.0774C103.023 84.7865 101.49 87.8412 102.077 91.1723C102.665 94.5034 105.15 96.8494 109.172 96.1403Z"
                fill="url(#paint33_radial_584_8628)" />
            <path
                d="M109.172 96.1403C113.194 95.4311 114.727 92.3764 114.14 89.0453C113.553 85.7142 111.067 83.3682 107.045 84.0774C103.023 84.7865 101.49 87.8412 102.077 91.1723C102.665 94.5034 105.15 96.8494 109.172 96.1403Z"
                fill="url(#paint34_radial_584_8628)" />
            <path
                d="M109.172 96.1403C113.194 95.4311 114.727 92.3764 114.14 89.0453C113.553 85.7142 111.067 83.3682 107.045 84.0774C103.023 84.7865 101.49 87.8412 102.077 91.1723C102.665 94.5034 105.15 96.8494 109.172 96.1403Z"
                fill="url(#paint35_radial_584_8628)" />
            <path
                d="M109.172 96.1403C113.194 95.4311 114.727 92.3764 114.14 89.0453C113.553 85.7142 111.067 83.3682 107.045 84.0774C103.023 84.7865 101.49 87.8412 102.077 91.1723C102.665 94.5034 105.15 96.8494 109.172 96.1403Z"
                fill="url(#paint36_radial_584_8628)" />
            <path
                d="M109.172 96.1403C113.194 95.4311 114.727 92.3764 114.14 89.0453C113.553 85.7142 111.067 83.3682 107.045 84.0774C103.023 84.7865 101.49 87.8412 102.077 91.1723C102.665 94.5034 105.15 96.8494 109.172 96.1403Z"
                fill="url(#paint37_radial_584_8628)" />
            <path
                d="M109.172 96.1403C113.194 95.4311 114.727 92.3764 114.14 89.0453C113.553 85.7142 111.067 83.3682 107.045 84.0774C103.023 84.7865 101.49 87.8412 102.077 91.1723C102.665 94.5034 105.15 96.8494 109.172 96.1403Z"
                fill="url(#paint38_radial_584_8628)" />
            <path
                d="M109.172 96.1403C113.194 95.4311 114.727 92.3764 114.14 89.0453C113.553 85.7142 111.067 83.3682 107.045 84.0774C103.023 84.7865 101.49 87.8412 102.077 91.1723C102.665 94.5034 105.15 96.8494 109.172 96.1403Z"
                fill="url(#paint39_radial_584_8628)" />
            <path
                d="M109.172 96.1403C113.194 95.4311 114.727 92.3764 114.14 89.0453C113.553 85.7142 111.067 83.3682 107.045 84.0774C103.023 84.7865 101.49 87.8412 102.077 91.1723C102.665 94.5034 105.15 96.8494 109.172 96.1403Z"
                fill="url(#paint40_radial_584_8628)" />
            <path
                d="M109.172 96.1403C113.194 95.4311 114.727 92.3764 114.14 89.0453C113.553 85.7142 111.067 83.3682 107.045 84.0774C103.023 84.7865 101.49 87.8412 102.077 91.1723C102.665 94.5034 105.15 96.8494 109.172 96.1403Z"
                fill="url(#paint41_radial_584_8628)" />
            <path
                d="M109.172 96.1403C113.194 95.4311 114.727 92.3764 114.14 89.0453C113.553 85.7142 111.067 83.3682 107.045 84.0774C103.023 84.7865 101.49 87.8412 102.077 91.1723C102.665 94.5034 105.15 96.8494 109.172 96.1403Z"
                fill="url(#paint42_radial_584_8628)" />
            <path
                d="M109.172 96.1403C113.194 95.4311 114.727 92.3764 114.14 89.0453C113.553 85.7142 111.067 83.3682 107.045 84.0774C103.023 84.7865 101.49 87.8412 102.077 91.1723C102.665 94.5034 105.15 96.8494 109.172 96.1403Z"
                fill="url(#paint43_radial_584_8628)" />
            <path
                d="M109.172 96.1403C113.194 95.4311 114.727 92.3764 114.14 89.0453C113.553 85.7142 111.067 83.3682 107.045 84.0774C103.023 84.7865 101.49 87.8412 102.077 91.1723C102.665 94.5034 105.15 96.8494 109.172 96.1403Z"
                fill="url(#paint44_radial_584_8628)" />
            <path
                d="M109.172 96.1403C113.194 95.4311 114.727 92.3764 114.14 89.0453C113.553 85.7142 111.067 83.3682 107.045 84.0774C103.023 84.7865 101.49 87.8412 102.077 91.1723C102.665 94.5034 105.15 96.8494 109.172 96.1403Z"
                fill="url(#paint45_radial_584_8628)" />
            <path fill-rule="evenodd" clip-rule="evenodd"
                d="M110.614 87.253C110.503 87.1484 110.332 87.0496 110.04 87.1033C109.744 87.1577 109.62 87.3102 109.554 87.4427C109.518 87.516 109.498 87.5882 109.488 87.6426C109.483 87.6692 109.481 87.6898 109.48 87.7018C109.479 87.7071 109.479 87.7106 109.479 87.712C109.472 87.9512 109.274 88.1409 109.034 88.1367C108.792 88.1325 108.6 87.9333 108.604 87.6917C108.608 87.6223 108.608 87.6223 108.608 87.6223C108.611 87.5866 108.617 87.5387 108.628 87.4821C108.649 87.37 108.689 87.2169 108.77 87.0544C108.938 86.7154 109.273 86.3548 109.882 86.2428C110.494 86.1301 110.937 86.3552 111.214 86.616C111.347 86.7412 111.439 86.8716 111.499 86.97C111.529 87.0197 111.551 87.0628 111.567 87.0953C111.66 87.2872 111.634 87.6145 111.351 87.7272C111.128 87.8159 110.875 87.7084 110.784 87.4869C110.784 87.4856 110.782 87.4821 110.78 87.4768C110.774 87.4654 110.764 87.4462 110.75 87.4222C110.72 87.3732 110.675 87.3105 110.614 87.253Z"
                fill="url(#paint46_radial_584_8628)" />
            <path fill-rule="evenodd" clip-rule="evenodd"
                d="M105.861 88.0911C105.75 87.9865 105.579 87.8877 105.287 87.9414C104.991 87.9958 104.867 88.1483 104.801 88.2808C104.765 88.3541 104.745 88.4263 104.735 88.4807C104.73 88.5073 104.728 88.5279 104.727 88.5399C104.726 88.5452 104.726 88.5487 104.726 88.5501C104.719 88.7893 104.521 88.979 104.281 88.9748C104.039 88.9706 103.847 88.7713 103.851 88.5298C103.855 88.4603 103.855 88.4603 103.855 88.4603C103.858 88.4246 103.864 88.3768 103.875 88.3201C103.896 88.2081 103.936 88.055 104.017 87.8924C104.185 87.5535 104.52 87.1928 105.129 87.0808C105.741 86.9682 106.184 87.1932 106.461 87.454C106.594 87.5792 106.686 87.7096 106.746 87.808C106.776 87.8578 106.798 87.9009 106.814 87.9333C106.907 88.1252 106.881 88.4526 106.598 88.5652C106.375 88.654 106.122 88.5465 106.031 88.325C106.031 88.3237 106.029 88.3202 106.027 88.3148C106.021 88.3034 106.011 88.2843 105.997 88.2603C105.967 88.2113 105.922 88.1486 105.861 88.0911Z"
                fill="url(#paint47_radial_584_8628)" />
            <path
                d="M108.793 93.9869C104.915 94.6706 104.231 90.793 104.231 90.793L111.987 89.4255C111.987 89.4255 112.671 93.3032 108.793 93.9869Z"
                fill="url(#paint48_radial_584_8628)" />
            <path
                d="M104.345 91.4392L104.231 90.793L111.987 89.4255L112.101 90.0718L104.345 91.4392Z"
                fill="url(#paint49_linear_584_8628)" />
            <path
                d="M104.345 91.4392L104.231 90.793L111.987 89.4255L112.101 90.0718L104.345 91.4392Z"
                fill="url(#paint50_linear_584_8628)" />
            <path
                d="M104.739 91.1479L103.543 92.8558C103.231 93.3005 102.606 93.3841 102.189 93.0368C101.818 92.7281 101.745 92.1865 102.022 91.7911L103.218 90.0832C103.512 89.6633 104.091 89.5613 104.511 89.8553C104.931 90.1493 105.033 90.728 104.739 91.1479Z"
                fill="url(#paint51_radial_584_8628)" />
            <path
                d="M104.739 91.1479L103.543 92.8558C103.231 93.3005 102.606 93.3841 102.189 93.0368C101.818 92.7281 101.745 92.1865 102.022 91.7911L103.218 90.0832C103.512 89.6633 104.091 89.5613 104.511 89.8553C104.931 90.1493 105.033 90.728 104.739 91.1479Z"
                fill="url(#paint52_radial_584_8628)" />
            <path
                d="M104.739 91.1479L103.543 92.8558C103.231 93.3005 102.606 93.3841 102.189 93.0368C101.818 92.7281 101.745 92.1865 102.022 91.7911L103.218 90.0832C103.512 89.6633 104.091 89.5613 104.511 89.8553C104.931 90.1493 105.033 90.728 104.739 91.1479Z"
                fill="url(#paint53_radial_584_8628)" />
            <path
                d="M111.74 89.9133L113.448 91.1092C113.893 91.4206 114.509 91.2854 114.782 90.8163C115.025 90.3993 114.908 89.8656 114.513 89.5887L112.805 88.3928C112.385 88.0988 111.806 88.2009 111.512 88.6207C111.218 89.0406 111.32 89.6193 111.74 89.9133Z"
                fill="url(#paint54_radial_584_8628)" />
        </g>
        <g clip-path="url(#clip2_584_8628)">
            <path
                d="M51.3299 135.331C54.2176 132.443 53.7217 129.061 51.3299 126.669C48.9382 124.278 45.5563 123.782 42.6686 126.669C39.7809 129.557 40.2768 132.939 42.6686 135.331C45.0603 137.722 48.4422 138.218 51.3299 135.331Z"
                fill="url(#paint55_radial_584_8628)" />
            <path
                d="M51.3299 135.331C54.2176 132.443 53.7217 129.061 51.3299 126.669C48.9382 124.278 45.5563 123.782 42.6686 126.669C39.7809 129.557 40.2768 132.939 42.6686 135.331C45.0603 137.722 48.4422 138.218 51.3299 135.331Z"
                fill="url(#paint56_radial_584_8628)" />
            <path
                d="M51.3299 135.331C54.2176 132.443 53.7217 129.061 51.3299 126.669C48.9382 124.278 45.5563 123.782 42.6686 126.669C39.7809 129.557 40.2768 132.939 42.6686 135.331C45.0603 137.722 48.4422 138.218 51.3299 135.331Z"
                fill="url(#paint57_radial_584_8628)" fill-opacity="0.6" />
            <path
                d="M51.3299 135.331C54.2176 132.443 53.7217 129.061 51.3299 126.669C48.9382 124.278 45.5563 123.782 42.6686 126.669C39.7809 129.557 40.2768 132.939 42.6686 135.331C45.0603 137.722 48.4422 138.218 51.3299 135.331Z"
                fill="url(#paint58_radial_584_8628)" />
            <path
                d="M51.3299 135.331C54.2176 132.443 53.7217 129.061 51.3299 126.669C48.9382 124.278 45.5563 123.782 42.6686 126.669C39.7809 129.557 40.2768 132.939 42.6686 135.331C45.0603 137.722 48.4422 138.218 51.3299 135.331Z"
                fill="url(#paint59_radial_584_8628)" />
            <path
                d="M51.3299 135.331C54.2176 132.443 53.7217 129.061 51.3299 126.669C48.9382 124.278 45.5563 123.782 42.6686 126.669C39.7809 129.557 40.2768 132.939 42.6686 135.331C45.0603 137.722 48.4422 138.218 51.3299 135.331Z"
                fill="url(#paint60_radial_584_8628)" />
            <path
                d="M51.3299 135.331C54.2176 132.443 53.7217 129.061 51.3299 126.669C48.9382 124.278 45.5563 123.782 42.6686 126.669C39.7809 129.557 40.2768 132.939 42.6686 135.331C45.0603 137.722 48.4422 138.218 51.3299 135.331Z"
                fill="url(#paint61_radial_584_8628)" />
            <path
                d="M51.3299 135.331C54.2176 132.443 53.7217 129.061 51.3299 126.669C48.9382 124.278 45.5563 123.782 42.6686 126.669C39.7809 129.557 40.2768 132.939 42.6686 135.331C45.0603 137.722 48.4422 138.218 51.3299 135.331Z"
                fill="url(#paint62_radial_584_8628)" />
            <path
                d="M51.3299 135.331C54.2176 132.443 53.7217 129.061 51.3299 126.669C48.9382 124.278 45.5563 123.782 42.6686 126.669C39.7809 129.557 40.2768 132.939 42.6686 135.331C45.0603 137.722 48.4422 138.218 51.3299 135.331Z"
                fill="url(#paint63_radial_584_8628)" />
            <path
                d="M51.3299 135.331C54.2176 132.443 53.7217 129.061 51.3299 126.669C48.9382 124.278 45.5563 123.782 42.6686 126.669C39.7809 129.557 40.2768 132.939 42.6686 135.331C45.0603 137.722 48.4422 138.218 51.3299 135.331Z"
                fill="url(#paint64_radial_584_8628)" />
            <path
                d="M51.3299 135.331C54.2176 132.443 53.7217 129.061 51.3299 126.669C48.9382 124.278 45.5563 123.782 42.6686 126.669C39.7809 129.557 40.2768 132.939 42.6686 135.331C45.0603 137.722 48.4422 138.218 51.3299 135.331Z"
                fill="url(#paint65_radial_584_8628)" />
            <path
                d="M51.3299 135.331C54.2176 132.443 53.7217 129.061 51.3299 126.669C48.9382 124.278 45.5563 123.782 42.6686 126.669C39.7809 129.557 40.2768 132.939 42.6686 135.331C45.0603 137.722 48.4422 138.218 51.3299 135.331Z"
                fill="url(#paint66_radial_584_8628)" />
            <path
                d="M44.3205 132.374C44.2441 132.604 43.9964 132.727 43.7671 132.651C43.5379 132.575 43.414 132.327 43.4904 132.098L43.8317 131.074L44.1567 130.344L44.8343 130.071C44.9509 130.188 44.9916 130.361 44.9393 130.518L44.3205 132.374Z"
                fill="url(#paint67_linear_584_8628)" />
            <path
                d="M42.5305 130.585C42.3013 130.661 42.1774 130.909 42.2538 131.138C42.3302 131.368 42.578 131.491 42.8072 131.415L43.8311 131.074L44.8337 130.071C44.7165 129.955 44.5436 129.914 44.3867 129.966L42.5305 130.585Z"
                fill="url(#paint68_linear_584_8628)" />
            <path
                d="M48.3699 128.325C48.5991 128.248 48.723 128.001 48.6466 127.771C48.5701 127.542 48.3224 127.418 48.0932 127.495L47.0693 127.836L46.3441 128.156L46.0667 128.839C46.1839 128.955 46.3568 128.996 46.5137 128.944L48.3699 128.325Z"
                fill="url(#paint69_linear_584_8628)" />
            <path
                d="M46.5798 126.536C46.6563 126.306 46.904 126.182 47.1332 126.259C47.3625 126.335 47.4864 126.583 47.4099 126.812L47.0686 127.836L46.0661 128.839C45.9495 128.722 45.9088 128.549 45.9611 128.392L46.5798 126.536Z"
                fill="url(#paint70_linear_584_8628)" />
            <path
                d="M50.0934 134.094C46.9998 137.187 43.9062 134.094 43.9062 134.094L50.0934 127.906C50.0934 127.906 53.187 131 50.0934 134.094Z"
                fill="url(#paint71_radial_584_8628)" />
            <path
                d="M49.7843 129.144L45.1439 133.784C44.8876 134.041 44.4721 134.041 44.2158 133.784L49.7843 128.216C50.0406 128.472 50.0406 128.888 49.7843 129.144Z"
                fill="url(#paint72_linear_584_8628)" />
            <path fill-rule="evenodd" clip-rule="evenodd"
                d="M44.6995 136.781C45.1255 136.7 45.4535 136.326 45.4535 135.869V133.784C45.4535 133.272 45.038 132.856 44.5254 132.856C44.0129 132.856 43.5974 133.272 43.5974 133.784L43.5974 135.869C43.5974 135.971 43.6138 136.069 43.6442 136.161C43.9837 136.404 44.3365 136.612 44.6995 136.781Z"
                fill="url(#paint73_radial_584_8628)" />
            <path fill-rule="evenodd" clip-rule="evenodd"
                d="M51.9503 127.365L50.0166 127.365C49.504 127.365 49.0885 127.781 49.0885 128.293C49.0885 128.806 49.504 129.221 50.0166 129.221L52.1016 129.221C52.4085 129.221 52.6783 129.073 52.8468 128.846C52.622 128.33 52.3201 127.833 51.9503 127.365Z"
                fill="url(#paint74_radial_584_8628)" />
            <path
                d="M44.8346 133.784V135.869C44.8346 136.412 44.3705 136.839 43.8294 136.794C43.3484 136.754 42.9784 136.352 42.9784 135.869L42.9784 133.784C42.9784 133.272 43.3939 132.856 43.9065 132.856C44.4191 132.856 44.8346 133.272 44.8346 133.784Z"
                fill="url(#paint75_radial_584_8628)" />
            <path
                d="M49.8618 128.757L51.9467 128.757C52.4897 128.757 52.9167 128.293 52.8716 127.752C52.8315 127.271 52.4294 126.901 51.9467 126.901L49.8618 126.901C49.3492 126.901 48.9337 127.317 48.9337 127.829C48.9337 128.342 49.3492 128.757 49.8618 128.757Z"
                fill="url(#paint76_radial_584_8628)" />
        </g>
    </g>
    <rect x="0.6" y="0.6" width="130.8" height="150.8" rx="11.4"
        stroke="url(#paint77_linear_584_8628)" stroke-width="1.2" />
    <defs>
        <radialGradient id="paint0_radial_584_8628" cx="0" cy="0" r="1"
            gradientUnits="userSpaceOnUse"
            gradientTransform="translate(97 -24.5) rotate(119.294) scale(267.737 253.192)">
            <stop offset="0.0468646" stop-color="#8A96FF" />
            <stop offset="0.505208" stop-color="#3A69E0" />
            <stop offset="1" stop-color="#0925B8" />
        </radialGradient>
        <radialGradient id="paint1_radial_584_8628" cx="0" cy="0" r="1"
            gradientUnits="userSpaceOnUse"
            gradientTransform="translate(123.515 12.7763) rotate(135.948) scale(44.187 48.9358)">
            <stop offset="0.0468646" stop-color="#8A96FF" />
            <stop offset="0.505208" stop-color="#3A69E0" />
            <stop offset="1" stop-color="#0925B8" />
        </radialGradient>
        <radialGradient id="paint2_radial_584_8628" cx="0" cy="0" r="1"
            gradientUnits="userSpaceOnUse"
            gradientTransform="translate(129.406 117.438) rotate(131.878) scale(75.4631)">
            <stop stop-color="#FFF478" />
            <stop offset="0.474827" stop-color="#FFB02E" />
            <stop offset="1" stop-color="#F70A8D" />
        </radialGradient>
        <radialGradient id="paint3_radial_584_8628" cx="0" cy="0" r="1"
            gradientUnits="userSpaceOnUse"
            gradientTransform="translate(111 124.219) rotate(101.31) scale(34.5777 44.2875)">
            <stop offset="0.787821" stop-color="#F59639" stop-opacity="0" />
            <stop offset="0.972509" stop-color="#FF7DCE" />
        </radialGradient>
        <radialGradient id="paint4_radial_584_8628" cx="0" cy="0" r="1"
            gradientUnits="userSpaceOnUse"
            gradientTransform="translate(114.875 127.125) rotate(135) scale(79.4611)">
            <stop offset="0.314853" stop-opacity="0" />
            <stop offset="1" />
        </radialGradient>
        <radialGradient id="paint5_radial_584_8628" cx="0" cy="0" r="1"
            gradientUnits="userSpaceOnUse"
            gradientTransform="translate(111 132.938) rotate(77.692) scale(54.5347)">
            <stop offset="0.507903" stop-color="#7D6133" stop-opacity="0" />
            <stop offset="1" stop-color="#715B32" />
        </radialGradient>
        <radialGradient id="paint6_radial_584_8628" cx="0" cy="0" r="1"
            gradientUnits="userSpaceOnUse"
            gradientTransform="translate(111.969 131.969) rotate(55.7131) scale(25.795 18.6975)">
            <stop stop-color="#FFB849" />
            <stop offset="1" stop-color="#FFB847" stop-opacity="0" />
        </radialGradient>
        <radialGradient id="paint7_radial_584_8628" cx="0" cy="0" r="1"
            gradientUnits="userSpaceOnUse"
            gradientTransform="translate(119.719 134.875) rotate(9.86581) scale(22.6157)">
            <stop stop-color="#FFA64B" />
            <stop offset="0.900412" stop-color="#FFAE46" stop-opacity="0" />
        </radialGradient>
        <radialGradient id="paint8_radial_584_8628" cx="0" cy="0" r="1"
            gradientUnits="userSpaceOnUse"
            gradientTransform="translate(113.906 129.062) rotate(43.9708) scale(114.415)">
            <stop offset="0.185425" stop-opacity="0" />
            <stop offset="1" stop-opacity="0.4" />
        </radialGradient>
        <radialGradient id="paint9_radial_584_8628" cx="0" cy="0" r="1"
            gradientUnits="userSpaceOnUse"
            gradientTransform="translate(122.148 124.93) rotate(119.867) scale(3.51132 5.3401)">
            <stop stop-color="#D07E2D" />
            <stop offset="1" stop-color="#D98833" stop-opacity="0" />
        </radialGradient>
        <radialGradient id="paint10_radial_584_8628" cx="0" cy="0" r="1"
            gradientUnits="userSpaceOnUse"
            gradientTransform="translate(118.063 122.899) rotate(128.66) scale(3.36761 5.12154)">
            <stop stop-color="#D07E2D" />
            <stop offset="1" stop-color="#D98833" stop-opacity="0" />
        </radialGradient>
        <radialGradient id="paint11_radial_584_8628" cx="0" cy="0" r="1"
            gradientUnits="userSpaceOnUse"
            gradientTransform="translate(121.567 119.65) rotate(65.6376) scale(3.01402 4.5838)">
            <stop stop-color="#D07E2D" />
            <stop offset="1" stop-color="#D98833" stop-opacity="0" />
        </radialGradient>
        <radialGradient id="paint12_radial_584_8628" cx="0" cy="0" r="1"
            gradientUnits="userSpaceOnUse"
            gradientTransform="translate(99.0364 119.751) rotate(110.225) scale(2.94999 7.06917)">
            <stop stop-color="#D07E2D" />
            <stop offset="1" stop-color="#D98833" stop-opacity="0" />
        </radialGradient>
        <radialGradient id="paint13_radial_584_8628" cx="0" cy="0" r="1"
            gradientUnits="userSpaceOnUse"
            gradientTransform="translate(98.5238 124.839) rotate(70.8664) scale(3.15431 5.81491)">
            <stop stop-color="#D07E2D" />
            <stop offset="1" stop-color="#D98833" stop-opacity="0" />
        </radialGradient>
        <radialGradient id="paint14_radial_584_8628" cx="0" cy="0" r="1"
            gradientUnits="userSpaceOnUse"
            gradientTransform="translate(111 154.681) rotate(-90) scale(23.6806 47.3611)">
            <stop stop-color="#F70A8D" />
            <stop offset="1" stop-color="#89029C" />
        </radialGradient>
        <linearGradient id="paint15_linear_584_8628" x1="111" y1="131" x2="111" y2="133.906"
            gradientUnits="userSpaceOnUse">
            <stop stop-color="#ECCDFF" />
            <stop offset="1" stop-color="white" />
        </linearGradient>
        <linearGradient id="paint16_linear_584_8628" x1="100.289" y1="128.608" x2="95.4995"
            y2="119.086" gradientUnits="userSpaceOnUse">
            <stop offset="0.21392" stop-color="#492741" />
            <stop offset="0.331485" stop-color="#503A4A" />
            <stop offset="0.511203" stop-color="#482641" />
        </linearGradient>
        <linearGradient id="paint17_linear_584_8628" x1="99.9566" y1="121.308" x2="100.181"
            y2="122.229" gradientUnits="userSpaceOnUse">
            <stop stop-color="#2D1721" />
            <stop offset="1" stop-color="#2D1721" stop-opacity="0" />
        </linearGradient>
        <radialGradient id="paint18_radial_584_8628" cx="0" cy="0" r="1"
            gradientUnits="userSpaceOnUse"
            gradientTransform="translate(103.866 121.875) rotate(-148.405) scale(11.0095)">
            <stop offset="0.631717" stop-color="#492741" stop-opacity="0" />
            <stop offset="0.798224" stop-color="#492741" />
        </radialGradient>
        <linearGradient id="paint19_linear_584_8628" x1="97.165" y1="121.581" x2="100.709"
            y2="115.33" gradientUnits="userSpaceOnUse">
            <stop offset="0.162863" stop-color="#22161C" />
            <stop offset="0.435713" stop-color="#482641" />
            <stop offset="0.631598" stop-color="#503A4A" />
        </linearGradient>
        <linearGradient id="paint20_linear_584_8628" x1="99.9566" y1="121.308" x2="100.181"
            y2="120.388" gradientUnits="userSpaceOnUse">
            <stop stop-color="#2D1721" />
            <stop offset="1" stop-color="#2D1721" stop-opacity="0" />
        </linearGradient>
        <radialGradient id="paint21_radial_584_8628" cx="0" cy="0" r="1"
            gradientUnits="userSpaceOnUse"
            gradientTransform="translate(103.866 120.742) rotate(148.405) scale(11.0095)">
            <stop offset="0.631717" stop-color="#492741" stop-opacity="0" />
            <stop offset="0.798224" stop-color="#492741" />
        </radialGradient>
        <linearGradient id="paint22_linear_584_8628" x1="121.475" y1="128.544" x2="126.47"
            y2="118.19" gradientUnits="userSpaceOnUse">
            <stop offset="0.207167" stop-color="#381B32" />
            <stop offset="0.277026" stop-color="#482641" />
            <stop offset="0.390091" stop-color="#503A4A" />
            <stop offset="0.516907" stop-color="#503A4A" />
            <stop offset="0.651166" stop-color="#482641" />
        </linearGradient>
        <linearGradient id="paint23_linear_584_8628" x1="122.013" y1="121.308" x2="121.789"
            y2="122.229" gradientUnits="userSpaceOnUse">
            <stop stop-color="#2D1721" />
            <stop offset="1" stop-color="#2D1721" stop-opacity="0" />
        </linearGradient>
        <linearGradient id="paint24_linear_584_8628" x1="124.805" y1="121.581" x2="120.173"
            y2="112.499" gradientUnits="userSpaceOnUse">
            <stop offset="0.162402" stop-color="#482641" />
            <stop offset="0.296966" stop-color="#503A4A" />
            <stop offset="0.39491" stop-color="#503A4A" />
            <stop offset="0.511203" stop-color="#482641" />
        </linearGradient>
        <radialGradient id="paint25_radial_584_8628" cx="0" cy="0" r="1"
            gradientUnits="userSpaceOnUse"
            gradientTransform="translate(117.4 120.883) rotate(29.1673) scale(11.545)">
            <stop offset="0.631717" stop-color="#492741" stop-opacity="0" />
            <stop offset="0.798224" stop-color="#492741" />
        </radialGradient>
        <radialGradient id="paint26_radial_584_8628" cx="0" cy="0" r="1"
            gradientUnits="userSpaceOnUse"
            gradientTransform="translate(125.571 116.772) rotate(134.019) scale(1.7408 3.14914)">
            <stop stop-color="#5E5051" />
            <stop offset="1" stop-color="#5E5051" stop-opacity="0" />
        </radialGradient>
        <linearGradient id="paint27_linear_584_8628" x1="122.013" y1="121.308" x2="121.789"
            y2="120.388" gradientUnits="userSpaceOnUse">
            <stop stop-color="#2D1721" />
            <stop offset="1" stop-color="#2D1721" stop-opacity="0" />
        </linearGradient>
        <radialGradient id="paint28_radial_584_8628" cx="0" cy="0" r="1"
            gradientUnits="userSpaceOnUse"
            gradientTransform="translate(111.671 86.3715) rotate(121.878) scale(17.04)">
            <stop stop-color="#FFF478" />
            <stop offset="0.474827" stop-color="#FFB02E" />
            <stop offset="1" stop-color="#F70A8D" />
        </radialGradient>
        <radialGradient id="paint29_radial_584_8628" cx="0" cy="0" r="1"
            gradientUnits="userSpaceOnUse"
            gradientTransform="translate(107.843 88.6012) rotate(91.3099) scale(7.80787 10.0004)">
            <stop offset="0.787821" stop-color="#F59639" stop-opacity="0" />
            <stop offset="0.972509" stop-color="#FF7DCE" />
        </radialGradient>
        <radialGradient id="paint30_radial_584_8628" cx="0" cy="0" r="1"
            gradientUnits="userSpaceOnUse"
            gradientTransform="translate(108.819 89.0956) rotate(125) scale(17.9428)">
            <stop offset="0.314853" stop-opacity="0" />
            <stop offset="1" />
        </radialGradient>
        <radialGradient id="paint31_radial_584_8628" cx="0" cy="0" r="1"
            gradientUnits="userSpaceOnUse"
            gradientTransform="translate(108.185 90.5401) rotate(67.692) scale(12.3143)">
            <stop offset="0.507903" stop-color="#7D6133" stop-opacity="0" />
            <stop offset="1" stop-color="#715B32" />
        </radialGradient>
        <radialGradient id="paint32_radial_584_8628" cx="0" cy="0" r="1"
            gradientUnits="userSpaceOnUse"
            gradientTransform="translate(108.363 90.2867) rotate(45.7131) scale(5.82467 4.22201)">
            <stop stop-color="#FFB849" />
            <stop offset="1" stop-color="#FFB847" stop-opacity="0" />
        </radialGradient>
        <radialGradient id="paint33_radial_584_8628" cx="0" cy="0" r="1"
            gradientUnits="userSpaceOnUse"
            gradientTransform="translate(110.2 90.6291) rotate(-0.134194) scale(5.10677)">
            <stop stop-color="#FFA64B" />
            <stop offset="0.900412" stop-color="#FFAE46" stop-opacity="0" />
        </radialGradient>
        <radialGradient id="paint34_radial_584_8628" cx="0" cy="0" r="1"
            gradientUnits="userSpaceOnUse"
            gradientTransform="translate(108.68 89.5644) rotate(33.9708) scale(25.8357)">
            <stop offset="0.185425" stop-opacity="0" />
            <stop offset="1" stop-opacity="0.4" />
        </radialGradient>
        <radialGradient id="paint35_radial_584_8628" cx="0" cy="0" r="1"
            gradientUnits="userSpaceOnUse"
            gradientTransform="translate(105.001 89.3579) rotate(-20.3912) scale(3.09354 2.28316)">
            <stop stop-color="#F1A227" />
            <stop offset="1" stop-color="#F5A72C" stop-opacity="0" />
        </radialGradient>
        <radialGradient id="paint36_radial_584_8628" cx="0" cy="0" r="1"
            gradientUnits="userSpaceOnUse"
            gradientTransform="translate(109.009 87.6973) rotate(93.6812) scale(0.903474 0.666801)">
            <stop stop-color="#E7982E" />
            <stop offset="1" stop-color="#E39632" stop-opacity="0" />
        </radialGradient>
        <radialGradient id="paint37_radial_584_8628" cx="0" cy="0" r="1"
            gradientUnits="userSpaceOnUse"
            gradientTransform="translate(110.93 87.549) rotate(-10) scale(0.605355)">
            <stop stop-color="#D28118" />
            <stop offset="1" stop-color="#D68623" stop-opacity="0" />
        </radialGradient>
        <radialGradient id="paint38_radial_584_8628" cx="0" cy="0" r="1"
            gradientUnits="userSpaceOnUse"
            gradientTransform="translate(110.342 87.1326) rotate(35.9878) scale(0.980469 0.335921)">
            <stop stop-color="#D28118" />
            <stop offset="1" stop-color="#D68623" stop-opacity="0" />
        </radialGradient>
        <radialGradient id="paint39_radial_584_8628" cx="0" cy="0" r="1"
            gradientUnits="userSpaceOnUse"
            gradientTransform="translate(109.754 87.0664) rotate(-0.381512) scale(0.925941 0.380105)">
            <stop stop-color="#D28118" />
            <stop offset="1" stop-color="#D68623" stop-opacity="0" />
        </radialGradient>
        <radialGradient id="paint40_radial_584_8628" cx="0" cy="0" r="1"
            gradientUnits="userSpaceOnUse"
            gradientTransform="translate(105.97 87.9381) rotate(55.4048) scale(1.05524 0.528871)">
            <stop stop-color="#BE7227" />
            <stop offset="1" stop-color="#C67A2A" stop-opacity="0" />
        </radialGradient>
        <radialGradient id="paint41_radial_584_8628" cx="0" cy="0" r="1"
            gradientUnits="userSpaceOnUse"
            gradientTransform="translate(105.415 87.7306) rotate(19.8052) scale(0.829886 0.613124)">
            <stop stop-color="#D07E2D" />
            <stop offset="1" stop-color="#D98833" stop-opacity="0" />
        </radialGradient>
        <radialGradient id="paint42_radial_584_8628" cx="0" cy="0" r="1"
            gradientUnits="userSpaceOnUse"
            gradientTransform="translate(104.937 87.8148) rotate(-18.7951) scale(0.905532 0.692929)">
            <stop stop-color="#D88431" />
            <stop offset="1" stop-color="#CF8231" stop-opacity="0" />
        </radialGradient>
        <radialGradient id="paint43_radial_584_8628" cx="0" cy="0" r="1"
            gradientUnits="userSpaceOnUse"
            gradientTransform="translate(104.129 88.4638) rotate(-76.0375) scale(1.13116 0.775937)">
            <stop stop-color="#DA8924" />
            <stop offset="1" stop-color="#DC8924" stop-opacity="0" />
        </radialGradient>
        <radialGradient id="paint44_radial_584_8628" cx="0" cy="0" r="1"
            gradientUnits="userSpaceOnUse"
            gradientTransform="translate(103.599 92.8396) rotate(-57.3974) scale(1.87887 1.43774)">
            <stop stop-color="#DB7D2D" />
            <stop offset="1" stop-color="#DB7D2D" stop-opacity="0" />
        </radialGradient>
        <radialGradient id="paint45_radial_584_8628" cx="0" cy="0" r="1"
            gradientUnits="userSpaceOnUse"
            gradientTransform="translate(112.156 90.3916) rotate(-136.703) scale(2.59316 1.56476)">
            <stop offset="0.204689" stop-color="#DB7D2D" />
            <stop offset="1" stop-color="#FAAD43" stop-opacity="0" />
        </radialGradient>
        <radialGradient id="paint46_radial_584_8628" cx="0" cy="0" r="1"
            gradientUnits="userSpaceOnUse"
            gradientTransform="translate(110.103 87.4636) rotate(80) scale(1.39453 1.88583)">
            <stop offset="0.307692" stop-color="#452A3D" />
            <stop offset="0.626374" stop-color="#594052" />
            <stop offset="1" stop-color="#482C40" />
        </radialGradient>
        <radialGradient id="paint47_radial_584_8628" cx="0" cy="0" r="1"
            gradientUnits="userSpaceOnUse"
            gradientTransform="translate(105.35 88.3017) rotate(80) scale(1.39453 1.88583)">
            <stop offset="0.307692" stop-color="#452A3D" />
            <stop offset="0.626374" stop-color="#594052" />
            <stop offset="1" stop-color="#482C40" />
        </radialGradient>
        <radialGradient id="paint48_radial_584_8628" cx="0" cy="0" r="1"
            gradientUnits="userSpaceOnUse"
            gradientTransform="translate(108.945 94.8486) rotate(-100) scale(4.8125 9.625)">
            <stop stop-color="#F70A8D" />
            <stop offset="1" stop-color="#89029C" />
        </radialGradient>
        <linearGradient id="paint49_linear_584_8628" x1="108.109" y1="90.1092" x2="108.223"
            y2="90.7555" gradientUnits="userSpaceOnUse">
            <stop stop-color="#ECCDFF" />
            <stop offset="1" stop-color="white" />
        </linearGradient>
        <linearGradient id="paint50_linear_584_8628" x1="111.889" y1="89.8989" x2="110.538"
            y2="90.3472" gradientUnits="userSpaceOnUse">
            <stop stop-color="#E0A5FF" />
            <stop offset="1" stop-color="#E0A5FF" stop-opacity="0" />
        </linearGradient>
        <radialGradient id="paint51_radial_584_8628" cx="0" cy="0" r="1"
            gradientUnits="userSpaceOnUse"
            gradientTransform="translate(104.587 90.2861) rotate(137.529) scale(2.85215 1.29856)">
            <stop stop-color="#508FFF" />
            <stop offset="1" stop-color="#3D5BF1" />
        </radialGradient>
        <radialGradient id="paint52_radial_584_8628" cx="0" cy="0" r="1"
            gradientUnits="userSpaceOnUse"
            gradientTransform="translate(103.552 91.8143) rotate(127.675) scale(1.61426 0.771893)">
            <stop stop-color="#4478FF" />
            <stop offset="1" stop-color="#4678FF" stop-opacity="0" />
        </radialGradient>
        <radialGradient id="paint53_radial_584_8628" cx="0" cy="0" r="1"
            gradientUnits="userSpaceOnUse"
            gradientTransform="translate(104.243 90.3225) rotate(32.7094) scale(0.854304 0.4484)">
            <stop stop-color="#5190FF" />
            <stop offset="1" stop-color="#5190FF" stop-opacity="0" />
        </radialGradient>
        <radialGradient id="paint54_radial_584_8628" cx="0" cy="0" r="1"
            gradientUnits="userSpaceOnUse"
            gradientTransform="translate(113.146 89.2309) rotate(37.9273) scale(2.20187 1.04733)">
            <stop stop-color="#5092FF" />
            <stop offset="1" stop-color="#3F5FFF" />
        </radialGradient>
        <radialGradient id="paint55_radial_584_8628" cx="0" cy="0" r="1"
            gradientUnits="userSpaceOnUse"
            gradientTransform="translate(47.7733 125.896) rotate(86.8779) scale(17.04)">
            <stop stop-color="#FFDC68" />
            <stop offset="0.474827" stop-color="#FFB02E" />
            <stop offset="1" stop-color="#F70A8D" />
        </radialGradient>
        <radialGradient id="paint56_radial_584_8628" cx="0" cy="0" r="1"
            gradientUnits="userSpaceOnUse"
            gradientTransform="translate(45.9172 129.917) rotate(56.3099) scale(7.80787 10.0004)">
            <stop offset="0.787821" stop-color="#F59639" stop-opacity="0" />
            <stop offset="0.972509" stop-color="#FF7DCE" />
        </radialGradient>
        <radialGradient id="paint57_radial_584_8628" cx="0" cy="0" r="1"
            gradientUnits="userSpaceOnUse"
            gradientTransform="translate(47 129.763) rotate(90) scale(17.9428)">
            <stop offset="0.314853" stop-opacity="0" />
            <stop offset="1" />
        </radialGradient>
        <radialGradient id="paint58_radial_584_8628" cx="0" cy="0" r="1"
            gradientUnits="userSpaceOnUse"
            gradientTransform="translate(47.3093 131.309) rotate(32.692) scale(12.3143)">
            <stop offset="0.507903" stop-color="#7D6133" stop-opacity="0" />
            <stop offset="1" stop-color="#715B32" />
        </radialGradient>
        <radialGradient id="paint59_radial_584_8628" cx="0" cy="0" r="1"
            gradientUnits="userSpaceOnUse"
            gradientTransform="translate(47.3093 131) rotate(10.7131) scale(5.82467 4.22201)">
            <stop stop-color="#FFB849" />
            <stop offset="1" stop-color="#FFB847" stop-opacity="0" />
        </radialGradient>
        <radialGradient id="paint60_radial_584_8628" cx="0" cy="0" r="1"
            gradientUnits="userSpaceOnUse"
            gradientTransform="translate(49.0108 130.227) rotate(-35.1342) scale(5.10677)">
            <stop stop-color="#FFA64B" />
            <stop offset="0.900412" stop-color="#FFAE46" stop-opacity="0" />
        </radialGradient>
        <radialGradient id="paint61_radial_584_8628" cx="0" cy="0" r="1"
            gradientUnits="userSpaceOnUse"
            gradientTransform="translate(47.1546 130.227) rotate(-1.02916) scale(25.8357)">
            <stop offset="0.185425" stop-opacity="0" />
            <stop offset="1" stop-opacity="0.4" />
        </radialGradient>
        <radialGradient id="paint62_radial_584_8628" cx="0" cy="0" r="1"
            gradientUnits="userSpaceOnUse"
            gradientTransform="translate(48.2504 128.22) rotate(86.4964) scale(0.506079 0.643331)">
            <stop stop-color="#E9830A" stop-opacity="0.66" />
            <stop offset="1" stop-color="#E9830A" stop-opacity="0" />
        </radialGradient>
        <radialGradient id="paint63_radial_584_8628" cx="0" cy="0" r="1"
            gradientUnits="userSpaceOnUse"
            gradientTransform="translate(47.6525 128.457) rotate(68.4287) scale(0.476665 1.53345)">
            <stop stop-color="#E9830A" stop-opacity="0.87" />
            <stop offset="1" stop-color="#E9830A" stop-opacity="0" />
        </radialGradient>
        <radialGradient id="paint64_radial_584_8628" cx="0" cy="0" r="1"
            gradientUnits="userSpaceOnUse"
            gradientTransform="translate(43.413 130.967) rotate(66.7031) scale(0.577854 1.21232)">
            <stop stop-color="#9F5E0F" stop-opacity="0.84" />
            <stop offset="0.772937" stop-color="#9F5E0F" stop-opacity="0.181049" />
            <stop offset="1" stop-color="#9F5E0F" stop-opacity="0" />
        </radialGradient>
        <radialGradient id="paint65_radial_584_8628" cx="0" cy="0" r="1"
            gradientUnits="userSpaceOnUse"
            gradientTransform="translate(44.557 131.003) rotate(23.8059) scale(0.53407 1.22032)">
            <stop offset="0.160391" stop-color="#9F5E0F" stop-opacity="0.85" />
            <stop offset="0.504345" stop-color="#9F5E0F" stop-opacity="0.181049" />
            <stop offset="1" stop-color="#9F5E0F" stop-opacity="0" />
        </radialGradient>
        <radialGradient id="paint66_radial_584_8628" cx="0" cy="0" r="1"
            gradientUnits="userSpaceOnUse"
            gradientTransform="translate(44.4719 131.614) rotate(20.9245) scale(0.372031 1.50429)">
            <stop stop-color="#9F5E0F" stop-opacity="0.29" />
            <stop offset="0.569433" stop-color="#9F5E0F" stop-opacity="0.181049" />
            <stop offset="1" stop-color="#9F5E0F" stop-opacity="0" />
        </radialGradient>
        <linearGradient id="paint67_linear_584_8628" x1="44.931" y1="132.285" x2="42.4802"
            y2="131.43" gradientUnits="userSpaceOnUse">
            <stop offset="0.24955" stop-color="#482641" />
            <stop offset="0.406361" stop-color="#503A4A" />
            <stop offset="0.511203" stop-color="#482641" />
        </linearGradient>
        <linearGradient id="paint68_linear_584_8628" x1="43.2869" y1="131.705" x2="42.5763"
            y2="129.515" gradientUnits="userSpaceOnUse">
            <stop offset="0.24955" stop-color="#482641" />
            <stop offset="0.406361" stop-color="#503A4A" />
            <stop offset="0.511203" stop-color="#482641" />
        </linearGradient>
        <linearGradient id="paint69_linear_584_8628" x1="48.2806" y1="128.935" x2="47.4251"
            y2="126.485" gradientUnits="userSpaceOnUse">
            <stop offset="0.24955" stop-color="#482641" />
            <stop offset="0.406361" stop-color="#503A4A" />
            <stop offset="0.511203" stop-color="#482641" />
        </linearGradient>
        <linearGradient id="paint70_linear_584_8628" x1="47.6999" y1="127.292" x2="45.5102"
            y2="126.581" gradientUnits="userSpaceOnUse">
            <stop offset="0.24955" stop-color="#482641" />
            <stop offset="0.406361" stop-color="#503A4A" />
            <stop offset="0.511203" stop-color="#482641" />
        </linearGradient>
        <radialGradient id="paint71_radial_584_8628" cx="0" cy="0" r="1"
            gradientUnits="userSpaceOnUse"
            gradientTransform="translate(51.5936 135.812) rotate(-135) scale(7.42462 14.8492)">
            <stop offset="0.050964" stop-color="#F70A8D" />
            <stop offset="1" stop-color="#89029C" />
        </radialGradient>
        <linearGradient id="paint72_linear_584_8628" x1="47.0001" y1="131" x2="47.4641" y2="131.464"
            gradientUnits="userSpaceOnUse">
            <stop stop-color="#ECCDFF" />
            <stop offset="1" stop-color="white" />
        </linearGradient>
        <radialGradient id="paint73_radial_584_8628" cx="0" cy="0" r="1"
            gradientUnits="userSpaceOnUse"
            gradientTransform="translate(44.3708 135.795) rotate(-77.0054) scale(2.06368 1.3396)">
            <stop stop-color="#6D4534" />
            <stop offset="1" stop-color="#FF822D" stop-opacity="0" />
        </radialGradient>
        <radialGradient id="paint74_radial_584_8628" cx="0" cy="0" r="1"
            gradientUnits="userSpaceOnUse"
            gradientTransform="translate(50.0939 128.216) rotate(-11.31) scale(2.36614 1.53593)">
            <stop stop-color="#6D4534" />
            <stop offset="1" stop-color="#FF822D" stop-opacity="0" />
        </radialGradient>
        <radialGradient id="paint75_radial_584_8628" cx="0" cy="0" r="1"
            gradientUnits="userSpaceOnUse"
            gradientTransform="translate(44.2159 133.166) rotate(102.529) scale(2.85215 1.29856)">
            <stop stop-color="#508FFF" />
            <stop offset="1" stop-color="#3D5BF1" />
        </radialGradient>
        <radialGradient id="paint76_radial_584_8628" cx="0" cy="0" r="1"
            gradientUnits="userSpaceOnUse"
            gradientTransform="translate(50.4031 127.288) rotate(4.3987) scale(2.01677 0.918222)">
            <stop stop-color="#5092FF" />
            <stop offset="1" stop-color="#3F5FFF" />
        </radialGradient>
        <linearGradient id="paint77_linear_584_8628" x1="121.5" y1="-11.5" x2="81" y2="60"
            gradientUnits="userSpaceOnUse">
            <stop stop-color="#E2E5FE" />
            <stop offset="1" stop-color="#E2E6FE" stop-opacity="0" />
        </linearGradient>
        <clipPath id="clip0_584_8628">
            <rect width="132" height="152" rx="12" fill="white" />
        </clipPath>
        <clipPath id="clip1_584_8628">
            <rect width="14" height="14" fill="white"
                transform="translate(100 84.4311) rotate(-10)" />
        </clipPath>
        <clipPath id="clip2_584_8628">
            <rect width="14" height="14" fill="white" transform="translate(40 124)" />
        </clipPath>
    </defs>
</svg>
