<svg width="188" height="72" viewBox="0 0 188 72" fill="none" xmlns="http://www.w3.org/2000/svg">
    <g clip-path="url(#clip0_429_11534)">
        <rect width="188" height="72" rx="12" fill="url(#paint0_radial_429_11534)" />
        <path
            d="M124.15 75.3925L125.29 79.4383C125.777 81.4168 127.758 82.6414 129.746 82.1934L130.039 82.1273C132.251 81.6287 133.622 79.4107 133.08 77.209L132.584 75.1962C131.942 72.5914 133.47 69.9441 136.046 69.1973L136.343 69.1113C137.154 68.8763 138.011 68.8504 138.835 69.0361L151.051 71.7897C152.524 72.1218 153.667 73.1892 154.685 74.305C155.794 75.5211 157.537 76.4579 160.403 75.8766C163.914 75.1642 164.207 71.4244 163.914 69.6435L154.258 34.9168C153.673 33.1359 151.449 29.9303 147.235 31.355C144.918 32.1387 143.91 33.6766 143.57 35.1983C143.132 37.1622 142.736 39.3372 141.218 40.6576L132.266 48.4411C131.718 48.9171 131.074 49.2683 130.377 49.4702L117.909 53.0837C115.215 53.8642 113.69 56.7069 114.53 59.3825L118.484 71.9906C118.86 73.1869 120.078 73.9064 121.307 73.6571C122.563 73.4023 123.803 74.1591 124.15 75.3925Z"
            stroke="#F4DEF8" stroke-opacity="0.2" stroke-linecap="round" />
        <path
            d="M112.341 87.2792L114.411 94.5616C115.301 98.142 118.885 100.358 122.486 99.5532L123.043 99.4287C127.087 98.525 129.595 94.4687 128.595 90.447L127.84 87.4127C126.599 82.4198 129.532 77.34 134.477 75.9194C136.015 75.4775 137.639 75.4289 139.201 75.7778L158.658 80.1255C163.071 81.1117 166.311 84.7337 170.182 87.0709C172.139 88.2519 174.79 88.8571 178.441 88.123C184.844 86.8353 185.377 80.0749 184.844 76.8556L167.235 14.0803C166.168 10.861 162.113 5.06639 154.429 7.64179C152.115 8.4176 150.517 9.60239 149.443 10.9674C145.687 15.7416 145.024 23.1064 140.423 27.0724L128.106 37.6876C126.465 39.1019 124.538 40.1441 122.455 40.7423L106.807 45.2381C98.694 47.5689 94.1012 56.1323 96.6477 64.1801L101.992 81.0699C102.682 83.251 104.905 84.562 107.148 84.111C109.44 83.6499 111.702 85.0296 112.341 87.2792Z"
            stroke="#F4DEF8" stroke-opacity="0.1" stroke-linecap="round" />
        <path
            d="M99.8456 99.2924L102.977 110.274C104.327 115.685 109.745 119.034 115.189 117.821L116.047 117.63C122.186 116.264 125.991 110.106 124.469 104.005L123.353 99.5324C121.464 91.9614 125.914 84.2553 133.416 82.1079C135.738 81.4432 138.189 81.37 140.547 81.8949L169.019 88.2341C176.371 89.8708 181.751 96.1192 188.489 99.4827C191.348 100.91 195.093 101.542 200.055 100.548C209.763 98.6023 210.572 88.3897 209.763 83.5266L183.066 -11.3042C181.448 -16.1674 175.3 -24.921 163.651 -21.0305C160.844 -20.0929 158.732 -18.76 157.165 -17.2086C149.954 -10.0649 148.912 2.74262 141.211 9.35593L124.115 24.0374C121.381 26.3852 118.172 28.1142 114.708 29.1059L93.7346 35.1097C80.1904 38.9868 72.5232 53.284 76.7874 66.7113L84.1436 89.8748C85.1937 93.1815 88.5636 95.1685 91.9655 94.4868C95.4432 93.79 98.873 95.8815 99.8456 99.2924Z"
            stroke="#F4DEF8" stroke-opacity="0.06" stroke-linecap="round" />
        <g clip-path="url(#clip1_429_11534)">
            <circle cx="146.513" cy="56.8827" r="3.78125" transform="rotate(-15 146.513 56.8827)"
                fill="url(#paint1_radial_429_11534)" />
            <circle cx="146.513" cy="56.8827" r="3.78125" transform="rotate(-15 146.513 56.8827)"
                fill="url(#paint2_linear_429_11534)" />
            <path
                d="M127.517 67.2462L132.195 65.9926L134.08 73.0257C134.151 73.2924 133.993 73.5666 133.726 73.6381L130.014 74.6329C129.747 74.7044 129.473 74.5461 129.401 74.2794L127.517 67.2462Z"
                fill="url(#paint3_radial_429_11534)" />
            <path
                d="M127.517 67.2462L132.195 65.9926L134.08 73.0257C134.151 73.2924 133.993 73.5666 133.726 73.6381L130.014 74.6329C129.747 74.7044 129.473 74.5461 129.401 74.2794L127.517 67.2462Z"
                fill="url(#paint4_linear_429_11534)" fill-opacity="0.8" />
            <path
                d="M127.517 67.2462L132.195 65.9926L134.08 73.0257C134.151 73.2924 133.993 73.5666 133.726 73.6381L130.014 74.6329C129.747 74.7044 129.473 74.5461 129.401 74.2794L127.517 67.2462Z"
                fill="url(#paint5_linear_429_11534)" />
            <path
                d="M121.868 58.1696C121.761 57.7695 121.998 57.3582 122.398 57.251L131.34 54.8552L134.414 66.3295L125.473 68.7253C125.073 68.8325 124.661 68.5951 124.554 68.195L121.868 58.1696Z"
                fill="url(#paint6_linear_429_11534)" />
            <path
                d="M121.868 58.1696C121.761 57.7695 121.998 57.3582 122.398 57.251L131.34 54.8552L134.414 66.3295L125.473 68.7253C125.073 68.8325 124.661 68.5951 124.554 68.195L121.868 58.1696Z"
                fill="url(#paint7_linear_429_11534)" />
            <path
                d="M121.868 58.1696C121.761 57.7695 121.998 57.3582 122.398 57.251L131.34 54.8552L134.414 66.3295L125.473 68.7253C125.073 68.8325 124.661 68.5951 124.554 68.195L121.868 58.1696Z"
                fill="url(#paint8_linear_429_11534)" fill-opacity="0.8" />
            <path
                d="M121.868 58.1696C121.761 57.7695 121.998 57.3582 122.398 57.251L131.34 54.8552L134.414 66.3295L125.473 68.7253C125.073 68.8325 124.661 68.5951 124.554 68.195L121.868 58.1696Z"
                fill="url(#paint9_linear_429_11534)" />
            <path
                d="M121.868 58.1696C121.761 57.7695 121.998 57.3582 122.398 57.251L131.34 54.8552L134.414 66.3295L125.473 68.7253C125.073 68.8325 124.661 68.5951 124.554 68.195L121.868 58.1696Z"
                fill="url(#paint10_linear_429_11534)" />
            <path
                d="M139.952 48.0938C137.376 50.8547 134.69 53.6288 131.339 54.8502L134.415 66.3295L134.565 66.2893C138.032 65.7285 141.689 66.7731 145.248 67.8598L146.302 67.4179L145.234 63.4304C145.63 63.3202 145.864 62.9115 145.757 62.5139L143.071 52.4884C142.964 52.0908 142.557 51.8538 142.16 51.9562L141.086 47.9495L139.952 48.0938Z"
                fill="url(#paint11_radial_429_11534)" />
            <path
                d="M139.952 48.0938C137.376 50.8547 134.69 53.6288 131.339 54.8502L134.415 66.3295L134.565 66.2893C138.032 65.7285 141.689 66.7731 145.248 67.8598L146.302 67.4179L145.234 63.4304C145.63 63.3202 145.864 62.9115 145.757 62.5139L143.071 52.4884C142.964 52.0908 142.557 51.8538 142.16 51.9562L141.086 47.9495L139.952 48.0938Z"
                fill="url(#paint12_linear_429_11534)" />
            <rect x="138.804" y="45.6192" width="6.125" height="25.75" rx="3.0625"
                transform="rotate(-15 138.804 45.6192)" fill="url(#paint13_linear_429_11534)" />
            <rect x="138.804" y="45.6192" width="6.125" height="25.75" rx="3.0625"
                transform="rotate(-15 138.804 45.6192)" fill="url(#paint14_linear_429_11534)" />
            <rect x="138.804" y="45.6192" width="6.125" height="25.75" rx="3.0625"
                transform="rotate(-15 138.804 45.6192)" fill="url(#paint15_linear_429_11534)" />
            <rect x="138.804" y="45.6192" width="6.125" height="25.75" rx="3.0625"
                transform="rotate(-15 138.804 45.6192)" fill="url(#paint16_radial_429_11534)" />
            <rect x="138.804" y="45.6192" width="6.125" height="25.75" rx="3.0625"
                transform="rotate(-15 138.804 45.6192)" fill="url(#paint17_radial_429_11534)" />
            <rect x="138.804" y="45.6192" width="6.125" height="25.75" rx="3.0625"
                transform="rotate(-15 138.804 45.6192)" fill="url(#paint18_radial_429_11534)" />
            <rect x="138.804" y="45.6192" width="6.125" height="25.75" rx="3.0625"
                transform="rotate(-15 138.804 45.6192)" fill="url(#paint19_linear_429_11534)" />
            <rect x="138.804" y="45.6192" width="6.125" height="25.75" rx="3.0625"
                transform="rotate(-15 138.804 45.6192)" fill="url(#paint20_linear_429_11534)" />
        </g>
        <path
            d="M16.9562 26V15.8182H20.9733C21.7455 15.8182 22.4034 15.9657 22.947 16.2607C23.4906 16.5523 23.9049 16.9583 24.1899 17.4787C24.4782 17.9957 24.6224 18.5923 24.6224 19.2685C24.6224 19.9446 24.4766 20.5412 24.1849 21.0582C23.8933 21.5753 23.4707 21.978 22.9172 22.2663C22.367 22.5547 21.7008 22.6989 20.9186 22.6989H18.3582V20.9737H20.5706C20.9849 20.9737 21.3263 20.9025 21.5947 20.7599C21.8665 20.6141 22.0687 20.4136 22.2013 20.1584C22.3372 19.8999 22.4051 19.6032 22.4051 19.2685C22.4051 18.9304 22.3372 18.6354 22.2013 18.3835C22.0687 18.1283 21.8665 17.9311 21.5947 17.7919C21.3229 17.6494 20.9782 17.5781 20.5606 17.5781H19.1089V26H16.9562ZM30.8779 22.7486V18.3636H32.9958V26H30.9624V24.6129H30.8829C30.7106 25.0604 30.4239 25.42 30.0228 25.6918C29.6251 25.9635 29.1395 26.0994 28.5661 26.0994C28.0557 26.0994 27.6066 25.9834 27.2188 25.7514C26.8311 25.5194 26.5278 25.1896 26.309 24.7621C26.0936 24.3345 25.9842 23.8224 25.9809 23.2259V18.3636H28.0988V22.848C28.1021 23.2988 28.2231 23.6551 28.4617 23.9169C28.7004 24.1787 29.0202 24.3097 29.4213 24.3097C29.6765 24.3097 29.9151 24.2517 30.1372 24.1357C30.3592 24.0163 30.5382 23.8407 30.6741 23.6087C30.8133 23.3767 30.8812 23.09 30.8779 22.7486ZM34.7297 26V15.8182H36.8476V19.6463H36.9122C37.005 19.4408 37.1392 19.232 37.3149 19.0199C37.4939 18.8045 37.7259 18.6255 38.0109 18.483C38.2993 18.3371 38.6572 18.2642 39.0848 18.2642C39.6416 18.2642 40.1553 18.41 40.626 18.7017C41.0966 18.9901 41.4728 19.4259 41.7545 20.0092C42.0363 20.5893 42.1771 21.3168 42.1771 22.1918C42.1771 23.0436 42.0396 23.7628 41.7645 24.3494C41.4927 24.9328 41.1215 25.3752 40.6508 25.6768C40.1835 25.9751 39.6598 26.1243 39.0798 26.1243C38.6688 26.1243 38.3192 26.0563 38.0308 25.9205C37.7458 25.7846 37.5121 25.6139 37.3298 25.4084C37.1475 25.1996 37.0083 24.9891 36.9122 24.777H36.8177V26H34.7297ZM36.8028 22.1818C36.8028 22.6359 36.8658 23.032 36.9917 23.37C37.1177 23.7081 37.3 23.9716 37.5386 24.1605C37.7773 24.3461 38.0673 24.4389 38.4086 24.4389C38.7533 24.4389 39.045 24.3445 39.2836 24.1555C39.5223 23.9633 39.7029 23.6982 39.8256 23.3601C39.9515 23.0187 40.0145 22.6259 40.0145 22.1818C40.0145 21.741 39.9532 21.3532 39.8305 21.0185C39.7079 20.6837 39.5273 20.4219 39.2886 20.233C39.05 20.044 38.7567 19.9496 38.4086 19.9496C38.064 19.9496 37.7723 20.0407 37.5336 20.223C37.2983 20.4053 37.1177 20.6638 36.9917 20.9986C36.8658 21.3333 36.8028 21.7277 36.8028 22.1818ZM45.7082 15.8182V26H43.5903V15.8182H45.7082ZM47.4047 26V18.3636H49.5226V26H47.4047ZM48.4687 17.3793C48.1538 17.3793 47.8837 17.2749 47.6583 17.0661C47.4362 16.8539 47.3252 16.6004 47.3252 16.3054C47.3252 16.0137 47.4362 15.7635 47.6583 15.5547C47.8837 15.3426 48.1538 15.2365 48.4687 15.2365C48.7835 15.2365 49.052 15.3426 49.2741 15.5547C49.4994 15.7635 49.6121 16.0137 49.6121 16.3054C49.6121 16.6004 49.4994 16.8539 49.2741 17.0661C49.052 17.2749 48.7835 17.3793 48.4687 17.3793ZM57.5729 20.5412L55.634 20.6605C55.6008 20.4948 55.5296 20.3456 55.4202 20.2131C55.3108 20.0772 55.1666 19.9695 54.9877 19.8899C54.812 19.8071 54.6015 19.7656 54.3563 19.7656C54.0281 19.7656 53.7514 19.8352 53.526 19.9744C53.3006 20.1103 53.1879 20.2926 53.1879 20.5213C53.1879 20.7036 53.2609 20.8577 53.4067 20.9837C53.5525 21.1096 53.8028 21.2107 54.1574 21.2869L55.5395 21.5653C56.2819 21.7178 56.8354 21.9631 57.2 22.3011C57.5646 22.6392 57.7469 23.0833 57.7469 23.6335C57.7469 24.134 57.5994 24.5732 57.3044 24.951C57.0128 25.3288 56.6117 25.6238 56.1013 25.8359C55.5942 26.0447 55.0092 26.1491 54.3463 26.1491C53.3354 26.1491 52.53 25.9387 51.9301 25.5178C51.3335 25.0935 50.9839 24.5168 50.8811 23.7876L52.9642 23.6783C53.0272 23.9865 53.1797 24.2218 53.4216 24.3842C53.6636 24.5433 53.9735 24.6229 54.3513 24.6229C54.7225 24.6229 55.0208 24.5516 55.2462 24.4091C55.4749 24.2633 55.5909 24.076 55.5942 23.8473C55.5909 23.6551 55.5097 23.4976 55.3506 23.375C55.1915 23.2491 54.9462 23.1529 54.6148 23.0866L53.2923 22.8232C52.5466 22.674 51.9914 22.4155 51.6269 22.0476C51.2656 21.6797 51.085 21.2107 51.085 20.6406C51.085 20.1501 51.2175 19.7275 51.4827 19.3729C51.7512 19.0182 52.1273 18.7448 52.6112 18.5526C53.0985 18.3603 53.6685 18.2642 54.3215 18.2642C55.286 18.2642 56.045 18.468 56.5985 18.8757C57.1553 19.2834 57.4801 19.8385 57.5729 20.5412ZM61.1984 21.5852V26H59.0805V15.8182H61.1388V19.7109H61.2282C61.4006 19.2602 61.679 18.9072 62.0635 18.652C62.4479 18.3935 62.9302 18.2642 63.5102 18.2642C64.0405 18.2642 64.5029 18.3802 64.8973 18.6122C65.295 18.8409 65.6032 19.1707 65.822 19.6016C66.0441 20.0291 66.1534 20.5412 66.1501 21.1378V26H64.0322V21.5156C64.0355 21.045 63.9162 20.6787 63.6743 20.4169C63.4356 20.1551 63.1009 20.0241 62.67 20.0241C62.3817 20.0241 62.1265 20.0855 61.9044 20.2081C61.6856 20.3307 61.5133 20.5097 61.3873 20.745C61.2647 20.977 61.2017 21.2571 61.1984 21.5852ZM71.297 26.1491C70.5115 26.1491 69.8353 25.9901 69.2686 25.6719C68.7051 25.3504 68.2709 24.8963 67.966 24.3097C67.6611 23.7197 67.5086 23.022 67.5086 22.2166C67.5086 21.4311 67.6611 20.7417 67.966 20.1484C68.2709 19.5552 68.7001 19.0928 69.2536 18.7614C69.8105 18.4299 70.4634 18.2642 71.2124 18.2642C71.7162 18.2642 72.1852 18.3454 72.6194 18.5078C73.0569 18.6669 73.4381 18.9072 73.7629 19.2287C74.091 19.5502 74.3462 19.9545 74.5285 20.4418C74.7108 20.9257 74.8019 21.4924 74.8019 22.142V22.7237H68.3538V21.4112H72.8083C72.8083 21.1063 72.742 20.8362 72.6095 20.6009C72.4769 20.3655 72.2929 20.1816 72.0576 20.049C71.8256 19.9131 71.5555 19.8452 71.2472 19.8452C70.9258 19.8452 70.6407 19.9197 70.3921 20.0689C70.1469 20.2147 69.9546 20.4119 69.8154 20.6605C69.6762 20.9058 69.605 21.1792 69.6017 21.4808V22.7287C69.6017 23.1065 69.6713 23.433 69.8105 23.7081C69.953 23.9832 70.1535 24.1953 70.412 24.3445C70.6705 24.4936 70.9771 24.5682 71.3318 24.5682C71.5671 24.5682 71.7825 24.535 71.9781 24.4688C72.1736 24.4025 72.341 24.303 72.4802 24.1705C72.6194 24.0379 72.7255 23.8755 72.7984 23.6832L74.7572 23.8125C74.6578 24.2831 74.4539 24.6941 74.1457 25.0455C73.8408 25.3935 73.4463 25.6652 72.9624 25.8608C72.4819 26.053 71.9267 26.1491 71.297 26.1491ZM76.184 26V18.3636H78.2373V19.696H78.3169C78.4561 19.2221 78.6897 18.8641 79.0178 18.6222C79.346 18.3769 79.7238 18.2543 80.1514 18.2543C80.2574 18.2543 80.3718 18.2609 80.4944 18.2741C80.617 18.2874 80.7248 18.3056 80.8176 18.3288V20.2081C80.7181 20.1783 80.5806 20.1518 80.4049 20.1286C80.2293 20.1054 80.0685 20.0938 79.9227 20.0938C79.6111 20.0938 79.3327 20.1617 79.0874 20.2976C78.8455 20.4302 78.6533 20.6158 78.5107 20.8544C78.3715 21.093 78.3019 21.3681 78.3019 21.6797V26H76.184ZM88.2662 20.5412L86.3273 20.6605C86.2942 20.4948 86.2229 20.3456 86.1135 20.2131C86.0042 20.0772 85.86 19.9695 85.681 19.8899C85.5054 19.8071 85.2949 19.7656 85.0496 19.7656C84.7215 19.7656 84.4448 19.8352 84.2194 19.9744C83.994 20.1103 83.8813 20.2926 83.8813 20.5213C83.8813 20.7036 83.9542 20.8577 84.1001 20.9837C84.2459 21.1096 84.4961 21.2107 84.8508 21.2869L86.2329 21.5653C86.9753 21.7178 87.5288 21.9631 87.8934 22.3011C88.258 22.6392 88.4403 23.0833 88.4403 23.6335C88.4403 24.134 88.2928 24.5732 87.9978 24.951C87.7061 25.3288 87.3051 25.6238 86.7947 25.8359C86.2876 26.0447 85.7026 26.1491 85.0397 26.1491C84.0288 26.1491 83.2234 25.9387 82.6235 25.5178C82.0269 25.0935 81.6772 24.5168 81.5745 23.7876L83.6576 23.6783C83.7206 23.9865 83.873 24.2218 84.115 24.3842C84.3569 24.5433 84.6668 24.6229 85.0447 24.6229C85.4159 24.6229 85.7142 24.5516 85.9395 24.4091C86.1682 24.2633 86.2842 24.076 86.2876 23.8473C86.2842 23.6551 86.203 23.4976 86.0439 23.375C85.8849 23.2491 85.6396 23.1529 85.3081 23.0866L83.9857 22.8232C83.24 22.674 82.6848 22.4155 82.3202 22.0476C81.959 21.6797 81.7783 21.2107 81.7783 20.6406C81.7783 20.1501 81.9109 19.7275 82.176 19.3729C82.4445 19.0182 82.8207 18.7448 83.3046 18.5526C83.7918 18.3603 84.3619 18.2642 85.0148 18.2642C85.9793 18.2642 86.7383 18.468 87.2918 18.8757C87.8486 19.2834 88.1734 19.8385 88.2662 20.5412Z"
            fill="white" />
        <path
            d="M22.7152 33.7273V41H21.3871L18.223 36.4226H18.1697V41H16.6321V33.7273H17.9815L21.1207 38.3011H21.1847V33.7273H22.7152ZM26.443 41.1065C25.8819 41.1065 25.399 40.9929 24.9941 40.7656C24.5917 40.536 24.2815 40.2116 24.0637 39.7926C23.8459 39.3712 23.737 38.8729 23.737 38.2976C23.737 37.7365 23.8459 37.2441 24.0637 36.8203C24.2815 36.3965 24.5881 36.0663 24.9835 35.8295C25.3812 35.5928 25.8476 35.4744 26.3826 35.4744C26.7425 35.4744 27.0775 35.5324 27.3876 35.6484C27.7001 35.7621 27.9724 35.9337 28.2044 36.1634C28.4387 36.393 28.621 36.6818 28.7512 37.0298C28.8815 37.3755 28.9466 37.7803 28.9466 38.2443V38.6598H24.3407V37.7223H27.5225C27.5225 37.5045 27.4752 37.3116 27.3805 37.1435C27.2858 36.9754 27.1544 36.844 26.9863 36.7493C26.8206 36.6522 26.6277 36.6037 26.4075 36.6037C26.1779 36.6037 25.9743 36.657 25.7967 36.7635C25.6215 36.8677 25.4842 37.0085 25.3848 37.1861C25.2853 37.3613 25.2344 37.5566 25.2321 37.772V38.6634C25.2321 38.9332 25.2818 39.1664 25.3812 39.3629C25.483 39.5594 25.6262 39.7109 25.8109 39.8175C25.9956 39.924 26.2145 39.9773 26.4679 39.9773C26.6359 39.9773 26.7898 39.9536 26.9295 39.9062C27.0692 39.8589 27.1887 39.7879 27.2882 39.6932C27.3876 39.5985 27.4634 39.4825 27.5154 39.3452L28.9146 39.4375C28.8436 39.7737 28.698 40.0672 28.4778 40.3182C28.26 40.5668 27.9783 40.7609 27.6326 40.9006C27.2894 41.0379 26.8928 41.1065 26.443 41.1065ZM30.9707 41L29.4863 35.5455H31.0169L31.862 39.2102H31.9118L32.7924 35.5455H34.2946L35.1895 39.1889H35.2356L36.0666 35.5455H37.5936L36.1127 41H34.5112L33.5737 37.5696H33.5062L32.5687 41H30.9707ZM42.9389 37.1009L41.554 37.1861C41.5303 37.0677 41.4794 36.9612 41.4013 36.8665C41.3232 36.7694 41.2202 36.6925 41.0923 36.6357C40.9669 36.5765 40.8165 36.5469 40.6413 36.5469C40.407 36.5469 40.2093 36.5966 40.0483 36.696C39.8873 36.7931 39.8068 36.9233 39.8068 37.0866C39.8068 37.2169 39.8589 37.3269 39.9631 37.4169C40.0672 37.5069 40.246 37.5791 40.4993 37.6335L41.4865 37.8324C42.0168 37.9413 42.4122 38.1165 42.6726 38.358C42.933 38.5994 43.0632 38.9167 43.0632 39.3097C43.0632 39.6671 42.9579 39.9808 42.7472 40.2507C42.5388 40.5206 42.2524 40.7313 41.8878 40.8828C41.5256 41.032 41.1077 41.1065 40.6342 41.1065C39.9122 41.1065 39.3369 40.9562 38.9084 40.6555C38.4822 40.3525 38.2325 39.9406 38.1591 39.4197L39.647 39.3416C39.692 39.5618 39.8009 39.7299 39.9737 39.8459C40.1465 39.9595 40.3679 40.0163 40.6378 40.0163C40.9029 40.0163 41.116 39.9654 41.277 39.8636C41.4403 39.7595 41.5232 39.6257 41.5256 39.4624C41.5232 39.325 41.4652 39.2126 41.3516 39.125C41.2379 39.035 41.0627 38.9664 40.826 38.919L39.8814 38.7308C39.3487 38.6243 38.9522 38.4396 38.6918 38.1768C38.4337 37.9141 38.3047 37.5791 38.3047 37.1719C38.3047 36.8215 38.3994 36.5196 38.5888 36.2663C38.7805 36.013 39.0492 35.8177 39.3949 35.6804C39.7429 35.5431 40.1501 35.4744 40.6165 35.4744C41.3054 35.4744 41.8475 35.62 42.2429 35.9112C42.6406 36.2024 42.8726 36.599 42.9389 37.1009ZM48.5604 41.1065C48.0585 41.1065 47.6252 41.0166 47.2607 40.8366C46.8961 40.6567 46.6155 40.4129 46.419 40.1051C46.2249 39.795 46.1278 39.4493 46.1278 39.0682C46.1278 38.7841 46.1847 38.532 46.2983 38.3118C46.4119 38.0916 46.5705 37.8892 46.7741 37.7045C46.9777 37.5175 47.2145 37.3317 47.4844 37.147L48.8942 36.2202C49.0765 36.1042 49.2102 35.9822 49.2955 35.8544C49.3807 35.7242 49.4233 35.5833 49.4233 35.4318C49.4233 35.2874 49.3653 35.1536 49.2493 35.0305C49.1333 34.9074 48.9688 34.8471 48.7557 34.8494C48.6136 34.8494 48.4905 34.8814 48.3864 34.9453C48.2822 35.0069 48.2005 35.0885 48.1413 35.1903C48.0845 35.2898 48.0561 35.401 48.0561 35.5241C48.0561 35.6757 48.0987 35.8295 48.1839 35.9858C48.2692 36.142 48.3828 36.3078 48.5249 36.483C48.6669 36.6558 48.822 36.8428 48.9901 37.044L52.4382 41H50.8615L47.9851 37.7969C47.7957 37.5814 47.6063 37.3565 47.4169 37.1222C47.2299 36.8854 47.0736 36.6345 46.9482 36.3693C46.8227 36.1018 46.7599 35.8118 46.7599 35.4993C46.7599 35.1465 46.8416 34.8293 47.005 34.5476C47.1707 34.2659 47.4027 34.0433 47.701 33.88C47.9993 33.7143 48.3473 33.6314 48.745 33.6314C49.1333 33.6314 49.4683 33.7107 49.75 33.8693C50.0341 34.0256 50.2519 34.2339 50.4034 34.4943C50.5573 34.7524 50.6342 35.0365 50.6342 35.3466C50.6342 35.6899 50.549 36.0012 50.3786 36.2805C50.2105 36.5575 49.9737 36.8061 49.6683 37.0263L48.1839 38.0952C47.9827 38.242 47.8336 38.3923 47.7365 38.5462C47.6418 38.6977 47.5945 38.8433 47.5945 38.983C47.5945 39.1558 47.6371 39.3108 47.7223 39.4482C47.8075 39.5855 47.9283 39.6944 48.0845 39.7749C48.2408 39.853 48.4242 39.892 48.6349 39.892C48.8906 39.892 49.1428 39.834 49.3913 39.718C49.6423 39.5997 49.8696 39.4328 50.0732 39.2173C50.2791 38.9995 50.4437 38.7415 50.5668 38.4432C50.6899 38.1449 50.7514 37.8146 50.7514 37.4524H52.005C52.005 37.8975 51.9564 38.2988 51.8594 38.6562C51.7623 39.0114 51.6274 39.3215 51.4545 39.5866C51.2817 39.8494 51.084 40.0649 50.8615 40.233C50.7905 40.2779 50.7218 40.3205 50.6555 40.3608C50.5893 40.401 50.5206 40.4437 50.4496 40.4886C50.1797 40.7064 49.8778 40.8639 49.544 40.9609C49.2126 41.058 48.8847 41.1065 48.5604 41.1065ZM55.4114 33.7273H57.3077L59.3105 38.6136H59.3958L61.3986 33.7273H63.2949V41H61.8034V36.2663H61.7431L59.861 40.9645H58.8453L56.9632 36.2486H56.9029V41H55.4114V33.7273ZM67.0192 41.1065C66.4581 41.1065 65.9751 40.9929 65.5703 40.7656C65.1679 40.536 64.8577 40.2116 64.6399 39.7926C64.4221 39.3712 64.3132 38.8729 64.3132 38.2976C64.3132 37.7365 64.4221 37.2441 64.6399 36.8203C64.8577 36.3965 65.1643 36.0663 65.5597 35.8295C65.9574 35.5928 66.4238 35.4744 66.9588 35.4744C67.3187 35.4744 67.6536 35.5324 67.9638 35.6484C68.2763 35.7621 68.5485 35.9337 68.7805 36.1634C69.0149 36.393 69.1972 36.6818 69.3274 37.0298C69.4576 37.3755 69.5227 37.7803 69.5227 38.2443V38.6598H64.9169V37.7223H68.0987C68.0987 37.5045 68.0514 37.3116 67.9567 37.1435C67.862 36.9754 67.7306 36.844 67.5625 36.7493C67.3968 36.6522 67.2038 36.6037 66.9837 36.6037C66.754 36.6037 66.5504 36.657 66.3729 36.7635C66.1977 36.8677 66.0604 37.0085 65.9609 37.1861C65.8615 37.3613 65.8106 37.5566 65.8082 37.772V38.6634C65.8082 38.9332 65.858 39.1664 65.9574 39.3629C66.0592 39.5594 66.2024 39.7109 66.3871 39.8175C66.5717 39.924 66.7907 39.9773 67.044 39.9773C67.2121 39.9773 67.366 39.9536 67.5057 39.9062C67.6454 39.8589 67.7649 39.7879 67.8643 39.6932C67.9638 39.5985 68.0395 39.4825 68.0916 39.3452L69.4908 39.4375C69.4197 39.7737 69.2741 40.0672 69.054 40.3182C68.8362 40.5668 68.5545 40.7609 68.2088 40.9006C67.8655 41.0379 67.469 41.1065 67.0192 41.1065ZM72.5199 41.0888C72.1056 41.0888 71.7304 40.9822 71.3942 40.7692C71.0604 40.5537 70.7952 40.2377 70.5987 39.821C70.4046 39.402 70.3075 38.8883 70.3075 38.2798C70.3075 37.6548 70.4081 37.1352 70.6094 36.7209C70.8106 36.3042 71.0781 35.9929 71.4119 35.7869C71.7481 35.5786 72.1162 35.4744 72.5163 35.4744C72.8217 35.4744 73.0762 35.5265 73.2798 35.6307C73.4858 35.7325 73.6515 35.8603 73.777 36.0142C73.9048 36.1657 74.0019 36.3149 74.0682 36.4616H74.1143V33.7273H75.6236V41H74.1321V40.1264H74.0682C73.9972 40.2779 73.8965 40.4283 73.7663 40.5774C73.6385 40.7242 73.4716 40.8461 73.2656 40.9432C73.062 41.0402 72.8134 41.0888 72.5199 41.0888ZM72.9993 39.8849C73.2431 39.8849 73.4491 39.8187 73.6172 39.6861C73.7876 39.5511 73.9179 39.3629 74.0078 39.1214C74.1001 38.88 74.1463 38.5971 74.1463 38.2727C74.1463 37.9484 74.1013 37.6667 74.0114 37.4276C73.9214 37.1884 73.7912 37.0038 73.6207 36.8736C73.4503 36.7434 73.2431 36.6783 72.9993 36.6783C72.7507 36.6783 72.5412 36.7457 72.3707 36.8807C72.2003 37.0156 72.0713 37.2027 71.9837 37.4418C71.8961 37.6809 71.8523 37.9579 71.8523 38.2727C71.8523 38.59 71.8961 38.8705 71.9837 39.1143C72.0736 39.3558 72.2027 39.5452 72.3707 39.6825C72.5412 39.8175 72.7507 39.8849 72.9993 39.8849ZM76.8674 41V35.5455H78.3801V41H76.8674ZM77.6273 34.8423C77.4024 34.8423 77.2095 34.7678 77.0485 34.6186C76.8899 34.4671 76.8105 34.286 76.8105 34.0753C76.8105 33.867 76.8899 33.6882 77.0485 33.5391C77.2095 33.3875 77.4024 33.3118 77.6273 33.3118C77.8522 33.3118 78.044 33.3875 78.2026 33.5391C78.3636 33.6882 78.4441 33.867 78.4441 34.0753C78.4441 34.286 78.3636 34.4671 78.2026 34.6186C78.044 34.7678 77.8522 34.8423 77.6273 34.8423ZM81.1474 41.103C80.7994 41.103 80.4892 41.0426 80.217 40.9219C79.9447 40.7988 79.7293 40.6177 79.5707 40.3786C79.4144 40.1371 79.3363 39.8364 79.3363 39.4766C79.3363 39.1735 79.3919 38.919 79.5032 38.7131C79.6145 38.5071 79.766 38.3414 79.9577 38.2159C80.1495 38.0904 80.3673 37.9957 80.6112 37.9318C80.8574 37.8679 81.1154 37.8229 81.3853 37.7969C81.7025 37.7637 81.9582 37.733 82.1523 37.7045C82.3465 37.6738 82.4873 37.6288 82.5749 37.5696C82.6625 37.5104 82.7063 37.4228 82.7063 37.3068V37.2855C82.7063 37.0606 82.6353 36.8866 82.4933 36.7635C82.3536 36.6404 82.1547 36.5788 81.8967 36.5788C81.6244 36.5788 81.4078 36.6392 81.2468 36.7599C81.0858 36.8783 80.9793 37.0275 80.9272 37.2074L79.5281 37.0938C79.5991 36.7623 79.7388 36.4759 79.9471 36.2344C80.1554 35.9905 80.4241 35.8035 80.7532 35.6733C81.0846 35.5407 81.4682 35.4744 81.9038 35.4744C82.2068 35.4744 82.4968 35.5099 82.7738 35.581C83.0531 35.652 83.3005 35.7621 83.516 35.9112C83.7338 36.0604 83.9054 36.2521 84.0309 36.4865C84.1564 36.7185 84.2191 36.9967 84.2191 37.321V41H82.7844V40.2436H82.7418C82.6542 40.4141 82.5371 40.5644 82.3903 40.6946C82.2435 40.8224 82.0671 40.9231 81.8612 40.9964C81.6552 41.0675 81.4173 41.103 81.1474 41.103ZM81.5806 40.0589C81.8031 40.0589 81.9996 40.0152 82.1701 39.9276C82.3406 39.8376 82.4743 39.7169 82.5714 39.5653C82.6684 39.4138 82.717 39.2422 82.717 39.0504V38.4716C82.6696 38.5024 82.6045 38.5308 82.5217 38.5568C82.4412 38.5805 82.35 38.603 82.2482 38.6243C82.1464 38.6432 82.0446 38.661 81.9428 38.6776C81.841 38.6918 81.7487 38.7048 81.6658 38.7166C81.4883 38.7427 81.3332 38.7841 81.2006 38.8409C81.0681 38.8977 80.9651 38.9747 80.8917 39.0717C80.8183 39.1664 80.7816 39.2848 80.7816 39.4268C80.7816 39.6328 80.8562 39.7902 81.0053 39.8991C81.1568 40.0057 81.3486 40.0589 81.5806 40.0589ZM21.4545 50.0781C21.4048 49.9053 21.335 49.7526 21.245 49.62C21.1551 49.4851 21.045 49.3714 20.9148 49.2791C20.7869 49.1844 20.6402 49.1122 20.4744 49.0625C20.3111 49.0128 20.13 48.9879 19.9311 48.9879C19.5594 48.9879 19.2327 49.0803 18.951 49.2649C18.6716 49.4496 18.4538 49.7183 18.2976 50.071C18.1413 50.4214 18.0632 50.8499 18.0632 51.3565C18.0632 51.8632 18.1402 52.294 18.294 52.6491C18.4479 53.0043 18.6657 53.2753 18.9474 53.4624C19.2292 53.647 19.5618 53.7393 19.9453 53.7393C20.2933 53.7393 20.5904 53.6778 20.8366 53.5547C21.0852 53.4292 21.2746 53.2528 21.4048 53.0256C21.5374 52.7983 21.6037 52.5296 21.6037 52.2195L21.9162 52.2656H20.0412V51.108H23.0845V52.0241C23.0845 52.6634 22.9496 53.2126 22.6797 53.6719C22.4098 54.1288 22.0381 54.4815 21.5646 54.7301C21.0911 54.9763 20.549 55.0994 19.9382 55.0994C19.2564 55.0994 18.6574 54.9491 18.1413 54.6484C17.6252 54.3454 17.2228 53.9157 16.9339 53.3594C16.6475 52.8007 16.5043 52.1378 16.5043 51.3707C16.5043 50.7812 16.5895 50.2557 16.7599 49.794C16.9328 49.33 17.1742 48.937 17.4844 48.6151C17.7945 48.2931 18.1555 48.0481 18.5675 47.88C18.9794 47.7119 19.4257 47.6278 19.9062 47.6278C20.3182 47.6278 20.7017 47.6882 21.0568 47.8089C21.4119 47.9273 21.7268 48.0954 22.0014 48.3132C22.2784 48.531 22.5045 48.7902 22.6797 49.0909C22.8549 49.3892 22.9673 49.7183 23.017 50.0781H21.4545ZM24.5529 55V49.5455H26.0657V55H24.5529ZM25.3129 48.8423C25.0879 48.8423 24.895 48.7678 24.734 48.6186C24.5754 48.4671 24.4961 48.286 24.4961 48.0753C24.4961 47.867 24.5754 47.6882 24.734 47.5391C24.895 47.3875 25.0879 47.3118 25.3129 47.3118C25.5378 47.3118 25.7295 47.3875 25.8881 47.5391C26.0491 47.6882 26.1296 47.867 26.1296 48.0753C26.1296 48.286 26.0491 48.4671 25.8881 48.6186C25.7295 48.7678 25.5378 48.8423 25.3129 48.8423ZM28.8329 55.103C28.4849 55.103 28.1748 55.0426 27.9025 54.9219C27.6303 54.7988 27.4148 54.6177 27.2562 54.3786C27.1 54.1371 27.0218 53.8364 27.0218 53.4766C27.0218 53.1735 27.0775 52.919 27.1887 52.7131C27.3 52.5071 27.4515 52.3414 27.6433 52.2159C27.835 52.0904 28.0529 51.9957 28.2967 51.9318C28.5429 51.8679 28.801 51.8229 29.0708 51.7969C29.3881 51.7637 29.6438 51.733 29.8379 51.7045C30.032 51.6738 30.1729 51.6288 30.2605 51.5696C30.3481 51.5104 30.3919 51.4228 30.3919 51.3068V51.2855C30.3919 51.0606 30.3208 50.8866 30.1788 50.7635C30.0391 50.6404 29.8403 50.5788 29.5822 50.5788C29.31 50.5788 29.0933 50.6392 28.9324 50.7599C28.7714 50.8783 28.6648 51.0275 28.6127 51.2074L27.2136 51.0938C27.2846 50.7623 27.4243 50.4759 27.6326 50.2344C27.841 49.9905 28.1097 49.8035 28.4387 49.6733C28.7702 49.5407 29.1537 49.4744 29.5893 49.4744C29.8923 49.4744 30.1824 49.5099 30.4593 49.581C30.7387 49.652 30.9861 49.7621 31.2015 49.9112C31.4193 50.0604 31.591 50.2521 31.7164 50.4865C31.8419 50.7185 31.9047 50.9967 31.9047 51.321V55H30.47V54.2436H30.4274C30.3398 54.4141 30.2226 54.5644 30.0758 54.6946C29.929 54.8224 29.7527 54.9231 29.5467 54.9964C29.3407 55.0675 29.1028 55.103 28.8329 55.103ZM29.2662 54.0589C29.4887 54.0589 29.6852 54.0152 29.8556 53.9276C30.0261 53.8376 30.1599 53.7169 30.2569 53.5653C30.354 53.4138 30.4025 53.2422 30.4025 53.0504V52.4716C30.3552 52.5024 30.2901 52.5308 30.2072 52.5568C30.1267 52.5805 30.0356 52.603 29.9338 52.6243C29.832 52.6432 29.7302 52.661 29.6284 52.6776C29.5266 52.6918 29.4342 52.7048 29.3514 52.7166C29.1738 52.7427 29.0188 52.7841 28.8862 52.8409C28.7536 52.8977 28.6506 52.9747 28.5772 53.0717C28.5038 53.1664 28.4672 53.2848 28.4672 53.4268C28.4672 53.6328 28.5417 53.7902 28.6909 53.8991C28.8424 54.0057 29.0342 54.0589 29.2662 54.0589ZM34.5911 51.8466V55H33.0783V49.5455H34.5201V50.5078H34.584C34.7047 50.1906 34.9071 49.9396 35.1912 49.755C35.4753 49.5679 35.8198 49.4744 36.2246 49.4744C36.6034 49.4744 36.9337 49.5573 37.2154 49.723C37.4971 49.8887 37.7161 50.1255 37.8723 50.4332C38.0286 50.7386 38.1067 51.1032 38.1067 51.527V55H36.5939V51.7969C36.5963 51.4631 36.5111 51.2027 36.3382 51.0156C36.1654 50.8262 35.9275 50.7315 35.6245 50.7315C35.4209 50.7315 35.2409 50.7753 35.0847 50.8629C34.9308 50.9505 34.8101 51.0784 34.7225 51.2464C34.6373 51.4122 34.5935 51.6122 34.5911 51.8466ZM42.2003 49.5455V50.6818H38.9155V49.5455H42.2003ZM39.6612 48.2386H41.174V53.3239C41.174 53.4635 41.1953 53.5724 41.2379 53.6506C41.2805 53.7263 41.3397 53.7796 41.4155 53.8104C41.4936 53.8411 41.5836 53.8565 41.6854 53.8565C41.7564 53.8565 41.8274 53.8506 41.8984 53.8388C41.9695 53.8246 42.0239 53.8139 42.0618 53.8068L42.2997 54.9325C42.224 54.9562 42.1174 54.9834 41.9801 55.0142C41.8428 55.0473 41.6759 55.0675 41.4794 55.0746C41.1148 55.0888 40.7952 55.0402 40.5206 54.929C40.2483 54.8177 40.0365 54.6449 39.8849 54.4105C39.7334 54.1761 39.6589 53.8802 39.6612 53.5227V48.2386ZM47.6557 51.1009L46.2708 51.1861C46.2471 51.0677 46.1962 50.9612 46.1181 50.8665C46.04 50.7694 45.937 50.6925 45.8091 50.6357C45.6837 50.5765 45.5333 50.5469 45.3581 50.5469C45.1238 50.5469 44.9261 50.5966 44.7651 50.696C44.6041 50.7931 44.5236 50.9233 44.5236 51.0866C44.5236 51.2169 44.5757 51.3269 44.6799 51.4169C44.784 51.5069 44.9628 51.5791 45.2161 51.6335L46.2033 51.8324C46.7336 51.9413 47.129 52.1165 47.3894 52.358C47.6498 52.5994 47.78 52.9167 47.78 53.3097C47.78 53.6671 47.6747 53.9808 47.464 54.2507C47.2556 54.5206 46.9692 54.7313 46.6046 54.8828C46.2424 55.032 45.8245 55.1065 45.351 55.1065C44.629 55.1065 44.0537 54.9562 43.6252 54.6555C43.199 54.3525 42.9493 53.9406 42.8759 53.4197L44.3638 53.3416C44.4088 53.5618 44.5177 53.7299 44.6905 53.8459C44.8633 53.9595 45.0847 54.0163 45.3546 54.0163C45.6197 54.0163 45.8328 53.9654 45.9938 53.8636C46.1571 53.7595 46.24 53.6257 46.2424 53.4624C46.24 53.325 46.182 53.2126 46.0684 53.125C45.9547 53.035 45.7795 52.9664 45.5428 52.919L44.5982 52.7308C44.0655 52.6243 43.669 52.4396 43.4086 52.1768C43.1505 51.9141 43.0215 51.5791 43.0215 51.1719C43.0215 50.8215 43.1162 50.5196 43.3056 50.2663C43.4973 50.013 43.766 49.8177 44.1117 49.6804C44.4597 49.5431 44.8669 49.4744 45.3333 49.4744C46.0222 49.4744 46.5643 49.62 46.9597 49.9112C47.3574 50.2024 47.5894 50.599 47.6557 51.1009Z"
            fill="#F4DEF8" fill-opacity="0.8" />
        <mask id="path-13-inside-1_429_11534" fill="white">
            <path
                d="M156 26C156 20.4772 160.477 16 166 16H188V36H166C160.477 36 156 31.5228 156 26V26Z" />
        </mask>
        <path d="M156 26C156 20.4772 160.477 16 166 16H188V36H166C160.477 36 156 31.5228 156 26V26Z"
            fill="white" />
        <path d="M156 26C156 20.4772 160.477 16 166 16H188V36H166C160.477 36 156 31.5228 156 26V26Z"
            fill="url(#paint21_radial_429_11534)" fill-opacity="0.6" />
        <path d="M156 16H188H156ZM188 36H156H188ZM156 36V16V36ZM189 16V36H187V16H189Z" fill="white"
            mask="url(#path-13-inside-1_429_11534)" />
        <path d="M178 26H166" stroke="white" stroke-width="1.6" stroke-linecap="round"
            stroke-linejoin="round" />
        <path d="M174 21.3334L178 26L174 30.6667" stroke="white" stroke-width="1.6"
            stroke-linecap="round" stroke-linejoin="round" />
    </g>
    <rect x="0.6" y="0.6" width="186.8" height="70.8" rx="11.4"
        stroke="url(#paint22_linear_429_11534)" stroke-opacity="0.8" stroke-width="1.2" />
    <defs>
        <radialGradient id="paint0_radial_429_11534" cx="0" cy="0" r="1"
            gradientUnits="userSpaceOnUse"
            gradientTransform="translate(79.5 -18) rotate(56.7317) scale(113.023 113.023)">
            <stop offset="0.0468646" stop-color="#B968C7" />
            <stop offset="0.505208" stop-color="#AA47BC" />
            <stop offset="1" stop-color="#9425A7" />
        </radialGradient>
        <radialGradient id="paint1_radial_429_11534" cx="0" cy="0" r="1"
            gradientUnits="userSpaceOnUse"
            gradientTransform="translate(149.919 55.6015) rotate(143.556) scale(2.52507 2.43774)">
            <stop offset="0.363271" stop-color="#6E6279" />
            <stop offset="1" stop-color="#5A4C67" />
        </radialGradient>
        <linearGradient id="paint2_linear_429_11534" x1="147.982" y1="60.664" x2="148.482"
            y2="57.164" gradientUnits="userSpaceOnUse">
            <stop offset="0.30625" stop-color="#3A3141" />
            <stop offset="1" stop-color="#3A3141" stop-opacity="0" />
        </linearGradient>
        <radialGradient id="paint3_radial_429_11534" cx="0" cy="0" r="1"
            gradientUnits="userSpaceOnUse"
            gradientTransform="translate(131.732 73.6224) rotate(-105) scale(6.5 7.23214)">
            <stop offset="0.428571" stop-color="#C0B2D4" />
            <stop offset="1" stop-color="#B4A0BC" />
        </radialGradient>
        <linearGradient id="paint4_linear_429_11534" x1="128.571" y1="70.7717" x2="129.544"
            y2="70.5112" gradientUnits="userSpaceOnUse">
            <stop stop-color="#CFCCD5" />
            <stop offset="0.606023" stop-color="#CFCCD5" stop-opacity="0.256709" />
            <stop offset="1" stop-color="#CFCCD5" stop-opacity="0" />
        </linearGradient>
        <linearGradient id="paint5_linear_429_11534" x1="131.87" y1="74.1355" x2="131.441"
            y2="72.5357" gradientUnits="userSpaceOnUse">
            <stop offset="0.226162" stop-color="#B5A4D2" />
            <stop offset="0.739469" stop-color="#B5A4D2" stop-opacity="0.22869" />
            <stop offset="1" stop-color="#B5A4D2" stop-opacity="0" />
        </linearGradient>
        <linearGradient id="paint6_linear_429_11534" x1="124.047" y1="64.6817" x2="134.008"
            y2="62.0127" gradientUnits="userSpaceOnUse">
            <stop offset="0.104575" stop-color="#F44065" />
            <stop offset="1" stop-color="#D52E84" />
        </linearGradient>
        <linearGradient id="paint7_linear_429_11534" x1="128.452" y1="63.4092" x2="129.581"
            y2="67.6245" gradientUnits="userSpaceOnUse">
            <stop stop-color="#B2295A" stop-opacity="0" />
            <stop offset="0.27464" stop-color="#B2295A" stop-opacity="0.13" />
            <stop offset="1" stop-color="#B2295A" />
        </linearGradient>
        <linearGradient id="paint8_linear_429_11534" x1="124.879" y1="63.5531" x2="123.156"
            y2="64.0146" gradientUnits="userSpaceOnUse">
            <stop stop-color="#B2295A" stop-opacity="0" />
            <stop offset="0.155589" stop-color="#B2295A" stop-opacity="0.0393534" />
            <stop offset="0.593336" stop-color="#B2295A" stop-opacity="0.398909" />
            <stop offset="1" stop-color="#B2295A" />
        </linearGradient>
        <linearGradient id="paint9_linear_429_11534" x1="130.635" y1="62.0107" x2="134.328"
            y2="61.0212" gradientUnits="userSpaceOnUse">
            <stop stop-color="#B2295A" stop-opacity="0" />
            <stop offset="0.241379" stop-color="#B2295A" stop-opacity="0.13" />
            <stop offset="0.482759" stop-color="#B2295A" stop-opacity="0.398909" />
            <stop offset="1" stop-color="#B2295A" />
        </linearGradient>
        <linearGradient id="paint10_linear_429_11534" x1="129.475" y1="57.6841" x2="128.282"
            y2="53.2306" gradientUnits="userSpaceOnUse">
            <stop stop-color="#B2295A" stop-opacity="0" />
            <stop offset="0.241379" stop-color="#B2295A" stop-opacity="0.13" />
            <stop offset="0.482759" stop-color="#B2295A" stop-opacity="0.398909" />
            <stop offset="1" stop-color="#B2295A" />
        </linearGradient>
        <radialGradient id="paint11_radial_429_11534" cx="0" cy="0" r="1"
            gradientUnits="userSpaceOnUse"
            gradientTransform="translate(131.838 51.9826) rotate(54.2417) scale(16.5761 17.5776)">
            <stop offset="0.253085" stop-color="#CFCCD5" />
            <stop offset="1" stop-color="#C1B6D2" />
        </radialGradient>
        <linearGradient id="paint12_linear_429_11534" x1="138.201" y1="58.1656" x2="138.984"
            y2="66.3717" gradientUnits="userSpaceOnUse">
            <stop stop-color="#B7A6D3" stop-opacity="0" />
            <stop offset="0.221212" stop-color="#B7A6D3" stop-opacity="0.107554" />
            <stop offset="1" stop-color="#B7A6D3" />
        </linearGradient>
        <linearGradient id="paint13_linear_429_11534" x1="141.866" y1="45.6192" x2="141.866"
            y2="71.3692" gradientUnits="userSpaceOnUse">
            <stop stop-color="#F94E87" />
            <stop offset="1" stop-color="#D21F6B" />
        </linearGradient>
        <linearGradient id="paint14_linear_429_11534" x1="140.177" y1="58.9624" x2="145.449"
            y2="58.9624" gradientUnits="userSpaceOnUse">
            <stop stop-color="#F44065" />
            <stop offset="0.593853" stop-color="#F44065" />
            <stop offset="1" stop-color="#F44065" stop-opacity="0" />
        </linearGradient>
        <linearGradient id="paint15_linear_429_11534" x1="141.866" y1="45.6192" x2="141.866"
            y2="71.3692" gradientUnits="userSpaceOnUse">
            <stop stop-color="#F94E87" stop-opacity="0" />
            <stop offset="1" stop-color="#D21F6B" />
        </linearGradient>
        <radialGradient id="paint16_radial_429_11534" cx="0" cy="0" r="1"
            gradientUnits="userSpaceOnUse"
            gradientTransform="translate(143.372 52.0455) rotate(90) scale(16.1374 2.72897)">
            <stop stop-color="#FF4F8A" />
            <stop offset="0.265625" stop-color="#FF4F8A" stop-opacity="0.877299" />
            <stop offset="0.59375" stop-color="#FF4F8A" stop-opacity="0.434381" />
            <stop offset="0.890469" stop-color="#FF4F8A" stop-opacity="0.09" />
            <stop offset="1" stop-color="#FF4F8A" stop-opacity="0" />
        </radialGradient>
        <radialGradient id="paint17_radial_429_11534" cx="0" cy="0" r="1"
            gradientUnits="userSpaceOnUse"
            gradientTransform="translate(144.607 45.5929) rotate(96.0685) scale(25.9216 8.80685)">
            <stop stop-color="#B22A5F" stop-opacity="0" />
            <stop offset="0.803893" stop-color="#B22A5F" stop-opacity="0" />
            <stop offset="0.852914" stop-color="#B22A5F" stop-opacity="0.0830085" />
            <stop offset="0.89033" stop-color="#B22A5F" stop-opacity="0.276975" />
            <stop offset="0.953642" stop-color="#B22A5F" stop-opacity="0.706286" />
            <stop offset="1" stop-color="#B22A5F" />
        </radialGradient>
        <radialGradient id="paint18_radial_429_11534" cx="0" cy="0" r="1"
            gradientUnits="userSpaceOnUse"
            gradientTransform="translate(151.527 69.132) rotate(-115.979) scale(27.0604 12.3643)">
            <stop stop-color="#B22A5F" stop-opacity="0" />
            <stop offset="0.868374" stop-color="#B22A5F" stop-opacity="0" />
            <stop offset="0.889945" stop-color="#B22A5F" stop-opacity="0.0830085" />
            <stop offset="0.913943" stop-color="#B22A5F" stop-opacity="0.276975" />
            <stop offset="0.953642" stop-color="#B22A5F" stop-opacity="0.706286" />
            <stop offset="1" stop-color="#B22A5F" />
        </radialGradient>
        <linearGradient id="paint19_linear_429_11534" x1="137.993" y1="57.7779" x2="142.779"
            y2="57.7779" gradientUnits="userSpaceOnUse">
            <stop offset="0.0470588" stop-color="#B22A5F" stop-opacity="0.78" />
            <stop offset="0.73415" stop-color="#B22A5F" stop-opacity="0.117457" />
            <stop offset="0.897017" stop-color="#B22A5F" stop-opacity="0.0269374" />
            <stop offset="1" stop-color="#B22A5F" stop-opacity="0" />
        </linearGradient>
        <linearGradient id="paint20_linear_429_11534" x1="145.378" y1="57.7779" x2="144.237"
            y2="57.7779" gradientUnits="userSpaceOnUse">
            <stop stop-color="#B22A5F" stop-opacity="0.78" />
            <stop offset="0.791982" stop-color="#B22A5F" stop-opacity="0.117457" />
            <stop offset="0.943838" stop-color="#B22A5F" stop-opacity="0.0269374" />
            <stop offset="1" stop-color="#B22A5F" stop-opacity="0" />
        </linearGradient>
        <radialGradient id="paint21_radial_429_11534" cx="0" cy="0" r="1"
            gradientUnits="userSpaceOnUse"
            gradientTransform="translate(167.064 8.91667) rotate(75.2262) scale(34.0421 23.1159)">
            <stop offset="0.0468646" stop-color="#B968C7" />
            <stop offset="0.505208" stop-color="#AA47BC" />
            <stop offset="1" stop-color="#9D27B1" />
        </radialGradient>
        <linearGradient id="paint22_linear_429_11534" x1="188" y1="-11.5" x2="184.776" y2="19.697"
            gradientUnits="userSpaceOnUse">
            <stop stop-color="#F7E6F9" />
            <stop offset="1" stop-color="#F7E6F9" stop-opacity="0" />
        </linearGradient>
        <clipPath id="clip0_429_11534">
            <rect width="188" height="72" rx="12" fill="white" />
        </clipPath>
        <clipPath id="clip1_429_11534">
            <rect width="32" height="32" fill="white"
                transform="translate(117 48.2822) rotate(-15)" />
        </clipPath>
    </defs>
</svg>
