<svg width="188" height="72" viewBox="0 0 188 72" fill="none" xmlns="http://www.w3.org/2000/svg">
    <g clip-path="url(#clip0_429_11516)">
        <rect width="188" height="72" rx="12" fill="url(#paint0_radial_429_11516)" />
        <path
            d="M19.1343 22.8182V33H16.9816V22.8182H19.1343ZM22.9836 28.5852V33H20.8657V25.3636H22.8841V26.7109H22.9736C23.1427 26.2668 23.426 25.9155 23.8238 25.657C24.2215 25.3951 24.7037 25.2642 25.2705 25.2642C25.8008 25.2642 26.2632 25.3802 26.6576 25.6122C27.052 25.8442 27.3586 26.1757 27.5773 26.6065C27.7961 27.0341 27.9055 27.5445 27.9055 28.1378V33H25.7876V28.5156C25.7909 28.0483 25.6715 27.6837 25.4296 27.4219C25.1876 27.1567 24.8546 27.0241 24.4303 27.0241C24.1453 27.0241 23.8934 27.0855 23.6746 27.2081C23.4592 27.3307 23.2902 27.5097 23.1675 27.745C23.0482 27.977 22.9869 28.2571 22.9836 28.5852ZM33.6812 25.3636V26.9545H28.9681V25.3636H33.6812ZM30.047 33V24.8118C30.047 24.2583 30.1547 23.7992 30.3701 23.4347C30.5889 23.0701 30.8872 22.7966 31.265 22.6143C31.6428 22.4321 32.0721 22.3409 32.5526 22.3409C32.8775 22.3409 33.1741 22.3658 33.4426 22.4155C33.7143 22.4652 33.9165 22.5099 34.0491 22.5497L33.6713 24.1406C33.5884 24.1141 33.4856 24.0893 33.363 24.0661C33.2437 24.0429 33.1211 24.0312 32.9951 24.0312C32.6836 24.0312 32.4665 24.1042 32.3438 24.25C32.2212 24.3925 32.1599 24.593 32.1599 24.8516V33H30.047ZM37.093 22.8182V33H34.9751V22.8182H37.093ZM43.6865 29.7486V25.3636H45.8044V33H43.771V31.6129H43.6915C43.5191 32.0604 43.2325 32.42 42.8314 32.6918C42.4337 32.9635 41.9481 33.0994 41.3747 33.0994C40.8643 33.0994 40.4152 32.9834 40.0274 32.7514C39.6396 32.5194 39.3364 32.1896 39.1176 31.7621C38.9022 31.3345 38.7928 30.8224 38.7895 30.2259V25.3636H40.9074V29.848C40.9107 30.2988 41.0317 30.6551 41.2703 30.9169C41.509 31.1787 41.8288 31.3097 42.2298 31.3097C42.4851 31.3097 42.7237 31.2517 42.9458 31.1357C43.1678 31.0163 43.3468 30.8407 43.4827 30.6087C43.6219 30.3767 43.6898 30.09 43.6865 29.7486ZM50.9786 33.1491C50.1931 33.1491 49.517 32.9901 48.9502 32.6719C48.3867 32.3504 47.9526 31.8963 47.6476 31.3097C47.3427 30.7197 47.1903 30.022 47.1903 29.2166C47.1903 28.4311 47.3427 27.7417 47.6476 27.1484C47.9526 26.5552 48.3818 26.0928 48.9353 25.7614C49.4921 25.4299 50.145 25.2642 50.8941 25.2642C51.3979 25.2642 51.8669 25.3454 52.301 25.5078C52.7385 25.6669 53.1197 25.9072 53.4445 26.2287C53.7726 26.5502 54.0278 26.9545 54.2101 27.4418C54.3924 27.9257 54.4836 28.4924 54.4836 29.142V29.7237H48.0354V28.4112H52.49C52.49 28.1063 52.4237 27.8362 52.2911 27.6009C52.1585 27.3655 51.9746 27.1816 51.7393 27.049C51.5073 26.9131 51.2371 26.8452 50.9289 26.8452C50.6074 26.8452 50.3224 26.9197 50.0738 27.0689C49.8285 27.2147 49.6363 27.4119 49.4971 27.6605C49.3579 27.9058 49.2866 28.1792 49.2833 28.4808V29.7287C49.2833 30.1065 49.3529 30.433 49.4921 30.7081C49.6346 30.9832 49.8351 31.1953 50.0937 31.3445C50.3522 31.4936 50.6588 31.5682 51.0134 31.5682C51.2487 31.5682 51.4642 31.535 51.6597 31.4688C51.8553 31.4025 52.0226 31.303 52.1618 31.1705C52.301 31.0379 52.4071 30.8755 52.48 30.6832L54.4388 30.8125C54.3394 31.2831 54.1356 31.6941 53.8273 32.0455C53.5224 32.3935 53.128 32.6652 52.6441 32.8608C52.1635 33.053 51.6083 33.1491 50.9786 33.1491ZM57.9836 28.5852V33H55.8657V25.3636H57.8841V26.7109H57.9736C58.1427 26.2668 58.426 25.9155 58.8238 25.657C59.2215 25.3951 59.7037 25.2642 60.2705 25.2642C60.8008 25.2642 61.2632 25.3802 61.6576 25.6122C62.052 25.8442 62.3586 26.1757 62.5773 26.6065C62.7961 27.0341 62.9055 27.5445 62.9055 28.1378V33H60.7876V28.5156C60.7909 28.0483 60.6715 27.6837 60.4296 27.4219C60.1876 27.1567 59.8546 27.0241 59.4303 27.0241C59.1453 27.0241 58.8934 27.0855 58.6746 27.2081C58.4592 27.3307 58.2902 27.5097 58.1675 27.745C58.0482 27.977 57.9869 28.2571 57.9836 28.5852ZM68.0249 33.1491C67.2427 33.1491 66.5699 32.9834 66.0065 32.652C65.4463 32.3172 65.0155 31.8532 64.7139 31.2599C64.4156 30.6667 64.2664 29.9839 64.2664 29.2116C64.2664 28.4295 64.4172 27.7434 64.7188 27.1534C65.0238 26.5601 65.4563 26.0978 66.0164 25.7663C66.5766 25.4316 67.2427 25.2642 68.015 25.2642C68.6812 25.2642 69.2645 25.3852 69.765 25.6271C70.2655 25.8691 70.6615 26.2088 70.9532 26.6463C71.2449 27.0838 71.4056 27.5975 71.4355 28.1875H69.4369C69.3805 27.8063 69.2314 27.4998 68.9894 27.2678C68.7508 27.0324 68.4376 26.9148 68.0498 26.9148C67.7217 26.9148 67.435 27.0043 67.1897 27.1832C66.9478 27.3589 66.7588 27.6158 66.623 27.9538C66.4871 28.2919 66.4191 28.7012 66.4191 29.1818C66.4191 29.669 66.4854 30.0833 66.618 30.4247C66.7539 30.7661 66.9445 31.0263 67.1897 31.2053C67.435 31.3842 67.7217 31.4737 68.0498 31.4737C68.2918 31.4737 68.5088 31.424 68.7011 31.3246C68.8966 31.2251 69.0574 31.081 69.1833 30.892C69.3126 30.6998 69.3971 30.4695 69.4369 30.201H71.4355C71.4023 30.7843 71.2432 31.2981 70.9582 31.7422C70.6765 32.183 70.287 32.5277 69.7899 32.7763C69.2927 33.0249 68.7044 33.1491 68.0249 33.1491ZM76.2716 33.1491C75.4861 33.1491 74.8099 32.9901 74.2432 32.6719C73.6797 32.3504 73.2455 31.8963 72.9406 31.3097C72.6357 30.7197 72.4832 30.022 72.4832 29.2166C72.4832 28.4311 72.6357 27.7417 72.9406 27.1484C73.2455 26.5552 73.6747 26.0928 74.2282 25.7614C74.7851 25.4299 75.438 25.2642 76.1871 25.2642C76.6908 25.2642 77.1598 25.3454 77.594 25.5078C78.0315 25.6669 78.4127 25.9072 78.7375 26.2287C79.0656 26.5502 79.3208 26.9545 79.5031 27.4418C79.6854 27.9257 79.7765 28.4924 79.7765 29.142V29.7237H73.3284V28.4112H77.7829C77.7829 28.1063 77.7166 27.8362 77.5841 27.6009C77.4515 27.3655 77.2675 27.1816 77.0322 27.049C76.8002 26.9131 76.5301 26.8452 76.2219 26.8452C75.9004 26.8452 75.6153 26.9197 75.3667 27.0689C75.1215 27.2147 74.9292 27.4119 74.79 27.6605C74.6508 27.9058 74.5796 28.1792 74.5763 28.4808V29.7287C74.5763 30.1065 74.6459 30.433 74.7851 30.7081C74.9276 30.9832 75.1281 31.1953 75.3866 31.3445C75.6452 31.4936 75.9517 31.5682 76.3064 31.5682C76.5417 31.5682 76.7571 31.535 76.9527 31.4688C77.1482 31.4025 77.3156 31.303 77.4548 31.1705C77.594 31.0379 77.7001 30.8755 77.773 30.6832L79.7318 30.8125C79.6324 31.2831 79.4285 31.6941 79.1203 32.0455C78.8154 32.3935 78.421 32.6652 77.9371 32.8608C77.4565 33.053 76.9013 33.1491 76.2716 33.1491ZM81.1586 33V25.3636H83.2119V26.696H83.2915C83.4307 26.2221 83.6643 25.8641 83.9925 25.6222C84.3206 25.3769 84.6984 25.2543 85.126 25.2543C85.232 25.2543 85.3464 25.2609 85.469 25.2741C85.5916 25.2874 85.6994 25.3056 85.7922 25.3288V27.2081C85.6927 27.1783 85.5552 27.1518 85.3795 27.1286C85.2039 27.1054 85.0431 27.0938 84.8973 27.0938C84.5857 27.0938 84.3073 27.1617 84.0621 27.2976C83.8201 27.4302 83.6279 27.6158 83.4854 27.8544C83.3461 28.093 83.2765 28.3681 83.2765 28.6797V33H81.1586ZM93.2409 27.5412L91.3019 27.6605C91.2688 27.4948 91.1975 27.3456 91.0882 27.2131C90.9788 27.0772 90.8346 26.9695 90.6556 26.8899C90.48 26.8071 90.2695 26.7656 90.0242 26.7656C89.6961 26.7656 89.4194 26.8352 89.194 26.9744C88.9686 27.1103 88.8559 27.2926 88.8559 27.5213C88.8559 27.7036 88.9288 27.8577 89.0747 27.9837C89.2205 28.1096 89.4707 28.2107 89.8254 28.2869L91.2075 28.5653C91.9499 28.7178 92.5034 28.9631 92.868 29.3011C93.2326 29.6392 93.4149 30.0833 93.4149 30.6335C93.4149 31.134 93.2674 31.5732 92.9724 31.951C92.6807 32.3288 92.2797 32.6238 91.7693 32.8359C91.2622 33.0447 90.6772 33.1491 90.0143 33.1491C89.0034 33.1491 88.198 32.9387 87.5981 32.5178C87.0015 32.0935 86.6518 31.5168 86.5491 30.7876L88.6322 30.6783C88.6952 30.9865 88.8476 31.2218 89.0896 31.3842C89.3315 31.5433 89.6414 31.6229 90.0193 31.6229C90.3905 31.6229 90.6888 31.5516 90.9142 31.4091C91.1428 31.2633 91.2588 31.076 91.2622 30.8473C91.2588 30.6551 91.1776 30.4976 91.0186 30.375C90.8595 30.2491 90.6142 30.1529 90.2828 30.0866L88.9603 29.8232C88.2146 29.674 87.6594 29.4155 87.2948 29.0476C86.9336 28.6797 86.7529 28.2107 86.7529 27.6406C86.7529 27.1501 86.8855 26.7275 87.1507 26.3729C87.4191 26.0182 87.7953 25.7448 88.2792 25.5526C88.7664 25.3603 89.3365 25.2642 89.9894 25.2642C90.9539 25.2642 91.7129 25.468 92.2664 25.8757C92.8232 26.2834 93.1481 26.8385 93.2409 27.5412Z"
            fill="white" />
        <path
            d="M23.049 43.2734H21.4936C21.4652 43.0722 21.4072 42.8935 21.3196 42.7372C21.232 42.5786 21.1196 42.4437 20.9822 42.3324C20.8449 42.2211 20.6863 42.1359 20.5064 42.0767C20.3288 42.0175 20.1359 41.9879 19.9276 41.9879C19.5511 41.9879 19.2232 42.0814 18.9439 42.2685C18.6645 42.4531 18.4479 42.723 18.294 43.0781C18.1402 43.4309 18.0632 43.8594 18.0632 44.3636C18.0632 44.8821 18.1402 45.3177 18.294 45.6705C18.4503 46.0232 18.6681 46.2895 18.9474 46.4695C19.2268 46.6494 19.55 46.7393 19.9169 46.7393C20.1229 46.7393 20.3134 46.7121 20.4886 46.6577C20.6662 46.6032 20.8236 46.5239 20.9609 46.4197C21.0982 46.3132 21.2119 46.1842 21.3018 46.0327C21.3942 45.8812 21.4581 45.7083 21.4936 45.5142L23.049 45.5213C23.0088 45.8551 22.9081 46.1771 22.7472 46.4872C22.5885 46.795 22.3743 47.0708 22.1044 47.3146C21.8369 47.5561 21.5173 47.7479 21.1456 47.8899C20.7763 48.0296 20.3584 48.0994 19.892 48.0994C19.2434 48.0994 18.6634 47.9527 18.152 47.6591C17.643 47.3655 17.2405 46.9406 16.9446 46.3842C16.651 45.8279 16.5043 45.1544 16.5043 44.3636C16.5043 43.5705 16.6534 42.8958 16.9517 42.3395C17.25 41.7831 17.6548 41.3594 18.1662 41.0682C18.6776 40.7746 19.2528 40.6278 19.892 40.6278C20.3134 40.6278 20.7041 40.687 21.0639 40.8054C21.4261 40.9238 21.7469 41.0966 22.0263 41.3239C22.3056 41.5488 22.5329 41.8246 22.7081 42.1513C22.8857 42.478 22.9993 42.852 23.049 43.2734ZM26.5877 48.1065C26.0361 48.1065 25.5591 47.9893 25.1566 47.755C24.7565 47.5182 24.4476 47.1892 24.2298 46.7678C24.012 46.344 23.9031 45.8527 23.9031 45.294C23.9031 44.7306 24.012 44.2382 24.2298 43.8168C24.4476 43.393 24.7565 43.0639 25.1566 42.8295C25.5591 42.5928 26.0361 42.4744 26.5877 42.4744C27.1393 42.4744 27.6152 42.5928 28.0153 42.8295C28.4177 43.0639 28.7279 43.393 28.9457 43.8168C29.1635 44.2382 29.2724 44.7306 29.2724 45.294C29.2724 45.8527 29.1635 46.344 28.9457 46.7678C28.7279 47.1892 28.4177 47.5182 28.0153 47.755C27.6152 47.9893 27.1393 48.1065 26.5877 48.1065ZM26.5948 46.9347C26.8458 46.9347 27.0553 46.8636 27.2234 46.7216C27.3915 46.5772 27.5181 46.3807 27.6033 46.1321C27.6909 45.8835 27.7347 45.6006 27.7347 45.2834C27.7347 44.9661 27.6909 44.6832 27.6033 44.4347C27.5181 44.1861 27.3915 43.9896 27.2234 43.8452C27.0553 43.7008 26.8458 43.6286 26.5948 43.6286C26.3415 43.6286 26.1284 43.7008 25.9556 43.8452C25.7852 43.9896 25.6561 44.1861 25.5685 44.4347C25.4833 44.6832 25.4407 44.9661 25.4407 45.2834C25.4407 45.6006 25.4833 45.8835 25.5685 46.1321C25.6561 46.3807 25.7852 46.5772 25.9556 46.7216C26.1284 46.8636 26.3415 46.9347 26.5948 46.9347ZM31.7688 44.8466V48H30.256V42.5455H31.6978V43.5078H31.7617C31.8825 43.1906 32.0849 42.9396 32.369 42.755C32.6531 42.5679 32.9975 42.4744 33.4023 42.4744C33.7811 42.4744 34.1114 42.5573 34.3931 42.723C34.6748 42.8887 34.8938 43.1255 35.0501 43.4332C35.2063 43.7386 35.2844 44.1032 35.2844 44.527V48H33.7717V44.7969C33.774 44.4631 33.6888 44.2027 33.516 44.0156C33.3432 43.8262 33.1052 43.7315 32.8022 43.7315C32.5986 43.7315 32.4187 43.7753 32.2624 43.8629C32.1085 43.9505 31.9878 44.0784 31.9002 44.2464C31.815 44.4122 31.7712 44.6122 31.7688 44.8466ZM39.378 42.5455V43.6818H36.0932V42.5455H39.378ZM36.839 41.2386H38.3517V46.3239C38.3517 46.4635 38.373 46.5724 38.4157 46.6506C38.4583 46.7263 38.5175 46.7796 38.5932 46.8104C38.6713 46.8411 38.7613 46.8565 38.8631 46.8565C38.9341 46.8565 39.0051 46.8506 39.0762 46.8388C39.1472 46.8246 39.2016 46.8139 39.2395 46.8068L39.4775 47.9325C39.4017 47.9562 39.2952 47.9834 39.1578 48.0142C39.0205 48.0473 38.8536 48.0675 38.6571 48.0746C38.2926 48.0888 37.973 48.0402 37.6983 47.929C37.4261 47.8177 37.2142 47.6449 37.0627 47.4105C36.9112 47.1761 36.8366 46.8802 36.839 46.5227V41.2386ZM42.7907 48.1065C42.2296 48.1065 41.7466 47.9929 41.3418 47.7656C40.9393 47.536 40.6292 47.2116 40.4114 46.7926C40.1936 46.3712 40.0847 45.8729 40.0847 45.2976C40.0847 44.7365 40.1936 44.2441 40.4114 43.8203C40.6292 43.3965 40.9358 43.0663 41.3311 42.8295C41.7289 42.5928 42.1953 42.4744 42.7303 42.4744C43.0901 42.4744 43.4251 42.5324 43.7353 42.6484C44.0478 42.7621 44.32 42.9337 44.552 43.1634C44.7864 43.393 44.9687 43.6818 45.0989 44.0298C45.2291 44.3755 45.2942 44.7803 45.2942 45.2443V45.6598H40.6884V44.7223H43.8702C43.8702 44.5045 43.8229 44.3116 43.7282 44.1435C43.6335 43.9754 43.5021 43.844 43.334 43.7493C43.1683 43.6522 42.9753 43.6037 42.7551 43.6037C42.5255 43.6037 42.3219 43.657 42.1444 43.7635C41.9692 43.8677 41.8319 44.0085 41.7324 44.1861C41.633 44.3613 41.5821 44.5566 41.5797 44.772V45.6634C41.5797 45.9332 41.6294 46.1664 41.7289 46.3629C41.8307 46.5594 41.9739 46.7109 42.1586 46.8175C42.3432 46.924 42.5622 46.9773 42.8155 46.9773C42.9836 46.9773 43.1375 46.9536 43.2772 46.9062C43.4168 46.8589 43.5364 46.7879 43.6358 46.6932C43.7353 46.5985 43.811 46.4825 43.8631 46.3452L45.2623 46.4375C45.1912 46.7737 45.0456 47.0672 44.8255 47.3182C44.6077 47.5668 44.3259 47.7609 43.9803 47.9006C43.637 48.0379 43.2405 48.1065 42.7907 48.1065ZM47.7942 44.8466V48H46.2814V42.5455H47.7232V43.5078H47.7871C47.9078 43.1906 48.1103 42.9396 48.3944 42.755C48.6784 42.5679 49.0229 42.4744 49.4277 42.4744C49.8065 42.4744 50.1368 42.5573 50.4185 42.723C50.7002 42.8887 50.9192 43.1255 51.0755 43.4332C51.2317 43.7386 51.3098 44.1032 51.3098 44.527V48H49.7971V44.7969C49.7994 44.4631 49.7142 44.2027 49.5414 44.0156C49.3685 43.8262 49.1306 43.7315 48.8276 43.7315C48.624 43.7315 48.4441 43.7753 48.2878 43.8629C48.1339 43.9505 48.0132 44.0784 47.9256 44.2464C47.8404 44.4122 47.7966 44.6122 47.7942 44.8466ZM55.4034 42.5455V43.6818H52.1186V42.5455H55.4034ZM52.8643 41.2386H54.3771V46.3239C54.3771 46.4635 54.3984 46.5724 54.4411 46.6506C54.4837 46.7263 54.5429 46.7796 54.6186 46.8104C54.6967 46.8411 54.7867 46.8565 54.8885 46.8565C54.9595 46.8565 55.0305 46.8506 55.1016 46.8388C55.1726 46.8246 55.227 46.8139 55.2649 46.8068L55.5028 47.9325C55.4271 47.9562 55.3205 47.9834 55.1832 48.0142C55.0459 48.0473 54.879 48.0675 54.6825 48.0746C54.3179 48.0888 53.9983 48.0402 53.7237 47.929C53.4515 47.8177 53.2396 47.6449 53.0881 47.4105C52.9366 47.1761 52.862 46.8802 52.8643 46.5227V41.2386ZM65.1486 43.2734H63.5932C63.5648 43.0722 63.5068 42.8935 63.4192 42.7372C63.3316 42.5786 63.2192 42.4437 63.0819 42.3324C62.9445 42.2211 62.7859 42.1359 62.606 42.0767C62.4284 42.0175 62.2355 41.9879 62.0272 41.9879C61.6507 41.9879 61.3229 42.0814 61.0435 42.2685C60.7641 42.4531 60.5475 42.723 60.3936 43.0781C60.2398 43.4309 60.1628 43.8594 60.1628 44.3636C60.1628 44.8821 60.2398 45.3177 60.3936 45.6705C60.5499 46.0232 60.7677 46.2895 61.0471 46.4695C61.3264 46.6494 61.6496 46.7393 62.0165 46.7393C62.2225 46.7393 62.4131 46.7121 62.5882 46.6577C62.7658 46.6032 62.9232 46.5239 63.0605 46.4197C63.1979 46.3132 63.3115 46.1842 63.4015 46.0327C63.4938 45.8812 63.5577 45.7083 63.5932 45.5142L65.1486 45.5213C65.1084 45.8551 65.0078 46.1771 64.8468 46.4872C64.6882 46.795 64.4739 47.0708 64.204 47.3146C63.9365 47.5561 63.6169 47.7479 63.2452 47.8899C62.8759 48.0296 62.458 48.0994 61.9917 48.0994C61.343 48.0994 60.763 47.9527 60.2516 47.6591C59.7426 47.3655 59.3401 46.9406 59.0442 46.3842C58.7507 45.8279 58.6039 45.1544 58.6039 44.3636C58.6039 43.5705 58.753 42.8958 59.0513 42.3395C59.3496 41.7831 59.7544 41.3594 60.2658 41.0682C60.7772 40.7746 61.3525 40.6278 61.9917 40.6278C62.4131 40.6278 62.8037 40.687 63.1635 40.8054C63.5257 40.9238 63.8465 41.0966 64.1259 41.3239C64.4052 41.5488 64.6325 41.8246 64.8077 42.1513C64.9853 42.478 65.0989 42.852 65.1486 43.2734ZM66.2228 48V42.5455H67.6895V43.4972H67.7463C67.8457 43.1586 68.0126 42.9029 68.247 42.7301C68.4814 42.5549 68.7512 42.4673 69.0566 42.4673C69.1324 42.4673 69.2141 42.4721 69.3017 42.4815C69.3893 42.491 69.4662 42.504 69.5325 42.5206V43.8629C69.4615 43.8416 69.3632 43.8227 69.2377 43.8061C69.1123 43.7895 68.9975 43.7812 68.8933 43.7812C68.6708 43.7812 68.4719 43.8298 68.2967 43.9268C68.1239 44.0215 67.9866 44.1541 67.8848 44.3246C67.7853 44.495 67.7356 44.6915 67.7356 44.9141V48H66.2228ZM72.5465 48.1065C71.9854 48.1065 71.5025 47.9929 71.0977 47.7656C70.6952 47.536 70.3851 47.2116 70.1673 46.7926C69.9495 46.3712 69.8406 45.8729 69.8406 45.2976C69.8406 44.7365 69.9495 44.2441 70.1673 43.8203C70.3851 43.3965 70.6916 43.0663 71.087 42.8295C71.4847 42.5928 71.9511 42.4744 72.4862 42.4744C72.846 42.4744 73.181 42.5324 73.4911 42.6484C73.8036 42.7621 74.0759 42.9337 74.3079 43.1634C74.5423 43.393 74.7246 43.6818 74.8548 44.0298C74.985 44.3755 75.0501 44.7803 75.0501 45.2443V45.6598H70.4442V44.7223H73.6261C73.6261 44.5045 73.5787 44.3116 73.484 44.1435C73.3893 43.9754 73.2579 43.844 73.0898 43.7493C72.9241 43.6522 72.7312 43.6037 72.511 43.6037C72.2814 43.6037 72.0778 43.657 71.9002 43.7635C71.725 43.8677 71.5877 44.0085 71.4883 44.1861C71.3888 44.3613 71.3379 44.5566 71.3356 44.772V45.6634C71.3356 45.9332 71.3853 46.1664 71.4847 46.3629C71.5865 46.5594 71.7298 46.7109 71.9144 46.8175C72.0991 46.924 72.3181 46.9773 72.5714 46.9773C72.7395 46.9773 72.8933 46.9536 73.033 46.9062C73.1727 46.8589 73.2923 46.7879 73.3917 46.6932C73.4911 46.5985 73.5669 46.4825 73.619 46.3452L75.0181 46.4375C74.9471 46.7737 74.8015 47.0672 74.5813 47.3182C74.3635 47.5668 74.0818 47.7609 73.7362 47.9006C73.3929 48.0379 72.9963 48.1065 72.5465 48.1065ZM77.5927 48.103C77.2447 48.103 76.9345 48.0426 76.6623 47.9219C76.39 47.7988 76.1746 47.6177 76.016 47.3786C75.8597 47.1371 75.7816 46.8364 75.7816 46.4766C75.7816 46.1735 75.8372 45.919 75.9485 45.7131C76.0598 45.5071 76.2113 45.3414 76.4031 45.2159C76.5948 45.0904 76.8126 44.9957 77.0565 44.9318C77.3027 44.8679 77.5607 44.8229 77.8306 44.7969C78.1478 44.7637 78.4035 44.733 78.5977 44.7045C78.7918 44.6738 78.9326 44.6288 79.0202 44.5696C79.1078 44.5104 79.1516 44.4228 79.1516 44.3068V44.2855C79.1516 44.0606 79.0806 43.8866 78.9386 43.7635C78.7989 43.6404 78.6 43.5788 78.342 43.5788C78.0697 43.5788 77.8531 43.6392 77.6921 43.7599C77.5311 43.8783 77.4246 44.0275 77.3725 44.2074L75.9734 44.0938C76.0444 43.7623 76.1841 43.4759 76.3924 43.2344C76.6007 42.9905 76.8694 42.8035 77.1985 42.6733C77.5299 42.5407 77.9135 42.4744 78.3491 42.4744C78.6521 42.4744 78.9421 42.5099 79.2191 42.581C79.4985 42.652 79.7459 42.7621 79.9613 42.9112C80.1791 43.0604 80.3507 43.2521 80.4762 43.4865C80.6017 43.7185 80.6644 43.9967 80.6644 44.321V48H79.2298V47.2436H79.1871C79.0996 47.4141 78.9824 47.5644 78.8356 47.6946C78.6888 47.8224 78.5124 47.9231 78.3065 47.9964C78.1005 48.0675 77.8626 48.103 77.5927 48.103ZM78.0259 47.0589C78.2485 47.0589 78.445 47.0152 78.6154 46.9276C78.7859 46.8376 78.9196 46.7169 79.0167 46.5653C79.1138 46.4138 79.1623 46.2422 79.1623 46.0504V45.4716C79.1149 45.5024 79.0498 45.5308 78.967 45.5568C78.8865 45.5805 78.7953 45.603 78.6935 45.6243C78.5917 45.6432 78.4899 45.661 78.3881 45.6776C78.2863 45.6918 78.194 45.7048 78.1112 45.7166C77.9336 45.7427 77.7785 45.7841 77.646 45.8409C77.5134 45.8977 77.4104 45.9747 77.337 46.0717C77.2636 46.1664 77.2269 46.2848 77.2269 46.4268C77.2269 46.6328 77.3015 46.7902 77.4506 46.8991C77.6022 47.0057 77.7939 47.0589 78.0259 47.0589ZM84.7393 42.5455V43.6818H81.4545V42.5455H84.7393ZM82.2003 41.2386H83.7131V46.3239C83.7131 46.4635 83.7344 46.5724 83.777 46.6506C83.8196 46.7263 83.8788 46.7796 83.9545 46.8104C84.0327 46.8411 84.1226 46.8565 84.2244 46.8565C84.2955 46.8565 84.3665 46.8506 84.4375 46.8388C84.5085 46.8246 84.563 46.8139 84.6009 46.8068L84.8388 47.9325C84.763 47.9562 84.6565 47.9834 84.5192 48.0142C84.3819 48.0473 84.215 48.0675 84.0185 48.0746C83.6539 48.0888 83.3343 48.0402 83.0597 47.929C82.7874 47.8177 82.5755 47.6449 82.424 47.4105C82.2725 47.1761 82.1979 46.8802 82.2003 46.5227V41.2386ZM88.1307 48.1065C87.5791 48.1065 87.102 47.9893 86.6996 47.755C86.2995 47.5182 85.9905 47.1892 85.7727 46.7678C85.5549 46.344 85.446 45.8527 85.446 45.294C85.446 44.7306 85.5549 44.2382 85.7727 43.8168C85.9905 43.393 86.2995 43.0639 86.6996 42.8295C87.102 42.5928 87.5791 42.4744 88.1307 42.4744C88.6823 42.4744 89.1581 42.5928 89.5582 42.8295C89.9607 43.0639 90.2708 43.393 90.4886 43.8168C90.7064 44.2382 90.8153 44.7306 90.8153 45.294C90.8153 45.8527 90.7064 46.344 90.4886 46.7678C90.2708 47.1892 89.9607 47.5182 89.5582 47.755C89.1581 47.9893 88.6823 48.1065 88.1307 48.1065ZM88.1378 46.9347C88.3887 46.9347 88.5982 46.8636 88.7663 46.7216C88.9344 46.5772 89.0611 46.3807 89.1463 46.1321C89.2339 45.8835 89.2777 45.6006 89.2777 45.2834C89.2777 44.9661 89.2339 44.6832 89.1463 44.4347C89.0611 44.1861 88.9344 43.9896 88.7663 43.8452C88.5982 43.7008 88.3887 43.6286 88.1378 43.6286C87.8845 43.6286 87.6714 43.7008 87.4986 43.8452C87.3281 43.9896 87.1991 44.1861 87.1115 44.4347C87.0263 44.6832 86.9837 44.9661 86.9837 45.2834C86.9837 45.6006 87.0263 45.8835 87.1115 46.1321C87.1991 46.3807 87.3281 46.5772 87.4986 46.7216C87.6714 46.8636 87.8845 46.9347 88.1378 46.9347ZM91.799 48V42.5455H93.2656V43.4972H93.3224C93.4219 43.1586 93.5888 42.9029 93.8232 42.7301C94.0575 42.5549 94.3274 42.4673 94.6328 42.4673C94.7086 42.4673 94.7902 42.4721 94.8778 42.4815C94.9654 42.491 95.0424 42.504 95.1087 42.5206V43.8629C95.0376 43.8416 94.9394 43.8227 94.8139 43.8061C94.6884 43.7895 94.5736 43.7812 94.4695 43.7812C94.2469 43.7812 94.0481 43.8298 93.8729 43.9268C93.7 44.0215 93.5627 44.1541 93.4609 44.3246C93.3615 44.495 93.3118 44.6915 93.3118 44.9141V48H91.799ZM100.429 44.1009L99.0442 44.1861C99.0205 44.0677 98.9696 43.9612 98.8915 43.8665C98.8134 43.7694 98.7104 43.6925 98.5826 43.6357C98.4571 43.5765 98.3068 43.5469 98.1316 43.5469C97.8972 43.5469 97.6995 43.5966 97.5385 43.696C97.3775 43.7931 97.2971 43.9233 97.2971 44.0866C97.2971 44.2169 97.3491 44.3269 97.4533 44.4169C97.5575 44.5069 97.7362 44.5791 97.9895 44.6335L98.9767 44.8324C99.507 44.9413 99.9024 45.1165 100.163 45.358C100.423 45.5994 100.553 45.9167 100.553 46.3097C100.553 46.6671 100.448 46.9808 100.237 47.2507C100.029 47.5206 99.7426 47.7313 99.378 47.8828C99.0158 48.032 98.598 48.1065 98.1245 48.1065C97.4024 48.1065 96.8271 47.9562 96.3986 47.6555C95.9725 47.3525 95.7227 46.9406 95.6493 46.4197L97.1373 46.3416C97.1822 46.5618 97.2911 46.7299 97.464 46.8459C97.6368 46.9595 97.8581 47.0163 98.128 47.0163C98.3932 47.0163 98.6062 46.9654 98.7672 46.8636C98.9306 46.7595 99.0134 46.6257 99.0158 46.4624C99.0134 46.325 98.9554 46.2126 98.8418 46.125C98.7282 46.035 98.553 45.9664 98.3162 45.919L97.3716 45.7308C96.839 45.6243 96.4424 45.4396 96.182 45.1768C95.9239 44.9141 95.7949 44.5791 95.7949 44.1719C95.7949 43.8215 95.8896 43.5196 96.079 43.2663C96.2708 43.013 96.5395 42.8177 96.8851 42.6804C97.2331 42.5431 97.6403 42.4744 98.1067 42.4744C98.7956 42.4744 99.3378 42.62 99.7331 42.9112C100.131 43.2024 100.363 43.599 100.429 44.1009Z"
            fill="#C9FCE9" fill-opacity="0.8" />
        <mask id="path-5-inside-1_429_11516" fill="white">
            <path
                d="M156 26C156 20.4772 160.477 16 166 16H188V36H166C160.477 36 156 31.5228 156 26V26Z" />
        </mask>
        <path d="M156 26C156 20.4772 160.477 16 166 16H188V36H166C160.477 36 156 31.5228 156 26V26Z"
            fill="white" />
        <path d="M156 26C156 20.4772 160.477 16 166 16H188V36H166C160.477 36 156 31.5228 156 26V26Z"
            fill="url(#paint1_radial_429_11516)" fill-opacity="0.6" />
        <path d="M156 16H188H156ZM188 36H156H188ZM156 36V16V36ZM189 16V36H187V16H189Z" fill="white"
            mask="url(#path-5-inside-1_429_11516)" />
        <path d="M178 26H166" stroke="white" stroke-width="1.6" stroke-linecap="round"
            stroke-linejoin="round" />
        <path d="M174 21.3334L178 26L174 30.6667" stroke="white" stroke-width="1.6"
            stroke-linecap="round" stroke-linejoin="round" />
        <path
            d="M172.5 66C172.5 83.3897 158.18 97.5 140.5 97.5C122.82 97.5 108.5 83.3897 108.5 66C108.5 48.6103 122.82 34.5 140.5 34.5C158.18 34.5 172.5 48.6103 172.5 66Z"
            stroke="#C9FCE9" stroke-opacity="0.4" />
        <path
            d="M190.5 66C190.5 93.895 168.11 116.5 140.5 116.5C112.89 116.5 90.5 93.895 90.5 66C90.5 38.105 112.89 15.5 140.5 15.5C168.11 15.5 190.5 38.105 190.5 66Z"
            stroke="#C9FCE9" stroke-opacity="0.12" />
        <g clip-path="url(#clip1_429_11516)">
            <rect x="153.389" y="45.5638" width="2.99414" height="4.34766" rx="0.9"
                transform="rotate(-15 153.389 45.5638)" fill="url(#paint2_linear_429_11516)" />
            <rect x="153.389" y="45.5638" width="2.99414" height="4.34766" rx="0.9"
                transform="rotate(-15 153.389 45.5638)" fill="url(#paint3_linear_429_11516)" />
            <path
                d="M154.404 49.3539L153.502 45.9864L156.042 45.3057L156.945 48.6732L154.404 49.3539Z"
                fill="url(#paint4_radial_429_11516)" />
            <path
                d="M154.404 49.3539L153.502 45.9864L156.042 45.3057L156.945 48.6732L154.404 49.3539Z"
                fill="url(#paint5_linear_429_11516)" />
            <path
                d="M154.404 49.3539L153.502 45.9864L156.042 45.3057L156.945 48.6732L154.404 49.3539Z"
                fill="url(#paint6_linear_429_11516)" />
            <path
                d="M154.404 49.3539L153.502 45.9864L156.042 45.3057L156.945 48.6732L154.404 49.3539Z"
                fill="url(#paint7_radial_429_11516)" />
            <g filter="url(#filter0_f_429_11516)">
                <path
                    d="M155.684 46.7147C155.624 46.492 155.757 46.2631 155.979 46.2034L156.35 46.1042C156.572 46.0446 156.801 46.1767 156.861 46.3994C156.92 46.6221 156.788 46.851 156.566 46.9106C156.788 46.8511 157.017 46.9833 157.077 47.2059C157.124 47.3834 157.05 47.5649 156.905 47.6614C157.079 47.6724 157.234 47.7924 157.282 47.9701C157.341 48.1928 157.209 48.4217 156.986 48.4813L156.616 48.5805C156.394 48.6402 156.165 48.508 156.105 48.2854C156.06 48.1168 156.125 47.9447 156.255 47.8452C156.068 47.8482 155.896 47.7245 155.846 47.5357C155.786 47.313 155.918 47.0841 156.141 47.0245L156.195 47.0099C155.973 47.0694 155.744 46.9373 155.684 46.7147Z"
                    fill="url(#paint8_linear_429_11516)" />
            </g>
            <path
                d="M153.849 47.8252C153.541 47.9078 153.358 48.2239 153.44 48.5311C153.441 48.5339 153.442 48.5366 153.442 48.5394L153.746 49.6737C153.848 50.0549 154.157 50.3258 154.52 50.3992C154.634 50.4222 154.732 50.5095 154.739 50.6253L154.78 51.2772L157.047 50.6698L157.044 50.0265C157.044 49.924 157.092 49.8271 157.173 49.7646L157.443 49.582C157.614 49.4761 157.733 49.2236 157.731 48.9682L157.726 48.8387L157.332 48.9687C157.275 48.9812 157.224 49.007 157.172 49.0328C157.152 49.0425 157.132 49.0523 157.112 49.0613C157.093 49.0703 157.072 49.0777 157.051 49.0835L154.911 49.6568C154.7 49.7133 154.484 49.5888 154.427 49.3787L154.363 49.1388C154.327 49.0055 154.406 48.8684 154.54 48.8327L154.761 48.7735C155.069 48.6909 155.252 48.3748 155.17 48.0676C155.088 47.7603 154.771 47.5782 154.463 47.6609L153.849 47.8252Z"
                fill="#F6C32F" />
            <path
                d="M153.849 47.8252C153.541 47.9078 153.358 48.2239 153.44 48.5311C153.441 48.5339 153.442 48.5366 153.442 48.5394L153.746 49.6737C153.848 50.0549 154.157 50.3258 154.52 50.3992C154.634 50.4222 154.732 50.5095 154.739 50.6253L154.78 51.2772L157.047 50.6698L157.044 50.0265C157.044 49.924 157.092 49.8271 157.173 49.7646L157.443 49.582C157.614 49.4761 157.733 49.2236 157.731 48.9682L157.726 48.8387L157.332 48.9687C157.275 48.9812 157.224 49.007 157.172 49.0328C157.152 49.0425 157.132 49.0523 157.112 49.0613C157.093 49.0703 157.072 49.0777 157.051 49.0835L154.911 49.6568C154.7 49.7133 154.484 49.5888 154.427 49.3787L154.363 49.1388C154.327 49.0055 154.406 48.8684 154.54 48.8327L154.761 48.7735C155.069 48.6909 155.252 48.3748 155.17 48.0676C155.088 47.7603 154.771 47.5782 154.463 47.6609L153.849 47.8252Z"
                fill="url(#paint9_radial_429_11516)" />
            <path
                d="M153.849 47.8252C153.541 47.9078 153.358 48.2239 153.44 48.5311C153.441 48.5339 153.442 48.5366 153.442 48.5394L153.746 49.6737C153.848 50.0549 154.157 50.3258 154.52 50.3992C154.634 50.4222 154.732 50.5095 154.739 50.6253L154.78 51.2772L157.047 50.6698L157.044 50.0265C157.044 49.924 157.092 49.8271 157.173 49.7646L157.443 49.582C157.614 49.4761 157.733 49.2236 157.731 48.9682L157.726 48.8387L157.332 48.9687C157.275 48.9812 157.224 49.007 157.172 49.0328C157.152 49.0425 157.132 49.0523 157.112 49.0613C157.093 49.0703 157.072 49.0777 157.051 49.0835L154.911 49.6568C154.7 49.7133 154.484 49.5888 154.427 49.3787L154.363 49.1388C154.327 49.0055 154.406 48.8684 154.54 48.8327L154.761 48.7735C155.069 48.6909 155.252 48.3748 155.17 48.0676C155.088 47.7603 154.771 47.5782 154.463 47.6609L153.849 47.8252Z"
                fill="url(#paint10_radial_429_11516)" />
            <path
                d="M153.849 47.8252C153.541 47.9078 153.358 48.2239 153.44 48.5311C153.441 48.5339 153.442 48.5366 153.442 48.5394L153.746 49.6737C153.848 50.0549 154.157 50.3258 154.52 50.3992C154.634 50.4222 154.732 50.5095 154.739 50.6253L154.78 51.2772L157.047 50.6698L157.044 50.0265C157.044 49.924 157.092 49.8271 157.173 49.7646L157.443 49.582C157.614 49.4761 157.733 49.2236 157.731 48.9682L157.726 48.8387L157.332 48.9687C157.275 48.9812 157.224 49.007 157.172 49.0328C157.152 49.0425 157.132 49.0523 157.112 49.0613C157.093 49.0703 157.072 49.0777 157.051 49.0835L154.911 49.6568C154.7 49.7133 154.484 49.5888 154.427 49.3787L154.363 49.1388C154.327 49.0055 154.406 48.8684 154.54 48.8327L154.761 48.7735C155.069 48.6909 155.252 48.3748 155.17 48.0676C155.088 47.7603 154.771 47.5782 154.463 47.6609L153.849 47.8252Z"
                fill="url(#paint11_radial_429_11516)" />
            <path
                d="M153.849 47.8252C153.541 47.9078 153.358 48.2239 153.44 48.5311C153.441 48.5339 153.442 48.5366 153.442 48.5394L153.746 49.6737C153.848 50.0549 154.157 50.3258 154.52 50.3992C154.634 50.4222 154.732 50.5095 154.739 50.6253L154.78 51.2772L157.047 50.6698L157.044 50.0265C157.044 49.924 157.092 49.8271 157.173 49.7646L157.443 49.582C157.614 49.4761 157.733 49.2236 157.731 48.9682L157.726 48.8387L157.332 48.9687C157.275 48.9812 157.224 49.007 157.172 49.0328C157.152 49.0425 157.132 49.0523 157.112 49.0613C157.093 49.0703 157.072 49.0777 157.051 49.0835L154.911 49.6568C154.7 49.7133 154.484 49.5888 154.427 49.3787L154.363 49.1388C154.327 49.0055 154.406 48.8684 154.54 48.8327L154.761 48.7735C155.069 48.6909 155.252 48.3748 155.17 48.0676C155.088 47.7603 154.771 47.5782 154.463 47.6609L153.849 47.8252Z"
                fill="url(#paint12_radial_429_11516)" />
            <path
                d="M154.796 51.0889C154.582 51.1462 154.427 51.3314 154.409 51.552L154.189 54.1549C154.178 54.2928 154.081 54.4086 153.947 54.4444L149.585 55.6132C149.445 55.6507 149.362 55.7946 149.4 55.9347L150.163 58.7819C150.2 58.9219 150.344 59.005 150.484 58.9675L156.078 57.4685C156.818 57.2703 157.343 56.6139 157.374 55.8486L157.572 50.9328C157.584 50.638 157.307 50.4162 157.022 50.4926L154.796 51.0889Z"
                fill="#EB448F" />
            <path
                d="M154.796 51.0889C154.582 51.1462 154.427 51.3314 154.409 51.552L154.189 54.1549C154.178 54.2928 154.081 54.4086 153.947 54.4444L149.585 55.6132C149.445 55.6507 149.362 55.7946 149.4 55.9347L150.163 58.7819C150.2 58.9219 150.344 59.005 150.484 58.9675L156.078 57.4685C156.818 57.2703 157.343 56.6139 157.374 55.8486L157.572 50.9328C157.584 50.638 157.307 50.4162 157.022 50.4926L154.796 51.0889Z"
                fill="url(#paint13_linear_429_11516)" />
            <path
                d="M154.796 51.0889C154.582 51.1462 154.427 51.3314 154.409 51.552L154.189 54.1549C154.178 54.2928 154.081 54.4086 153.947 54.4444L149.585 55.6132C149.445 55.6507 149.362 55.7946 149.4 55.9347L150.163 58.7819C150.2 58.9219 150.344 59.005 150.484 58.9675L156.078 57.4685C156.818 57.2703 157.343 56.6139 157.374 55.8486L157.572 50.9328C157.584 50.638 157.307 50.4162 157.022 50.4926L154.796 51.0889Z"
                fill="url(#paint14_linear_429_11516)" />
            <path
                d="M154.796 51.0889C154.582 51.1462 154.427 51.3314 154.409 51.552L154.189 54.1549C154.178 54.2928 154.081 54.4086 153.947 54.4444L149.585 55.6132C149.445 55.6507 149.362 55.7946 149.4 55.9347L150.163 58.7819C150.2 58.9219 150.344 59.005 150.484 58.9675L156.078 57.4685C156.818 57.2703 157.343 56.6139 157.374 55.8486L157.572 50.9328C157.584 50.638 157.307 50.4162 157.022 50.4926L154.796 51.0889Z"
                fill="url(#paint15_linear_429_11516)" />
            <path
                d="M154.796 51.0889C154.582 51.1462 154.427 51.3314 154.409 51.552L154.189 54.1549C154.178 54.2928 154.081 54.4086 153.947 54.4444L149.585 55.6132C149.445 55.6507 149.362 55.7946 149.4 55.9347L150.163 58.7819C150.2 58.9219 150.344 59.005 150.484 58.9675L156.078 57.4685C156.818 57.2703 157.343 56.6139 157.374 55.8486L157.572 50.9328C157.584 50.638 157.307 50.4162 157.022 50.4926L154.796 51.0889Z"
                fill="url(#paint16_linear_429_11516)" />
            <path
                d="M154.796 51.0889C154.582 51.1462 154.427 51.3314 154.409 51.552L154.189 54.1549C154.178 54.2928 154.081 54.4086 153.947 54.4444L149.585 55.6132C149.445 55.6507 149.362 55.7946 149.4 55.9347L150.163 58.7819C150.2 58.9219 150.344 59.005 150.484 58.9675L156.078 57.4685C156.818 57.2703 157.343 56.6139 157.374 55.8486L157.572 50.9328C157.584 50.638 157.307 50.4162 157.022 50.4926L154.796 51.0889Z"
                fill="url(#paint17_radial_429_11516)" />
            <path
                d="M154.796 51.0889C154.582 51.1462 154.427 51.3314 154.409 51.552L154.189 54.1549C154.178 54.2928 154.081 54.4086 153.947 54.4444L149.585 55.6132C149.445 55.6507 149.362 55.7946 149.4 55.9347L150.163 58.7819C150.2 58.9219 150.344 59.005 150.484 58.9675L156.078 57.4685C156.818 57.2703 157.343 56.6139 157.374 55.8486L157.572 50.9328C157.584 50.638 157.307 50.4162 157.022 50.4926L154.796 51.0889Z"
                fill="url(#paint18_radial_429_11516)" />
            <path
                d="M154.796 51.0889C154.582 51.1462 154.427 51.3314 154.409 51.552L154.189 54.1549C154.178 54.2928 154.081 54.4086 153.947 54.4444L149.585 55.6132C149.445 55.6507 149.362 55.7946 149.4 55.9347L150.163 58.7819C150.2 58.9219 150.344 59.005 150.484 58.9675L156.078 57.4685C156.818 57.2703 157.343 56.6139 157.374 55.8486L157.572 50.9328C157.584 50.638 157.307 50.4162 157.022 50.4926L154.796 51.0889Z"
                fill="url(#paint19_radial_429_11516)" />
            <rect x="156.316" y="48.6609" width="1.32446" height="0.916016" rx="0.458008"
                transform="rotate(-15 156.316 48.6609)" fill="url(#paint20_linear_429_11516)" />
            <rect x="156.316" y="48.6609" width="1.32446" height="0.916016" rx="0.458008"
                transform="rotate(-15 156.316 48.6609)" fill="url(#paint21_radial_429_11516)" />
            <rect x="156.316" y="48.6609" width="1.32446" height="0.916016" rx="0.458008"
                transform="rotate(-15 156.316 48.6609)" fill="url(#paint22_radial_429_11516)" />
            <rect x="156.316" y="48.6609" width="1.32446" height="0.916016" rx="0.458008"
                transform="rotate(-15 156.316 48.6609)" fill="url(#paint23_linear_429_11516)" />
            <rect x="155.671" y="46.1128" width="1.55518" height="0.916016" rx="0.458008"
                transform="rotate(-15 155.671 46.1128)" fill="url(#paint24_linear_429_11516)" />
            <rect x="155.671" y="46.1128" width="1.55518" height="0.916016" rx="0.458008"
                transform="rotate(-15 155.671 46.1128)" fill="url(#paint25_radial_429_11516)" />
            <rect x="155.671" y="46.1128" width="1.55518" height="0.916016" rx="0.458008"
                transform="rotate(-15 155.671 46.1128)" fill="url(#paint26_radial_429_11516)" />
            <rect x="156.133" y="47.8362" width="1.55518" height="0.916016" rx="0.458008"
                transform="rotate(-15 156.133 47.8362)" fill="url(#paint27_linear_429_11516)" />
            <rect x="156.133" y="47.8362" width="1.55518" height="0.916016" rx="0.458008"
                transform="rotate(-15 156.133 47.8362)" fill="url(#paint28_radial_429_11516)" />
            <rect x="156.133" y="47.8362" width="1.55518" height="0.916016" rx="0.458008"
                transform="rotate(-15 156.133 47.8362)" fill="url(#paint29_radial_429_11516)" />
            <rect x="156.133" y="47.8362" width="1.55518" height="0.916016" rx="0.458008"
                transform="rotate(-15 156.133 47.8362)" fill="url(#paint30_linear_429_11516)" />
            <rect x="155.839" y="47.0162" width="1.62695" height="0.916016" rx="0.458008"
                transform="rotate(-15 155.839 47.0162)" fill="url(#paint31_linear_429_11516)" />
            <rect x="155.839" y="47.0162" width="1.62695" height="0.916016" rx="0.458008"
                transform="rotate(-15 155.839 47.0162)" fill="url(#paint32_radial_429_11516)" />
            <rect x="155.839" y="47.0162" width="1.62695" height="0.916016" rx="0.458008"
                transform="rotate(-15 155.839 47.0162)" fill="url(#paint33_radial_429_11516)" />
            <rect x="155.839" y="47.0162" width="1.62695" height="0.916016" rx="0.458008"
                transform="rotate(-15 155.839 47.0162)" fill="url(#paint34_linear_429_11516)" />
        </g>
        <circle cx="141" cy="66" r="69.5" stroke="#C9FCE9" stroke-opacity="0.05" />
        <g clip-path="url(#clip2_429_11516)">
            <path
                d="M144.229 79.4947C151.697 77.4935 156.13 69.8168 154.128 62.3482C152.127 54.8797 144.45 50.4476 136.982 52.4487C129.513 54.4499 125.081 62.1266 127.082 69.5952C129.084 77.0637 136.76 81.4958 144.229 79.4947Z"
                fill="url(#paint35_radial_429_11516)" />
            <path
                d="M144.229 79.4947C151.697 77.4935 156.13 69.8168 154.128 62.3482C152.127 54.8797 144.45 50.4476 136.982 52.4487C129.513 54.4499 125.081 62.1266 127.082 69.5952C129.084 77.0637 136.76 81.4958 144.229 79.4947Z"
                fill="url(#paint36_radial_429_11516)" />
            <path
                d="M144.229 79.4947C151.697 77.4935 156.13 69.8168 154.128 62.3482C152.127 54.8797 144.45 50.4476 136.982 52.4487C129.513 54.4499 125.081 62.1266 127.082 69.5952C129.084 77.0637 136.76 81.4958 144.229 79.4947Z"
                fill="url(#paint37_radial_429_11516)" />
            <path fill-rule="evenodd" clip-rule="evenodd"
                d="M130.844 76.0097L131.13 75.4422C131.321 75.0703 131.369 74.6329 131.26 74.2272L130.805 72.5272C130.719 72.2084 130.903 71.89 131.222 71.8046C131.444 71.745 131.571 71.5246 131.512 71.3024L131.359 70.7325C131.217 70.2013 130.666 69.8831 130.134 70.0254C129.603 70.1678 129.052 69.8496 128.91 69.3183L128.778 68.8257C128.708 68.5649 128.863 68.2954 129.124 68.2256C129.395 68.1531 129.686 68.3131 129.739 68.5888C129.809 68.8496 130.078 69.0051 130.339 68.9353L130.919 68.78C131.411 68.648 131.701 68.1458 131.569 67.6532L131.419 67.093C131.347 66.8225 131.502 66.5531 131.773 66.4806C132.043 66.4081 132.313 66.5637 132.385 66.8341L132.631 67.7518C132.711 68.0512 133.015 68.2183 133.305 68.1407C133.546 68.076 133.791 68.2174 133.856 68.4589L134.096 69.3572C134.184 69.6856 134.527 69.8836 134.856 69.7956C135.088 69.7335 135.257 69.5536 135.309 69.3222L136.032 65.7637C136.093 65.4886 136.303 65.2667 136.573 65.1943C136.883 65.1114 137.207 65.2418 137.391 65.5031L138.608 67.3407C138.748 67.5518 139.002 67.6495 139.243 67.5848C139.552 67.5019 139.736 67.1835 139.653 66.8744L139.156 65.0198C139.084 64.7494 139.239 64.4799 139.51 64.4075C139.78 64.335 139.936 64.0655 139.863 63.7951L139.491 62.4041C139.341 61.8439 139.67 61.2586 140.24 61.1059C140.742 60.9713 141.039 60.4569 140.895 59.9572L140.864 59.8413C140.73 59.3391 140.215 59.0421 139.713 59.1767L139.172 59.3216C138.902 59.3941 138.632 59.2385 138.56 58.968C138.487 58.6976 138.643 58.4281 138.913 58.3557L140.488 57.9338C140.951 57.8096 141.429 58.0853 141.553 58.549L141.716 59.1575C141.789 59.428 142.058 59.5835 142.329 59.5111C142.599 59.4386 142.755 59.1691 142.682 58.8987L142.532 58.3385C142.258 57.3146 142.866 56.2613 143.89 55.9869L145.416 55.578C145.686 55.5055 145.842 55.2361 145.769 54.9656C145.697 54.6952 145.427 54.5396 145.157 54.6121L142.356 55.3627C142.037 55.4481 141.706 55.2571 141.621 54.9384C141.564 54.7259 141.344 54.5986 141.131 54.6555L136.755 55.828C136.089 56.0066 135.378 55.9797 134.726 55.7506L132.252 54.9002C130.156 56.4313 128.544 58.5096 127.568 60.8699C126.514 63.5572 126.279 66.593 127.083 69.5951C127.762 72.1261 129.092 74.3084 130.844 76.0097ZM143.051 67.9637L142.885 67.344C142.784 66.9673 143.001 66.578 143.382 66.4551C143.565 66.4059 143.76 66.4366 143.919 66.5285L145.866 67.6528C146.035 67.7422 146.149 67.8979 146.199 68.0815C146.3 68.4582 146.073 68.8501 145.697 68.951L145.561 68.9873C145.465 69.0131 145.363 69.0197 145.266 69.0044L144.006 68.7836C143.352 68.7242 143.162 68.3775 143.051 67.9637ZM140.516 68.2789L139.599 68.5248C139.319 68.5998 139.149 68.8938 139.224 69.1739L139.47 70.0915C139.545 70.3716 139.839 70.5413 140.119 70.4663L141.037 70.2204C141.317 70.1453 141.486 69.8514 141.411 69.5713L141.165 68.6537C141.09 68.3735 140.796 68.2038 140.516 68.2789ZM149.036 74.0713L150.16 72.1239C150.249 71.955 150.405 71.8408 150.589 71.7917C150.965 71.6907 151.357 71.917 151.458 72.2937C151.507 72.4772 151.477 72.6718 151.385 72.831L150.261 74.7784C150.171 74.9472 150.015 75.0614 149.832 75.1106C149.455 75.2116 149.063 74.9853 148.962 74.6086C148.913 74.425 148.944 74.2305 149.036 74.0713ZM138.165 70.9795C137.894 71.052 137.625 70.8964 137.553 70.6259L137.294 69.66C137.221 69.3896 137.377 69.1201 137.647 69.0476C137.918 68.9752 138.187 69.1307 138.26 69.4012L138.519 70.3671C138.591 70.6376 138.426 70.9096 138.165 70.9795ZM140.842 62.8083L141.966 60.861C142.055 60.6921 142.211 60.5779 142.394 60.5287C142.771 60.4278 143.163 60.6541 143.264 61.0308C143.313 61.2143 143.283 61.4089 143.191 61.5681L142.066 63.5154C141.977 63.6843 141.821 63.7985 141.638 63.8477C141.261 63.9486 140.869 63.7223 140.768 63.3456C140.719 63.1621 140.75 62.9675 140.842 62.8083ZM141.289 72.9791L141.607 74.1672C141.755 74.7178 142.318 75.043 142.869 74.8955L144.347 74.4995C144.607 74.4296 144.887 74.4686 145.12 74.6029L145.622 74.8928C145.855 75.0272 146.134 75.0662 146.395 74.9963L147.303 74.753C147.68 74.652 147.97 74.3464 148.044 73.9643L148.32 72.6376C148.352 72.4843 148.349 72.3194 148.307 72.1649L148.017 71.083C147.917 70.7063 147.611 70.4155 147.229 70.3419L145.902 70.0658C145.749 70.0345 145.584 70.0372 145.429 70.0787L143.894 70.4902C143.787 70.5186 143.686 70.5664 143.588 70.6239L141.704 71.8636C141.345 72.1049 141.175 72.5541 141.289 72.9791Z"
                fill="url(#paint38_linear_429_11516)" />
            <path fill-rule="evenodd" clip-rule="evenodd"
                d="M130.828 75.9939L131.226 75.204C131.416 74.8321 131.464 74.3946 131.356 73.989L130.9 72.2889C130.815 71.9702 130.998 71.6517 131.317 71.5663C131.539 71.5068 131.667 71.2863 131.607 71.0642L131.454 70.4943C131.312 69.963 130.761 69.6448 130.23 69.7872C129.698 69.9295 129.147 69.6113 129.005 69.0801L128.873 68.5874C128.803 68.3266 128.959 68.0572 129.219 67.9873C129.49 67.9149 129.781 68.0749 129.834 68.3505C129.904 68.6113 130.174 68.7669 130.435 68.697L131.014 68.5417C131.507 68.4097 131.797 67.9076 131.665 67.415L131.515 66.8547C131.442 66.5843 131.598 66.3148 131.868 66.2424C132.139 66.1699 132.408 66.3254 132.48 66.5959L132.726 67.5135C132.807 67.813 133.11 67.9801 133.4 67.9024C133.641 67.8377 133.886 67.9792 133.951 68.2206L134.192 69.119C134.28 69.4474 134.623 69.6454 134.951 69.5574C135.183 69.4952 135.352 69.3153 135.404 69.084L136.128 65.5255C136.189 65.2503 136.398 65.0285 136.669 64.956C136.978 64.8732 137.303 65.0036 137.487 65.2649L138.704 67.1025C138.843 67.3136 139.097 67.4112 139.338 67.3465C139.648 67.2637 139.831 66.9453 139.749 66.6362L139.252 64.7816C139.179 64.5111 139.335 64.2417 139.605 64.1692C139.876 64.0967 140.031 63.8273 139.959 63.5568L139.586 62.1659C139.436 61.6057 139.766 61.0204 140.336 60.8677C140.838 60.7331 141.135 60.2187 140.991 59.719L140.959 59.6031C140.825 59.1008 140.311 58.8038 139.808 58.9384L139.267 59.0834C138.997 59.1558 138.727 59.0003 138.655 58.7298C138.582 58.4593 138.738 58.1899 139.008 58.1174L140.583 57.6956C141.047 57.5713 141.524 57.8471 141.648 58.3107L141.812 58.9193C141.884 59.1897 142.153 59.3453 142.424 59.2728C142.694 59.2004 142.85 58.9309 142.777 58.6604L142.627 58.1002C142.353 57.0763 142.961 56.023 143.985 55.7487L145.511 55.3398C145.782 55.2673 145.937 54.9979 145.865 54.7274C145.792 54.4569 145.523 54.3014 145.252 54.3738L142.451 55.1244C142.132 55.2098 141.802 55.0189 141.716 54.7002C141.659 54.4876 141.439 54.3604 141.226 54.4173L136.851 55.5898C136.184 55.7683 135.473 55.7415 134.822 55.5123L132.348 54.6619C127.814 57.9741 125.542 63.8462 127.083 69.595C127.759 72.1182 129.083 74.2949 130.828 75.9939ZM142.98 67.1058L143.146 67.7254C143.257 68.1393 143.447 68.486 144.101 68.5453L145.361 68.7661C145.458 68.7815 145.56 68.7749 145.657 68.749L145.792 68.7128C146.169 68.6119 146.395 68.2199 146.294 67.8432C146.245 67.6597 146.131 67.5039 145.962 67.4146L144.014 66.2903C143.855 66.1984 143.661 66.1677 143.477 66.2169C143.096 66.3397 142.879 66.7291 142.98 67.1058ZM139.694 68.2865L140.612 68.0407C140.892 67.9656 141.186 68.1353 141.261 68.4154L141.507 69.333C141.582 69.6132 141.412 69.9071 141.132 69.9822L140.214 70.228C139.934 70.3031 139.64 70.1334 139.565 69.8533L139.319 68.9356C139.244 68.6555 139.414 68.3616 139.694 68.2865ZM150.255 71.8857L149.131 73.833C149.039 73.9922 149.009 74.1868 149.058 74.3703C149.159 74.747 149.551 74.9733 149.927 74.8724C150.111 74.8232 150.267 74.709 150.356 74.5401L151.48 72.5928C151.572 72.4336 151.603 72.239 151.554 72.0555C151.453 71.6788 151.061 71.4525 150.684 71.5534C150.501 71.6026 150.345 71.7168 150.255 71.8857ZM137.648 70.3877C137.72 70.6582 137.99 70.8137 138.26 70.7413C138.521 70.6714 138.686 70.3993 138.614 70.1289L138.355 69.163C138.283 68.8925 138.013 68.7369 137.743 68.8094C137.472 68.8819 137.317 69.1513 137.389 69.4218L137.648 70.3877ZM142.061 60.6227L140.937 62.5701C140.845 62.7293 140.814 62.9239 140.863 63.1074C140.964 63.4841 141.356 63.7104 141.733 63.6094C141.917 63.5603 142.072 63.4461 142.162 63.2772L143.286 61.3298C143.378 61.1706 143.409 60.9761 143.359 60.7925C143.258 60.4158 142.866 60.1895 142.49 60.2905C142.306 60.3397 142.15 60.4539 142.061 60.6227ZM141.703 73.9289L141.384 72.7409C141.27 72.3158 141.44 71.8667 141.8 71.6253L143.683 70.3856C143.782 70.3282 143.883 70.2804 143.989 70.2519L145.525 69.8404C145.679 69.799 145.844 69.7962 145.997 69.8276L147.324 70.1037C147.706 70.1773 148.012 70.4681 148.113 70.8448L148.403 71.9266C148.444 72.0812 148.447 72.2461 148.415 72.3994L148.139 73.7261C148.066 74.1081 147.775 74.4138 147.398 74.5148L146.49 74.758C146.23 74.8279 145.95 74.789 145.717 74.6546L145.215 74.3647C144.982 74.2303 144.703 74.1914 144.442 74.2613L142.964 74.6573C142.414 74.8048 141.85 74.4795 141.703 73.9289Z"
                fill="url(#paint39_radial_429_11516)" />
            <path fill-rule="evenodd" clip-rule="evenodd"
                d="M131.016 71.7561C131.091 71.667 131.194 71.5993 131.317 71.5664C131.48 71.5227 131.592 71.3925 131.617 71.2385C131.568 71.2857 131.506 71.3215 131.435 71.3407C131.221 71.3979 131.068 71.5597 131.016 71.7561ZM128.985 68.1296C129.046 68.063 129.126 68.0124 129.219 67.9874C129.49 67.9149 129.781 68.075 129.834 68.3506C129.904 68.6114 130.174 68.7669 130.434 68.6971L131.014 68.5418C131.319 68.4601 131.546 68.2367 131.644 67.9615C131.524 68.1295 131.347 68.2583 131.131 68.3161L130.552 68.4714C130.291 68.5413 130.022 68.3857 129.952 68.1249C129.899 67.8493 129.607 67.6892 129.337 67.7617C129.155 67.8105 129.024 67.9569 128.985 68.1296ZM131.626 66.3881C131.688 66.3201 131.771 66.2685 131.868 66.2424C132.138 66.1699 132.408 66.3255 132.48 66.596L132.726 67.5136C132.806 67.813 133.11 67.9801 133.4 67.9025C133.641 67.8378 133.886 67.9792 133.951 68.2207L134.192 69.119C134.28 69.4474 134.623 69.6454 134.951 69.5574C135.17 69.4988 135.333 69.3352 135.394 69.1226C135.313 69.2224 135.201 69.2963 135.068 69.3317C134.74 69.4197 134.397 69.2217 134.309 68.8933L134.068 67.995C134.004 67.7535 133.759 67.6121 133.517 67.6768C133.228 67.7545 132.924 67.5873 132.844 67.2879L132.598 66.3703C132.525 66.0998 132.256 65.9443 131.985 66.0167C131.797 66.0671 131.665 66.2129 131.626 66.3881ZM136.264 65.2304C136.364 65.0985 136.505 64.9999 136.669 64.9561C136.978 64.8732 137.303 65.0036 137.486 65.2649L138.704 67.1025C138.843 67.3137 139.097 67.4113 139.338 67.3466C139.546 67.2909 139.697 67.1288 139.749 66.9346C139.675 67.0223 139.575 67.089 139.456 67.1209C139.214 67.1856 138.96 67.088 138.821 66.8769L137.604 65.0393C137.42 64.7779 137.095 64.6476 136.786 64.7304C136.539 64.7967 136.342 64.9878 136.264 65.2304ZM139.363 64.3149C139.425 64.2469 139.508 64.1953 139.605 64.1693C139.793 64.1188 139.926 63.9731 139.965 63.7979C139.902 63.8659 139.82 63.9175 139.723 63.9436C139.534 63.994 139.402 64.1398 139.363 64.3149ZM139.735 61.2926C139.873 61.0915 140.08 60.9362 140.335 60.8677C140.644 60.785 140.875 60.559 140.974 60.281C140.853 60.4519 140.672 60.5832 140.453 60.642C140.108 60.7344 139.851 60.985 139.735 61.2926ZM138.766 58.2631C138.829 58.1952 138.911 58.1436 139.008 58.1175L140.583 57.6956C141.047 57.5714 141.524 57.8471 141.648 58.3108L141.811 58.9193C141.884 59.1898 142.153 59.3453 142.424 59.2729C142.612 59.2224 142.745 59.0767 142.783 58.9015C142.721 58.9695 142.639 59.0211 142.541 59.0472C142.271 59.1197 142.001 58.9641 141.929 58.6936L141.766 58.0851C141.642 57.6215 141.164 57.3457 140.7 57.4699L139.126 57.8918C138.938 57.9422 138.805 58.088 138.766 58.2631ZM142.841 56.6065C143.089 56.1987 143.488 55.8819 143.985 55.7487L145.511 55.3398C145.699 55.2894 145.832 55.1436 145.871 54.9685C145.808 55.0365 145.726 55.0881 145.629 55.1141L144.102 55.5231C143.517 55.6799 143.067 56.0915 142.841 56.6065ZM128.245 59.3984C126.731 62.3716 126.269 65.8931 127.2 69.3694C127.876 71.8914 129.199 74.0672 130.942 75.7659L130.827 75.994C129.083 74.2949 127.759 72.1183 127.083 69.5951C126.127 66.0304 126.638 62.4182 128.245 59.3984ZM143.264 67.4998L143.098 66.8801C143.061 66.743 143.066 66.6042 143.106 66.4771C142.973 66.6516 142.92 66.881 142.98 67.1058L143.146 67.7255C143.257 68.1394 143.447 68.4861 144.101 68.5454L145.361 68.7662C145.458 68.7815 145.56 68.775 145.657 68.7491L145.792 68.7128C146.035 68.6477 146.216 68.4612 146.286 68.2358C146.194 68.3547 146.064 68.4456 145.909 68.4872L145.774 68.5234C145.677 68.5493 145.576 68.5558 145.478 68.5405L144.218 68.3197C143.564 68.2604 143.374 67.9137 143.264 67.4998ZM139.434 68.4491C139.321 68.5783 139.272 68.7597 139.319 68.9357L139.565 69.8533C139.64 70.1334 139.934 70.3031 140.214 70.2281L141.132 69.9822C141.324 69.9307 141.464 69.7763 141.509 69.594C141.442 69.6705 141.353 69.7286 141.249 69.7565L140.332 70.0024C140.052 70.0775 139.758 69.9078 139.683 69.6276L139.437 68.71C139.413 68.622 139.414 68.5326 139.434 68.4491ZM149.195 73.7221C149.147 73.8554 149.137 74.0033 149.175 74.1447C149.276 74.5214 149.668 74.7477 150.045 74.6468C150.228 74.5976 150.384 74.4834 150.473 74.3145L151.534 72.4781C151.519 72.5178 151.501 72.5563 151.48 72.5928L150.356 74.5402C150.266 74.7091 150.111 74.8233 149.927 74.8724C149.55 74.9734 149.159 74.7471 149.058 74.3704C149.008 74.1869 149.039 73.9923 149.131 73.8331L149.195 73.7221ZM138.378 70.5156C138.107 70.5881 137.838 70.4325 137.765 70.1621L137.506 69.1961C137.484 69.1139 137.483 69.0317 137.5 68.9551C137.39 69.076 137.343 69.2487 137.389 69.4218L137.648 70.3878C137.72 70.6582 137.99 70.8138 138.26 70.7413C138.443 70.6924 138.578 70.5447 138.619 70.3678C138.556 70.4375 138.473 70.4901 138.378 70.5156ZM141.001 62.4592C140.952 62.5925 140.943 62.7404 140.981 62.8818C141.082 63.2585 141.474 63.4848 141.85 63.3838C142.034 63.3346 142.19 63.2204 142.279 63.0516L143.339 61.2151C143.325 61.2549 143.307 61.2933 143.286 61.3299L142.162 63.2772C142.072 63.4461 141.916 63.5603 141.733 63.6095C141.356 63.7104 140.964 63.4842 140.863 63.1074C140.814 62.9239 140.845 62.7293 140.937 62.5701L141.001 62.4592ZM141.502 72.5152L141.82 73.7033C141.968 74.2539 142.531 74.5792 143.081 74.4316L144.559 74.0356C144.82 73.9658 145.1 74.0047 145.332 74.1391L145.835 74.429C146.067 74.5633 146.347 74.6023 146.608 74.5324L147.516 74.2891C147.755 74.225 147.96 74.0782 148.096 73.8816C147.983 74.1897 147.722 74.428 147.398 74.5148L146.49 74.7581C146.229 74.828 145.95 74.789 145.717 74.6547L145.215 74.3647C144.982 74.2304 144.703 74.1914 144.442 74.2613L142.964 74.6573C142.413 74.8048 141.85 74.4796 141.703 73.929L141.384 72.7409C141.304 72.4426 141.364 72.1324 141.531 71.8905C141.459 72.0856 141.445 72.3034 141.502 72.5152Z"
                fill="#34977B" />
            <path fill-rule="evenodd" clip-rule="evenodd"
                d="M131.368 74.8134C131.431 74.5437 131.428 74.2593 131.356 73.9889L130.9 72.2889C130.884 72.2296 130.878 72.1703 130.88 72.1126C130.844 72.2192 130.838 72.3378 130.87 72.4565L131.326 74.1566C131.383 74.3714 131.397 74.5952 131.368 74.8134ZM131.591 71.3285C131.625 71.2482 131.632 71.1563 131.607 71.0641L131.455 70.4942C131.312 69.963 130.761 69.6448 130.23 69.7871C129.699 69.9295 129.147 69.6113 129.005 69.08L128.873 68.5874C128.862 68.5447 128.856 68.5018 128.856 68.4596C128.823 68.5513 128.816 68.6538 128.843 68.7551L128.975 69.2477C129.117 69.779 129.668 70.0971 130.2 69.9548C130.731 69.8124 131.282 70.1306 131.424 70.6619L131.577 71.2318C131.586 71.2642 131.59 71.2966 131.591 71.3285ZM131.663 67.9009C131.706 67.7474 131.709 67.5806 131.665 67.4149L131.515 66.8547C131.502 66.8088 131.497 66.763 131.497 66.7182C131.463 66.8117 131.456 66.9169 131.484 67.0223L131.635 67.5826C131.663 67.6895 131.672 67.7969 131.663 67.9009ZM139.738 66.9713C139.773 66.8666 139.779 66.7507 139.749 66.6361L139.252 64.7815C139.239 64.7357 139.234 64.6899 139.234 64.645C139.2 64.7385 139.193 64.8438 139.222 64.9492L139.718 66.8038C139.733 66.8598 139.74 66.9161 139.738 66.9713ZM139.946 63.861C139.981 63.7675 139.987 63.6622 139.959 63.5568L139.586 62.1659C139.552 62.0397 139.543 61.9123 139.555 61.7889C139.509 61.9623 139.507 62.1493 139.556 62.3335L139.929 63.7245C139.941 63.7703 139.947 63.8161 139.946 63.861ZM140.994 60.2198C141.038 60.0616 141.04 59.8894 140.991 59.719L140.96 59.6031C140.825 59.1008 140.311 58.8038 139.808 58.9384L139.267 59.0833C138.997 59.1558 138.728 59.0002 138.655 58.7298C138.643 58.6839 138.637 58.6381 138.637 58.5932C138.603 58.6867 138.597 58.792 138.625 58.8974C138.697 59.1679 138.967 59.3234 139.237 59.251L139.778 59.106C140.28 58.9714 140.795 59.2684 140.929 59.7707L140.96 59.8866C140.993 59.9984 141.003 60.1109 140.994 60.2198ZM142.765 58.9646C142.799 58.8711 142.806 58.7658 142.778 58.6604L142.628 58.1002C142.56 57.8472 142.546 57.5925 142.579 57.3482C142.512 57.6423 142.514 57.9564 142.597 58.2678L142.747 58.8281C142.76 58.8739 142.765 58.9198 142.765 58.9646ZM145.852 55.0316C145.887 54.938 145.893 54.8328 145.865 54.7274C145.792 54.4569 145.523 54.3013 145.252 54.3738L142.451 55.1244C142.133 55.2098 141.802 55.0189 141.716 54.7001C141.66 54.4876 141.439 54.3603 141.227 54.4173L136.851 55.5897C136.184 55.7683 135.473 55.7415 134.822 55.5123L132.348 54.6619C129.414 56.8049 127.428 60.0195 126.808 63.579C127.46 60.0863 129.43 56.9388 132.317 54.8295L134.791 55.6799C135.443 55.9091 136.154 55.936 136.821 55.7574L141.196 54.5849C141.409 54.528 141.629 54.6553 141.686 54.8678C141.772 55.1865 142.102 55.3774 142.421 55.292L145.222 54.5415C145.493 54.469 145.762 54.6246 145.835 54.895C145.847 54.9409 145.853 54.9867 145.852 55.0316ZM146.287 68.2334C146.325 68.1103 146.33 67.9758 146.294 67.8432C146.245 67.6597 146.131 67.5039 145.962 67.4146L144.015 66.2903C143.855 66.1983 143.661 66.1677 143.477 66.2168C143.174 66.3147 142.974 66.5815 142.957 66.8764C143.026 66.6518 143.202 66.4633 143.447 66.3845C143.63 66.3353 143.825 66.366 143.984 66.4579L145.932 67.5822C146.1 67.6716 146.215 67.8273 146.264 68.0108C146.284 68.0852 146.291 68.1602 146.287 68.2334ZM140.612 68.0406L139.694 68.2865C139.462 68.3488 139.305 68.5616 139.302 68.7923C139.358 68.6322 139.49 68.5008 139.664 68.4542L140.582 68.2083C140.862 68.1332 141.156 68.3029 141.231 68.583L141.477 69.5007C141.489 69.5484 141.495 69.5966 141.494 69.644C141.529 69.5467 141.535 69.4389 141.507 69.333L141.261 68.4154C141.186 68.1353 140.892 67.9656 140.612 68.0406ZM149.131 73.833L150.256 71.8856C150.345 71.7168 150.501 71.6026 150.684 71.5534C151.061 71.4524 151.453 71.6787 151.554 72.0554C151.588 72.1844 151.583 72.3188 151.546 72.4426C151.55 72.3696 151.543 72.2955 151.524 72.2231C151.423 71.8464 151.031 71.6201 150.654 71.721C150.47 71.7702 150.315 71.8844 150.225 72.0533L149.101 74.0006C149.074 74.048 149.052 74.0984 149.036 74.1508C149.042 74.0387 149.076 73.9294 149.131 73.833ZM137.372 69.2852C137.425 69.1388 137.548 69.0212 137.713 68.977C137.983 68.9046 138.252 69.0601 138.325 69.3306L138.584 70.2965C138.596 70.3407 138.601 70.3849 138.601 70.4283C138.635 70.3358 138.642 70.2322 138.614 70.1288L138.355 69.1629C138.283 68.8925 138.013 68.7369 137.743 68.8094C137.518 68.8695 137.373 69.0656 137.372 69.2852ZM140.937 62.57L142.061 60.6227C142.151 60.4538 142.306 60.3396 142.49 60.2904C142.867 60.1895 143.259 60.4158 143.359 60.7925C143.394 60.9215 143.389 61.0559 143.351 61.1797C143.356 61.1067 143.349 61.0326 143.329 60.9601C143.228 60.5834 142.836 60.3572 142.46 60.4581C142.276 60.5073 142.12 60.6215 142.031 60.7904L140.907 62.7377C140.879 62.785 140.858 62.8355 140.842 62.8878C140.848 62.7758 140.881 62.6664 140.937 62.57ZM141.354 72.3765C141.417 72.1423 141.561 71.9328 141.77 71.7929L143.653 70.5533C143.751 70.4958 143.852 70.448 143.959 70.4196L145.495 70.008C145.649 69.9666 145.814 69.9639 145.967 69.9952L147.294 70.2713C147.676 70.3449 147.982 70.6357 148.083 71.0124L148.373 72.0942C148.406 72.2181 148.414 72.3486 148.4 72.4744L148.416 72.3994C148.447 72.246 148.444 72.0811 148.403 71.9266L148.113 70.8447C148.012 70.468 147.706 70.1772 147.324 70.1036L145.998 69.8276C145.844 69.7962 145.679 69.799 145.525 69.8404L143.989 70.2519C143.883 70.2804 143.782 70.3282 143.683 70.3856L141.8 71.6253C141.543 71.7978 141.383 72.0764 141.354 72.3765Z"
                fill="#67EDB0" />
        </g>
    </g>
    <rect x="0.6" y="0.6" width="186.8" height="70.8" rx="11.4"
        stroke="url(#paint40_linear_429_11516)" stroke-opacity="0.8" stroke-width="1.2" />
    <defs>
        <filter id="filter0_f_429_11516" x="155.17" y="45.5899" width="2.62598" height="3.50494"
            filterUnits="userSpaceOnUse" color-interpolation-filters="sRGB">
            <feFlood flood-opacity="0" result="BackgroundImageFix" />
            <feBlend mode="normal" in="SourceGraphic" in2="BackgroundImageFix" result="shape" />
            <feGaussianBlur stdDeviation="0.25" result="effect1_foregroundBlur_429_11516" />
        </filter>
        <radialGradient id="paint0_radial_429_11516" cx="0" cy="0" r="1"
            gradientUnits="userSpaceOnUse"
            gradientTransform="translate(94 -73) rotate(71.9555) scale(185.63 185.63)">
            <stop offset="0.0468646" stop-color="#D3E156" />
            <stop offset="0.505208" stop-color="#66BB6A" />
            <stop offset="1" stop-color="#27A79A" />
        </radialGradient>
        <radialGradient id="paint1_radial_429_11516" cx="0" cy="0" r="1"
            gradientUnits="userSpaceOnUse"
            gradientTransform="translate(177.957 -0.111115) rotate(76.0833) scale(52.3706 35.1784)">
            <stop offset="0.0468646" stop-color="#D3E156" />
            <stop offset="0.505208" stop-color="#66BB6A" />
            <stop offset="1" stop-color="#27A79A" />
        </radialGradient>
        <linearGradient id="paint2_linear_429_11516" x1="155.044" y1="47.1528" x2="156.51"
            y2="45.7722" gradientUnits="userSpaceOnUse">
            <stop stop-color="#48427D" />
            <stop offset="1" stop-color="#5C6193" />
        </linearGradient>
        <linearGradient id="paint3_linear_429_11516" x1="154.886" y1="50.0263" x2="154.886"
            y2="49.6846" gradientUnits="userSpaceOnUse">
            <stop stop-color="#312D58" />
            <stop offset="1" stop-color="#312D58" stop-opacity="0" />
        </linearGradient>
        <radialGradient id="paint4_radial_429_11516" cx="0" cy="0" r="1"
            gradientUnits="userSpaceOnUse"
            gradientTransform="translate(155.34 45.8761) rotate(82.6382) scale(3.67725 2.9516)">
            <stop offset="0.0726255" stop-color="#54C4FF" />
            <stop offset="1" stop-color="#2E8DE8" />
        </radialGradient>
        <linearGradient id="paint5_linear_429_11516" x1="156.618" y1="47.0823" x2="156.32"
            y2="47.1619" gradientUnits="userSpaceOnUse">
            <stop stop-color="#6CEDFF" />
            <stop offset="1" stop-color="#6CEDFF" stop-opacity="0" />
        </linearGradient>
        <linearGradient id="paint6_linear_429_11516" x1="153.939" y1="47.6739" x2="154.12"
            y2="47.6254" gradientUnits="userSpaceOnUse">
            <stop stop-color="#5E98C5" />
            <stop offset="1" stop-color="#5E98C5" stop-opacity="0" />
        </linearGradient>
        <radialGradient id="paint7_radial_429_11516" cx="0" cy="0" r="1"
            gradientUnits="userSpaceOnUse"
            gradientTransform="translate(154.666 48.5372) rotate(6.88382) scale(0.91702 0.69181)">
            <stop stop-color="#267BAE" />
            <stop offset="1" stop-color="#267BAE" stop-opacity="0" />
        </radialGradient>
        <linearGradient id="paint8_linear_429_11516" x1="156.473" y1="48.619" x2="155.916"
            y2="46.5431" gradientUnits="userSpaceOnUse">
            <stop stop-color="#2E74A1" />
            <stop offset="1" stop-color="#5192B4" />
        </linearGradient>
        <radialGradient id="paint9_radial_429_11516" cx="0" cy="0" r="1"
            gradientUnits="userSpaceOnUse"
            gradientTransform="translate(157.394 49.1896) rotate(165) scale(1.39983 1.45651)">
            <stop offset="0.424959" stop-color="#F09B4C" />
            <stop offset="1" stop-color="#F09B4C" stop-opacity="0" />
        </radialGradient>
        <radialGradient id="paint10_radial_429_11516" cx="0" cy="0" r="1"
            gradientUnits="userSpaceOnUse"
            gradientTransform="translate(154.212 49.8045) rotate(-28.0745) scale(0.964105 5.53017)">
            <stop stop-color="#F09B4C" />
            <stop offset="1" stop-color="#F09B4C" stop-opacity="0" />
        </radialGradient>
        <radialGradient id="paint11_radial_429_11516" cx="0" cy="0" r="1"
            gradientUnits="userSpaceOnUse"
            gradientTransform="translate(154.91 48.8395) rotate(-105) scale(0.75129 1.44479)">
            <stop stop-color="#F09B4C" />
            <stop offset="1" stop-color="#F09B4C" stop-opacity="0" />
        </radialGradient>
        <radialGradient id="paint12_radial_429_11516" cx="0" cy="0" r="1"
            gradientUnits="userSpaceOnUse"
            gradientTransform="translate(154.928 48.0121) rotate(120) scale(0.388215 0.440921)">
            <stop stop-color="#FFDC62" />
            <stop offset="1" stop-color="#FFDC62" stop-opacity="0" />
        </radialGradient>
        <linearGradient id="paint13_linear_429_11516" x1="154.17" y1="58.3905" x2="153.61"
            y2="56.3039" gradientUnits="userSpaceOnUse">
            <stop offset="0.155173" stop-color="#DB24A5" />
            <stop offset="1" stop-color="#E5269C" stop-opacity="0" />
        </linearGradient>
        <linearGradient id="paint14_linear_429_11516" x1="157.781" y1="53.8275" x2="156.348"
            y2="53.7588" gradientUnits="userSpaceOnUse">
            <stop offset="0.569138" stop-color="#E04188" />
            <stop offset="1" stop-color="#E8398A" stop-opacity="0" />
        </linearGradient>
        <linearGradient id="paint15_linear_429_11516" x1="152.997" y1="51.5709" x2="153.202"
            y2="52.3369" gradientUnits="userSpaceOnUse">
            <stop stop-color="#D43E44" />
            <stop offset="1" stop-color="#D43E44" stop-opacity="0" />
        </linearGradient>
        <linearGradient id="paint16_linear_429_11516" x1="149.474" y1="57.1576" x2="151.745"
            y2="56.549" gradientUnits="userSpaceOnUse">
            <stop stop-color="#D52B6A" />
            <stop offset="1" stop-color="#D52B6A" stop-opacity="0" />
        </linearGradient>
        <radialGradient id="paint17_radial_429_11516" cx="0" cy="0" r="1"
            gradientUnits="userSpaceOnUse"
            gradientTransform="translate(157.473 50.4848) rotate(123.391) scale(1.31769 0.255074)">
            <stop stop-color="#EA5983" />
            <stop offset="1" stop-color="#EC5984" stop-opacity="0" />
        </radialGradient>
        <radialGradient id="paint18_radial_429_11516" cx="0" cy="0" r="1"
            gradientUnits="userSpaceOnUse"
            gradientTransform="translate(151.053 55.2341) rotate(75) scale(1.20312 4.71752)">
            <stop offset="0.297297" stop-color="#CF3A5D" />
            <stop offset="1" stop-color="#CF3A5D" stop-opacity="0" />
        </radialGradient>
        <radialGradient id="paint19_radial_429_11516" cx="0" cy="0" r="1"
            gradientUnits="userSpaceOnUse"
            gradientTransform="translate(154.205 52.9458) rotate(1.9275) scale(1.31478 2.41385)">
            <stop offset="0.297297" stop-color="#D23760" />
            <stop offset="1" stop-color="#D23760" stop-opacity="0" />
        </radialGradient>
        <linearGradient id="paint20_linear_429_11516" x1="156.979" y1="48.6609" x2="156.979"
            y2="49.577" gradientUnits="userSpaceOnUse">
            <stop stop-color="#F9BF3E" />
            <stop offset="0.686567" stop-color="#F7B056" />
            <stop offset="1" stop-color="#F4AF24" />
        </linearGradient>
        <radialGradient id="paint21_radial_429_11516" cx="0" cy="0" r="1"
            gradientUnits="userSpaceOnUse"
            gradientTransform="translate(157.457 48.9925) rotate(145.169) scale(0.287246 0.258843)">
            <stop stop-color="#FFE064" />
            <stop offset="1" stop-color="#FFE064" stop-opacity="0" />
        </radialGradient>
        <radialGradient id="paint22_radial_429_11516" cx="0" cy="0" r="1"
            gradientUnits="userSpaceOnUse"
            gradientTransform="translate(156.136 49.119) scale(0.401705 0.751953)">
            <stop stop-color="#DD9D52" />
            <stop offset="1" stop-color="#DD9D52" stop-opacity="0" />
        </radialGradient>
        <linearGradient id="paint23_linear_429_11516" x1="156.979" y1="48.6609" x2="156.979"
            y2="48.8284" gradientUnits="userSpaceOnUse">
            <stop stop-color="#D68C02" />
            <stop offset="1" stop-color="#D68C02" stop-opacity="0" />
        </linearGradient>
        <linearGradient id="paint24_linear_429_11516" x1="156.448" y1="46.1128" x2="156.448"
            y2="47.0288" gradientUnits="userSpaceOnUse">
            <stop stop-color="#F1C438" />
            <stop offset="0.671642" stop-color="#F7B356" />
            <stop offset="1" stop-color="#F4AF24" />
        </linearGradient>
        <radialGradient id="paint25_radial_429_11516" cx="0" cy="0" r="1"
            gradientUnits="userSpaceOnUse"
            gradientTransform="translate(155.459 46.5708) scale(0.47168 0.751953)">
            <stop stop-color="#DD9D52" />
            <stop offset="1" stop-color="#DD9D52" stop-opacity="0" />
        </radialGradient>
        <radialGradient id="paint26_radial_429_11516" cx="0" cy="0" r="1"
            gradientUnits="userSpaceOnUse"
            gradientTransform="translate(157.011 46.4443) rotate(149.349) scale(0.321816 0.271284)">
            <stop stop-color="#FFE064" />
            <stop offset="1" stop-color="#FFE064" stop-opacity="0" />
        </radialGradient>
        <linearGradient id="paint27_linear_429_11516" x1="156.91" y1="47.8362" x2="156.91"
            y2="48.7522" gradientUnits="userSpaceOnUse">
            <stop stop-color="#F9BF3E" />
            <stop offset="0.686567" stop-color="#F7B056" />
            <stop offset="1" stop-color="#F4AF24" />
        </linearGradient>
        <radialGradient id="paint28_radial_429_11516" cx="0" cy="0" r="1"
            gradientUnits="userSpaceOnUse"
            gradientTransform="translate(157.473 48.1677) rotate(149.349) scale(0.321816 0.271284)">
            <stop stop-color="#FFE064" />
            <stop offset="1" stop-color="#FFE064" stop-opacity="0" />
        </radialGradient>
        <radialGradient id="paint29_radial_429_11516" cx="0" cy="0" r="1"
            gradientUnits="userSpaceOnUse"
            gradientTransform="translate(155.921 48.2942) scale(0.47168 0.751953)">
            <stop stop-color="#DD9D52" />
            <stop offset="1" stop-color="#DD9D52" stop-opacity="0" />
        </radialGradient>
        <linearGradient id="paint30_linear_429_11516" x1="156.91" y1="47.8362" x2="156.91"
            y2="48.0071" gradientUnits="userSpaceOnUse">
            <stop stop-color="#D68C02" />
            <stop offset="1" stop-color="#D68C02" stop-opacity="0" />
        </linearGradient>
        <linearGradient id="paint31_linear_429_11516" x1="156.652" y1="47.0162" x2="156.652"
            y2="47.9322" gradientUnits="userSpaceOnUse">
            <stop stop-color="#F9BF3E" />
            <stop offset="0.686567" stop-color="#F7B056" />
            <stop offset="1" stop-color="#F4AF24" />
        </linearGradient>
        <radialGradient id="paint32_radial_429_11516" cx="0" cy="0" r="1"
            gradientUnits="userSpaceOnUse"
            gradientTransform="translate(157.241 47.3477) rotate(150.471) scale(0.332872 0.274378)">
            <stop stop-color="#FFE064" />
            <stop offset="1" stop-color="#FFE064" stop-opacity="0" />
        </radialGradient>
        <radialGradient id="paint33_radial_429_11516" cx="0" cy="0" r="1"
            gradientUnits="userSpaceOnUse"
            gradientTransform="translate(155.617 47.4742) scale(0.49345 0.751953)">
            <stop stop-color="#DD9D52" />
            <stop offset="1" stop-color="#DD9D52" stop-opacity="0" />
        </radialGradient>
        <linearGradient id="paint34_linear_429_11516" x1="156.652" y1="46.9615" x2="156.652"
            y2="47.1255" gradientUnits="userSpaceOnUse">
            <stop stop-color="#D68C02" />
            <stop offset="1" stop-color="#D68C02" stop-opacity="0" />
        </linearGradient>
        <radialGradient id="paint35_radial_429_11516" cx="0" cy="0" r="1"
            gradientUnits="userSpaceOnUse"
            gradientTransform="translate(145.997 59.9906) rotate(107.072) scale(21.1401 23.9585)">
            <stop stop-color="#2DCAFF" />
            <stop offset="1" stop-color="#3488EF" />
        </radialGradient>
        <radialGradient id="paint36_radial_429_11516" cx="0" cy="0" r="1"
            gradientUnits="userSpaceOnUse"
            gradientTransform="translate(148.376 57.2837) rotate(122.749) scale(26.0707 34.5063)">
            <stop offset="0.495708" stop-color="#465DC2" stop-opacity="0" />
            <stop offset="1" stop-color="#465DC2" />
        </radialGradient>
        <radialGradient id="paint37_radial_429_11516" cx="0" cy="0" r="1"
            gradientUnits="userSpaceOnUse"
            gradientTransform="translate(140.605 65.9717) rotate(75) scale(14)">
            <stop offset="0.915179" stop-color="#6389B1" stop-opacity="0" />
            <stop offset="1" stop-color="#6389B1" stop-opacity="0.3" />
        </radialGradient>
        <linearGradient id="paint38_linear_429_11516" x1="136.983" y1="57.3268" x2="132.946"
            y2="74.0684" gradientUnits="userSpaceOnUse">
            <stop stop-color="#40B9F0" />
            <stop offset="1" stop-color="#305CBD" />
        </linearGradient>
        <radialGradient id="paint39_radial_429_11516" cx="0" cy="0" r="1"
            gradientUnits="userSpaceOnUse"
            gradientTransform="translate(140.183 56.1707) rotate(119.57) scale(20.1102 30.3535)">
            <stop stop-color="#74FFB5" />
            <stop offset="1" stop-color="#51A379" />
        </radialGradient>
        <linearGradient id="paint40_linear_429_11516" x1="186" y1="-9" x2="182.96" y2="21.4857"
            gradientUnits="userSpaceOnUse">
            <stop stop-color="#E6F9F7" />
            <stop offset="1" stop-color="#E6F9F7" stop-opacity="0" />
        </linearGradient>
        <clipPath id="clip0_429_11516">
            <rect width="188" height="72" rx="12" fill="white" />
        </clipPath>
        <clipPath id="clip1_429_11516">
            <rect width="14" height="14" fill="white"
                transform="translate(146 46.6235) rotate(-15)" />
        </clipPath>
        <clipPath id="clip2_429_11516">
            <rect width="32" height="32" fill="white"
                transform="translate(120.904 54.6863) rotate(-15)" />
        </clipPath>
    </defs>
</svg>
