<svg width="62" height="48" viewBox="0 0 62 48" fill="none" xmlns="http://www.w3.org/2000/svg">
    <rect x="26.3778" y="21.0669" width="11.2444" height="16.9057" fill="white" stroke="#1F1F1F" />
    <path d="M20.2444 16.8015V18.0346" stroke="#1F1F1F" stroke-linecap="round" />
    <path d="M32 10.3599V12.0504" stroke="#1F1F1F" stroke-linecap="round" />
    <path
        d="M18.2 21.2912C18.2 19.9033 18.9944 18.6378 20.2444 18.0347V18.0347V18.0347C21.4944 18.6378 22.2888 19.9033 22.2888 21.2912V23.4604H18.2V21.2912Z"
        fill="url(#paint0_linear_8861_13405)" stroke="#1F1F1F" />
    <rect width="4.08889" height="12.3975" transform="matrix(-1 0 0 1 26.3778 25.575)" fill="white"
        stroke="#1F1F1F" />
    <path d="M29.2618 25.575H26.3756V37.9724H29.2618V25.575Z" fill="white" stroke="#1F1F1F" />
    <path d="M29.2618 25.575H26.3756L26.3756 21.0266H29.2618L29.2618 25.575Z" fill="white"
        stroke="#1F1F1F" />
    <path d="M37.6648 25.575H34.8091V37.9724H37.6648V25.575Z" fill="white" stroke="#1F1F1F" />
    <path d="M37.4762 25.5751H34.8091V21.5601H37.4762V25.5751Z" fill="white" stroke="#1F1F1F" />
    <rect width="9.2" height="12.3975" transform="matrix(-1 0 0 1 18.2 25.575)" fill="white"
        stroke="#1F1F1F" />
    <rect x="18.2" y="23.3208" width="4.08889" height="14.6516" fill="white" stroke="#1F1F1F" />
    <path
        d="M37.6223 21.2279V19.6643C37.6223 16.2643 35.307 13.3012 32.0079 12.479C32.0027 12.4777 31.9973 12.4777 31.9922 12.479C28.6931 13.3012 26.3778 16.2643 26.3778 19.6643V21.2279H37.6223Z"
        fill="url(#paint1_linear_8861_13405)" stroke="#1F1F1F" />
    <path d="M18.7111 27.8291H21.7777" stroke="#1F1F1F" stroke-linecap="round" />
    <path d="M18.7111 31.2102H21.7777" stroke="#1F1F1F" stroke-linecap="round" />
    <path d="M18.7111 34.5913H21.7777" stroke="#1F1F1F" stroke-linecap="round" />
    <path d="M25.8667 25.575H37.1111" stroke="#1F1F1F" stroke-linecap="round" />
    <path d="M29.2618 27.96H34.738" stroke="#1F1F1F" stroke-linecap="round" />
    <path d="M29.2618 23.6934H34.738" stroke="#1F1F1F" stroke-linecap="round" />
    <path d="M29.2618 30.6265H34.738" stroke="#1F1F1F" stroke-linecap="round" />
    <rect x="11.3983" y="27.8291" width="1.65128" height="1.82061" fill="#1F1F1F" />
    <rect x="11.3983" y="30.8633" width="1.65128" height="1.82061" fill="#1F1F1F" />
    <rect x="11.3983" y="33.8979" width="1.65128" height="1.82061" fill="#1F1F1F" />
    <rect x="14.1504" y="27.8291" width="1.65128" height="1.82061" fill="#1F1F1F" />
    <rect x="14.1504" y="30.8633" width="1.65128" height="1.82061" fill="#1F1F1F" />
    <rect x="14.1504" y="33.8979" width="1.65128" height="1.82061" fill="#1F1F1F" />
    <path d="M18.2 37.9727H45.8V42.36H18.2V37.9727Z" fill="white" stroke="#1F1F1F" />
    <path d="M18.2 37.9727H8.99995V42.36H18.2V37.9727Z" fill="url(#paint2_linear_8861_13405)"
        stroke="#1F1F1F" />
    <path d="M43.7556 16.8015V18.0346" stroke="#1F1F1F" stroke-linecap="round" />
    <path
        d="M45.8 21.2912C45.8 19.9033 45.0056 18.6378 43.7556 18.0347V18.0347V18.0347C42.5056 18.6378 41.7112 19.9033 41.7112 21.2912V23.4604H45.8V21.2912Z"
        fill="url(#paint3_linear_8861_13405)" stroke="#1F1F1F" />
    <rect x="37.6222" y="25.575" width="4.08889" height="12.3975" fill="white" stroke="#1F1F1F" />
    <rect x="45.8" y="25.575" width="9.2" height="12.3975" fill="white" stroke="#1F1F1F" />
    <rect width="4.08889" height="14.6516" transform="matrix(-1 0 0 1 45.8 23.3208)" fill="white"
        stroke="#1F1F1F" />
    <path d="M45.2889 27.8291H42.2223" stroke="#1F1F1F" stroke-linecap="round" />
    <path d="M45.2889 31.2102H42.2223" stroke="#1F1F1F" stroke-linecap="round" />
    <path d="M45.2889 34.5913H42.2223" stroke="#1F1F1F" stroke-linecap="round" />
    <rect width="1.65128" height="1.82061" transform="matrix(-1 0 0 1 52.6017 27.8291)"
        fill="#1F1F1F" />
    <rect width="1.65128" height="1.82061" transform="matrix(-1 0 0 1 52.6017 30.8633)"
        fill="#1F1F1F" />
    <rect width="1.65128" height="1.82061" transform="matrix(-1 0 0 1 52.6017 33.8979)"
        fill="#1F1F1F" />
    <rect width="1.65128" height="1.82061" transform="matrix(-1 0 0 1 49.8496 27.8291)"
        fill="#1F1F1F" />
    <rect width="1.65128" height="1.82061" transform="matrix(-1 0 0 1 49.8496 30.8633)"
        fill="#1F1F1F" />
    <rect width="1.65128" height="1.82061" transform="matrix(-1 0 0 1 49.8496 33.8979)"
        fill="#1F1F1F" />
    <path d="M45.8 37.9727H55L55.0001 42.36H45.8V37.9727Z" fill="url(#paint4_linear_8861_13405)"
        stroke="#1F1F1F" />
    <path d="M22.2888 33.4644H41.711V37.9725H22.2888V33.4644Z" fill="white" stroke="#1F1F1F" />
    <path d="M6.16003 42.3599H58" stroke="#1F1F1F" stroke-linecap="round" />
    <path d="M18.58 21.6602H22.36" stroke="#1F1F1F" stroke-linecap="round" />
    <path d="M41.8 21.6602H45.58" stroke="#1F1F1F" stroke-linecap="round" />
    <path d="M26.6801 19.5H37.4801" stroke="#1F1F1F" stroke-linecap="round" />
    <path d="M47.2 9.23999H54.76" stroke="#1F1F1F" stroke-linecap="round" />
    <path d="M43.96 6H48.28" stroke="#1F1F1F" stroke-linecap="round" />
    <path d="M4 20.04H8.32" stroke="#1F1F1F" stroke-linecap="round" />
    <defs>
        <linearGradient id="paint0_linear_8861_13405" x1="18.204" y1="20.7489" x2="22.2909"
            y2="20.7489" gradientUnits="userSpaceOnUse">
            <stop stop-color="#FF7304" />
            <stop offset="1" stop-color="#FB2A77" />
        </linearGradient>
        <linearGradient id="paint1_linear_8861_13405" x1="26.3889" y1="16.8546" x2="37.6279"
            y2="16.8546" gradientUnits="userSpaceOnUse">
            <stop stop-color="#FF7304" />
            <stop offset="1" stop-color="#FB2A77" />
        </linearGradient>
        <linearGradient id="paint2_linear_8861_13405" x1="18.1909" y1="40.1674" x2="8.9953"
            y2="40.1674" gradientUnits="userSpaceOnUse">
            <stop stop-color="#FF7304" />
            <stop offset="1" stop-color="#FB2A77" />
        </linearGradient>
        <linearGradient id="paint3_linear_8861_13405" x1="45.796" y1="20.7489" x2="41.7091"
            y2="20.7489" gradientUnits="userSpaceOnUse">
            <stop stop-color="#FF7304" />
            <stop offset="1" stop-color="#FB2A77" />
        </linearGradient>
        <linearGradient id="paint4_linear_8861_13405" x1="45.8091" y1="40.1674" x2="55.0047"
            y2="40.1674" gradientUnits="userSpaceOnUse">
            <stop stop-color="#FF7304" />
            <stop offset="1" stop-color="#FB2A77" />
        </linearGradient>
    </defs>
</svg>
