<svg width="62" height="48" viewBox="0 0 62 48" fill="none" xmlns="http://www.w3.org/2000/svg">
    <path d="M8 43H54.4444" stroke="#1F1F1F" stroke-linecap="round" />
    <path d="M12.3889 17.6667H5.00003" stroke="#1F1F1F" stroke-linecap="round" />
    <path d="M15.5555 14.5H11.3333" stroke="#1F1F1F" stroke-linecap="round" />
    <path d="M53.5555 20.8333H57.7778" stroke="#1F1F1F" stroke-linecap="round" />
    <path d="M30.7869 11.3333V5" stroke="#1F1F1F" stroke-linecap="round" />
    <path
        d="M26.4822 22.0889C26.4822 21.9785 26.5717 21.8889 26.6822 21.8889H34.8914C35.0019 21.8889 35.0914 21.9785 35.0914 22.0889V43H26.4822V22.0889Z"
        fill="white" stroke="#1F1F1F" />
    <path
        d="M26.5046 21.6686C26.4926 21.7865 26.5851 21.8889 26.7036 21.8889H34.87C34.9885 21.8889 35.081 21.7865 35.069 21.6686L34.0153 11.3334H27.5583L26.5046 21.6686Z"
        fill="white" stroke="#1F1F1F" />
    <path d="M16.6835 34.5557H26.512V36.6668H16.6835V34.5557Z" fill="white" stroke="#1F1F1F" />
    <path d="M16.6835 39.8335H26.512V36.6668H16.6835V39.8335Z" fill="white" stroke="#1F1F1F" />
    <path d="M16.6835 39.8335H26.512V43.0002H16.6835V39.8335Z" fill="white" stroke="#1F1F1F" />
    <path d="M17.0709 36.7361V39.2361" stroke="#1F1F1F" stroke-linecap="round" />
    <path d="M18.871 36.7361V39.2361" stroke="#1F1F1F" stroke-linecap="round" />
    <path d="M20.6709 36.7361V39.2361" stroke="#1F1F1F" stroke-linecap="round" />
    <path d="M22.4709 36.7361V39.2361" stroke="#1F1F1F" stroke-linecap="round" />
    <path d="M24.2709 36.7361V39.2361" stroke="#1F1F1F" stroke-linecap="round" />
    <path d="M35.0348 34.5557H44.8634V36.6668H35.0348V34.5557Z" fill="white" stroke="#1F1F1F" />
    <path d="M35.0348 39.8335H44.8634V36.6668H35.0348V39.8335Z" fill="white" stroke="#1F1F1F" />
    <path d="M35.0348 39.8335H44.8634V43.0002H35.0348V39.8335Z" fill="white" stroke="#1F1F1F" />
    <path d="M35.4222 36.7361V39.2361" stroke="#1F1F1F" stroke-linecap="round" />
    <path d="M37.2223 36.7361V39.2361" stroke="#1F1F1F" stroke-linecap="round" />
    <path d="M39.0222 36.7361V39.2361" stroke="#1F1F1F" stroke-linecap="round" />
    <path d="M40.8223 36.7361V39.2361" stroke="#1F1F1F" stroke-linecap="round" />
    <path d="M42.6222 36.7361V39.2361" stroke="#1F1F1F" stroke-linecap="round" />
    <path
        d="M10 32.3912C10 32.254 10.1112 32.1428 10.2484 32.1428H16.4351C16.5723 32.1428 16.6835 32.254 16.6835 32.3912V42.9999H10V32.3912Z"
        fill="white" stroke="#1F1F1F" />
    <path
        d="M10.0474 31.8542C10.0226 32.0054 10.1393 32.1428 10.2925 32.1428H16.391C16.5442 32.1428 16.6609 32.0054 16.6361 31.8542L16.0493 28.2796C16.0296 28.1595 15.9259 28.0714 15.8042 28.0714H10.8793C10.7576 28.0714 10.6539 28.1595 10.6342 28.2796L10.0474 31.8542Z"
        fill="white" stroke="#1F1F1F" />
    <path d="M10.6683 28.0715H16.0151V25.3573H10.6683V28.0715Z" fill="white" stroke="#1F1F1F" />
    <path d="M13.3418 25.3572V27.3929" stroke="#1F1F1F" stroke-linecap="round" />
    <path d="M10.6683 26.7143V24" stroke="#1F1F1F" stroke-linecap="round" />
    <path d="M16.0151 26.7143V24" stroke="#1F1F1F" stroke-linecap="round" />
    <path d="M27.5583 11.3333H34.0153V9.22214H27.5583V11.3333Z" fill="white" stroke="#1F1F1F" />
    <path d="M29.7107 9.22217V10.8055" stroke="#1F1F1F" stroke-linecap="round" />
    <path d="M31.8629 9.22217V10.8055" stroke="#1F1F1F" stroke-linecap="round" />
    <path d="M27.5583 10.2776V8.1665" stroke="#1F1F1F" stroke-linecap="round" />
    <path d="M34.0153 10.2776V8.1665" stroke="#1F1F1F" stroke-linecap="round" />
    <path d="M27.0203 28.75H34.5534" stroke="#1F1F1F" stroke-linecap="round" />
    <path d="M27.0203 34.0278H34.5534" stroke="#1F1F1F" stroke-linecap="round" />
    <path
        d="M32.4011 17.139C32.4011 18.0134 31.6784 18.7223 30.7868 18.7223C29.8953 18.7223 29.1726 18.0134 29.1726 17.139C29.1726 16.2645 29.8953 15.5557 30.7868 15.5557C31.6784 15.5557 32.4011 16.2645 32.4011 17.139Z"
        fill="url(#paint0_linear_8861_13615)" stroke="#1F1F1F" />
    <path
        d="M12.005 37.781C12.005 37.0428 12.6035 36.4443 13.3417 36.4443V36.4443C14.0799 36.4443 14.6784 37.0428 14.6784 37.781V42.9999H12.005V37.781Z"
        fill="url(#paint1_linear_8861_13615)" stroke="#1F1F1F" />
    <path
        d="M28.6345 38.2912C28.6345 37.1025 29.5981 36.1389 30.7868 36.1389V36.1389C31.9755 36.1389 32.9391 37.1025 32.9391 38.2912V43H28.6345V38.2912Z"
        fill="url(#paint2_linear_8861_13615)" stroke="#1F1F1F" />
    <path d="M28.0964 23.4722H29.7107V27.1666H28.0964V23.4722Z" fill="#1F1F1F" />
    <path d="M32.401 23.4722H34.0152V27.1666H32.401V23.4722Z" fill="#1F1F1F" />
    <path d="M28.0964 29.8057H29.7107V32.9723H28.0964V29.8057Z" fill="#1F1F1F" />
    <path d="M32.401 29.8057H34.0152V32.9723H32.401V29.8057Z" fill="#1F1F1F" />
    <path
        d="M45 32.3912C45 32.254 45.1112 32.1428 45.2484 32.1428H51.4351C51.5723 32.1428 51.6835 32.254 51.6835 32.3912V42.9999H45V32.3912Z"
        fill="white" stroke="#1F1F1F" />
    <path
        d="M45.0474 31.8542C45.0226 32.0054 45.1393 32.1428 45.2925 32.1428H51.391C51.5442 32.1428 51.6609 32.0054 51.6361 31.8542L51.0493 28.2796C51.0296 28.1595 50.9259 28.0714 50.8042 28.0714H45.8793C45.7576 28.0714 45.6539 28.1595 45.6342 28.2796L45.0474 31.8542Z"
        fill="white" stroke="#1F1F1F" />
    <path d="M45.6683 28.0715H51.0151V25.3573H45.6683V28.0715Z" fill="white" stroke="#1F1F1F" />
    <path d="M48.3418 25.3572V27.3929" stroke="#1F1F1F" stroke-linecap="round" />
    <path d="M45.6683 26.7143V24" stroke="#1F1F1F" stroke-linecap="round" />
    <path d="M51.0151 26.7143V24" stroke="#1F1F1F" stroke-linecap="round" />
    <path
        d="M47.005 37.5508C47.005 36.8126 47.6035 36.2141 48.3417 36.2141V36.2141C49.0799 36.2141 49.6784 36.8126 49.6784 37.5508V42.9998H47.005V37.5508Z"
        fill="url(#paint3_linear_8861_13615)" stroke="#1F1F1F" />
    <defs>
        <linearGradient id="paint0_linear_8861_13615" x1="29.1758" y1="17.1398" x2="32.4027"
            y2="17.1398" gradientUnits="userSpaceOnUse">
            <stop stop-color="#FF7304" />
            <stop offset="1" stop-color="#FB2A77" />
        </linearGradient>
        <linearGradient id="paint1_linear_8861_13615" x1="12.0076" y1="39.7237" x2="14.6798"
            y2="39.7237" gradientUnits="userSpaceOnUse">
            <stop stop-color="#FF7304" />
            <stop offset="1" stop-color="#FB2A77" />
        </linearGradient>
        <linearGradient id="paint2_linear_8861_13615" x1="28.6388" y1="39.5712" x2="32.9413"
            y2="39.5712" gradientUnits="userSpaceOnUse">
            <stop stop-color="#FF7304" />
            <stop offset="1" stop-color="#FB2A77" />
        </linearGradient>
        <linearGradient id="paint3_linear_8861_13615" x1="47.0076" y1="39.6086" x2="49.6798"
            y2="39.6086" gradientUnits="userSpaceOnUse">
            <stop stop-color="#FF7304" />
            <stop offset="1" stop-color="#FB2A77" />
        </linearGradient>
    </defs>
</svg>
