<svg width="62" height="48" viewBox="0 0 62 48" fill="none" xmlns="http://www.w3.org/2000/svg">
    <path d="M10 46H53.84" stroke="#1F1F1F" stroke-linecap="round" />
    <path d="M51 29H55.5" stroke="#1F1F1F" stroke-linecap="round" />
    <path d="M7 20H12" stroke="#1F1F1F" stroke-linecap="round" />
    <path d="M10 23H16" stroke="#1F1F1F" stroke-linecap="round" />
    <rect x="39.0476" y="32.3809" width="3.14286" height="13.619" rx="0.457143" fill="white"
        stroke="#1F1F1F" />
    <rect x="17.3094" y="39.2412" width="5.23809" height="6.75883" rx="0.457143" fill="white"
        stroke="#1F1F1F" />
    <rect width="2.61905" height="2.70353" rx="0.457143" transform="matrix(1 0 0 -1 18.619 39.2412)"
        fill="white" stroke="#1F1F1F" />
    <path d="M22.5476 42.6206H16" stroke="#1F1F1F" stroke-linecap="round" />
    <rect x="22.2858" y="32.3809" width="3.14286" height="13.619" rx="0.457143" fill="white"
        stroke="#1F1F1F" />
    <rect x="39.0476" y="40.762" width="8.38095" height="5.23809" rx="0.457143" fill="white"
        stroke="#1F1F1F" />
    <path d="M39.0476 46L38.2618 14.9094H26.4761L24.5118 46H39.0476Z" fill="white"
        stroke="#1F1F1F" />
    <path
        d="M31.8146 3.98638L30.7976 12.8817H33.2857L32.2687 3.98638C32.2379 3.71624 31.8454 3.71623 31.8146 3.98638Z"
        fill="url(#paint0_linear_8861_13677)" stroke="#1F1F1F" />
    <path
        d="M37.9026 14.9092H26.1805C25.9599 14.9092 25.7577 14.7861 25.6564 14.5901L25.2183 13.7422C25.0155 13.3496 25.3005 12.8816 25.7424 12.8816H38.3407C38.7826 12.8816 39.0676 13.3496 38.8647 13.7422L38.4266 14.5901C38.3254 14.7861 38.1232 14.9092 37.9026 14.9092Z"
        fill="white" stroke="#1F1F1F" />
    <path d="M32.3691 46L27.7858 14.9094H36.2977L32.3691 46Z" fill="url(#paint1_linear_8861_13677)"
        stroke="#1F1F1F" />
    <path
        d="M28.4403 19.6406L31.8416 18.4702C32.1814 18.3533 32.5521 18.3645 32.8842 18.5016L35.6427 19.6406"
        stroke="#1F1F1F" />
    <path
        d="M28.4402 22.3442L31.8415 21.1738C32.1813 21.0569 32.552 21.0681 32.8841 21.2052L35.6426 22.3442"
        stroke="#1F1F1F" />
    <path
        d="M29.309 24.7487L31.8416 23.8772C32.1814 23.7603 32.5521 23.7715 32.8842 23.9086L34.9188 24.7487"
        stroke="#1F1F1F" />
    <path
        d="M29.5007 27.3863L31.8418 26.5808C32.1815 26.4639 32.5523 26.4751 32.8844 26.6122L34.7592 27.3863"
        stroke="#1F1F1F" />
    <path
        d="M30.0029 29.9171L31.8416 29.2844C32.1813 29.1675 32.5521 29.1787 32.8842 29.3158L34.5827 30.0172"
        stroke="#1F1F1F" />
    <path d="M42.1903 40.593V46.0001" stroke="#1F1F1F" />
    <path d="M44.8094 40.593V46.0001" stroke="#1F1F1F" />
    <path d="M25.1665 43.9724H29.7498" stroke="#1F1F1F" stroke-linecap="round" />
    <path d="M25.1665 41.2688H29.0951" stroke="#1F1F1F" stroke-linecap="round" />
    <path d="M25.1665 38.5652H28.5713" stroke="#1F1F1F" stroke-linecap="round" />
    <path d="M25.1665 35.8618H27.7856" stroke="#1F1F1F" stroke-linecap="round" />
    <path d="M25.1666 33.1582H27.1309" stroke="#1F1F1F" stroke-linecap="round" />
    <path d="M38.9165 43.9724H34.3332" stroke="#1F1F1F" stroke-linecap="round" />
    <path d="M38.9165 41.2688H34.9879" stroke="#1F1F1F" stroke-linecap="round" />
    <path d="M38.9165 38.5652H35.3808" stroke="#1F1F1F" stroke-linecap="round" />
    <path d="M38.9165 35.8618H36.2975" stroke="#1F1F1F" stroke-linecap="round" />
    <path d="M38.9165 33.1582H36.9522" stroke="#1F1F1F" stroke-linecap="round" />
    <defs>
        <linearGradient id="paint0_linear_8861_13677" x1="30.8001" y1="7.44353" x2="33.287"
            y2="7.44353" gradientUnits="userSpaceOnUse">
            <stop stop-color="#FF7304" />
            <stop offset="1" stop-color="#FB2A77" />
        </linearGradient>
        <linearGradient id="paint1_linear_8861_13677" x1="27.7942" y1="30.4624" x2="36.302"
            y2="30.4624" gradientUnits="userSpaceOnUse">
            <stop stop-color="#FF7304" />
            <stop offset="1" stop-color="#FB2A77" />
        </linearGradient>
    </defs>
</svg>
