<svg width="72" height="67" viewBox="0 0 72 67" fill="none" xmlns="http://www.w3.org/2000/svg">
    <path
        d="M72 17.2635C72 7.75887 63.9755 0 53.9194 0C43.8633 0 35.8388 7.66189 35.8388 17.2635C35.8388 25.6485 42.165 32.6607 50.5343 34.2105C50.9598 34.2893 51.2784 34.6541 51.2784 35.0868V42.191C51.2784 42.9568 52.1961 43.3494 52.75 42.8205L66.2101 29.9686C69.9685 26.3802 72 22.3068 72 17.2635Z"
        fill="#FE4545" />
    <path
        d="M62.2487 20.076C60.9023 20.076 59.8109 19.0338 59.8109 17.7483C59.8109 16.4628 60.9023 15.4207 62.2487 15.4207C63.5951 15.4207 64.6865 16.4628 64.6865 17.7483C64.6865 19.0338 63.5951 20.076 62.2487 20.076Z"
        fill="white" />
    <path
        d="M53.7155 20.076C52.3691 20.076 51.2777 19.0338 51.2777 17.7483C51.2777 16.4628 52.3691 15.4207 53.7155 15.4207C55.0619 15.4207 56.1533 16.4628 56.1533 17.7483C56.1533 19.0338 55.0619 20.076 53.7155 20.076Z"
        fill="white" />
    <path
        d="M45.1842 20.076C43.8379 20.076 42.7464 19.0338 42.7464 17.7483C42.7464 16.4628 43.8379 15.4207 45.1842 15.4207C46.5306 15.4207 47.6221 16.4628 47.6221 17.7483C47.6221 19.0338 46.5306 20.076 45.1842 20.076Z"
        fill="white" />
    <path
        d="M20.4534 37.3186C14.7387 37.3186 10.1059 32.8952 10.1059 27.4388C10.1059 21.9823 14.7387 17.559 20.4534 17.559C26.1681 17.559 30.8008 21.9823 30.8008 27.4388C30.8008 32.8952 26.1681 37.3186 20.4534 37.3186Z"
        fill="#CACACA" />
    <path
        d="M41.549 66.6812C42.1255 66.6812 42.5874 66.215 42.552 65.6397C42.2689 61.0373 40.0188 42.751 22.1387 42.751C5.03651 42.751 1.69579 55.7109 0.179031 65.4892C0.0814629 66.1183 0.570778 66.6812 1.20732 66.6812H41.549Z"
        fill="#CACACA" />
    <path
        d="M8.77911 66.6814C8.77911 66.6814 7.52492 60.2024 11.7056 52.6771C15.8863 45.1519 25.502 43.0614 25.502 43.0614C25.502 43.0614 3.12315 37.7718 0.112 65.5264C0.0460014 66.1347 0.525513 66.6814 1.1374 66.6814H8.77911Z"
        fill="#AAAAAA" />
</svg>
