<svg width="24" height="24" viewBox="0 0 24 24" fill="none" xmlns="http://www.w3.org/2000/svg">
    <path fill-rule="evenodd" clip-rule="evenodd"
        d="M12.0001 22.0001C17.5232 22.0001 22.0001 17.523 22.0001 12C22.0001 6.477 17.5232 2 12.0001 2C6.47712 2 2.00012 6.477 2.00012 12C2.00012 17.523 6.47712 22.0001 12.0001 22.0001ZM15.5361 8.46399C15.7239 8.27649 15.9784 8.17125 16.2438 8.17144C16.5092 8.17162 16.7636 8.27722 16.9511 8.465C17.1386 8.65276 17.2438 8.90734 17.2437 9.1727C17.2434 9.43807 17.1378 9.69249 16.9502 9.87999L11.2971 15.533L11.2931 15.537C11.2005 15.6302 11.0903 15.7041 10.969 15.7545C10.8476 15.8051 10.7175 15.831 10.5861 15.831C10.4547 15.831 10.3246 15.8051 10.2033 15.7545C10.0819 15.7041 9.97177 15.6302 9.87912 15.537L9.87512 15.533L7.05012 12.708C6.95461 12.6157 6.87842 12.5054 6.82602 12.3834C6.7736 12.2615 6.74603 12.1302 6.74486 11.9974C6.74371 11.8646 6.76902 11.7329 6.8193 11.61C6.86958 11.4872 6.94383 11.3755 7.03772 11.2816C7.13161 11.1877 7.24327 11.1135 7.36616 11.0632C7.48905 11.0129 7.62074 10.9876 7.75352 10.9887C7.8863 10.9899 8.01752 11.0175 8.13953 11.0699C8.26153 11.1223 8.37187 11.1985 8.46411 11.294L10.5861 13.415L15.5361 8.46399Z"
        fill="#00A667" />
</svg>
