<svg width="24" height="24" viewBox="0 0 24 24" fill="none" xmlns="http://www.w3.org/2000/svg">
    <defs>
        <linearGradient id="paint0_linear_1898_9719" x1="18.1947" y1="8.62069" x2="4.2564"
            y2="9.64761" gradientUnits="userSpaceOnUse">
            <stop stop-color="#FF006E" />
            <stop offset="0.497159" stop-color="#FB5607" />
            <stop offset="1" stop-color="#FFBE0B" />
        </linearGradient>
        <clipPath id="clip0_1898_9719">
            <rect width="24" height="24" fill="white" />
        </clipPath>
    </defs>
    <g id="Flexible pay" clip-path="url(#clip0_1898_9719)">
        <path id="Vector"
            d="M11.9997 22.3846C14.7167 22.3846 16.9192 17.8386 16.9192 12.2308C16.9192 6.62304 14.7167 2.07703 11.9997 2.07703C9.28265 2.07703 7.08008 6.62304 7.08008 12.2308C7.08008 17.8386 9.28265 22.3846 11.9997 22.3846Z"
            stroke="#1F1F1F" stroke-linecap="round" />
        <path id="Vector_2"
            d="M3.13967 16.6461C4.32117 19.171 9.24581 19.241 14.1391 16.8024C19.0325 14.3638 22.0415 10.3401 20.86 7.81519C19.6785 5.29026 14.7539 5.22027 9.86054 7.65885C4.9672 10.0974 1.95817 14.1211 3.13967 16.6461Z"
            stroke="#1F1F1F" />
        <path id="Vector_3"
            d="M3.24262 7.60212C2.00405 10.0977 4.9208 14.1932 9.75736 16.7496C14.5939 19.3059 19.5188 19.3552 20.7574 16.8595C21.9959 14.3639 19.0792 10.2685 14.2426 7.71211C9.40606 5.15574 4.48119 5.10649 3.24262 7.60212Z"
            stroke="#1F1F1F" />
        <path id="Vector_4"
            d="M12 19C8.13401 19 5 15.866 5 12C5 8.13401 8.13401 5 12 5C15.866 5 19 8.13401 19 12C19 15.866 15.866 19 12 19Z"
            fill="url(#paint0_linear_1898_9719)" stroke="#1F1F1F" />
        <path id="Vector_5"
            d="M15 9.55667H12.9977C13.4807 9.75546 13.8056 10.0974 13.9725 10.5824H15V11.453H14.0779C14.0427 11.9539 13.8715 12.3714 13.5641 12.7053C13.2655 13.0393 12.8221 13.3017 12.2337 13.4925L14.2475 16.211H12.2847L10.6266 13.743H8.97998V12.753H10.5739C11.1184 12.753 11.5311 12.6536 11.8121 12.4549C12.0932 12.2561 12.2556 11.9221 12.2995 11.453H8.97998V10.5824H12.2337C12.1459 10.2564 11.957 10.0218 11.6672 9.8787C11.3774 9.72763 10.9823 9.65209 10.4817 9.65209H8.97998V8.68604H15V9.55667Z"
            fill="#1F1F1F" />
    </g>
</svg>
