<svg width="24" height="24" viewBox="0 0 24 24" fill="none" xmlns="http://www.w3.org/2000/svg">
    <defs>
        <linearGradient id="paint0_linear_1815_11215" x1="15.6872" y1="5.11599" x2="7.39223"
            y2="5.73844" gradientUnits="userSpaceOnUse">
            <stop stop-color="#FF006E" />
            <stop offset="0.497159" stop-color="#FB5607" />
            <stop offset="1" stop-color="#FFBE0B" />
        </linearGradient>
    </defs>
    <g id="Pay">
        <path id="Vector"
            d="M6.76642 14.1868L3.99089 15.6189C3.94277 15.6438 3.91559 15.6963 3.92312 15.7499L4.47118 19.6529C4.48002 19.7158 4.53385 19.7626 4.5974 19.7626H4.98387L12.3547 20.6674C12.9555 20.7411 13.5629 20.5986 14.0683 20.2654L21.3506 15.4641C21.7282 15.2151 21.8776 14.7342 21.7071 14.3152C21.5061 13.8205 20.9362 13.5894 20.4473 13.8041L14.0874 16.5974C14.0556 16.6113 14.0276 16.5718 14.0512 16.5465L14.8268 15.7155C15.5046 14.9894 14.7625 13.8394 13.8216 14.1578L12.822 14.4961C12.2676 14.6837 11.6656 14.6748 11.117 14.4709L9.85167 14.0006C8.84288 13.6257 7.72281 13.6933 6.76642 14.1868Z"
            fill="white" stroke="#1F1F1F" />
        <path id="Vector_2"
            d="M10.2485 16.3005C10.2485 16.3005 11.0451 16.5426 11.5689 16.6449C11.8761 16.7049 12.0485 16.7455 12.3611 16.7698C12.6695 16.7938 12.8458 16.801 13.1534 16.7698C13.4148 16.7433 13.6589 16.6937 13.8136 16.6449C13.9683 16.5961 14.055 16.5688 14.2097 16.52"
            stroke="#1F1F1F" stroke-linecap="round" />
        <path id="Vector_3"
            d="M4.34636 13.4613L2.63726 13.4703C2.28531 13.4721 2.00169 13.7589 2.00378 14.1109L2.04087 20.3628C2.04296 20.7148 2.32996 20.9986 2.68191 20.9968L4.39101 20.9878C4.74296 20.9859 5.02658 20.6991 5.02449 20.3472L4.9874 14.0952C4.98531 13.7433 4.69831 13.4595 4.34636 13.4613Z"
            fill="white" stroke="#1F1F1F" />
        <path id="Vector_4"
            d="M3.49191 15.4677C3.76654 15.4677 3.98918 15.2571 3.98918 14.9973C3.98918 14.7375 3.76654 14.5269 3.49191 14.5269C3.21727 14.5269 2.99463 14.7375 2.99463 14.9973C2.99463 15.2571 3.21727 15.4677 3.49191 15.4677Z"
            fill="#1F1F1F" />
        <path id="Vector_5"
            d="M11.9998 11.1818C9.69865 11.1818 7.83316 9.35027 7.83316 7.09092C7.83316 4.83157 9.69865 3 11.9998 3C14.301 3 16.1665 4.83157 16.1665 7.09092C16.1665 9.35027 14.301 11.1818 11.9998 11.1818Z"
            fill="url(#paint0_linear_1815_11215)" stroke="#1F1F1F" />
        <path id="Vector_6"
            d="M13.7015 5.84557H12.5644C12.8387 5.9564 13.0232 6.14704 13.118 6.41748H13.7015V6.90294H13.1778C13.1579 7.18224 13.0606 7.415 12.886 7.6012C12.7165 7.7874 12.4646 7.93371 12.1305 8.04011L13.2741 9.55592H12.1595L11.2178 8.17976H10.2827V7.6278H11.1879C11.4971 7.6278 11.7315 7.57238 11.8911 7.46155C12.0507 7.35071 12.1429 7.16451 12.1679 6.90294H10.2827V6.41748H12.1305C12.0806 6.23571 11.9734 6.10492 11.8088 6.02512C11.6442 5.94089 11.4198 5.89877 11.1355 5.89877H10.2827V5.36011H13.7015V5.84557Z"
            fill="#1F1F1F" />
    </g>
</svg>
