<svg width="24" height="24" viewBox="0 0 24 24" fill="none" xmlns="http://www.w3.org/2000/svg">
    <defs>
        <linearGradient id="paint0_linear_1815_11186" x1="13.509" y1="13.3276" x2="22.3208"
            y2="13.9659" gradientUnits="userSpaceOnUse">
            <stop stop-color="#FF006E" />
            <stop offset="0.497159" stop-color="#FB5607" />
            <stop offset="1" stop-color="#FFBE0B" />
        </linearGradient>
    </defs>
    <g id="Payment">
        <path id="Vector"
            d="M16.7534 5H3.71429C2.76751 5 2 5.76751 2 6.71429V13.6196C2 14.5664 2.76751 15.3339 3.71429 15.3339H16.7534C17.7002 15.3339 18.4677 14.5664 18.4677 13.6196V6.71429C18.4677 5.76751 17.7002 5 16.7534 5Z"
            fill="white" stroke="#1F1F1F" stroke-width="1.2" />
        <path id="Vector_2"
            d="M6.97485 7.5835H4.23002C4.13535 7.5835 4.05859 7.66025 4.05859 7.75493V8.96215C4.05859 9.05682 4.13535 9.13358 4.23002 9.13358H6.97485C7.06953 9.13358 7.14628 9.05682 7.14628 8.96215V7.75493C7.14628 7.66025 7.06953 7.5835 6.97485 7.5835Z"
            fill="white" stroke="#1F1F1F" stroke-width="1.2" />
        <path id="Vector_3" d="M4.31592 12.7505H6.37438" stroke="#1F1F1F" stroke-width="1.2"
            stroke-linecap="round" />
        <path id="Vector_4" d="M7.66064 12.7505H9.7191" stroke="#1F1F1F" stroke-width="1.2"
            stroke-linecap="round" />
        <path id="Vector_5" d="M11.2632 12.7505H13.3216" stroke="#1F1F1F" stroke-width="1.2"
            stroke-linecap="round" />
        <path id="Vector_6"
            d="M17.4246 20C19.8682 20 21.8492 17.9853 21.8492 15.5C21.8492 13.0147 19.8682 11 17.4246 11C14.981 11 13 13.0147 13 15.5C13 17.9853 14.981 20 17.4246 20Z"
            fill="url(#paint0_linear_1815_11186)" stroke="#1F1F1F" stroke-width="1.2" />
        <path id="Vector_7"
            d="M18.9999 14.2953H17.9807C18.2265 14.3982 18.3919 14.5752 18.4769 14.8263H18.9999V15.277H18.5305C18.5126 15.5364 18.4255 15.7525 18.269 15.9254C18.117 16.0983 17.8913 16.2341 17.5918 16.3329L18.8054 18H17.8063L16.7737 16.4625H15.9355V15.9501H16.7469C17.024 15.9501 17.2341 15.8986 17.3772 15.7957C17.5202 15.6928 17.6029 15.5199 17.6253 15.277H15.9355V14.8263H17.5918C17.5471 14.6575 17.451 14.5361 17.3034 14.462C17.1559 14.3838 16.9548 14.3447 16.6999 14.3447H15.9355V13.8446H18.9999V14.2953Z"
            fill="#1F1F1F" />
    </g>
</svg>
