<svg width="328" height="200" viewBox="0 0 328 200" fill="none" xmlns="http://www.w3.org/2000/svg">
    <rect width="328" height="200" rx="16" fill="#F5F6FB" />
    <path
        d="M25.1229 76.1312C26.1367 76.3584 27.2697 76.4519 28.1491 75.8988C28.8135 75.4813 29.2185 74.7656 29.7362 74.176C30.9671 72.7743 33.1192 72.0965 34.7859 72.9344C35.3892 73.2379 35.9133 73.7191 36.57 73.8766C37.6494 74.1358 38.7471 73.4305 39.4221 72.5494C40.0974 71.6682 40.497 70.6054 41.1378 69.6989C42.7978 67.3505 45.7064 66.5517 48.4497 67.2358C51.0506 67.8842 52.2386 70.8672 53.8288 72.7676C56.1087 75.4925 60.9679 74.6226 64.1866 75.5052C64.5501 75.6046 64.9132 75.7208 65.2387 75.9107C65.5672 76.1022 65.8498 76.3643 66.176 76.5591C67.2601 77.206 68.6191 77.019 69.8793 77.0902C69.9977 77.0969 70.1195 77.1073 70.2267 77.1591C70.6155 77.3475 70.5727 77.9072 70.4696 78.3269C65.9641 78.5325 61.6304 78.2867 57.1387 78.4338C51.9194 78.6048 46.6988 78.7232 41.4773 78.7891C37.9463 78.8338 34.4152 78.8546 30.8837 78.8509C29.1718 78.8491 27.4597 78.8416 25.7475 78.8289C24.5165 78.8196 21.6686 79.3343 20.6093 78.7299C19.7123 78.2182 19.9053 77.0801 20.5461 76.3856C21.724 75.1089 23.6998 75.812 25.1229 76.1312Z"
        fill="url(#paint0_linear_1551_8696)" />
    <path
        d="M269.903 134.043C268.566 134.343 267.071 134.467 265.911 133.737C265.035 133.186 264.501 132.242 263.818 131.464C262.195 129.616 259.356 128.722 257.158 129.827C256.362 130.227 255.671 130.862 254.805 131.07C253.382 131.412 251.934 130.481 251.043 129.319C250.153 128.157 249.625 126.755 248.78 125.56C246.591 122.463 242.754 121.409 239.136 122.311C235.706 123.166 234.139 127.101 232.042 129.607C229.035 133.201 222.626 132.054 218.381 133.218C217.901 133.349 217.422 133.502 216.993 133.753C216.56 134.005 216.187 134.351 215.757 134.608C214.327 135.461 212.534 135.215 210.872 135.308C210.716 135.317 210.555 135.331 210.414 135.399C209.901 135.648 209.958 136.386 210.094 136.94C216.036 137.211 221.752 136.886 227.676 137.08C234.56 137.306 241.446 137.463 248.332 137.549C252.989 137.608 257.647 137.635 262.304 137.631C264.562 137.628 266.821 137.619 269.079 137.601C270.703 137.589 274.459 138.268 275.856 137.471C277.039 136.796 276.784 135.295 275.939 134.379C274.386 132.695 271.78 133.623 269.903 134.043Z"
        fill="url(#paint1_linear_1551_8696)" />
    <path
        d="M275.355 50.3839C276.79 49.8696 278.455 49.8178 279.784 50.563C281.581 51.5696 282.666 53.9125 284.717 54.1009C286.016 54.2201 287.278 53.3781 288.569 53.5676C289.269 53.6704 289.886 54.0659 290.526 54.3679C295.107 56.5305 300.876 53.9389 305.467 56.081C305.677 56.3164 305.243 56.5871 304.929 56.6076C294.089 57.307 283.212 58.0064 272.376 57.266C271.669 57.218 261.845 57.2828 262.002 56.4054C262.249 55.0237 267.14 55.4226 268.144 55.2494C271.183 54.7251 272.42 51.4356 275.355 50.3839Z"
        fill="url(#paint2_linear_1551_8696)" />
    <path d="M124.07 143.236H207.556V97.0417H124.07V143.236Z" fill="#E8A126" />
    <path
        d="M202.697 65.2542L202.691 91.5321L202.682 114.397C202.682 114.92 202.628 115.432 202.525 115.926C202.502 116.036 202.477 116.145 202.45 116.253C202.423 116.361 202.393 116.468 202.36 116.574C202.344 116.626 202.328 116.679 202.31 116.731C202.277 116.837 202.239 116.941 202.201 117.043C202.162 117.147 202.122 117.249 202.078 117.349C202.035 117.45 201.99 117.549 201.942 117.647C201.872 117.795 201.796 117.94 201.716 118.082C201.675 118.155 201.632 118.227 201.589 118.298C201.322 118.737 201.011 119.146 200.663 119.519C200.589 119.598 200.514 119.675 200.438 119.751C199.625 120.551 198.63 121.167 197.521 121.532C197.431 121.563 197.339 121.591 197.246 121.617C196.586 121.806 195.887 121.908 195.166 121.908L138.947 121.885C138.423 121.885 137.912 121.831 137.419 121.729C137.308 121.706 137.199 121.682 137.091 121.653C136.983 121.625 136.877 121.595 136.771 121.564C136.717 121.549 136.664 121.532 136.613 121.514C136.403 121.446 136.197 121.368 135.995 121.282C135.844 121.216 135.696 121.147 135.55 121.074C135.453 121.025 135.357 120.974 135.262 120.92C135.167 120.865 135.074 120.81 134.983 120.753C134.936 120.725 134.891 120.696 134.845 120.666C134.755 120.606 134.666 120.544 134.577 120.482C132.675 119.119 131.436 116.888 131.437 114.369L131.441 104.447L131.452 65.2248C131.452 64.331 131.609 63.4728 131.896 62.6774C131.927 62.5927 131.958 62.5078 131.992 62.425C132.033 62.323 132.076 62.2221 132.122 62.1231C132.157 62.0445 132.194 61.966 132.234 61.8891C132.302 61.7493 132.376 61.6111 132.455 61.4768C132.484 61.4256 132.514 61.3742 132.545 61.3241C132.614 61.2104 132.687 61.0984 132.762 60.987C132.793 60.9428 132.824 60.8983 132.856 60.8552C132.949 60.7231 133.048 60.5939 133.151 60.4683C133.254 60.3441 133.36 60.2222 133.47 60.104C133.581 59.9857 133.695 59.8705 133.813 59.7606C133.932 59.6481 134.052 59.5414 134.176 59.4386C134.261 59.3687 134.345 59.3024 134.43 59.2372C134.517 59.1716 134.605 59.107 134.695 59.0459C134.783 58.9847 134.873 58.9258 134.965 58.8678C135.101 58.7809 135.242 58.6981 135.386 58.6207C135.434 58.5948 135.482 58.5691 135.53 58.5444C136.56 58.014 137.729 57.7141 138.968 57.7151L153.885 57.7208L160.529 57.7231L161.82 57.7247L162.675 57.7241L164.729 57.725L165.194 57.7261L169.422 57.7267L169.89 57.7275L171.94 57.7278L172.796 57.7282L174.088 57.7286L180.087 57.7312L195.187 57.7374C195.653 57.7371 196.108 57.7803 196.551 57.8614C196.772 57.9019 196.989 57.9527 197.204 58.0121C197.363 58.0567 197.521 58.1066 197.678 58.1614C197.781 58.1978 197.885 58.2363 197.987 58.2775C198.089 58.3189 198.189 58.3628 198.288 58.4069C198.338 58.4285 198.388 58.4521 198.437 58.4762C198.634 58.5719 198.825 58.6743 199.012 58.7848C199.153 58.8684 199.29 58.9561 199.422 59.0471C199.466 59.0765 199.511 59.1071 199.556 59.1402C199.995 59.4558 200.399 59.8165 200.762 60.2174C200.833 60.2969 200.904 60.3793 200.974 60.4628C201.18 60.7112 201.371 60.9754 201.544 61.2498C201.594 61.3295 201.642 61.4095 201.689 61.4908C201.945 61.9331 202.158 62.4041 202.321 62.8989C202.354 62.9957 202.383 63.0942 202.412 63.1928C202.428 63.2508 202.444 63.3077 202.458 63.3669C202.485 63.4671 202.508 63.5678 202.53 63.6699C202.64 64.1794 202.697 64.7108 202.697 65.2542Z"
        fill="white" />
    <mask id="mask0_1551_8696" style="mask-type:luminance" maskUnits="userSpaceOnUse" x="197" y="97"
        width="6" height="27">
        <path
            d="M197.828 123.065C197.891 122.976 197.952 122.885 198.011 122.793C197.952 122.886 197.891 122.976 197.828 123.065ZM198.011 122.793C198.07 122.701 198.127 122.607 198.182 122.512C198.127 122.608 198.071 122.702 198.011 122.793ZM198.182 122.512C198.237 122.417 198.29 122.321 198.341 122.222C198.291 122.321 198.237 122.417 198.182 122.512ZM198.416 122.075C198.466 121.976 198.512 121.875 198.558 121.773C198.513 121.875 198.466 121.976 198.416 122.075ZM198.685 121.463C198.867 120.992 199.004 120.498 199.09 119.98L202.849 97.4265L199.091 119.98C199.005 120.496 198.868 120.992 198.685 121.463Z"
            fill="white" />
    </mask>
    <g mask="url(#mask0_1551_8696)">
        <path
            d="M197.828 123.065C197.891 122.976 197.952 122.885 198.011 122.793C197.952 122.886 197.891 122.976 197.828 123.065ZM198.011 122.793C198.07 122.701 198.127 122.607 198.182 122.512C198.127 122.608 198.071 122.702 198.011 122.793ZM198.182 122.512C198.237 122.417 198.29 122.321 198.341 122.222C198.291 122.321 198.237 122.417 198.182 122.512ZM198.416 122.075C198.466 121.976 198.512 121.875 198.558 121.773C198.513 121.875 198.466 121.976 198.416 122.075ZM198.685 121.463C198.867 120.992 199.004 120.498 199.09 119.98L202.849 97.4265L199.091 119.98C199.005 120.496 198.868 120.992 198.685 121.463Z"
            fill="url(#paint3_linear_1551_8696)" />
    </g>
    <path
        d="M207.556 97.0422V143.677C207.556 144.128 207.362 144.534 207.052 144.814L207.017 144.846C206.748 145.075 206.401 145.212 206.021 145.212H125.606C125.226 145.212 124.878 145.075 124.61 144.845L124.574 144.814C124.265 144.533 124.07 144.128 124.07 143.677V97.0422L157.927 118.522L160.722 120.296L165.813 116.836L170.904 120.296L173.7 118.522L207.556 97.0422Z"
        fill="#F2D182" />
    <path
        d="M207.05 144.814L207.015 144.846L204.647 143.236L170.902 120.296L173.698 118.522L205.049 143.236L207.05 144.814Z"
        fill="#E8A126" />
    <path
        d="M160.722 120.297L126.977 143.237L124.609 144.845L124.574 144.815L126.576 143.237L157.926 118.523L160.722 120.297Z"
        fill="#E8A126" />
    <path
        d="M165.343 48.6841C165.343 47.0962 164.056 45.8092 162.469 45.8092C164.056 45.8092 165.343 44.5222 165.343 42.9346C165.343 44.5222 166.631 45.8092 168.218 45.8092C166.631 45.8092 165.343 47.0962 165.343 48.6841Z"
        fill="white" />
    <path
        d="M134.715 131.602C134.715 130.014 133.428 128.727 131.84 128.727C133.428 128.727 134.715 127.44 134.715 125.853C134.715 127.44 136.002 128.727 137.589 128.727C136.002 128.727 134.715 130.014 134.715 131.602Z"
        fill="white" />
    <path
        d="M116.816 45.0298C116.816 43.4422 115.529 42.1552 113.941 42.1552C115.529 42.1552 116.816 40.8682 116.816 39.2806C116.816 40.8682 118.103 42.1552 119.691 42.1552C118.103 42.1552 116.816 43.4422 116.816 45.0298Z"
        fill="white" />
    <path
        d="M119.027 59.9043C119.027 59.1105 118.384 58.4669 117.59 58.4669C118.384 58.4669 119.027 57.8235 119.027 57.0294C119.027 57.8235 119.671 58.4669 120.465 58.4669C119.671 58.4669 119.027 59.1105 119.027 59.9043Z"
        fill="white" />
    <path
        d="M110.144 124.043C110.144 123.25 109.501 122.606 108.707 122.606C109.501 122.606 110.144 121.963 110.144 121.169C110.144 121.963 110.788 122.606 111.582 122.606C110.788 122.606 110.144 123.25 110.144 124.043Z"
        fill="white" />
    <path
        d="M156.914 141.165C156.914 140.371 156.27 139.728 155.477 139.728C156.27 139.728 156.914 139.084 156.914 138.29C156.914 139.084 157.557 139.728 158.351 139.728C157.557 139.728 156.914 140.371 156.914 141.165Z"
        fill="white" />
    <path
        d="M224.707 88.6558C224.707 87.862 224.063 87.2183 223.27 87.2183C224.063 87.2183 224.707 86.5747 224.707 85.7809C224.707 86.5747 225.351 87.2183 226.144 87.2183C225.351 87.2183 224.707 87.862 224.707 88.6558Z"
        fill="white" />
    <path
        d="M117.59 144.04C117.59 143.246 116.946 142.602 116.152 142.602C116.946 142.602 117.59 141.959 117.59 141.165C117.59 141.959 118.233 142.602 119.027 142.602C118.233 142.602 117.59 143.246 117.59 144.04Z"
        fill="white" />
    <path
        d="M221.937 130.165C221.937 129.371 221.294 128.728 220.5 128.728C221.294 128.728 221.937 128.084 221.937 127.29C221.937 128.084 222.581 128.728 223.375 128.728C222.581 128.728 221.937 129.371 221.937 130.165Z"
        fill="white" />
    <path
        d="M218.648 51.9546C218.648 51.1611 218.005 50.5174 217.211 50.5174C218.005 50.5174 218.648 49.8738 218.648 49.08C218.648 49.8738 219.292 50.5174 220.086 50.5174C219.292 50.5174 218.648 51.1611 218.648 51.9546Z"
        fill="white" />
    <path
        d="M107.086 72.7139C107.086 71.9198 106.442 71.2764 105.648 71.2764C106.442 71.2764 107.086 70.6328 107.086 69.8393C107.086 70.6328 107.729 71.2764 108.523 71.2764C107.729 71.2764 107.086 71.9198 107.086 72.7139Z"
        fill="white" />
    <path
        d="M195.675 39.2808C195.675 38.487 195.032 37.8433 194.238 37.8433C195.032 37.8433 195.675 37.1997 195.675 36.4059C195.675 37.1997 196.319 37.8433 197.113 37.8433C196.319 37.8433 195.675 38.487 195.675 39.2808Z"
        fill="white" />
    <path
        d="M116.816 102.663C116.816 101.075 115.529 99.7877 113.941 99.7877C115.529 99.7877 116.816 98.5007 116.816 96.9131C116.816 98.5007 118.103 99.7877 119.691 99.7877C118.103 99.7877 116.816 101.075 116.816 102.663Z"
        fill="white" />
    <path
        d="M197.839 70.5049C197.839 68.9173 196.553 67.63 194.965 67.63C196.553 67.63 197.839 66.343 197.839 64.7554C197.839 66.343 199.127 67.63 200.714 67.63C199.127 67.63 197.839 68.9173 197.839 70.5049Z"
        fill="white" />
    <path
        d="M218.004 99.7876C218.004 98.2 216.716 96.913 215.129 96.913C216.716 96.913 218.004 95.6257 218.004 94.0384C218.004 95.6257 219.291 96.913 220.878 96.913C219.291 96.913 218.004 98.2 218.004 99.7876Z"
        fill="white" />
    <rect x="166.883" y="106.343" width="4.37501" height="1.45834" rx="0.729168" fill="#FE4545" />
    <path
        d="M163.757 105.517L164.552 107.921H164.583L165.377 105.517H165.985L164.909 108.572H164.225L163.15 105.517H163.757ZM167.132 108.617C166.902 108.617 166.704 108.569 166.537 108.473C166.371 108.377 166.243 108.241 166.154 108.065C166.064 107.888 166.019 107.679 166.019 107.44C166.019 107.204 166.064 106.997 166.154 106.819C166.244 106.64 166.37 106.501 166.532 106.402C166.694 106.301 166.885 106.251 167.104 106.251C167.245 106.251 167.378 106.274 167.503 106.32C167.63 106.364 167.741 106.434 167.837 106.528C167.935 106.623 168.011 106.743 168.067 106.889C168.123 107.035 168.151 107.208 168.151 107.408V107.574H166.273V107.21H167.633C167.632 107.107 167.61 107.015 167.566 106.934C167.522 106.853 167.461 106.788 167.383 106.742C167.305 106.695 167.214 106.672 167.111 106.672C167.001 106.672 166.904 106.698 166.82 106.752C166.737 106.805 166.672 106.874 166.625 106.961C166.579 107.046 166.556 107.14 166.555 107.243V107.561C166.555 107.694 166.579 107.808 166.628 107.904C166.677 107.998 166.745 108.071 166.832 108.121C166.92 108.171 167.022 108.196 167.139 108.196C167.218 108.196 167.289 108.185 167.353 108.163C167.416 108.14 167.472 108.107 167.518 108.063C167.565 108.019 167.6 107.965 167.624 107.901L168.128 107.957C168.096 108.091 168.036 108.207 167.946 108.306C167.858 108.405 167.744 108.481 167.606 108.536C167.468 108.59 167.31 108.617 167.132 108.617ZM168.607 108.572V106.281H169.131V106.663H169.155C169.197 106.53 169.268 106.429 169.37 106.357C169.472 106.284 169.589 106.248 169.72 106.248C169.75 106.248 169.783 106.25 169.82 106.253C169.858 106.255 169.889 106.258 169.914 106.263V106.76C169.891 106.752 169.855 106.745 169.805 106.739C169.756 106.732 169.709 106.728 169.663 106.728C169.565 106.728 169.476 106.75 169.398 106.792C169.32 106.834 169.259 106.892 169.214 106.967C169.17 107.042 169.147 107.128 169.147 107.225V108.572H168.607ZM170.273 108.572V106.281H170.813V108.572H170.273ZM170.544 105.956C170.459 105.956 170.385 105.927 170.323 105.871C170.262 105.813 170.231 105.744 170.231 105.663C170.231 105.582 170.262 105.513 170.323 105.456C170.385 105.398 170.459 105.37 170.544 105.37C170.631 105.37 170.704 105.398 170.765 105.456C170.826 105.513 170.857 105.582 170.857 105.663C170.857 105.744 170.826 105.813 170.765 105.871C170.704 105.927 170.631 105.956 170.544 105.956ZM172.528 106.281V106.698H171.174V106.281H172.528ZM171.512 108.572V106.065C171.512 105.91 171.544 105.782 171.608 105.68C171.673 105.577 171.759 105.501 171.867 105.45C171.976 105.399 172.096 105.374 172.228 105.374C172.322 105.374 172.405 105.382 172.477 105.396C172.55 105.411 172.604 105.425 172.638 105.437L172.531 105.854C172.508 105.847 172.479 105.84 172.445 105.833C172.41 105.825 172.371 105.821 172.328 105.821C172.228 105.821 172.157 105.846 172.115 105.895C172.074 105.942 172.054 106.011 172.054 106.1V108.572H171.512ZM173.287 109.431C173.213 109.431 173.145 109.425 173.082 109.413C173.021 109.402 172.971 109.389 172.935 109.374L173.06 108.954C173.138 108.976 173.208 108.987 173.27 108.986C173.332 108.985 173.386 108.966 173.433 108.928C173.48 108.891 173.521 108.83 173.554 108.743L173.6 108.62L172.769 106.281H173.342L173.87 108.011H173.894L174.423 106.281H174.997L174.08 108.849C174.037 108.97 173.981 109.074 173.91 109.161C173.839 109.248 173.753 109.315 173.65 109.361C173.549 109.408 173.428 109.431 173.287 109.431Z"
        fill="white" />
    <rect x="158.367" y="106.343" width="21.4" height="7.8" rx="3.9" fill="#FE4545" />
    <path
        d="M163.753 108.688L164.548 111.092H164.579L165.373 108.688H165.981L164.905 111.743H164.222L163.146 108.688H163.753ZM167.128 111.787C166.898 111.787 166.7 111.74 166.533 111.644C166.367 111.548 166.239 111.412 166.15 111.236C166.06 111.059 166.015 110.85 166.015 110.611C166.015 110.375 166.06 110.168 166.15 109.99C166.24 109.811 166.366 109.672 166.528 109.573C166.691 109.472 166.881 109.422 167.1 109.422C167.241 109.422 167.374 109.445 167.499 109.491C167.626 109.535 167.737 109.605 167.834 109.699C167.931 109.794 168.008 109.914 168.063 110.06C168.119 110.205 168.147 110.378 168.147 110.579V110.745H166.269V110.381H167.629C167.628 110.278 167.606 110.186 167.562 110.105C167.518 110.023 167.457 109.959 167.379 109.913C167.301 109.866 167.211 109.843 167.107 109.843C166.997 109.843 166.9 109.869 166.816 109.923C166.733 109.976 166.668 110.045 166.621 110.132C166.575 110.217 166.552 110.311 166.551 110.414V110.731C166.551 110.865 166.575 110.979 166.624 111.074C166.673 111.169 166.741 111.242 166.828 111.292C166.916 111.342 167.018 111.367 167.135 111.367C167.214 111.367 167.285 111.356 167.349 111.334C167.412 111.311 167.468 111.278 167.514 111.234C167.561 111.19 167.596 111.136 167.62 111.072L168.124 111.128C168.093 111.261 168.032 111.378 167.942 111.477C167.854 111.576 167.741 111.652 167.602 111.707C167.464 111.761 167.306 111.787 167.128 111.787ZM168.603 111.743V109.452H169.127V109.834H169.151C169.193 109.701 169.264 109.599 169.366 109.528C169.468 109.455 169.585 109.419 169.716 109.419C169.746 109.419 169.779 109.42 169.816 109.423C169.854 109.425 169.885 109.429 169.91 109.434V109.931C169.887 109.923 169.851 109.916 169.801 109.91C169.752 109.903 169.705 109.899 169.659 109.899C169.561 109.899 169.473 109.921 169.394 109.963C169.316 110.005 169.255 110.063 169.211 110.138C169.166 110.212 169.143 110.298 169.143 110.396V111.743H168.603ZM170.269 111.743V109.452H170.809V111.743H170.269ZM170.54 109.127C170.455 109.127 170.381 109.098 170.319 109.042C170.258 108.984 170.227 108.915 170.227 108.834C170.227 108.753 170.258 108.684 170.319 108.627C170.381 108.569 170.455 108.54 170.54 108.54C170.627 108.54 170.7 108.569 170.761 108.627C170.823 108.684 170.853 108.753 170.853 108.834C170.853 108.915 170.823 108.984 170.761 109.042C170.7 109.098 170.627 109.127 170.54 109.127ZM172.524 109.452V109.869H171.17V109.452H172.524ZM171.509 111.743V109.235C171.509 109.081 171.54 108.953 171.604 108.851C171.669 108.748 171.755 108.672 171.863 108.621C171.972 108.57 172.092 108.545 172.224 108.545C172.318 108.545 172.401 108.552 172.474 108.567C172.546 108.582 172.6 108.596 172.635 108.608L172.527 109.025C172.504 109.018 172.475 109.011 172.441 109.004C172.406 108.996 172.367 108.992 172.324 108.992C172.224 108.992 172.153 109.017 172.111 109.065C172.07 109.113 172.05 109.182 172.05 109.271V111.743H171.509ZM173.283 112.602C173.209 112.602 173.141 112.596 173.078 112.584C173.017 112.573 172.967 112.56 172.931 112.545L173.056 112.124C173.134 112.147 173.205 112.158 173.266 112.157C173.328 112.156 173.382 112.137 173.429 112.099C173.477 112.062 173.517 112.001 173.55 111.914L173.596 111.79L172.765 109.452H173.338L173.866 111.182H173.89L174.419 109.452H174.993L174.076 112.02C174.033 112.141 173.977 112.245 173.906 112.332C173.835 112.419 173.749 112.486 173.647 112.532C173.545 112.578 173.424 112.602 173.283 112.602Z"
        fill="white" />
    <path
        d="M183.622 102.355C185.983 102.348 187.897 100.424 187.891 98.0638C187.885 95.7038 185.96 93.7891 183.6 93.795L145.14 93.8948C143.997 93.8977 142.924 94.3463 142.117 95.1562C141.311 95.9667 140.869 97.0426 140.872 98.1859C140.878 100.546 142.803 102.461 145.163 102.455L183.622 102.355ZM184.355 102.41C184.115 102.45 183.871 102.471 183.623 102.472L145.163 102.572C142.739 102.578 140.761 100.611 140.755 98.1861C140.748 95.7616 142.715 93.7828 145.14 93.7777L183.6 93.678C186.024 93.6715 188.002 95.639 188.008 98.0635C188.011 99.238 187.557 100.343 186.729 101.176C186.075 101.833 185.25 102.258 184.355 102.41Z"
        fill="#624DE3" />
    <path
        d="M147.181 99.6048L145.46 99.6093C145.266 99.6099 145.109 99.4528 145.108 99.2588L145.104 97.5381C145.103 97.3441 145.26 97.1864 145.454 97.186L147.175 97.1816C147.369 97.181 147.526 97.3378 147.527 97.5318L147.531 99.2525C147.532 99.4468 147.375 99.6042 147.181 99.6048Z"
        fill="#624DE3" />
    <path
        d="M146.257 96.8728C146.091 96.901 145.965 97.0461 145.965 97.2201C145.965 97.3139 146.002 97.4021 146.068 97.4682C146.135 97.5344 146.223 97.5706 146.317 97.5705C146.51 97.568 146.668 97.412 146.667 97.2183C146.667 97.1247 146.63 97.0362 146.564 96.9701C146.497 96.9039 146.409 96.8677 146.315 96.8678L146.257 96.8728ZM146.419 97.8251C146.386 97.8307 146.352 97.8337 146.318 97.8338C146.153 97.8341 145.999 97.7706 145.882 97.6549C145.766 97.5393 145.702 97.3849 145.701 97.2208C145.701 96.882 145.974 96.6037 146.315 96.6045C146.479 96.6042 146.633 96.6678 146.749 96.7834C146.866 96.8993 146.93 97.0534 146.931 97.2175C146.932 97.522 146.71 97.7758 146.419 97.8251Z"
        fill="#624DE3" />
    <path
        d="M146.654 98.3947C146.654 98.5789 146.505 98.7289 146.321 98.7291C146.137 98.7297 145.987 98.5806 145.987 98.3963C145.986 98.2121 146.135 98.0624 146.319 98.0618C146.504 98.0613 146.653 98.2102 146.654 98.3947Z"
        fill="white" />
    <path
        d="M144.401 82.0031C143.529 82.1507 142.726 82.5641 142.09 83.2038C141.284 84.0143 140.841 85.0902 140.844 86.2335C140.848 87.3765 141.295 88.4503 142.106 89.2564C142.917 90.0625 143.992 90.5052 145.135 90.502L183.595 90.4022C184.738 90.3997 185.812 89.9512 186.618 89.1408C187.424 88.3304 187.867 87.2544 187.864 86.1112C187.858 83.7514 185.933 81.8365 183.573 81.8427L145.113 81.9424C144.872 81.9431 144.634 81.9636 144.401 82.0031ZM184.328 90.4572C184.088 90.4978 183.843 90.5188 183.596 90.5195L145.136 90.6193C142.711 90.6256 140.734 88.6583 140.727 86.2338C140.724 85.0593 141.179 83.9538 142.007 83.1212C142.836 82.2884 143.939 81.8288 145.113 81.8251L183.572 81.7253C184.747 81.7224 185.852 82.1767 186.685 83.0052C187.518 83.8333 187.978 84.9364 187.981 86.1109C187.984 87.2856 187.53 88.3908 186.701 89.2238C186.048 89.8804 185.223 90.3056 184.328 90.4572Z"
        fill="#624DE3" />
    <path
        d="M147.044 85.4018C147.045 85.8197 146.707 86.159 146.289 86.1601C145.872 86.1613 145.532 85.8235 145.531 85.4059C145.53 84.9884 145.868 84.6488 146.285 84.6479C146.703 84.6468 147.042 84.9843 147.044 85.4018Z"
        fill="#624DE3" />
    <path
        d="M147.224 87.5539L145.363 87.5589L145.362 87.3261C145.361 86.812 145.777 86.3942 146.291 86.3931C146.805 86.3915 147.222 86.8072 147.224 87.3213L147.224 87.5539Z"
        fill="#624DE3" />
    <path
        d="M179.733 58.0936C179.733 66.8543 172.631 73.9563 163.87 73.9563C155.109 73.9563 148.007 66.8543 148.007 58.0936C148.007 49.3328 155.109 42.2308 163.87 42.2308C172.631 42.2308 179.733 49.3328 179.733 58.0936Z"
        fill="white" stroke="#624DE3" stroke-width="0.576828" />
    <mask id="mask1_1551_8696" style="mask-type:alpha" maskUnits="userSpaceOnUse" x="147" y="41"
        width="34" height="34">
        <path
            d="M179.733 58.0936C179.733 66.8543 172.631 73.9563 163.87 73.9563C155.109 73.9563 148.007 66.8543 148.007 58.0936C148.007 49.3328 155.109 42.2308 163.87 42.2308C172.631 42.2308 179.733 49.3328 179.733 58.0936Z"
            fill="#F5F6FB" stroke="#624DE3" stroke-width="0.576828" />
    </mask>
    <g mask="url(#mask1_1551_8696)">
        <path
            d="M168.809 54.0676C168.809 56.8785 166.518 59.1598 163.687 59.1598C160.857 59.1598 158.566 56.8785 158.566 54.0676C158.566 51.2568 160.857 48.9754 163.687 48.9754C166.518 48.9754 168.809 51.2568 168.809 54.0676Z"
            fill="#624DE3" stroke="#624DE3" stroke-width="0.576828" />
        <path
            d="M151.205 72.9359C151.895 67.0386 157.209 62.4271 163.689 62.4271C170.169 62.4271 175.483 67.0385 176.173 72.9359C176.237 73.4783 175.785 73.9566 175.185 73.9566H152.193C151.593 73.9566 151.141 73.4783 151.205 72.9359Z"
            fill="#624DE3" stroke="#624DE3" stroke-width="0.576828" />
    </g>
    <g clip-path="url(#clip0_1551_8696)">
        <ellipse cx="5.76828" cy="5.76828" rx="5.76828" ry="5.76828"
            transform="matrix(1 0 0 -1 171.996 75.0771)" fill="white" />
        <path
            d="M177.765 77C173.516 77 170.074 73.5583 170.074 69.309C170.074 65.0597 173.516 61.6179 177.765 61.6179C182.015 61.6179 185.456 65.0597 185.456 69.309C185.456 73.5583 182.015 77 177.765 77ZM178.534 65.4634H176.996V70.0781H178.534V65.4634ZM178.534 71.6163H176.996V73.1545H178.534V71.6163Z"
            fill="#E71313" />
    </g>
    <defs>
        <linearGradient id="paint0_linear_1551_8696" x1="27.9421" y1="77.7361" x2="30.6507"
            y2="61.5974" gradientUnits="userSpaceOnUse">
            <stop stop-color="#F9C2C2" />
            <stop offset="0.953135" stop-color="#FFF1F1" />
        </linearGradient>
        <linearGradient id="paint1_linear_1551_8696" x1="220.475" y1="136.16" x2="224.047"
            y2="114.874" gradientUnits="userSpaceOnUse">
            <stop stop-color="#F9C2C2" />
            <stop offset="0.953135" stop-color="#FFF1F1" />
        </linearGradient>
        <linearGradient id="paint2_linear_1551_8696" x1="268.839" y1="56.7701" x2="270.106"
            y2="46.4621" gradientUnits="userSpaceOnUse">
            <stop stop-color="#F9C2C2" />
            <stop offset="0.953135" stop-color="#FFF1F1" />
        </linearGradient>
        <linearGradient id="paint3_linear_1551_8696" x1="128.712" y1="111.844" x2="202.849"
            y2="111.844" gradientUnits="userSpaceOnUse">
            <stop stop-color="#F6F4FA" />
            <stop offset="1" stop-color="#F9F4FD" />
        </linearGradient>
        <clipPath id="clip0_1551_8696">
            <rect width="18.4585" height="18.4585" fill="white"
                transform="matrix(1 0 0 -1 168.535 78.5381)" />
        </clipPath>
    </defs>
</svg>
