<svg width="80" height="114" viewBox="0 0 80 114" fill="none" xmlns="http://www.w3.org/2000/svg">
    <path
        d="M72.9509 52.3178H61.743V33.0443C61.743 21.0574 51.9892 11.3056 39.9999 11.3056C28.0105 11.3056 18.2567 21.0574 18.2567 33.0443V52.3178H7.04883V33.0443C7.04883 14.8787 21.8307 0.10001 39.9999 0.10001C58.169 0.10001 72.9509 14.8787 72.9509 33.0443V52.3178Z"
        fill="#CACACA" />
    <path
        d="M72.951 33.0443V52.3178H61.743V47.1632C66.2265 45.3703 68.0195 41.7847 68.0195 36.8542V33.0443C68.0195 15.7072 54.5567 1.45601 37.5342 0.191826C37.7157 0.178574 37.8972 0.16724 38.0811 0.155914C38.117 0.153748 38.1529 0.151577 38.1886 0.149406C38.3166 0.142662 38.4465 0.135914 38.5742 0.131332C38.6258 0.129166 38.6774 0.127003 38.729 0.124592C38.8006 0.122421 38.8745 0.117851 38.9488 0.117851C39.092 0.111103 39.2356 0.108921 39.379 0.106754C39.5851 0.102177 39.7938 0.10001 39.9999 0.10001C58.17 0.10001 72.951 14.8779 72.951 33.0443Z"
        fill="#E9E9E9" />
    <path
        d="M75.0794 113.5H4.92071C2.25853 113.5 0.100098 111.342 0.100098 108.68V53.1034C0.100098 50.4417 2.25853 48.2838 4.92071 48.2838H75.0794C77.7416 48.2838 79.9 50.4417 79.9 53.1034V108.68C79.9 111.342 77.7416 113.5 75.0794 113.5Z"
        fill="#E9E9E9" />
    <path
        d="M48.0578 91.1697C48.4162 93.422 46.6767 95.4592 44.397 95.4592H35.6014C33.3217 95.4592 31.5822 93.422 31.9406 91.1697L33.1915 83.3215C31.3086 81.524 30.1362 78.9915 30.1362 76.1855C30.1362 70.7398 34.5521 66.3248 39.9992 66.3248C45.4462 66.3248 49.8622 70.7398 49.8622 76.1855C49.8622 78.9915 48.6898 81.524 46.8069 83.3215L48.0578 91.1697Z"
        fill="#FE4545" />
    <path
        d="M79.8997 52.766V109.018C79.8997 111.494 77.8934 113.5 75.4163 113.5H18.0322C41.3447 113.5 66.2263 109.69 66.2263 82.7969V59.9376C66.2263 53.5012 61.0077 48.2838 54.5698 48.2838H75.4163C77.8934 48.2838 79.8997 50.2897 79.8997 52.766Z"
        fill="#CACACA" />
    <path
        d="M3.91016 53.7926V83.6933C3.91016 83.6933 13.7755 59.4 34.2376 52.0937H5.60918C4.67085 52.0937 3.91016 52.8542 3.91016 53.7926Z"
        fill="#CACACA" />
    <path
        d="M31.4812 76.7461C31.4812 79.5518 32.6536 82.0843 34.5365 83.8815L33.2855 91.7298C33.0481 93.2181 33.7295 94.6144 34.8749 95.3874C32.965 95.011 31.6224 93.1755 31.9406 91.1698L33.1915 83.3215C31.3086 81.524 30.1362 78.9915 30.1362 76.1856C30.1362 70.7399 34.5521 66.3248 39.9992 66.3248C41.6018 66.3248 43.1172 66.708 44.4554 67.3871C43.4782 67.0598 42.4314 66.8851 41.3441 66.8851C35.8971 66.8851 31.4812 71.3001 31.4812 76.7461Z"
        fill="#E71313" />
    <path
        d="M33.2751 2.56525C33.2751 2.56525 10.6351 6.92461 8.8418 31.4755H13.1008C13.1008 31.4755 13.9974 11.9727 33.2751 2.56525Z"
        fill="#CACACA" />
</svg>
